<?xml version="1.0" encoding="UTF-8"?>
<!DOCTYPE score-partwise PUBLIC "-//Recordare//DTD MusicXML 2.0 Partwise//EN" "http://www.musicxml.org/dtds/partwise.dtd">
<score-partwise version="2.0">
    <work>
        <work-number></work-number>
        <work-title></work-title>
    </work>
    <movement-number></movement-number>
    <movement-title>Cill Chais</movement-title>
    <identification>
        <creator type="composer">.onbekend</creator>
        <creator type="poet">onbekend</creator>
        <rights>All Rights Reserved</rights>
        <encoding>
            <software>PrintMusic 2010 for Windows</software>
            <software>Dolet Light for PrintMusic 2010</software>
            <encoding-date>2012-08-11</encoding-date>
            <supports value="yes" type="yes" element="print" attribute="new-system"/>
            <supports value="yes" type="yes" element="print" attribute="new-page"/>
            <software>ProxyMusic 2.0 c</software>
        </encoding>
        <source>http://wikifonia.org/node/17210/revisions/22825/view</source>
    </identification>
    <defaults>
        <scaling>
            <millimeters>7.0723</millimeters>
            <tenths>40</tenths>
        </scaling>
        <page-layout>
            <page-height>1679</page-height>
            <page-width>1187</page-width>
            <page-margins type="both">
                <left-margin>144</left-margin>
                <right-margin>72</right-margin>
                <top-margin>90</top-margin>
                <bottom-margin>90</bottom-margin>
            </page-margins>
        </page-layout>
        <system-layout>
            <system-margins>
                <left-margin>0</left-margin>
                <right-margin>0</right-margin>
            </system-margins>
            <system-distance>86</system-distance>
            <top-system-distance>34</top-system-distance>
        </system-layout>
        <staff-layout>
            <staff-distance>80</staff-distance>
        </staff-layout>
        <appearance>
            <line-width type="stem">0.7487</line-width>
            <line-width type="beam">5</line-width>
            <line-width type="staff">0.7487</line-width>
            <line-width type="light barline">0.7487</line-width>
            <line-width type="heavy barline">5</line-width>
            <line-width type="leger">0.7487</line-width>
            <line-width type="ending">1.4583</line-width>
            <line-width type="wedge">1.4583</line-width>
            <line-width type="enclosure">0.7487</line-width>
            <line-width type="tuplet bracket">0.7487</line-width>
            <note-size type="grace">60</note-size>
            <note-size type="cue">60</note-size>
        </appearance>
        <music-font font-size="20" font-family="Maestro"/>
        <word-font font-size="10" font-family="Times New Roman"/>
    </defaults>
    <credit page="1">
        <credit-words font-weight="bold" font-size="24" default-y="1589" default-x="630" justify="center" valign="top">Cill Chais</credit-words>
    </credit>
    <credit page="1">
        <credit-words font-weight="bold" font-size="12" default-y="1517" default-x="1115" justify="right" valign="top">.</credit-words>
    </credit>
    <credit page="1">
        <credit-words font-size="10" default-y="72" default-x="630" justify="center" valign="bottom">©WA</credit-words>
    </credit>
    <credit page="1">
        <credit-words font-size="18" default-y="1527" default-x="630" justify="center" valign="top">.</credit-words>
    </credit>
    <credit page="1">
        <credit-words font-size="12" default-y="1489" default-x="1115" justify="right" valign="top">.</credit-words>
    </credit>
    <credit page="1">
        <credit-words font-size="12" default-y="1452" default-x="473" valign="top">Intro/Intermezzo</credit-words>
    </credit>
    <credit page="2">
        <credit-words font-weight="bold" font-size="12" default-y="1613" default-x="630" halign="center" valign="top">Cill Chais</credit-words>
    </credit>
    <credit page="2">
        <credit-words font-size="14" default-y="1613" default-x="144" valign="top">2</credit-words>
    </credit>
    <part-list>
        <score-part id="P1">
            <part-name>Piano</part-name>
            <score-instrument id="P1-I1">
                <instrument-name>Piano</instrument-name>
            </score-instrument>
            <midi-instrument id="P1-I1">
                <midi-channel>1</midi-channel>
                <midi-program>12</midi-program>
                <volume>80</volume>
                <pan>0</pan>
            </midi-instrument>
        </score-part>
    </part-list>
    <part id="P1">
        <measure width="254" number="1">
            <print page-number="1">
                <system-layout>
                    <system-margins>
                        <left-margin>72</left-margin>
                        <right-margin>0</right-margin>
                    </system-margins>
                    <top-system-distance>176</top-system-distance>
                </system-layout>
            </print>
            <attributes>
                <divisions>2</divisions>
                <key>
                    <fifths>2</fifths>
                    <mode>major</mode>
                </key>
                <time>
                    <beats>3</beats>
                    <beat-type>4</beat-type>
                </time>
                <staves>2</staves>
                <clef number="1">
                    <sign>G</sign>
                    <line>2</line>
                </clef>
                <clef number="2">
                    <sign>F</sign>
                    <line>4</line>
                </clef>
            </attributes>
            <sound tempo="120"/>
            <note default-x="121">
                <rest/>
                <duration>2</duration>
                <voice>1</voice>
                <type>quarter</type>
                <staff>1</staff>
            </note>
            <note default-x="163">
                <rest/>
                <duration>2</duration>
                <voice>1</voice>
                <type>quarter</type>
                <staff>1</staff>
            </note>
            <note default-x="203">
                <pitch>
                    <step>F</step>
                    <alter>1</alter>
                    <octave>4</octave>
                </pitch>
                <duration>1</duration>
                <voice>1</voice>
                <type>eighth</type>
                <stem default-y="-5">up</stem>
                <staff>1</staff>
                <beam number="1">begin</beam>
                <notations>
                    <slur placement="below" type="start" number="1"/>
                </notations>
            </note>
            <note default-x="228">
                <pitch>
                    <step>E</step>
                    <octave>4</octave>
                </pitch>
                <duration>1</duration>
                <voice>1</voice>
                <type>eighth</type>
                <stem default-y="-7">up</stem>
                <staff>1</staff>
                <beam number="1">end</beam>
                <notations>
                    <slur type="stop" number="1"/>
                </notations>
            </note>
            <backup>
                <duration>6</duration>
            </backup>
            <note>
                <rest/>
                <duration>6</duration>
                <voice>2</voice>
                <staff>2</staff>
            </note>
        </measure>
        <measure width="144" number="2">
            <note default-x="14">
                <pitch>
                    <step>D</step>
                    <octave>4</octave>
                </pitch>
                <duration>3</duration>
                <voice>1</voice>
                <type>quarter</type>
                <dot/>
                <stem default-y="-9">up</stem>
                <staff>1</staff>
            </note>
            <note default-x="70">
                <pitch>
                    <step>B</step>
                    <octave>3</octave>
                </pitch>
                <duration>1</duration>
                <voice>1</voice>
                <type>eighth</type>
                <stem default-y="-19">up</stem>
                <staff>1</staff>
            </note>
            <note default-x="100">
                <pitch>
                    <step>A</step>
                    <octave>3</octave>
                </pitch>
                <duration>2</duration>
                <voice>1</voice>
                <type>quarter</type>
                <stem default-y="-19">up</stem>
                <staff>1</staff>
            </note>
            <backup>
                <duration>6</duration>
            </backup>
            <harmony default-y="34">
                <root>
                    <root-step>D</root-step>
                </root>
                <kind halign="center" text="">major</kind>
                <staff>2</staff>
            </harmony>
            <note>
                <rest/>
                <duration>6</duration>
                <voice>2</voice>
                <staff>2</staff>
            </note>
        </measure>
        <measure width="131" number="3">
            <note default-x="14">
                <pitch>
                    <step>D</step>
                    <octave>4</octave>
                </pitch>
                <duration>4</duration>
                <voice>1</voice>
                <type>half</type>
                <stem default-y="-9">up</stem>
                <staff>1</staff>
            </note>
            <note default-x="79">
                <pitch>
                    <step>F</step>
                    <alter>1</alter>
                    <octave>4</octave>
                </pitch>
                <duration>1</duration>
                <voice>1</voice>
                <type>eighth</type>
                <stem default-y="5">up</stem>
                <staff>1</staff>
                <beam number="1">begin</beam>
            </note>
            <note default-x="105">
                <pitch>
                    <step>A</step>
                    <octave>4</octave>
                </pitch>
                <duration>1</duration>
                <voice>1</voice>
                <type>eighth</type>
                <stem default-y="10">up</stem>
                <staff>1</staff>
                <beam number="1">end</beam>
            </note>
            <backup>
                <duration>6</duration>
            </backup>
            <harmony default-y="34">
                <root>
                    <root-step>D</root-step>
                </root>
                <kind halign="center" text="">major</kind>
                <staff>2</staff>
            </harmony>
            <note>
                <rest/>
                <duration>6</duration>
                <voice>2</voice>
                <staff>2</staff>
            </note>
        </measure>
        <measure width="103" number="4">
            <note default-x="14">
                <pitch>
                    <step>B</step>
                    <octave>4</octave>
                </pitch>
                <duration>6</duration>
                <voice>1</voice>
                <type>half</type>
                <dot/>
                <stem default-y="-55">down</stem>
                <staff>1</staff>
                <notations>
                    <slur default-y="-6" default-x="6" placement="above" bezier-y="25" bezier-x="26" type="start" number="1"/>
                </notations>
            </note>
            <backup>
                <duration>6</duration>
            </backup>
            <harmony default-y="34">
                <root>
                    <root-step>G</root-step>
                </root>
                <kind halign="center" text="">major</kind>
                <staff>2</staff>
            </harmony>
            <note>
                <rest/>
                <duration>6</duration>
                <voice>2</voice>
                <staff>2</staff>
            </note>
        </measure>
        <measure width="131" number="5">
            <note default-x="14">
                <pitch>
                    <step>A</step>
                    <octave>4</octave>
                </pitch>
                <duration>4</duration>
                <voice>1</voice>
                <type>half</type>
                <stem default-y="11">up</stem>
                <staff>1</staff>
                <notations>
                    <slur default-y="-5" default-x="8" bezier-y="22" bezier-x="-22" type="stop" number="1"/>
                </notations>
            </note>
            <note default-x="79">
                <pitch>
                    <step>F</step>
                    <alter>1</alter>
                    <octave>4</octave>
                </pitch>
                <duration>1</duration>
                <voice>1</voice>
                <type>eighth</type>
                <stem default-y="-5">up</stem>
                <staff>1</staff>
                <beam number="1">begin</beam>
            </note>
            <note default-x="105">
                <pitch>
                    <step>E</step>
                    <octave>4</octave>
                </pitch>
                <duration>1</duration>
                <voice>1</voice>
                <type>eighth</type>
                <stem default-y="-7">up</stem>
                <staff>1</staff>
                <beam number="1">end</beam>
            </note>
            <backup>
                <duration>6</duration>
            </backup>
            <harmony default-y="34">
                <root>
                    <root-step>D</root-step>
                </root>
                <kind halign="center" text="">major</kind>
                <staff>2</staff>
            </harmony>
            <note>
                <rest/>
                <duration>6</duration>
                <voice>2</voice>
                <staff>2</staff>
            </note>
        </measure>
        <measure width="138" number="6">
            <note default-x="14">
                <pitch>
                    <step>D</step>
                    <octave>4</octave>
                </pitch>
                <duration>2</duration>
                <voice>1</voice>
                <type>quarter</type>
                <stem default-y="-9">up</stem>
                <staff>1</staff>
            </note>
            <note default-x="55">
                <pitch>
                    <step>E</step>
                    <octave>4</octave>
                </pitch>
                <duration>2</duration>
                <voice>1</voice>
                <type>quarter</type>
                <stem default-y="-4">up</stem>
                <staff>1</staff>
            </note>
            <note default-x="96">
                <pitch>
                    <step>F</step>
                    <alter>1</alter>
                    <octave>4</octave>
                </pitch>
                <duration>2</duration>
                <voice>1</voice>
                <type>quarter</type>
                <stem default-y="1">up</stem>
                <staff>1</staff>
            </note>
            <backup>
                <duration>6</duration>
            </backup>
            <harmony default-y="34">
                <root>
                    <root-step>D</root-step>
                </root>
                <kind halign="center" text="">major</kind>
                <staff>2</staff>
            </harmony>
            <note>
                <rest/>
                <duration>6</duration>
                <voice>2</voice>
                <staff>2</staff>
            </note>
        </measure>
        <measure width="184" number="7">
            <print new-system="yes">
                <system-layout>
                    <system-distance>120</system-distance>
                </system-layout>
            </print>
            <note default-x="89">
                <pitch>
                    <step>E</step>
                    <octave>4</octave>
                </pitch>
                <duration>4</duration>
                <voice>1</voice>
                <type>half</type>
                <stem default-y="-4.5">up</stem>
                <staff>1</staff>
            </note>
            <note default-x="148">
                <pitch>
                    <step>D</step>
                    <octave>4</octave>
                </pitch>
                <duration>2</duration>
                <voice>1</voice>
                <type>quarter</type>
                <stem default-y="-9.5">up</stem>
                <staff>1</staff>
            </note>
            <backup>
                <duration>6</duration>
            </backup>
            <harmony default-y="34">
                <root>
                    <root-step>A</root-step>
                </root>
                <kind halign="center" text="">major</kind>
                <staff>2</staff>
            </harmony>
            <note>
                <rest/>
                <duration>6</duration>
                <voice>2</voice>
                <staff>2</staff>
            </note>
        </measure>
        <measure width="91" number="8">
            <note default-x="13">
                <pitch>
                    <step>D</step>
                    <octave>4</octave>
                </pitch>
                <duration>6</duration>
                <voice>1</voice>
                <type>half</type>
                <dot/>
                <stem default-y="-9.5">up</stem>
                <staff>1</staff>
                <notations>
                    <slur placement="below" type="start" number="1"/>
                </notations>
            </note>
            <backup>
                <duration>6</duration>
            </backup>
            <harmony default-y="34">
                <root>
                    <root-step>D</root-step>
                </root>
                <kind halign="center" text="">major</kind>
                <staff>2</staff>
            </harmony>
            <note>
                <rest/>
                <duration>6</duration>
                <voice>2</voice>
                <staff>2</staff>
            </note>
        </measure>
        <measure width="121" number="9">
            <note default-x="14">
                <pitch>
                    <step>D</step>
                    <octave>4</octave>
                </pitch>
                <duration>4</duration>
                <voice>1</voice>
                <type>half</type>
                <stem default-y="-9.5">up</stem>
                <staff>1</staff>
                <notations>
                    <slur type="stop" number="1"/>
                </notations>
            </note>
            <note default-x="72">
                <pitch>
                    <step>F</step>
                    <alter>1</alter>
                    <octave>4</octave>
                </pitch>
                <duration>1</duration>
                <voice>1</voice>
                <type>eighth</type>
                <stem default-y="-5">up</stem>
                <staff>1</staff>
                <beam number="1">begin</beam>
            </note>
            <note default-x="94">
                <pitch>
                    <step>E</step>
                    <octave>4</octave>
                </pitch>
                <duration>1</duration>
                <voice>1</voice>
                <type>eighth</type>
                <stem default-y="-7.5">up</stem>
                <staff>1</staff>
                <beam number="1">end</beam>
            </note>
            <backup>
                <duration>6</duration>
            </backup>
            <harmony default-y="34">
                <root>
                    <root-step>D</root-step>
                </root>
                <kind halign="center" text="">major</kind>
                <staff>2</staff>
            </harmony>
            <note>
                <rest/>
                <duration>6</duration>
                <voice>2</voice>
                <staff>2</staff>
            </note>
            <barline location="right">
                <bar-style>heavy</bar-style>
            </barline>
        </measure>
        <measure width="128" number="10">
            <direction>
                <direction-type>
                    <words font-size="12" default-y="43" valign="top">Solist</words>
                </direction-type>
            </direction>
            <note default-x="14">
                <pitch>
                    <step>D</step>
                    <octave>4</octave>
                </pitch>
                <duration>3</duration>
                <voice>1</voice>
                <type>quarter</type>
                <dot/>
                <stem default-y="-9.5">up</stem>
                <staff>1</staff>
            </note>
            <note default-x="61">
                <pitch>
                    <step>B</step>
                    <octave>3</octave>
                </pitch>
                <duration>1</duration>
                <voice>1</voice>
                <type>eighth</type>
                <stem default-y="-19.5">up</stem>
                <staff>1</staff>
            </note>
            <note default-x="91">
                <pitch>
                    <step>A</step>
                    <octave>3</octave>
                </pitch>
                <duration>2</duration>
                <voice>1</voice>
                <type>quarter</type>
                <stem default-y="-19.5">up</stem>
                <staff>1</staff>
            </note>
            <backup>
                <duration>6</duration>
            </backup>
            <harmony default-y="34">
                <root>
                    <root-step>D</root-step>
                </root>
                <kind halign="center" text="">major</kind>
                <staff>2</staff>
            </harmony>
            <note>
                <rest/>
                <duration>6</duration>
                <voice>2</voice>
                <staff>2</staff>
            </note>
        </measure>
        <measure width="117" number="11">
            <note default-x="14">
                <pitch>
                    <step>D</step>
                    <octave>4</octave>
                </pitch>
                <duration>4</duration>
                <voice>1</voice>
                <type>half</type>
                <stem default-y="-9.5">up</stem>
                <staff>1</staff>
            </note>
            <note default-x="72">
                <pitch>
                    <step>F</step>
                    <alter>1</alter>
                    <octave>4</octave>
                </pitch>
                <duration>1</duration>
                <voice>1</voice>
                <type>eighth</type>
                <stem default-y="5">up</stem>
                <staff>1</staff>
                <beam number="1">begin</beam>
            </note>
            <note default-x="94">
                <pitch>
                    <step>A</step>
                    <octave>4</octave>
                </pitch>
                <duration>1</duration>
                <voice>1</voice>
                <type>eighth</type>
                <stem default-y="10">up</stem>
                <staff>1</staff>
                <beam number="1">end</beam>
            </note>
            <backup>
                <duration>6</duration>
            </backup>
            <harmony default-y="34">
                <root>
                    <root-step>D</root-step>
                </root>
                <kind halign="center" text="">major</kind>
                <staff>2</staff>
            </harmony>
            <note>
                <rest/>
                <duration>6</duration>
                <voice>2</voice>
                <staff>2</staff>
            </note>
        </measure>
        <measure width="91" number="12">
            <note default-x="14">
                <pitch>
                    <step>B</step>
                    <octave>4</octave>
                </pitch>
                <duration>6</duration>
                <voice>1</voice>
                <type>half</type>
                <dot/>
                <stem default-y="-55">down</stem>
                <staff>1</staff>
                <notations>
                    <slur placement="above" type="start" number="1"/>
                </notations>
            </note>
            <backup>
                <duration>6</duration>
            </backup>
            <harmony default-y="34">
                <root>
                    <root-step>G</root-step>
                </root>
                <kind halign="center" text="">major</kind>
                <staff>2</staff>
            </harmony>
            <note>
                <rest/>
                <duration>6</duration>
                <voice>2</voice>
                <staff>2</staff>
            </note>
        </measure>
        <measure width="117" number="13">
            <note default-x="14">
                <pitch>
                    <step>A</step>
                    <octave>4</octave>
                </pitch>
                <duration>4</duration>
                <voice>1</voice>
                <type>half</type>
                <stem default-y="10.5">up</stem>
                <staff>1</staff>
                <notations>
                    <slur type="stop" number="1"/>
                </notations>
            </note>
            <note default-x="72">
                <pitch>
                    <step>F</step>
                    <alter>1</alter>
                    <octave>4</octave>
                </pitch>
                <duration>1</duration>
                <voice>1</voice>
                <type>eighth</type>
                <stem default-y="-5">up</stem>
                <staff>1</staff>
                <beam number="1">begin</beam>
            </note>
            <note default-x="94">
                <pitch>
                    <step>E</step>
                    <octave>4</octave>
                </pitch>
                <duration>1</duration>
                <voice>1</voice>
                <type>eighth</type>
                <stem default-y="-7.5">up</stem>
                <staff>1</staff>
                <beam number="1">end</beam>
            </note>
            <backup>
                <duration>6</duration>
            </backup>
            <harmony default-y="34">
                <root>
                    <root-step>D</root-step>
                </root>
                <kind halign="center" text="">major</kind>
                <staff>2</staff>
            </harmony>
            <note>
                <rest/>
                <duration>6</duration>
                <voice>2</voice>
                <staff>2</staff>
            </note>
        </measure>
        <measure width="123" number="14">
            <note default-x="13">
                <pitch>
                    <step>D</step>
                    <octave>4</octave>
                </pitch>
                <duration>2</duration>
                <voice>1</voice>
                <type>quarter</type>
                <stem default-y="-9.5">up</stem>
                <staff>1</staff>
            </note>
            <note default-x="50">
                <pitch>
                    <step>E</step>
                    <octave>4</octave>
                </pitch>
                <duration>2</duration>
                <voice>1</voice>
                <type>quarter</type>
                <stem default-y="-4.5">up</stem>
                <staff>1</staff>
            </note>
            <note default-x="86">
                <pitch>
                    <step>F</step>
                    <alter>1</alter>
                    <octave>4</octave>
                </pitch>
                <duration>2</duration>
                <voice>1</voice>
                <type>quarter</type>
                <stem default-y="0.5">up</stem>
                <staff>1</staff>
            </note>
            <backup>
                <duration>6</duration>
            </backup>
            <harmony default-y="34">
                <root>
                    <root-step>D</root-step>
                </root>
                <kind halign="center" text="">major</kind>
                <staff>2</staff>
            </harmony>
            <note>
                <rest/>
                <duration>6</duration>
                <voice>2</voice>
                <staff>2</staff>
            </note>
        </measure>
        <measure width="200" number="15">
            <print new-system="yes">
                <system-layout>
                    <system-distance>120</system-distance>
                </system-layout>
            </print>
            <note default-x="89">
                <pitch>
                    <step>F</step>
                    <alter>1</alter>
                    <octave>4</octave>
                </pitch>
                <duration>2</duration>
                <voice>1</voice>
                <type>quarter</type>
                <stem default-y="0">up</stem>
                <staff>1</staff>
            </note>
            <note default-x="126">
                <pitch>
                    <step>E</step>
                    <octave>4</octave>
                </pitch>
                <duration>2</duration>
                <voice>1</voice>
                <type>quarter</type>
                <stem default-y="-5">up</stem>
                <staff>1</staff>
            </note>
            <note default-x="163">
                <pitch>
                    <step>D</step>
                    <octave>4</octave>
                </pitch>
                <duration>2</duration>
                <voice>1</voice>
                <type>quarter</type>
                <stem default-y="-10">up</stem>
                <staff>1</staff>
            </note>
            <backup>
                <duration>6</duration>
            </backup>
            <harmony default-y="34">
                <root>
                    <root-step>D</root-step>
                </root>
                <kind halign="center" text="">major</kind>
                <staff>2</staff>
            </harmony>
            <note>
                <rest/>
                <duration>6</duration>
                <voice>2</voice>
                <staff>2</staff>
            </note>
        </measure>
        <measure width="92" number="16">
            <note default-x="13">
                <pitch>
                    <step>E</step>
                    <octave>4</octave>
                </pitch>
                <duration>6</duration>
                <voice>1</voice>
                <type>half</type>
                <dot/>
                <stem default-y="-5">up</stem>
                <staff>1</staff>
                <notations>
                    <slur placement="below" type="start" number="1"/>
                </notations>
            </note>
            <backup>
                <duration>6</duration>
            </backup>
            <harmony default-y="34">
                <root>
                    <root-step>A</root-step>
                </root>
                <kind halign="center" text="">major</kind>
                <staff>2</staff>
            </harmony>
            <note>
                <rest/>
                <duration>6</duration>
                <voice>2</voice>
                <staff>2</staff>
            </note>
        </measure>
        <measure width="118" number="17">
            <note default-x="13">
                <pitch>
                    <step>E</step>
                    <octave>4</octave>
                </pitch>
                <duration>4</duration>
                <voice>1</voice>
                <type>half</type>
                <stem default-y="-5">up</stem>
                <staff>1</staff>
                <notations>
                    <slur type="stop" number="1"/>
                </notations>
            </note>
            <note default-x="72">
                <pitch>
                    <step>F</step>
                    <alter>1</alter>
                    <octave>4</octave>
                </pitch>
                <duration>1</duration>
                <voice>1</voice>
                <type>eighth</type>
                <stem default-y="-5">up</stem>
                <staff>1</staff>
                <beam number="1">begin</beam>
            </note>
            <note default-x="95">
                <pitch>
                    <step>E</step>
                    <octave>4</octave>
                </pitch>
                <duration>1</duration>
                <voice>1</voice>
                <type>eighth</type>
                <stem default-y="-7">up</stem>
                <staff>1</staff>
                <beam number="1">end</beam>
            </note>
            <backup>
                <duration>6</duration>
            </backup>
            <harmony default-y="34">
                <root>
                    <root-step>A</root-step>
                </root>
                <kind halign="center" text="7">dominant</kind>
                <staff>2</staff>
            </harmony>
            <note>
                <rest/>
                <duration>6</duration>
                <voice>2</voice>
                <staff>2</staff>
            </note>
        </measure>
        <measure width="121" number="18">
            <note default-x="13">
                <pitch>
                    <step>D</step>
                    <octave>4</octave>
                </pitch>
                <duration>4</duration>
                <voice>1</voice>
                <type>half</type>
                <stem default-y="-10">up</stem>
                <staff>1</staff>
            </note>
            <note default-x="73">
                <pitch>
                    <step>B</step>
                    <octave>3</octave>
                </pitch>
                <duration>1</duration>
                <voice>1</voice>
                <type>eighth</type>
                <stem default-y="-14.5">up</stem>
                <staff>1</staff>
                <beam number="1">begin</beam>
            </note>
            <note default-x="97">
                <pitch>
                    <step>A</step>
                    <octave>3</octave>
                </pitch>
                <duration>1</duration>
                <voice>1</voice>
                <type>eighth</type>
                <stem default-y="-17">up</stem>
                <staff>1</staff>
                <beam number="1">end</beam>
            </note>
            <backup>
                <duration>6</duration>
            </backup>
            <harmony default-y="34">
                <root>
                    <root-step>D</root-step>
                </root>
                <kind halign="center" text="">major</kind>
                <staff>2</staff>
            </harmony>
            <note>
                <rest/>
                <duration>6</duration>
                <voice>2</voice>
                <staff>2</staff>
            </note>
        </measure>
        <measure width="118" number="19">
            <note default-x="14">
                <pitch>
                    <step>D</step>
                    <octave>4</octave>
                </pitch>
                <duration>4</duration>
                <voice>1</voice>
                <type>half</type>
                <stem default-y="-10">up</stem>
                <staff>1</staff>
            </note>
            <note default-x="72">
                <pitch>
                    <step>F</step>
                    <alter>1</alter>
                    <octave>4</octave>
                </pitch>
                <duration>1</duration>
                <voice>1</voice>
                <type>eighth</type>
                <stem default-y="5">up</stem>
                <staff>1</staff>
                <beam number="1">begin</beam>
            </note>
            <note default-x="95">
                <pitch>
                    <step>A</step>
                    <octave>4</octave>
                </pitch>
                <duration>1</duration>
                <voice>1</voice>
                <type>eighth</type>
                <stem default-y="10">up</stem>
                <staff>1</staff>
                <beam number="1">end</beam>
            </note>
            <backup>
                <duration>6</duration>
            </backup>
            <harmony default-y="34">
                <root>
                    <root-step>D</root-step>
                </root>
                <kind halign="center" text="">major</kind>
                <staff>2</staff>
            </harmony>
            <note>
                <rest/>
                <duration>6</duration>
                <voice>2</voice>
                <staff>2</staff>
            </note>
        </measure>
        <measure width="93" number="20">
            <note default-x="14">
                <pitch>
                    <step>B</step>
                    <octave>4</octave>
                </pitch>
                <duration>6</duration>
                <voice>1</voice>
                <type>half</type>
                <dot/>
                <stem default-y="-55.5">down</stem>
                <staff>1</staff>
                <notations>
                    <slur placement="above" type="start" number="1"/>
                </notations>
            </note>
            <backup>
                <duration>6</duration>
            </backup>
            <harmony default-y="34">
                <root>
                    <root-step>G</root-step>
                </root>
                <kind halign="center" text="">major</kind>
                <staff>2</staff>
            </harmony>
            <note>
                <rest/>
                <duration>6</duration>
                <voice>2</voice>
                <staff>2</staff>
            </note>
        </measure>
        <measure width="118" number="21">
            <note default-x="14">
                <pitch>
                    <step>A</step>
                    <octave>4</octave>
                </pitch>
                <duration>4</duration>
                <voice>1</voice>
                <type>half</type>
                <stem default-y="11">up</stem>
                <staff>1</staff>
                <notations>
                    <slur type="stop" number="1"/>
                </notations>
            </note>
            <note default-x="72">
                <pitch>
                    <step>F</step>
                    <alter>1</alter>
                    <octave>4</octave>
                </pitch>
                <duration>1</duration>
                <voice>1</voice>
                <type>eighth</type>
                <stem default-y="-5">up</stem>
                <staff>1</staff>
                <beam number="1">begin</beam>
            </note>
            <note default-x="95">
                <pitch>
                    <step>E</step>
                    <octave>4</octave>
                </pitch>
                <duration>1</duration>
                <voice>1</voice>
                <type>eighth</type>
                <stem default-y="-7">up</stem>
                <staff>1</staff>
                <beam number="1">end</beam>
            </note>
            <backup>
                <duration>6</duration>
            </backup>
            <harmony default-y="34">
                <root>
                    <root-step>D</root-step>
                </root>
                <kind halign="center" text="">major</kind>
                <staff>2</staff>
            </harmony>
            <note>
                <rest/>
                <duration>6</duration>
                <voice>2</voice>
                <staff>2</staff>
            </note>
        </measure>
        <measure width="112" number="22">
            <note default-x="14">
                <pitch>
                    <step>E</step>
                    <octave>4</octave>
                </pitch>
                <duration>4</duration>
                <voice>1</voice>
                <type>half</type>
                <stem default-y="-5">up</stem>
                <staff>1</staff>
            </note>
            <note default-x="74">
                <pitch>
                    <step>D</step>
                    <octave>4</octave>
                </pitch>
                <duration>2</duration>
                <voice>1</voice>
                <type>quarter</type>
                <stem default-y="-10">up</stem>
                <staff>1</staff>
            </note>
            <backup>
                <duration>6</duration>
            </backup>
            <harmony default-y="34">
                <root>
                    <root-step>A</root-step>
                </root>
                <kind halign="center" text="">major</kind>
                <staff>2</staff>
            </harmony>
            <note>
                <rest/>
                <duration>6</duration>
                <voice>2</voice>
                <staff>2</staff>
            </note>
        </measure>
        <measure width="167" number="23">
            <print new-system="yes">
                <system-layout>
                    <system-distance>120</system-distance>
                </system-layout>
            </print>
            <note default-x="89">
                <pitch>
                    <step>D</step>
                    <octave>4</octave>
                </pitch>
                <duration>6</duration>
                <voice>1</voice>
                <type>half</type>
                <dot/>
                <stem default-y="-9">up</stem>
                <staff>1</staff>
                <notations>
                    <slur placement="below" type="start" number="1"/>
                </notations>
            </note>
            <backup>
                <duration>6</duration>
            </backup>
            <harmony default-y="34">
                <root>
                    <root-step>D</root-step>
                </root>
                <kind halign="center" text="">major</kind>
                <staff>2</staff>
            </harmony>
            <note>
                <rest/>
                <duration>6</duration>
                <voice>2</voice>
                <staff>2</staff>
            </note>
        </measure>
        <measure width="122" number="24">
            <note default-x="14">
                <pitch>
                    <step>D</step>
                    <octave>4</octave>
                </pitch>
                <duration>4</duration>
                <voice>1</voice>
                <type>half</type>
                <stem default-y="-9">up</stem>
                <staff>1</staff>
                <notations>
                    <slur type="stop" number="1"/>
                </notations>
            </note>
            <note default-x="72">
                <pitch>
                    <step>A</step>
                    <octave>4</octave>
                </pitch>
                <duration>1</duration>
                <voice>1</voice>
                <type>eighth</type>
                <stem default-y="10">up</stem>
                <staff>1</staff>
                <beam number="1">begin</beam>
            </note>
            <note default-x="94">
                <pitch>
                    <step>A</step>
                    <octave>4</octave>
                </pitch>
                <duration>1</duration>
                <voice>1</voice>
                <type>eighth</type>
                <stem default-y="10">up</stem>
                <staff>1</staff>
                <beam number="1">end</beam>
            </note>
            <backup>
                <duration>6</duration>
            </backup>
            <harmony default-y="34">
                <root>
                    <root-step>D</root-step>
                </root>
                <kind halign="center" text="">major</kind>
                <staff>2</staff>
            </harmony>
            <note>
                <rest/>
                <duration>6</duration>
                <voice>2</voice>
                <staff>2</staff>
            </note>
            <barline location="right">
                <bar-style>heavy</bar-style>
            </barline>
        </measure>
        <measure width="117" number="25">
            <direction>
                <direction-type>
                    <words font-size="12" default-y="35" default-x="4" valign="top">Koor</words>
                </direction-type>
            </direction>
            <note default-x="13">
                <pitch>
                    <step>A</step>
                    <octave>4</octave>
                </pitch>
                <duration>4</duration>
                <voice>1</voice>
                <type>half</type>
                <stem default-y="11">up</stem>
                <staff>1</staff>
            </note>
            <note default-x="72">
                <pitch>
                    <step>F</step>
                    <alter>1</alter>
                    <octave>4</octave>
                </pitch>
                <duration>1</duration>
                <voice>1</voice>
                <type>eighth</type>
                <stem default-y="0">up</stem>
                <staff>1</staff>
                <beam number="1">begin</beam>
            </note>
            <note default-x="94">
                <pitch>
                    <step>G</step>
                    <octave>4</octave>
                </pitch>
                <duration>1</duration>
                <voice>1</voice>
                <type>eighth</type>
                <stem default-y="5">up</stem>
                <staff>1</staff>
                <beam number="1">end</beam>
            </note>
            <backup>
                <duration>6</duration>
            </backup>
            <harmony default-y="34">
                <root>
                    <root-step>D</root-step>
                </root>
                <kind halign="center" text="">major</kind>
                <staff>2</staff>
            </harmony>
            <note>
                <rest/>
                <duration>6</duration>
                <voice>2</voice>
                <staff>2</staff>
            </note>
        </measure>
        <measure width="117" number="26">
            <note default-x="14">
                <pitch>
                    <step>A</step>
                    <octave>4</octave>
                </pitch>
                <duration>4</duration>
                <voice>1</voice>
                <type>half</type>
                <stem default-y="11">up</stem>
                <staff>1</staff>
            </note>
            <note default-x="72">
                <pitch>
                    <step>B</step>
                    <octave>4</octave>
                </pitch>
                <duration>1</duration>
                <voice>1</voice>
                <type>eighth</type>
                <stem default-y="-55">down</stem>
                <staff>1</staff>
                <beam number="1">begin</beam>
            </note>
            <note default-x="94">
                <pitch>
                    <step>C</step>
                    <alter>1</alter>
                    <octave>5</octave>
                </pitch>
                <duration>1</duration>
                <voice>1</voice>
                <type>eighth</type>
                <stem default-y="-50">down</stem>
                <staff>1</staff>
                <beam number="1">end</beam>
            </note>
            <backup>
                <duration>6</duration>
            </backup>
            <harmony default-y="34">
                <root>
                    <root-step>D</root-step>
                </root>
                <kind halign="center" text="">major</kind>
                <staff>2</staff>
            </harmony>
            <note>
                <rest/>
                <duration>6</duration>
                <voice>2</voice>
                <staff>2</staff>
            </note>
        </measure>
        <measure width="92" number="27">
            <note default-x="14">
                <pitch>
                    <step>D</step>
                    <octave>5</octave>
                </pitch>
                <duration>6</duration>
                <voice>1</voice>
                <type>half</type>
                <dot/>
                <stem default-y="-45">down</stem>
                <staff>1</staff>
                <notations>
                    <slur placement="above" type="start" number="1"/>
                </notations>
            </note>
            <backup>
                <duration>6</duration>
            </backup>
            <harmony default-y="34">
                <root>
                    <root-step>G</root-step>
                </root>
                <kind halign="center" text="">major</kind>
                <staff>2</staff>
            </harmony>
            <note>
                <rest/>
                <duration>6</duration>
                <voice>2</voice>
                <staff>2</staff>
            </note>
        </measure>
        <measure width="109" number="28">
            <note default-x="14">
                <pitch>
                    <step>C</step>
                    <alter>1</alter>
                    <octave>5</octave>
                </pitch>
                <duration>4</duration>
                <voice>1</voice>
                <type>half</type>
                <stem default-y="-50">down</stem>
                <staff>1</staff>
                <notations>
                    <slur type="stop" number="1"/>
                </notations>
            </note>
            <note default-x="72">
                <pitch>
                    <step>B</step>
                    <octave>4</octave>
                </pitch>
                <duration>2</duration>
                <voice>1</voice>
                <type>quarter</type>
                <stem default-y="-55">down</stem>
                <staff>1</staff>
            </note>
            <backup>
                <duration>6</duration>
            </backup>
            <harmony default-y="34">
                <root>
                    <root-step>F</root-step>
                    <root-alter>1</root-alter>
                </root>
                <kind halign="center" text="">major</kind>
                <staff>2</staff>
            </harmony>
            <note>
                <rest/>
                <duration>6</duration>
                <voice>2</voice>
                <staff>2</staff>
            </note>
        </measure>
        <measure width="123" number="29">
            <note default-x="14">
                <pitch>
                    <step>B</step>
                    <octave>4</octave>
                </pitch>
                <duration>2</duration>
                <voice>1</voice>
                <type>quarter</type>
                <stem default-y="-55">down</stem>
                <staff>1</staff>
            </note>
            <note default-x="50">
                <pitch>
                    <step>A</step>
                    <octave>4</octave>
                </pitch>
                <duration>2</duration>
                <voice>1</voice>
                <type>quarter</type>
                <stem default-y="11">up</stem>
                <staff>1</staff>
            </note>
            <note default-x="86">
                <pitch>
                    <step>F</step>
                    <alter>1</alter>
                    <octave>4</octave>
                </pitch>
                <duration>2</duration>
                <voice>1</voice>
                <type>quarter</type>
                <stem default-y="1">up</stem>
                <staff>1</staff>
            </note>
            <backup>
                <duration>6</duration>
            </backup>
            <harmony default-y="34">
                <root>
                    <root-step>D</root-step>
                </root>
                <kind halign="center" text="">major</kind>
                <staff>2</staff>
            </harmony>
            <note>
                <rest/>
                <duration>6</duration>
                <voice>2</voice>
                <staff>2</staff>
            </note>
        </measure>
        <measure width="124" number="30">
            <note default-x="14">
                <pitch>
                    <step>F</step>
                    <alter>1</alter>
                    <octave>4</octave>
                </pitch>
                <duration>2</duration>
                <voice>1</voice>
                <type>quarter</type>
                <stem default-y="1">up</stem>
                <staff>1</staff>
            </note>
            <note default-x="50">
                <pitch>
                    <step>E</step>
                    <octave>4</octave>
                </pitch>
                <duration>2</duration>
                <voice>1</voice>
                <type>quarter</type>
                <stem default-y="-4">up</stem>
                <staff>1</staff>
            </note>
            <note default-x="87">
                <pitch>
                    <step>D</step>
                    <octave>4</octave>
                </pitch>
                <duration>2</duration>
                <voice>1</voice>
                <type>quarter</type>
                <stem default-y="-9">up</stem>
                <staff>1</staff>
            </note>
            <backup>
                <duration>6</duration>
            </backup>
            <harmony default-y="34">
                <root>
                    <root-step>D</root-step>
                </root>
                <kind halign="center" text="">major</kind>
                <staff>2</staff>
            </harmony>
            <note>
                <rest/>
                <duration>6</duration>
                <voice>2</voice>
                <staff>2</staff>
            </note>
        </measure>
        <measure width="166" number="31">
            <print page-number="2" new-page="yes">
                <system-layout>
                    <top-system-distance>75</top-system-distance>
                </system-layout>
            </print>
            <note default-x="89">
                <pitch>
                    <step>E</step>
                    <octave>4</octave>
                </pitch>
                <duration>6</duration>
                <voice>1</voice>
                <type>half</type>
                <dot/>
                <stem default-y="-4">up</stem>
                <staff>1</staff>
                <notations>
                    <slur placement="below" type="start" number="1"/>
                </notations>
            </note>
            <backup>
                <duration>6</duration>
            </backup>
            <harmony default-y="34">
                <root>
                    <root-step>A</root-step>
                </root>
                <kind halign="center" text="">major</kind>
                <staff>2</staff>
            </harmony>
            <note>
                <rest/>
                <duration>6</duration>
                <voice>2</voice>
                <staff>2</staff>
            </note>
        </measure>
        <measure width="115" number="32">
            <note default-x="13">
                <pitch>
                    <step>E</step>
                    <octave>4</octave>
                </pitch>
                <duration>4</duration>
                <voice>1</voice>
                <type>half</type>
                <stem default-y="-4">up</stem>
                <staff>1</staff>
                <notations>
                    <slur type="stop" number="1"/>
                </notations>
            </note>
            <note default-x="71">
                <pitch>
                    <step>F</step>
                    <alter>1</alter>
                    <octave>4</octave>
                </pitch>
                <duration>1</duration>
                <voice>1</voice>
                <type>eighth</type>
                <stem default-y="-5">up</stem>
                <staff>1</staff>
                <beam number="1">begin</beam>
                <notations>
                    <slur placement="below" type="start" number="1"/>
                </notations>
            </note>
            <note default-x="93">
                <pitch>
                    <step>E</step>
                    <octave>4</octave>
                </pitch>
                <duration>1</duration>
                <voice>1</voice>
                <type>eighth</type>
                <stem default-y="-7">up</stem>
                <staff>1</staff>
                <beam number="1">end</beam>
                <notations>
                    <slur type="stop" number="1"/>
                </notations>
            </note>
            <backup>
                <duration>6</duration>
            </backup>
            <harmony default-y="34">
                <root>
                    <root-step>A</root-step>
                </root>
                <kind halign="center" text="7">dominant</kind>
                <staff>2</staff>
            </harmony>
            <note>
                <rest/>
                <duration>6</duration>
                <voice>2</voice>
                <staff>2</staff>
            </note>
        </measure>
        <measure width="141" number="33">
            <note default-x="13">
                <pitch>
                    <step>D</step>
                    <octave>4</octave>
                </pitch>
                <duration>3</duration>
                <voice>1</voice>
                <type>quarter</type>
                <dot/>
                <stem default-y="-9">up</stem>
                <staff>1</staff>
            </note>
            <note default-x="60">
                <pitch>
                    <step>B</step>
                    <octave>3</octave>
                </pitch>
                <duration>1</duration>
                <voice>1</voice>
                <type>eighth</type>
                <stem default-y="-19">up</stem>
                <staff>1</staff>
            </note>
            <note default-x="91">
                <pitch>
                    <step>A</step>
                    <octave>3</octave>
                </pitch>
                <duration>1</duration>
                <voice>1</voice>
                <type>eighth</type>
                <stem default-y="-19">up</stem>
                <staff>1</staff>
            </note>
            <note default-x="119">
                <rest/>
                <duration>1</duration>
                <voice>1</voice>
                <type>eighth</type>
                <staff>1</staff>
            </note>
            <backup>
                <duration>6</duration>
            </backup>
            <harmony default-y="34">
                <root>
                    <root-step>D</root-step>
                </root>
                <kind halign="center" text="">major</kind>
                <staff>2</staff>
            </harmony>
            <note>
                <rest/>
                <duration>6</duration>
                <voice>2</voice>
                <staff>2</staff>
            </note>
        </measure>
        <measure width="115" number="34">
            <note default-x="13">
                <pitch>
                    <step>D</step>
                    <octave>4</octave>
                </pitch>
                <duration>4</duration>
                <voice>1</voice>
                <type>half</type>
                <stem default-y="-9">up</stem>
                <staff>1</staff>
            </note>
            <note default-x="71">
                <pitch>
                    <step>F</step>
                    <alter>1</alter>
                    <octave>4</octave>
                </pitch>
                <duration>1</duration>
                <voice>1</voice>
                <type>eighth</type>
                <stem default-y="5">up</stem>
                <staff>1</staff>
                <beam number="1">begin</beam>
            </note>
            <note default-x="93">
                <pitch>
                    <step>A</step>
                    <octave>4</octave>
                </pitch>
                <duration>1</duration>
                <voice>1</voice>
                <type>eighth</type>
                <stem default-y="10">up</stem>
                <staff>1</staff>
                <beam number="1">end</beam>
            </note>
            <backup>
                <duration>6</duration>
            </backup>
            <harmony default-y="34">
                <root>
                    <root-step>D</root-step>
                </root>
                <kind halign="center" text="">major</kind>
                <staff>2</staff>
            </harmony>
            <note>
                <rest/>
                <duration>6</duration>
                <voice>2</voice>
                <staff>2</staff>
            </note>
        </measure>
        <measure width="90" number="35">
            <note default-x="14">
                <pitch>
                    <step>B</step>
                    <octave>4</octave>
                </pitch>
                <duration>6</duration>
                <voice>1</voice>
                <type>half</type>
                <dot/>
                <stem default-y="-55">down</stem>
                <staff>1</staff>
                <notations>
                    <slur placement="above" type="start" number="1"/>
                </notations>
            </note>
            <backup>
                <duration>6</duration>
            </backup>
            <harmony default-y="34">
                <root>
                    <root-step>G</root-step>
                </root>
                <kind halign="center" text="">major</kind>
                <staff>2</staff>
            </harmony>
            <note>
                <rest/>
                <duration>6</duration>
                <voice>2</voice>
                <staff>2</staff>
            </note>
        </measure>
        <measure width="115" number="36">
            <note default-x="13">
                <pitch>
                    <step>A</step>
                    <octave>4</octave>
                </pitch>
                <duration>4</duration>
                <voice>1</voice>
                <type>half</type>
                <stem default-y="11">up</stem>
                <staff>1</staff>
                <notations>
                    <slur type="stop" number="1"/>
                </notations>
            </note>
            <note default-x="71">
                <pitch>
                    <step>F</step>
                    <alter>1</alter>
                    <octave>4</octave>
                </pitch>
                <duration>1</duration>
                <voice>1</voice>
                <type>eighth</type>
                <stem default-y="-5">up</stem>
                <staff>1</staff>
                <beam number="1">begin</beam>
                <notations>
                    <slur placement="below" type="start" number="1"/>
                </notations>
            </note>
            <note default-x="93">
                <pitch>
                    <step>E</step>
                    <octave>4</octave>
                </pitch>
                <duration>1</duration>
                <voice>1</voice>
                <type>eighth</type>
                <stem default-y="-7">up</stem>
                <staff>1</staff>
                <beam number="1">end</beam>
                <notations>
                    <slur type="stop" number="1"/>
                </notations>
            </note>
            <backup>
                <duration>6</duration>
            </backup>
            <harmony default-y="34">
                <root>
                    <root-step>D</root-step>
                </root>
                <kind halign="center" text="">major</kind>
                <staff>2</staff>
            </harmony>
            <note>
                <rest/>
                <duration>6</duration>
                <voice>2</voice>
                <staff>2</staff>
            </note>
        </measure>
        <measure width="120" number="37">
            <note default-x="13">
                <pitch>
                    <step>D</step>
                    <octave>4</octave>
                </pitch>
                <duration>2</duration>
                <voice>1</voice>
                <type>quarter</type>
                <stem default-y="-9">up</stem>
                <staff>1</staff>
            </note>
            <note default-x="49">
                <pitch>
                    <step>E</step>
                    <octave>4</octave>
                </pitch>
                <duration>2</duration>
                <voice>1</voice>
                <type>quarter</type>
                <stem default-y="-4">up</stem>
                <staff>1</staff>
            </note>
            <note default-x="84">
                <pitch>
                    <step>F</step>
                    <alter>1</alter>
                    <octave>4</octave>
                </pitch>
                <duration>2</duration>
                <voice>1</voice>
                <type>quarter</type>
                <stem default-y="1">up</stem>
                <staff>1</staff>
            </note>
            <backup>
                <duration>6</duration>
            </backup>
            <harmony default-y="34">
                <root>
                    <root-step>D</root-step>
                </root>
                <kind halign="center" text="">major</kind>
                <staff>2</staff>
            </harmony>
            <note>
                <rest/>
                <duration>6</duration>
                <voice>2</voice>
                <staff>2</staff>
            </note>
        </measure>
        <measure width="109" number="38">
            <note default-x="13">
                <pitch>
                    <step>E</step>
                    <octave>4</octave>
                </pitch>
                <duration>4</duration>
                <voice>1</voice>
                <type>half</type>
                <stem default-y="-4">up</stem>
                <staff>1</staff>
            </note>
            <note default-x="72">
                <pitch>
                    <step>D</step>
                    <octave>4</octave>
                </pitch>
                <duration>2</duration>
                <voice>1</voice>
                <type>quarter</type>
                <stem default-y="-9">up</stem>
                <staff>1</staff>
            </note>
            <backup>
                <duration>6</duration>
            </backup>
            <harmony default-y="34">
                <root>
                    <root-step>A</root-step>
                </root>
                <kind halign="center" text="">major</kind>
                <staff>2</staff>
            </harmony>
            <note>
                <rest/>
                <duration>6</duration>
                <voice>2</voice>
                <staff>2</staff>
            </note>
        </measure>
        <measure width="253" number="39">
            <print new-system="yes">
                <system-layout>
                    <system-distance>77</system-distance>
                </system-layout>
            </print>
            <note default-x="89">
                <pitch>
                    <step>D</step>
                    <octave>4</octave>
                </pitch>
                <duration>6</duration>
                <voice>1</voice>
                <type>half</type>
                <dot/>
                <stem default-y="-10">up</stem>
                <staff>1</staff>
                <notations>
                    <slur placement="below" type="start" number="1"/>
                </notations>
            </note>
            <backup>
                <duration>6</duration>
            </backup>
            <harmony default-y="34">
                <root>
                    <root-step>D</root-step>
                </root>
                <kind halign="center" text="">major</kind>
                <staff>2</staff>
            </harmony>
            <note>
                <rest/>
                <duration>6</duration>
                <voice>2</voice>
                <staff>2</staff>
            </note>
        </measure>
        <measure width="220" number="40">
            <note default-x="13">
                <pitch>
                    <step>D</step>
                    <octave>4</octave>
                </pitch>
                <duration>4</duration>
                <voice>1</voice>
                <type>half</type>
                <stem default-y="-10">up</stem>
                <staff>1</staff>
                <notations>
                    <slur type="stop" number="1"/>
                </notations>
            </note>
            <note default-x="135">
                <rest/>
                <duration>2</duration>
                <voice>1</voice>
                <type>quarter</type>
                <staff>1</staff>
            </note>
            <backup>
                <duration>6</duration>
            </backup>
            <harmony default-y="34">
                <root>
                    <root-step>D</root-step>
                </root>
                <kind halign="center" text="">major</kind>
                <staff>2</staff>
            </harmony>
            <note>
                <rest/>
                <duration>6</duration>
                <voice>2</voice>
                <staff>2</staff>
            </note>
            <barline location="right">
                <bar-style>light-heavy</bar-style>
            </barline>
        </measure>
        <measure width="499" number="41">
            <note>
                <rest/>
                <duration>6</duration>
                <voice>1</voice>
                <staff>1</staff>
            </note>
            <backup>
                <duration>6</duration>
            </backup>
            <note>
                <rest/>
                <duration>6</duration>
                <voice>2</voice>
                <staff>2</staff>
            </note>
            <barline location="right">
                <bar-style>light-heavy</bar-style>
            </barline>
        </measure>
    </part>
</score-partwise>
