<?xml version="1.0" encoding="UTF-8"?>
<!DOCTYPE score-partwise PUBLIC "-//Recordare//DTD MusicXML 2.0 Partwise//EN" "http://www.musicxml.org/dtds/partwise.dtd">
<score-partwise version="2.0">
    <work>
        <work-number></work-number>
        <work-title></work-title>
    </work>
    <movement-number></movement-number>
    <movement-title>Why Don't You Believe me?</movement-title>
    <identification>
        <creator type="composer">?</creator>
        <creator type="poet">?</creator>
        <rights>All Rights Reserved</rights>
        <encoding>
            <software>PrintMusic 2010 for Windows</software>
            <software>Dolet Light for PrintMusic 2010</software>
            <encoding-date>2012-10-31</encoding-date>
            <supports value="yes" type="yes" element="print" attribute="new-system"/>
            <supports value="yes" type="yes" element="print" attribute="new-page"/>
            <software>ProxyMusic 2.0 c</software>
        </encoding>
        <source>http://wikifonia.org/node/18675/revisions/24711/view</source>
    </identification>
    <defaults>
        <scaling>
            <millimeters>7.2319</millimeters>
            <tenths>40</tenths>
        </scaling>
        <page-layout>
            <page-height>1642</page-height>
            <page-width>1161</page-width>
            <page-margins type="both">
                <left-margin>70</left-margin>
                <right-margin>70</right-margin>
                <top-margin>88</top-margin>
                <bottom-margin>88</bottom-margin>
            </page-margins>
        </page-layout>
        <system-layout>
            <system-margins>
                <left-margin>0</left-margin>
                <right-margin>0</right-margin>
            </system-margins>
            <system-distance>121</system-distance>
            <top-system-distance>70</top-system-distance>
        </system-layout>
        <appearance>
            <line-width type="stem">0.7487</line-width>
            <line-width type="beam">5</line-width>
            <line-width type="staff">0.7487</line-width>
            <line-width type="light barline">0.7487</line-width>
            <line-width type="heavy barline">5</line-width>
            <line-width type="leger">0.7487</line-width>
            <line-width type="ending">1.4583</line-width>
            <line-width type="wedge">1.4583</line-width>
            <line-width type="enclosure">0.7487</line-width>
            <line-width type="tuplet bracket">0.7487</line-width>
            <note-size type="grace">60</note-size>
            <note-size type="cue">60</note-size>
        </appearance>
        <music-font font-size="20.5" font-family="Maestro"/>
        <word-font font-size="10.25" font-family="Times New Roman"/>
    </defaults>
    <credit page="1">
        <credit-words font-weight="bold" font-size="24" default-y="1537" default-x="580" justify="center" valign="top">Why Don't You Believe Me?</credit-words>
    </credit>
    <credit page="1">
        <credit-words font-weight="bold" font-size="12" default-y="1472" default-x="1091" justify="right" valign="top">Arr; Wim Alderding</credit-words>
    </credit>
    <part-list>
        <score-part id="P1">
            <part-name print-object="no">MusicXML Part</part-name>
            <score-instrument id="P1-I1">
                <instrument-name>Grand Piano</instrument-name>
            </score-instrument>
            <midi-instrument id="P1-I1">
                <midi-channel>1</midi-channel>
                <midi-program>5</midi-program>
                <volume>80</volume>
                <pan>0</pan>
            </midi-instrument>
        </score-part>
    </part-list>
    <part id="P1">
        <measure width="291" number="1">
            <print>
                <system-layout>
                    <top-system-distance>211</top-system-distance>
                </system-layout>
            </print>
            <attributes>
                <divisions>2</divisions>
                <key>
                    <fifths>3</fifths>
                    <mode>major</mode>
                </key>
                <time>
                    <beats>4</beats>
                    <beat-type>4</beat-type>
                </time>
                <clef>
                    <sign>G</sign>
                    <line>2</line>
                </clef>
            </attributes>
            <sound tempo="92"/>
            <harmony default-y="34">
                <root>
                    <root-step>A</root-step>
                </root>
                <kind halign="center" text="">major</kind>
            </harmony>
            <note default-x="135">
                <rest/>
                <duration>2</duration>
                <voice>1</voice>
                <type>quarter</type>
            </note>
            <note default-x="171">
                <pitch>
                    <step>C</step>
                    <alter>1</alter>
                    <octave>4</octave>
                </pitch>
                <duration>2</duration>
                <voice>1</voice>
                <type>quarter</type>
                <stem default-y="14">up</stem>
            </note>
            <note default-x="171">
                <chord/>
                <pitch>
                    <step>E</step>
                    <octave>4</octave>
                </pitch>
                <duration>2</duration>
                <voice>1</voice>
                <type>quarter</type>
                <stem>up</stem>
            </note>
            <note default-x="171">
                <chord/>
                <pitch>
                    <step>A</step>
                    <octave>4</octave>
                </pitch>
                <duration>2</duration>
                <voice>1</voice>
                <type>quarter</type>
                <stem>up</stem>
            </note>
            <note default-x="171">
                <chord/>
                <pitch>
                    <step>C</step>
                    <alter>1</alter>
                    <octave>5</octave>
                </pitch>
                <duration>2</duration>
                <voice>1</voice>
                <type>quarter</type>
                <stem>up</stem>
            </note>
            <harmony default-y="34">
                <root>
                    <root-step>A</root-step>
                    <root-alter>1</root-alter>
                </root>
                <kind halign="center" text="dim">diminished</kind>
            </harmony>
            <note default-x="208">
                <pitch>
                    <step>C</step>
                    <alter>1</alter>
                    <octave>4</octave>
                </pitch>
                <duration>2</duration>
                <voice>1</voice>
                <type>quarter</type>
                <stem default-y="14">up</stem>
            </note>
            <note default-x="208">
                <chord/>
                <pitch>
                    <step>E</step>
                    <octave>4</octave>
                </pitch>
                <duration>2</duration>
                <voice>1</voice>
                <type>quarter</type>
                <stem>up</stem>
            </note>
            <note default-x="208">
                <chord/>
                <pitch>
                    <step>A</step>
                    <octave>4</octave>
                </pitch>
                <duration>2</duration>
                <voice>1</voice>
                <type>quarter</type>
                <stem>up</stem>
            </note>
            <note default-x="208">
                <chord/>
                <pitch>
                    <step>C</step>
                    <alter>1</alter>
                    <octave>5</octave>
                </pitch>
                <duration>2</duration>
                <voice>1</voice>
                <type>quarter</type>
                <stem>up</stem>
            </note>
            <note default-x="245">
                <pitch>
                    <step>D</step>
                    <octave>5</octave>
                </pitch>
                <duration>1</duration>
                <voice>1</voice>
                <type>eighth</type>
                <stem default-y="-45">down</stem>
                <beam number="1">begin</beam>
            </note>
            <note default-x="268">
                <pitch>
                    <step>E</step>
                    <octave>5</octave>
                </pitch>
                <duration>1</duration>
                <voice>1</voice>
                <type>eighth</type>
                <stem default-y="-40">down</stem>
                <beam number="1">end</beam>
            </note>
        </measure>
        <measure width="134" number="2">
            <harmony default-y="34">
                <root>
                    <root-step>B</root-step>
                </root>
                <kind halign="center" text="m">minor</kind>
            </harmony>
            <note default-x="14">
                <pitch>
                    <step>F</step>
                    <alter>1</alter>
                    <octave>4</octave>
                </pitch>
                <duration>4</duration>
                <voice>1</voice>
                <type>half</type>
                <stem default-y="14">up</stem>
            </note>
            <note default-x="14">
                <chord/>
                <pitch>
                    <step>A</step>
                    <octave>4</octave>
                </pitch>
                <duration>4</duration>
                <voice>1</voice>
                <type>half</type>
                <stem>up</stem>
            </note>
            <note default-x="14">
                <chord/>
                <pitch>
                    <step>C</step>
                    <alter>1</alter>
                    <octave>5</octave>
                </pitch>
                <duration>4</duration>
                <voice>1</voice>
                <type>half</type>
                <stem>up</stem>
            </note>
            <note default-x="74">
                <pitch>
                    <step>D</step>
                    <octave>4</octave>
                </pitch>
                <duration>4</duration>
                <voice>1</voice>
                <type>half</type>
                <stem default-y="15">up</stem>
            </note>
            <note default-x="74">
                <chord/>
                <pitch>
                    <step>F</step>
                    <alter>1</alter>
                    <octave>4</octave>
                </pitch>
                <duration>4</duration>
                <voice>1</voice>
                <type>half</type>
                <stem>up</stem>
            </note>
            <note default-x="74">
                <chord/>
                <pitch>
                    <step>B</step>
                    <octave>4</octave>
                </pitch>
                <duration>4</duration>
                <voice>1</voice>
                <type>half</type>
                <stem>up</stem>
            </note>
        </measure>
        <measure width="170" number="3">
            <harmony default-y="34">
                <root>
                    <root-step>D</root-step>
                </root>
                <kind halign="center" text="m">minor</kind>
            </harmony>
            <note default-x="14">
                <rest/>
                <duration>2</duration>
                <voice>1</voice>
                <type>quarter</type>
            </note>
            <note default-x="50">
                <pitch>
                    <step>D</step>
                    <octave>4</octave>
                </pitch>
                <duration>2</duration>
                <voice>1</voice>
                <type>quarter</type>
                <stem default-y="15">up</stem>
            </note>
            <note default-x="50">
                <chord/>
                <pitch>
                    <step>F</step>
                    <octave>4</octave>
                </pitch>
                <duration>2</duration>
                <voice>1</voice>
                <type>quarter</type>
                <accidental>natural</accidental>
                <stem>up</stem>
            </note>
            <note default-x="63">
                <chord/>
                <pitch>
                    <step>G</step>
                    <alter>1</alter>
                    <octave>4</octave>
                </pitch>
                <duration>2</duration>
                <voice>1</voice>
                <type>quarter</type>
                <stem>up</stem>
            </note>
            <note default-x="50">
                <chord/>
                <pitch>
                    <step>B</step>
                    <octave>4</octave>
                </pitch>
                <duration>2</duration>
                <voice>1</voice>
                <type>quarter</type>
                <stem>up</stem>
            </note>
            <harmony default-y="34">
                <root>
                    <root-step>E</root-step>
                </root>
                <kind halign="center" text="7">dominant</kind>
            </harmony>
            <note default-x="87">
                <pitch>
                    <step>D</step>
                    <octave>4</octave>
                </pitch>
                <duration>2</duration>
                <voice>1</voice>
                <type>quarter</type>
                <stem default-y="15">up</stem>
            </note>
            <note default-x="87">
                <chord/>
                <pitch>
                    <step>F</step>
                    <octave>4</octave>
                </pitch>
                <duration>2</duration>
                <voice>1</voice>
                <type>quarter</type>
                <stem>up</stem>
            </note>
            <note default-x="100">
                <chord/>
                <pitch>
                    <step>G</step>
                    <alter>1</alter>
                    <octave>4</octave>
                </pitch>
                <duration>2</duration>
                <voice>1</voice>
                <type>quarter</type>
                <stem>up</stem>
            </note>
            <note default-x="87">
                <chord/>
                <pitch>
                    <step>B</step>
                    <octave>4</octave>
                </pitch>
                <duration>2</duration>
                <voice>1</voice>
                <type>quarter</type>
                <stem>up</stem>
            </note>
            <note default-x="124">
                <pitch>
                    <step>C</step>
                    <alter>1</alter>
                    <octave>5</octave>
                </pitch>
                <duration>1</duration>
                <voice>1</voice>
                <type>eighth</type>
                <stem default-y="-50">down</stem>
                <beam number="1">begin</beam>
            </note>
            <note default-x="147">
                <pitch>
                    <step>B</step>
                    <octave>4</octave>
                </pitch>
                <duration>1</duration>
                <voice>1</voice>
                <type>eighth</type>
                <stem default-y="-55">down</stem>
                <beam number="1">end</beam>
            </note>
        </measure>
        <measure width="114" number="4">
            <harmony default-y="34">
                <root>
                    <root-step>A</root-step>
                </root>
                <kind halign="center" text="">major</kind>
            </harmony>
            <note default-x="16">
                <pitch>
                    <step>A</step>
                    <octave>3</octave>
                </pitch>
                <duration>8</duration>
                <voice>1</voice>
                <type>whole</type>
            </note>
            <note default-x="16">
                <chord/>
                <pitch>
                    <step>C</step>
                    <alter>1</alter>
                    <octave>4</octave>
                </pitch>
                <duration>8</duration>
                <voice>1</voice>
                <type>whole</type>
            </note>
            <note default-x="16">
                <chord/>
                <pitch>
                    <step>E</step>
                    <octave>4</octave>
                </pitch>
                <duration>8</duration>
                <voice>1</voice>
                <type>whole</type>
            </note>
        </measure>
        <measure width="176" number="5">
            <harmony default-y="34">
                <root>
                    <root-step>A</root-step>
                </root>
                <kind halign="center" text="">major</kind>
            </harmony>
            <note default-x="14">
                <rest/>
                <duration>2</duration>
                <voice>1</voice>
                <type>quarter</type>
            </note>
            <note default-x="53">
                <pitch>
                    <step>C</step>
                    <octave>4</octave>
                </pitch>
                <duration>2</duration>
                <voice>1</voice>
                <type>quarter</type>
                <accidental>natural</accidental>
                <stem default-y="10.5">up</stem>
            </note>
            <note default-x="66">
                <chord/>
                <pitch>
                    <step>D</step>
                    <alter>1</alter>
                    <octave>4</octave>
                </pitch>
                <duration>2</duration>
                <voice>1</voice>
                <type>quarter</type>
                <accidental>sharp</accidental>
                <stem>up</stem>
            </note>
            <note default-x="53">
                <chord/>
                <pitch>
                    <step>F</step>
                    <alter>1</alter>
                    <octave>4</octave>
                </pitch>
                <duration>2</duration>
                <voice>1</voice>
                <type>quarter</type>
                <stem>up</stem>
            </note>
            <note default-x="53">
                <chord/>
                <pitch>
                    <step>A</step>
                    <octave>4</octave>
                </pitch>
                <duration>2</duration>
                <voice>1</voice>
                <type>quarter</type>
                <stem>up</stem>
            </note>
            <harmony default-y="34">
                <root>
                    <root-step>A</root-step>
                </root>
                <kind halign="center" text="dim">diminished</kind>
            </harmony>
            <note default-x="91">
                <pitch>
                    <step>C</step>
                    <octave>4</octave>
                </pitch>
                <duration>2</duration>
                <voice>1</voice>
                <type>quarter</type>
                <stem default-y="10.5">up</stem>
            </note>
            <note default-x="103">
                <chord/>
                <pitch>
                    <step>D</step>
                    <alter>1</alter>
                    <octave>4</octave>
                </pitch>
                <duration>2</duration>
                <voice>1</voice>
                <type>quarter</type>
                <stem>up</stem>
            </note>
            <note default-x="91">
                <chord/>
                <pitch>
                    <step>F</step>
                    <alter>1</alter>
                    <octave>4</octave>
                </pitch>
                <duration>2</duration>
                <voice>1</voice>
                <type>quarter</type>
                <stem>up</stem>
            </note>
            <note default-x="91">
                <chord/>
                <pitch>
                    <step>A</step>
                    <octave>4</octave>
                </pitch>
                <duration>2</duration>
                <voice>1</voice>
                <type>quarter</type>
                <stem>up</stem>
            </note>
            <note default-x="128">
                <pitch>
                    <step>B</step>
                    <octave>4</octave>
                </pitch>
                <duration>1</duration>
                <voice>1</voice>
                <type>eighth</type>
                <stem default-y="15">up</stem>
                <beam number="1">begin</beam>
            </note>
            <note default-x="152">
                <pitch>
                    <step>A</step>
                    <octave>4</octave>
                </pitch>
                <duration>1</duration>
                <voice>1</voice>
                <type>eighth</type>
                <stem default-y="10">up</stem>
                <beam number="1">end</beam>
            </note>
        </measure>
        <measure width="135" number="6">
            <harmony default-y="34">
                <root>
                    <root-step>B</root-step>
                </root>
                <kind halign="center" text="m">minor</kind>
            </harmony>
            <note default-x="16">
                <pitch>
                    <step>B</step>
                    <octave>3</octave>
                </pitch>
                <duration>4</duration>
                <voice>1</voice>
                <type>half</type>
                <stem default-y="-9.5">up</stem>
            </note>
            <note default-x="16">
                <chord/>
                <pitch>
                    <step>D</step>
                    <octave>4</octave>
                </pitch>
                <duration>4</duration>
                <voice>1</voice>
                <type>half</type>
                <stem>up</stem>
            </note>
            <note default-x="75">
                <pitch>
                    <step>B</step>
                    <octave>3</octave>
                </pitch>
                <duration>4</duration>
                <voice>1</voice>
                <type>half</type>
                <stem default-y="-9.5">up</stem>
            </note>
            <note default-x="75">
                <chord/>
                <pitch>
                    <step>D</step>
                    <octave>4</octave>
                </pitch>
                <duration>4</duration>
                <voice>1</voice>
                <type>half</type>
                <stem>up</stem>
            </note>
        </measure>
        <measure width="239" number="7">
            <print new-system="yes">
                <system-layout>
                    <system-distance>114</system-distance>
                </system-layout>
            </print>
            <harmony default-y="34">
                <root>
                    <root-step>E</root-step>
                </root>
                <kind halign="center" text="7">dominant</kind>
            </harmony>
            <note default-x="63">
                <rest/>
                <duration>2</duration>
                <voice>1</voice>
                <type>quarter</type>
            </note>
            <note default-x="104">
                <pitch>
                    <step>E</step>
                    <alter>1</alter>
                    <octave>4</octave>
                </pitch>
                <duration>1</duration>
                <voice>1</voice>
                <type>eighth</type>
                <accidental>sharp</accidental>
                <stem default-y="-10">up</stem>
                <beam number="1">begin</beam>
            </note>
            <note default-x="130">
                <pitch>
                    <step>F</step>
                    <alter>1</alter>
                    <octave>4</octave>
                </pitch>
                <duration>1</duration>
                <voice>1</voice>
                <type>eighth</type>
                <stem default-y="-7.5">up</stem>
                <beam number="1">end</beam>
            </note>
            <note default-x="156">
                <pitch>
                    <step>A</step>
                    <octave>4</octave>
                </pitch>
                <duration>2</duration>
                <voice>1</voice>
                <type>quarter</type>
                <stem default-y="10.5">up</stem>
            </note>
            <note default-x="197">
                <pitch>
                    <step>G</step>
                    <alter>1</alter>
                    <octave>4</octave>
                </pitch>
                <duration>2</duration>
                <voice>1</voice>
                <type>quarter</type>
                <stem default-y="5.5">up</stem>
            </note>
        </measure>
        <measure width="127" number="8">
            <harmony default-y="34">
                <root>
                    <root-step>A</root-step>
                </root>
                <kind halign="center" text="">major</kind>
            </harmony>
            <note default-x="16">
                <pitch>
                    <step>C</step>
                    <alter>1</alter>
                    <octave>4</octave>
                </pitch>
                <duration>8</duration>
                <voice>1</voice>
                <type>whole</type>
            </note>
            <note default-x="16">
                <chord/>
                <pitch>
                    <step>E</step>
                    <octave>4</octave>
                </pitch>
                <duration>8</duration>
                <voice>1</voice>
                <type>whole</type>
            </note>
            <note default-x="32">
                <chord/>
                <pitch>
                    <step>F</step>
                    <alter>1</alter>
                    <octave>4</octave>
                </pitch>
                <duration>8</duration>
                <voice>1</voice>
                <type>whole</type>
            </note>
        </measure>
        <measure width="190" number="9">
            <harmony default-y="34">
                <root>
                    <root-step>A</root-step>
                </root>
                <kind halign="center" text="">major</kind>
            </harmony>
            <note default-x="14">
                <rest/>
                <duration>2</duration>
                <voice>1</voice>
                <type>quarter</type>
            </note>
            <note default-x="55">
                <pitch>
                    <step>C</step>
                    <alter>1</alter>
                    <octave>4</octave>
                </pitch>
                <duration>2</duration>
                <voice>1</voice>
                <type>quarter</type>
                <stem default-y="14">up</stem>
            </note>
            <note default-x="55">
                <chord/>
                <pitch>
                    <step>E</step>
                    <octave>4</octave>
                </pitch>
                <duration>2</duration>
                <voice>1</voice>
                <type>quarter</type>
                <stem>up</stem>
            </note>
            <note default-x="55">
                <chord/>
                <pitch>
                    <step>A</step>
                    <octave>4</octave>
                </pitch>
                <duration>2</duration>
                <voice>1</voice>
                <type>quarter</type>
                <stem>up</stem>
            </note>
            <note default-x="55">
                <chord/>
                <pitch>
                    <step>C</step>
                    <alter>1</alter>
                    <octave>5</octave>
                </pitch>
                <duration>2</duration>
                <voice>1</voice>
                <type>quarter</type>
                <stem>up</stem>
            </note>
            <harmony default-y="34">
                <root>
                    <root-step>A</root-step>
                    <root-alter>1</root-alter>
                </root>
                <kind halign="center" text="dim">diminished</kind>
            </harmony>
            <note default-x="96">
                <pitch>
                    <step>C</step>
                    <alter>1</alter>
                    <octave>4</octave>
                </pitch>
                <duration>2</duration>
                <voice>1</voice>
                <type>quarter</type>
                <stem default-y="14">up</stem>
            </note>
            <note default-x="96">
                <chord/>
                <pitch>
                    <step>E</step>
                    <octave>4</octave>
                </pitch>
                <duration>2</duration>
                <voice>1</voice>
                <type>quarter</type>
                <stem>up</stem>
            </note>
            <note default-x="96">
                <chord/>
                <pitch>
                    <step>A</step>
                    <octave>4</octave>
                </pitch>
                <duration>2</duration>
                <voice>1</voice>
                <type>quarter</type>
                <stem>up</stem>
            </note>
            <note default-x="96">
                <chord/>
                <pitch>
                    <step>C</step>
                    <alter>1</alter>
                    <octave>5</octave>
                </pitch>
                <duration>2</duration>
                <voice>1</voice>
                <type>quarter</type>
                <stem>up</stem>
            </note>
            <note default-x="137">
                <pitch>
                    <step>D</step>
                    <octave>5</octave>
                </pitch>
                <duration>1</duration>
                <voice>1</voice>
                <type>eighth</type>
                <stem default-y="-45">down</stem>
                <beam number="1">begin</beam>
            </note>
            <note default-x="163">
                <pitch>
                    <step>E</step>
                    <octave>5</octave>
                </pitch>
                <duration>1</duration>
                <voice>1</voice>
                <type>eighth</type>
                <stem default-y="-40">down</stem>
                <beam number="1">end</beam>
            </note>
        </measure>
        <measure width="149" number="10">
            <harmony default-y="34">
                <root>
                    <root-step>B</root-step>
                </root>
                <kind halign="center" text="m">minor</kind>
            </harmony>
            <note default-x="14">
                <pitch>
                    <step>F</step>
                    <alter>1</alter>
                    <octave>4</octave>
                </pitch>
                <duration>4</duration>
                <voice>1</voice>
                <type>half</type>
                <stem default-y="14">up</stem>
            </note>
            <note default-x="14">
                <chord/>
                <pitch>
                    <step>A</step>
                    <octave>4</octave>
                </pitch>
                <duration>4</duration>
                <voice>1</voice>
                <type>half</type>
                <stem>up</stem>
            </note>
            <note default-x="14">
                <chord/>
                <pitch>
                    <step>C</step>
                    <alter>1</alter>
                    <octave>5</octave>
                </pitch>
                <duration>4</duration>
                <voice>1</voice>
                <type>half</type>
                <stem>up</stem>
            </note>
            <note default-x="82">
                <pitch>
                    <step>D</step>
                    <octave>4</octave>
                </pitch>
                <duration>4</duration>
                <voice>1</voice>
                <type>half</type>
                <stem default-y="15">up</stem>
            </note>
            <note default-x="82">
                <chord/>
                <pitch>
                    <step>F</step>
                    <alter>1</alter>
                    <octave>4</octave>
                </pitch>
                <duration>4</duration>
                <voice>1</voice>
                <type>half</type>
                <stem>up</stem>
            </note>
            <note default-x="82">
                <chord/>
                <pitch>
                    <step>A</step>
                    <octave>4</octave>
                </pitch>
                <duration>4</duration>
                <voice>1</voice>
                <type>half</type>
                <stem>up</stem>
            </note>
            <note default-x="94">
                <chord/>
                <pitch>
                    <step>B</step>
                    <octave>4</octave>
                </pitch>
                <duration>4</duration>
                <voice>1</voice>
                <type>half</type>
                <stem>up</stem>
            </note>
        </measure>
        <measure width="190" number="11">
            <harmony default-y="34">
                <root>
                    <root-step>D</root-step>
                </root>
                <kind halign="center" text="m">minor</kind>
            </harmony>
            <note default-x="14">
                <rest/>
                <duration>2</duration>
                <voice>1</voice>
                <type>quarter</type>
            </note>
            <note default-x="55">
                <pitch>
                    <step>D</step>
                    <octave>4</octave>
                </pitch>
                <duration>2</duration>
                <voice>1</voice>
                <type>quarter</type>
                <stem default-y="15">up</stem>
            </note>
            <note default-x="55">
                <chord/>
                <pitch>
                    <step>F</step>
                    <octave>4</octave>
                </pitch>
                <duration>2</duration>
                <voice>1</voice>
                <type>quarter</type>
                <accidental>natural</accidental>
                <stem>up</stem>
            </note>
            <note default-x="67">
                <chord/>
                <pitch>
                    <step>G</step>
                    <alter>1</alter>
                    <octave>4</octave>
                </pitch>
                <duration>2</duration>
                <voice>1</voice>
                <type>quarter</type>
                <stem>up</stem>
            </note>
            <note default-x="55">
                <chord/>
                <pitch>
                    <step>B</step>
                    <octave>4</octave>
                </pitch>
                <duration>2</duration>
                <voice>1</voice>
                <type>quarter</type>
                <stem>up</stem>
            </note>
            <harmony default-y="34">
                <root>
                    <root-step>E</root-step>
                </root>
                <kind halign="center" text="7">dominant</kind>
            </harmony>
            <note default-x="96">
                <pitch>
                    <step>D</step>
                    <octave>4</octave>
                </pitch>
                <duration>2</duration>
                <voice>1</voice>
                <type>quarter</type>
                <stem default-y="15">up</stem>
            </note>
            <note default-x="96">
                <chord/>
                <pitch>
                    <step>F</step>
                    <octave>4</octave>
                </pitch>
                <duration>2</duration>
                <voice>1</voice>
                <type>quarter</type>
                <stem>up</stem>
            </note>
            <note default-x="109">
                <chord/>
                <pitch>
                    <step>G</step>
                    <alter>1</alter>
                    <octave>4</octave>
                </pitch>
                <duration>2</duration>
                <voice>1</voice>
                <type>quarter</type>
                <stem>up</stem>
            </note>
            <note default-x="96">
                <chord/>
                <pitch>
                    <step>B</step>
                    <octave>4</octave>
                </pitch>
                <duration>2</duration>
                <voice>1</voice>
                <type>quarter</type>
                <stem>up</stem>
            </note>
            <note default-x="138">
                <pitch>
                    <step>G</step>
                    <alter>1</alter>
                    <octave>4</octave>
                </pitch>
                <duration>1</duration>
                <voice>1</voice>
                <type>eighth</type>
                <stem default-y="20">up</stem>
                <beam number="1">begin</beam>
            </note>
            <note default-x="138">
                <chord/>
                <pitch>
                    <step>C</step>
                    <alter>1</alter>
                    <octave>5</octave>
                </pitch>
                <duration>1</duration>
                <voice>1</voice>
                <type>eighth</type>
                <stem>up</stem>
            </note>
            <note default-x="164">
                <pitch>
                    <step>G</step>
                    <alter>1</alter>
                    <octave>4</octave>
                </pitch>
                <duration>1</duration>
                <voice>1</voice>
                <type>eighth</type>
                <stem default-y="15">up</stem>
                <beam number="1">end</beam>
            </note>
            <note default-x="164">
                <chord/>
                <pitch>
                    <step>B</step>
                    <octave>4</octave>
                </pitch>
                <duration>1</duration>
                <voice>1</voice>
                <type>eighth</type>
                <stem>up</stem>
            </note>
        </measure>
        <measure width="126" number="12">
            <harmony default-y="34">
                <root>
                    <root-step>A</root-step>
                </root>
                <kind halign="center" text="">major</kind>
            </harmony>
            <note default-x="16">
                <pitch>
                    <step>A</step>
                    <octave>3</octave>
                </pitch>
                <duration>8</duration>
                <voice>1</voice>
                <type>whole</type>
            </note>
            <note default-x="16">
                <chord/>
                <pitch>
                    <step>C</step>
                    <alter>1</alter>
                    <octave>4</octave>
                </pitch>
                <duration>8</duration>
                <voice>1</voice>
                <type>whole</type>
            </note>
            <note default-x="16">
                <chord/>
                <pitch>
                    <step>E</step>
                    <octave>4</octave>
                </pitch>
                <duration>8</duration>
                <voice>1</voice>
                <type>whole</type>
            </note>
        </measure>
        <measure width="243" number="13">
            <print new-system="yes">
                <system-layout>
                    <system-distance>114</system-distance>
                </system-layout>
            </print>
            <harmony default-y="34">
                <root>
                    <root-step>A</root-step>
                </root>
                <kind halign="center" text="">major</kind>
            </harmony>
            <note default-x="63">
                <rest/>
                <duration>2</duration>
                <voice>1</voice>
                <type>quarter</type>
            </note>
            <note default-x="105">
                <pitch>
                    <step>C</step>
                    <octave>4</octave>
                </pitch>
                <duration>2</duration>
                <voice>1</voice>
                <type>quarter</type>
                <accidental>natural</accidental>
                <stem default-y="11">up</stem>
            </note>
            <note default-x="118">
                <chord/>
                <pitch>
                    <step>D</step>
                    <alter>1</alter>
                    <octave>4</octave>
                </pitch>
                <duration>2</duration>
                <voice>1</voice>
                <type>quarter</type>
                <accidental>sharp</accidental>
                <stem>up</stem>
            </note>
            <note default-x="105">
                <chord/>
                <pitch>
                    <step>F</step>
                    <alter>1</alter>
                    <octave>4</octave>
                </pitch>
                <duration>2</duration>
                <voice>1</voice>
                <type>quarter</type>
                <stem>up</stem>
            </note>
            <note default-x="105">
                <chord/>
                <pitch>
                    <step>A</step>
                    <octave>4</octave>
                </pitch>
                <duration>2</duration>
                <voice>1</voice>
                <type>quarter</type>
                <stem>up</stem>
            </note>
            <harmony default-y="34">
                <root>
                    <root-step>A</root-step>
                </root>
                <kind halign="center" text="dim">diminished</kind>
            </harmony>
            <note default-x="147">
                <pitch>
                    <step>C</step>
                    <octave>4</octave>
                </pitch>
                <duration>2</duration>
                <voice>1</voice>
                <type>quarter</type>
                <stem default-y="11">up</stem>
            </note>
            <note default-x="160">
                <chord/>
                <pitch>
                    <step>D</step>
                    <alter>1</alter>
                    <octave>4</octave>
                </pitch>
                <duration>2</duration>
                <voice>1</voice>
                <type>quarter</type>
                <stem>up</stem>
            </note>
            <note default-x="147">
                <chord/>
                <pitch>
                    <step>F</step>
                    <alter>1</alter>
                    <octave>4</octave>
                </pitch>
                <duration>2</duration>
                <voice>1</voice>
                <type>quarter</type>
                <stem>up</stem>
            </note>
            <note default-x="147">
                <chord/>
                <pitch>
                    <step>A</step>
                    <octave>4</octave>
                </pitch>
                <duration>2</duration>
                <voice>1</voice>
                <type>quarter</type>
                <stem>up</stem>
            </note>
            <note default-x="190">
                <pitch>
                    <step>C</step>
                    <alter>1</alter>
                    <octave>4</octave>
                </pitch>
                <duration>1</duration>
                <voice>1</voice>
                <type>eighth</type>
                <accidental>sharp</accidental>
                <stem default-y="15">up</stem>
                <beam number="1">begin</beam>
            </note>
            <note default-x="190">
                <chord/>
                <pitch>
                    <step>E</step>
                    <octave>4</octave>
                </pitch>
                <duration>1</duration>
                <voice>1</voice>
                <type>eighth</type>
                <stem>up</stem>
            </note>
            <note default-x="190">
                <chord/>
                <pitch>
                    <step>B</step>
                    <octave>4</octave>
                </pitch>
                <duration>1</duration>
                <voice>1</voice>
                <type>eighth</type>
                <stem>up</stem>
            </note>
            <note default-x="216">
                <pitch>
                    <step>C</step>
                    <alter>1</alter>
                    <octave>4</octave>
                </pitch>
                <duration>1</duration>
                <voice>1</voice>
                <type>eighth</type>
                <stem default-y="10">up</stem>
                <beam number="1">end</beam>
            </note>
            <note default-x="216">
                <chord/>
                <pitch>
                    <step>E</step>
                    <octave>4</octave>
                </pitch>
                <duration>1</duration>
                <voice>1</voice>
                <type>eighth</type>
                <stem>up</stem>
            </note>
            <note default-x="216">
                <chord/>
                <pitch>
                    <step>A</step>
                    <octave>4</octave>
                </pitch>
                <duration>1</duration>
                <voice>1</voice>
                <type>eighth</type>
                <stem>up</stem>
            </note>
        </measure>
        <measure width="145" number="14">
            <harmony default-y="34">
                <root>
                    <root-step>B</root-step>
                </root>
                <kind halign="center" text="m">minor</kind>
            </harmony>
            <note default-x="16">
                <pitch>
                    <step>B</step>
                    <octave>3</octave>
                </pitch>
                <duration>4</duration>
                <voice>1</voice>
                <type>half</type>
                <stem default-y="-9">up</stem>
            </note>
            <note default-x="16">
                <chord/>
                <pitch>
                    <step>D</step>
                    <octave>4</octave>
                </pitch>
                <duration>4</duration>
                <voice>1</voice>
                <type>half</type>
                <stem>up</stem>
            </note>
            <note default-x="80">
                <pitch>
                    <step>B</step>
                    <octave>3</octave>
                </pitch>
                <duration>4</duration>
                <voice>1</voice>
                <type>half</type>
                <stem default-y="-9">up</stem>
            </note>
            <note default-x="80">
                <chord/>
                <pitch>
                    <step>D</step>
                    <octave>4</octave>
                </pitch>
                <duration>4</duration>
                <voice>1</voice>
                <type>half</type>
                <stem>up</stem>
            </note>
        </measure>
        <measure width="180" number="15">
            <harmony default-y="34">
                <root>
                    <root-step>E</root-step>
                </root>
                <kind halign="center" text="7">dominant</kind>
            </harmony>
            <note default-x="14">
                <rest/>
                <duration>2</duration>
                <voice>1</voice>
                <type>quarter</type>
            </note>
            <note default-x="53">
                <pitch>
                    <step>D</step>
                    <octave>4</octave>
                </pitch>
                <duration>2</duration>
                <voice>1</voice>
                <type>quarter</type>
                <stem default-y="5">up</stem>
            </note>
            <note default-x="65">
                <chord/>
                <pitch>
                    <step>E</step>
                    <octave>4</octave>
                </pitch>
                <duration>2</duration>
                <voice>1</voice>
                <type>quarter</type>
                <stem>up</stem>
            </note>
            <note default-x="53">
                <chord/>
                <pitch>
                    <step>G</step>
                    <alter>1</alter>
                    <octave>4</octave>
                </pitch>
                <duration>2</duration>
                <voice>1</voice>
                <type>quarter</type>
                <stem>up</stem>
            </note>
            <note default-x="92">
                <pitch>
                    <step>D</step>
                    <octave>4</octave>
                </pitch>
                <duration>2</duration>
                <voice>1</voice>
                <type>quarter</type>
                <stem default-y="5">up</stem>
            </note>
            <note default-x="104">
                <chord/>
                <pitch>
                    <step>E</step>
                    <octave>4</octave>
                </pitch>
                <duration>2</duration>
                <voice>1</voice>
                <type>quarter</type>
                <stem>up</stem>
            </note>
            <note default-x="92">
                <chord/>
                <pitch>
                    <step>G</step>
                    <alter>1</alter>
                    <octave>4</octave>
                </pitch>
                <duration>2</duration>
                <voice>1</voice>
                <type>quarter</type>
                <stem>up</stem>
            </note>
            <note default-x="131">
                <pitch>
                    <step>G</step>
                    <alter>1</alter>
                    <octave>4</octave>
                </pitch>
                <duration>1</duration>
                <voice>1</voice>
                <type>eighth</type>
                <stem default-y="20">up</stem>
                <beam number="1">begin</beam>
            </note>
            <note default-x="131">
                <chord/>
                <pitch>
                    <step>C</step>
                    <alter>1</alter>
                    <octave>5</octave>
                </pitch>
                <duration>1</duration>
                <voice>1</voice>
                <type>eighth</type>
                <stem>up</stem>
            </note>
            <note default-x="155">
                <pitch>
                    <step>G</step>
                    <alter>1</alter>
                    <octave>4</octave>
                </pitch>
                <duration>1</duration>
                <voice>1</voice>
                <type>eighth</type>
                <stem default-y="15">up</stem>
                <beam number="1">end</beam>
            </note>
            <note default-x="155">
                <chord/>
                <pitch>
                    <step>B</step>
                    <octave>4</octave>
                </pitch>
                <duration>1</duration>
                <voice>1</voice>
                <type>eighth</type>
                <stem>up</stem>
            </note>
        </measure>
        <measure width="127" number="16">
            <harmony default-y="34">
                <root>
                    <root-step>A</root-step>
                </root>
                <kind halign="center" text="">major</kind>
            </harmony>
            <note default-x="16">
                <pitch>
                    <step>C</step>
                    <alter>1</alter>
                    <octave>4</octave>
                </pitch>
                <duration>8</duration>
                <voice>1</voice>
                <type>whole</type>
            </note>
            <note default-x="16">
                <chord/>
                <pitch>
                    <step>E</step>
                    <octave>4</octave>
                </pitch>
                <duration>8</duration>
                <voice>1</voice>
                <type>whole</type>
            </note>
            <note default-x="16">
                <chord/>
                <pitch>
                    <step>A</step>
                    <octave>4</octave>
                </pitch>
                <duration>8</duration>
                <voice>1</voice>
                <type>whole</type>
            </note>
            <barline location="right">
                <bar-style>light-light</bar-style>
            </barline>
        </measure>
        <measure width="189" number="17">
            <harmony default-y="34">
                <root>
                    <root-step>E</root-step>
                </root>
                <kind halign="center" text="m7">minor-seventh</kind>
            </harmony>
            <note default-x="13">
                <pitch>
                    <step>A</step>
                    <octave>4</octave>
                </pitch>
                <duration>2</duration>
                <voice>1</voice>
                <type>quarter</type>
                <stem default-y="11">up</stem>
            </note>
            <note default-x="52">
                <pitch>
                    <step>G</step>
                    <octave>4</octave>
                </pitch>
                <duration>1</duration>
                <voice>1</voice>
                <type>eighth</type>
                <accidental>natural</accidental>
                <stem default-y="5">up</stem>
                <beam number="1">begin</beam>
            </note>
            <note default-x="76">
                <pitch>
                    <step>F</step>
                    <alter>1</alter>
                    <octave>4</octave>
                </pitch>
                <duration>1</duration>
                <voice>1</voice>
                <type>eighth</type>
                <stem default-y="2">up</stem>
                <beam number="1">end</beam>
            </note>
            <harmony default-y="34">
                <root>
                    <root-step>A</root-step>
                </root>
                <kind halign="center" text="7">dominant</kind>
            </harmony>
            <note default-x="100">
                <pitch>
                    <step>E</step>
                    <octave>4</octave>
                </pitch>
                <duration>2</duration>
                <voice>1</voice>
                <type>quarter</type>
                <stem default-y="-4.5">up</stem>
            </note>
            <note default-x="140">
                <pitch>
                    <step>F</step>
                    <alter>1</alter>
                    <octave>4</octave>
                </pitch>
                <duration>1</duration>
                <voice>1</voice>
                <type>eighth</type>
                <stem default-y="0">up</stem>
                <beam number="1">begin</beam>
            </note>
            <note default-x="164">
                <pitch>
                    <step>G</step>
                    <octave>4</octave>
                </pitch>
                <duration>1</duration>
                <voice>1</voice>
                <type>eighth</type>
                <stem default-y="5">up</stem>
                <beam number="1">end</beam>
            </note>
        </measure>
        <measure width="137" number="18">
            <harmony default-y="34">
                <root>
                    <root-step>D</root-step>
                </root>
                <kind halign="center" text="">major</kind>
            </harmony>
            <note default-x="14">
                <pitch>
                    <step>B</step>
                    <octave>4</octave>
                </pitch>
                <duration>2</duration>
                <voice>1</voice>
                <type>quarter</type>
                <stem default-y="-55">down</stem>
            </note>
            <harmony default-y="34">
                <root>
                    <root-step>B</root-step>
                </root>
                <kind halign="center" text="7">dominant</kind>
            </harmony>
            <note default-x="53">
                <pitch>
                    <step>D</step>
                    <alter>1</alter>
                    <octave>4</octave>
                </pitch>
                <duration>6</duration>
                <voice>1</voice>
                <type>half</type>
                <dot/>
                <accidental>sharp</accidental>
                <stem default-y="11">up</stem>
            </note>
            <note default-x="53">
                <chord/>
                <pitch>
                    <step>F</step>
                    <alter>1</alter>
                    <octave>4</octave>
                </pitch>
                <duration>6</duration>
                <voice>1</voice>
                <type>half</type>
                <dot/>
                <stem>up</stem>
            </note>
            <note default-x="53">
                <chord/>
                <pitch>
                    <step>A</step>
                    <octave>4</octave>
                </pitch>
                <duration>6</duration>
                <voice>1</voice>
                <type>half</type>
                <dot/>
                <stem>up</stem>
            </note>
        </measure>
        <measure width="242" number="19">
            <print new-system="yes">
                <system-layout>
                    <system-distance>114</system-distance>
                </system-layout>
            </print>
            <harmony default-y="34">
                <root>
                    <root-step>E</root-step>
                </root>
                <kind halign="center" text="m7">minor-seventh</kind>
            </harmony>
            <note default-x="63">
                <pitch>
                    <step>A</step>
                    <octave>4</octave>
                </pitch>
                <duration>2</duration>
                <voice>1</voice>
                <type>quarter</type>
                <stem default-y="10">up</stem>
            </note>
            <note default-x="103">
                <pitch>
                    <step>G</step>
                    <octave>4</octave>
                </pitch>
                <duration>1</duration>
                <voice>1</voice>
                <type>eighth</type>
                <accidental>natural</accidental>
                <stem default-y="5">up</stem>
                <beam number="1">begin</beam>
            </note>
            <note default-x="128">
                <pitch>
                    <step>F</step>
                    <alter>1</alter>
                    <octave>4</octave>
                </pitch>
                <duration>1</duration>
                <voice>1</voice>
                <type>eighth</type>
                <stem default-y="2.5">up</stem>
                <beam number="1">end</beam>
            </note>
            <harmony default-y="34">
                <root>
                    <root-step>A</root-step>
                </root>
                <kind halign="center" text="7">dominant</kind>
            </harmony>
            <note default-x="152">
                <pitch>
                    <step>E</step>
                    <octave>4</octave>
                </pitch>
                <duration>2</duration>
                <voice>1</voice>
                <type>quarter</type>
                <stem default-y="-4">up</stem>
            </note>
            <note default-x="192">
                <pitch>
                    <step>F</step>
                    <alter>1</alter>
                    <octave>4</octave>
                </pitch>
                <duration>1</duration>
                <voice>1</voice>
                <type>eighth</type>
                <stem default-y="0">up</stem>
                <beam number="1">begin</beam>
            </note>
            <note default-x="217">
                <pitch>
                    <step>G</step>
                    <octave>4</octave>
                </pitch>
                <duration>1</duration>
                <voice>1</voice>
                <type>eighth</type>
                <stem default-y="5">up</stem>
                <beam number="1">end</beam>
            </note>
        </measure>
        <measure width="122" number="20">
            <harmony default-y="34">
                <root>
                    <root-step>D</root-step>
                </root>
                <kind halign="center" text="">major</kind>
            </harmony>
            <note default-x="16">
                <pitch>
                    <step>D</step>
                    <octave>4</octave>
                </pitch>
                <duration>8</duration>
                <voice>1</voice>
                <type>whole</type>
            </note>
            <note default-x="16">
                <chord/>
                <pitch>
                    <step>F</step>
                    <alter>1</alter>
                    <octave>4</octave>
                </pitch>
                <duration>8</duration>
                <voice>1</voice>
                <type>whole</type>
            </note>
            <note default-x="16">
                <chord/>
                <pitch>
                    <step>A</step>
                    <octave>4</octave>
                </pitch>
                <duration>8</duration>
                <voice>1</voice>
                <type>whole</type>
            </note>
        </measure>
        <measure width="203" number="21">
            <harmony default-y="34">
                <root>
                    <root-step>F</root-step>
                    <root-alter>1</root-alter>
                </root>
                <kind halign="center" text="m7">minor-seventh</kind>
            </harmony>
            <note default-x="13">
                <pitch>
                    <step>F</step>
                    <alter>1</alter>
                    <octave>4</octave>
                </pitch>
                <duration>2</duration>
                <voice>1</voice>
                <type>quarter</type>
                <stem default-y="16">up</stem>
            </note>
            <note default-x="13">
                <chord/>
                <pitch>
                    <step>B</step>
                    <octave>4</octave>
                </pitch>
                <duration>2</duration>
                <voice>1</voice>
                <type>quarter</type>
                <stem>up</stem>
            </note>
            <note default-x="54">
                <pitch>
                    <step>F</step>
                    <alter>1</alter>
                    <octave>4</octave>
                </pitch>
                <duration>1</duration>
                <voice>1</voice>
                <type>eighth</type>
                <stem default-y="10">up</stem>
                <beam number="1">begin</beam>
            </note>
            <note default-x="54">
                <chord/>
                <pitch>
                    <step>A</step>
                    <octave>4</octave>
                </pitch>
                <duration>1</duration>
                <voice>1</voice>
                <type>eighth</type>
                <stem>up</stem>
            </note>
            <note default-x="80">
                <pitch>
                    <step>G</step>
                    <alter>1</alter>
                    <octave>4</octave>
                </pitch>
                <duration>1</duration>
                <voice>1</voice>
                <type>eighth</type>
                <stem default-y="5">up</stem>
                <beam number="1">end</beam>
            </note>
            <harmony default-y="34">
                <root>
                    <root-step>B</root-step>
                </root>
                <kind halign="center" text="">major</kind>
            </harmony>
            <note default-x="110">
                <pitch>
                    <step>D</step>
                    <alter>1</alter>
                    <octave>4</octave>
                </pitch>
                <duration>2</duration>
                <voice>1</voice>
                <type>quarter</type>
                <accidental>sharp</accidental>
                <stem default-y="0.5">up</stem>
            </note>
            <note default-x="110">
                <chord/>
                <pitch>
                    <step>F</step>
                    <alter>1</alter>
                    <octave>4</octave>
                </pitch>
                <duration>2</duration>
                <voice>1</voice>
                <type>quarter</type>
                <stem>up</stem>
            </note>
            <note default-x="151">
                <pitch>
                    <step>G</step>
                    <alter>1</alter>
                    <octave>4</octave>
                </pitch>
                <duration>1</duration>
                <voice>1</voice>
                <type>eighth</type>
                <stem default-y="5">up</stem>
                <beam number="1">begin</beam>
            </note>
            <note default-x="177">
                <pitch>
                    <step>A</step>
                    <octave>4</octave>
                </pitch>
                <duration>1</duration>
                <voice>1</voice>
                <type>eighth</type>
                <stem default-y="10">up</stem>
                <beam number="1">end</beam>
            </note>
        </measure>
        <measure width="159" number="22">
            <harmony default-y="34">
                <root>
                    <root-step>E</root-step>
                </root>
                <kind halign="center" text="">major</kind>
            </harmony>
            <note default-x="14">
                <pitch>
                    <step>C</step>
                    <alter>1</alter>
                    <octave>5</octave>
                </pitch>
                <duration>2</duration>
                <voice>1</voice>
                <type>quarter</type>
                <stem default-y="-50">down</stem>
            </note>
            <harmony default-y="34">
                <root>
                    <root-step>C</root-step>
                    <root-alter>1</root-alter>
                </root>
                <kind halign="center" text="7">dominant</kind>
            </harmony>
            <note default-x="54">
                <pitch>
                    <step>F</step>
                    <octave>4</octave>
                </pitch>
                <duration>4</duration>
                <voice>1</voice>
                <type>half</type>
                <accidental>natural</accidental>
                <stem default-y="16">up</stem>
            </note>
            <note default-x="54">
                <chord/>
                <pitch>
                    <step>B</step>
                    <octave>4</octave>
                </pitch>
                <duration>4</duration>
                <voice>1</voice>
                <type>half</type>
                <stem>up</stem>
            </note>
            <note default-x="118">
                <pitch>
                    <step>F</step>
                    <octave>4</octave>
                </pitch>
                <duration>2</duration>
                <voice>1</voice>
                <type>quarter</type>
                <stem default-y="16">up</stem>
            </note>
            <note default-x="118">
                <chord/>
                <pitch>
                    <step>B</step>
                    <octave>4</octave>
                </pitch>
                <duration>2</duration>
                <voice>1</voice>
                <type>quarter</type>
                <stem>up</stem>
            </note>
        </measure>
        <measure width="174" number="23">
            <harmony default-y="34">
                <root>
                    <root-step>F</root-step>
                    <root-alter>1</root-alter>
                </root>
                <kind halign="center" text="7">dominant</kind>
            </harmony>
            <note default-x="14">
                <pitch>
                    <step>C</step>
                    <alter>1</alter>
                    <octave>5</octave>
                </pitch>
                <duration>2</duration>
                <voice>1</voice>
                <type>quarter</type>
                <stem default-y="-50">down</stem>
            </note>
            <note default-x="54">
                <pitch>
                    <step>A</step>
                    <alter>1</alter>
                    <octave>4</octave>
                </pitch>
                <duration>2</duration>
                <voice>1</voice>
                <type>quarter</type>
                <accidental>sharp</accidental>
                <stem default-y="10">up</stem>
            </note>
            <harmony default-y="34">
                <root>
                    <root-step>B</root-step>
                </root>
                <kind halign="center" text="7">dominant</kind>
            </harmony>
            <note default-x="94">
                <pitch>
                    <step>D</step>
                    <alter>1</alter>
                    <octave>5</octave>
                </pitch>
                <duration>2</duration>
                <voice>1</voice>
                <type>quarter</type>
                <accidental>sharp</accidental>
                <stem default-y="-45">down</stem>
            </note>
            <note default-x="133">
                <pitch>
                    <step>B</step>
                    <octave>4</octave>
                </pitch>
                <duration>2</duration>
                <voice>1</voice>
                <type>quarter</type>
                <stem default-y="-55">down</stem>
            </note>
        </measure>
        <measure width="120" number="24">
            <harmony default-y="34">
                <root>
                    <root-step>E</root-step>
                </root>
                <kind halign="center" text="7">dominant</kind>
            </harmony>
            <note default-x="13">
                <pitch>
                    <step>E</step>
                    <octave>4</octave>
                </pitch>
                <duration>8</duration>
                <voice>1</voice>
                <type>whole</type>
            </note>
            <note default-x="13">
                <chord/>
                <pitch>
                    <step>G</step>
                    <alter>1</alter>
                    <octave>4</octave>
                </pitch>
                <duration>8</duration>
                <voice>1</voice>
                <type>whole</type>
            </note>
            <note default-x="13">
                <chord/>
                <pitch>
                    <step>B</step>
                    <octave>4</octave>
                </pitch>
                <duration>8</duration>
                <voice>1</voice>
                <type>whole</type>
            </note>
            <note default-x="13">
                <chord/>
                <pitch>
                    <step>E</step>
                    <octave>5</octave>
                </pitch>
                <duration>8</duration>
                <voice>1</voice>
                <type>whole</type>
            </note>
        </measure>
        <measure width="234" number="25">
            <print new-system="yes">
                <system-layout>
                    <system-distance>114</system-distance>
                </system-layout>
            </print>
            <harmony default-y="34">
                <root>
                    <root-step>A</root-step>
                </root>
                <kind halign="center" text="">major</kind>
            </harmony>
            <note default-x="63">
                <rest/>
                <duration>2</duration>
                <voice>1</voice>
                <type>quarter</type>
            </note>
            <note default-x="103">
                <pitch>
                    <step>E</step>
                    <octave>4</octave>
                </pitch>
                <duration>2</duration>
                <voice>1</voice>
                <type>quarter</type>
                <stem default-y="14">up</stem>
            </note>
            <note default-x="103">
                <chord/>
                <pitch>
                    <step>A</step>
                    <octave>4</octave>
                </pitch>
                <duration>2</duration>
                <voice>1</voice>
                <type>quarter</type>
                <stem>up</stem>
            </note>
            <note default-x="103">
                <chord/>
                <pitch>
                    <step>C</step>
                    <alter>1</alter>
                    <octave>5</octave>
                </pitch>
                <duration>2</duration>
                <voice>1</voice>
                <type>quarter</type>
                <stem>up</stem>
            </note>
            <harmony default-y="34">
                <root>
                    <root-step>A</root-step>
                    <root-alter>1</root-alter>
                </root>
                <kind halign="center" text="dim">diminished</kind>
            </harmony>
            <note default-x="143">
                <pitch>
                    <step>E</step>
                    <octave>4</octave>
                </pitch>
                <duration>2</duration>
                <voice>1</voice>
                <type>quarter</type>
                <stem default-y="14">up</stem>
            </note>
            <note default-x="143">
                <chord/>
                <pitch>
                    <step>A</step>
                    <octave>4</octave>
                </pitch>
                <duration>2</duration>
                <voice>1</voice>
                <type>quarter</type>
                <stem>up</stem>
            </note>
            <note default-x="143">
                <chord/>
                <pitch>
                    <step>C</step>
                    <alter>1</alter>
                    <octave>5</octave>
                </pitch>
                <duration>2</duration>
                <voice>1</voice>
                <type>quarter</type>
                <stem>up</stem>
            </note>
            <note default-x="183">
                <pitch>
                    <step>D</step>
                    <octave>5</octave>
                </pitch>
                <duration>1</duration>
                <voice>1</voice>
                <type>eighth</type>
                <stem default-y="-45">down</stem>
                <beam number="1">begin</beam>
            </note>
            <note default-x="208">
                <pitch>
                    <step>E</step>
                    <octave>5</octave>
                </pitch>
                <duration>1</duration>
                <voice>1</voice>
                <type>eighth</type>
                <stem default-y="-40">down</stem>
                <beam number="1">end</beam>
            </note>
        </measure>
        <measure width="145" number="26">
            <harmony default-y="34">
                <root>
                    <root-step>B</root-step>
                </root>
                <kind halign="center" text="m">minor</kind>
            </harmony>
            <note default-x="14">
                <pitch>
                    <step>F</step>
                    <alter>1</alter>
                    <octave>4</octave>
                </pitch>
                <duration>4</duration>
                <voice>1</voice>
                <type>half</type>
                <stem default-y="14">up</stem>
            </note>
            <note default-x="14">
                <chord/>
                <pitch>
                    <step>A</step>
                    <octave>4</octave>
                </pitch>
                <duration>4</duration>
                <voice>1</voice>
                <type>half</type>
                <stem>up</stem>
            </note>
            <note default-x="14">
                <chord/>
                <pitch>
                    <step>C</step>
                    <alter>1</alter>
                    <octave>5</octave>
                </pitch>
                <duration>4</duration>
                <voice>1</voice>
                <type>half</type>
                <stem>up</stem>
            </note>
            <note default-x="79">
                <pitch>
                    <step>D</step>
                    <octave>4</octave>
                </pitch>
                <duration>4</duration>
                <voice>1</voice>
                <type>half</type>
                <stem default-y="15">up</stem>
            </note>
            <note default-x="79">
                <chord/>
                <pitch>
                    <step>F</step>
                    <alter>1</alter>
                    <octave>4</octave>
                </pitch>
                <duration>4</duration>
                <voice>1</voice>
                <type>half</type>
                <stem>up</stem>
            </note>
            <note default-x="79">
                <chord/>
                <pitch>
                    <step>A</step>
                    <octave>4</octave>
                </pitch>
                <duration>4</duration>
                <voice>1</voice>
                <type>half</type>
                <stem>up</stem>
            </note>
            <note default-x="92">
                <chord/>
                <pitch>
                    <step>B</step>
                    <octave>4</octave>
                </pitch>
                <duration>4</duration>
                <voice>1</voice>
                <type>half</type>
                <stem>up</stem>
            </note>
        </measure>
        <measure width="184" number="27">
            <harmony default-y="34">
                <root>
                    <root-step>D</root-step>
                </root>
                <kind halign="center" text="m">minor</kind>
            </harmony>
            <note default-x="14">
                <rest/>
                <duration>2</duration>
                <voice>1</voice>
                <type>quarter</type>
            </note>
            <note default-x="53">
                <pitch>
                    <step>F</step>
                    <octave>4</octave>
                </pitch>
                <duration>2</duration>
                <voice>1</voice>
                <type>quarter</type>
                <accidental>natural</accidental>
                <stem default-y="15">up</stem>
            </note>
            <note default-x="53">
                <chord/>
                <pitch>
                    <step>B</step>
                    <octave>4</octave>
                </pitch>
                <duration>2</duration>
                <voice>1</voice>
                <type>quarter</type>
                <stem>up</stem>
            </note>
            <harmony default-y="34">
                <root>
                    <root-step>E</root-step>
                </root>
                <kind halign="center" text="7">dominant</kind>
            </harmony>
            <note default-x="94">
                <pitch>
                    <step>G</step>
                    <alter>1</alter>
                    <octave>4</octave>
                </pitch>
                <duration>2</duration>
                <voice>1</voice>
                <type>quarter</type>
                <stem default-y="15">up</stem>
            </note>
            <note default-x="94">
                <chord/>
                <pitch>
                    <step>B</step>
                    <octave>4</octave>
                </pitch>
                <duration>2</duration>
                <voice>1</voice>
                <type>quarter</type>
                <stem>up</stem>
            </note>
            <note default-x="134">
                <pitch>
                    <step>G</step>
                    <alter>1</alter>
                    <octave>4</octave>
                </pitch>
                <duration>1</duration>
                <voice>1</voice>
                <type>eighth</type>
                <stem default-y="20">up</stem>
                <beam number="1">begin</beam>
            </note>
            <note default-x="134">
                <chord/>
                <pitch>
                    <step>C</step>
                    <alter>1</alter>
                    <octave>5</octave>
                </pitch>
                <duration>1</duration>
                <voice>1</voice>
                <type>eighth</type>
                <stem>up</stem>
            </note>
            <note default-x="158">
                <pitch>
                    <step>G</step>
                    <alter>1</alter>
                    <octave>4</octave>
                </pitch>
                <duration>1</duration>
                <voice>1</voice>
                <type>eighth</type>
                <stem default-y="15">up</stem>
                <beam number="1">end</beam>
            </note>
            <note default-x="158">
                <chord/>
                <pitch>
                    <step>B</step>
                    <octave>4</octave>
                </pitch>
                <duration>1</duration>
                <voice>1</voice>
                <type>eighth</type>
                <stem>up</stem>
            </note>
        </measure>
        <measure width="123" number="28">
            <harmony default-y="34">
                <root>
                    <root-step>A</root-step>
                </root>
                <kind halign="center" text="">major</kind>
            </harmony>
            <note default-x="16">
                <pitch>
                    <step>C</step>
                    <alter>1</alter>
                    <octave>4</octave>
                </pitch>
                <duration>8</duration>
                <voice>1</voice>
                <type>whole</type>
            </note>
            <note default-x="16">
                <chord/>
                <pitch>
                    <step>E</step>
                    <octave>4</octave>
                </pitch>
                <duration>8</duration>
                <voice>1</voice>
                <type>whole</type>
            </note>
        </measure>
        <measure width="187" number="29">
            <harmony default-y="34">
                <root>
                    <root-step>A</root-step>
                </root>
                <kind halign="center" text="">major</kind>
            </harmony>
            <note default-x="14">
                <rest/>
                <duration>2</duration>
                <voice>1</voice>
                <type>quarter</type>
            </note>
            <note default-x="54">
                <pitch>
                    <step>C</step>
                    <alter>1</alter>
                    <octave>4</octave>
                </pitch>
                <duration>2</duration>
                <voice>1</voice>
                <type>quarter</type>
                <stem default-y="10">up</stem>
            </note>
            <note default-x="54">
                <chord/>
                <pitch>
                    <step>E</step>
                    <octave>4</octave>
                </pitch>
                <duration>2</duration>
                <voice>1</voice>
                <type>quarter</type>
                <stem>up</stem>
            </note>
            <note default-x="54">
                <chord/>
                <pitch>
                    <step>A</step>
                    <octave>4</octave>
                </pitch>
                <duration>2</duration>
                <voice>1</voice>
                <type>quarter</type>
                <stem>up</stem>
            </note>
            <harmony default-y="34">
                <root>
                    <root-step>A</root-step>
                </root>
                <kind halign="center" text="dim">diminished</kind>
            </harmony>
            <note default-x="95">
                <pitch>
                    <step>C</step>
                    <alter>1</alter>
                    <octave>4</octave>
                </pitch>
                <duration>2</duration>
                <voice>1</voice>
                <type>quarter</type>
                <stem default-y="10">up</stem>
            </note>
            <note default-x="95">
                <chord/>
                <pitch>
                    <step>E</step>
                    <octave>4</octave>
                </pitch>
                <duration>2</duration>
                <voice>1</voice>
                <type>quarter</type>
                <stem>up</stem>
            </note>
            <note default-x="95">
                <chord/>
                <pitch>
                    <step>A</step>
                    <octave>4</octave>
                </pitch>
                <duration>2</duration>
                <voice>1</voice>
                <type>quarter</type>
                <stem>up</stem>
            </note>
            <note default-x="136">
                <pitch>
                    <step>C</step>
                    <alter>1</alter>
                    <octave>4</octave>
                </pitch>
                <duration>1</duration>
                <voice>1</voice>
                <type>eighth</type>
                <stem default-y="15">up</stem>
                <beam number="1">begin</beam>
            </note>
            <note default-x="136">
                <chord/>
                <pitch>
                    <step>E</step>
                    <octave>4</octave>
                </pitch>
                <duration>1</duration>
                <voice>1</voice>
                <type>eighth</type>
                <stem>up</stem>
            </note>
            <note default-x="136">
                <chord/>
                <pitch>
                    <step>B</step>
                    <octave>4</octave>
                </pitch>
                <duration>1</duration>
                <voice>1</voice>
                <type>eighth</type>
                <stem>up</stem>
            </note>
            <note default-x="161">
                <pitch>
                    <step>C</step>
                    <alter>1</alter>
                    <octave>4</octave>
                </pitch>
                <duration>1</duration>
                <voice>1</voice>
                <type>eighth</type>
                <stem default-y="10">up</stem>
                <beam number="1">end</beam>
            </note>
            <note default-x="161">
                <chord/>
                <pitch>
                    <step>E</step>
                    <octave>4</octave>
                </pitch>
                <duration>1</duration>
                <voice>1</voice>
                <type>eighth</type>
                <stem>up</stem>
            </note>
            <note default-x="161">
                <chord/>
                <pitch>
                    <step>A</step>
                    <octave>4</octave>
                </pitch>
                <duration>1</duration>
                <voice>1</voice>
                <type>eighth</type>
                <stem>up</stem>
            </note>
        </measure>
        <measure width="147" number="30">
            <harmony default-y="34">
                <root>
                    <root-step>B</root-step>
                </root>
                <kind halign="center" text="m">minor</kind>
            </harmony>
            <note default-x="16">
                <pitch>
                    <step>B</step>
                    <octave>3</octave>
                </pitch>
                <duration>4</duration>
                <voice>1</voice>
                <type>half</type>
                <stem default-y="-10">up</stem>
            </note>
            <note default-x="16">
                <chord/>
                <pitch>
                    <step>D</step>
                    <octave>4</octave>
                </pitch>
                <duration>4</duration>
                <voice>1</voice>
                <type>half</type>
                <stem>up</stem>
            </note>
            <note default-x="82">
                <pitch>
                    <step>B</step>
                    <octave>3</octave>
                </pitch>
                <duration>4</duration>
                <voice>1</voice>
                <type>half</type>
                <stem default-y="-10">up</stem>
            </note>
            <note default-x="82">
                <chord/>
                <pitch>
                    <step>D</step>
                    <octave>4</octave>
                </pitch>
                <duration>4</duration>
                <voice>1</voice>
                <type>half</type>
                <stem>up</stem>
            </note>
        </measure>
        <measure width="653" number="31">
            <print new-system="yes">
                <system-layout>
                    <system-distance>114</system-distance>
                </system-layout>
            </print>
            <harmony default-y="34">
                <root>
                    <root-step>E</root-step>
                </root>
                <kind halign="center" text="7">dominant</kind>
            </harmony>
            <note default-x="63">
                <rest/>
                <duration>2</duration>
                <voice>1</voice>
                <type>quarter</type>
            </note>
            <note default-x="202">
                <pitch>
                    <step>D</step>
                    <octave>4</octave>
                </pitch>
                <duration>2</duration>
                <voice>1</voice>
                <type>quarter</type>
                <stem default-y="5.5">up</stem>
            </note>
            <note default-x="214">
                <chord/>
                <pitch>
                    <step>E</step>
                    <octave>4</octave>
                </pitch>
                <duration>2</duration>
                <voice>1</voice>
                <type>quarter</type>
                <stem>up</stem>
            </note>
            <note default-x="202">
                <chord/>
                <pitch>
                    <step>G</step>
                    <alter>1</alter>
                    <octave>4</octave>
                </pitch>
                <duration>2</duration>
                <voice>1</voice>
                <type>quarter</type>
                <stem>up</stem>
            </note>
            <note default-x="341">
                <pitch>
                    <step>D</step>
                    <octave>4</octave>
                </pitch>
                <duration>2</duration>
                <voice>1</voice>
                <type>quarter</type>
                <stem default-y="5.5">up</stem>
            </note>
            <note default-x="354">
                <chord/>
                <pitch>
                    <step>E</step>
                    <octave>4</octave>
                </pitch>
                <duration>2</duration>
                <voice>1</voice>
                <type>quarter</type>
                <stem>up</stem>
            </note>
            <note default-x="341">
                <chord/>
                <pitch>
                    <step>G</step>
                    <alter>1</alter>
                    <octave>4</octave>
                </pitch>
                <duration>2</duration>
                <voice>1</voice>
                <type>quarter</type>
                <stem>up</stem>
            </note>
            <note default-x="480">
                <pitch>
                    <step>D</step>
                    <octave>4</octave>
                </pitch>
                <duration>1</duration>
                <voice>1</voice>
                <type>eighth</type>
                <stem default-y="20">up</stem>
                <beam number="1">begin</beam>
            </note>
            <note default-x="492">
                <chord/>
                <pitch>
                    <step>E</step>
                    <octave>4</octave>
                </pitch>
                <duration>1</duration>
                <voice>1</voice>
                <type>eighth</type>
                <stem>up</stem>
            </note>
            <note default-x="480">
                <chord/>
                <pitch>
                    <step>G</step>
                    <alter>1</alter>
                    <octave>4</octave>
                </pitch>
                <duration>1</duration>
                <voice>1</voice>
                <type>eighth</type>
                <stem>up</stem>
            </note>
            <note default-x="480">
                <chord/>
                <pitch>
                    <step>C</step>
                    <alter>1</alter>
                    <octave>5</octave>
                </pitch>
                <duration>1</duration>
                <voice>1</voice>
                <type>eighth</type>
                <stem>up</stem>
            </note>
            <note default-x="566">
                <pitch>
                    <step>D</step>
                    <octave>4</octave>
                </pitch>
                <duration>1</duration>
                <voice>1</voice>
                <type>eighth</type>
                <stem default-y="15">up</stem>
                <beam number="1">end</beam>
            </note>
            <note default-x="579">
                <chord/>
                <pitch>
                    <step>E</step>
                    <octave>4</octave>
                </pitch>
                <duration>1</duration>
                <voice>1</voice>
                <type>eighth</type>
                <stem>up</stem>
            </note>
            <note default-x="566">
                <chord/>
                <pitch>
                    <step>G</step>
                    <alter>1</alter>
                    <octave>4</octave>
                </pitch>
                <duration>1</duration>
                <voice>1</voice>
                <type>eighth</type>
                <stem>up</stem>
            </note>
            <note default-x="566">
                <chord/>
                <pitch>
                    <step>B</step>
                    <octave>4</octave>
                </pitch>
                <duration>1</duration>
                <voice>1</voice>
                <type>eighth</type>
                <stem>up</stem>
            </note>
        </measure>
        <measure width="368" number="32">
            <harmony default-y="34">
                <root>
                    <root-step>A</root-step>
                </root>
                <kind halign="center" text="">major</kind>
            </harmony>
            <note default-x="16">
                <pitch>
                    <step>C</step>
                    <alter>1</alter>
                    <octave>4</octave>
                </pitch>
                <duration>8</duration>
                <voice>1</voice>
                <type>whole</type>
            </note>
            <note default-x="16">
                <chord/>
                <pitch>
                    <step>E</step>
                    <octave>4</octave>
                </pitch>
                <duration>8</duration>
                <voice>1</voice>
                <type>whole</type>
            </note>
            <note default-x="16">
                <chord/>
                <pitch>
                    <step>A</step>
                    <octave>4</octave>
                </pitch>
                <duration>8</duration>
                <voice>1</voice>
                <type>whole</type>
            </note>
            <barline location="right">
                <bar-style>light-heavy</bar-style>
            </barline>
        </measure>
    </part>
</score-partwise>
