<?xml version="1.0" encoding="UTF-8"?>
<!DOCTYPE score-partwise PUBLIC "-//Recordare//DTD MusicXML 2.0 Partwise//EN" "http://www.musicxml.org/dtds/partwise.dtd">
<score-partwise version="2.0">
    <work>
        <work-number></work-number>
        <work-title></work-title>
    </work>
    <movement-number></movement-number>
    <movement-title> Le sentier de neige</movement-title>
    <identification>
        <creator type="composer">Annie Villeneuve</creator>
        <creator type="poet">Annie Villeneuve</creator>
        <rights>All Rights Reserved</rights>
        <encoding>
            <software>Finale 2011 for Windows</software>
            <software>Dolet Light for Finale 2011</software>
            <encoding-date>2013-04-28</encoding-date>
            <supports value="yes" type="yes" element="print" attribute="new-system"/>
            <supports value="yes" type="yes" element="print" attribute="new-page"/>
            <software>ProxyMusic 2.0 c</software>
        </encoding>
        <source>http://wikifonia.org/node/22107/revisions/29168/view</source>
    </identification>
    <defaults>
        <scaling>
            <millimeters>6.8703</millimeters>
            <tenths>40</tenths>
        </scaling>
        <page-layout>
            <page-height>1728</page-height>
            <page-width>1222</page-width>
            <page-margins type="both">
                <left-margin>80</left-margin>
                <right-margin>74</right-margin>
                <top-margin>49</top-margin>
                <bottom-margin>68</bottom-margin>
            </page-margins>
        </page-layout>
        <system-layout>
            <system-margins>
                <left-margin>0</left-margin>
                <right-margin>2</right-margin>
            </system-margins>
            <system-distance>142</system-distance>
            <top-system-distance>56</top-system-distance>
        </system-layout>
        <appearance>
            <line-width type="stem">1.4583</line-width>
            <line-width type="beam">5</line-width>
            <line-width type="staff">1.4583</line-width>
            <line-width type="light barline">1.4583</line-width>
            <line-width type="heavy barline">5</line-width>
            <line-width type="leger">1.4583</line-width>
            <line-width type="ending">1.4583</line-width>
            <line-width type="wedge">1.4583</line-width>
            <line-width type="enclosure">1.4583</line-width>
            <line-width type="tuplet bracket">1.4583</line-width>
            <note-size type="grace">60</note-size>
            <note-size type="cue">60</note-size>
        </appearance>
        <music-font font-size="19.5" font-family="Maestro"/>
        <word-font font-size="9.7" font-family="Times New Roman"/>
        <lyric-font font-size="9.7" font-family="Times New Roman" name="verse"/>
    </defaults>
    <credit page="1">
        <credit-words font-size="24.7" default-y="1657" default-x="614" justify="center" valign="top">Le sentier de neige</credit-words>
    </credit>
    <credit page="1">
        <credit-words font-size="12.4" default-y="1557" default-x="1050" justify="center" valign="top">Annie Villeneuve</credit-words>
    </credit>
    <credit page="1">
        <credit-words font-style="italic" font-size="11.4" default-y="122" default-x="726" valign="top">Bouche fermée</credit-words>
    </credit>
    <part-list>
        <score-part id="P1">
            <part-name print-object="no">MusicXML Part</part-name>
            <score-instrument id="P1-I1">
                <instrument-name>Synth Voice</instrument-name>
            </score-instrument>
            <midi-instrument id="P1-I1">
                <midi-channel>1</midi-channel>
                <midi-program>55</midi-program>
                <volume>80</volume>
                <pan>0</pan>
            </midi-instrument>
        </score-part>
    </part-list>
    <part id="P1">
        <measure width="276" number="1">
            <print>
                <system-layout>
                    <system-margins>
                        <left-margin>0</left-margin>
                        <right-margin>0</right-margin>
                    </system-margins>
                    <top-system-distance>184</top-system-distance>
                </system-layout>
            </print>
            <attributes>
                <divisions>8</divisions>
                <key>
                    <fifths>0</fifths>
                    <mode>major</mode>
                </key>
                <time>
                    <beats>3</beats>
                    <beat-type>4</beat-type>
                </time>
                <clef>
                    <sign>G</sign>
                    <line>2</line>
                </clef>
            </attributes>
            <sound tempo="120"/>
            <note default-x="83">
                <rest/>
                <duration>8</duration>
                <voice>1</voice>
                <type>quarter</type>
            </note>
            <note default-x="142">
                <rest/>
                <duration>8</duration>
                <voice>1</voice>
                <type>quarter</type>
            </note>
            <note default-x="202">
                <rest/>
                <duration>4</duration>
                <voice>1</voice>
                <type>eighth</type>
            </note>
            <direction placement="below">
                <direction-type>
                    <words font-style="italic" default-y="-63" valign="top">Bouche fermée</words>
                </direction-type>
                <offset>-1</offset>
            </direction>
            <note default-x="238">
                <pitch>
                    <step>C</step>
                    <octave>4</octave>
                </pitch>
                <duration>4</duration>
                <voice>1</voice>
                <type>eighth</type>
                <stem default-y="-14">up</stem>
            </note>
        </measure>
        <measure width="191" number="2">
            <note default-x="14">
                <pitch>
                    <step>F</step>
                    <octave>4</octave>
                </pitch>
                <duration>8</duration>
                <voice>1</voice>
                <type>quarter</type>
                <stem default-y="1">up</stem>
            </note>
            <note default-x="74">
                <pitch>
                    <step>G</step>
                    <octave>4</octave>
                </pitch>
                <duration>12</duration>
                <voice>1</voice>
                <type>quarter</type>
                <dot/>
                <stem default-y="6">up</stem>
            </note>
            <note default-x="152">
                <pitch>
                    <step>F</step>
                    <octave>4</octave>
                </pitch>
                <duration>4</duration>
                <voice>1</voice>
                <type>eighth</type>
                <stem default-y="1">up</stem>
            </note>
        </measure>
        <measure width="204" number="3">
            <note default-x="13">
                <pitch>
                    <step>E</step>
                    <octave>4</octave>
                </pitch>
                <duration>4</duration>
                <voice>1</voice>
                <type>eighth</type>
                <stem default-y="-5">up</stem>
                <beam number="1">begin</beam>
            </note>
            <note default-x="50">
                <pitch>
                    <step>D</step>
                    <octave>4</octave>
                </pitch>
                <duration>4</duration>
                <voice>1</voice>
                <type>eighth</type>
                <stem default-y="-7.5">up</stem>
                <beam number="1">end</beam>
            </note>
            <note default-x="87">
                <pitch>
                    <step>C</step>
                    <octave>4</octave>
                </pitch>
                <duration>12</duration>
                <voice>1</voice>
                <type>quarter</type>
                <dot/>
                <stem default-y="-14">up</stem>
            </note>
            <note default-x="166">
                <pitch>
                    <step>E</step>
                    <octave>4</octave>
                </pitch>
                <duration>4</duration>
                <voice>1</voice>
                <type>eighth</type>
                <stem default-y="-4">up</stem>
            </note>
        </measure>
        <measure width="186" number="4">
            <note default-x="13">
                <pitch>
                    <step>D</step>
                    <octave>4</octave>
                </pitch>
                <duration>8</duration>
                <voice>1</voice>
                <type>quarter</type>
                <stem default-y="-9.5">up</stem>
            </note>
            <note default-x="70">
                <pitch>
                    <step>A</step>
                    <octave>3</octave>
                </pitch>
                <duration>8</duration>
                <voice>1</voice>
                <type>quarter</type>
                <stem default-y="-19">up</stem>
            </note>
            <note default-x="128">
                <pitch>
                    <step>B</step>
                    <octave>3</octave>
                </pitch>
                <duration>8</duration>
                <voice>1</voice>
                <type>quarter</type>
                <stem default-y="-19">up</stem>
            </note>
        </measure>
        <measure width="211" number="5">
            <note default-x="17">
                <pitch>
                    <step>C</step>
                    <octave>4</octave>
                </pitch>
                <duration>16</duration>
                <voice>1</voice>
                <type>half</type>
                <stem default-y="-14">up</stem>
            </note>
            <note default-x="126">
                <rest/>
                <duration>4</duration>
                <voice>1</voice>
                <type>eighth</type>
            </note>
            <note default-x="168">
                <pitch>
                    <step>G</step>
                    <octave>3</octave>
                </pitch>
                <duration>4</duration>
                <voice>1</voice>
                <type>eighth</type>
                <stem default-y="-19">up</stem>
                <lyric default-y="-92" number="1">
                    <syllabic>single</syllabic>
                    <text>1.</text>
                    <elision> </elision>
                    <syllabic>single</syllabic>
                    <text>Le</text>
                </lyric>
                <lyric default-y="-112" number="2">
                    <syllabic>single</syllabic>
                    <text>2.</text>
                    <elision> </elision>
                    <syllabic>single</syllabic>
                    <text>Ce</text>
                </lyric>
            </note>
        </measure>
        <measure width="236" number="6">
            <print new-system="yes">
                <system-layout>
                    <system-margins>
                        <left-margin>0</left-margin>
                        <right-margin>0</right-margin>
                    </system-margins>
                    <system-distance>124</system-distance>
                </system-layout>
            </print>
            <harmony default-y="17">
                <root>
                    <root-step>C</root-step>
                </root>
                <kind halign="center" text="">major</kind>
            </harmony>
            <note default-x="54">
                <pitch>
                    <step>C</step>
                    <octave>4</octave>
                </pitch>
                <duration>8</duration>
                <voice>1</voice>
                <type>quarter</type>
                <stem default-y="-14">up</stem>
                <lyric default-y="-92" number="1">
                    <syllabic>begin</syllabic>
                    <text>sen</text>
                </lyric>
                <lyric default-y="-112" number="2">
                    <syllabic>begin</syllabic>
                    <text>sen</text>
                </lyric>
            </note>
            <note default-x="116">
                <pitch>
                    <step>E</step>
                    <octave>4</octave>
                </pitch>
                <duration>12</duration>
                <voice>1</voice>
                <type>quarter</type>
                <dot/>
                <stem default-y="-4">up</stem>
                <lyric default-y="-92" number="1">
                    <syllabic>end</syllabic>
                    <text>tier</text>
                </lyric>
                <lyric default-y="-112" number="2">
                    <syllabic>end</syllabic>
                    <text>tier</text>
                </lyric>
            </note>
            <note default-x="197">
                <pitch>
                    <step>C</step>
                    <octave>4</octave>
                </pitch>
                <duration>4</duration>
                <voice>1</voice>
                <type>eighth</type>
                <stem default-y="-14">up</stem>
                <lyric default-y="-92" number="1">
                    <syllabic>single</syllabic>
                    <text>de</text>
                </lyric>
                <lyric default-y="-112" number="2">
                    <syllabic>single</syllabic>
                    <text>de</text>
                </lyric>
            </note>
        </measure>
        <measure width="203" number="7">
            <harmony default-y="17">
                <root>
                    <root-step>E</root-step>
                </root>
                <kind halign="center" text="m">minor</kind>
            </harmony>
            <note default-x="17">
                <pitch>
                    <step>B</step>
                    <octave>3</octave>
                </pitch>
                <duration>8</duration>
                <voice>1</voice>
                <type>quarter</type>
                <stem default-y="-19">up</stem>
                <lyric default-y="-92" number="1">
                    <syllabic>begin</syllabic>
                    <text>nei</text>
                </lyric>
                <lyric default-y="-112" number="2">
                    <syllabic>begin</syllabic>
                    <text>nei</text>
                </lyric>
            </note>
            <note default-x="80">
                <pitch>
                    <step>E</step>
                    <octave>4</octave>
                </pitch>
                <duration>12</duration>
                <voice>1</voice>
                <type>quarter</type>
                <dot/>
                <stem default-y="-4">up</stem>
                <lyric default-y="-92" number="1">
                    <syllabic>end</syllabic>
                    <text>ge</text>
                </lyric>
                <lyric default-y="-112" number="2">
                    <syllabic>end</syllabic>
                    <text>ge</text>
                </lyric>
            </note>
            <note default-x="163">
                <pitch>
                    <step>B</step>
                    <octave>3</octave>
                </pitch>
                <duration>4</duration>
                <voice>1</voice>
                <type>eighth</type>
                <stem default-y="-19">up</stem>
                <lyric default-y="-92" number="1">
                    <syllabic>begin</syllabic>
                    <text>cou</text>
                </lyric>
                <lyric default-y="-112" number="2">
                    <syllabic>single</syllabic>
                    <text>si</text>
                </lyric>
            </note>
        </measure>
        <measure width="192" number="8">
            <harmony default-y="17">
                <root>
                    <root-step>F</root-step>
                </root>
                <kind halign="center" text="">major</kind>
            </harmony>
            <note default-x="17">
                <pitch>
                    <step>A</step>
                    <octave>3</octave>
                </pitch>
                <duration>8</duration>
                <voice>1</voice>
                <type>quarter</type>
                <stem default-y="-19">up</stem>
                <lyric default-y="-92" number="1">
                    <syllabic>end</syllabic>
                    <text>rant</text>
                </lyric>
                <lyric default-y="-112" number="2">
                    <syllabic>single</syllabic>
                    <text>pur</text>
                </lyric>
            </note>
            <note default-x="75">
                <pitch>
                    <step>C</step>
                    <octave>4</octave>
                </pitch>
                <duration>8</duration>
                <voice>1</voice>
                <type>quarter</type>
                <stem default-y="-14">up</stem>
                <lyric default-y="-92" number="1">
                    <syllabic>single</syllabic>
                    <text>la</text>
                </lyric>
                <lyric default-y="-112" number="2">
                    <syllabic>single</syllabic>
                    <text>et</text>
                </lyric>
            </note>
            <note default-x="133">
                <pitch>
                    <step>F</step>
                    <octave>4</octave>
                </pitch>
                <duration>8</duration>
                <voice>1</voice>
                <type>quarter</type>
                <stem default-y="1">up</stem>
                <lyric default-y="-92" number="1">
                    <syllabic>begin</syllabic>
                    <text>val</text>
                </lyric>
                <lyric default-y="-112" number="2">
                    <syllabic>single</syllabic>
                    <text>si</text>
                </lyric>
            </note>
        </measure>
        <measure width="189" number="9">
            <harmony default-y="17">
                <root>
                    <root-step>C</root-step>
                </root>
                <kind halign="center" text="">major</kind>
            </harmony>
            <note default-x="14">
                <pitch>
                    <step>E</step>
                    <octave>4</octave>
                </pitch>
                <duration>16</duration>
                <voice>1</voice>
                <type>half</type>
                <stem default-y="-4">up</stem>
                <lyric default-y="-92" number="1">
                    <syllabic>end</syllabic>
                    <text>lée</text>
                </lyric>
                <lyric default-y="-112" number="2">
                    <syllabic>single</syllabic>
                    <text>doux</text>
                </lyric>
            </note>
            <note default-x="112">
                <rest/>
                <duration>4</duration>
                <voice>1</voice>
                <type>eighth</type>
            </note>
            <note default-x="150">
                <pitch>
                    <step>A</step>
                    <octave>3</octave>
                </pitch>
                <duration>4</duration>
                <voice>1</voice>
                <type>eighth</type>
                <stem default-y="-19">up</stem>
                <lyric default-y="-92" number="1">
                    <syllabic>single</syllabic>
                    <text>Où</text>
                </lyric>
            </note>
        </measure>
        <measure width="247" number="10">
            <harmony default-y="17">
                <root>
                    <root-step>F</root-step>
                </root>
                <kind halign="center" text="">major</kind>
            </harmony>
            <note default-x="17">
                <pitch>
                    <step>A</step>
                    <octave>3</octave>
                </pitch>
                <duration>8</duration>
                <voice>1</voice>
                <type>quarter</type>
                <stem default-y="-19">up</stem>
                <lyric relative-x="7" default-y="-92" number="1">
                    <syllabic>single</syllabic>
                    <text>dansent</text>
                </lyric>
                <lyric default-y="-112" number="2">
                    <syllabic>begin</syllabic>
                    <text>De</text>
                </lyric>
            </note>
            <note default-x="95">
                <pitch>
                    <step>C</step>
                    <octave>4</octave>
                </pitch>
                <duration>12</duration>
                <voice>1</voice>
                <type>quarter</type>
                <dot/>
                <stem default-y="-14">up</stem>
                <lyric default-y="-92" number="1">
                    <syllabic>single</syllabic>
                    <text>en</text>
                </lyric>
                <lyric default-y="-112" number="2">
                    <syllabic>end</syllabic>
                    <text>puis</text>
                </lyric>
            </note>
            <note default-x="198">
                <pitch>
                    <step>F</step>
                    <octave>4</octave>
                </pitch>
                <duration>4</duration>
                <voice>1</voice>
                <type>eighth</type>
                <stem default-y="1">up</stem>
                <lyric default-y="-92" number="1">
                    <syllabic>begin</syllabic>
                    <text>cor</text>
                </lyric>
                <lyric default-y="-112" number="2">
                    <syllabic>begin</syllabic>
                    <text>pro</text>
                </lyric>
            </note>
        </measure>
        <measure width="260" number="11">
            <print new-system="yes">
                <system-layout>
                    <system-margins>
                        <left-margin>0</left-margin>
                        <right-margin>0</right-margin>
                    </system-margins>
                    <system-distance>125</system-distance>
                </system-layout>
            </print>
            <harmony default-y="17">
                <root>
                    <root-step>C</root-step>
                </root>
                <kind halign="center" text="">major</kind>
            </harmony>
            <note default-x="51">
                <pitch>
                    <step>E</step>
                    <octave>4</octave>
                </pitch>
                <duration>4</duration>
                <voice>1</voice>
                <type>eighth</type>
                <stem default-y="-5">up</stem>
                <beam number="1">begin</beam>
                <lyric default-y="-92" number="1">
                    <syllabic>middle</syllabic>
                    <text>tè</text>
                </lyric>
                <lyric default-y="-112" number="2">
                    <syllabic>middle</syllabic>
                    <text>tè</text>
                </lyric>
            </note>
            <note default-x="92">
                <pitch>
                    <step>D</step>
                    <octave>4</octave>
                </pitch>
                <duration>4</duration>
                <voice>1</voice>
                <type>eighth</type>
                <stem default-y="-8">up</stem>
                <beam number="1">end</beam>
                <lyric default-y="-112" number="2">
                    <syllabic>middle</syllabic>
                    <text>è</text>
                </lyric>
            </note>
            <note default-x="132">
                <pitch>
                    <step>C</step>
                    <octave>4</octave>
                </pitch>
                <duration>12</duration>
                <voice>1</voice>
                <type>quarter</type>
                <dot/>
                <stem default-y="-14">up</stem>
                <lyric default-y="-92" number="1">
                    <syllabic>end</syllabic>
                    <text>ge</text>
                </lyric>
                <lyric default-y="-112" number="2">
                    <syllabic>end</syllabic>
                    <text>ge</text>
                </lyric>
            </note>
            <note default-x="218">
                <pitch>
                    <step>E</step>
                    <octave>4</octave>
                </pitch>
                <duration>4</duration>
                <voice>1</voice>
                <type>eighth</type>
                <stem default-y="-4">up</stem>
                <lyric default-y="-92" number="1">
                    <syllabic>single</syllabic>
                    <text>des</text>
                </lyric>
                <lyric default-y="-112" number="2">
                    <syllabic>single</syllabic>
                    <text>notre</text>
                </lyric>
            </note>
        </measure>
        <measure width="202" number="12">
            <note default-x="13">
                <pitch>
                    <step>D</step>
                    <octave>4</octave>
                </pitch>
                <duration>8</duration>
                <voice>1</voice>
                <type>quarter</type>
                <stem default-y="-9">up</stem>
                <lyric default-y="-92" number="1">
                    <syllabic>begin</syllabic>
                    <text>sa</text>
                </lyric>
                <lyric default-y="-112" number="2">
                    <syllabic>begin</syllabic>
                    <text>a</text>
                </lyric>
            </note>
            <note default-x="76">
                <pitch>
                    <step>D</step>
                    <octave>4</octave>
                </pitch>
                <duration>8</duration>
                <voice>1</voice>
                <type>quarter</type>
                <stem default-y="-9">up</stem>
                <lyric default-y="-92" number="1">
                    <syllabic>end</syllabic>
                    <text>pins</text>
                </lyric>
                <lyric default-y="-112" number="2">
                    <syllabic>end</syllabic>
                    <text>mour</text>
                </lyric>
            </note>
            <note default-x="138">
                <pitch>
                    <step>E</step>
                    <octave>4</octave>
                </pitch>
                <duration>8</duration>
                <voice>1</voice>
                <type>quarter</type>
                <stem default-y="-4">up</stem>
                <lyric default-y="-92" number="1">
                    <syllabic>begin</syllabic>
                    <text>ge</text>
                </lyric>
                <lyric default-y="-112" number="2">
                    <syllabic>begin</syllabic>
                    <text>ja</text>
                </lyric>
            </note>
        </measure>
        <measure width="191" number="13">
            <note default-x="14">
                <pitch>
                    <step>D</step>
                    <octave>4</octave>
                </pitch>
                <duration>16</duration>
                <voice>1</voice>
                <type>half</type>
                <stem default-y="-9">up</stem>
                <lyric default-y="-92" number="1">
                    <syllabic>end</syllabic>
                    <text>lés</text>
                </lyric>
                <lyric default-y="-112" number="2">
                    <syllabic>end</syllabic>
                    <text>loux</text>
                </lyric>
            </note>
            <note default-x="114">
                <rest/>
                <duration>4</duration>
                <voice>1</voice>
                <type>eighth</type>
            </note>
            <note default-x="151">
                <pitch>
                    <step>C</step>
                    <octave>4</octave>
                </pitch>
                <duration>4</duration>
                <voice>1</voice>
                <type>eighth</type>
                <stem default-y="-14">up</stem>
                <lyric default-y="-92" number="1">
                    <syllabic>single</syllabic>
                    <text>Est</text>
                </lyric>
                <lyric default-y="-112" number="2">
                    <syllabic>single</syllabic>
                    <text>Je</text>
                </lyric>
            </note>
        </measure>
        <measure width="207" number="14">
            <harmony default-y="17">
                <root>
                    <root-step>C</root-step>
                </root>
                <kind halign="center" text="">major</kind>
            </harmony>
            <note default-x="17">
                <pitch>
                    <step>C</step>
                    <octave>4</octave>
                </pitch>
                <duration>8</duration>
                <voice>1</voice>
                <type>quarter</type>
                <stem default-y="-14">up</stem>
                <lyric default-y="-92" number="1">
                    <syllabic>begin</syllabic>
                    <text>res</text>
                </lyric>
                <lyric default-y="-112" number="2">
                    <syllabic>single</syllabic>
                    <text>t'ai</text>
                </lyric>
            </note>
            <note default-x="81">
                <pitch>
                    <step>E</step>
                    <octave>4</octave>
                </pitch>
                <duration>12</duration>
                <voice>1</voice>
                <type>quarter</type>
                <dot/>
                <stem default-y="-4">up</stem>
                <lyric default-y="-92" number="1">
                    <syllabic>end</syllabic>
                    <text>té</text>
                </lyric>
                <lyric default-y="-112" number="2">
                    <syllabic>single</syllabic>
                    <text>dit</text>
                </lyric>
            </note>
            <note default-x="166">
                <pitch>
                    <step>C</step>
                    <octave>4</octave>
                </pitch>
                <duration>4</duration>
                <voice>1</voice>
                <type>eighth</type>
                <stem default-y="-14">up</stem>
                <lyric default-y="-92" number="1">
                    <syllabic>single</syllabic>
                    <text>bien</text>
                </lyric>
                <lyric default-y="-112" number="2">
                    <syllabic>single</syllabic>
                    <text>je</text>
                </lyric>
            </note>
        </measure>
        <measure width="208" number="15">
            <harmony default-y="17">
                <root>
                    <root-step>E</root-step>
                </root>
                <kind halign="center" text="m">minor</kind>
            </harmony>
            <note default-x="17">
                <pitch>
                    <step>B</step>
                    <octave>3</octave>
                </pitch>
                <duration>8</duration>
                <voice>1</voice>
                <type>quarter</type>
                <stem default-y="-19">up</stem>
                <lyric default-y="-92" number="1">
                    <syllabic>begin</syllabic>
                    <text>sa</text>
                </lyric>
                <lyric default-y="-112" number="2">
                    <syllabic>begin</syllabic>
                    <text>t'ai</text>
                </lyric>
            </note>
            <note default-x="82">
                <pitch>
                    <step>E</step>
                    <octave>4</octave>
                </pitch>
                <duration>12</duration>
                <voice>1</voice>
                <type>quarter</type>
                <dot/>
                <stem default-y="-4">up</stem>
                <lyric default-y="-92" number="1">
                    <syllabic>end</syllabic>
                    <text>ge</text>
                </lyric>
                <lyric default-y="-112" number="2">
                    <syllabic>end</syllabic>
                    <text>me</text>
                </lyric>
            </note>
            <note default-x="166">
                <pitch>
                    <step>B</step>
                    <octave>3</octave>
                </pitch>
                <duration>4</duration>
                <voice>1</voice>
                <type>eighth</type>
                <stem default-y="-19">up</stem>
                <lyric default-y="-92" number="1">
                    <syllabic>begin</syllabic>
                    <text>té</text>
                </lyric>
                <lyric default-y="-112" number="2">
                    <syllabic>single</syllabic>
                    <text>dans</text>
                </lyric>
            </note>
        </measure>
        <measure width="252" number="16">
            <print new-system="yes">
                <system-layout>
                    <system-margins>
                        <left-margin>0</left-margin>
                        <right-margin>0</right-margin>
                    </system-margins>
                    <system-distance>125</system-distance>
                </system-layout>
            </print>
            <harmony default-y="17">
                <root>
                    <root-step>F</root-step>
                </root>
                <kind halign="center" text="">major</kind>
            </harmony>
            <note default-x="54">
                <pitch>
                    <step>A</step>
                    <octave>3</octave>
                </pitch>
                <duration>8</duration>
                <voice>1</voice>
                <type>quarter</type>
                <stem default-y="-19">up</stem>
                <lyric default-y="-92" number="1">
                    <syllabic>end</syllabic>
                    <text>moin</text>
                </lyric>
                <lyric default-y="-112" number="2">
                    <syllabic>single</syllabic>
                    <text>la</text>
                </lyric>
            </note>
            <note default-x="120">
                <pitch>
                    <step>C</step>
                    <octave>4</octave>
                </pitch>
                <duration>8</duration>
                <voice>1</voice>
                <type>quarter</type>
                <stem default-y="-14">up</stem>
                <lyric default-y="-92" number="1">
                    <syllabic>single</syllabic>
                    <text>d'un</text>
                </lyric>
                <lyric default-y="-112" number="2">
                    <syllabic>single</syllabic>
                    <text>paix</text>
                </lyric>
            </note>
            <note default-x="185">
                <pitch>
                    <step>F</step>
                    <octave>4</octave>
                </pitch>
                <duration>8</duration>
                <voice>1</voice>
                <type>quarter</type>
                <stem default-y="1">up</stem>
                <lyric default-y="-92" number="1">
                    <syllabic>begin</syllabic>
                    <text>bai</text>
                </lyric>
                <lyric default-y="-112" number="2">
                    <syllabic>single</syllabic>
                    <text>des</text>
                </lyric>
            </note>
        </measure>
        <measure width="197" number="17">
            <harmony default-y="17">
                <root>
                    <root-step>C</root-step>
                </root>
                <kind halign="center" text="">major</kind>
            </harmony>
            <note default-x="14">
                <pitch>
                    <step>E</step>
                    <octave>4</octave>
                </pitch>
                <duration>16</duration>
                <voice>1</voice>
                <type>half</type>
                <stem default-y="-4">up</stem>
                <lyric default-y="-92" number="1">
                    <syllabic>end</syllabic>
                    <text>ser</text>
                </lyric>
                <lyric default-y="-112" number="2">
                    <syllabic>single</syllabic>
                    <text>bois</text>
                </lyric>
            </note>
            <note default-x="116">
                <rest/>
                <duration>4</duration>
                <voice>1</voice>
                <type>eighth</type>
            </note>
            <note default-x="156">
                <pitch>
                    <step>A</step>
                    <octave>3</octave>
                </pitch>
                <duration>4</duration>
                <voice>1</voice>
                <type>eighth</type>
                <stem default-y="-19">up</stem>
                <lyric default-y="-92" number="1">
                    <syllabic>single</syllabic>
                    <text>Que</text>
                </lyric>
                <lyric default-y="-112" number="2">
                    <syllabic>single</syllabic>
                    <text>La</text>
                </lyric>
            </note>
        </measure>
        <measure width="205" number="18">
            <harmony default-y="17">
                <root>
                    <root-step>F</root-step>
                </root>
                <kind halign="center" text="">major</kind>
            </harmony>
            <note default-x="17">
                <pitch>
                    <step>A</step>
                    <octave>3</octave>
                </pitch>
                <duration>8</duration>
                <voice>1</voice>
                <type>quarter</type>
                <stem default-y="-19">up</stem>
                <lyric default-y="-92" number="1">
                    <syllabic>single</syllabic>
                    <text>sur</text>
                </lyric>
                <lyric default-y="-112" number="2">
                    <syllabic>single</syllabic>
                    <text>neige</text>
                </lyric>
            </note>
            <note default-x="81">
                <pitch>
                    <step>C</step>
                    <octave>4</octave>
                </pitch>
                <duration>12</duration>
                <voice>1</voice>
                <type>quarter</type>
                <dot/>
                <stem default-y="-14">up</stem>
                <lyric default-y="-92" number="1">
                    <syllabic>single</syllabic>
                    <text>ton</text>
                </lyric>
                <lyric default-y="-112" number="2">
                    <syllabic>single</syllabic>
                    <text>en</text>
                </lyric>
            </note>
            <note default-x="165">
                <pitch>
                    <step>F</step>
                    <octave>4</octave>
                </pitch>
                <duration>4</duration>
                <voice>1</voice>
                <type>eighth</type>
                <stem default-y="1">up</stem>
                <lyric default-y="-92" number="1">
                    <syllabic>begin</syllabic>
                    <text>vi</text>
                </lyric>
                <lyric default-y="-112" number="2">
                    <syllabic>begin</syllabic>
                    <text>po</text>
                </lyric>
            </note>
        </measure>
        <measure width="212" number="19">
            <harmony default-y="17">
                <root>
                    <root-step>C</root-step>
                </root>
                <kind halign="center" text="">major</kind>
            </harmony>
            <note default-x="14">
                <pitch>
                    <step>E</step>
                    <octave>4</octave>
                </pitch>
                <duration>4</duration>
                <voice>1</voice>
                <type>eighth</type>
                <stem default-y="-5">up</stem>
                <beam number="1">begin</beam>
                <lyric default-y="-92" number="1">
                    <syllabic>middle</syllabic>
                    <text>sa</text>
                </lyric>
                <lyric default-y="-112" number="2">
                    <syllabic>middle</syllabic>
                    <text>è</text>
                </lyric>
            </note>
            <note default-x="52">
                <pitch>
                    <step>D</step>
                    <octave>4</octave>
                </pitch>
                <duration>4</duration>
                <voice>1</voice>
                <type>eighth</type>
                <stem default-y="-7.5">up</stem>
                <beam number="1">end</beam>
                <lyric default-y="-112" number="2">
                    <syllabic>middle</syllabic>
                    <text>è</text>
                </lyric>
            </note>
            <note default-x="90">
                <pitch>
                    <step>C</step>
                    <octave>4</octave>
                </pitch>
                <duration>12</duration>
                <voice>1</voice>
                <type>quarter</type>
                <dot/>
                <stem default-y="-14">up</stem>
                <lyric default-y="-92" number="1">
                    <syllabic>end</syllabic>
                    <text>ge</text>
                </lyric>
                <lyric default-y="-112" number="2">
                    <syllabic>end</syllabic>
                    <text>me</text>
                </lyric>
            </note>
            <note default-x="172">
                <pitch>
                    <step>E</step>
                    <octave>4</octave>
                </pitch>
                <duration>4</duration>
                <voice>1</voice>
                <type>eighth</type>
                <stem default-y="-4">up</stem>
                <lyric default-y="-92" number="1">
                    <syllabic>single</syllabic>
                    <text>je</text>
                </lyric>
                <lyric default-y="-112" number="2">
                    <syllabic>begin</syllabic>
                    <text>fon</text>
                </lyric>
            </note>
        </measure>
        <measure width="203" number="20">
            <harmony default-y="17">
                <root>
                    <root-step>G</root-step>
                </root>
                <kind halign="center" text="7">dominant</kind>
            </harmony>
            <note default-x="13">
                <pitch>
                    <step>D</step>
                    <octave>4</octave>
                </pitch>
                <duration>8</duration>
                <voice>1</voice>
                <type>quarter</type>
                <stem default-y="-9">up</stem>
                <lyric default-y="-92" number="1">
                    <syllabic>begin</syllabic>
                    <text>t'a</text>
                </lyric>
                <lyric default-y="-112" number="2">
                    <syllabic>end</syllabic>
                    <text>dait</text>
                </lyric>
            </note>
            <note default-x="76">
                <pitch>
                    <step>A</step>
                    <octave>3</octave>
                </pitch>
                <duration>8</duration>
                <voice>1</voice>
                <type>quarter</type>
                <stem default-y="-19">up</stem>
                <lyric default-y="-92" number="1">
                    <syllabic>end</syllabic>
                    <text>vais</text>
                </lyric>
                <lyric default-y="-112" number="2">
                    <syllabic>single</syllabic>
                    <text>sous</text>
                </lyric>
            </note>
            <note default-x="139">
                <pitch>
                    <step>B</step>
                    <octave>3</octave>
                </pitch>
                <duration>8</duration>
                <voice>1</voice>
                <type>quarter</type>
                <stem default-y="-19">up</stem>
                <lyric default-y="-92" number="1">
                    <syllabic>begin</syllabic>
                    <text>vo</text>
                </lyric>
                <lyric default-y="-112" number="2">
                    <syllabic>single</syllabic>
                    <text>nos</text>
                </lyric>
            </note>
        </measure>
        <measure width="241" number="21">
            <print new-system="yes">
                <system-layout>
                    <system-margins>
                        <left-margin>0</left-margin>
                        <right-margin>0</right-margin>
                    </system-margins>
                    <system-distance>125</system-distance>
                </system-layout>
            </print>
            <harmony default-y="17">
                <root>
                    <root-step>C</root-step>
                </root>
                <kind halign="center" text="">major</kind>
            </harmony>
            <note default-x="54">
                <pitch>
                    <step>C</step>
                    <octave>4</octave>
                </pitch>
                <duration>16</duration>
                <voice>1</voice>
                <type>half</type>
                <stem default-y="-14.5">up</stem>
                <lyric default-y="-92" number="1">
                    <syllabic>end</syllabic>
                    <text>lé</text>
                </lyric>
                <lyric default-y="-112" number="2">
                    <syllabic>single</syllabic>
                    <text>pas</text>
                </lyric>
            </note>
            <note default-x="159">
                <rest/>
                <duration>4</duration>
                <voice>1</voice>
                <type>eighth</type>
            </note>
            <note default-x="199">
                <pitch>
                    <step>C</step>
                    <octave>4</octave>
                </pitch>
                <duration>4</duration>
                <voice>1</voice>
                <type>eighth</type>
                <stem default-y="-14.5">up</stem>
                <lyric default-y="-92" number="1">
                    <syllabic>single</syllabic>
                    <text>Les</text>
                </lyric>
                <lyric default-y="-112" number="2">
                    <syllabic>single</syllabic>
                    <text>Ce</text>
                </lyric>
            </note>
        </measure>
        <measure width="204" number="22">
            <harmony default-y="17">
                <root>
                    <root-step>F</root-step>
                </root>
                <kind halign="center" text="">major</kind>
            </harmony>
            <note default-x="14">
                <pitch>
                    <step>F</step>
                    <octave>4</octave>
                </pitch>
                <duration>8</duration>
                <voice>1</voice>
                <type>quarter</type>
                <stem default-y="1">up</stem>
                <lyric default-y="-92" number="1">
                    <syllabic>begin</syllabic>
                    <text>flo</text>
                </lyric>
                <lyric default-y="-112" number="2">
                    <syllabic>begin</syllabic>
                    <text>sen</text>
                </lyric>
            </note>
            <note default-x="78">
                <pitch>
                    <step>G</step>
                    <octave>4</octave>
                </pitch>
                <duration>12</duration>
                <voice>1</voice>
                <type>quarter</type>
                <dot/>
                <stem default-y="5.5">up</stem>
                <lyric default-y="-92" number="1">
                    <syllabic>end</syllabic>
                    <text>cons</text>
                </lyric>
                <lyric default-y="-112" number="2">
                    <syllabic>end</syllabic>
                    <text>tier</text>
                </lyric>
            </note>
            <note default-x="162">
                <pitch>
                    <step>F</step>
                    <octave>4</octave>
                </pitch>
                <duration>4</duration>
                <voice>1</voice>
                <type>eighth</type>
                <stem default-y="1">up</stem>
                <lyric default-y="-92" number="1">
                    <syllabic>single</syllabic>
                    <text>de</text>
                </lyric>
                <lyric default-y="-112" number="2">
                    <syllabic>single</syllabic>
                    <text>de</text>
                </lyric>
            </note>
        </measure>
        <measure width="231" number="23">
            <harmony default-y="17">
                <root>
                    <root-step>C</root-step>
                </root>
                <kind halign="center" text="">major</kind>
            </harmony>
            <note default-x="14">
                <pitch>
                    <step>E</step>
                    <octave>4</octave>
                </pitch>
                <duration>4</duration>
                <voice>1</voice>
                <type>eighth</type>
                <stem default-y="-5">up</stem>
                <beam number="1">begin</beam>
                <lyric default-y="-92" number="1">
                    <syllabic>begin</syllabic>
                    <text>nei</text>
                </lyric>
                <lyric default-y="-112" number="2">
                    <syllabic>begin</syllabic>
                    <text>nei</text>
                </lyric>
            </note>
            <note default-x="56">
                <pitch>
                    <step>D</step>
                    <octave>4</octave>
                </pitch>
                <duration>4</duration>
                <voice>1</voice>
                <type>eighth</type>
                <stem default-y="-7">up</stem>
                <beam number="1">end</beam>
                <lyric default-y="-112" number="2">
                    <syllabic>middle</syllabic>
                    <text>ei</text>
                </lyric>
            </note>
            <note default-x="98">
                <pitch>
                    <step>C</step>
                    <octave>4</octave>
                </pitch>
                <duration>12</duration>
                <voice>1</voice>
                <type>quarter</type>
                <dot/>
                <stem default-y="-14.5">up</stem>
                <lyric default-y="-92" number="1">
                    <syllabic>end</syllabic>
                    <text>ge</text>
                </lyric>
                <lyric default-y="-112" number="2">
                    <syllabic>end</syllabic>
                    <text>ge</text>
                </lyric>
            </note>
            <note default-x="187">
                <pitch>
                    <step>E</step>
                    <octave>4</octave>
                </pitch>
                <duration>4</duration>
                <voice>1</voice>
                <type>eighth</type>
                <stem default-y="-4">up</stem>
                <lyric default-y="-92" number="1">
                    <syllabic>begin</syllabic>
                    <text>cou</text>
                </lyric>
                <lyric default-y="-112" number="2">
                    <syllabic>single</syllabic>
                    <text>si</text>
                </lyric>
            </note>
        </measure>
        <measure width="202" number="24">
            <harmony default-y="17">
                <root>
                    <root-step>G</root-step>
                </root>
                <kind halign="center" text="">major</kind>
            </harmony>
            <note default-x="13">
                <pitch>
                    <step>D</step>
                    <octave>4</octave>
                </pitch>
                <duration>8</duration>
                <voice>1</voice>
                <type>quarter</type>
                <stem default-y="-9">up</stem>
                <lyric default-y="-92" number="1">
                    <syllabic>end</syllabic>
                    <text>vrant</text>
                </lyric>
                <lyric default-y="-112" number="2">
                    <syllabic>single</syllabic>
                    <text>pur</text>
                </lyric>
            </note>
            <note default-x="76">
                <pitch>
                    <step>D</step>
                    <octave>4</octave>
                </pitch>
                <duration>8</duration>
                <voice>1</voice>
                <type>quarter</type>
                <stem default-y="-9">up</stem>
                <lyric default-y="-92" number="1">
                    <syllabic>single</syllabic>
                    <text>tes</text>
                </lyric>
                <lyric default-y="-112" number="2">
                    <syllabic>single</syllabic>
                    <text>et</text>
                </lyric>
            </note>
            <note default-x="138">
                <pitch>
                    <step>C</step>
                    <octave>4</octave>
                </pitch>
                <duration>8</duration>
                <voice>1</voice>
                <type>quarter</type>
                <stem default-y="-14.5">up</stem>
                <lyric default-y="-92" number="1">
                    <syllabic>begin</syllabic>
                    <text>che</text>
                </lyric>
                <lyric default-y="-112" number="2">
                    <syllabic>single</syllabic>
                    <text>si</text>
                </lyric>
            </note>
        </measure>
        <measure width="191" number="25">
            <harmony default-y="17">
                <root>
                    <root-step>C</root-step>
                </root>
                <kind halign="center" text="">major</kind>
            </harmony>
            <note default-x="14">
                <pitch>
                    <step>E</step>
                    <octave>4</octave>
                </pitch>
                <duration>16</duration>
                <voice>1</voice>
                <type>half</type>
                <stem default-y="-4">up</stem>
                <lyric default-y="-92" number="1">
                    <syllabic>end</syllabic>
                    <text>veux</text>
                </lyric>
                <lyric default-y="-112" number="2">
                    <syllabic>single</syllabic>
                    <text>doux</text>
                </lyric>
            </note>
            <note default-x="113">
                <rest/>
                <duration>4</duration>
                <voice>1</voice>
                <type>eighth</type>
            </note>
            <note default-x="151">
                <pitch>
                    <step>E</step>
                    <octave>4</octave>
                </pitch>
                <duration>4</duration>
                <voice>1</voice>
                <type>eighth</type>
                <stem default-y="-4">up</stem>
                <lyric default-y="-92" number="1">
                    <syllabic>single</syllabic>
                    <text>Et</text>
                </lyric>
            </note>
        </measure>
        <measure width="235" number="26">
            <print new-system="yes">
                <system-layout>
                    <system-margins>
                        <left-margin>0</left-margin>
                        <right-margin>0</right-margin>
                    </system-margins>
                    <system-distance>124</system-distance>
                </system-layout>
            </print>
            <harmony default-y="17">
                <root>
                    <root-step>F</root-step>
                </root>
                <kind halign="center" text="">major</kind>
            </harmony>
            <note default-x="51">
                <pitch>
                    <step>F</step>
                    <octave>4</octave>
                </pitch>
                <duration>8</duration>
                <voice>1</voice>
                <type>quarter</type>
                <stem default-y="1">up</stem>
                <lyric default-y="-92" number="1">
                    <syllabic>single</syllabic>
                    <text>la</text>
                </lyric>
                <lyric default-y="-112" number="2">
                    <syllabic>begin</syllabic>
                    <text>De</text>
                </lyric>
            </note>
            <note default-x="113">
                <pitch>
                    <step>G</step>
                    <octave>4</octave>
                </pitch>
                <duration>12</duration>
                <voice>1</voice>
                <type>quarter</type>
                <dot/>
                <stem default-y="6">up</stem>
                <lyric default-y="-92" number="1">
                    <syllabic>begin</syllabic>
                    <text>lu</text>
                </lyric>
                <lyric default-y="-112" number="2">
                    <syllabic>end</syllabic>
                    <text>puis</text>
                </lyric>
            </note>
            <note default-x="195">
                <pitch>
                    <step>F</step>
                    <octave>4</octave>
                </pitch>
                <duration>4</duration>
                <voice>1</voice>
                <type>eighth</type>
                <stem default-y="1">up</stem>
                <lyric default-y="-92" number="1">
                    <syllabic>end</syllabic>
                    <text>ne</text>
                </lyric>
                <lyric default-y="-112" number="2">
                    <syllabic>begin</syllabic>
                    <text>pro</text>
                </lyric>
            </note>
        </measure>
        <measure width="230" number="27">
            <harmony default-y="17">
                <root>
                    <root-step>C</root-step>
                </root>
                <kind halign="center" text="">major</kind>
            </harmony>
            <note default-x="14">
                <pitch>
                    <step>E</step>
                    <octave>4</octave>
                </pitch>
                <duration>4</duration>
                <voice>1</voice>
                <type>eighth</type>
                <stem default-y="-5">up</stem>
                <beam number="1">begin</beam>
                <lyric default-y="-92" number="1">
                    <syllabic>begin</syllabic>
                    <text>clai</text>
                </lyric>
                <lyric default-y="-112" number="2">
                    <syllabic>middle</syllabic>
                    <text>tè</text>
                </lyric>
            </note>
            <note default-x="55">
                <pitch>
                    <step>D</step>
                    <octave>4</octave>
                </pitch>
                <duration>4</duration>
                <voice>1</voice>
                <type>eighth</type>
                <stem default-y="-7">up</stem>
                <beam number="1">end</beam>
                <lyric default-y="-112" number="2">
                    <syllabic>middle</syllabic>
                    <text>è</text>
                </lyric>
            </note>
            <note default-x="97">
                <pitch>
                    <step>C</step>
                    <octave>4</octave>
                </pitch>
                <duration>12</duration>
                <voice>1</voice>
                <type>quarter</type>
                <dot/>
                <stem default-y="-14">up</stem>
                <lyric default-y="-92" number="1">
                    <syllabic>end</syllabic>
                    <text>re</text>
                </lyric>
                <lyric default-y="-112" number="2">
                    <syllabic>end</syllabic>
                    <text>ge</text>
                </lyric>
            </note>
            <note default-x="186">
                <pitch>
                    <step>E</step>
                    <octave>4</octave>
                </pitch>
                <duration>4</duration>
                <voice>1</voice>
                <type>eighth</type>
                <stem default-y="-4">up</stem>
                <lyric default-y="-92" number="1">
                    <syllabic>single</syllabic>
                    <text>nous</text>
                </lyric>
                <lyric default-y="-112" number="2">
                    <syllabic>single</syllabic>
                    <text>notre</text>
                </lyric>
            </note>
        </measure>
        <measure width="224" number="28">
            <harmony default-y="17">
                <root>
                    <root-step>D</root-step>
                </root>
                <kind halign="center" text="m">minor</kind>
            </harmony>
            <note default-x="14">
                <pitch>
                    <step>D</step>
                    <octave>4</octave>
                </pitch>
                <duration>8</duration>
                <voice>1</voice>
                <type>quarter</type>
                <stem default-y="-9">up</stem>
                <lyric default-y="-92" number="1">
                    <syllabic>begin</syllabic>
                    <text>ren</text>
                </lyric>
                <lyric default-y="-112" number="2">
                    <syllabic>begin</syllabic>
                    <text>a</text>
                </lyric>
            </note>
            <note default-x="83">
                <pitch>
                    <step>D</step>
                    <octave>4</octave>
                </pitch>
                <duration>8</duration>
                <voice>1</voice>
                <type>quarter</type>
                <stem default-y="-9">up</stem>
                <lyric default-y="-92" number="1">
                    <syllabic>end</syllabic>
                    <text>daient</text>
                </lyric>
                <lyric default-y="-112" number="2">
                    <syllabic>end</syllabic>
                    <text>mour</text>
                </lyric>
            </note>
            <note default-x="153">
                <pitch>
                    <step>E</step>
                    <octave>4</octave>
                </pitch>
                <duration>8</duration>
                <voice>1</voice>
                <type>quarter</type>
                <stem default-y="-4">up</stem>
                <lyric default-y="-92" number="1">
                    <syllabic>begin</syllabic>
                    <text>heu</text>
                </lyric>
                <lyric default-y="-112" number="2">
                    <syllabic>begin</syllabic>
                    <text>ja</text>
                </lyric>
            </note>
        </measure>
        <measure width="185" number="29">
            <harmony default-y="17">
                <root>
                    <root-step>G</root-step>
                </root>
                <kind halign="center" text="7">dominant</kind>
            </harmony>
            <note default-x="13">
                <pitch>
                    <step>D</step>
                    <octave>4</octave>
                </pitch>
                <duration>16</duration>
                <voice>1</voice>
                <type>half</type>
                <stem default-y="-9">up</stem>
                <lyric default-y="-92" number="1">
                    <syllabic>end</syllabic>
                    <text>reux</text>
                </lyric>
                <lyric default-y="-112" number="2">
                    <syllabic>end</syllabic>
                    <text>loux</text>
                </lyric>
            </note>
            <note default-x="110">
                <rest/>
                <duration>4</duration>
                <voice>1</voice>
                <type>eighth</type>
            </note>
            <note default-x="147">
                <pitch>
                    <step>C</step>
                    <octave>4</octave>
                </pitch>
                <duration>4</duration>
                <voice>1</voice>
                <type>eighth</type>
                <stem default-y="-14">up</stem>
                <lyric default-y="-92" number="1">
                    <syllabic>single</syllabic>
                    <text>Je</text>
                </lyric>
                <lyric default-y="-112" number="2">
                    <syllabic>single</syllabic>
                    <text>Je</text>
                </lyric>
            </note>
        </measure>
        <measure width="195" number="30">
            <harmony default-y="17">
                <root>
                    <root-step>C</root-step>
                </root>
                <kind halign="center" text="">major</kind>
            </harmony>
            <note default-x="17">
                <pitch>
                    <step>C</step>
                    <octave>4</octave>
                </pitch>
                <duration>8</duration>
                <voice>1</voice>
                <type>quarter</type>
                <stem default-y="-14">up</stem>
                <lyric default-y="-92" number="1">
                    <syllabic>single</syllabic>
                    <text>t'ai</text>
                </lyric>
                <lyric default-y="-112" number="2">
                    <syllabic>single</syllabic>
                    <text>t'ai</text>
                </lyric>
            </note>
            <note default-x="77">
                <pitch>
                    <step>E</step>
                    <octave>4</octave>
                </pitch>
                <duration>12</duration>
                <voice>1</voice>
                <type>quarter</type>
                <dot/>
                <stem default-y="-4">up</stem>
                <lyric default-y="-92" number="1">
                    <syllabic>single</syllabic>
                    <text>dit</text>
                </lyric>
                <lyric default-y="-112" number="2">
                    <syllabic>single</syllabic>
                    <text>dit</text>
                </lyric>
            </note>
            <note default-x="156">
                <pitch>
                    <step>C</step>
                    <octave>4</octave>
                </pitch>
                <duration>4</duration>
                <voice>1</voice>
                <type>eighth</type>
                <stem default-y="-14">up</stem>
                <lyric default-y="-92" number="1">
                    <syllabic>single</syllabic>
                    <text>je</text>
                </lyric>
                <lyric default-y="-112" number="2">
                    <syllabic>single</syllabic>
                    <text>je</text>
                </lyric>
            </note>
        </measure>
        <measure width="249" number="31">
            <print new-system="yes">
                <system-layout>
                    <system-margins>
                        <left-margin>0</left-margin>
                        <right-margin>0</right-margin>
                    </system-margins>
                    <system-distance>124</system-distance>
                </system-layout>
            </print>
            <harmony default-y="17">
                <root>
                    <root-step>E</root-step>
                </root>
                <kind halign="center" text="m">minor</kind>
            </harmony>
            <note default-x="54">
                <pitch>
                    <step>B</step>
                    <octave>3</octave>
                </pitch>
                <duration>8</duration>
                <voice>1</voice>
                <type>quarter</type>
                <stem default-y="-19">up</stem>
                <lyric default-y="-92" number="1">
                    <syllabic>begin</syllabic>
                    <text>t'ai</text>
                </lyric>
                <lyric default-y="-112" number="2">
                    <syllabic>begin</syllabic>
                    <text>t'ai</text>
                </lyric>
            </note>
            <note default-x="120">
                <pitch>
                    <step>E</step>
                    <octave>4</octave>
                </pitch>
                <duration>12</duration>
                <voice>1</voice>
                <type>quarter</type>
                <dot/>
                <stem default-y="-4">up</stem>
                <lyric default-y="-92" number="1">
                    <syllabic>end</syllabic>
                    <text>me</text>
                </lyric>
                <lyric default-y="-112" number="2">
                    <syllabic>end</syllabic>
                    <text>me</text>
                </lyric>
            </note>
            <note default-x="206">
                <pitch>
                    <step>B</step>
                    <octave>3</octave>
                </pitch>
                <duration>4</duration>
                <voice>1</voice>
                <type>eighth</type>
                <stem default-y="-19">up</stem>
                <lyric default-y="-92" number="1">
                    <syllabic>single</syllabic>
                    <text>dans</text>
                </lyric>
                <lyric default-y="-112" number="2">
                    <syllabic>single</syllabic>
                    <text>dans</text>
                </lyric>
            </note>
        </measure>
        <measure width="203" number="32">
            <harmony default-y="17">
                <root>
                    <root-step>F</root-step>
                </root>
                <kind halign="center" text="">major</kind>
            </harmony>
            <note default-x="17">
                <pitch>
                    <step>A</step>
                    <octave>3</octave>
                </pitch>
                <duration>8</duration>
                <voice>1</voice>
                <type>quarter</type>
                <stem default-y="-19">up</stem>
                <lyric default-y="-92" number="1">
                    <syllabic>single</syllabic>
                    <text>la</text>
                </lyric>
                <lyric default-y="-112" number="2">
                    <syllabic>single</syllabic>
                    <text>la</text>
                </lyric>
            </note>
            <note default-x="78">
                <pitch>
                    <step>C</step>
                    <octave>4</octave>
                </pitch>
                <duration>8</duration>
                <voice>1</voice>
                <type>quarter</type>
                <stem default-y="-14">up</stem>
                <lyric default-y="-92" number="1">
                    <syllabic>single</syllabic>
                    <text>paix</text>
                </lyric>
                <lyric default-y="-112" number="2">
                    <syllabic>single</syllabic>
                    <text>paix</text>
                </lyric>
            </note>
            <note default-x="140">
                <pitch>
                    <step>F</step>
                    <octave>4</octave>
                </pitch>
                <duration>8</duration>
                <voice>1</voice>
                <type>quarter</type>
                <stem default-y="0.5">up</stem>
                <lyric default-y="-92" number="1">
                    <syllabic>single</syllabic>
                    <text>des</text>
                </lyric>
                <lyric default-y="-112" number="2">
                    <syllabic>single</syllabic>
                    <text>des</text>
                </lyric>
            </note>
        </measure>
        <measure width="190" number="33">
            <harmony default-y="17">
                <root>
                    <root-step>C</root-step>
                </root>
                <kind halign="center" text="">major</kind>
            </harmony>
            <note default-x="14">
                <pitch>
                    <step>E</step>
                    <octave>4</octave>
                </pitch>
                <duration>16</duration>
                <voice>1</voice>
                <type>half</type>
                <stem default-y="-4">up</stem>
                <lyric default-y="-92" number="1">
                    <syllabic>single</syllabic>
                    <text>bois</text>
                </lyric>
                <lyric default-y="-112" number="2">
                    <syllabic>single</syllabic>
                    <text>bois</text>
                </lyric>
            </note>
            <note default-x="113">
                <rest/>
                <duration>4</duration>
                <voice>1</voice>
                <type>eighth</type>
            </note>
            <note default-x="151">
                <pitch>
                    <step>A</step>
                    <octave>3</octave>
                </pitch>
                <duration>4</duration>
                <voice>1</voice>
                <type>eighth</type>
                <stem default-y="-19">up</stem>
                <lyric default-y="-92" number="1">
                    <syllabic>single</syllabic>
                    <text>La</text>
                </lyric>
                <lyric default-y="-112" number="2">
                    <syllabic>single</syllabic>
                    <text>La</text>
                </lyric>
            </note>
        </measure>
        <measure width="207" number="34">
            <harmony default-y="17">
                <root>
                    <root-step>F</root-step>
                </root>
                <kind halign="center" text="">major</kind>
            </harmony>
            <note default-x="17">
                <pitch>
                    <step>A</step>
                    <octave>3</octave>
                </pitch>
                <duration>8</duration>
                <voice>1</voice>
                <type>quarter</type>
                <stem default-y="-19">up</stem>
                <lyric default-y="-92" number="1">
                    <syllabic>single</syllabic>
                    <text>neige</text>
                </lyric>
                <lyric default-y="-112" number="2">
                    <syllabic>single</syllabic>
                    <text>neige</text>
                </lyric>
            </note>
            <note default-x="81">
                <pitch>
                    <step>C</step>
                    <octave>4</octave>
                </pitch>
                <duration>12</duration>
                <voice>1</voice>
                <type>quarter</type>
                <dot/>
                <stem default-y="-14">up</stem>
                <lyric default-y="-92" number="1">
                    <syllabic>single</syllabic>
                    <text>en</text>
                </lyric>
                <lyric default-y="-112" number="2">
                    <syllabic>single</syllabic>
                    <text>en</text>
                </lyric>
            </note>
            <note default-x="166">
                <pitch>
                    <step>F</step>
                    <octave>4</octave>
                </pitch>
                <duration>4</duration>
                <voice>1</voice>
                <type>eighth</type>
                <stem default-y="0.5">up</stem>
                <lyric default-y="-92" number="1">
                    <syllabic>begin</syllabic>
                    <text>po</text>
                </lyric>
                <lyric default-y="-112" number="2">
                    <syllabic>begin</syllabic>
                    <text>po</text>
                </lyric>
            </note>
        </measure>
        <measure width="220" number="35">
            <harmony default-y="17">
                <root>
                    <root-step>C</root-step>
                </root>
                <kind halign="center" text="">major</kind>
            </harmony>
            <note default-x="14">
                <pitch>
                    <step>E</step>
                    <octave>4</octave>
                </pitch>
                <duration>4</duration>
                <voice>1</voice>
                <type>eighth</type>
                <stem default-y="-5">up</stem>
                <beam number="1">begin</beam>
                <lyric default-y="-92" number="1">
                    <syllabic>middle</syllabic>
                    <text>è</text>
                </lyric>
                <lyric default-y="-112" number="2">
                    <syllabic>middle</syllabic>
                    <text>è</text>
                </lyric>
            </note>
            <note default-x="54">
                <pitch>
                    <step>D</step>
                    <octave>4</octave>
                </pitch>
                <duration>4</duration>
                <voice>1</voice>
                <type>eighth</type>
                <stem default-y="-7.5">up</stem>
                <beam number="1">end</beam>
                <lyric default-y="-112" number="2">
                    <syllabic>middle</syllabic>
                    <text>è</text>
                </lyric>
            </note>
            <note default-x="94">
                <pitch>
                    <step>C</step>
                    <octave>4</octave>
                </pitch>
                <duration>12</duration>
                <voice>1</voice>
                <type>quarter</type>
                <dot/>
                <stem default-y="-14">up</stem>
                <lyric default-y="-92" number="1">
                    <syllabic>end</syllabic>
                    <text>me</text>
                </lyric>
                <lyric default-y="-112" number="2">
                    <syllabic>end</syllabic>
                    <text>me</text>
                </lyric>
            </note>
            <note default-x="178">
                <pitch>
                    <step>E</step>
                    <octave>4</octave>
                </pitch>
                <duration>4</duration>
                <voice>1</voice>
                <type>eighth</type>
                <stem default-y="-4">up</stem>
                <lyric default-y="-92" number="1">
                    <syllabic>begin</syllabic>
                    <text>fon</text>
                </lyric>
                <lyric default-y="-112" number="2">
                    <syllabic>begin</syllabic>
                    <text>fon</text>
                </lyric>
            </note>
        </measure>
        <measure width="251" number="36">
            <print new-system="yes">
                <system-layout>
                    <system-margins>
                        <left-margin>0</left-margin>
                        <right-margin>0</right-margin>
                    </system-margins>
                    <system-distance>124</system-distance>
                </system-layout>
            </print>
            <harmony default-y="17">
                <root>
                    <root-step>G</root-step>
                </root>
                <kind halign="center" text="7">dominant</kind>
            </harmony>
            <note default-x="51">
                <pitch>
                    <step>D</step>
                    <octave>4</octave>
                </pitch>
                <duration>8</duration>
                <voice>1</voice>
                <type>quarter</type>
                <stem default-y="-9">up</stem>
                <lyric default-y="-92" number="1">
                    <syllabic>end</syllabic>
                    <text>dait</text>
                </lyric>
                <lyric default-y="-112" number="2">
                    <syllabic>end</syllabic>
                    <text>dait</text>
                </lyric>
            </note>
            <note default-x="118">
                <pitch>
                    <step>A</step>
                    <octave>3</octave>
                </pitch>
                <duration>8</duration>
                <voice>1</voice>
                <type>quarter</type>
                <stem default-y="-19">up</stem>
                <lyric default-y="-92" number="1">
                    <syllabic>single</syllabic>
                    <text>sous</text>
                </lyric>
                <lyric default-y="-112" number="2">
                    <syllabic>single</syllabic>
                    <text>sous</text>
                </lyric>
            </note>
            <note default-x="183">
                <pitch>
                    <step>B</step>
                    <octave>3</octave>
                </pitch>
                <duration>8</duration>
                <voice>1</voice>
                <type>quarter</type>
                <stem default-y="-19">up</stem>
                <lyric default-y="-92" number="1">
                    <syllabic>single</syllabic>
                    <text>nos</text>
                </lyric>
                <lyric default-y="-112" number="2">
                    <syllabic>single</syllabic>
                    <text>nos</text>
                </lyric>
            </note>
        </measure>
        <measure width="218" number="37">
            <harmony default-y="17">
                <root>
                    <root-step>C</root-step>
                </root>
                <kind halign="center" text="">major</kind>
            </harmony>
            <note default-x="17">
                <pitch>
                    <step>C</step>
                    <octave>4</octave>
                </pitch>
                <duration>16</duration>
                <voice>1</voice>
                <type>half</type>
                <stem default-y="-14">up</stem>
                <lyric default-y="-92" number="1">
                    <syllabic>single</syllabic>
                    <text>pas</text>
                </lyric>
                <lyric default-y="-112" number="2">
                    <syllabic>single</syllabic>
                    <text>pas</text>
                </lyric>
            </note>
            <note default-x="119">
                <rest/>
                <duration>4</duration>
                <voice>1</voice>
                <type>eighth</type>
            </note>
            <note default-x="158">
                <pitch>
                    <step>C</step>
                    <octave>4</octave>
                </pitch>
                <duration>4</duration>
                <voice>1</voice>
                <type>eighth</type>
                <stem default-y="-14">up</stem>
            </note>
            <barline location="right">
                <bar-style>light-heavy</bar-style>
                <repeat direction="backward"/>
            </barline>
        </measure>
        <measure width="196" number="38">
            <direction placement="below">
                <direction-type>
                    <words font-style="italic" relative-x="-67" default-y="-70" valign="top">Bouche fermée</words>
                </direction-type>
            </direction>
            <note default-x="12">
                <pitch>
                    <step>F</step>
                    <octave>4</octave>
                </pitch>
                <duration>8</duration>
                <voice>1</voice>
                <type>quarter</type>
                <stem default-y="1">up</stem>
            </note>
            <note default-x="74">
                <pitch>
                    <step>G</step>
                    <octave>4</octave>
                </pitch>
                <duration>12</duration>
                <voice>1</voice>
                <type>quarter</type>
                <dot/>
                <stem default-y="6">up</stem>
            </note>
            <note default-x="156">
                <pitch>
                    <step>F</step>
                    <octave>4</octave>
                </pitch>
                <duration>4</duration>
                <voice>1</voice>
                <type>eighth</type>
                <stem default-y="1">up</stem>
            </note>
        </measure>
        <measure width="211" number="39">
            <note default-x="13">
                <pitch>
                    <step>E</step>
                    <octave>4</octave>
                </pitch>
                <duration>4</duration>
                <voice>1</voice>
                <type>eighth</type>
                <stem default-y="-5">up</stem>
                <beam number="1">begin</beam>
            </note>
            <note default-x="52">
                <pitch>
                    <step>D</step>
                    <octave>4</octave>
                </pitch>
                <duration>4</duration>
                <voice>1</voice>
                <type>eighth</type>
                <stem default-y="-7">up</stem>
                <beam number="1">end</beam>
            </note>
            <note default-x="90">
                <pitch>
                    <step>C</step>
                    <octave>4</octave>
                </pitch>
                <duration>12</duration>
                <voice>1</voice>
                <type>quarter</type>
                <dot/>
                <stem default-y="-14">up</stem>
            </note>
            <note default-x="171">
                <pitch>
                    <step>E</step>
                    <octave>4</octave>
                </pitch>
                <duration>4</duration>
                <voice>1</voice>
                <type>eighth</type>
                <stem default-y="-4">up</stem>
            </note>
        </measure>
        <measure width="193" number="40">
            <note default-x="14">
                <pitch>
                    <step>D</step>
                    <octave>4</octave>
                </pitch>
                <duration>8</duration>
                <voice>1</voice>
                <type>quarter</type>
                <stem default-y="-9">up</stem>
            </note>
            <note default-x="73">
                <pitch>
                    <step>D</step>
                    <octave>4</octave>
                </pitch>
                <duration>8</duration>
                <voice>1</voice>
                <type>quarter</type>
                <stem default-y="-9">up</stem>
            </note>
            <note default-x="132">
                <pitch>
                    <step>C</step>
                    <octave>4</octave>
                </pitch>
                <duration>8</duration>
                <voice>1</voice>
                <type>quarter</type>
                <stem default-y="-14">up</stem>
            </note>
        </measure>
        <measure width="240" number="41">
            <print new-system="yes">
                <system-layout>
                    <system-distance>123</system-distance>
                </system-layout>
            </print>
            <note default-x="51">
                <pitch>
                    <step>E</step>
                    <octave>4</octave>
                </pitch>
                <duration>16</duration>
                <voice>1</voice>
                <type>half</type>
                <stem default-y="-4">up</stem>
            </note>
            <note default-x="158">
                <rest/>
                <duration>4</duration>
                <voice>1</voice>
                <type>eighth</type>
            </note>
            <note default-x="198">
                <pitch>
                    <step>E</step>
                    <octave>4</octave>
                </pitch>
                <duration>4</duration>
                <voice>1</voice>
                <type>eighth</type>
                <stem default-y="-4">up</stem>
                <lyric relative-x="-2" default-y="-74" number="1">
                    <syllabic>single</syllabic>
                    <text>Je</text>
                </lyric>
            </note>
        </measure>
        <measure width="208" number="42">
            <note default-x="13">
                <pitch>
                    <step>F</step>
                    <octave>4</octave>
                </pitch>
                <duration>8</duration>
                <voice>1</voice>
                <type>quarter</type>
                <stem default-y="1">up</stem>
                <lyric relative-x="-2" default-y="-74" number="1">
                    <syllabic>single</syllabic>
                    <text>t'ai</text>
                </lyric>
            </note>
            <note default-x="79">
                <pitch>
                    <step>G</step>
                    <octave>4</octave>
                </pitch>
                <duration>12</duration>
                <voice>1</voice>
                <type>quarter</type>
                <dot/>
                <stem default-y="6">up</stem>
                <lyric relative-x="-2" default-y="-74" number="1">
                    <syllabic>single</syllabic>
                    <text>dit</text>
                </lyric>
            </note>
            <note default-x="165">
                <pitch>
                    <step>A</step>
                    <octave>4</octave>
                </pitch>
                <duration>4</duration>
                <voice>1</voice>
                <type>eighth</type>
                <stem default-y="11">up</stem>
                <lyric relative-x="-2" default-y="-74" number="1">
                    <syllabic>single</syllabic>
                    <text>je</text>
                </lyric>
            </note>
        </measure>
        <measure width="230" number="43">
            <note default-x="13">
                <pitch>
                    <step>E</step>
                    <octave>4</octave>
                </pitch>
                <duration>4</duration>
                <voice>1</voice>
                <type>eighth</type>
                <stem default-y="-5">up</stem>
                <beam number="1">begin</beam>
                <lyric relative-x="-2" default-y="-74" number="1">
                    <syllabic>begin</syllabic>
                    <text>t'ai</text>
                </lyric>
            </note>
            <note default-x="55">
                <pitch>
                    <step>D</step>
                    <octave>4</octave>
                </pitch>
                <duration>4</duration>
                <voice>1</voice>
                <type>eighth</type>
                <stem default-y="-7">up</stem>
                <beam number="1">end</beam>
            </note>
            <note default-x="97">
                <pitch>
                    <step>C</step>
                    <octave>4</octave>
                </pitch>
                <duration>12</duration>
                <voice>1</voice>
                <type>quarter</type>
                <dot/>
                <stem default-y="-14">up</stem>
                <lyric relative-x="-2" default-y="-74" number="1">
                    <syllabic>end</syllabic>
                    <text>me</text>
                </lyric>
            </note>
            <note default-x="186">
                <pitch>
                    <step>E</step>
                    <octave>4</octave>
                </pitch>
                <duration>4</duration>
                <voice>1</voice>
                <type>eighth</type>
                <stem default-y="-4">up</stem>
            </note>
        </measure>
        <measure width="202" number="44">
            <note default-x="13">
                <pitch>
                    <step>D</step>
                    <octave>4</octave>
                </pitch>
                <duration>8</duration>
                <voice>1</voice>
                <type>quarter</type>
                <stem default-y="-9">up</stem>
            </note>
            <note default-x="76">
                <pitch>
                    <step>A</step>
                    <octave>3</octave>
                </pitch>
                <duration>8</duration>
                <voice>1</voice>
                <type>quarter</type>
                <stem default-y="-19">up</stem>
            </note>
            <note default-x="139">
                <pitch>
                    <step>B</step>
                    <octave>3</octave>
                </pitch>
                <duration>8</duration>
                <voice>1</voice>
                <type>quarter</type>
                <stem default-y="-19">up</stem>
            </note>
        </measure>
        <measure width="187" number="45">
            <note default-x="17">
                <pitch>
                    <step>C</step>
                    <octave>4</octave>
                </pitch>
                <duration>16</duration>
                <voice>1</voice>
                <type>half</type>
                <stem default-y="-14">up</stem>
            </note>
            <note default-x="116">
                <rest/>
                <duration>8</duration>
                <voice>1</voice>
                <type>quarter</type>
                <notations>
                    <fermata default-y="5" default-x="-6" type="upright"></fermata>
                </notations>
            </note>
            <barline location="right">
                <bar-style>light-heavy</bar-style>
            </barline>
        </measure>
    </part>
</score-partwise>
