<?xml version="1.0" encoding="UTF-8"?>
<!DOCTYPE score-partwise PUBLIC "-//Recordare//DTD MusicXML 2.0 Partwise//EN" "http://www.musicxml.org/dtds/partwise.dtd">
<score-partwise version="2.0">
    <work>
        <work-number></work-number>
        <work-title></work-title>
    </work>
    <movement-number></movement-number>
    <movement-title>Mr. Sun</movement-title>
    <identification>
        <creator type="composer">Barney</creator>
        <creator type="poet"></creator>
        <rights>All Rights Reserved</rights>
        <encoding>
            <software>Finale 2011 for Mac</software>
            <software>Dolet 6.2 for Finale</software>
            <encoding-date>2013-03-20</encoding-date>
            <supports value="yes" type="yes" element="print" attribute="new-system"/>
            <supports value="yes" type="yes" element="print" attribute="new-page"/>
            <software>ProxyMusic 2.0 c</software>
        </encoding>
        <source>http://wikifonia.org/node/21429/revisions/28281/view</source>
    </identification>
    <defaults>
        <scaling>
            <millimeters>6.0113</millimeters>
            <tenths>40</tenths>
        </scaling>
        <page-layout>
            <page-height>1859</page-height>
            <page-width>1437</page-width>
            <page-margins type="both">
                <left-margin>85</left-margin>
                <right-margin>85</right-margin>
                <top-margin>85</top-margin>
                <bottom-margin>85</bottom-margin>
            </page-margins>
        </page-layout>
        <system-layout>
            <system-margins>
                <left-margin>0</left-margin>
                <right-margin>0</right-margin>
            </system-margins>
            <system-distance>159</system-distance>
            <top-system-distance>115</top-system-distance>
        </system-layout>
        <appearance>
            <line-width type="stem">0.7487</line-width>
            <line-width type="beam">5</line-width>
            <line-width type="staff">0.7487</line-width>
            <line-width type="light barline">0.7487</line-width>
            <line-width type="heavy barline">5</line-width>
            <line-width type="leger">0.7487</line-width>
            <line-width type="ending">1.4583</line-width>
            <line-width type="wedge">1.4583</line-width>
            <line-width type="enclosure">0.7487</line-width>
            <line-width type="tuplet bracket">0.7487</line-width>
            <note-size type="grace">60</note-size>
            <note-size type="cue">60</note-size>
        </appearance>
        <music-font font-size="17" font-family="Maestro,engraved"/>
        <word-font font-size="8.5" font-family="Times New Roman"/>
        <lyric-font font-size="8.5" font-family="Times New Roman"/>
    </defaults>
    <credit page="1">
        <credit-words font-weight="bold" font-size="24" default-y="1775" default-x="718" justify="center" valign="top">Mr. Sun</credit-words>
    </credit>
    <credit page="1">
        <credit-words font-size="12" default-y="1715" default-x="1352" justify="right" valign="top">Children's Song</credit-words>
    </credit>
    <part-list>
        <score-part id="P1">
            <part-name print-object="no">Flute</part-name>
            <part-abbreviation print-object="no">Flu</part-abbreviation>
            <score-instrument id="P1-I1">
                <instrument-name>Flute</instrument-name>
            </score-instrument>
            <midi-instrument id="P1-I1">
                <midi-channel>1</midi-channel>
                <midi-program>74</midi-program>
                <volume>78</volume>
                <pan>0</pan>
            </midi-instrument>
        </score-part>
    </part-list>
    <part id="P1">
        <measure width="402" number="0" implicit="yes">
            <print>
                <system-layout>
                    <top-system-distance>180</top-system-distance>
                </system-layout>
                <measure-numbering>system</measure-numbering>
            </print>
            <attributes>
                <divisions>4</divisions>
                <key>
                    <fifths>1</fifths>
                    <mode>major</mode>
                </key>
                <time>
                    <beats>4</beats>
                    <beat-type>4</beat-type>
                </time>
                <clef>
                    <sign>G</sign>
                    <line>2</line>
                </clef>
                <staff-details>
                    <staff-size>108</staff-size>
                </staff-details>
            </attributes>
            <sound tempo="120"/>
            <forward>
                <duration>1</duration>
                <voice>1</voice>
            </forward>
            <note default-x="170">
                <pitch>
                    <step>D</step>
                    <octave>4</octave>
                </pitch>
                <duration>1</duration>
                <voice>1</voice>
                <type>16th</type>
                <stem default-y="-10">up</stem>
                <lyric default-y="-86" number="1">
                    <syllabic>single</syllabic>
                    <text font-size="9.2">Oh</text>
                </lyric>
            </note>
            <note default-x="225">
                <pitch>
                    <step>E</step>
                    <octave>4</octave>
                </pitch>
                <duration>3</duration>
                <voice>1</voice>
                <type>eighth</type>
                <dot/>
                <stem default-y="-5.5">up</stem>
                <beam number="1">begin</beam>
                <lyric default-y="-86" number="1">
                    <syllabic>begin</syllabic>
                    <text font-size="9.2">Mis</text>
                </lyric>
            </note>
            <note default-x="345">
                <pitch>
                    <step>F</step>
                    <alter>1</alter>
                    <octave>4</octave>
                </pitch>
                <duration>1</duration>
                <voice>1</voice>
                <type>16th</type>
                <stem default-y="0.5">up</stem>
                <beam number="1">end</beam>
                <beam number="2">backward hook</beam>
                <lyric default-y="-86" number="1">
                    <syllabic>end</syllabic>
                    <text font-size="9.2">ter</text>
                </lyric>
            </note>
        </measure>
        <measure width="348" number="1">
            <print new-system="no"/>
            <barline location="left">
                <bar-style>heavy-light</bar-style>
                <repeat direction="forward"/>
            </barline>
            <harmony default-y="32">
                <root>
                    <root-step>G</root-step>
                </root>
                <kind halign="center" text="">major</kind>
            </harmony>
            <note default-x="33">
                <pitch>
                    <step>G</step>
                    <octave>4</octave>
                </pitch>
                <duration>4</duration>
                <voice>1</voice>
                <type>quarter</type>
                <stem default-y="6">up</stem>
                <lyric default-y="-86" number="1">
                    <syllabic>single</syllabic>
                    <text font-size="9.2">Sun,</text>
                </lyric>
            </note>
            <note default-x="112">
                <rest/>
                <duration>4</duration>
                <voice>1</voice>
                <type>quarter</type>
            </note>
            <note default-x="190">
                <pitch>
                    <step>B</step>
                    <octave>4</octave>
                </pitch>
                <duration>4</duration>
                <voice>1</voice>
                <type>quarter</type>
                <stem default-y="-59.5">down</stem>
                <lyric default-y="-86" number="1">
                    <syllabic>single</syllabic>
                    <text font-size="9.2">Sun</text>
                </lyric>
            </note>
            <note default-x="269">
                <rest/>
                <duration>4</duration>
                <voice>1</voice>
                <type>quarter</type>
            </note>
        </measure>
        <measure width="518" number="2">
            <print new-system="no"/>
            <harmony default-y="32">
                <root>
                    <root-step>A</root-step>
                </root>
                <kind halign="center" text="7">dominant</kind>
            </harmony>
            <note default-x="14">
                <pitch>
                    <step>A</step>
                    <octave>4</octave>
                </pitch>
                <duration>3</duration>
                <voice>1</voice>
                <type>eighth</type>
                <dot/>
                <stem default-y="11">up</stem>
                <beam number="1">begin</beam>
                <lyric default-y="-86" number="1">
                    <syllabic>begin</syllabic>
                    <text font-size="9.2">Mis</text>
                </lyric>
            </note>
            <note default-x="107">
                <pitch>
                    <step>B</step>
                    <octave>4</octave>
                </pitch>
                <duration>1</duration>
                <voice>1</voice>
                <type>16th</type>
                <stem default-y="16">up</stem>
                <beam number="1">end</beam>
                <beam number="2">backward hook</beam>
                <lyric default-y="-86" number="1">
                    <syllabic>end</syllabic>
                    <text font-size="9.2">ter</text>
                </lyric>
            </note>
            <note default-x="151">
                <pitch>
                    <step>A</step>
                    <octave>4</octave>
                </pitch>
                <duration>3</duration>
                <voice>1</voice>
                <type>eighth</type>
                <dot/>
                <stem default-y="11">up</stem>
                <beam number="1">begin</beam>
                <lyric default-y="-86" number="1">
                    <syllabic>begin</syllabic>
                    <text font-size="9.2">Gold</text>
                </lyric>
            </note>
            <note default-x="245">
                <pitch>
                    <step>G</step>
                    <octave>4</octave>
                </pitch>
                <duration>1</duration>
                <voice>1</voice>
                <type>16th</type>
                <stem default-y="6">up</stem>
                <beam number="1">end</beam>
                <beam number="2">backward hook</beam>
                <lyric default-y="-86" number="1">
                    <syllabic>end</syllabic>
                    <text font-size="9.2">en</text>
                </lyric>
            </note>
            <note default-x="289">
                <pitch>
                    <step>E</step>
                    <octave>4</octave>
                </pitch>
                <duration>4</duration>
                <voice>1</voice>
                <type>quarter</type>
                <stem default-y="-5">up</stem>
                <lyric default-y="-86" number="1">
                    <syllabic>single</syllabic>
                    <text font-size="9.2">Sun,</text>
                </lyric>
            </note>
            <note default-x="403">
                <rest/>
                <duration>4</duration>
                <voice>1</voice>
                <type>quarter</type>
            </note>
        </measure>
        <measure width="527" number="3">
            <print new-system="yes">
                <system-layout>
                    <system-distance>156</system-distance>
                </system-layout>
            </print>
            <harmony relative-x="12" default-y="32">
                <root>
                    <root-step>D</root-step>
                </root>
                <kind halign="center" text="7">dominant</kind>
            </harmony>
            <note default-x="82">
                <pitch>
                    <step>B</step>
                    <octave>4</octave>
                </pitch>
                <duration>4</duration>
                <voice>1</voice>
                <type>quarter</type>
                <stem default-y="-59.5">down</stem>
                <lyric relative-x="5" default-y="-86" number="1">
                    <syllabic>single</syllabic>
                    <text font-size="9.2">please</text>
                </lyric>
            </note>
            <note default-x="194">
                <pitch>
                    <step>B</step>
                    <octave>4</octave>
                </pitch>
                <duration>4</duration>
                <voice>1</voice>
                <type>quarter</type>
                <stem default-y="-59.5">down</stem>
                <notations>
                    <articulations>
                        <staccato default-y="-70" default-x="-17" placement="below"/>
                    </articulations>
                </notations>
                <lyric default-y="-86" number="1">
                    <syllabic>single</syllabic>
                    <text font-size="9.2">shine</text>
                </lyric>
            </note>
            <note default-x="308">
                <pitch>
                    <step>B</step>
                    <octave>4</octave>
                </pitch>
                <duration>2</duration>
                <voice>1</voice>
                <type>eighth</type>
                <stem default-y="-59.5">down</stem>
                <lyric default-y="-86" number="1">
                    <syllabic>single</syllabic>
                    <text font-size="9.2">down</text>
                </lyric>
            </note>
            <note default-x="378">
                <pitch>
                    <step>A</step>
                    <octave>4</octave>
                </pitch>
                <duration>6</duration>
                <voice>1</voice>
                <type>quarter</type>
                <dot/>
                <stem default-y="11.5">up</stem>
                <lyric default-y="-86" number="1">
                    <syllabic>single</syllabic>
                    <text font-size="9.2">on</text>
                </lyric>
            </note>
        </measure>
        <measure width="429" number="4">
            <print new-system="no"/>
            <note default-x="14">
                <pitch>
                    <step>G</step>
                    <octave>4</octave>
                </pitch>
                <duration>8</duration>
                <voice>1</voice>
                <type>half</type>
                <stem default-y="6">up</stem>
                <lyric default-y="-86" number="1">
                    <syllabic>single</syllabic>
                    <text font-size="9.2">me.</text>
                </lyric>
            </note>
            <note default-x="178">
                <rest/>
                <duration>3</duration>
                <voice>1</voice>
                <type>eighth</type>
                <dot/>
            </note>
            <note default-x="263">
                <pitch>
                    <step>D</step>
                    <octave>4</octave>
                </pitch>
                <duration>1</duration>
                <voice>1</voice>
                <type>16th</type>
                <stem default-y="-10">up</stem>
                <lyric default-y="-86" number="1">
                    <syllabic>single</syllabic>
                    <text font-size="9.2">Oh</text>
                </lyric>
            </note>
            <note default-x="303">
                <pitch>
                    <step>E</step>
                    <octave>4</octave>
                </pitch>
                <duration>3</duration>
                <voice>1</voice>
                <type>eighth</type>
                <dot/>
                <stem default-y="-5.5">up</stem>
                <beam number="1">begin</beam>
                <lyric default-y="-86" number="1">
                    <syllabic>begin</syllabic>
                    <text font-size="9.2">Mis</text>
                </lyric>
            </note>
            <note default-x="388">
                <pitch>
                    <step>F</step>
                    <alter>1</alter>
                    <octave>4</octave>
                </pitch>
                <duration>1</duration>
                <voice>1</voice>
                <type>16th</type>
                <stem default-y="0">up</stem>
                <beam number="1">end</beam>
                <beam number="2">backward hook</beam>
                <lyric default-y="-86" number="1">
                    <syllabic>end</syllabic>
                    <text font-size="9.2">ter</text>
                </lyric>
            </note>
        </measure>
        <measure width="311" number="5">
            <print new-system="no"/>
            <note default-x="14">
                <pitch>
                    <step>G</step>
                    <octave>4</octave>
                </pitch>
                <duration>4</duration>
                <voice>1</voice>
                <type>quarter</type>
                <stem default-y="6">up</stem>
                <lyric default-y="-86" number="1">
                    <syllabic>single</syllabic>
                    <text font-size="9.2">Sun,</text>
                </lyric>
            </note>
            <note default-x="88">
                <rest/>
                <duration>4</duration>
                <voice>1</voice>
                <type>quarter</type>
            </note>
            <note default-x="162">
                <pitch>
                    <step>B</step>
                    <octave>4</octave>
                </pitch>
                <duration>4</duration>
                <voice>1</voice>
                <type>quarter</type>
                <stem default-y="-59.5">down</stem>
                <lyric default-y="-86" number="1">
                    <syllabic>single</syllabic>
                    <text font-size="9.2">Sun,</text>
                </lyric>
            </note>
            <note default-x="237">
                <rest/>
                <duration>4</duration>
                <voice>1</voice>
                <type>quarter</type>
            </note>
        </measure>
        <measure width="580" number="6">
            <print new-system="yes">
                <system-layout>
                    <system-distance>156</system-distance>
                </system-layout>
            </print>
            <attributes>
                <staff-details>
                    <staff-size>113</staff-size>
                </staff-details>
            </attributes>
            <harmony default-y="32">
                <root>
                    <root-step>A</root-step>
                </root>
                <kind halign="center" text="7">dominant</kind>
            </harmony>
            <note default-x="83">
                <pitch>
                    <step>A</step>
                    <octave>4</octave>
                </pitch>
                <duration>3</duration>
                <voice>1</voice>
                <type>eighth</type>
                <dot/>
                <stem default-y="11.5">up</stem>
                <beam number="1">begin</beam>
                <lyric default-y="-90" number="1">
                    <syllabic>begin</syllabic>
                    <text font-size="9.6">Mis</text>
                </lyric>
            </note>
            <note default-x="175">
                <pitch>
                    <step>B</step>
                    <octave>4</octave>
                </pitch>
                <duration>1</duration>
                <voice>1</voice>
                <type>16th</type>
                <stem default-y="17">up</stem>
                <beam number="1">end</beam>
                <beam number="2">backward hook</beam>
                <lyric default-y="-90" number="1">
                    <syllabic>end</syllabic>
                    <text font-size="9.6">ter</text>
                </lyric>
            </note>
            <note default-x="219">
                <pitch>
                    <step>A</step>
                    <octave>4</octave>
                </pitch>
                <duration>3</duration>
                <voice>1</voice>
                <type>eighth</type>
                <dot/>
                <stem default-y="11.5">up</stem>
                <beam number="1">begin</beam>
                <lyric default-y="-90" number="1">
                    <syllabic>begin</syllabic>
                    <text font-size="9.6">Gold</text>
                </lyric>
            </note>
            <note default-x="312">
                <pitch>
                    <step>G</step>
                    <octave>4</octave>
                </pitch>
                <duration>1</duration>
                <voice>1</voice>
                <type>16th</type>
                <stem default-y="6">up</stem>
                <beam number="1">end</beam>
                <beam number="2">backward hook</beam>
                <lyric default-y="-90" number="1">
                    <syllabic>end</syllabic>
                    <text font-size="9.6">en</text>
                </lyric>
            </note>
            <note default-x="355">
                <pitch>
                    <step>E</step>
                    <octave>4</octave>
                </pitch>
                <duration>4</duration>
                <voice>1</voice>
                <type>quarter</type>
                <stem default-y="-5">up</stem>
                <lyric default-y="-90" number="1">
                    <syllabic>single</syllabic>
                    <text font-size="9.6">Sun,</text>
                </lyric>
            </note>
            <note default-x="468">
                <rest/>
                <duration>4</duration>
                <voice>1</voice>
                <type>quarter</type>
            </note>
        </measure>
        <measure width="433" number="7">
            <print new-system="no"/>
            <note default-x="13">
                <pitch>
                    <step>A</step>
                    <octave>4</octave>
                </pitch>
                <duration>2</duration>
                <voice>1</voice>
                <type>eighth</type>
                <stem default-y="11.5">up</stem>
                <lyric default-y="-90" number="1">
                    <syllabic>begin</syllabic>
                    <text font-size="9.6">hid</text>
                </lyric>
            </note>
            <note default-x="75">
                <pitch>
                    <step>A</step>
                    <octave>4</octave>
                </pitch>
                <duration>4</duration>
                <voice>1</voice>
                <type>quarter</type>
                <stem default-y="11.5">up</stem>
                <lyric default-y="-90" number="1">
                    <syllabic>end</syllabic>
                    <text font-size="9.6">ing</text>
                </lyric>
            </note>
            <note default-x="174">
                <pitch>
                    <step>A</step>
                    <octave>4</octave>
                </pitch>
                <duration>2</duration>
                <voice>1</voice>
                <type>eighth</type>
                <stem default-y="11.5">up</stem>
                <lyric default-y="-90" number="1">
                    <syllabic>single</syllabic>
                    <text font-size="9.6">be–</text>
                </lyric>
            </note>
            <note default-x="235">
                <pitch>
                    <step>A</step>
                    <octave>4</octave>
                </pitch>
                <duration>4</duration>
                <voice>1</voice>
                <type>quarter</type>
                <stem default-y="11.5">up</stem>
                <lyric default-y="-90" number="1">
                    <syllabic>single</syllabic>
                    <text font-size="9.6">hind</text>
                </lyric>
            </note>
            <note default-x="333">
                <pitch>
                    <step>B</step>
                    <octave>4</octave>
                </pitch>
                <duration>4</duration>
                <voice>1</voice>
                <type>quarter</type>
                <stem default-y="-62">down</stem>
                <lyric default-y="-90" number="1">
                    <syllabic>single</syllabic>
                    <text font-size="9.6">a</text>
                </lyric>
            </note>
        </measure>
        <measure width="255" number="8">
            <print new-system="no"/>
            <note default-x="14">
                <pitch>
                    <step>A</step>
                    <octave>4</octave>
                </pitch>
                <duration>12</duration>
                <voice>1</voice>
                <type>half</type>
                <dot/>
                <stem default-y="11.5">up</stem>
                <lyric default-y="-90" number="1">
                    <syllabic>single</syllabic>
                    <text font-size="9.6">tree.</text>
                </lyric>
            </note>
            <note default-x="177">
                <rest/>
                <duration>4</duration>
                <voice>1</voice>
                <type>quarter</type>
            </note>
        </measure>
        <measure width="529" number="9">
            <print new-system="yes">
                <system-layout>
                    <system-distance>154</system-distance>
                </system-layout>
            </print>
            <attributes>
                <staff-details>
                    <staff-size>108</staff-size>
                </staff-details>
            </attributes>
            <harmony default-y="32">
                <root>
                    <root-step>G</root-step>
                </root>
                <kind halign="center" text="">major</kind>
            </harmony>
            <note default-x="82">
                <pitch>
                    <step>B</step>
                    <octave>4</octave>
                </pitch>
                <duration>4</duration>
                <voice>1</voice>
                <type>quarter</type>
                <stem default-y="-59.5">down</stem>
                <lyric relative-x="4" default-y="-86" number="1">
                    <syllabic>single</syllabic>
                    <text font-size="9.2">These</text>
                </lyric>
            </note>
            <note default-x="179">
                <pitch>
                    <step>B</step>
                    <octave>4</octave>
                </pitch>
                <duration>3</duration>
                <voice>1</voice>
                <type>eighth</type>
                <dot/>
                <stem default-y="16">up</stem>
                <beam number="1">begin</beam>
                <lyric default-y="-86" number="1">
                    <syllabic>begin</syllabic>
                    <text font-size="9.2">lit</text>
                </lyric>
            </note>
            <note default-x="258">
                <pitch>
                    <step>A</step>
                    <alter>1</alter>
                    <octave>4</octave>
                </pitch>
                <duration>1</duration>
                <voice>1</voice>
                <type>16th</type>
                <accidental>sharp</accidental>
                <stem default-y="11">up</stem>
                <beam number="1">end</beam>
                <beam number="2">backward hook</beam>
                <lyric default-y="-86" number="1">
                    <syllabic>end</syllabic>
                    <text font-size="9.2">tle</text>
                </lyric>
            </note>
            <note default-x="295">
                <pitch>
                    <step>B</step>
                    <octave>4</octave>
                </pitch>
                <duration>3</duration>
                <voice>1</voice>
                <type>eighth</type>
                <dot/>
                <stem default-y="16">up</stem>
                <beam number="1">begin</beam>
                <lyric default-y="-86" number="1">
                    <syllabic>begin</syllabic>
                    <text font-size="9.2">chil</text>
                </lyric>
            </note>
            <note default-x="374">
                <pitch>
                    <step>A</step>
                    <octave>4</octave>
                </pitch>
                <duration>1</duration>
                <voice>1</voice>
                <type>16th</type>
                <accidental>natural</accidental>
                <stem default-y="11">up</stem>
                <beam number="1">end</beam>
                <beam number="2">backward hook</beam>
                <lyric default-y="-86" number="1">
                    <syllabic>end</syllabic>
                    <text font-size="9.2">dren</text>
                </lyric>
            </note>
            <note default-x="412">
                <pitch>
                    <step>G</step>
                    <octave>4</octave>
                </pitch>
                <duration>3</duration>
                <voice>1</voice>
                <type>eighth</type>
                <dot/>
                <stem default-y="11">up</stem>
                <beam number="1">begin</beam>
                <notations>
                    <slur placement="below" type="start" number="1"/>
                </notations>
                <lyric relative-x="6" default-y="-86" number="1">
                    <syllabic>single</syllabic>
                    <text font-size="9.2">are</text>
                </lyric>
            </note>
            <note default-x="492">
                <pitch>
                    <step>B</step>
                    <octave>4</octave>
                </pitch>
                <duration>1</duration>
                <voice>1</voice>
                <type>16th</type>
                <stem default-y="16">up</stem>
                <beam number="1">end</beam>
                <beam number="2">backward hook</beam>
                <notations>
                    <slur type="stop" number="1"/>
                </notations>
            </note>
        </measure>
        <measure width="296" number="10">
            <print new-system="no"/>
            <note default-x="14">
                <pitch>
                    <step>A</step>
                    <octave>4</octave>
                </pitch>
                <duration>4</duration>
                <voice>1</voice>
                <type>quarter</type>
                <stem default-y="11.5">up</stem>
                <lyric default-y="-86" number="1">
                    <syllabic>begin</syllabic>
                    <text font-size="9.2">ask</text>
                </lyric>
            </note>
            <note default-x="80">
                <pitch>
                    <step>F</step>
                    <alter>1</alter>
                    <octave>4</octave>
                </pitch>
                <duration>4</duration>
                <voice>1</voice>
                <type>quarter</type>
                <stem default-y="0.5">up</stem>
                <lyric default-y="-86" number="1">
                    <syllabic>end</syllabic>
                    <text font-size="9.2">ing</text>
                </lyric>
            </note>
            <note default-x="146">
                <pitch>
                    <step>D</step>
                    <octave>4</octave>
                </pitch>
                <duration>4</duration>
                <voice>1</voice>
                <type>quarter</type>
                <stem default-y="-10">up</stem>
                <lyric relative-x="10" default-y="-86" number="1">
                    <syllabic>single</syllabic>
                    <text font-size="9.2">you</text>
                </lyric>
            </note>
            <note default-x="213">
                <rest/>
                <duration>2</duration>
                <voice>1</voice>
                <type>eighth</type>
            </note>
            <note default-x="254">
                <pitch>
                    <step>D</step>
                    <octave>4</octave>
                </pitch>
                <duration>2</duration>
                <voice>1</voice>
                <type>eighth</type>
                <stem default-y="-10">up</stem>
                <lyric default-y="-86" number="1">
                    <syllabic>single</syllabic>
                    <text font-size="9.2">to</text>
                </lyric>
            </note>
        </measure>
        <measure width="443" number="11">
            <print new-system="no"/>
            <harmony default-y="32">
                <root>
                    <root-step>G</root-step>
                </root>
                <kind halign="center" text="">major</kind>
            </harmony>
            <note default-x="14">
                <pitch>
                    <step>B</step>
                    <octave>4</octave>
                </pitch>
                <duration>4</duration>
                <voice>1</voice>
                <type>quarter</type>
                <stem default-y="-59.5">down</stem>
                <lyric relative-x="5" default-y="-86" number="1">
                    <syllabic>single</syllabic>
                    <text font-size="9.2">please</text>
                </lyric>
            </note>
            <note default-x="111">
                <pitch>
                    <step>B</step>
                    <octave>4</octave>
                </pitch>
                <duration>4</duration>
                <voice>1</voice>
                <type>quarter</type>
                <stem default-y="-59.5">down</stem>
                <lyric default-y="-86" number="1">
                    <syllabic>single</syllabic>
                    <text font-size="9.2">come</text>
                </lyric>
            </note>
            <note default-x="208">
                <pitch>
                    <step>B</step>
                    <octave>4</octave>
                </pitch>
                <duration>3</duration>
                <voice>1</voice>
                <type>eighth</type>
                <dot/>
                <stem default-y="16">up</stem>
                <beam number="1">begin</beam>
                <lyric default-y="-86" number="1">
                    <syllabic>single</syllabic>
                    <text font-size="9.2">out</text>
                </lyric>
            </note>
            <note default-x="288">
                <pitch>
                    <step>A</step>
                    <octave>4</octave>
                </pitch>
                <duration>1</duration>
                <voice>1</voice>
                <type>16th</type>
                <stem default-y="11">up</stem>
                <beam number="1">end</beam>
                <beam number="2">backward hook</beam>
                <lyric default-y="-86" number="1">
                    <syllabic>single</syllabic>
                    <text font-size="9.2">so</text>
                </lyric>
            </note>
            <note default-x="325">
                <pitch>
                    <step>G</step>
                    <octave>4</octave>
                </pitch>
                <duration>3</duration>
                <voice>1</voice>
                <type>eighth</type>
                <dot/>
                <stem default-y="11">up</stem>
                <beam number="1">begin</beam>
                <notations>
                    <articulations>
                        <strong-accent default-y="-63" default-x="-92" placement="below" type="down"/>
                    </articulations>
                </notations>
                <lyric default-y="-86" number="1">
                    <syllabic>single</syllabic>
                    <text font-size="9.2">we</text>
                </lyric>
            </note>
            <note default-x="405">
                <pitch>
                    <step>B</step>
                    <octave>4</octave>
                </pitch>
                <duration>1</duration>
                <voice>1</voice>
                <type>16th</type>
                <stem default-y="16">up</stem>
                <beam number="1">end</beam>
                <beam number="2">backward hook</beam>
                <lyric default-y="-86" number="1">
                    <syllabic>single</syllabic>
                    <text font-size="9.2">can</text>
                </lyric>
            </note>
        </measure>
        <measure width="540" number="12">
            <print new-system="yes">
                <system-layout>
                    <system-distance>156</system-distance>
                </system-layout>
            </print>
            <harmony default-y="32">
                <root>
                    <root-step>D</root-step>
                </root>
                <kind halign="center" text="">major</kind>
            </harmony>
            <note default-x="81">
                <pitch>
                    <step>A</step>
                    <octave>4</octave>
                </pitch>
                <duration>4</duration>
                <voice>1</voice>
                <type>quarter</type>
                <stem default-y="11.5">up</stem>
                <lyric default-y="-86" number="1">
                    <syllabic>single</syllabic>
                    <text font-size="9.2">play</text>
                </lyric>
            </note>
            <note default-x="185">
                <pitch>
                    <step>F</step>
                    <alter>1</alter>
                    <octave>4</octave>
                </pitch>
                <duration>4</duration>
                <voice>1</voice>
                <type>quarter</type>
                <stem default-y="0">up</stem>
                <lyric default-y="-86" number="1">
                    <syllabic>single</syllabic>
                    <text font-size="9.2">with</text>
                </lyric>
            </note>
            <note default-x="289">
                <pitch>
                    <step>D</step>
                    <octave>4</octave>
                </pitch>
                <duration>3</duration>
                <voice>1</voice>
                <type>eighth</type>
                <dot/>
                <stem default-y="-11">up</stem>
                <beam number="1">begin</beam>
                <lyric default-y="-86" number="1">
                    <syllabic>single</syllabic>
                    <text font-size="9.2">you.</text>
                </lyric>
            </note>
            <note default-x="374">
                <pitch>
                    <step>D</step>
                    <octave>4</octave>
                </pitch>
                <duration>1</duration>
                <voice>1</voice>
                <type>16th</type>
                <stem default-y="-11">up</stem>
                <beam number="1">end</beam>
                <beam number="2">backward hook</beam>
                <lyric default-y="-86" number="1">
                    <syllabic>single</syllabic>
                    <text font-size="9.2">Oh</text>
                </lyric>
            </note>
            <harmony default-y="32">
                <root>
                    <root-step>D</root-step>
                </root>
                <kind halign="center" text="7">dominant</kind>
            </harmony>
            <note default-x="414">
                <pitch>
                    <step>E</step>
                    <octave>4</octave>
                </pitch>
                <duration>3</duration>
                <voice>1</voice>
                <type>eighth</type>
                <dot/>
                <stem default-y="-5.5">up</stem>
                <beam number="1">begin</beam>
                <lyric default-y="-86" number="1">
                    <syllabic>begin</syllabic>
                    <text font-size="9.2">Mis</text>
                </lyric>
            </note>
            <note default-x="500">
                <pitch>
                    <step>F</step>
                    <alter>1</alter>
                    <octave>4</octave>
                </pitch>
                <duration>1</duration>
                <voice>1</voice>
                <type>16th</type>
                <stem default-y="0">up</stem>
                <beam number="1">end</beam>
                <beam number="2">backward hook</beam>
                <lyric default-y="-86" number="1">
                    <syllabic>end</syllabic>
                    <text font-size="9.2">ter</text>
                </lyric>
            </note>
        </measure>
        <measure width="282" number="13">
            <print new-system="no"/>
            <note default-x="14">
                <pitch>
                    <step>G</step>
                    <octave>4</octave>
                </pitch>
                <duration>4</duration>
                <voice>1</voice>
                <type>quarter</type>
                <stem default-y="6">up</stem>
                <lyric default-y="-86" number="1">
                    <syllabic>single</syllabic>
                    <text font-size="9.2">Sun,</text>
                </lyric>
            </note>
            <note default-x="81">
                <rest/>
                <duration>4</duration>
                <voice>1</voice>
                <type>quarter</type>
            </note>
            <note default-x="148">
                <pitch>
                    <step>B</step>
                    <octave>4</octave>
                </pitch>
                <duration>4</duration>
                <voice>1</voice>
                <type>quarter</type>
                <stem default-y="-59.5">down</stem>
                <lyric default-y="-86" number="1">
                    <syllabic>single</syllabic>
                    <text font-size="9.2">Sun</text>
                </lyric>
            </note>
            <note default-x="215">
                <rest/>
                <duration>4</duration>
                <voice>1</voice>
                <type>quarter</type>
            </note>
        </measure>
        <measure width="445" number="14">
            <print new-system="no"/>
            <note default-x="14">
                <pitch>
                    <step>A</step>
                    <octave>4</octave>
                </pitch>
                <duration>3</duration>
                <voice>1</voice>
                <type>eighth</type>
                <dot/>
                <stem default-y="11">up</stem>
                <beam number="1">begin</beam>
                <lyric default-y="-86" number="1">
                    <syllabic>begin</syllabic>
                    <text font-size="9.2">Mis</text>
                </lyric>
            </note>
            <note default-x="94">
                <pitch>
                    <step>B</step>
                    <octave>4</octave>
                </pitch>
                <duration>1</duration>
                <voice>1</voice>
                <type>16th</type>
                <stem default-y="16">up</stem>
                <beam number="1">end</beam>
                <beam number="2">backward hook</beam>
                <lyric default-y="-86" number="1">
                    <syllabic>end</syllabic>
                    <text font-size="9.2">ter</text>
                </lyric>
            </note>
            <note default-x="135">
                <pitch>
                    <step>A</step>
                    <octave>4</octave>
                </pitch>
                <duration>3</duration>
                <voice>1</voice>
                <type>eighth</type>
                <dot/>
                <stem default-y="11">up</stem>
                <beam number="1">begin</beam>
                <lyric default-y="-86" number="1">
                    <syllabic>begin</syllabic>
                    <text font-size="9.2">Gold</text>
                </lyric>
            </note>
            <note default-x="215">
                <pitch>
                    <step>G</step>
                    <octave>4</octave>
                </pitch>
                <duration>1</duration>
                <voice>1</voice>
                <type>16th</type>
                <stem default-y="6">up</stem>
                <beam number="1">end</beam>
                <beam number="2">backward hook</beam>
                <lyric default-y="-86" number="1">
                    <syllabic>end</syllabic>
                    <text font-size="9.2">en</text>
                </lyric>
            </note>
            <note default-x="256">
                <pitch>
                    <step>E</step>
                    <octave>4</octave>
                </pitch>
                <duration>4</duration>
                <voice>1</voice>
                <type>quarter</type>
                <stem default-y="-5">up</stem>
                <lyric default-y="-86" number="1">
                    <syllabic>single</syllabic>
                    <text font-size="9.2">Sun,</text>
                </lyric>
            </note>
            <note default-x="351">
                <rest/>
                <duration>4</duration>
                <voice>1</voice>
                <type>quarter</type>
            </note>
        </measure>
        <measure width="466" number="15">
            <print new-system="yes">
                <system-layout>
                    <system-distance>156</system-distance>
                </system-layout>
            </print>
            <barline location="left">
                <ending font-size="7.1" default-y="40" type="start" number="1" end-length="30">1</ending>
            </barline>
            <attributes>
                <staff-details>
                    <staff-size>113</staff-size>
                </staff-details>
            </attributes>
            <harmony default-y="33">
                <root>
                    <root-step>D</root-step>
                </root>
                <kind halign="center" text="7">dominant</kind>
            </harmony>
            <note default-x="83">
                <pitch>
                    <step>B</step>
                    <octave>4</octave>
                </pitch>
                <duration>4</duration>
                <voice>1</voice>
                <type>quarter</type>
                <stem default-y="-62.5">down</stem>
                <lyric relative-x="6" default-y="-90" number="1">
                    <syllabic>single</syllabic>
                    <text font-size="9.6">please</text>
                </lyric>
            </note>
            <note default-x="180">
                <pitch>
                    <step>B</step>
                    <octave>4</octave>
                </pitch>
                <duration>4</duration>
                <voice>1</voice>
                <type>quarter</type>
                <stem default-y="-62.5">down</stem>
                <notations>
                    <articulations>
                        <staccato default-y="-73" default-x="-27" placement="below"/>
                    </articulations>
                </notations>
                <lyric default-y="-90" number="1">
                    <syllabic>single</syllabic>
                    <text font-size="9.6">shine</text>
                </lyric>
            </note>
            <note default-x="277">
                <pitch>
                    <step>B</step>
                    <octave>4</octave>
                </pitch>
                <duration>2</duration>
                <voice>1</voice>
                <type>eighth</type>
                <stem default-y="-62.5">down</stem>
                <lyric default-y="-90" number="1">
                    <syllabic>single</syllabic>
                    <text font-size="9.6">down</text>
                </lyric>
            </note>
            <note default-x="337">
                <pitch>
                    <step>A</step>
                    <octave>4</octave>
                </pitch>
                <duration>6</duration>
                <voice>1</voice>
                <type>quarter</type>
                <dot/>
                <stem default-y="12">up</stem>
                <lyric default-y="-90" number="1">
                    <syllabic>single</syllabic>
                    <text font-size="9.6">on</text>
                </lyric>
            </note>
        </measure>
        <measure width="390" number="16">
            <print new-system="no"/>
            <harmony default-y="33">
                <root>
                    <root-step>G</root-step>
                </root>
                <kind halign="center" text="">major</kind>
            </harmony>
            <note default-x="13">
                <pitch>
                    <step>G</step>
                    <octave>4</octave>
                </pitch>
                <duration>8</duration>
                <voice>1</voice>
                <type>half</type>
                <stem default-y="6">up</stem>
                <lyric default-y="-90" number="1">
                    <syllabic>single</syllabic>
                    <text font-size="9.6">me.</text>
                </lyric>
            </note>
            <note default-x="146">
                <rest/>
                <duration>3</duration>
                <voice>1</voice>
                <type>eighth</type>
                <dot/>
            </note>
            <note default-x="217">
                <pitch>
                    <step>D</step>
                    <octave>4</octave>
                </pitch>
                <duration>1</duration>
                <voice>1</voice>
                <type>16th</type>
                <stem default-y="-11">up</stem>
                <lyric default-y="-90" number="1">
                    <syllabic>single</syllabic>
                    <text font-size="9.6">Oh</text>
                </lyric>
            </note>
            <note default-x="259">
                <pitch>
                    <step>E</step>
                    <octave>4</octave>
                </pitch>
                <duration>3</duration>
                <voice>1</voice>
                <type>eighth</type>
                <dot/>
                <stem default-y="-5.5">up</stem>
                <beam number="1">begin</beam>
                <lyric default-y="-90" number="1">
                    <syllabic>begin</syllabic>
                    <text font-size="9.6">Mis</text>
                </lyric>
            </note>
            <note default-x="330">
                <pitch>
                    <step>F</step>
                    <alter>1</alter>
                    <octave>4</octave>
                </pitch>
                <duration>1</duration>
                <voice>1</voice>
                <type>16th</type>
                <stem default-y="0">up</stem>
                <beam number="1">end</beam>
                <beam number="2">backward hook</beam>
                <lyric default-y="-90" number="1">
                    <syllabic>end</syllabic>
                    <text font-size="9.6">ter</text>
                </lyric>
            </note>
            <barline location="right">
                <bar-style>light-heavy</bar-style>
                <ending type="stop" number="1"></ending>
                <repeat direction="backward"/>
            </barline>
        </measure>
        <measure width="412" number="17">
            <print new-system="no"/>
            <barline location="left">
                <ending font-size="7.1" default-y="40" type="start" number="2" end-length="30">2</ending>
            </barline>
            <harmony relative-x="11" default-y="33">
                <root>
                    <root-step>D</root-step>
                </root>
                <kind halign="center" text="7">dominant</kind>
            </harmony>
            <note default-x="13">
                <pitch>
                    <step>B</step>
                    <octave>4</octave>
                </pitch>
                <duration>4</duration>
                <voice>1</voice>
                <type>quarter</type>
                <stem default-y="-62.5">down</stem>
                <lyric relative-x="6" default-y="-90" number="1">
                    <syllabic>single</syllabic>
                    <text font-size="9.6">please</text>
                </lyric>
            </note>
            <note default-x="107">
                <pitch>
                    <step>B</step>
                    <octave>4</octave>
                </pitch>
                <duration>4</duration>
                <voice>1</voice>
                <type>quarter</type>
                <stem default-y="-62.5">down</stem>
                <notations>
                    <articulations>
                        <staccato default-y="-73" default-x="-117" placement="below"/>
                    </articulations>
                </notations>
                <lyric default-y="-90" number="1">
                    <syllabic>single</syllabic>
                    <text font-size="9.6">shine</text>
                </lyric>
            </note>
            <note default-x="201">
                <pitch>
                    <step>B</step>
                    <octave>4</octave>
                </pitch>
                <duration>2</duration>
                <voice>1</voice>
                <type>eighth</type>
                <stem default-y="-62.5">down</stem>
                <notations>
                    <articulations>
                        <strong-accent default-y="-87" default-x="-132" placement="below" type="down"/>
                    </articulations>
                </notations>
                <lyric default-y="-90" number="1">
                    <syllabic>single</syllabic>
                    <text font-size="9.6">down</text>
                </lyric>
            </note>
            <note default-x="259">
                <pitch>
                    <step>A</step>
                    <octave>4</octave>
                </pitch>
                <duration>4</duration>
                <voice>1</voice>
                <type>quarter</type>
                <stem default-y="12">up</stem>
                <lyric default-y="-90" number="1">
                    <syllabic>single</syllabic>
                    <text font-size="9.6">on,</text>
                </lyric>
            </note>
            <barline location="right">
                <ending type="discontinue" number="2"></ending>
            </barline>
        </measure>
        <measure width="574" number="18">
            <print new-system="yes">
                <system-layout>
                    <system-distance>154</system-distance>
                </system-layout>
            </print>
            <attributes>
                <staff-details>
                    <staff-size>108</staff-size>
                </staff-details>
            </attributes>
            <note default-x="82">
                <pitch>
                    <step>B</step>
                    <octave>4</octave>
                </pitch>
                <duration>4</duration>
                <voice>1</voice>
                <type>quarter</type>
                <stem default-y="-59.5">down</stem>
                <lyric relative-x="5" default-y="-86" number="1">
                    <syllabic>single</syllabic>
                    <text font-size="9.2">please</text>
                </lyric>
            </note>
            <note default-x="198">
                <pitch>
                    <step>B</step>
                    <octave>4</octave>
                </pitch>
                <duration>4</duration>
                <voice>1</voice>
                <type>quarter</type>
                <stem default-y="-59.5">down</stem>
                <notations>
                    <articulations>
                        <staccato default-y="-70" default-x="-18" placement="below"/>
                    </articulations>
                </notations>
                <lyric default-y="-86" number="1">
                    <syllabic>single</syllabic>
                    <text font-size="9.2">shine</text>
                </lyric>
            </note>
            <note default-x="313">
                <pitch>
                    <step>B</step>
                    <octave>4</octave>
                </pitch>
                <duration>2</duration>
                <voice>1</voice>
                <type>eighth</type>
                <stem default-y="-59.5">down</stem>
                <lyric default-y="-86" number="1">
                    <syllabic>single</syllabic>
                    <text font-size="9.2">down</text>
                </lyric>
            </note>
            <note default-x="386">
                <pitch>
                    <step>A</step>
                    <octave>4</octave>
                </pitch>
                <duration>4</duration>
                <voice>1</voice>
                <type>quarter</type>
                <stem default-y="11.5">up</stem>
                <lyric relative-x="4" default-y="-86" number="1">
                    <syllabic>single</syllabic>
                    <text font-size="9.2">on,</text>
                </lyric>
            </note>
            <note default-x="501">
                <rest/>
                <duration>2</duration>
                <voice>1</voice>
                <type>eighth</type>
            </note>
        </measure>
        <measure width="492" number="19">
            <print new-system="no"/>
            <note default-x="14">
                <pitch>
                    <step>B</step>
                    <octave>4</octave>
                </pitch>
                <duration>4</duration>
                <voice>1</voice>
                <type>quarter</type>
                <stem default-y="-59.5">down</stem>
                <lyric relative-x="5" default-y="-86" number="1">
                    <syllabic>single</syllabic>
                    <text font-size="9.2">please</text>
                </lyric>
            </note>
            <note default-x="135">
                <pitch>
                    <step>B</step>
                    <octave>4</octave>
                </pitch>
                <duration>4</duration>
                <voice>1</voice>
                <type>quarter</type>
                <stem default-y="-59.5">down</stem>
                <notations>
                    <articulations>
                        <staccato default-y="-70" default-x="-56" placement="below"/>
                    </articulations>
                </notations>
                <lyric default-y="-86" number="1">
                    <syllabic>single</syllabic>
                    <text font-size="9.2">shine</text>
                </lyric>
            </note>
            <note default-x="257">
                <pitch>
                    <step>B</step>
                    <octave>4</octave>
                </pitch>
                <duration>2</duration>
                <voice>1</voice>
                <type>eighth</type>
                <stem default-y="-59.5">down</stem>
                <lyric default-y="-86" number="1">
                    <syllabic>single</syllabic>
                    <text font-size="9.2">down</text>
                </lyric>
            </note>
            <note default-x="331">
                <pitch>
                    <step>A</step>
                    <octave>4</octave>
                </pitch>
                <duration>6</duration>
                <voice>1</voice>
                <type>quarter</type>
                <dot/>
                <stem default-y="11.5">up</stem>
                <lyric default-y="-86" number="1">
                    <syllabic>single</syllabic>
                    <text font-size="9.2">on</text>
                </lyric>
            </note>
        </measure>
        <measure width="201" number="20">
            <print new-system="no"/>
            <note default-x="14">
                <pitch>
                    <step>G</step>
                    <octave>4</octave>
                </pitch>
                <duration>12</duration>
                <voice>1</voice>
                <type>half</type>
                <dot/>
                <stem default-y="6">up</stem>
                <lyric default-y="-86" number="1">
                    <syllabic>single</syllabic>
                    <text font-size="9.2">me.</text>
                </lyric>
            </note>
            <barline location="right">
                <bar-style>light-heavy</bar-style>
                <ending type="stop" number="2"></ending>
            </barline>
        </measure>
    </part>
</score-partwise>
