<?xml version="1.0" encoding="UTF-8"?>
<!DOCTYPE score-partwise PUBLIC "-//Recordare//DTD MusicXML 2.0 Partwise//EN" "http://www.musicxml.org/dtds/partwise.dtd">
<score-partwise version="2.0">
    <work>
        <work-number></work-number>
        <work-title></work-title>
    </work>
    <movement-number></movement-number>
    <movement-title>Forever (Transcribed)</movement-title>
    <identification>
        <creator type="composer">Buddy Killien</creator>
        <creator type="poet">Buddy Killien</creator>
        <rights>All Rights Reserved</rights>
        <encoding>
            <software>Notation Composer 2, 6, 3, 0</software>
            <software>ProxyMusic 2.0 c</software>
        </encoding>
        <source>http://wikifonia.org/node/22116/revisions/29193/view</source>
    </identification>
    <defaults>
        <scaling>
            <millimeters>7.24</millimeters>
            <tenths>40</tenths>
        </scaling>
        <page-layout>
            <page-height>1543</page-height>
            <page-width>1192</page-width>
            <page-margins type="both">
                <left-margin>70</left-margin>
                <right-margin>70</right-margin>
                <top-margin>105</top-margin>
                <bottom-margin>70</bottom-margin>
            </page-margins>
        </page-layout>
        <music-font font-size="10" font-family="Harmony"/>
        <word-font font-size="10" font-family="Times New Roman"/>
        <lyric-font font-size="10" font-family="Arial"/>
    </defaults>
    <credit>
        <credit-words font-weight="bold" font-size="28" font-family="Times New Roman" default-y="1505" default-x="495" valign="top">Forever</credit-words>
    </credit>
    <part-list>
        <part-group type="start" number="1">
            <group-symbol></group-symbol>
            <group-barline></group-barline>
        </part-group>
        <score-part id="T75990880">
            <part-name>Melody</part-name>
            <part-abbreviation>Choir</part-abbreviation>
            <score-instrument id="IT75990880">
                <instrument-name>Melody</instrument-name>
            </score-instrument>
            <midi-instrument id="IT75990880">
                <midi-channel>1</midi-channel>
                <midi-bank>0</midi-bank>
                <midi-program>54</midi-program>
            </midi-instrument>
        </score-part>
        <part-group type="stop" number="1"/>
    </part-list>
    <part id="T75990880">
        <measure width="326" number="1">
            <print>
                <system-layout>
                    <system-margins>
                        <left-margin>-6</left-margin>
                        <right-margin>0</right-margin>
                    </system-margins>
                    <top-system-distance>140</top-system-distance>
                </system-layout>
            </print>
            <attributes>
                <divisions>480</divisions>
                <key>
                    <fifths>0</fifths>
                </key>
                <time>
                    <beats>4</beats>
                    <beat-type>4</beat-type>
                </time>
                <clef>
                    <sign>G</sign>
                    <line>2</line>
                </clef>
                <staff-details print-object="yes"/>
            </attributes>
            <harmony default-y="14">
                <root>
                    <root-step>C</root-step>
                </root>
                <kind use-symbols="no" text="6">6</kind>
            </harmony>
            <note default-x="95" release="-7" dynamics="75">
                <pitch>
                    <step>C</step>
                    <octave>4</octave>
                </pitch>
                <duration>480</duration>
                <type>quarter</type>
                <stem default-y="-15">up</stem>
            </note>
            <note default-x="134" release="-7" dynamics="75">
                <pitch>
                    <step>E</step>
                    <octave>4</octave>
                </pitch>
                <duration>120</duration>
                <type>16th</type>
                <stem default-y="-5">up</stem>
            </note>
            <note default-x="156">
                <rest/>
                <duration>240</duration>
                <type>eighth</type>
            </note>
            <note default-x="185" release="-7" dynamics="75">
                <pitch>
                    <step>A</step>
                    <octave>4</octave>
                </pitch>
                <duration>120</duration>
                <type>16th</type>
                <stem default-y="10">up</stem>
            </note>
            <harmony default-y="14">
                <root>
                    <root-step>C</root-step>
                </root>
                <kind use-symbols="no" text=" "> </kind>
            </harmony>
            <note default-x="207" release="-7" dynamics="75">
                <pitch>
                    <step>G</step>
                    <octave>4</octave>
                </pitch>
                <duration>480</duration>
                <type>quarter</type>
                <stem default-y="5">up</stem>
            </note>
            <note default-x="247" release="-7" dynamics="75">
                <pitch>
                    <step>E</step>
                    <octave>4</octave>
                </pitch>
                <duration>120</duration>
                <type>16th</type>
                <stem default-y="-5">up</stem>
            </note>
            <note default-x="269">
                <rest/>
                <duration>240</duration>
                <type>eighth</type>
            </note>
            <note default-x="297" release="-7" dynamics="75">
                <pitch>
                    <step>G</step>
                    <octave>4</octave>
                </pitch>
                <duration>120</duration>
                <type>16th</type>
                <stem default-y="5">up</stem>
            </note>
        </measure>
        <measure width="282" number="2">
            <attributes>
                <staff-details print-object="yes"/>
            </attributes>
            <harmony default-y="14">
                <root>
                    <root-step>F</root-step>
                </root>
                <kind use-symbols="no" text="maj7">maj7</kind>
            </harmony>
            <note default-x="51" release="-7" dynamics="75">
                <pitch>
                    <step>C</step>
                    <octave>4</octave>
                </pitch>
                <duration>480</duration>
                <type>quarter</type>
                <stem default-y="-15">up</stem>
            </note>
            <note default-x="90" release="-7" dynamics="75">
                <pitch>
                    <step>E</step>
                    <octave>4</octave>
                </pitch>
                <duration>120</duration>
                <type>16th</type>
                <stem default-y="-5">up</stem>
            </note>
            <note default-x="113">
                <rest/>
                <duration>240</duration>
                <type>eighth</type>
            </note>
            <note default-x="141" release="-7" dynamics="75">
                <pitch>
                    <step>A</step>
                    <octave>4</octave>
                </pitch>
                <duration>120</duration>
                <type>16th</type>
                <stem default-y="10">up</stem>
            </note>
            <harmony default-y="14">
                <root>
                    <root-step>F</root-step>
                </root>
                <kind use-symbols="no" text="6">6</kind>
            </harmony>
            <note default-x="164" release="-7" dynamics="75">
                <pitch>
                    <step>G</step>
                    <octave>4</octave>
                </pitch>
                <duration>480</duration>
                <type>quarter</type>
                <stem default-y="5">up</stem>
            </note>
            <note default-x="203" release="-7" dynamics="75">
                <pitch>
                    <step>E</step>
                    <octave>4</octave>
                </pitch>
                <duration>120</duration>
                <type>16th</type>
                <stem default-y="-5">up</stem>
            </note>
            <note default-x="226">
                <rest/>
                <duration>240</duration>
                <type>eighth</type>
            </note>
            <note default-x="254" release="-7" dynamics="75">
                <pitch>
                    <step>G</step>
                    <octave>4</octave>
                </pitch>
                <duration>120</duration>
                <type>16th</type>
                <stem default-y="5">up</stem>
            </note>
        </measure>
        <measure width="199" number="3">
            <attributes>
                <staff-details print-object="yes"/>
            </attributes>
            <harmony default-y="14">
                <root>
                    <root-step>C</root-step>
                </root>
                <kind use-symbols="no" text="6">6</kind>
            </harmony>
            <note default-x="35" release="-7" dynamics="75">
                <pitch>
                    <step>A</step>
                    <octave>4</octave>
                </pitch>
                <duration>240</duration>
                <type>eighth</type>
                <stem default-y="10">up</stem>
                <beam number="1">begin</beam>
            </note>
            <note default-x="64" release="-7" dynamics="75">
                <pitch>
                    <step>G</step>
                    <octave>4</octave>
                </pitch>
                <duration>240</duration>
                <tie type="start"/>
                <type>eighth</type>
                <stem default-y="5">up</stem>
                <beam number="1">continue</beam>
                <notations>
                    <tied orientation="under" type="start"/>
                </notations>
            </note>
            <harmony default-y="14">
                <root>
                    <root-step>C</root-step>
                </root>
                <kind use-symbols="no" text=" "> </kind>
            </harmony>
            <note default-x="100">
                <pitch>
                    <step>G</step>
                    <octave>4</octave>
                </pitch>
                <duration>960</duration>
                <tie type="stop"/>
                <type>half</type>
                <stem default-y="5">up</stem>
                <notations>
                    <tied type="stop"/>
                </notations>
            </note>
            <note default-x="153">
                <rest/>
                <duration>480</duration>
                <type>quarter</type>
            </note>
        </measure>
        <measure width="226" number="4">
            <attributes>
                <staff-details print-object="yes"/>
            </attributes>
            <harmony default-y="14">
                <root>
                    <root-step>F</root-step>
                </root>
                <kind use-symbols="no" text="maj7">maj7</kind>
            </harmony>
            <note default-x="51" release="-7" dynamics="75">
                <pitch>
                    <step>E</step>
                    <octave>4</octave>
                </pitch>
                <duration>240</duration>
                <type>eighth</type>
                <stem default-y="-5">up</stem>
                <beam number="1">begin</beam>
            </note>
            <note default-x="89" release="-7" dynamics="75">
                <pitch>
                    <step>D</step>
                    <octave>4</octave>
                </pitch>
                <duration>240</duration>
                <tie type="start"/>
                <type>eighth</type>
                <stem default-y="-10">up</stem>
                <beam number="1">continue</beam>
                <notations>
                    <tied orientation="under" type="start"/>
                </notations>
            </note>
            <harmony default-y="14">
                <root>
                    <root-step>F</root-step>
                </root>
                <kind use-symbols="no" text="6">6</kind>
            </harmony>
            <note default-x="125">
                <pitch>
                    <step>D</step>
                    <octave>4</octave>
                </pitch>
                <duration>960</duration>
                <tie type="stop"/>
                <type>half</type>
                <stem default-y="-10">up</stem>
                <notations>
                    <tied type="stop"/>
                </notations>
            </note>
            <note default-x="179">
                <rest/>
                <duration>480</duration>
                <type>quarter</type>
            </note>
        </measure>
        <measure width="226" number="5">
            <print new-system="yes">
                <system-layout>
                    <system-margins>
                        <left-margin>-6</left-margin>
                        <right-margin>0</right-margin>
                    </system-margins>
                    <system-distance>84</system-distance>
                </system-layout>
            </print>
            <attributes>
                <staff-details print-object="yes"/>
            </attributes>
            <harmony default-y="14">
                <root>
                    <root-step>C</root-step>
                </root>
                <kind use-symbols="no" text="6">6</kind>
            </harmony>
            <note default-x="80" release="-7" dynamics="75">
                <pitch>
                    <step>A</step>
                    <octave>4</octave>
                </pitch>
                <duration>240</duration>
                <type>eighth</type>
                <stem default-y="10">up</stem>
                <beam number="1">begin</beam>
            </note>
            <note default-x="105" release="-7" dynamics="75">
                <pitch>
                    <step>G</step>
                    <octave>4</octave>
                </pitch>
                <duration>240</duration>
                <tie type="start"/>
                <type>eighth</type>
                <stem default-y="5">up</stem>
                <beam number="1">continue</beam>
                <notations>
                    <tied orientation="under" type="start"/>
                </notations>
            </note>
            <harmony default-y="14">
                <root>
                    <root-step>C</root-step>
                </root>
                <kind use-symbols="no" text=" "> </kind>
            </harmony>
            <note default-x="140">
                <pitch>
                    <step>G</step>
                    <octave>4</octave>
                </pitch>
                <duration>960</duration>
                <tie type="stop"/>
                <type>half</type>
                <stem default-y="5">up</stem>
                <notations>
                    <tied type="stop"/>
                </notations>
            </note>
            <note default-x="186">
                <rest/>
                <duration>480</duration>
                <type>quarter</type>
            </note>
        </measure>
        <measure width="209" number="6">
            <attributes>
                <staff-details print-object="yes"/>
            </attributes>
            <harmony default-y="14">
                <root>
                    <root-step>F</root-step>
                </root>
                <kind use-symbols="no" text="maj7">maj7</kind>
            </harmony>
            <note default-x="50" release="-7" dynamics="75">
                <pitch>
                    <step>E</step>
                    <octave>4</octave>
                </pitch>
                <duration>240</duration>
                <type>eighth</type>
                <stem default-y="-5">up</stem>
                <beam number="1">begin</beam>
            </note>
            <note default-x="87" release="-7" dynamics="75">
                <pitch>
                    <step>D</step>
                    <octave>4</octave>
                </pitch>
                <duration>240</duration>
                <tie type="start"/>
                <type>eighth</type>
                <stem default-y="-10">up</stem>
                <beam number="1">continue</beam>
                <notations>
                    <tied orientation="under" type="start"/>
                </notations>
            </note>
            <harmony default-y="14">
                <root>
                    <root-step>F</root-step>
                </root>
                <kind use-symbols="no" text="6">6</kind>
            </harmony>
            <note default-x="123">
                <pitch>
                    <step>D</step>
                    <octave>4</octave>
                </pitch>
                <duration>960</duration>
                <tie type="stop"/>
                <type>half</type>
                <stem default-y="-10">up</stem>
                <notations>
                    <tied type="stop"/>
                </notations>
            </note>
            <note default-x="169">
                <rest/>
                <duration>480</duration>
                <type>quarter</type>
            </note>
        </measure>
        <measure width="181" number="7">
            <attributes>
                <staff-details print-object="yes"/>
            </attributes>
            <harmony default-y="14">
                <root>
                    <root-step>C</root-step>
                </root>
                <kind use-symbols="no" text="6">6</kind>
            </harmony>
            <note default-x="35" release="-7" dynamics="75">
                <pitch>
                    <step>A</step>
                    <octave>4</octave>
                </pitch>
                <duration>240</duration>
                <type>eighth</type>
                <stem default-y="10">up</stem>
                <beam number="1">begin</beam>
            </note>
            <note default-x="59" release="-7" dynamics="75">
                <pitch>
                    <step>G</step>
                    <octave>4</octave>
                </pitch>
                <duration>240</duration>
                <tie type="start"/>
                <type>eighth</type>
                <stem default-y="5">up</stem>
                <beam number="1">continue</beam>
                <notations>
                    <tied orientation="under" type="start"/>
                </notations>
            </note>
            <harmony default-y="14">
                <root>
                    <root-step>C</root-step>
                </root>
                <kind use-symbols="no" text=" "> </kind>
            </harmony>
            <note default-x="95">
                <pitch>
                    <step>G</step>
                    <octave>4</octave>
                </pitch>
                <duration>960</duration>
                <tie type="stop"/>
                <type>half</type>
                <stem default-y="5">up</stem>
                <notations>
                    <tied type="stop"/>
                </notations>
            </note>
            <note default-x="141">
                <rest/>
                <duration>480</duration>
                <type>quarter</type>
            </note>
        </measure>
        <measure width="224" number="8">
            <attributes>
                <staff-details print-object="yes"/>
            </attributes>
            <harmony default-y="14">
                <root>
                    <root-step>F</root-step>
                </root>
                <kind use-symbols="no" text="maj7">maj7</kind>
            </harmony>
            <note default-x="50" release="-7" dynamics="75">
                <pitch>
                    <step>E</step>
                    <octave>4</octave>
                </pitch>
                <duration>240</duration>
                <type>eighth</type>
                <stem default-y="-5">up</stem>
                <beam number="1">begin</beam>
            </note>
            <note default-x="87" release="-7" dynamics="75">
                <pitch>
                    <step>D</step>
                    <octave>4</octave>
                </pitch>
                <duration>240</duration>
                <tie type="start"/>
                <type>eighth</type>
                <stem default-y="-10">up</stem>
                <beam number="1">continue</beam>
                <notations>
                    <tied orientation="under" type="start"/>
                </notations>
            </note>
            <harmony default-y="14">
                <root>
                    <root-step>F</root-step>
                </root>
                <kind use-symbols="no" text="6">6</kind>
            </harmony>
            <note default-x="123">
                <pitch>
                    <step>D</step>
                    <octave>4</octave>
                </pitch>
                <duration>960</duration>
                <tie type="stop"/>
                <type>half</type>
                <stem default-y="-10">up</stem>
                <notations>
                    <tied type="stop"/>
                </notations>
            </note>
            <note default-x="169">
                <rest/>
                <duration>240</duration>
                <type>eighth</type>
            </note>
            <note default-x="194" release="-7" dynamics="75">
                <pitch>
                    <step>C</step>
                    <octave>4</octave>
                </pitch>
                <duration>240</duration>
                <type>eighth</type>
                <stem default-y="-15">up</stem>
            </note>
        </measure>
        <measure width="193" number="9">
            <attributes>
                <staff-details print-object="yes"/>
            </attributes>
            <harmony default-y="14">
                <root>
                    <root-step>C</root-step>
                </root>
                <kind use-symbols="no" text=" "> </kind>
            </harmony>
            <note default-x="30" release="-7" dynamics="75">
                <pitch>
                    <step>E</step>
                    <octave>4</octave>
                </pitch>
                <duration>240</duration>
                <type>eighth</type>
                <stem default-y="-5">up</stem>
                <beam number="1">begin</beam>
            </note>
            <note default-x="54" release="-7" dynamics="75">
                <pitch>
                    <step>C</step>
                    <octave>4</octave>
                </pitch>
                <duration>240</duration>
                <tie type="start"/>
                <type>eighth</type>
                <stem default-y="-15">up</stem>
                <beam number="1">continue</beam>
                <notations>
                    <tied orientation="under" type="start"/>
                </notations>
            </note>
            <note default-x="91">
                <pitch>
                    <step>C</step>
                    <octave>4</octave>
                </pitch>
                <duration>960</duration>
                <tie type="stop"/>
                <type>half</type>
                <stem default-y="-15">up</stem>
                <notations>
                    <tied type="stop"/>
                </notations>
            </note>
            <note default-x="137">
                <rest/>
                <duration>240</duration>
                <type>eighth</type>
            </note>
            <note default-x="162" release="-7" dynamics="75">
                <pitch>
                    <step>C</step>
                    <octave>5</octave>
                </pitch>
                <duration>240</duration>
                <type>eighth</type>
                <stem default-y="-50">down</stem>
            </note>
        </measure>
        <measure width="222" number="10">
            <print new-system="yes">
                <system-layout>
                    <system-margins>
                        <left-margin>-6</left-margin>
                        <right-margin>0</right-margin>
                    </system-margins>
                    <system-distance>94</system-distance>
                </system-layout>
            </print>
            <attributes>
                <staff-details print-object="yes"/>
            </attributes>
            <note default-x="67" release="-7" dynamics="75">
                <pitch>
                    <step>E</step>
                    <octave>5</octave>
                </pitch>
                <duration>240</duration>
                <type>eighth</type>
                <stem default-y="-40">down</stem>
                <beam number="1">begin</beam>
            </note>
            <note default-x="95" release="-7" dynamics="75">
                <pitch>
                    <step>C</step>
                    <octave>5</octave>
                </pitch>
                <duration>240</duration>
                <tie type="start"/>
                <type>eighth</type>
                <stem default-y="-50">down</stem>
                <beam number="1">continue</beam>
                <notations>
                    <tied orientation="over" type="start"/>
                </notations>
            </note>
            <note default-x="123">
                <pitch>
                    <step>C</step>
                    <octave>5</octave>
                </pitch>
                <duration>960</duration>
                <tie type="stop"/>
                <type>half</type>
                <stem default-y="-50">down</stem>
                <notations>
                    <tied type="stop"/>
                </notations>
            </note>
            <note default-x="177">
                <rest/>
                <duration>480</duration>
                <type>quarter</type>
            </note>
        </measure>
        <measure width="196" number="11">
            <attributes>
                <staff-details print-object="yes"/>
            </attributes>
            <harmony default-y="14">
                <root>
                    <root-step>C</root-step>
                </root>
                <kind use-symbols="no" text="6">6</kind>
            </harmony>
            <note default-x="37" release="-7" dynamics="75">
                <pitch>
                    <step>A</step>
                    <octave>4</octave>
                </pitch>
                <duration>240</duration>
                <type>eighth</type>
                <stem default-y="10">up</stem>
                <beam number="1">begin</beam>
                <lyric number="1">
                    <syllabic>single</syllabic>
                    <text>Hold</text>
                </lyric>
            </note>
            <note default-x="83" release="-7" dynamics="75">
                <pitch>
                    <step>G</step>
                    <octave>4</octave>
                </pitch>
                <duration>240</duration>
                <tie type="start"/>
                <type>eighth</type>
                <stem default-y="5">up</stem>
                <beam number="1">continue</beam>
                <notations>
                    <tied orientation="under" type="start"/>
                </notations>
                <lyric number="1">
                    <syllabic>single</syllabic>
                    <text>me,</text>
                </lyric>
            </note>
            <harmony default-y="14">
                <root>
                    <root-step>C</root-step>
                </root>
                <kind use-symbols="no" text=" "> </kind>
            </harmony>
            <note default-x="120">
                <pitch>
                    <step>G</step>
                    <octave>4</octave>
                </pitch>
                <duration>1440</duration>
                <tie type="stop"/>
                <type>half</type>
                <dot/>
                <stem default-y="5">up</stem>
                <notations>
                    <tied type="stop"/>
                </notations>
            </note>
        </measure>
        <measure width="209" number="12">
            <attributes>
                <staff-details print-object="yes"/>
            </attributes>
            <harmony default-y="14">
                <root>
                    <root-step>F</root-step>
                </root>
                <kind use-symbols="no" text="maj7">maj7</kind>
            </harmony>
            <note default-x="52" release="-7" dynamics="75">
                <pitch>
                    <step>E</step>
                    <octave>4</octave>
                </pitch>
                <duration>240</duration>
                <type>eighth</type>
                <stem default-y="-5">up</stem>
                <beam number="1">begin</beam>
                <lyric number="1">
                    <syllabic>single</syllabic>
                    <text>kiss</text>
                </lyric>
            </note>
            <note default-x="95" release="-7" dynamics="75">
                <pitch>
                    <step>D</step>
                    <octave>4</octave>
                </pitch>
                <duration>240</duration>
                <tie type="start"/>
                <type>eighth</type>
                <stem default-y="-10">up</stem>
                <beam number="1">continue</beam>
                <notations>
                    <tied orientation="under" type="start"/>
                </notations>
                <lyric number="1">
                    <syllabic>single</syllabic>
                    <text>me,</text>
                </lyric>
            </note>
            <harmony default-y="14">
                <root>
                    <root-step>F</root-step>
                </root>
                <kind use-symbols="no" text="6">6</kind>
            </harmony>
            <note default-x="132">
                <pitch>
                    <step>D</step>
                    <octave>4</octave>
                </pitch>
                <duration>1440</duration>
                <tie type="stop"/>
                <type>half</type>
                <dot/>
                <stem default-y="-10">up</stem>
                <notations>
                    <tied type="stop"/>
                </notations>
            </note>
        </measure>
        <measure width="191" number="13">
            <attributes>
                <staff-details print-object="yes"/>
            </attributes>
            <harmony default-y="14">
                <root>
                    <root-step>C</root-step>
                </root>
                <kind use-symbols="no" text="6">6</kind>
            </harmony>
            <note default-x="36" release="-7" dynamics="75">
                <pitch>
                    <step>A</step>
                    <octave>4</octave>
                </pitch>
                <duration>240</duration>
                <type>eighth</type>
                <stem default-y="10">up</stem>
                <beam number="1">begin</beam>
                <lyric number="1">
                    <syllabic>begin</syllabic>
                    <text>wis</text>
                </lyric>
            </note>
            <note default-x="78" release="-7" dynamics="75">
                <pitch>
                    <step>G</step>
                    <octave>4</octave>
                </pitch>
                <duration>240</duration>
                <tie type="start"/>
                <type>eighth</type>
                <stem default-y="5">up</stem>
                <beam number="1">continue</beam>
                <notations>
                    <tied orientation="under" type="start"/>
                </notations>
                <lyric number="1">
                    <syllabic>single</syllabic>
                    <text>per</text>
                </lyric>
            </note>
            <harmony default-y="14">
                <root>
                    <root-step>C</root-step>
                </root>
                <kind use-symbols="no" text=" "> </kind>
            </harmony>
            <note default-x="115">
                <pitch>
                    <step>G</step>
                    <octave>4</octave>
                </pitch>
                <duration>1440</duration>
                <tie type="stop"/>
                <type>half</type>
                <dot/>
                <stem default-y="5">up</stem>
                <notations>
                    <tied type="stop"/>
                </notations>
            </note>
        </measure>
        <measure width="215" number="14">
            <attributes>
                <staff-details print-object="yes"/>
            </attributes>
            <harmony default-y="14">
                <root>
                    <root-step>F</root-step>
                </root>
                <kind use-symbols="no" text="maj7">maj7</kind>
            </harmony>
            <note default-x="52" release="-7" dynamics="75">
                <pitch>
                    <step>E</step>
                    <octave>4</octave>
                </pitch>
                <duration>240</duration>
                <type>eighth</type>
                <stem default-y="-5">up</stem>
                <beam number="1">begin</beam>
                <lyric number="1">
                    <syllabic>begin</syllabic>
                    <text>sweet</text>
                </lyric>
            </note>
            <note default-x="98" release="-7" dynamics="75">
                <pitch>
                    <step>D</step>
                    <octave>4</octave>
                </pitch>
                <duration>240</duration>
                <tie type="start"/>
                <type>eighth</type>
                <stem default-y="-10">up</stem>
                <beam number="1">continue</beam>
                <notations>
                    <tied orientation="under" type="start"/>
                </notations>
                <lyric number="1">
                    <syllabic>single</syllabic>
                    <text>ly</text>
                </lyric>
            </note>
            <harmony default-y="14">
                <root>
                    <root-step>F</root-step>
                </root>
                <kind use-symbols="no" text="6">6</kind>
            </harmony>
            <note default-x="135">
                <pitch>
                    <step>D</step>
                    <octave>4</octave>
                </pitch>
                <duration>1440</duration>
                <tie type="stop"/>
                <type>half</type>
                <dot/>
                <stem default-y="-10">up</stem>
                <notations>
                    <tied type="stop"/>
                </notations>
            </note>
        </measure>
        <measure width="229" number="15">
            <print new-system="yes">
                <system-layout>
                    <system-margins>
                        <left-margin>-6</left-margin>
                        <right-margin>0</right-margin>
                    </system-margins>
                    <system-distance>112</system-distance>
                </system-layout>
            </print>
            <attributes>
                <staff-details print-object="yes"/>
            </attributes>
            <harmony default-y="14">
                <root>
                    <root-step>C</root-step>
                </root>
                <kind use-symbols="no" text="6">6</kind>
            </harmony>
            <note default-x="81" release="-7" dynamics="75">
                <pitch>
                    <step>A</step>
                    <octave>4</octave>
                </pitch>
                <duration>240</duration>
                <type>eighth</type>
                <stem default-y="10">up</stem>
                <beam number="1">begin</beam>
                <lyric number="1">
                    <syllabic>single</syllabic>
                    <text>that</text>
                </lyric>
            </note>
            <note default-x="123" release="-7" dynamics="75">
                <pitch>
                    <step>G</step>
                    <octave>4</octave>
                </pitch>
                <duration>240</duration>
                <tie type="start"/>
                <type>eighth</type>
                <stem default-y="5">up</stem>
                <beam number="1">continue</beam>
                <notations>
                    <tied orientation="under" type="start"/>
                </notations>
                <lyric number="1">
                    <syllabic>single</syllabic>
                    <text>you</text>
                </lyric>
            </note>
            <harmony default-y="14">
                <root>
                    <root-step>C</root-step>
                </root>
                <kind use-symbols="no" text=" "> </kind>
            </harmony>
            <note default-x="159">
                <pitch>
                    <step>G</step>
                    <octave>4</octave>
                </pitch>
                <duration>1440</duration>
                <tie type="stop"/>
                <type>half</type>
                <dot/>
                <stem default-y="5">up</stem>
                <notations>
                    <tied type="stop"/>
                </notations>
            </note>
        </measure>
        <measure width="233" number="16">
            <attributes>
                <staff-details print-object="yes"/>
            </attributes>
            <harmony default-y="14">
                <root>
                    <root-step>F</root-step>
                </root>
                <kind use-symbols="no" text="maj7">maj7</kind>
            </harmony>
            <note default-x="51" release="-7" dynamics="75">
                <pitch>
                    <step>E</step>
                    <octave>4</octave>
                </pitch>
                <duration>240</duration>
                <type>eighth</type>
                <stem default-y="-5">up</stem>
                <beam number="1">begin</beam>
                <lyric number="1">
                    <syllabic>single</syllabic>
                    <text>love</text>
                </lyric>
            </note>
            <note default-x="91" release="-7" dynamics="75">
                <pitch>
                    <step>D</step>
                    <octave>4</octave>
                </pitch>
                <duration>240</duration>
                <tie type="start"/>
                <type>eighth</type>
                <stem default-y="-10">up</stem>
                <beam number="1">continue</beam>
                <notations>
                    <tied orientation="under" type="start"/>
                </notations>
                <lyric number="1">
                    <syllabic>single</syllabic>
                    <text>me</text>
                </lyric>
            </note>
            <harmony default-y="14">
                <root>
                    <root-step>F</root-step>
                </root>
                <kind use-symbols="no" text="6">6</kind>
            </harmony>
            <note default-x="127">
                <pitch>
                    <step>D</step>
                    <octave>4</octave>
                </pitch>
                <duration>960</duration>
                <tie type="stop"/>
                <type>half</type>
                <stem default-y="-10">up</stem>
                <notations>
                    <tied type="stop"/>
                </notations>
            </note>
            <note default-x="175">
                <rest/>
                <duration>240</duration>
                <type>eighth</type>
            </note>
            <note default-x="201" release="-7" dynamics="75">
                <pitch>
                    <step>C</step>
                    <octave>4</octave>
                </pitch>
                <duration>240</duration>
                <type>eighth</type>
                <stem default-y="-15">up</stem>
                <lyric number="1">
                    <syllabic>begin</syllabic>
                    <text>for</text>
                </lyric>
            </note>
        </measure>
        <measure width="206" number="17">
            <attributes>
                <staff-details print-object="yes"/>
            </attributes>
            <harmony default-y="14">
                <root>
                    <root-step>C</root-step>
                </root>
                <kind use-symbols="no" text=" "> </kind>
            </harmony>
            <note default-x="30" release="-7" dynamics="75">
                <pitch>
                    <step>E</step>
                    <octave>4</octave>
                </pitch>
                <duration>240</duration>
                <type>eighth</type>
                <stem default-y="-5">up</stem>
                <beam number="1">begin</beam>
                <lyric number="1">
                    <syllabic>single</syllabic>
                    <text>e-</text>
                </lyric>
            </note>
            <note default-x="62" release="-7" dynamics="75">
                <pitch>
                    <step>C</step>
                    <octave>4</octave>
                </pitch>
                <duration>240</duration>
                <tie type="start"/>
                <type>eighth</type>
                <stem default-y="-15">up</stem>
                <beam number="1">continue</beam>
                <notations>
                    <tied orientation="under" type="start"/>
                </notations>
                <lyric number="1">
                    <syllabic>single</syllabic>
                    <text>ver.</text>
                </lyric>
            </note>
            <note default-x="100">
                <pitch>
                    <step>C</step>
                    <octave>4</octave>
                </pitch>
                <duration>960</duration>
                <tie type="stop"/>
                <type>half</type>
                <stem default-y="-15">up</stem>
                <notations>
                    <tied type="stop"/>
                </notations>
            </note>
            <note default-x="149">
                <rest/>
                <duration>240</duration>
                <type>eighth</type>
            </note>
            <note default-x="174" release="-7" dynamics="75">
                <pitch>
                    <step>C</step>
                    <octave>5</octave>
                </pitch>
                <duration>240</duration>
                <type>eighth</type>
                <stem default-y="-50">down</stem>
            </note>
        </measure>
        <measure width="178" number="18">
            <attributes>
                <staff-details print-object="yes"/>
            </attributes>
            <harmony default-y="14">
                <root>
                    <root-step>C</root-step>
                </root>
                <kind use-symbols="no" text="7">7</kind>
            </harmony>
            <note default-x="35" release="-7" dynamics="75">
                <pitch>
                    <step>E</step>
                    <octave>5</octave>
                </pitch>
                <duration>240</duration>
                <type>eighth</type>
                <stem default-y="-40">down</stem>
                <beam number="1">begin</beam>
            </note>
            <note default-x="61" release="-7" dynamics="75">
                <pitch>
                    <step>C</step>
                    <octave>5</octave>
                </pitch>
                <duration>240</duration>
                <tie type="start"/>
                <type>eighth</type>
                <stem default-y="-50">down</stem>
                <beam number="1">continue</beam>
                <notations>
                    <tied orientation="over" type="start"/>
                </notations>
            </note>
            <note default-x="87">
                <pitch>
                    <step>C</step>
                    <octave>5</octave>
                </pitch>
                <duration>960</duration>
                <tie type="stop"/>
                <type>half</type>
                <stem default-y="-50">down</stem>
                <notations>
                    <tied type="stop"/>
                </notations>
            </note>
            <note default-x="136">
                <rest/>
                <duration>480</duration>
                <type>quarter</type>
            </note>
        </measure>
        <measure width="188" number="19">
            <attributes>
                <staff-details print-object="yes"/>
            </attributes>
            <harmony default-y="14">
                <root>
                    <root-step>F</root-step>
                </root>
                <kind use-symbols="no" text=" "> </kind>
            </harmony>
            <note default-x="29" release="-7" dynamics="75">
                <pitch>
                    <step>D</step>
                    <octave>5</octave>
                </pitch>
                <duration>240</duration>
                <type>eighth</type>
                <stem default-y="-45">down</stem>
                <beam number="1">begin</beam>
            </note>
            <note default-x="55" release="-7" dynamics="75">
                <pitch>
                    <step>C</step>
                    <octave>5</octave>
                </pitch>
                <duration>240</duration>
                <tie type="start"/>
                <type>eighth</type>
                <stem default-y="-50">down</stem>
                <beam number="1">continue</beam>
                <notations>
                    <tied orientation="over" type="start"/>
                </notations>
            </note>
            <note default-x="81">
                <pitch>
                    <step>C</step>
                    <octave>5</octave>
                </pitch>
                <duration>960</duration>
                <tie type="stop"/>
                <type>half</type>
                <stem default-y="-50">down</stem>
                <notations>
                    <tied type="stop"/>
                </notations>
            </note>
            <note default-x="130" release="-7" dynamics="75">
                <pitch>
                    <step>C</step>
                    <octave>5</octave>
                </pitch>
                <duration>240</duration>
                <type>eighth</type>
                <stem default-y="-50">down</stem>
                <beam number="1">begin</beam>
            </note>
            <note default-x="155" release="-7" dynamics="75">
                <pitch>
                    <step>D</step>
                    <octave>5</octave>
                </pitch>
                <duration>240</duration>
                <type>eighth</type>
                <stem default-y="-45">down</stem>
                <beam number="1">continue</beam>
            </note>
        </measure>
        <measure width="214" number="20">
            <print new-system="yes">
                <system-layout>
                    <system-margins>
                        <left-margin>-6</left-margin>
                        <right-margin>0</right-margin>
                    </system-margins>
                    <system-distance>117</system-distance>
                </system-layout>
            </print>
            <attributes>
                <staff-details print-object="yes"/>
            </attributes>
            <harmony default-y="14">
                <root>
                    <root-step>F</root-step>
                </root>
                <kind use-symbols="no" text="7">7</kind>
            </harmony>
            <note default-x="81" release="-7" dynamics="75">
                <pitch>
                    <step>E</step>
                    <alter>-1</alter>
                    <octave>5</octave>
                </pitch>
                <duration>240</duration>
                <type>eighth</type>
                <accidental>flat</accidental>
                <stem default-y="-40">down</stem>
                <beam number="1">begin</beam>
            </note>
            <note default-x="109" release="-7" dynamics="75">
                <pitch>
                    <step>C</step>
                    <octave>5</octave>
                </pitch>
                <duration>240</duration>
                <tie type="start"/>
                <type>eighth</type>
                <stem default-y="-50">down</stem>
                <beam number="1">continue</beam>
                <notations>
                    <tied orientation="over" type="start"/>
                </notations>
            </note>
            <harmony default-y="14">
                <root>
                    <root-step>C</root-step>
                </root>
                <kind use-symbols="no" text="min">min</kind>
            </harmony>
            <note default-x="141">
                <pitch>
                    <step>C</step>
                    <octave>5</octave>
                </pitch>
                <duration>1440</duration>
                <tie type="stop"/>
                <type>half</type>
                <dot/>
                <stem default-y="-50">down</stem>
                <notations>
                    <tied type="stop"/>
                </notations>
            </note>
        </measure>
        <measure width="214" number="21">
            <attributes>
                <staff-details print-object="yes"/>
            </attributes>
            <harmony default-y="14">
                <root>
                    <root-step>E</root-step>
                </root>
                <kind use-symbols="no" text="min">min</kind>
            </harmony>
            <note default-x="47" release="-7" dynamics="75">
                <pitch>
                    <step>A</step>
                    <octave>4</octave>
                </pitch>
                <duration>240</duration>
                <type>eighth</type>
                <stem default-y="10">up</stem>
                <beam number="1">begin</beam>
            </note>
            <note default-x="80" release="-7" dynamics="75">
                <pitch>
                    <step>G</step>
                    <octave>4</octave>
                </pitch>
                <duration>240</duration>
                <tie type="start"/>
                <type>eighth</type>
                <stem default-y="5">up</stem>
                <beam number="1">continue</beam>
                <notations>
                    <tied orientation="under" type="start"/>
                </notations>
            </note>
            <note default-x="117">
                <pitch>
                    <step>G</step>
                    <octave>4</octave>
                </pitch>
                <duration>960</duration>
                <tie type="stop"/>
                <type>half</type>
                <stem default-y="5">up</stem>
                <notations>
                    <tied type="stop"/>
                </notations>
            </note>
            <note default-x="169" release="-7" dynamics="75">
                <pitch>
                    <step>A</step>
                    <octave>4</octave>
                </pitch>
                <duration>480</duration>
                <type>quarter</type>
                <stem default-y="10">up</stem>
            </note>
        </measure>
        <measure width="197" number="22">
            <attributes>
                <staff-details print-object="yes"/>
            </attributes>
            <harmony default-y="14">
                <root>
                    <root-step>C</root-step>
                </root>
                <kind use-symbols="no" text="7">7</kind>
            </harmony>
            <note default-x="35" release="-7" dynamics="75">
                <pitch>
                    <step>B</step>
                    <alter>-1</alter>
                    <octave>4</octave>
                </pitch>
                <duration>480</duration>
                <type>quarter</type>
                <accidental>flat</accidental>
                <stem default-y="-50">down</stem>
            </note>
            <note default-x="74" release="-7" dynamics="75">
                <pitch>
                    <step>C</step>
                    <octave>4</octave>
                </pitch>
                <duration>480</duration>
                <type>quarter</type>
                <stem default-y="-15">up</stem>
            </note>
            <note default-x="113" release="-7" dynamics="75">
                <pitch>
                    <step>E</step>
                    <octave>4</octave>
                </pitch>
                <duration>480</duration>
                <type>quarter</type>
                <stem default-y="-5">up</stem>
            </note>
            <note default-x="152" release="-7" dynamics="75">
                <pitch>
                    <step>G</step>
                    <octave>4</octave>
                </pitch>
                <duration>480</duration>
                <type>quarter</type>
                <stem default-y="5">up</stem>
            </note>
        </measure>
        <measure width="219" number="23">
            <attributes>
                <staff-details print-object="yes"/>
            </attributes>
            <harmony default-y="14">
                <root>
                    <root-step>F</root-step>
                </root>
                <kind use-symbols="no" text=" "> </kind>
            </harmony>
            <note default-x="29" release="-7" dynamics="75">
                <pitch>
                    <step>D</step>
                    <octave>5</octave>
                </pitch>
                <duration>240</duration>
                <type>eighth</type>
                <stem default-y="-45">down</stem>
                <beam number="1">begin</beam>
            </note>
            <note default-x="57" release="-7" dynamics="75">
                <pitch>
                    <step>C</step>
                    <octave>5</octave>
                </pitch>
                <duration>240</duration>
                <tie type="start"/>
                <type>eighth</type>
                <stem default-y="-50">down</stem>
                <beam number="1">continue</beam>
                <notations>
                    <tied orientation="over" type="start"/>
                </notations>
            </note>
            <note default-x="85">
                <pitch>
                    <step>C</step>
                    <octave>5</octave>
                </pitch>
                <duration>960</duration>
                <tie type="stop"/>
                <type>half</type>
                <stem default-y="-50">down</stem>
                <notations>
                    <tied type="stop"/>
                </notations>
            </note>
            <note default-x="137" release="-7" dynamics="75">
                <pitch>
                    <step>C</step>
                    <octave>5</octave>
                </pitch>
                <duration>160</duration>
                <type>eighth</type>
                <time-modification>
                    <actual-notes>3</actual-notes>
                    <normal-notes>2</normal-notes>
                </time-modification>
                <stem default-y="-50">down</stem>
                <beam number="1">begin</beam>
                <notations>
                    <tuplet placement="below" line-shape="straight" type="start" show-number="actual" number="1" bracket="yes"/>
                </notations>
            </note>
            <note default-x="162" release="-7" dynamics="75">
                <pitch>
                    <step>C</step>
                    <alter>1</alter>
                    <octave>5</octave>
                </pitch>
                <duration>160</duration>
                <type>eighth</type>
                <accidental>sharp</accidental>
                <time-modification>
                    <actual-notes>3</actual-notes>
                    <normal-notes>2</normal-notes>
                </time-modification>
                <stem default-y="-50">down</stem>
                <beam number="1">continue</beam>
            </note>
            <note default-x="187" release="-7" dynamics="75">
                <pitch>
                    <step>D</step>
                    <octave>5</octave>
                </pitch>
                <duration>160</duration>
                <type>eighth</type>
                <time-modification>
                    <actual-notes>3</actual-notes>
                    <normal-notes>2</normal-notes>
                </time-modification>
                <stem default-y="-45">down</stem>
                <beam number="1">continue</beam>
                <notations>
                    <tuplet type="stop" number="1"/>
                </notations>
            </note>
        </measure>
        <measure width="190" number="24">
            <attributes>
                <staff-details print-object="yes"/>
            </attributes>
            <harmony default-y="14">
                <root>
                    <root-step>F</root-step>
                </root>
                <kind use-symbols="no" text="7">7</kind>
            </harmony>
            <note default-x="35" release="-7" dynamics="75">
                <pitch>
                    <step>E</step>
                    <alter>-1</alter>
                    <octave>5</octave>
                </pitch>
                <duration>240</duration>
                <type>eighth</type>
                <accidental>flat</accidental>
                <stem default-y="-40">down</stem>
                <beam number="1">begin</beam>
            </note>
            <note default-x="62" release="-7" dynamics="75">
                <pitch>
                    <step>C</step>
                    <octave>5</octave>
                </pitch>
                <duration>240</duration>
                <tie type="start"/>
                <type>eighth</type>
                <stem default-y="-50">down</stem>
                <beam number="1">continue</beam>
                <notations>
                    <tied orientation="over" type="start"/>
                </notations>
            </note>
            <note default-x="90">
                <pitch>
                    <step>C</step>
                    <octave>5</octave>
                </pitch>
                <duration>960</duration>
                <tie type="stop"/>
                <type>half</type>
                <stem default-y="-50">down</stem>
                <notations>
                    <tied type="stop"/>
                </notations>
            </note>
            <note default-x="143">
                <rest/>
                <duration>480</duration>
                <type>quarter</type>
            </note>
        </measure>
        <measure width="234" number="25">
            <print new-system="yes">
                <system-layout>
                    <system-margins>
                        <left-margin>-6</left-margin>
                        <right-margin>0</right-margin>
                    </system-margins>
                    <system-distance>84</system-distance>
                </system-layout>
            </print>
            <attributes>
                <staff-details print-object="yes"/>
            </attributes>
            <harmony default-y="14">
                <root>
                    <root-step>D</root-step>
                </root>
                <kind use-symbols="no" text="7">7</kind>
            </harmony>
            <note default-x="82" release="-7" dynamics="75">
                <pitch>
                    <step>E</step>
                    <octave>5</octave>
                </pitch>
                <duration>240</duration>
                <type>eighth</type>
                <stem default-y="-40">down</stem>
                <beam number="1">begin</beam>
            </note>
            <note default-x="110" release="-7" dynamics="75">
                <pitch>
                    <step>D</step>
                    <octave>5</octave>
                </pitch>
                <duration>240</duration>
                <tie type="start"/>
                <type>eighth</type>
                <stem default-y="-45">down</stem>
                <beam number="1">continue</beam>
                <notations>
                    <tied orientation="over" type="start"/>
                </notations>
            </note>
            <note default-x="137">
                <pitch>
                    <step>D</step>
                    <octave>5</octave>
                </pitch>
                <duration>960</duration>
                <tie type="stop"/>
                <type>half</type>
                <stem default-y="-45">down</stem>
                <notations>
                    <tied type="stop"/>
                </notations>
            </note>
            <note default-x="189">
                <rest/>
                <duration>480</duration>
                <type>quarter</type>
            </note>
        </measure>
        <measure width="183" number="26">
            <attributes>
                <staff-details print-object="yes"/>
            </attributes>
            <harmony default-y="14">
                <root>
                    <root-step>G</root-step>
                </root>
                <kind use-symbols="no" text=" "> </kind>
            </harmony>
            <note default-x="31" release="-7" dynamics="75">
                <pitch>
                    <step>E</step>
                    <octave>5</octave>
                </pitch>
                <duration>240</duration>
                <type>eighth</type>
                <stem default-y="-40">down</stem>
                <beam number="1">begin</beam>
            </note>
            <note default-x="58" release="-7" dynamics="75">
                <pitch>
                    <step>D</step>
                    <octave>5</octave>
                </pitch>
                <duration>240</duration>
                <tie type="start"/>
                <type>eighth</type>
                <stem default-y="-45">down</stem>
                <beam number="1">continue</beam>
                <notations>
                    <tied orientation="over" type="start"/>
                </notations>
            </note>
            <note default-x="86">
                <pitch>
                    <step>D</step>
                    <octave>5</octave>
                </pitch>
                <duration>960</duration>
                <tie type="stop"/>
                <type>half</type>
                <stem default-y="-45">down</stem>
                <notations>
                    <tied type="stop"/>
                </notations>
            </note>
            <note default-x="138">
                <rest/>
                <duration>480</duration>
                <type>quarter</type>
            </note>
        </measure>
        <measure width="196" number="27">
            <attributes>
                <staff-details print-object="yes"/>
            </attributes>
            <harmony default-y="14">
                <root>
                    <root-step>C</root-step>
                </root>
                <kind use-symbols="no" text="6">6</kind>
            </harmony>
            <note default-x="35" release="-7" dynamics="75">
                <pitch>
                    <step>A</step>
                    <octave>4</octave>
                </pitch>
                <duration>240</duration>
                <type>eighth</type>
                <stem default-y="10">up</stem>
                <beam number="1">begin</beam>
            </note>
            <note default-x="63" release="-7" dynamics="75">
                <pitch>
                    <step>G</step>
                    <octave>4</octave>
                </pitch>
                <duration>240</duration>
                <tie type="start"/>
                <type>eighth</type>
                <stem default-y="5">up</stem>
                <beam number="1">continue</beam>
                <notations>
                    <tied orientation="under" type="start"/>
                </notations>
            </note>
            <harmony default-y="14">
                <root>
                    <root-step>C</root-step>
                </root>
                <kind use-symbols="no" text=" "> </kind>
            </harmony>
            <note default-x="99">
                <pitch>
                    <step>G</step>
                    <octave>4</octave>
                </pitch>
                <duration>960</duration>
                <tie type="stop"/>
                <type>half</type>
                <stem default-y="5">up</stem>
                <notations>
                    <tied type="stop"/>
                </notations>
            </note>
            <note default-x="152">
                <rest/>
                <duration>480</duration>
                <type>quarter</type>
            </note>
        </measure>
        <measure width="223" number="28">
            <attributes>
                <staff-details print-object="yes"/>
            </attributes>
            <harmony default-y="14">
                <root>
                    <root-step>F</root-step>
                </root>
                <kind use-symbols="no" text="maj7">maj7</kind>
            </harmony>
            <note default-x="51" release="-7" dynamics="75">
                <pitch>
                    <step>E</step>
                    <octave>4</octave>
                </pitch>
                <duration>240</duration>
                <type>eighth</type>
                <stem default-y="-5">up</stem>
                <beam number="1">begin</beam>
            </note>
            <note default-x="89" release="-7" dynamics="75">
                <pitch>
                    <step>D</step>
                    <octave>4</octave>
                </pitch>
                <duration>240</duration>
                <tie type="start"/>
                <type>eighth</type>
                <stem default-y="-10">up</stem>
                <beam number="1">continue</beam>
                <notations>
                    <tied orientation="under" type="start"/>
                </notations>
            </note>
            <harmony default-y="14">
                <root>
                    <root-step>F</root-step>
                </root>
                <kind use-symbols="no" text="6">6</kind>
            </harmony>
            <note default-x="126">
                <pitch>
                    <step>D</step>
                    <octave>4</octave>
                </pitch>
                <duration>960</duration>
                <tie type="stop"/>
                <type>half</type>
                <stem default-y="-10">up</stem>
                <notations>
                    <tied type="stop"/>
                </notations>
            </note>
            <note default-x="178">
                <rest/>
                <duration>480</duration>
                <type>quarter</type>
            </note>
        </measure>
        <measure width="198" number="29">
            <attributes>
                <staff-details print-object="yes"/>
            </attributes>
            <harmony default-y="14">
                <root>
                    <root-step>C</root-step>
                </root>
                <kind use-symbols="no" text="6">6</kind>
            </harmony>
            <note default-x="35" release="-7" dynamics="75">
                <pitch>
                    <step>A</step>
                    <octave>4</octave>
                </pitch>
                <duration>240</duration>
                <type>eighth</type>
                <stem default-y="10">up</stem>
                <beam number="1">begin</beam>
            </note>
            <note default-x="63" release="-7" dynamics="75">
                <pitch>
                    <step>G</step>
                    <octave>4</octave>
                </pitch>
                <duration>240</duration>
                <tie type="start"/>
                <type>eighth</type>
                <stem default-y="5">up</stem>
                <beam number="1">continue</beam>
                <notations>
                    <tied orientation="under" type="start"/>
                </notations>
            </note>
            <harmony default-y="14">
                <root>
                    <root-step>C</root-step>
                </root>
                <kind use-symbols="no" text=" "> </kind>
            </harmony>
            <note default-x="99">
                <pitch>
                    <step>G</step>
                    <octave>4</octave>
                </pitch>
                <duration>960</duration>
                <tie type="stop"/>
                <type>half</type>
                <stem default-y="5">up</stem>
                <notations>
                    <tied type="stop"/>
                </notations>
            </note>
            <note default-x="152">
                <rest/>
                <duration>480</duration>
                <type>quarter</type>
            </note>
        </measure>
        <measure width="262" number="30">
            <print new-system="yes">
                <system-layout>
                    <system-margins>
                        <left-margin>-6</left-margin>
                        <right-margin>0</right-margin>
                    </system-margins>
                    <system-distance>89</system-distance>
                </system-layout>
            </print>
            <attributes>
                <staff-details print-object="yes"/>
            </attributes>
            <harmony default-y="14">
                <root>
                    <root-step>F</root-step>
                </root>
                <kind use-symbols="no" text="maj7">maj7</kind>
            </harmony>
            <note default-x="97" release="-7" dynamics="75">
                <pitch>
                    <step>E</step>
                    <octave>4</octave>
                </pitch>
                <duration>240</duration>
                <type>eighth</type>
                <stem default-y="-5">up</stem>
                <beam number="1">begin</beam>
            </note>
            <note default-x="135" release="-7" dynamics="75">
                <pitch>
                    <step>D</step>
                    <octave>4</octave>
                </pitch>
                <duration>240</duration>
                <tie type="start"/>
                <type>eighth</type>
                <stem default-y="-10">up</stem>
                <beam number="1">continue</beam>
                <notations>
                    <tied orientation="under" type="start"/>
                </notations>
            </note>
            <harmony default-y="14">
                <root>
                    <root-step>F</root-step>
                </root>
                <kind use-symbols="no" text="6">6</kind>
            </harmony>
            <note default-x="171">
                <pitch>
                    <step>D</step>
                    <octave>4</octave>
                </pitch>
                <duration>960</duration>
                <tie type="stop"/>
                <type>half</type>
                <stem default-y="-10">up</stem>
                <notations>
                    <tied type="stop"/>
                </notations>
            </note>
            <note default-x="220">
                <rest/>
                <duration>480</duration>
                <type>quarter</type>
            </note>
        </measure>
        <measure width="188" number="31">
            <attributes>
                <staff-details print-object="yes"/>
            </attributes>
            <harmony default-y="14">
                <root>
                    <root-step>C</root-step>
                </root>
                <kind use-symbols="no" text="6">6</kind>
            </harmony>
            <note default-x="35" release="-7" dynamics="75">
                <pitch>
                    <step>A</step>
                    <octave>4</octave>
                </pitch>
                <duration>240</duration>
                <type>eighth</type>
                <stem default-y="10">up</stem>
                <beam number="1">begin</beam>
            </note>
            <note default-x="61" release="-7" dynamics="75">
                <pitch>
                    <step>G</step>
                    <octave>4</octave>
                </pitch>
                <duration>240</duration>
                <tie type="start"/>
                <type>eighth</type>
                <stem default-y="5">up</stem>
                <beam number="1">continue</beam>
                <notations>
                    <tied orientation="under" type="start"/>
                </notations>
            </note>
            <harmony default-y="14">
                <root>
                    <root-step>C</root-step>
                </root>
                <kind use-symbols="no" text=" "> </kind>
            </harmony>
            <note default-x="97">
                <pitch>
                    <step>G</step>
                    <octave>4</octave>
                </pitch>
                <duration>960</duration>
                <tie type="stop"/>
                <type>half</type>
                <stem default-y="5">up</stem>
                <notations>
                    <tied type="stop"/>
                </notations>
            </note>
            <note default-x="146">
                <rest/>
                <duration>480</duration>
                <type>quarter</type>
            </note>
        </measure>
        <measure width="232" number="32">
            <attributes>
                <staff-details print-object="yes"/>
            </attributes>
            <harmony default-y="14">
                <root>
                    <root-step>F</root-step>
                </root>
                <kind use-symbols="no" text="maj7">maj7</kind>
            </harmony>
            <note default-x="51" release="-7" dynamics="75">
                <pitch>
                    <step>E</step>
                    <octave>4</octave>
                </pitch>
                <duration>240</duration>
                <type>eighth</type>
                <stem default-y="-5">up</stem>
                <beam number="1">begin</beam>
            </note>
            <note default-x="89" release="-7" dynamics="75">
                <pitch>
                    <step>D</step>
                    <octave>4</octave>
                </pitch>
                <duration>240</duration>
                <tie type="start"/>
                <type>eighth</type>
                <stem default-y="-10">up</stem>
                <beam number="1">continue</beam>
                <notations>
                    <tied orientation="under" type="start"/>
                </notations>
            </note>
            <harmony default-y="14">
                <root>
                    <root-step>F</root-step>
                </root>
                <kind use-symbols="no" text="6">6</kind>
            </harmony>
            <note default-x="125">
                <pitch>
                    <step>D</step>
                    <octave>4</octave>
                </pitch>
                <duration>960</duration>
                <tie type="stop"/>
                <type>half</type>
                <stem default-y="-10">up</stem>
                <notations>
                    <tied type="stop"/>
                </notations>
            </note>
            <note default-x="174">
                <rest/>
                <duration>240</duration>
                <type>eighth</type>
            </note>
            <note default-x="200" release="-7" dynamics="75">
                <pitch>
                    <step>C</step>
                    <octave>4</octave>
                </pitch>
                <duration>240</duration>
                <type>eighth</type>
                <stem default-y="-15">up</stem>
                <lyric number="1">
                    <syllabic>begin</syllabic>
                    <text>For</text>
                </lyric>
            </note>
        </measure>
        <measure width="189" number="33">
            <attributes>
                <staff-details print-object="yes"/>
            </attributes>
            <harmony default-y="14">
                <root>
                    <root-step>C</root-step>
                </root>
                <kind use-symbols="no" text=" "> </kind>
            </harmony>
            <note default-x="30" release="-7" dynamics="75">
                <pitch>
                    <step>E</step>
                    <octave>4</octave>
                </pitch>
                <duration>240</duration>
                <type>eighth</type>
                <stem default-y="-5">up</stem>
                <beam number="1">begin</beam>
                <lyric number="1">
                    <syllabic>single</syllabic>
                    <text>e-</text>
                </lyric>
            </note>
            <note default-x="60" release="-7" dynamics="75">
                <pitch>
                    <step>C</step>
                    <octave>4</octave>
                </pitch>
                <duration>240</duration>
                <tie type="start"/>
                <type>eighth</type>
                <stem default-y="-15">up</stem>
                <beam number="1">continue</beam>
                <notations>
                    <tied orientation="under" type="start"/>
                </notations>
                <lyric number="1">
                    <syllabic>single</syllabic>
                    <text>ver</text>
                </lyric>
            </note>
            <harmony default-y="14">
                <root>
                    <root-step>A</root-step>
                </root>
                <kind use-symbols="no" text="min">min</kind>
            </harmony>
            <note default-x="98">
                <pitch>
                    <step>C</step>
                    <octave>4</octave>
                </pitch>
                <duration>960</duration>
                <tie type="stop"/>
                <type>half</type>
                <stem default-y="-15">up</stem>
                <notations>
                    <tied type="stop"/>
                </notations>
            </note>
            <note default-x="147">
                <rest/>
                <duration>480</duration>
                <type>quarter</type>
            </note>
        </measure>
        <measure width="162" number="34">
            <attributes>
                <key>
                    <fifths>2</fifths>
                </key>
                <staff-details print-object="yes"/>
            </attributes>
            <harmony default-y="14">
                <root>
                    <root-step>D</root-step>
                </root>
                <kind use-symbols="no" text=" "> </kind>
            </harmony>
            <note default-x="56" release="-7" dynamics="75">
                <pitch>
                    <step>A</step>
                    <octave>4</octave>
                </pitch>
                <duration>960</duration>
                <type>half</type>
                <stem default-y="10">up</stem>
            </note>
            <harmony default-y="14">
                <root>
                    <root-step>G</root-step>
                </root>
                <kind use-symbols="no" text="9">9</kind>
            </harmony>
            <note default-x="105" release="-7" dynamics="75">
                <pitch>
                    <step>C</step>
                    <alter>1</alter>
                    <octave>5</octave>
                </pitch>
                <duration>960</duration>
                <type>half</type>
                <stem default-y="-50">down</stem>
            </note>
        </measure>
        <measure width="265" number="35">
            <print new-system="yes">
                <system-layout>
                    <system-margins>
                        <left-margin>-6</left-margin>
                        <right-margin>0</right-margin>
                    </system-margins>
                    <system-distance>117</system-distance>
                </system-layout>
            </print>
            <attributes>
                <staff-details print-object="yes"/>
            </attributes>
            <harmony default-y="15">
                <root>
                    <root-step>D</root-step>
                </root>
                <kind use-symbols="no" text="6">6</kind>
            </harmony>
            <note default-x="113" release="-7" dynamics="75">
                <pitch>
                    <step>B</step>
                    <octave>4</octave>
                </pitch>
                <duration>240</duration>
                <type>eighth</type>
                <stem default-y="15">up</stem>
                <beam number="1">begin</beam>
                <lyric number="1">
                    <syllabic>single</syllabic>
                    <text>Hold</text>
                </lyric>
            </note>
            <note default-x="158" release="-7" dynamics="75">
                <pitch>
                    <step>A</step>
                    <octave>4</octave>
                </pitch>
                <duration>240</duration>
                <tie type="start"/>
                <type>eighth</type>
                <stem default-y="10">up</stem>
                <beam number="1">continue</beam>
                <notations>
                    <tied orientation="under" type="start"/>
                </notations>
                <lyric number="1">
                    <syllabic>single</syllabic>
                    <text>me,</text>
                </lyric>
            </note>
            <harmony relative-x="21" default-y="15">
                <root>
                    <root-step>D</root-step>
                </root>
                <kind use-symbols="no" text=" "> </kind>
            </harmony>
            <note default-x="193">
                <pitch>
                    <step>A</step>
                    <octave>4</octave>
                </pitch>
                <duration>1440</duration>
                <tie type="stop"/>
                <type>half</type>
                <dot/>
                <stem default-y="10">up</stem>
                <notations>
                    <tied type="stop"/>
                </notations>
            </note>
        </measure>
        <measure width="200" number="36">
            <attributes>
                <staff-details print-object="yes"/>
            </attributes>
            <harmony default-y="15">
                <root>
                    <root-step>G</root-step>
                </root>
                <kind use-symbols="no" text="maj7">maj7</kind>
            </harmony>
            <note default-x="51" release="-7" dynamics="75">
                <pitch>
                    <step>F</step>
                    <alter>1</alter>
                    <octave>4</octave>
                </pitch>
                <duration>240</duration>
                <type>eighth</type>
                <stem default-y="0">up</stem>
                <beam number="1">begin</beam>
                <lyric number="1">
                    <syllabic>single</syllabic>
                    <text>kiss</text>
                </lyric>
            </note>
            <note default-x="93" release="-7" dynamics="75">
                <pitch>
                    <step>E</step>
                    <octave>4</octave>
                </pitch>
                <duration>240</duration>
                <tie type="start"/>
                <type>eighth</type>
                <stem default-y="-5">up</stem>
                <beam number="1">continue</beam>
                <notations>
                    <tied orientation="under" type="start"/>
                </notations>
                <lyric number="1">
                    <syllabic>single</syllabic>
                    <text>me,</text>
                </lyric>
            </note>
            <harmony relative-x="21" default-y="15">
                <root>
                    <root-step>G</root-step>
                </root>
                <kind use-symbols="no" text="6">6</kind>
            </harmony>
            <note default-x="128">
                <pitch>
                    <step>E</step>
                    <octave>4</octave>
                </pitch>
                <duration>1440</duration>
                <tie type="stop"/>
                <type>half</type>
                <dot/>
                <stem default-y="-5">up</stem>
                <notations>
                    <tied type="stop"/>
                </notations>
            </note>
        </measure>
        <measure width="182" number="37">
            <attributes>
                <staff-details print-object="yes"/>
            </attributes>
            <harmony default-y="15">
                <root>
                    <root-step>D</root-step>
                </root>
                <kind use-symbols="no" text="6">6</kind>
            </harmony>
            <note default-x="34" release="-7" dynamics="75">
                <pitch>
                    <step>B</step>
                    <octave>4</octave>
                </pitch>
                <duration>240</duration>
                <type>eighth</type>
                <stem default-y="15">up</stem>
                <beam number="1">begin</beam>
                <lyric number="1">
                    <syllabic>begin</syllabic>
                    <text>wis</text>
                </lyric>
            </note>
            <note default-x="74" release="-7" dynamics="75">
                <pitch>
                    <step>A</step>
                    <octave>4</octave>
                </pitch>
                <duration>240</duration>
                <tie type="start"/>
                <type>eighth</type>
                <stem default-y="10">up</stem>
                <beam number="1">continue</beam>
                <notations>
                    <tied orientation="under" type="start"/>
                </notations>
                <lyric number="1">
                    <syllabic>single</syllabic>
                    <text>per</text>
                </lyric>
            </note>
            <harmony relative-x="21" default-y="15">
                <root>
                    <root-step>D</root-step>
                </root>
                <kind use-symbols="no" text=" "> </kind>
            </harmony>
            <note default-x="110">
                <pitch>
                    <step>A</step>
                    <octave>4</octave>
                </pitch>
                <duration>1440</duration>
                <tie type="stop"/>
                <type>half</type>
                <dot/>
                <stem default-y="10">up</stem>
                <notations>
                    <tied type="stop"/>
                </notations>
            </note>
        </measure>
        <measure width="203" number="38">
            <attributes>
                <staff-details print-object="yes"/>
            </attributes>
            <harmony default-y="15">
                <root>
                    <root-step>G</root-step>
                </root>
                <kind use-symbols="no" text="maj7">maj7</kind>
            </harmony>
            <note default-x="51" release="-7" dynamics="75">
                <pitch>
                    <step>F</step>
                    <alter>1</alter>
                    <octave>4</octave>
                </pitch>
                <duration>240</duration>
                <type>eighth</type>
                <stem default-y="0">up</stem>
                <beam number="1">begin</beam>
                <lyric number="1">
                    <syllabic>begin</syllabic>
                    <text>sweet</text>
                </lyric>
            </note>
            <note default-x="96" release="-7" dynamics="75">
                <pitch>
                    <step>E</step>
                    <octave>4</octave>
                </pitch>
                <duration>240</duration>
                <tie type="start"/>
                <type>eighth</type>
                <stem default-y="-5">up</stem>
                <beam number="1">continue</beam>
                <notations>
                    <tied orientation="under" type="start"/>
                </notations>
                <lyric number="1">
                    <syllabic>single</syllabic>
                    <text>ly</text>
                </lyric>
            </note>
            <harmony relative-x="21" default-y="15">
                <root>
                    <root-step>G</root-step>
                </root>
                <kind use-symbols="no" text="6">6</kind>
            </harmony>
            <note default-x="131">
                <pitch>
                    <step>E</step>
                    <octave>4</octave>
                </pitch>
                <duration>1440</duration>
                <tie type="stop"/>
                <type>half</type>
                <dot/>
                <stem default-y="-5">up</stem>
                <notations>
                    <tied type="stop"/>
                </notations>
            </note>
        </measure>
        <measure width="183" number="39">
            <attributes>
                <staff-details print-object="yes"/>
            </attributes>
            <harmony default-y="15">
                <root>
                    <root-step>D</root-step>
                </root>
                <kind use-symbols="no" text="6">6</kind>
            </harmony>
            <note default-x="34" release="-7" dynamics="75">
                <pitch>
                    <step>B</step>
                    <octave>4</octave>
                </pitch>
                <duration>240</duration>
                <type>eighth</type>
                <stem default-y="15">up</stem>
                <beam number="1">begin</beam>
                <lyric number="1">
                    <syllabic>single</syllabic>
                    <text>that</text>
                </lyric>
            </note>
            <note default-x="75" release="-7" dynamics="75">
                <pitch>
                    <step>A</step>
                    <octave>4</octave>
                </pitch>
                <duration>240</duration>
                <tie type="start"/>
                <type>eighth</type>
                <stem default-y="10">up</stem>
                <beam number="1">continue</beam>
                <notations>
                    <tied orientation="under" type="start"/>
                </notations>
                <lyric number="1">
                    <syllabic>single</syllabic>
                    <text>you</text>
                </lyric>
            </note>
            <harmony relative-x="21" default-y="15">
                <root>
                    <root-step>D</root-step>
                </root>
                <kind use-symbols="no" text=" "> </kind>
            </harmony>
            <note default-x="111">
                <pitch>
                    <step>A</step>
                    <octave>4</octave>
                </pitch>
                <duration>1440</duration>
                <tie type="stop"/>
                <type>half</type>
                <dot/>
                <stem default-y="10">up</stem>
                <notations>
                    <tied type="stop"/>
                </notations>
            </note>
        </measure>
        <measure width="330" number="40">
            <print new-system="yes">
                <system-layout>
                    <system-margins>
                        <left-margin>-6</left-margin>
                        <right-margin>0</right-margin>
                    </system-margins>
                    <system-distance>107</system-distance>
                </system-layout>
            </print>
            <attributes>
                <staff-details print-object="yes"/>
            </attributes>
            <harmony default-y="14">
                <root>
                    <root-step>G</root-step>
                </root>
                <kind use-symbols="no" text="maj7">maj7</kind>
            </harmony>
            <note default-x="121" release="-7" dynamics="75">
                <pitch>
                    <step>F</step>
                    <alter>1</alter>
                    <octave>4</octave>
                </pitch>
                <duration>240</duration>
                <type>eighth</type>
                <stem default-y="0">up</stem>
                <beam number="1">begin</beam>
                <lyric number="1">
                    <syllabic>single</syllabic>
                    <text>love</text>
                </lyric>
            </note>
            <note default-x="162" release="-1" dynamics="75">
                <pitch>
                    <step>E</step>
                    <octave>4</octave>
                </pitch>
                <duration>240</duration>
                <tie type="start"/>
                <type>eighth</type>
                <stem default-y="-5">up</stem>
                <beam number="1">continue</beam>
                <notations>
                    <tied orientation="under" type="start"/>
                </notations>
                <lyric number="1">
                    <syllabic>single</syllabic>
                    <text>me</text>
                </lyric>
            </note>
            <harmony relative-x="30" default-y="14">
                <root>
                    <root-step>G</root-step>
                </root>
                <kind use-symbols="no" text="6">6</kind>
            </harmony>
            <note default-x="199">
                <pitch>
                    <step>E</step>
                    <octave>4</octave>
                </pitch>
                <duration>960</duration>
                <tie type="stop"/>
                <type>half</type>
                <stem default-y="-5">up</stem>
                <notations>
                    <tied type="stop"/>
                </notations>
            </note>
            <note default-x="260">
                <rest/>
                <duration>240</duration>
                <type>eighth</type>
            </note>
            <note default-x="292" release="-7" dynamics="75">
                <pitch>
                    <step>D</step>
                    <octave>4</octave>
                </pitch>
                <duration>240</duration>
                <type>eighth</type>
                <stem default-y="-10">up</stem>
                <lyric number="1">
                    <syllabic>begin</syllabic>
                    <text>for</text>
                </lyric>
            </note>
        </measure>
        <measure width="233" number="41">
            <attributes>
                <staff-details print-object="yes"/>
            </attributes>
            <harmony default-y="14">
                <root>
                    <root-step>D</root-step>
                </root>
                <kind use-symbols="no" text=" "> </kind>
            </harmony>
            <note default-x="31" release="-7" dynamics="75">
                <pitch>
                    <step>F</step>
                    <alter>1</alter>
                    <octave>4</octave>
                </pitch>
                <duration>240</duration>
                <type>eighth</type>
                <stem default-y="0">up</stem>
                <beam number="1">begin</beam>
                <lyric number="1">
                    <syllabic>single</syllabic>
                    <text>e-</text>
                </lyric>
            </note>
            <note default-x="64" release="-7" dynamics="75">
                <pitch>
                    <step>D</step>
                    <octave>4</octave>
                </pitch>
                <duration>240</duration>
                <tie type="start"/>
                <type>eighth</type>
                <stem default-y="-10">up</stem>
                <beam number="1">continue</beam>
                <notations>
                    <tied orientation="under" type="start"/>
                </notations>
                <lyric number="1">
                    <syllabic>single</syllabic>
                    <text>ver.</text>
                </lyric>
            </note>
            <note default-x="101">
                <pitch>
                    <step>D</step>
                    <octave>4</octave>
                </pitch>
                <duration>960</duration>
                <tie type="stop"/>
                <type>half</type>
                <stem default-y="-10">up</stem>
                <notations>
                    <tied type="stop"/>
                </notations>
            </note>
            <note default-x="162">
                <rest/>
                <duration>240</duration>
                <type>eighth</type>
            </note>
            <note default-x="194" release="-7" dynamics="75">
                <pitch>
                    <step>D</step>
                    <octave>4</octave>
                </pitch>
                <duration>240</duration>
                <type>eighth</type>
                <stem default-y="-10">up</stem>
            </note>
        </measure>
        <measure width="153" number="42">
            <attributes>
                <staff-details print-object="yes"/>
            </attributes>
            <barline location="right">
                <bar-style>light-heavy</bar-style>
            </barline>
            <note default-x="19" release="-7" dynamics="75">
                <pitch>
                    <step>F</step>
                    <alter>1</alter>
                    <octave>4</octave>
                </pitch>
                <duration>480</duration>
                <type>quarter</type>
                <stem default-y="0">up</stem>
            </note>
            <note default-x="64" release="-7" dynamics="75">
                <pitch>
                    <step>D</step>
                    <octave>4</octave>
                </pitch>
                <duration>1440</duration>
                <type>half</type>
                <dot/>
                <stem default-y="-10">up</stem>
            </note>
        </measure>
    </part>
</score-partwise>
