<?xml version="1.0" encoding="UTF-8"?>
<!DOCTYPE score-partwise PUBLIC "-//Recordare//DTD MusicXML 2.0 Partwise//EN" "http://www.musicxml.org/dtds/partwise.dtd">
<score-partwise version="2.0">
    <work>
        <work-number></work-number>
        <work-title></work-title>
    </work>
    <movement-number></movement-number>
    <movement-title>When A Child Is Born</movement-title>
    <identification>
        <creator type="composer">Ciro Dammico</creator>
        <creator type="poet">Fred Jay</creator>
        <rights>All Rights Reserved</rights>
        <encoding>
            <software>Finale 2012 for Windows</software>
            <software>Dolet Light for Finale 2012</software>
            <encoding-date>2012-12-17</encoding-date>
            <supports value="yes" type="yes" element="print" attribute="new-system"/>
            <supports value="yes" type="yes" element="print" attribute="new-page"/>
            <software>ProxyMusic 2.0 c</software>
        </encoding>
        <source>http://wikifonia.org/node/19574/revisions/25849/view</source>
    </identification>
    <defaults>
        <scaling>
            <millimeters>7.0273</millimeters>
            <tenths>40</tenths>
        </scaling>
        <page-layout>
            <page-height>1691</page-height>
            <page-width>1195</page-width>
            <page-margins type="both">
                <left-margin>78</left-margin>
                <right-margin>57</right-margin>
                <top-margin>57</top-margin>
                <bottom-margin>114</bottom-margin>
            </page-margins>
        </page-layout>
        <system-layout>
            <system-margins>
                <left-margin>32</left-margin>
                <right-margin>0</right-margin>
            </system-margins>
            <system-distance>121</system-distance>
            <top-system-distance>108</top-system-distance>
        </system-layout>
        <appearance>
            <line-width type="stem">0.7487</line-width>
            <line-width type="beam">5</line-width>
            <line-width type="staff">0.7487</line-width>
            <line-width type="light barline">0.7487</line-width>
            <line-width type="heavy barline">5</line-width>
            <line-width type="leger">0.7487</line-width>
            <line-width type="ending">0.7487</line-width>
            <line-width type="wedge">0.7487</line-width>
            <line-width type="enclosure">0.7487</line-width>
            <line-width type="tuplet bracket">0.7487</line-width>
            <note-size type="grace">60</note-size>
            <note-size type="cue">60</note-size>
        </appearance>
        <music-font font-size="19.9" font-family="Maestro,engraved"/>
        <word-font font-size="10" font-family="Times New Roman"/>
        <lyric-font font-size="10" font-family="Times New Roman"/>
    </defaults>
    <credit page="1">
        <credit-words font-size="24" font-family="Flat Brush" default-y="1619" default-x="612" justify="center" valign="top">When a child is born</credit-words>
    </credit>
    <credit page="1">
        <credit-words font-size="11" font-family="Flat Brush" default-y="1527" default-x="1150" justify="right" valign="top">Music by Ciro Dammicco</credit-words>
    </credit>
    <part-list>
        <score-part id="P1">
            <part-name>Piano</part-name>
            <part-name-display>
                <display-text font-family="Flat Brush">Piano</display-text>
            </part-name-display>
            <score-instrument id="P1-I1">
                <instrument-name>SmartMusic SoftSynth</instrument-name>
            </score-instrument>
            <midi-instrument id="P1-I1">
                <midi-channel>1</midi-channel>
                <midi-bank>15489</midi-bank>
                <midi-program>1</midi-program>
                <volume>80</volume>
                <pan>0</pan>
            </midi-instrument>
        </score-part>
    </part-list>
    <part id="P1">
        <measure width="329" number="1">
            <print>
                <system-layout>
                    <system-margins>
                        <left-margin>104</left-margin>
                        <right-margin>0</right-margin>
                    </system-margins>
                    <top-system-distance>193</top-system-distance>
                </system-layout>
                <measure-numbering>system</measure-numbering>
            </print>
            <attributes>
                <divisions>8</divisions>
                <key>
                    <fifths>0</fifths>
                    <mode>major</mode>
                </key>
                <time>
                    <beats>4</beats>
                    <beat-type>4</beat-type>
                </time>
                <clef>
                    <sign>G</sign>
                    <line>2</line>
                </clef>
            </attributes>
            <sound tempo="120"/>
            <direction placement="above">
                <direction-type>
                    <words font-size="11" font-family="Flat Brush" relative-x="-157" default-y="85" valign="top">Lyrics by Fred Jay</words>
                </direction-type>
            </direction>
            <note default-x="84">
                <rest/>
                <duration>8</duration>
                <voice>1</voice>
                <type>quarter</type>
            </note>
            <note default-x="144">
                <pitch>
                    <step>G</step>
                    <octave>3</octave>
                </pitch>
                <duration>8</duration>
                <voice>1</voice>
                <type>quarter</type>
                <stem default-y="-19.5">up</stem>
                <lyric default-y="-86" number="1">
                    <syllabic>single</syllabic>
                    <text font-size="9.1" font-family="Corbel">A</text>
                </lyric>
            </note>
            <note default-x="206">
                <pitch>
                    <step>C</step>
                    <octave>4</octave>
                </pitch>
                <duration>8</duration>
                <voice>1</voice>
                <type>quarter</type>
                <stem default-y="-14.5">up</stem>
                <lyric default-y="-86" number="1">
                    <syllabic>single</syllabic>
                    <text font-size="9.1" font-family="Corbel">ray</text>
                </lyric>
            </note>
            <note default-x="267">
                <pitch>
                    <step>D</step>
                    <octave>4</octave>
                </pitch>
                <duration>8</duration>
                <voice>1</voice>
                <type>quarter</type>
                <stem default-y="-9.5">up</stem>
                <lyric default-y="-86" number="1">
                    <syllabic>single</syllabic>
                    <text font-size="9.1" font-family="Corbel">of</text>
                </lyric>
            </note>
        </measure>
        <measure width="178" number="2">
            <harmony default-y="19">
                <root>
                    <root-step>C</root-step>
                </root>
                <kind halign="center" text="">major</kind>
            </harmony>
            <note default-x="13">
                <pitch>
                    <step>E</step>
                    <octave>4</octave>
                </pitch>
                <duration>32</duration>
                <voice>1</voice>
                <type>whole</type>
                <lyric default-y="-86" number="1">
                    <syllabic>single</syllabic>
                    <text font-size="9.1" font-family="Corbel">hope</text>
                </lyric>
            </note>
        </measure>
        <measure width="266" number="3">
            <harmony default-y="18">
                <root>
                    <root-step>G</root-step>
                </root>
                <kind halign="center" text="7">dominant</kind>
            </harmony>
            <note default-x="14">
                <pitch>
                    <step>D</step>
                    <octave>4</octave>
                </pitch>
                <duration>8</duration>
                <voice>1</voice>
                <type>quarter</type>
                <stem default-y="-9.5">up</stem>
                <lyric relative-x="7" default-y="-86" number="1">
                    <syllabic>begin</syllabic>
                    <text font-size="9.1" font-family="Corbel">flickers</text>
                </lyric>
            </note>
            <note default-x="77">
                <pitch>
                    <step>E</step>
                    <octave>4</octave>
                </pitch>
                <duration>4</duration>
                <voice>1</voice>
                <type>eighth</type>
                <stem default-y="-4.5">up</stem>
            </note>
            <note default-x="117">
                <pitch>
                    <step>F</step>
                    <octave>4</octave>
                </pitch>
                <duration>12</duration>
                <voice>1</voice>
                <type>quarter</type>
                <dot/>
                <stem default-y="0.5">up</stem>
                <lyric default-y="-86" number="1">
                    <syllabic>end</syllabic>
                    <text font-size="9.1" font-family="Corbel">in</text>
                </lyric>
            </note>
            <note default-x="201">
                <pitch>
                    <step>B</step>
                    <octave>3</octave>
                </pitch>
                <duration>8</duration>
                <voice>1</voice>
                <type>quarter</type>
                <stem default-y="-19.5">up</stem>
                <lyric default-y="-86" number="1">
                    <syllabic>single</syllabic>
                    <text font-size="9.1" font-family="Corbel">the</text>
                </lyric>
            </note>
        </measure>
        <measure width="183" number="4">
            <harmony default-y="21">
                <root>
                    <root-step>C</root-step>
                </root>
                <kind halign="center" text="">major</kind>
                <bass>
                    <bass-step>F</bass-step>
                </bass>
            </harmony>
            <note default-x="16">
                <pitch>
                    <step>C</step>
                    <octave>4</octave>
                </pitch>
                <duration>32</duration>
                <tie type="start"/>
                <voice>1</voice>
                <type>whole</type>
                <notations>
                    <tied type="start"/>
                </notations>
                <lyric default-y="-86" number="1">
                    <syllabic>single</syllabic>
                    <text font-size="9.1" font-family="Corbel">sky</text>
                </lyric>
            </note>
        </measure>
        <measure width="330" number="5">
            <print new-system="yes">
                <system-layout>
                    <system-distance>108</system-distance>
                </system-layout>
            </print>
            <harmony default-y="21">
                <root>
                    <root-step>C</root-step>
                </root>
                <kind halign="center" text="">major</kind>
            </harmony>
            <note default-x="58">
                <pitch>
                    <step>C</step>
                    <octave>4</octave>
                </pitch>
                <duration>8</duration>
                <tie type="stop"/>
                <voice>1</voice>
                <type>quarter</type>
                <stem default-y="-14">up</stem>
                <notations>
                    <tied type="stop"/>
                </notations>
            </note>
            <note default-x="127">
                <pitch>
                    <step>G</step>
                    <octave>3</octave>
                </pitch>
                <duration>8</duration>
                <voice>1</voice>
                <type>quarter</type>
                <stem default-y="-19">up</stem>
                <lyric default-y="-86" number="1">
                    <syllabic>single</syllabic>
                    <text font-size="9.1" font-family="Corbel">a</text>
                </lyric>
            </note>
            <note default-x="194">
                <pitch>
                    <step>C</step>
                    <octave>4</octave>
                </pitch>
                <duration>8</duration>
                <voice>1</voice>
                <type>quarter</type>
                <stem default-y="-14">up</stem>
                <lyric relative-x="5" default-y="-86" number="1">
                    <syllabic>begin</syllabic>
                    <text font-size="9.1" font-family="Corbel">tiny</text>
                </lyric>
            </note>
            <note default-x="262">
                <pitch>
                    <step>E</step>
                    <octave>4</octave>
                </pitch>
                <duration>8</duration>
                <voice>1</voice>
                <type>quarter</type>
                <stem default-y="-5">up</stem>
            </note>
        </measure>
        <measure width="192" number="6">
            <harmony default-y="21">
                <root>
                    <root-step>E</root-step>
                </root>
                <kind halign="center" text="m">minor</kind>
            </harmony>
            <note default-x="13">
                <pitch>
                    <step>G</step>
                    <octave>4</octave>
                </pitch>
                <duration>32</duration>
                <voice>1</voice>
                <type>whole</type>
                <lyric default-y="-86" number="1">
                    <syllabic>end</syllabic>
                    <text font-size="9.1" font-family="Corbel">star</text>
                </lyric>
            </note>
        </measure>
        <measure width="313" number="7">
            <harmony default-y="21">
                <root>
                    <root-step>A</root-step>
                </root>
                <kind halign="center" text="m">minor</kind>
            </harmony>
            <note default-x="13">
                <pitch>
                    <step>A</step>
                    <octave>4</octave>
                </pitch>
                <duration>8</duration>
                <voice>1</voice>
                <type>quarter</type>
                <stem default-y="10">up</stem>
                <lyric default-y="-86" number="1">
                    <syllabic>single</syllabic>
                    <text font-size="9.1" font-family="Corbel">lights</text>
                </lyric>
            </note>
            <note default-x="89">
                <pitch>
                    <step>B</step>
                    <octave>4</octave>
                </pitch>
                <duration>4</duration>
                <voice>1</voice>
                <type>eighth</type>
                <stem default-y="-55.5">down</stem>
                <lyric default-y="-86" number="1">
                    <syllabic>single</syllabic>
                    <text font-size="9.1" font-family="Corbel">up</text>
                </lyric>
            </note>
            <note default-x="136">
                <pitch>
                    <step>A</step>
                    <octave>4</octave>
                </pitch>
                <duration>12</duration>
                <voice>1</voice>
                <type>quarter</type>
                <dot/>
                <stem default-y="10">up</stem>
                <lyric default-y="-86" number="1">
                    <syllabic>single</syllabic>
                    <text font-size="9.1" font-family="Corbel">way</text>
                </lyric>
            </note>
            <note default-x="236">
                <pitch>
                    <step>E</step>
                    <octave>4</octave>
                </pitch>
                <duration>8</duration>
                <voice>1</voice>
                <type>quarter</type>
                <stem default-y="-5">up</stem>
                <lyric default-y="-86" number="1">
                    <syllabic>single</syllabic>
                    <text font-size="9.1" font-family="Corbel">up</text>
                </lyric>
            </note>
        </measure>
        <measure width="192" number="8">
            <harmony default-y="21">
                <root>
                    <root-step>D</root-step>
                </root>
                <kind halign="center" text="m">minor</kind>
            </harmony>
            <note default-x="14">
                <pitch>
                    <step>D</step>
                    <octave>4</octave>
                </pitch>
                <duration>32</duration>
                <tie type="start"/>
                <voice>1</voice>
                <type>whole</type>
                <notations>
                    <tied type="start"/>
                </notations>
                <lyric default-y="-86" number="1">
                    <syllabic>single</syllabic>
                    <text font-size="9.1" font-family="Corbel">high</text>
                </lyric>
            </note>
        </measure>
        <measure width="340" number="9">
            <print new-system="yes"/>
            <harmony default-y="19">
                <root>
                    <root-step>G</root-step>
                </root>
                <kind halign="center" text="7">dominant</kind>
            </harmony>
            <note default-x="56">
                <pitch>
                    <step>D</step>
                    <octave>4</octave>
                </pitch>
                <duration>16</duration>
                <tie type="stop"/>
                <voice>1</voice>
                <type>half</type>
                <stem default-y="-9.5">up</stem>
                <notations>
                    <tied type="stop"/>
                </notations>
            </note>
            <note default-x="175">
                <rest/>
                <duration>8</duration>
                <voice>1</voice>
                <type>quarter</type>
            </note>
            <note default-x="248">
                <pitch>
                    <step>A</step>
                    <octave>4</octave>
                </pitch>
                <duration>4</duration>
                <voice>1</voice>
                <type>eighth</type>
                <stem default-y="10">up</stem>
                <beam number="1">begin</beam>
                <lyric default-y="-86" number="1">
                    <syllabic>single</syllabic>
                    <text font-size="9.1" font-family="Corbel">All</text>
                </lyric>
            </note>
            <note default-x="293">
                <pitch>
                    <step>G</step>
                    <octave>4</octave>
                </pitch>
                <duration>4</duration>
                <voice>1</voice>
                <type>eighth</type>
                <stem default-y="5">up</stem>
                <beam number="1">end</beam>
                <lyric default-y="-86" number="1">
                    <syllabic>begin</syllabic>
                    <text font-size="9.1" font-family="Corbel">across</text>
                </lyric>
            </note>
        </measure>
        <measure width="249" number="10">
            <harmony default-y="22">
                <root>
                    <root-step>F</root-step>
                </root>
                <kind halign="center" text="">major</kind>
            </harmony>
            <note default-x="13">
                <pitch>
                    <step>A</step>
                    <octave>4</octave>
                </pitch>
                <duration>8</duration>
                <voice>1</voice>
                <type>quarter</type>
                <stem default-y="10.5">up</stem>
            </note>
            <note default-x="73">
                <pitch>
                    <step>G</step>
                    <octave>4</octave>
                </pitch>
                <duration>4</duration>
                <voice>1</voice>
                <type>eighth</type>
                <stem default-y="5.5">up</stem>
                <lyric default-y="-86" number="1">
                    <syllabic>end</syllabic>
                    <text font-size="9.1" font-family="Corbel">the</text>
                </lyric>
            </note>
            <note default-x="110">
                <pitch>
                    <step>F</step>
                    <octave>4</octave>
                </pitch>
                <duration>12</duration>
                <voice>1</voice>
                <type>quarter</type>
                <dot/>
                <stem default-y="0.5">up</stem>
                <lyric relative-x="9" default-y="-86" number="1">
                    <syllabic>single</syllabic>
                    <text font-size="9.1" font-family="Corbel">land</text>
                </lyric>
            </note>
            <note default-x="189">
                <rest/>
                <duration>8</duration>
                <voice>1</voice>
                <type>quarter</type>
            </note>
        </measure>
        <measure width="275" number="11">
            <harmony default-y="22">
                <root>
                    <root-step>G</root-step>
                </root>
                <kind halign="center" text="7">dominant</kind>
            </harmony>
            <note default-x="14">
                <pitch>
                    <step>B</step>
                    <octave>4</octave>
                </pitch>
                <duration>8</duration>
                <voice>1</voice>
                <type>quarter</type>
                <stem default-y="-55">down</stem>
                <lyric relative-x="4" default-y="-86" number="1">
                    <syllabic>single</syllabic>
                    <text font-size="9.1" font-family="Corbel">dawns</text>
                </lyric>
            </note>
            <note default-x="80">
                <pitch>
                    <step>C</step>
                    <octave>5</octave>
                </pitch>
                <duration>4</duration>
                <voice>1</voice>
                <type>eighth</type>
                <stem default-y="-50">down</stem>
                <lyric default-y="-86" number="1">
                    <syllabic>single</syllabic>
                    <text font-size="9.1" font-family="Corbel">a</text>
                </lyric>
            </note>
            <note default-x="121">
                <pitch>
                    <step>D</step>
                    <octave>5</octave>
                </pitch>
                <duration>12</duration>
                <voice>1</voice>
                <type>quarter</type>
                <dot/>
                <stem default-y="-45">down</stem>
                <lyric default-y="-86" number="1">
                    <syllabic>single</syllabic>
                    <text font-size="9.1" font-family="Corbel">brand</text>
                </lyric>
            </note>
            <note default-x="208">
                <pitch>
                    <step>B</step>
                    <octave>4</octave>
                </pitch>
                <duration>8</duration>
                <voice>1</voice>
                <type>quarter</type>
                <stem default-y="-55">down</stem>
                <lyric default-y="-86" number="1">
                    <syllabic>single</syllabic>
                    <text font-size="9.1" font-family="Corbel">new</text>
                </lyric>
            </note>
        </measure>
        <measure width="164" number="12">
            <harmony default-y="23">
                <root>
                    <root-step>C</root-step>
                </root>
                <kind halign="center" text="">major</kind>
            </harmony>
            <note default-x="13">
                <pitch>
                    <step>G</step>
                    <octave>4</octave>
                </pitch>
                <duration>32</duration>
                <tie type="start"/>
                <voice>1</voice>
                <type>whole</type>
                <notations>
                    <tied type="start"/>
                </notations>
                <lyric default-y="-86" number="1">
                    <syllabic>single</syllabic>
                    <text font-size="9.1" font-family="Corbel">morn</text>
                </lyric>
            </note>
        </measure>
        <measure width="258" number="13">
            <print new-system="yes"/>
            <note default-x="56">
                <pitch>
                    <step>G</step>
                    <octave>4</octave>
                </pitch>
                <duration>8</duration>
                <tie type="stop"/>
                <voice>1</voice>
                <type>quarter</type>
                <stem default-y="6">up</stem>
                <notations>
                    <tied type="stop"/>
                </notations>
            </note>
            <note default-x="106">
                <pitch>
                    <step>E</step>
                    <octave>4</octave>
                </pitch>
                <duration>8</duration>
                <voice>1</voice>
                <type>quarter</type>
                <stem default-y="-4">up</stem>
                <lyric default-y="-86" number="1">
                    <syllabic>single</syllabic>
                    <text font-size="9.1" font-family="Corbel">this</text>
                </lyric>
            </note>
            <note default-x="157">
                <pitch>
                    <step>D</step>
                    <octave>4</octave>
                </pitch>
                <duration>8</duration>
                <voice>1</voice>
                <type>quarter</type>
                <stem default-y="-9">up</stem>
                <lyric default-y="-86" number="1">
                    <syllabic>single</syllabic>
                    <text font-size="9.1" font-family="Corbel">comes</text>
                </lyric>
            </note>
            <note default-x="207">
                <pitch>
                    <step>C</step>
                    <octave>4</octave>
                </pitch>
                <duration>8</duration>
                <voice>1</voice>
                <type>quarter</type>
                <stem default-y="-14.5">up</stem>
                <lyric default-y="-86" number="1">
                    <syllabic>single</syllabic>
                    <text font-size="9.1" font-family="Corbel">to</text>
                </lyric>
            </note>
            <direction placement="below">
                <direction-type>
                    <words font-family="Corbel" default-y="-224" valign="top">A silent wish sails the seven seas,
The winds of change whisper in the trees
And the walls of doubt crumble tossed and torn
This comes to pass, when a child is born.

A rosy hue settles all around,
You get the feel you're on solid ground,
For a spell or two no one seems forlorn
This comes to pass when a child is born.

</words>
                    <words font-style="italic" font-family="Corbel">And all of this happens because the world is waiting,
Waiting for one child
Black, white, yellow, no-one knows
But a child that will grow up and turn tears to laughter,
Hate to love, war to peace and everyone to everyone's neighbour
And misery and suffering will be words to be forgotten, forever
</words>
                    <words font-style="normal" font-family="Corbel">
It's all a dream, an illusion now.
It must come true sometime soon somehow.
All across the land dawns a brand new morn -
This comes to pass when a child is born</words>
                </direction-type>
                <offset>-1</offset>
            </direction>
        </measure>
        <measure width="130" number="14">
            <harmony default-y="21">
                <root>
                    <root-step>G</root-step>
                </root>
                <kind halign="center" text="7">dominant</kind>
            </harmony>
            <note default-x="13">
                <pitch>
                    <step>G</step>
                    <octave>4</octave>
                </pitch>
                <duration>32</duration>
                <voice>1</voice>
                <type>whole</type>
                <lyric default-y="-86" number="1">
                    <syllabic>single</syllabic>
                    <text font-size="9.1" font-family="Corbel">pass</text>
                </lyric>
            </note>
        </measure>
        <measure width="209" number="15">
            <note default-x="13">
                <pitch>
                    <step>D</step>
                    <octave>4</octave>
                </pitch>
                <duration>8</duration>
                <voice>1</voice>
                <type>quarter</type>
                <stem default-y="-9">up</stem>
                <lyric default-y="-86" number="1">
                    <syllabic>single</syllabic>
                    <text font-size="9.1" font-family="Corbel">when</text>
                </lyric>
            </note>
            <note default-x="61">
                <pitch>
                    <step>E</step>
                    <octave>4</octave>
                </pitch>
                <duration>4</duration>
                <voice>1</voice>
                <type>eighth</type>
                <stem default-y="-4">up</stem>
                <lyric default-y="-86" number="1">
                    <syllabic>single</syllabic>
                    <text font-size="9.1" font-family="Corbel">a</text>
                </lyric>
            </note>
            <note default-x="100">
                <pitch>
                    <step>F</step>
                    <octave>4</octave>
                </pitch>
                <duration>12</duration>
                <voice>1</voice>
                <type>quarter</type>
                <dot/>
                <stem default-y="1">up</stem>
                <lyric default-y="-86" number="1">
                    <syllabic>single</syllabic>
                    <text font-size="9.1" font-family="Corbel">child</text>
                </lyric>
            </note>
            <note default-x="162">
                <pitch>
                    <step>B</step>
                    <octave>3</octave>
                </pitch>
                <duration>8</duration>
                <voice>1</voice>
                <type>quarter</type>
                <stem default-y="-19.5">up</stem>
                <lyric default-y="-86" number="1">
                    <syllabic>single</syllabic>
                    <text font-size="9.1" font-family="Corbel">is</text>
                </lyric>
            </note>
        </measure>
        <measure width="133" number="16">
            <harmony default-y="23">
                <root>
                    <root-step>C</root-step>
                </root>
                <kind halign="center" text="">major</kind>
            </harmony>
            <note default-x="16">
                <pitch>
                    <step>C</step>
                    <octave>4</octave>
                </pitch>
                <duration>32</duration>
                <tie type="start"/>
                <voice>1</voice>
                <type>whole</type>
                <notations>
                    <tied type="start"/>
                </notations>
            </note>
        </measure>
        <measure width="160" number="17">
            <harmony default-y="23">
                <root>
                    <root-step>F</root-step>
                </root>
                <kind halign="center" text="">major</kind>
            </harmony>
            <note default-x="17">
                <pitch>
                    <step>C</step>
                    <octave>4</octave>
                </pitch>
                <duration>16</duration>
                <tie type="stop"/>
                <voice>1</voice>
                <type>half</type>
                <stem default-y="-14.5">up</stem>
                <notations>
                    <tied type="stop"/>
                </notations>
            </note>
            <harmony default-y="26">
                <root>
                    <root-step>C</root-step>
                </root>
                <kind halign="center" text="">major</kind>
            </harmony>
            <note default-x="86">
                <rest/>
                <duration>16</duration>
                <voice>1</voice>
                <type>half</type>
            </note>
        </measure>
        <measure width="139" number="18">
            <note>
                <rest/>
                <duration>32</duration>
                <voice>1</voice>
            </note>
            <barline location="right">
                <bar-style>light-heavy</bar-style>
            </barline>
        </measure>
    </part>
</score-partwise>
