<?xml version="1.0" encoding="UTF-8"?>
<!DOCTYPE score-partwise PUBLIC "-//Recordare//DTD MusicXML 2.0 Partwise//EN" "http://www.musicxml.org/dtds/partwise.dtd">
<score-partwise version="2.0">
    <work>
        <work-number></work-number>
        <work-title></work-title>
    </work>
    <movement-number></movement-number>
    <movement-title>Home on the Range</movement-title>
    <identification>
        <creator type="composer">Daniel E. Kelley</creator>
        <creator type="poet">Dr. Brewster M Higley (1876)</creator>
        <rights>All Rights Reserved</rights>
        <encoding>
            <software>MuseScore 1.2</software>
            <encoding-date>2012-09-15</encoding-date>
            <software>ProxyMusic 2.0 c</software>
        </encoding>
        <source>http://wikifonia.org/node/17808/revisions/23614/view</source>
    </identification>
    <defaults>
        <scaling>
            <millimeters>7.05556</millimeters>
            <tenths>40</tenths>
        </scaling>
        <page-layout>
            <page-height>1683.78</page-height>
            <page-width>1190.55</page-width>
            <page-margins type="even">
                <left-margin>56.6929</left-margin>
                <right-margin>56.6929</right-margin>
                <top-margin>56.6929</top-margin>
                <bottom-margin>113.386</bottom-margin>
            </page-margins>
            <page-margins type="odd">
                <left-margin>56.6929</left-margin>
                <right-margin>56.6929</right-margin>
                <top-margin>56.6929</top-margin>
                <bottom-margin>113.386</bottom-margin>
            </page-margins>
        </page-layout>
    </defaults>
    <credit page="1">
        <credit-words font-size="24" default-y="1627.09" default-x="595.275" justify="center" valign="top">Home on the Range</credit-words>
    </credit>
    <credit page="1">
        <credit-words font-size="12" default-y="1570.39" default-x="595.275" justify="center" valign="top">(state song of Kansas, USA -earliest version)</credit-words>
    </credit>
    <credit page="1">
        <credit-words font-size="12" default-y="1557.09" default-x="1133.86" justify="right" valign="top">Daniel E. Kelly</credit-words>
    </credit>
    <credit page="1">
        <credit-words font-size="12" default-y="1557.09" default-x="56.6929" justify="left" valign="top">Dr. Brewster M. Higley (1876)</credit-words>
    </credit>
    <credit page="1">
        <credit-words font-size="8" default-y="113.386" default-x="595.275" justify="center" valign="bottom">Amsco Music Sales Co., N.Y.C. 1933</credit-words>
    </credit>
    <part-list>
        <score-part id="P1">
            <part-name>Voice</part-name>
            <part-abbreviation>Vo.</part-abbreviation>
            <score-instrument id="P1-I3">
                <instrument-name>Voice</instrument-name>
            </score-instrument>
            <midi-instrument id="P1-I3">
                <midi-channel>1</midi-channel>
                <midi-program>53</midi-program>
                <volume>78.7402</volume>
                <pan>0</pan>
            </midi-instrument>
        </score-part>
    </part-list>
    <part id="P1">
        <measure width="124.57" number="0" implicit="yes">
            <print>
                <system-layout>
                    <system-margins>
                        <left-margin>69.16</left-margin>
                        <right-margin>0.00</right-margin>
                    </system-margins>
                    <top-system-distance>171.45</top-system-distance>
                </system-layout>
            </print>
            <attributes>
                <divisions>2</divisions>
                <key>
                    <fifths>1</fifths>
                    <mode>major</mode>
                </key>
                <time>
                    <beats>3</beats>
                    <beat-type>4</beat-type>
                </time>
                <clef>
                    <sign>G</sign>
                    <line>2</line>
                </clef>
            </attributes>
            <direction placement="below">
                <direction-type>
                    <dynamics>
                        <mf/>
                    </dynamics>
                </direction-type>
                <sound dynamics="88.89"/>
            </direction>
            <direction placement="above">
                <direction-type>
                    <words>Moderato</words>
                </direction-type>
            </direction>
            <note default-y="-45.00" default-x="85.15">
                <pitch>
                    <step>D</step>
                    <octave>4</octave>
                </pitch>
                <duration>2</duration>
                <voice>1</voice>
                <type>quarter</type>
                <stem>up</stem>
            </note>
        </measure>
        <measure width="115.05" number="1">
            <note default-y="-45.00" default-x="12.00">
                <pitch>
                    <step>D</step>
                    <octave>4</octave>
                </pitch>
                <duration>2</duration>
                <voice>1</voice>
                <type>quarter</type>
                <stem>up</stem>
            </note>
            <note default-y="-30.00" default-x="45.82">
                <pitch>
                    <step>G</step>
                    <octave>4</octave>
                </pitch>
                <duration>2</duration>
                <voice>1</voice>
                <type>quarter</type>
                <stem>up</stem>
            </note>
            <note default-y="-25.00" default-x="79.63">
                <pitch>
                    <step>A</step>
                    <octave>4</octave>
                </pitch>
                <duration>2</duration>
                <voice>1</voice>
                <type>quarter</type>
                <stem>up</stem>
            </note>
        </measure>
        <measure width="115.79" number="2">
            <note default-y="-20.00" default-x="12.00">
                <pitch>
                    <step>B</step>
                    <octave>4</octave>
                </pitch>
                <duration>4</duration>
                <voice>1</voice>
                <type>half</type>
                <stem>down</stem>
            </note>
            <note default-y="-30.00" default-x="65.53">
                <pitch>
                    <step>G</step>
                    <octave>4</octave>
                </pitch>
                <duration>1</duration>
                <voice>1</voice>
                <type>eighth</type>
                <stem>up</stem>
                <beam number="1">begin</beam>
            </note>
            <note default-y="-35.00" default-x="89.86">
                <pitch>
                    <step>F</step>
                    <alter>1</alter>
                    <octave>4</octave>
                </pitch>
                <duration>1</duration>
                <voice>1</voice>
                <type>eighth</type>
                <stem>up</stem>
                <beam number="1">end</beam>
            </note>
        </measure>
        <measure width="115.05" number="3">
            <note default-y="-40.00" default-x="12.00">
                <pitch>
                    <step>E</step>
                    <octave>4</octave>
                </pitch>
                <duration>2</duration>
                <voice>1</voice>
                <type>quarter</type>
                <stem>up</stem>
            </note>
            <note default-y="-15.00" default-x="45.82">
                <pitch>
                    <step>C</step>
                    <octave>5</octave>
                </pitch>
                <duration>2</duration>
                <voice>1</voice>
                <type>quarter</type>
                <stem>down</stem>
            </note>
            <note default-y="-15.00" default-x="79.63">
                <pitch>
                    <step>C</step>
                    <octave>5</octave>
                </pitch>
                <duration>2</duration>
                <voice>1</voice>
                <type>quarter</type>
                <stem>down</stem>
            </note>
        </measure>
        <measure width="115.79" number="4">
            <note default-y="-15.00" default-x="12.00">
                <pitch>
                    <step>C</step>
                    <octave>5</octave>
                </pitch>
                <duration>4</duration>
                <voice>1</voice>
                <type>half</type>
                <stem>down</stem>
            </note>
            <note default-y="-10.00" default-x="65.53">
                <pitch>
                    <step>D</step>
                    <octave>5</octave>
                </pitch>
                <duration>1</duration>
                <voice>1</voice>
                <type>eighth</type>
                <stem>down</stem>
                <beam number="1">begin</beam>
            </note>
            <note default-y="-15.00" default-x="89.86">
                <pitch>
                    <step>C</step>
                    <octave>5</octave>
                </pitch>
                <duration>1</duration>
                <voice>1</voice>
                <type>eighth</type>
                <stem>down</stem>
                <beam number="1">end</beam>
            </note>
        </measure>
        <measure width="132.56" number="5">
            <note default-y="-20.00" default-x="12.00">
                <pitch>
                    <step>B</step>
                    <octave>4</octave>
                </pitch>
                <duration>3</duration>
                <voice>1</voice>
                <type>quarter</type>
                <dot/>
                <stem>down</stem>
            </note>
            <note default-y="-25.00" default-x="62.98">
                <pitch>
                    <step>A</step>
                    <octave>4</octave>
                </pitch>
                <duration>1</duration>
                <voice>1</voice>
                <type>eighth</type>
                <stem>up</stem>
            </note>
            <note default-y="-30.00" default-x="89.15">
                <pitch>
                    <step>G</step>
                    <octave>4</octave>
                </pitch>
                <duration>2</duration>
                <voice>1</voice>
                <type>quarter</type>
                <stem>up</stem>
            </note>
        </measure>
        <measure width="115.05" number="6">
            <note default-y="-35.00" default-x="12.00">
                <pitch>
                    <step>F</step>
                    <alter>1</alter>
                    <octave>4</octave>
                </pitch>
                <duration>2</duration>
                <voice>1</voice>
                <type>quarter</type>
                <stem>up</stem>
            </note>
            <note default-y="-30.00" default-x="45.82">
                <pitch>
                    <step>G</step>
                    <octave>4</octave>
                </pitch>
                <duration>2</duration>
                <voice>1</voice>
                <type>quarter</type>
                <stem>up</stem>
            </note>
            <note default-y="-25.00" default-x="79.63">
                <pitch>
                    <step>A</step>
                    <octave>4</octave>
                </pitch>
                <duration>2</duration>
                <voice>1</voice>
                <type>quarter</type>
                <stem>up</stem>
            </note>
        </measure>
        <measure width="89.97" number="7">
            <note default-y="-30.00" default-x="12.00">
                <pitch>
                    <step>G</step>
                    <octave>4</octave>
                </pitch>
                <duration>6</duration>
                <voice>1</voice>
                <type>half</type>
                <dot/>
                <stem>up</stem>
                <notations>
                    <slur type="start" number="1"/>
                </notations>
            </note>
        </measure>
        <measure width="84.17" number="8">
            <note default-y="-30.00" default-x="12.00">
                <pitch>
                    <step>G</step>
                    <octave>4</octave>
                </pitch>
                <duration>2</duration>
                <voice>1</voice>
                <type>quarter</type>
                <stem>up</stem>
                <notations>
                    <slur type="stop" number="1"/>
                </notations>
            </note>
            <note>
                <rest/>
                <duration>2</duration>
                <voice>1</voice>
                <type>quarter</type>
            </note>
            <barline location="right">
                <bar-style>light-light</bar-style>
            </barline>
        </measure>
        <measure width="156.43" number="9">
            <print new-system="yes">
                <system-layout>
                    <system-margins>
                        <left-margin>46.81</left-margin>
                        <right-margin>0.00</right-margin>
                    </system-margins>
                    <system-distance>123.45</system-distance>
                </system-layout>
            </print>
            <barline location="left">
                <bar-style>heavy-light</bar-style>
                <repeat direction="forward"/>
            </barline>
            <note default-y="-45.00" default-x="107.40">
                <pitch>
                    <step>D</step>
                    <octave>4</octave>
                </pitch>
                <duration>2</duration>
                <voice>1</voice>
                <type>quarter</type>
                <stem>up</stem>
                <lyric number="1">
                    <syllabic>single</syllabic>
                    <text>1. Oh</text>
                </lyric>
                <lyric number="2">
                    <syllabic>single</syllabic>
                    <text>2. Oh</text>
                </lyric>
                <lyric number="3">
                    <syllabic>single</syllabic>
                    <text>3. Oh</text>
                </lyric>
                <lyric number="4">
                    <syllabic>single</syllabic>
                    <text>4. How </text>
                </lyric>
                <lyric number="5">
                    <syllabic>single</syllabic>
                    <text>5. I</text>
                </lyric>
                <lyric number="6">
                    <syllabic>single</syllabic>
                    <text>6. The</text>
                </lyric>
            </note>
        </measure>
        <measure width="150.78" number="10">
            <harmony print-frame="no">
                <root>
                    <root-step>G</root-step>
                </root>
                <kind text="">major</kind>
            </harmony>
            <note default-y="-45.00" default-x="24.05">
                <pitch>
                    <step>D</step>
                    <octave>4</octave>
                </pitch>
                <duration>2</duration>
                <voice>1</voice>
                <type>quarter</type>
                <stem>up</stem>
                <lyric number="1">
                    <syllabic>single</syllabic>
                    <text>give</text>
                </lyric>
                <lyric number="2">
                    <syllabic>single</syllabic>
                    <text>give</text>
                </lyric>
                <lyric number="3">
                    <syllabic>single</syllabic>
                    <text>give</text>
                </lyric>
                <lyric number="4">
                    <syllabic>begin</syllabic>
                    <text>of</text>
                </lyric>
                <lyric number="5">
                    <syllabic>single</syllabic>
                    <text>love</text>
                </lyric>
                <lyric number="6">
                    <syllabic>single</syllabic>
                    <text>air</text>
                </lyric>
            </note>
            <note default-y="-30.00" default-x="63.31">
                <pitch>
                    <step>G</step>
                    <octave>4</octave>
                </pitch>
                <duration>2</duration>
                <voice>1</voice>
                <type>quarter</type>
                <stem>up</stem>
                <lyric number="1">
                    <syllabic>single</syllabic>
                    <text>me</text>
                </lyric>
                <lyric number="2">
                    <syllabic>single</syllabic>
                    <text>me</text>
                </lyric>
                <lyric number="3">
                    <syllabic>single</syllabic>
                    <text>me</text>
                </lyric>
                <lyric number="4">
                    <syllabic>end</syllabic>
                    <text>ten</text>
                </lyric>
                <lyric number="5">
                    <syllabic>single</syllabic>
                    <text>the</text>
                </lyric>
                <lyric number="6">
                    <syllabic>single</syllabic>
                    <text>is</text>
                </lyric>
            </note>
            <note default-y="-25.00" default-x="110.10">
                <pitch>
                    <step>A</step>
                    <octave>4</octave>
                </pitch>
                <duration>2</duration>
                <voice>1</voice>
                <type>quarter</type>
                <stem>up</stem>
                <lyric number="1">
                    <syllabic>single</syllabic>
                    <text>a</text>
                </lyric>
                <lyric number="2">
                    <syllabic>single</syllabic>
                    <text>a</text>
                </lyric>
                <lyric number="3">
                    <syllabic>single</syllabic>
                    <text>a</text>
                </lyric>
                <lyric number="4">
                    <syllabic>single</syllabic>
                    <text>at</text>
                </lyric>
                <lyric number="5">
                    <syllabic>single</syllabic>
                    <text>bright</text>
                </lyric>
                <lyric number="6">
                    <syllabic>single</syllabic>
                    <text>so</text>
                </lyric>
            </note>
        </measure>
        <measure width="179.89" number="11">
            <note default-y="-20.00" default-x="35.48">
                <pitch>
                    <step>B</step>
                    <octave>4</octave>
                </pitch>
                <duration>4</duration>
                <voice>1</voice>
                <type>half</type>
                <stem>down</stem>
                <lyric number="1">
                    <syllabic>single</syllabic>
                    <text>home</text>
                </lyric>
                <lyric number="2">
                    <syllabic>single</syllabic>
                    <text>land</text>
                </lyric>
                <lyric number="3">
                    <syllabic>single</syllabic>
                    <text>gale</text>
                </lyric>
                <lyric number="4">
                    <syllabic>single</syllabic>
                    <text>night</text>
                </lyric>
                <lyric number="5">
                    <syllabic>single</syllabic>
                    <text>flow'rs</text>
                </lyric>
                <lyric number="6">
                    <syllabic>single</syllabic>
                    <text>pure</text>
                </lyric>
            </note>
            <note default-y="-30.00" default-x="99.95">
                <pitch>
                    <step>G</step>
                    <octave>4</octave>
                </pitch>
                <duration>1</duration>
                <voice>1</voice>
                <type>eighth</type>
                <stem>up</stem>
                <beam number="1">begin</beam>
                <lyric number="1">
                    <syllabic>single</syllabic>
                    <text>where</text>
                </lyric>
                <lyric number="2">
                    <syllabic>single</syllabic>
                    <text>where</text>
                </lyric>
                <lyric number="3">
                    <syllabic>single</syllabic>
                    <text>of</text>
                </lyric>
                <lyric number="4">
                    <syllabic>single</syllabic>
                    <text>when</text>
                </lyric>
                <lyric number="5">
                    <syllabic>single</syllabic>
                    <text>in</text>
                </lyric>
                <lyric number="6">
                    <syllabic>single</syllabic>
                    <text>and</text>
                </lyric>
            </note>
            <note default-y="-35.00" default-x="149.87">
                <pitch>
                    <step>F</step>
                    <alter>1</alter>
                    <octave>4</octave>
                </pitch>
                <duration>1</duration>
                <voice>1</voice>
                <type>eighth</type>
                <stem>up</stem>
                <beam number="1">end</beam>
                <lyric number="1">
                    <syllabic>single</syllabic>
                    <text>the</text>
                </lyric>
                <lyric number="2">
                    <syllabic>single</syllabic>
                    <text>the</text>
                </lyric>
                <lyric number="3">
                    <syllabic>single</syllabic>
                    <text>the</text>
                </lyric>
                <lyric number="4">
                    <syllabic>single</syllabic>
                    <text>the</text>
                </lyric>
                <lyric number="5">
                    <syllabic>single</syllabic>
                    <text>this</text>
                </lyric>
                <lyric number="6">
                    <syllabic>single</syllabic>
                    <text>the</text>
                </lyric>
            </note>
        </measure>
        <measure width="174.63" number="12">
            <harmony print-frame="no">
                <root>
                    <root-step>C</root-step>
                </root>
                <kind text="">major</kind>
            </harmony>
            <note default-y="-40.00" default-x="31.58">
                <pitch>
                    <step>E</step>
                    <octave>4</octave>
                </pitch>
                <duration>3</duration>
                <voice>1</voice>
                <type>quarter</type>
                <dot/>
                <stem>up</stem>
                <lyric number="1">
                    <syllabic>begin</syllabic>
                    <text>buf</text>
                </lyric>
                <lyric number="2">
                    <syllabic>single</syllabic>
                    <text>bright</text>
                </lyric>
                <lyric number="3">
                    <syllabic>begin</syllabic>
                    <text>Sol</text>
                </lyric>
                <lyric number="4">
                    <syllabic>begin</syllabic>
                    <text>heav</text>
                </lyric>
                <lyric number="5">
                    <syllabic>single</syllabic>
                    <text>bright</text>
                </lyric>
                <lyric number="6">
                    <syllabic>begin</syllabic>
                    <text>bree</text>
                </lyric>
            </note>
            <note default-y="-15.00" default-x="84.02">
                <pitch>
                    <step>C</step>
                    <octave>5</octave>
                </pitch>
                <duration>1</duration>
                <voice>1</voice>
                <type>eighth</type>
                <stem>down</stem>
                <lyric number="1">
                    <syllabic>middle</syllabic>
                    <text>fa</text>
                </lyric>
                <lyric number="2">
                    <syllabic>begin</syllabic>
                    <text>dia</text>
                </lyric>
                <lyric number="3">
                    <syllabic>middle</syllabic>
                    <text>o</text>
                </lyric>
                <lyric number="4">
                    <syllabic>end</syllabic>
                    <text>ens</text>
                </lyric>
                <lyric number="5">
                    <syllabic>single</syllabic>
                    <text>land</text>
                </lyric>
                <lyric number="6">
                    <syllabic>end</syllabic>
                    <text>zes</text>
                </lyric>
            </note>
            <note default-y="-15.00" default-x="135.20">
                <pitch>
                    <step>C</step>
                    <octave>5</octave>
                </pitch>
                <duration>2</duration>
                <voice>1</voice>
                <type>quarter</type>
                <stem>down</stem>
                <lyric number="1">
                    <syllabic>end</syllabic>
                    <text>lo</text>
                </lyric>
                <lyric number="2">
                    <syllabic>end</syllabic>
                    <text>mond</text>
                </lyric>
                <lyric number="3">
                    <syllabic>end</syllabic>
                    <text>mon</text>
                </lyric>
                <lyric number="4">
                    <syllabic>single</syllabic>
                    <text>were</text>
                </lyric>
                <lyric number="5">
                    <syllabic>single</syllabic>
                    <text>of</text>
                </lyric>
                <lyric number="6">
                    <syllabic>single</syllabic>
                    <text>so</text>
                </lyric>
            </note>
        </measure>
        <measure width="186.50" number="13">
            <harmony print-frame="no">
                <root>
                    <root-step>C</root-step>
                </root>
                <kind text="m">minor</kind>
            </harmony>
            <note default-y="-15.00" default-x="34.40">
                <pitch>
                    <step>C</step>
                    <octave>5</octave>
                </pitch>
                <duration>4</duration>
                <voice>1</voice>
                <type>half</type>
                <stem>down</stem>
                <lyric number="1">
                    <syllabic>single</syllabic>
                    <text>roam,</text>
                </lyric>
                <lyric number="2">
                    <syllabic>single</syllabic>
                    <text>sand,</text>
                </lyric>
                <lyric number="3">
                    <syllabic>single</syllabic>
                    <text>vale,</text>
                </lyric>
                <lyric number="4">
                    <syllabic>single</syllabic>
                    <text>bright,</text>
                </lyric>
                <lyric number="5">
                    <syllabic>single</syllabic>
                    <text>ours,</text>
                </lyric>
                <lyric number="6">
                    <syllabic>single</syllabic>
                    <text>fine,</text>
                </lyric>
            </note>
            <note default-y="-15.00" default-x="104.70">
                <pitch>
                    <step>C</step>
                    <octave>5</octave>
                </pitch>
                <duration>1</duration>
                <voice>1</voice>
                <type>eighth</type>
                <stem>down</stem>
                <beam number="1">begin</beam>
                <lyric number="1">
                    <syllabic>single</syllabic>
                    <text>Where</text>
                </lyric>
                <lyric number="2">
                    <syllabic>single</syllabic>
                    <text>Throws</text>
                </lyric>
                <lyric number="3">
                    <syllabic>single</syllabic>
                    <text>Where</text>
                </lyric>
                <lyric number="4">
                    <syllabic>single</syllabic>
                    <text>With</text>
                </lyric>
                <lyric number="5">
                    <syllabic>single</syllabic>
                    <text>I</text>
                    <extend/>
                </lyric>
                <lyric number="6">
                    <syllabic>single</syllabic>
                    <text>the</text>
                    <extend/>
                </lyric>
            </note>
            <note default-y="-15.00" default-x="159.00">
                <pitch>
                    <step>C</step>
                    <octave>5</octave>
                </pitch>
                <duration>1</duration>
                <voice>1</voice>
                <type>eighth</type>
                <stem>down</stem>
                <beam number="1">end</beam>
                <lyric number="1">
                    <syllabic>single</syllabic>
                    <text>the</text>
                </lyric>
                <lyric number="2">
                    <syllabic>single</syllabic>
                    <text>its</text>
                </lyric>
                <lyric number="3">
                    <syllabic>single</syllabic>
                    <text>the</text>
                </lyric>
                <lyric number="4">
                    <syllabic>single</syllabic>
                    <text>the</text>
                </lyric>
            </note>
        </measure>
        <measure width="182.13" number="14">
            <harmony print-frame="no">
                <root>
                    <root-step>G</root-step>
                </root>
                <kind text="">major</kind>
            </harmony>
            <note default-y="-10.00" default-x="25.93">
                <pitch>
                    <step>D</step>
                    <octave>5</octave>
                </pitch>
                <duration>3</duration>
                <voice>1</voice>
                <type>quarter</type>
                <dot/>
                <stem>down</stem>
                <lyric number="1">
                    <syllabic>single</syllabic>
                    <text>deer</text>
                </lyric>
                <lyric number="2">
                    <syllabic>single</syllabic>
                    <text>light</text>
                </lyric>
                <lyric number="3">
                    <syllabic>single</syllabic>
                    <text>life</text>
                </lyric>
                <lyric number="4">
                    <syllabic>single</syllabic>
                    <text>light</text>
                </lyric>
                <lyric number="5">
                    <syllabic>single</syllabic>
                    <text>love</text>
                </lyric>
                <lyric number="6">
                    <syllabic>begin</syllabic>
                    <text>zeph</text>
                </lyric>
            </note>
            <note default-y="-30.00" default-x="87.76">
                <pitch>
                    <step>G</step>
                    <octave>4</octave>
                </pitch>
                <duration>1</duration>
                <voice>1</voice>
                <type>eighth</type>
                <stem>up</stem>
                <lyric number="1">
                    <syllabic>single</syllabic>
                    <text>and</text>
                </lyric>
                <lyric number="2">
                    <syllabic>single</syllabic>
                    <text>from</text>
                </lyric>
                <lyric number="3">
                    <syllabic>single</syllabic>
                    <text>streams</text>
                </lyric>
                <lyric number="4">
                    <syllabic>single</syllabic>
                    <text>of</text>
                </lyric>
                <lyric number="5">
                    <syllabic>single</syllabic>
                    <text>the</text>
                </lyric>
                <lyric number="6">
                    <syllabic>end</syllabic>
                    <text>yrs</text>
                </lyric>
            </note>
            <note default-y="-30.00" default-x="148.35">
                <pitch>
                    <step>G</step>
                    <octave>4</octave>
                </pitch>
                <duration>2</duration>
                <voice>1</voice>
                <type>quarter</type>
                <stem>up</stem>
                <lyric number="1">
                    <syllabic>single</syllabic>
                    <text>the</text>
                </lyric>
                <lyric number="2">
                    <syllabic>single</syllabic>
                    <text>the</text>
                </lyric>
                <lyric number="3">
                    <syllabic>single</syllabic>
                    <text>with</text>
                </lyric>
                <lyric number="4">
                    <syllabic>single</syllabic>
                    <text>the</text>
                </lyric>
                <lyric number="5">
                    <syllabic>single</syllabic>
                    <text>wild</text>
                </lyric>
                <lyric number="6">
                    <syllabic>single</syllabic>
                    <text>so</text>
                </lyric>
            </note>
        </measure>
        <measure width="273.66" number="15">
            <print new-system="yes">
                <system-layout>
                    <system-margins>
                        <left-margin>46.81</left-margin>
                        <right-margin>0.00</right-margin>
                    </system-margins>
                    <system-distance>266.45</system-distance>
                </system-layout>
            </print>
            <direction>
                <direction-type>
                    <words default-y="100">dim</words>
                </direction-type>
            </direction>
            <note default-y="-30.00" default-x="87.74">
                <pitch>
                    <step>G</step>
                    <octave>4</octave>
                </pitch>
                <duration>2</duration>
                <voice>1</voice>
                <type>quarter</type>
                <stem>up</stem>
                <lyric number="1">
                    <syllabic>begin</syllabic>
                    <text>an</text>
                </lyric>
                <lyric number="2">
                    <syllabic>begin</syllabic>
                    <text>glit</text>
                </lyric>
                <lyric number="3">
                    <syllabic>begin</syllabic>
                    <text>buoy</text>
                </lyric>
                <lyric number="4">
                    <syllabic>begin</syllabic>
                    <text>twin</text>
                </lyric>
                <lyric number="5">
                    <syllabic>begin</syllabic>
                    <text>cur</text>
                </lyric>
                <lyric number="6">
                    <syllabic>begin</syllabic>
                    <text>bal</text>
                </lyric>
            </note>
            <note default-y="-35.00" default-x="149.18">
                <pitch>
                    <step>F</step>
                    <alter>1</alter>
                    <octave>4</octave>
                </pitch>
                <duration>2</duration>
                <voice>1</voice>
                <type>quarter</type>
                <stem>up</stem>
                <lyric number="1">
                    <syllabic>middle</syllabic>
                    <text>te</text>
                </lyric>
                <lyric number="2">
                    <syllabic>middle</syllabic>
                    <text>ter</text>
                </lyric>
                <lyric number="3">
                    <syllabic>middle</syllabic>
                    <text>an</text>
                </lyric>
                <lyric number="4">
                    <syllabic>middle</syllabic>
                    <text>kl</text>
                </lyric>
                <lyric number="5">
                    <syllabic>end</syllabic>
                    <text>lew's</text>
                </lyric>
                <lyric number="6">
                    <syllabic>end</syllabic>
                    <text>my</text>
                </lyric>
            </note>
            <note default-y="-30.00" default-x="210.62">
                <pitch>
                    <step>G</step>
                    <octave>4</octave>
                </pitch>
                <duration>2</duration>
                <voice>1</voice>
                <type>quarter</type>
                <stem>up</stem>
                <lyric number="1">
                    <syllabic>end</syllabic>
                    <text>lope</text>
                </lyric>
                <lyric number="2">
                    <syllabic>end</syllabic>
                    <text>ing</text>
                </lyric>
                <lyric number="3">
                    <syllabic>end</syllabic>
                    <text>cy</text>
                </lyric>
                <lyric number="4">
                    <syllabic>end</syllabic>
                    <text>ing</text>
                </lyric>
                <lyric number="5">
                    <syllabic>single</syllabic>
                    <text>shrill</text>
                </lyric>
                <lyric number="6">
                    <syllabic>single</syllabic>
                    <text>and</text>
                </lyric>
            </note>
        </measure>
        <measure width="142.65" number="16">
            <harmony print-frame="no">
                <root>
                    <root-step>D</root-step>
                </root>
                <kind text="7">dominant</kind>
            </harmony>
            <note default-y="-25.00" default-x="12.00">
                <pitch>
                    <step>A</step>
                    <octave>4</octave>
                </pitch>
                <duration>6</duration>
                <voice>1</voice>
                <type>half</type>
                <dot/>
                <stem>up</stem>
                <notations>
                    <slur type="start" number="1"/>
                </notations>
                <lyric number="1">
                    <syllabic>single</syllabic>
                    <text>play</text>
                    <extend/>
                </lyric>
                <lyric number="2">
                    <syllabic>single</syllabic>
                    <text>stream,</text>
                    <extend/>
                </lyric>
                <lyric number="3">
                    <syllabic>single</syllabic>
                    <text>flow,</text>
                    <extend/>
                </lyric>
                <lyric number="4">
                    <syllabic>single</syllabic>
                    <text>stars,</text>
                    <extend/>
                </lyric>
                <lyric number="5">
                    <syllabic>single</syllabic>
                    <text>scream;</text>
                    <extend/>
                </lyric>
                <lyric number="6">
                    <syllabic>single</syllabic>
                    <text>bright,</text>
                    <extend/>
                </lyric>
            </note>
        </measure>
        <measure width="151.14" number="17">
            <note default-y="-25.00" default-x="12.00">
                <pitch>
                    <step>A</step>
                    <octave>4</octave>
                </pitch>
                <duration>4</duration>
                <voice>1</voice>
                <type>half</type>
                <stem>up</stem>
                <notations>
                    <slur type="stop" number="1"/>
                </notations>
            </note>
            <note default-y="-45.00" default-x="96.64">
                <pitch>
                    <step>D</step>
                    <octave>4</octave>
                </pitch>
                <duration>2</duration>
                <voice>1</voice>
                <type>quarter</type>
                <stem>up</stem>
                <lyric number="1">
                    <syllabic>single</syllabic>
                    <text>Where</text>
                </lyric>
                <lyric number="2">
                    <syllabic>single</syllabic>
                    <text>Where</text>
                </lyric>
                <lyric number="3">
                    <syllabic>single</syllabic>
                    <text>On the</text>
                </lyric>
                <lyric number="4">
                    <syllabic>single</syllabic>
                    <text>Have I</text>
                </lyric>
                <lyric number="5">
                    <syllabic>single</syllabic>
                    <text>The</text>
                </lyric>
                <lyric number="6">
                    <syllabic>single</syllabic>
                    <text>That I</text>
                </lyric>
            </note>
        </measure>
        <measure width="234.72" number="18">
            <harmony print-frame="no">
                <root>
                    <root-step>G</root-step>
                </root>
                <kind text="">major</kind>
            </harmony>
            <note default-y="-45.00" default-x="32.83">
                <pitch>
                    <step>D</step>
                    <octave>4</octave>
                </pitch>
                <duration>2</duration>
                <voice>1</voice>
                <type>quarter</type>
                <stem>up</stem>
                <lyric number="1">
                    <syllabic>begin</syllabic>
                    <text>nev</text>
                </lyric>
                <lyric number="2">
                    <syllabic>begin</syllabic>
                    <text>gli</text>
                </lyric>
                <lyric number="3">
                    <syllabic>single</syllabic>
                    <text>banks</text>
                </lyric>
                <lyric number="4">
                    <syllabic>single</syllabic>
                    <text>stood</text>
                </lyric>
                <lyric number="5">
                    <syllabic>single</syllabic>
                    <text>bluffs</text>
                </lyric>
                <lyric number="6">
                    <syllabic>single</syllabic>
                    <text>would</text>
                </lyric>
            </note>
            <note default-y="-30.00" default-x="99.60">
                <pitch>
                    <step>G</step>
                    <octave>4</octave>
                </pitch>
                <duration>2</duration>
                <voice>1</voice>
                <type>quarter</type>
                <stem>up</stem>
                <lyric number="1">
                    <syllabic>end</syllabic>
                    <text>er</text>
                </lyric>
                <lyric number="2">
                    <syllabic>end</syllabic>
                    <text>deth</text>
                </lyric>
                <lyric number="3">
                    <syllabic>single</syllabic>
                    <text>of the</text>
                </lyric>
                <lyric number="4">
                    <syllabic>single</syllabic>
                    <text>there</text>
                </lyric>
                <lyric number="5">
                    <syllabic>single</syllabic>
                    <text>and</text>
                </lyric>
                <lyric number="6">
                    <syllabic>single</syllabic>
                    <text>not</text>
                </lyric>
            </note>
            <note default-y="-25.00" default-x="166.36">
                <pitch>
                    <step>A</step>
                    <octave>4</octave>
                </pitch>
                <duration>2</duration>
                <voice>1</voice>
                <type>quarter</type>
                <stem>up</stem>
                <lyric number="1">
                    <syllabic>single</syllabic>
                    <text>is</text>
                </lyric>
                <lyric number="2">
                    <syllabic>begin</syllabic>
                    <text>a</text>
                </lyric>
                <lyric number="3">
                    <syllabic>begin</syllabic>
                    <text>Bea</text>
                </lyric>
                <lyric number="4">
                    <syllabic>begin</syllabic>
                    <text>a</text>
                </lyric>
                <lyric number="5">
                    <syllabic>single</syllabic>
                    <text>white</text>
                </lyric>
                <lyric number="6">
                    <syllabic>begin</syllabic>
                    <text>ex</text>
                </lyric>
            </note>
        </measure>
        <measure width="228.18" number="19">
            <note default-y="-20.00" default-x="36.90">
                <pitch>
                    <step>B</step>
                    <octave>4</octave>
                </pitch>
                <duration>4</duration>
                <voice>1</voice>
                <type>half</type>
                <stem>down</stem>
                <lyric number="1">
                    <syllabic>single</syllabic>
                    <text>heard</text>
                </lyric>
                <lyric number="2">
                    <syllabic>end</syllabic>
                    <text>long</text>
                </lyric>
                <lyric number="3">
                    <syllabic>end</syllabic>
                    <text>ver,</text>
                </lyric>
                <lyric number="4">
                    <syllabic>end</syllabic>
                    <text>mazed,</text>
                </lyric>
                <lyric number="5">
                    <syllabic>single</syllabic>
                    <text>rocks,</text>
                </lyric>
                <lyric number="6">
                    <syllabic>end</syllabic>
                    <text>change</text>
                </lyric>
            </note>
            <note default-y="-30.00" default-x="131.00">
                <pitch>
                    <step>G</step>
                    <octave>4</octave>
                </pitch>
                <duration>1</duration>
                <voice>1</voice>
                <type>eighth</type>
                <stem>up</stem>
                <beam number="1">begin</beam>
                <lyric number="1">
                    <syllabic>single</syllabic>
                    <text>a</text>
                </lyric>
                <lyric number="2">
                    <syllabic>single</syllabic>
                    <text>the</text>
                    <extend/>
                </lyric>
                <lyric number="3">
                    <syllabic>single</syllabic>
                    <text>where</text>
                </lyric>
                <lyric number="4">
                    <syllabic>single</syllabic>
                    <text>and</text>
                    <extend/>
                </lyric>
                <lyric number="5">
                    <syllabic>single</syllabic>
                    <text>and</text>
                    <extend/>
                </lyric>
                <lyric number="6">
                    <syllabic>single</syllabic>
                    <text>my</text>
                    <extend/>
                </lyric>
            </note>
            <note default-y="-35.00" default-x="183.81">
                <pitch>
                    <step>F</step>
                    <alter>1</alter>
                    <octave>4</octave>
                </pitch>
                <duration>1</duration>
                <voice>1</voice>
                <type>eighth</type>
                <stem>up</stem>
                <beam number="1">end</beam>
                <lyric number="1">
                    <syllabic>begin</syllabic>
                    <text>dis</text>
                </lyric>
                <lyric number="3">
                    <syllabic>begin</syllabic>
                    <text>sel</text>
                </lyric>
            </note>
        </measure>
        <measure width="256.92" number="20">
            <print new-system="yes">
                <system-layout>
                    <system-margins>
                        <left-margin>46.81</left-margin>
                        <right-margin>0.00</right-margin>
                    </system-margins>
                    <system-distance>266.45</system-distance>
                </system-layout>
            </print>
            <harmony print-frame="no">
                <root>
                    <root-step>C</root-step>
                </root>
                <kind text="">major</kind>
            </harmony>
            <note default-y="-40.00" default-x="90.88">
                <pitch>
                    <step>E</step>
                    <octave>4</octave>
                </pitch>
                <duration>3</duration>
                <voice>1</voice>
                <type>quarter</type>
                <dot/>
                <stem>up</stem>
                <lyric number="1">
                    <syllabic>middle</syllabic>
                    <text>cour</text>
                </lyric>
                <lyric number="2">
                    <syllabic>begin</syllabic>
                    <text>grace</text>
                </lyric>
                <lyric number="3">
                    <syllabic>end</syllabic>
                    <text>dom</text>
                </lyric>
                <lyric number="4">
                    <syllabic>single</syllabic>
                    <text>asked</text>
                </lyric>
                <lyric number="5">
                    <syllabic>begin</syllabic>
                    <text>an</text>
                </lyric>
                <lyric number="6">
                    <syllabic>single</syllabic>
                    <text>home</text>
                </lyric>
            </note>
            <note default-y="-15.00" default-x="153.46">
                <pitch>
                    <step>C</step>
                    <octave>5</octave>
                </pitch>
                <duration>1</duration>
                <voice>1</voice>
                <type>eighth</type>
                <stem>down</stem>
                <lyric number="1">
                    <syllabic>middle</syllabic>
                    <text>ag</text>
                </lyric>
                <lyric number="2">
                    <syllabic>end</syllabic>
                    <text>ful</text>
                </lyric>
                <lyric number="3">
                    <syllabic>single</syllabic>
                    <text>if</text>
                </lyric>
                <lyric number="4">
                    <syllabic>single</syllabic>
                    <text>as</text>
                </lyric>
                <lyric number="5">
                    <syllabic>middle</syllabic>
                    <text>te</text>
                </lyric>
                <lyric number="6">
                    <syllabic>single</syllabic>
                    <text>here</text>
                </lyric>
            </note>
            <note default-y="-15.00" default-x="203.99">
                <pitch>
                    <step>C</step>
                    <octave>5</octave>
                </pitch>
                <duration>2</duration>
                <voice>1</voice>
                <type>quarter</type>
                <stem>down</stem>
                <lyric number="1">
                    <syllabic>end</syllabic>
                    <text>ing</text>
                </lyric>
                <lyric number="2">
                    <syllabic>single</syllabic>
                    <text>white</text>
                </lyric>
                <lyric number="3">
                    <syllabic>begin</syllabic>
                    <text>e</text>
                </lyric>
                <lyric number="4">
                    <syllabic>single</syllabic>
                    <text>I</text>
                </lyric>
                <lyric number="5">
                    <syllabic>end</syllabic>
                    <text>lope</text>
                </lyric>
                <lyric number="6">
                    <syllabic>single</syllabic>
                    <text>to</text>
                </lyric>
            </note>
        </measure>
        <measure width="221.21" number="21">
            <harmony print-frame="no">
                <root>
                    <root-step>C</root-step>
                </root>
                <kind text="m">minor</kind>
            </harmony>
            <note default-y="-15.00" default-x="35.03">
                <pitch>
                    <step>C</step>
                    <octave>5</octave>
                </pitch>
                <duration>4</duration>
                <voice>1</voice>
                <type>half</type>
                <stem>down</stem>
                <lyric number="1">
                    <syllabic>single</syllabic>
                    <text>word,</text>
                </lyric>
                <lyric number="2">
                    <syllabic>single</syllabic>
                    <text>swan,</text>
                </lyric>
                <lyric number="3">
                    <syllabic>end</syllabic>
                    <text>ver,</text>
                </lyric>
                <lyric number="4">
                    <syllabic>single</syllabic>
                    <text>gazed,</text>
                </lyric>
                <lyric number="5">
                    <syllabic>single</syllabic>
                    <text>flocks,</text>
                </lyric>
                <lyric number="6">
                    <syllabic>single</syllabic>
                    <text>range,</text>
                </lyric>
            </note>
            <note default-y="-15.00" default-x="114.42">
                <pitch>
                    <step>C</step>
                    <octave>5</octave>
                </pitch>
                <duration>1</duration>
                <voice>1</voice>
                <type>eighth</type>
                <stem>down</stem>
                <beam number="1">begin</beam>
                <lyric number="1">
                    <syllabic>single</syllabic>
                    <text>And</text>
                </lyric>
                <lyric number="2">
                    <syllabic>single</syllabic>
                    <text>Like</text>
                </lyric>
                <lyric number="3">
                    <syllabic>begin</syllabic>
                    <text>A</text>
                </lyric>
                <lyric number="4">
                    <syllabic>single</syllabic>
                    <text>If</text>
                </lyric>
                <lyric number="5">
                    <syllabic>single</syllabic>
                    <text>That</text>
                    <extend/>
                </lyric>
                <lyric number="6">
                    <syllabic>single</syllabic>
                    <text>For-</text>
                    <extend/>
                </lyric>
            </note>
            <note default-y="-15.00" default-x="183.52">
                <pitch>
                    <step>C</step>
                    <octave>5</octave>
                </pitch>
                <duration>1</duration>
                <voice>1</voice>
                <type>eighth</type>
                <stem>down</stem>
                <beam number="1">end</beam>
                <lyric number="1">
                    <syllabic>single</syllabic>
                    <text>the</text>
                </lyric>
                <lyric number="2">
                    <syllabic>single</syllabic>
                    <text>the</text>
                </lyric>
                <lyric number="3">
                    <syllabic>end</syllabic>
                    <text>ny</text>
                </lyric>
                <lyric number="4">
                    <syllabic>single</syllabic>
                    <text>their</text>
                </lyric>
            </note>
        </measure>
        <measure width="173.02" number="22">
            <harmony print-frame="no">
                <root>
                    <root-step>G</root-step>
                </root>
                <kind text="">major</kind>
            </harmony>
            <note default-y="-20.00" default-x="29.05">
                <pitch>
                    <step>B</step>
                    <octave>4</octave>
                </pitch>
                <duration>3</duration>
                <voice>1</voice>
                <type>quarter</type>
                <dot/>
                <stem>down</stem>
                <lyric number="1">
                    <syllabic>single</syllabic>
                    <text>skies</text>
                </lyric>
                <lyric number="2">
                    <syllabic>single</syllabic>
                    <text>maid</text>
                </lyric>
                <lyric number="3">
                    <syllabic>begin</syllabic>
                    <text>poi</text>
                </lyric>
                <lyric number="4">
                    <syllabic>begin</syllabic>
                    <text>glo</text>
                </lyric>
                <lyric number="5">
                    <syllabic>single</syllabic>
                    <text>graze</text>
                </lyric>
                <lyric number="6">
                    <syllabic>begin</syllabic>
                    <text>ev</text>
                </lyric>
            </note>
            <note default-y="-25.00" default-x="83.72">
                <pitch>
                    <step>A</step>
                    <octave>4</octave>
                </pitch>
                <duration>1</duration>
                <voice>1</voice>
                <type>eighth</type>
                <stem>up</stem>
                <lyric number="1">
                    <syllabic>single</syllabic>
                    <text>are</text>
                </lyric>
                <lyric number="2">
                    <syllabic>single</syllabic>
                    <text>in</text>
                </lyric>
                <lyric number="3">
                    <syllabic>middle</syllabic>
                    <text>son</text>
                </lyric>
                <lyric number="4">
                    <syllabic>end</syllabic>
                    <text>ry</text>
                </lyric>
                <lyric number="5">
                    <syllabic>single</syllabic>
                    <text>on</text>
                </lyric>
                <lyric number="6">
                    <syllabic>end</syllabic>
                    <text>er</text>
                </lyric>
            </note>
            <note default-y="-30.00" default-x="126.59">
                <pitch>
                    <step>G</step>
                    <octave>4</octave>
                </pitch>
                <duration>2</duration>
                <voice>1</voice>
                <type>quarter</type>
                <stem>up</stem>
                <lyric number="1">
                    <syllabic>single</syllabic>
                    <text>not</text>
                </lyric>
                <lyric number="2">
                    <syllabic>single</syllabic>
                    <text>her</text>
                </lyric>
                <lyric number="3">
                    <syllabic>end</syllabic>
                    <text>ous</text>
                </lyric>
                <lyric number="4">
                    <syllabic>begin</syllabic>
                    <text>ex</text>
                </lyric>
                <lyric number="5">
                    <syllabic>single</syllabic>
                    <text>the</text>
                </lyric>
                <lyric number="6">
                    <syllabic>single</syllabic>
                    <text>in</text>
                </lyric>
            </note>
        </measure>
        <measure width="195.15" number="23">
            <harmony print-frame="no">
                <root>
                    <root-step>D</root-step>
                </root>
                <kind text="7">dominant</kind>
            </harmony>
            <note default-y="-35.00" default-x="30.33">
                <pitch>
                    <step>F</step>
                    <alter>1</alter>
                    <octave>4</octave>
                </pitch>
                <duration>3</duration>
                <voice>1</voice>
                <type>quarter</type>
                <dot/>
                <stem>up</stem>
                <lyric number="1">
                    <syllabic>begin</syllabic>
                    <text>cloud</text>
                </lyric>
                <lyric number="2">
                    <syllabic>begin</syllabic>
                    <text>heav</text>
                </lyric>
                <lyric number="3">
                    <syllabic>begin</syllabic>
                    <text>her</text>
                </lyric>
                <lyric number="4">
                    <syllabic>end</syllabic>
                    <text>ceeds</text>
                </lyric>
                <lyric number="5">
                    <syllabic>begin</syllabic>
                    <text>moun</text>
                </lyric>
                <lyric number="6">
                    <syllabic>begin</syllabic>
                    <text>a</text>
                </lyric>
            </note>
            <note default-y="-30.00" default-x="92.58">
                <pitch>
                    <step>G</step>
                    <octave>4</octave>
                </pitch>
                <duration>1</duration>
                <voice>1</voice>
                <type>eighth</type>
                <stem>up</stem>
                <lyric number="1">
                    <syllabic>end</syllabic>
                    <text>y</text>
                </lyric>
                <lyric number="2">
                    <syllabic>middle</syllabic>
                    <text>en</text>
                </lyric>
                <lyric number="3">
                    <syllabic>end</syllabic>
                    <text>bage</text>
                </lyric>
                <lyric number="4">
                    <syllabic>single</syllabic>
                    <text>that</text>
                </lyric>
                <lyric number="5">
                    <syllabic>end</syllabic>
                    <text>tains</text>
                </lyric>
                <lyric number="6">
                    <syllabic>end</syllabic>
                    <text>zures</text>
                </lyric>
            </note>
            <note default-y="-25.00" default-x="142.50">
                <pitch>
                    <step>A</step>
                    <octave>4</octave>
                </pitch>
                <duration>2</duration>
                <voice>1</voice>
                <type>quarter</type>
                <stem>up</stem>
                <lyric number="1">
                    <syllabic>single</syllabic>
                    <text>all</text>
                </lyric>
                <lyric number="2">
                    <syllabic>end</syllabic>
                    <text>ly</text>
                </lyric>
                <lyric number="3">
                    <syllabic>single</syllabic>
                    <text>doth</text>
                </lyric>
                <lyric number="4">
                    <syllabic>single</syllabic>
                    <text>of</text>
                </lyric>
                <lyric number="5">
                    <syllabic>single</syllabic>
                    <text>so</text>
                </lyric>
                <lyric number="6">
                    <syllabic>single</syllabic>
                    <text>so</text>
                </lyric>
            </note>
        </measure>
        <measure width="117.80" number="24">
            <harmony print-frame="no">
                <root>
                    <root-step>G</root-step>
                </root>
                <kind text="">major</kind>
            </harmony>
            <note default-y="-30.00" default-x="12.00">
                <pitch>
                    <step>G</step>
                    <octave>4</octave>
                </pitch>
                <duration>6</duration>
                <voice>1</voice>
                <type>half</type>
                <dot/>
                <stem>up</stem>
                <notations>
                    <slur type="start" number="1"/>
                </notations>
                <lyric number="1">
                    <syllabic>single</syllabic>
                    <text>day.</text>
                    <extend/>
                </lyric>
                <lyric number="2">
                    <syllabic>single</syllabic>
                    <text>dreams.</text>
                    <extend/>
                </lyric>
                <lyric number="3">
                    <syllabic>single</syllabic>
                    <text>grow.</text>
                    <extend/>
                </lyric>
                <lyric number="4">
                    <syllabic>single</syllabic>
                    <text>ours.</text>
                    <extend/>
                </lyric>
                <lyric number="5">
                    <syllabic>single</syllabic>
                    <text>green.</text>
                    <extend/>
                </lyric>
                <lyric number="6">
                    <syllabic>single</syllabic>
                    <text>bright.</text>
                    <extend/>
                </lyric>
            </note>
        </measure>
        <measure width="66.26" number="25">
            <note default-y="-30.00" default-x="12.00">
                <pitch>
                    <step>G</step>
                    <octave>4</octave>
                </pitch>
                <duration>4</duration>
                <voice>1</voice>
                <type>half</type>
                <stem>up</stem>
                <notations>
                    <slur type="stop" number="1"/>
                </notations>
            </note>
            <note>
                <rest/>
                <duration>2</duration>
                <voice>1</voice>
                <type>quarter</type>
            </note>
            <barline location="right">
                <bar-style>light-light</bar-style>
            </barline>
        </measure>
        <measure width="153.89" number="26">
            <print new-system="yes">
                <system-layout>
                    <system-margins>
                        <left-margin>46.81</left-margin>
                        <right-margin>0.00</right-margin>
                    </system-margins>
                    <system-distance>266.45</system-distance>
                </system-layout>
            </print>
            <harmony print-frame="no">
                <root>
                    <root-step>G</root-step>
                </root>
                <kind text="">major</kind>
            </harmony>
            <direction placement="above">
                <direction-type>
                    <words>CHORUS:</words>
                </direction-type>
            </direction>
            <note default-y="-10.00" default-x="95.56">
                <pitch>
                    <step>D</step>
                    <octave>5</octave>
                </pitch>
                <duration>6</duration>
                <voice>1</voice>
                <type>half</type>
                <dot/>
                <stem>down</stem>
                <lyric number="1">
                    <syllabic>single</syllabic>
                    <text>Home,</text>
                </lyric>
            </note>
        </measure>
        <measure width="145.77" number="27">
            <harmony print-frame="no">
                <root>
                    <root-step>D</root-step>
                </root>
                <kind text="7">dominant</kind>
            </harmony>
            <note default-y="-15.00" default-x="29.69">
                <pitch>
                    <step>C</step>
                    <octave>5</octave>
                </pitch>
                <duration>3</duration>
                <voice>1</voice>
                <type>quarter</type>
                <dot/>
                <stem>down</stem>
                <lyric number="1">
                    <syllabic>single</syllabic>
                    <text>home</text>
                </lyric>
            </note>
            <note default-y="-20.00" default-x="75.02">
                <pitch>
                    <step>B</step>
                    <octave>4</octave>
                </pitch>
                <duration>1</duration>
                <voice>1</voice>
                <type>eighth</type>
                <stem>down</stem>
                <lyric number="1">
                    <syllabic>single</syllabic>
                    <text>on</text>
                </lyric>
            </note>
            <note default-y="-25.00" default-x="106.99">
                <pitch>
                    <step>A</step>
                    <octave>4</octave>
                </pitch>
                <duration>2</duration>
                <voice>1</voice>
                <type>quarter</type>
                <stem>up</stem>
                <lyric number="1">
                    <syllabic>single</syllabic>
                    <text>the</text>
                </lyric>
            </note>
        </measure>
        <measure width="96.72" number="28">
            <harmony print-frame="no">
                <root>
                    <root-step>G</root-step>
                </root>
                <kind text="">major</kind>
            </harmony>
            <note default-y="-20.00" default-x="12.00">
                <pitch>
                    <step>B</step>
                    <octave>4</octave>
                </pitch>
                <duration>6</duration>
                <voice>1</voice>
                <type>half</type>
                <dot/>
                <stem>down</stem>
                <notations>
                    <slur type="start" number="1"/>
                </notations>
                <lyric number="1">
                    <syllabic>single</syllabic>
                    <text>range,</text>
                    <extend/>
                </lyric>
            </note>
        </measure>
        <measure width="152.61" number="29">
            <note default-y="-20.00" default-x="12.00">
                <pitch>
                    <step>B</step>
                    <octave>4</octave>
                </pitch>
                <duration>4</duration>
                <voice>1</voice>
                <type>half</type>
                <stem>down</stem>
                <notations>
                    <slur type="stop" number="1"/>
                </notations>
            </note>
            <note default-y="-45.00" default-x="73.26">
                <pitch>
                    <step>D</step>
                    <octave>4</octave>
                </pitch>
                <duration>1</duration>
                <voice>1</voice>
                <type>eighth</type>
                <stem>up</stem>
                <beam number="1">begin</beam>
                <lyric number="1">
                    <syllabic>single</syllabic>
                    <text>Where</text>
                </lyric>
            </note>
            <note default-y="-45.00" default-x="123.16">
                <pitch>
                    <step>D</step>
                    <octave>4</octave>
                </pitch>
                <duration>1</duration>
                <voice>1</voice>
                <type>eighth</type>
                <stem>up</stem>
                <beam number="1">end</beam>
                <lyric number="1">
                    <syllabic>single</syllabic>
                    <text>the</text>
                </lyric>
            </note>
        </measure>
        <measure width="149.70" number="30">
            <note default-y="-45.00" default-x="24.04">
                <pitch>
                    <step>D</step>
                    <octave>4</octave>
                </pitch>
                <duration>3</duration>
                <voice>1</voice>
                <type>quarter</type>
                <dot/>
                <stem>up</stem>
                <lyric number="1">
                    <syllabic>single</syllabic>
                    <text>deer</text>
                </lyric>
            </note>
            <note default-y="-30.00" default-x="69.69">
                <pitch>
                    <step>G</step>
                    <octave>4</octave>
                </pitch>
                <duration>1</duration>
                <voice>1</voice>
                <type>eighth</type>
                <stem>up</stem>
                <lyric number="1">
                    <syllabic>single</syllabic>
                    <text>and</text>
                </lyric>
            </note>
            <note default-y="-30.00" default-x="110.67">
                <pitch>
                    <step>G</step>
                    <octave>4</octave>
                </pitch>
                <duration>2</duration>
                <voice>1</voice>
                <type>quarter</type>
                <stem>up</stem>
                <lyric number="1">
                    <syllabic>single</syllabic>
                    <text>the</text>
                </lyric>
            </note>
        </measure>
        <measure width="126.56" number="31">
            <direction>
                <direction-type>
                    <words default-y="100">dim</words>
                </direction-type>
            </direction>
            <note default-y="-30.00" default-x="15.26">
                <pitch>
                    <step>G</step>
                    <octave>4</octave>
                </pitch>
                <duration>2</duration>
                <voice>1</voice>
                <type>quarter</type>
                <stem>up</stem>
                <lyric number="1">
                    <syllabic>begin</syllabic>
                    <text>an</text>
                </lyric>
            </note>
            <note default-y="-35.00" default-x="51.31">
                <pitch>
                    <step>F</step>
                    <alter>1</alter>
                    <octave>4</octave>
                </pitch>
                <duration>2</duration>
                <voice>1</voice>
                <type>quarter</type>
                <stem>up</stem>
                <lyric number="1">
                    <syllabic>middle</syllabic>
                    <text>te</text>
                </lyric>
            </note>
            <note default-y="-30.00" default-x="88.92">
                <pitch>
                    <step>G</step>
                    <octave>4</octave>
                </pitch>
                <duration>2</duration>
                <voice>1</voice>
                <type>quarter</type>
                <stem>up</stem>
                <lyric number="1">
                    <syllabic>end</syllabic>
                    <text>lope</text>
                </lyric>
            </note>
        </measure>
        <measure width="86.10" number="32">
            <harmony print-frame="no">
                <root>
                    <root-step>D</root-step>
                </root>
                <kind text="7">dominant</kind>
            </harmony>
            <note default-y="-25.00" default-x="12.00">
                <pitch>
                    <step>A</step>
                    <octave>4</octave>
                </pitch>
                <duration>6</duration>
                <voice>1</voice>
                <type>half</type>
                <dot/>
                <stem>up</stem>
                <notations>
                    <slur type="start" number="1"/>
                </notations>
                <lyric number="1">
                    <syllabic>single</syllabic>
                    <text>play;</text>
                    <extend/>
                </lyric>
            </note>
        </measure>
        <measure width="119.00" number="33">
            <note default-y="-25.00" default-x="12.00">
                <pitch>
                    <step>A</step>
                    <octave>4</octave>
                </pitch>
                <duration>4</duration>
                <voice>1</voice>
                <type>half</type>
                <stem>up</stem>
                <notations>
                    <slur type="stop" number="1"/>
                </notations>
            </note>
            <note default-y="-45.00" default-x="76.30">
                <pitch>
                    <step>D</step>
                    <octave>4</octave>
                </pitch>
                <duration>2</duration>
                <voice>1</voice>
                <type>quarter</type>
                <stem>up</stem>
                <lyric number="1">
                    <syllabic>single</syllabic>
                    <text>Where</text>
                </lyric>
            </note>
        </measure>
        <measure width="172.23" number="34">
            <print new-system="yes">
                <system-layout>
                    <system-margins>
                        <left-margin>46.81</left-margin>
                        <right-margin>-0.00</right-margin>
                    </system-margins>
                    <system-distance>136.45</system-distance>
                </system-layout>
            </print>
            <harmony print-frame="no">
                <root>
                    <root-step>G</root-step>
                </root>
                <kind text="">major</kind>
            </harmony>
            <note default-y="-45.00" default-x="81.46">
                <pitch>
                    <step>D</step>
                    <octave>4</octave>
                </pitch>
                <duration>2</duration>
                <voice>1</voice>
                <type>quarter</type>
                <stem>up</stem>
                <lyric number="1">
                    <syllabic>begin</syllabic>
                    <text>nev</text>
                </lyric>
            </note>
            <note default-y="-30.00" default-x="112.55">
                <pitch>
                    <step>G</step>
                    <octave>4</octave>
                </pitch>
                <duration>2</duration>
                <voice>1</voice>
                <type>quarter</type>
                <stem>up</stem>
                <lyric number="1">
                    <syllabic>end</syllabic>
                    <text>er</text>
                </lyric>
            </note>
            <note default-y="-25.00" default-x="141.59">
                <pitch>
                    <step>A</step>
                    <octave>4</octave>
                </pitch>
                <duration>2</duration>
                <voice>1</voice>
                <type>quarter</type>
                <stem>up</stem>
                <lyric number="1">
                    <syllabic>single</syllabic>
                    <text>is</text>
                </lyric>
            </note>
        </measure>
        <measure width="136.76" number="35">
            <note default-y="-20.00" default-x="29.69">
                <pitch>
                    <step>B</step>
                    <octave>4</octave>
                </pitch>
                <duration>4</duration>
                <voice>1</voice>
                <type>half</type>
                <stem>down</stem>
                <lyric number="1">
                    <syllabic>single</syllabic>
                    <text>heard</text>
                </lyric>
            </note>
            <note default-y="-30.00" default-x="79.62">
                <pitch>
                    <step>G</step>
                    <octave>4</octave>
                </pitch>
                <duration>1</duration>
                <voice>1</voice>
                <type>eighth</type>
                <stem>up</stem>
                <beam number="1">begin</beam>
                <lyric number="1">
                    <syllabic>single</syllabic>
                    <text>a</text>
                </lyric>
            </note>
            <note default-y="-35.00" default-x="110.97">
                <pitch>
                    <step>F</step>
                    <alter>1</alter>
                    <octave>4</octave>
                </pitch>
                <duration>1</duration>
                <voice>1</voice>
                <type>eighth</type>
                <stem>up</stem>
                <beam number="1">end</beam>
                <lyric number="1">
                    <syllabic>begin</syllabic>
                    <text>dis</text>
                </lyric>
            </note>
        </measure>
        <measure width="134.88" number="36">
            <harmony print-frame="no">
                <root>
                    <root-step>C</root-step>
                </root>
                <kind text="">major</kind>
            </harmony>
            <note default-y="-40.00" default-x="24.67">
                <pitch>
                    <step>E</step>
                    <octave>4</octave>
                </pitch>
                <duration>2</duration>
                <voice>1</voice>
                <type>quarter</type>
                <stem>up</stem>
                <lyric number="1">
                    <syllabic>middle</syllabic>
                    <text>cour</text>
                </lyric>
            </note>
            <note default-y="-15.00" default-x="61.40">
                <pitch>
                    <step>C</step>
                    <octave>5</octave>
                </pitch>
                <duration>2</duration>
                <voice>1</voice>
                <type>quarter</type>
                <stem>down</stem>
                <lyric number="1">
                    <syllabic>middle</syllabic>
                    <text>ag</text>
                </lyric>
            </note>
            <note default-y="-15.00" default-x="97.34">
                <pitch>
                    <step>C</step>
                    <octave>5</octave>
                </pitch>
                <duration>2</duration>
                <voice>1</voice>
                <type>quarter</type>
                <stem>down</stem>
                <lyric number="1">
                    <syllabic>end</syllabic>
                    <text>ing</text>
                </lyric>
            </note>
        </measure>
        <measure width="161.58" number="37">
            <harmony print-frame="no">
                <root>
                    <root-step>C</root-step>
                </root>
                <kind text="m">minor</kind>
            </harmony>
            <note default-y="-15.00" default-x="30.62">
                <pitch>
                    <step>C</step>
                    <octave>5</octave>
                </pitch>
                <duration>4</duration>
                <voice>1</voice>
                <type>half</type>
                <stem>down</stem>
                <lyric number="1">
                    <syllabic>single</syllabic>
                    <text>word,</text>
                </lyric>
            </note>
            <note default-y="-10.00" default-x="92.57">
                <pitch>
                    <step>D</step>
                    <octave>5</octave>
                </pitch>
                <duration>1</duration>
                <voice>1</voice>
                <type>eighth</type>
                <stem>down</stem>
                <beam number="1">begin</beam>
                <lyric number="1">
                    <syllabic>single</syllabic>
                    <text>And</text>
                </lyric>
            </note>
            <note default-y="-15.00" default-x="131.82">
                <pitch>
                    <step>C</step>
                    <octave>5</octave>
                </pitch>
                <duration>1</duration>
                <voice>1</voice>
                <type>eighth</type>
                <stem>down</stem>
                <beam number="1">end</beam>
                <lyric number="1">
                    <syllabic>single</syllabic>
                    <text>the</text>
                </lyric>
            </note>
        </measure>
        <measure width="152.07" number="38">
            <harmony print-frame="no">
                <root>
                    <root-step>G</root-step>
                </root>
                <kind text="">major</kind>
            </harmony>
            <note default-y="-20.00" default-x="27.20">
                <pitch>
                    <step>B</step>
                    <octave>4</octave>
                </pitch>
                <duration>3</duration>
                <voice>1</voice>
                <type>quarter</type>
                <dot/>
                <stem>down</stem>
                <lyric number="1">
                    <syllabic>single</syllabic>
                    <text>skies</text>
                </lyric>
            </note>
            <note default-y="-25.00" default-x="72.07">
                <pitch>
                    <step>A</step>
                    <octave>4</octave>
                </pitch>
                <duration>1</duration>
                <voice>1</voice>
                <type>eighth</type>
                <stem>up</stem>
                <lyric number="1">
                    <syllabic>single</syllabic>
                    <text>are</text>
                </lyric>
            </note>
            <note default-y="-30.00" default-x="113.68">
                <pitch>
                    <step>G</step>
                    <octave>4</octave>
                </pitch>
                <duration>2</duration>
                <voice>1</voice>
                <type>quarter</type>
                <stem>up</stem>
                <lyric number="1">
                    <syllabic>single</syllabic>
                    <text>not</text>
                </lyric>
            </note>
        </measure>
        <measure width="134.51" number="39">
            <harmony print-frame="no">
                <root>
                    <root-step>D</root-step>
                </root>
                <kind text="7">dominant</kind>
            </harmony>
            <note default-y="-35.00" default-x="29.70">
                <pitch>
                    <step>F</step>
                    <alter>1</alter>
                    <octave>4</octave>
                </pitch>
                <duration>2</duration>
                <voice>1</voice>
                <type>quarter</type>
                <stem>up</stem>
                <lyric number="1">
                    <syllabic>begin</syllabic>
                    <text>cloud</text>
                </lyric>
            </note>
            <note default-y="-30.00" default-x="66.45">
                <pitch>
                    <step>G</step>
                    <octave>4</octave>
                </pitch>
                <duration>2</duration>
                <voice>1</voice>
                <type>quarter</type>
                <stem>up</stem>
                <lyric number="1">
                    <syllabic>end</syllabic>
                    <text>y</text>
                </lyric>
            </note>
            <note default-y="-25.00" default-x="99.68">
                <pitch>
                    <step>A</step>
                    <octave>4</octave>
                </pitch>
                <duration>2</duration>
                <voice>1</voice>
                <type>quarter</type>
                <stem>up</stem>
                <lyric number="1">
                    <syllabic>single</syllabic>
                    <text>all</text>
                </lyric>
            </note>
        </measure>
        <measure width="77.81" number="40">
            <harmony print-frame="no">
                <root>
                    <root-step>G</root-step>
                </root>
                <kind text="">major</kind>
            </harmony>
            <note default-y="-30.00" default-x="12.00">
                <pitch>
                    <step>G</step>
                    <octave>4</octave>
                </pitch>
                <duration>6</duration>
                <voice>1</voice>
                <type>half</type>
                <dot/>
                <stem>up</stem>
                <notations>
                    <slur type="start" number="1"/>
                </notations>
                <lyric number="1">
                    <syllabic>single</syllabic>
                    <text>day.</text>
                    <extend/>
                </lyric>
            </note>
        </measure>
        <measure width="60.51" number="41">
            <note default-y="-30.00" default-x="12.00">
                <pitch>
                    <step>G</step>
                    <octave>4</octave>
                </pitch>
                <duration>2</duration>
                <voice>1</voice>
                <type>quarter</type>
                <stem>up</stem>
                <notations>
                    <slur type="stop" number="1"/>
                </notations>
            </note>
            <note>
                <rest/>
                <duration>2</duration>
                <voice>1</voice>
                <type>quarter</type>
            </note>
            <barline location="right">
                <bar-style>light-heavy</bar-style>
                <repeat direction="backward"/>
            </barline>
        </measure>
    </part>
</score-partwise>
