<?xml version="1.0" encoding="UTF-8"?>
<!DOCTYPE score-partwise PUBLIC "-//Recordare//DTD MusicXML 2.0 Partwise//EN" "http://www.musicxml.org/dtds/partwise.dtd">
<score-partwise version="2.0">
    <work>
        <work-number></work-number>
        <work-title></work-title>
    </work>
    <movement-number></movement-number>
    <movement-title>Ma Cherie (simple)</movement-title>
    <identification>
        <creator type="composer">DJ Antoine</creator>
        <creator type="poet"></creator>
        <rights>All Rights Reserved</rights>
        <encoding>
            <software>MuseScore 1.2</software>
            <encoding-date>2013-01-13</encoding-date>
            <software>ProxyMusic 2.0 c</software>
        </encoding>
        <source>http://wikifonia.org/node/20030/revisions/26444/view</source>
    </identification>
    <defaults>
        <scaling>
            <millimeters>7.05556</millimeters>
            <tenths>40</tenths>
        </scaling>
        <page-layout>
            <page-height>1683.78</page-height>
            <page-width>1190.55</page-width>
            <page-margins type="even">
                <left-margin>56.6929</left-margin>
                <right-margin>56.6929</right-margin>
                <top-margin>56.6929</top-margin>
                <bottom-margin>113.386</bottom-margin>
            </page-margins>
            <page-margins type="odd">
                <left-margin>56.6929</left-margin>
                <right-margin>56.6929</right-margin>
                <top-margin>56.6929</top-margin>
                <bottom-margin>113.386</bottom-margin>
            </page-margins>
        </page-layout>
    </defaults>
    <credit page="1">
        <credit-words font-size="28" default-y="1627.09" default-x="595.276" justify="center" valign="top">Ma Cherie</credit-words>
    </credit>
    <credit page="1">
        <credit-words font-size="12" default-y="1561.09" default-x="1133.86" justify="right" valign="top">DJ Antoine</credit-words>
    </credit>
    <part-list>
        <score-part id="P1">
            <part-name>Pad</part-name>
            <score-instrument id="P1-I3">
                <instrument-name>Pad</instrument-name>
            </score-instrument>
            <midi-instrument id="P1-I3">
                <midi-channel>1</midi-channel>
                <midi-program>1</midi-program>
                <volume>78.7402</volume>
                <pan>0</pan>
            </midi-instrument>
        </score-part>
    </part-list>
    <part id="P1">
        <measure width="285.92" number="1">
            <print>
                <system-layout>
                    <system-margins>
                        <left-margin>70.47</left-margin>
                        <right-margin>0.00</right-margin>
                    </system-margins>
                    <top-system-distance>281.55</top-system-distance>
                </system-layout>
                <staff-layout number="2">
                    <staff-distance>65.00</staff-distance>
                </staff-layout>
            </print>
            <attributes>
                <divisions>8</divisions>
                <key>
                    <fifths>1</fifths>
                    <mode>major</mode>
                </key>
                <time>
                    <beats>4</beats>
                    <beat-type>4</beat-type>
                </time>
                <staves>2</staves>
                <clef number="1">
                    <sign>G</sign>
                    <line>2</line>
                </clef>
                <clef number="2">
                    <sign>F</sign>
                    <line>4</line>
                </clef>
            </attributes>
            <direction>
                <direction-type>
                    <words default-y="100">Em</words>
                </direction-type>
            </direction>
            <note>
                <rest/>
                <duration>32</duration>
                <voice>1</voice>
                <type>whole</type>
                <staff>1</staff>
            </note>
            <backup>
                <duration>32</duration>
            </backup>
            <note default-y="-120.00" default-x="90.33" dynamics="111.11">
                <pitch>
                    <step>E</step>
                    <octave>3</octave>
                </pitch>
                <duration>32</duration>
                <voice>5</voice>
                <type>whole</type>
                <staff>2</staff>
            </note>
            <note default-y="-110.00" default-x="90.33" dynamics="111.11">
                <chord/>
                <pitch>
                    <step>G</step>
                    <octave>3</octave>
                </pitch>
                <duration>32</duration>
                <voice>5</voice>
                <type>whole</type>
                <staff>2</staff>
            </note>
            <note default-y="-100.00" default-x="90.33" dynamics="111.11">
                <chord/>
                <pitch>
                    <step>B</step>
                    <octave>3</octave>
                </pitch>
                <duration>32</duration>
                <voice>5</voice>
                <type>whole</type>
                <staff>2</staff>
            </note>
        </measure>
        <measure width="207.59" number="2">
            <harmony print-frame="no">
                <root>
                    <root-step>C</root-step>
                </root>
                <kind text="">major</kind>
                <staff>1</staff>
            </harmony>
            <note>
                <rest/>
                <duration>32</duration>
                <voice>1</voice>
                <type>whole</type>
                <staff>1</staff>
            </note>
            <backup>
                <duration>32</duration>
            </backup>
            <note default-y="-120.00" default-x="12.00" dynamics="111.11">
                <pitch>
                    <step>E</step>
                    <octave>3</octave>
                </pitch>
                <duration>32</duration>
                <voice>5</voice>
                <type>whole</type>
                <staff>2</staff>
            </note>
            <note default-y="-110.00" default-x="12.00" dynamics="111.11">
                <chord/>
                <pitch>
                    <step>G</step>
                    <octave>3</octave>
                </pitch>
                <duration>32</duration>
                <voice>5</voice>
                <type>whole</type>
                <staff>2</staff>
            </note>
            <note default-y="-95.00" default-x="12.00" dynamics="111.11">
                <chord/>
                <pitch>
                    <step>C</step>
                    <octave>4</octave>
                </pitch>
                <duration>32</duration>
                <voice>5</voice>
                <type>whole</type>
                <staff>2</staff>
            </note>
        </measure>
        <measure width="207.59" number="3">
            <harmony print-frame="no">
                <root>
                    <root-step>G</root-step>
                </root>
                <kind text="">major</kind>
                <staff>1</staff>
            </harmony>
            <note>
                <rest/>
                <duration>32</duration>
                <voice>1</voice>
                <type>whole</type>
                <staff>1</staff>
            </note>
            <backup>
                <duration>32</duration>
            </backup>
            <note default-y="-125.00" default-x="12.00" dynamics="111.11">
                <pitch>
                    <step>D</step>
                    <octave>3</octave>
                </pitch>
                <duration>32</duration>
                <voice>5</voice>
                <type>whole</type>
                <staff>2</staff>
            </note>
            <note default-y="-110.00" default-x="12.00" dynamics="111.11">
                <chord/>
                <pitch>
                    <step>G</step>
                    <octave>3</octave>
                </pitch>
                <duration>32</duration>
                <voice>5</voice>
                <type>whole</type>
                <staff>2</staff>
            </note>
            <note default-y="-100.00" default-x="12.00" dynamics="111.11">
                <chord/>
                <pitch>
                    <step>B</step>
                    <octave>3</octave>
                </pitch>
                <duration>32</duration>
                <voice>5</voice>
                <type>whole</type>
                <staff>2</staff>
            </note>
        </measure>
        <measure width="305.60" number="4">
            <harmony print-frame="no">
                <root>
                    <root-step>D</root-step>
                </root>
                <kind text="">major</kind>
                <staff>1</staff>
            </harmony>
            <note>
                <rest/>
                <duration>16</duration>
                <voice>1</voice>
                <type>half</type>
                <staff>1</staff>
            </note>
            <note default-y="-15.00" default-x="84.59" dynamics="111.11">
                <pitch>
                    <step>C</step>
                    <octave>5</octave>
                </pitch>
                <duration>4</duration>
                <voice>1</voice>
                <type>eighth</type>
                <stem>up</stem>
                <staff>1</staff>
                <beam number="1">begin</beam>
            </note>
            <note default-y="-20.00" default-x="131.55" dynamics="111.11">
                <pitch>
                    <step>B</step>
                    <octave>4</octave>
                </pitch>
                <duration>4</duration>
                <voice>1</voice>
                <type>eighth</type>
                <stem>up</stem>
                <staff>1</staff>
                <beam number="1">continue</beam>
            </note>
            <note default-y="-25.00" default-x="178.52" dynamics="111.11">
                <pitch>
                    <step>A</step>
                    <octave>4</octave>
                </pitch>
                <duration>4</duration>
                <voice>1</voice>
                <type>eighth</type>
                <stem>up</stem>
                <staff>1</staff>
                <beam number="1">continue</beam>
            </note>
            <note default-y="-30.00" default-x="225.49" dynamics="111.11">
                <pitch>
                    <step>G</step>
                    <octave>4</octave>
                </pitch>
                <duration>2</duration>
                <tie type="start"/>
                <voice>1</voice>
                <type>16th</type>
                <stem>up</stem>
                <staff>1</staff>
                <beam number="1">continue</beam>
                <beam number="2">begin</beam>
                <notations>
                    <tied type="start"/>
                </notations>
            </note>
            <note default-y="-30.00" default-x="259.65" dynamics="111.11">
                <pitch>
                    <step>G</step>
                    <octave>4</octave>
                </pitch>
                <duration>1</duration>
                <tie type="stop"/>
                <voice>1</voice>
                <type>32nd</type>
                <stem>up</stem>
                <staff>1</staff>
                <beam number="1">end</beam>
                <beam number="2">end</beam>
                <beam number="3">backward hook</beam>
                <notations>
                    <tied type="stop"/>
                </notations>
            </note>
            <note>
                <rest/>
                <duration>1</duration>
                <voice>1</voice>
                <type>32nd</type>
                <staff>1</staff>
            </note>
            <backup>
                <duration>32</duration>
            </backup>
            <note default-y="-125.00" default-x="12.00" dynamics="111.11">
                <pitch>
                    <step>D</step>
                    <octave>3</octave>
                </pitch>
                <duration>32</duration>
                <voice>5</voice>
                <type>whole</type>
                <staff>2</staff>
            </note>
            <note default-y="-115.00" default-x="12.00" dynamics="111.11">
                <chord/>
                <pitch>
                    <step>F</step>
                    <alter>1</alter>
                    <octave>3</octave>
                </pitch>
                <duration>32</duration>
                <voice>5</voice>
                <type>whole</type>
                <staff>2</staff>
            </note>
            <note default-y="-105.00" default-x="12.00" dynamics="111.11">
                <chord/>
                <pitch>
                    <step>A</step>
                    <octave>3</octave>
                </pitch>
                <duration>32</duration>
                <voice>5</voice>
                <type>whole</type>
                <staff>2</staff>
            </note>
        </measure>
        <measure width="324.96" number="5">
            <print new-system="yes">
                <system-layout>
                    <system-margins>
                        <left-margin>18.50</left-margin>
                        <right-margin>0.00</right-margin>
                    </system-margins>
                    <system-distance>194.05</system-distance>
                </system-layout>
                <staff-layout number="2">
                    <staff-distance>65.00</staff-distance>
                </staff-layout>
            </print>
            <barline location="left">
                <bar-style>heavy-light</bar-style>
                <repeat direction="forward"/>
            </barline>
            <direction>
                <direction-type>
                    <words default-y="100">Em</words>
                </direction-type>
            </direction>
            <note default-y="-40.00" default-x="79.93" dynamics="111.11">
                <pitch>
                    <step>E</step>
                    <octave>4</octave>
                </pitch>
                <duration>4</duration>
                <voice>1</voice>
                <type>eighth</type>
                <stem>up</stem>
                <staff>1</staff>
            </note>
            <note>
                <rest/>
                <duration>4</duration>
                <voice>1</voice>
                <type>eighth</type>
                <staff>1</staff>
            </note>
            <note default-y="-20.00" default-x="134.10" dynamics="111.11">
                <pitch>
                    <step>B</step>
                    <octave>4</octave>
                </pitch>
                <duration>4</duration>
                <voice>1</voice>
                <type>eighth</type>
                <stem>down</stem>
                <staff>1</staff>
            </note>
            <note>
                <rest/>
                <duration>4</duration>
                <voice>1</voice>
                <type>eighth</type>
                <staff>1</staff>
            </note>
            <note default-y="-40.00" default-x="188.26" dynamics="111.11">
                <pitch>
                    <step>E</step>
                    <octave>4</octave>
                </pitch>
                <duration>4</duration>
                <voice>1</voice>
                <type>eighth</type>
                <stem>up</stem>
                <staff>1</staff>
            </note>
            <note>
                <rest/>
                <duration>1</duration>
                <voice>1</voice>
                <type>32nd</type>
                <staff>1</staff>
            </note>
            <note default-y="-40.00" default-x="232.34" dynamics="111.11">
                <pitch>
                    <step>E</step>
                    <octave>4</octave>
                </pitch>
                <duration>2</duration>
                <tie type="start"/>
                <voice>1</voice>
                <type>16th</type>
                <stem>up</stem>
                <staff>1</staff>
                <beam number="1">begin</beam>
                <beam number="2">begin</beam>
                <notations>
                    <tied type="start"/>
                </notations>
            </note>
            <note default-y="-40.00" default-x="252.04" dynamics="111.11">
                <pitch>
                    <step>E</step>
                    <octave>4</octave>
                </pitch>
                <duration>1</duration>
                <tie type="stop"/>
                <voice>1</voice>
                <type>32nd</type>
                <stem>up</stem>
                <staff>1</staff>
                <beam number="1">end</beam>
                <beam number="2">end</beam>
                <beam number="3">backward hook</beam>
                <notations>
                    <tied type="stop"/>
                </notations>
            </note>
            <note>
                <rest/>
                <duration>4</duration>
                <voice>1</voice>
                <type>eighth</type>
                <staff>1</staff>
            </note>
            <note default-y="-15.00" default-x="296.28" dynamics="111.11">
                <pitch>
                    <step>C</step>
                    <octave>5</octave>
                </pitch>
                <duration>4</duration>
                <tie type="start"/>
                <voice>1</voice>
                <type>eighth</type>
                <stem>down</stem>
                <staff>1</staff>
                <notations>
                    <tied type="start"/>
                </notations>
            </note>
            <backup>
                <duration>32</duration>
            </backup>
            <note default-y="-120.00" default-x="79.93" dynamics="111.11">
                <pitch>
                    <step>E</step>
                    <octave>3</octave>
                </pitch>
                <duration>32</duration>
                <voice>5</voice>
                <type>whole</type>
                <staff>2</staff>
            </note>
            <note default-y="-110.00" default-x="79.93" dynamics="111.11">
                <chord/>
                <pitch>
                    <step>G</step>
                    <octave>3</octave>
                </pitch>
                <duration>32</duration>
                <voice>5</voice>
                <type>whole</type>
                <staff>2</staff>
            </note>
            <note default-y="-100.00" default-x="79.93" dynamics="111.11">
                <chord/>
                <pitch>
                    <step>B</step>
                    <octave>3</octave>
                </pitch>
                <duration>32</duration>
                <voice>5</voice>
                <type>whole</type>
                <staff>2</staff>
            </note>
        </measure>
        <measure width="275.85" number="6">
            <harmony print-frame="no">
                <root>
                    <root-step>C</root-step>
                </root>
                <kind text="">major</kind>
                <staff>1</staff>
            </harmony>
            <note default-y="-15.00" default-x="17.50" dynamics="111.11">
                <pitch>
                    <step>C</step>
                    <octave>5</octave>
                </pitch>
                <duration>2</duration>
                <tie type="stop"/>
                <voice>1</voice>
                <type>16th</type>
                <stem>down</stem>
                <staff>1</staff>
                <notations>
                    <tied type="stop"/>
                </notations>
            </note>
            <note>
                <rest/>
                <duration>2</duration>
                <voice>1</voice>
                <type>16th</type>
                <staff>1</staff>
            </note>
            <note>
                <rest/>
                <duration>4</duration>
                <voice>1</voice>
                <type>eighth</type>
                <staff>1</staff>
            </note>
            <note>
                <rest/>
                <duration>8</duration>
                <voice>1</voice>
                <type>quarter</type>
                <staff>1</staff>
            </note>
            <note default-y="-15.00" default-x="123.87" dynamics="111.11">
                <pitch>
                    <step>C</step>
                    <octave>5</octave>
                </pitch>
                <duration>2</duration>
                <voice>1</voice>
                <type>16th</type>
                <stem>down</stem>
                <staff>1</staff>
            </note>
            <note>
                <rest/>
                <duration>2</duration>
                <voice>1</voice>
                <type>16th</type>
                <staff>1</staff>
            </note>
            <note default-y="-15.00" default-x="160.55" dynamics="111.11">
                <pitch>
                    <step>C</step>
                    <octave>5</octave>
                </pitch>
                <duration>2</duration>
                <voice>1</voice>
                <type>16th</type>
                <stem>down</stem>
                <staff>1</staff>
            </note>
            <note>
                <rest/>
                <duration>2</duration>
                <voice>1</voice>
                <type>16th</type>
                <staff>1</staff>
            </note>
            <note default-y="-15.00" default-x="197.23" dynamics="111.11">
                <pitch>
                    <step>C</step>
                    <octave>5</octave>
                </pitch>
                <duration>2</duration>
                <voice>1</voice>
                <type>16th</type>
                <stem>down</stem>
                <staff>1</staff>
            </note>
            <note>
                <rest/>
                <duration>2</duration>
                <voice>1</voice>
                <type>16th</type>
                <staff>1</staff>
            </note>
            <note default-y="-15.00" default-x="233.91" dynamics="111.11">
                <pitch>
                    <step>C</step>
                    <octave>5</octave>
                </pitch>
                <duration>2</duration>
                <voice>1</voice>
                <type>16th</type>
                <stem>down</stem>
                <staff>1</staff>
            </note>
            <note>
                <rest/>
                <duration>2</duration>
                <voice>1</voice>
                <type>16th</type>
                <staff>1</staff>
            </note>
            <backup>
                <duration>32</duration>
            </backup>
            <note default-y="-120.00" default-x="17.50" dynamics="111.11">
                <pitch>
                    <step>E</step>
                    <octave>3</octave>
                </pitch>
                <duration>32</duration>
                <voice>5</voice>
                <type>whole</type>
                <staff>2</staff>
            </note>
            <note default-y="-110.00" default-x="17.50" dynamics="111.11">
                <chord/>
                <pitch>
                    <step>G</step>
                    <octave>3</octave>
                </pitch>
                <duration>32</duration>
                <voice>5</voice>
                <type>whole</type>
                <staff>2</staff>
            </note>
            <note default-y="-95.00" default-x="17.50" dynamics="111.11">
                <chord/>
                <pitch>
                    <step>C</step>
                    <octave>4</octave>
                </pitch>
                <duration>32</duration>
                <voice>5</voice>
                <type>whole</type>
                <staff>2</staff>
            </note>
        </measure>
        <measure width="245.51" number="7">
            <harmony print-frame="no">
                <root>
                    <root-step>G</root-step>
                </root>
                <kind text="">major</kind>
                <staff>1</staff>
            </harmony>
            <note default-y="-20.00" default-x="17.50" dynamics="111.11">
                <pitch>
                    <step>B</step>
                    <octave>4</octave>
                </pitch>
                <duration>4</duration>
                <tie type="start"/>
                <voice>1</voice>
                <type>eighth</type>
                <stem>down</stem>
                <staff>1</staff>
                <beam number="1">begin</beam>
                <notations>
                    <tied type="start"/>
                </notations>
            </note>
            <note default-y="-20.00" default-x="43.99" dynamics="111.11">
                <pitch>
                    <step>B</step>
                    <octave>4</octave>
                </pitch>
                <duration>2</duration>
                <tie type="stop"/>
                <voice>1</voice>
                <type>16th</type>
                <stem>down</stem>
                <staff>1</staff>
                <beam number="1">end</beam>
                <beam number="2">backward hook</beam>
                <notations>
                    <tied type="stop"/>
                </notations>
            </note>
            <note>
                <rest/>
                <duration>2</duration>
                <voice>1</voice>
                <type>16th</type>
                <staff>1</staff>
            </note>
            <note default-y="-10.00" default-x="77.72" dynamics="111.11">
                <pitch>
                    <step>D</step>
                    <octave>5</octave>
                </pitch>
                <duration>4</duration>
                <voice>1</voice>
                <type>eighth</type>
                <stem>down</stem>
                <staff>1</staff>
            </note>
            <note>
                <rest/>
                <duration>4</duration>
                <voice>1</voice>
                <type>eighth</type>
                <staff>1</staff>
            </note>
            <note default-y="-20.00" default-x="130.70" dynamics="111.11">
                <pitch>
                    <step>B</step>
                    <octave>4</octave>
                </pitch>
                <duration>4</duration>
                <voice>1</voice>
                <type>eighth</type>
                <stem>down</stem>
                <staff>1</staff>
            </note>
            <note>
                <rest/>
                <duration>2</duration>
                <voice>1</voice>
                <type>16th</type>
                <staff>1</staff>
            </note>
            <note default-y="-10.00" default-x="173.76" dynamics="111.11">
                <pitch>
                    <step>D</step>
                    <octave>5</octave>
                </pitch>
                <duration>2</duration>
                <voice>1</voice>
                <type>16th</type>
                <stem>down</stem>
                <staff>1</staff>
            </note>
            <note>
                <rest/>
                <duration>4</duration>
                <voice>1</voice>
                <type>eighth</type>
                <staff>1</staff>
            </note>
            <note default-y="-10.00" default-x="217.41" dynamics="111.11">
                <pitch>
                    <step>D</step>
                    <octave>5</octave>
                </pitch>
                <duration>4</duration>
                <voice>1</voice>
                <type>eighth</type>
                <stem>down</stem>
                <staff>1</staff>
            </note>
            <backup>
                <duration>32</duration>
            </backup>
            <note default-y="-125.00" default-x="17.50" dynamics="111.11">
                <pitch>
                    <step>D</step>
                    <octave>3</octave>
                </pitch>
                <duration>32</duration>
                <voice>5</voice>
                <type>whole</type>
                <staff>2</staff>
            </note>
            <note default-y="-110.00" default-x="17.50" dynamics="111.11">
                <chord/>
                <pitch>
                    <step>G</step>
                    <octave>3</octave>
                </pitch>
                <duration>32</duration>
                <voice>5</voice>
                <type>whole</type>
                <staff>2</staff>
            </note>
            <note default-y="-100.00" default-x="17.50" dynamics="111.11">
                <chord/>
                <pitch>
                    <step>B</step>
                    <octave>3</octave>
                </pitch>
                <duration>32</duration>
                <voice>5</voice>
                <type>whole</type>
                <staff>2</staff>
            </note>
        </measure>
        <measure width="212.35" number="8">
            <barline location="left">
                <ending type="start" number="1"></ending>
            </barline>
            <harmony print-frame="no">
                <root>
                    <root-step>D</root-step>
                </root>
                <kind text="">major</kind>
                <staff>1</staff>
            </harmony>
            <note>
                <rest/>
                <duration>16</duration>
                <voice>1</voice>
                <type>half</type>
                <staff>1</staff>
            </note>
            <note default-y="-15.00" default-x="54.53" dynamics="111.11">
                <pitch>
                    <step>C</step>
                    <octave>5</octave>
                </pitch>
                <duration>4</duration>
                <voice>1</voice>
                <type>eighth</type>
                <stem>up</stem>
                <staff>1</staff>
                <beam number="1">begin</beam>
            </note>
            <note default-y="-20.00" default-x="82.04" dynamics="111.11">
                <pitch>
                    <step>B</step>
                    <octave>4</octave>
                </pitch>
                <duration>4</duration>
                <voice>1</voice>
                <type>eighth</type>
                <stem>up</stem>
                <staff>1</staff>
                <beam number="1">continue</beam>
            </note>
            <note default-y="-25.00" default-x="109.56" dynamics="111.11">
                <pitch>
                    <step>A</step>
                    <octave>4</octave>
                </pitch>
                <duration>4</duration>
                <voice>1</voice>
                <type>eighth</type>
                <stem>up</stem>
                <staff>1</staff>
                <beam number="1">continue</beam>
            </note>
            <note default-y="-30.00" default-x="137.07" dynamics="111.11">
                <pitch>
                    <step>G</step>
                    <octave>4</octave>
                </pitch>
                <duration>2</duration>
                <tie type="start"/>
                <voice>1</voice>
                <type>16th</type>
                <stem>up</stem>
                <staff>1</staff>
                <beam number="1">continue</beam>
                <beam number="2">begin</beam>
                <notations>
                    <tied type="start"/>
                </notations>
            </note>
            <note default-y="-30.00" default-x="157.09" dynamics="111.11">
                <pitch>
                    <step>G</step>
                    <octave>4</octave>
                </pitch>
                <duration>1</duration>
                <tie type="stop"/>
                <voice>1</voice>
                <type>32nd</type>
                <stem>up</stem>
                <staff>1</staff>
                <beam number="1">end</beam>
                <beam number="2">end</beam>
                <beam number="3">backward hook</beam>
                <notations>
                    <tied type="stop"/>
                </notations>
            </note>
            <note>
                <rest/>
                <duration>1</duration>
                <voice>1</voice>
                <type>32nd</type>
                <staff>1</staff>
            </note>
            <backup>
                <duration>32</duration>
            </backup>
            <note default-y="-125.00" default-x="12.00" dynamics="111.11">
                <pitch>
                    <step>D</step>
                    <octave>3</octave>
                </pitch>
                <duration>32</duration>
                <voice>5</voice>
                <type>whole</type>
                <staff>2</staff>
            </note>
            <note default-y="-115.00" default-x="12.00" dynamics="111.11">
                <chord/>
                <pitch>
                    <step>F</step>
                    <alter>1</alter>
                    <octave>3</octave>
                </pitch>
                <duration>32</duration>
                <voice>5</voice>
                <type>whole</type>
                <staff>2</staff>
            </note>
            <note default-y="-105.00" default-x="12.00" dynamics="111.11">
                <chord/>
                <pitch>
                    <step>A</step>
                    <octave>3</octave>
                </pitch>
                <duration>32</duration>
                <voice>5</voice>
                <type>whole</type>
                <staff>2</staff>
            </note>
            <barline location="right">
                <bar-style>light-heavy</bar-style>
                <ending type="stop" number="1"></ending>
                <repeat direction="backward"/>
            </barline>
        </measure>
        <measure width="228.83" number="9">
            <print new-system="yes">
                <system-layout>
                    <system-margins>
                        <left-margin>18.50</left-margin>
                        <right-margin>0.00</right-margin>
                    </system-margins>
                    <system-distance>194.05</system-distance>
                </system-layout>
                <staff-layout number="2">
                    <staff-distance>65.00</staff-distance>
                </staff-layout>
            </print>
            <barline location="left">
                <ending type="start" number="2"></ending>
            </barline>
            <harmony print-frame="no">
                <root>
                    <root-step>D</root-step>
                </root>
                <kind text="">major</kind>
                <staff>1</staff>
            </harmony>
            <note>
                <rest/>
                <duration>16</duration>
                <voice>1</voice>
                <type>half</type>
                <staff>1</staff>
            </note>
            <note default-y="-10.00" default-x="112.55" dynamics="111.11">
                <pitch>
                    <step>D</step>
                    <octave>5</octave>
                </pitch>
                <duration>4</duration>
                <voice>1</voice>
                <type>eighth</type>
                <stem>down</stem>
                <staff>1</staff>
            </note>
            <note>
                <rest/>
                <duration>2</duration>
                <voice>1</voice>
                <type>16th</type>
                <staff>1</staff>
            </note>
            <note default-y="-10.00" default-x="156.40" dynamics="111.11">
                <pitch>
                    <step>D</step>
                    <octave>5</octave>
                </pitch>
                <duration>4</duration>
                <voice>1</voice>
                <type>eighth</type>
                <stem>down</stem>
                <staff>1</staff>
            </note>
            <note>
                <rest/>
                <duration>2</duration>
                <voice>1</voice>
                <type>16th</type>
                <staff>1</staff>
            </note>
            <note default-y="-5.00" default-x="200.25" dynamics="111.11">
                <pitch>
                    <step>E</step>
                    <octave>5</octave>
                </pitch>
                <duration>4</duration>
                <tie type="start"/>
                <voice>1</voice>
                <type>eighth</type>
                <stem>down</stem>
                <staff>1</staff>
                <notations>
                    <tied type="start"/>
                </notations>
            </note>
            <backup>
                <duration>32</duration>
            </backup>
            <note default-y="-125.00" default-x="65.33" dynamics="111.11">
                <pitch>
                    <step>D</step>
                    <octave>3</octave>
                </pitch>
                <duration>32</duration>
                <voice>5</voice>
                <type>whole</type>
                <staff>2</staff>
            </note>
            <note default-y="-115.00" default-x="65.33" dynamics="111.11">
                <chord/>
                <pitch>
                    <step>F</step>
                    <alter>1</alter>
                    <octave>3</octave>
                </pitch>
                <duration>32</duration>
                <voice>5</voice>
                <type>whole</type>
                <staff>2</staff>
            </note>
            <note default-y="-105.00" default-x="65.33" dynamics="111.11">
                <chord/>
                <pitch>
                    <step>A</step>
                    <octave>3</octave>
                </pitch>
                <duration>32</duration>
                <voice>5</voice>
                <type>whole</type>
                <staff>2</staff>
            </note>
            <barline location="right">
                <ending type="stop" number="2"></ending>
            </barline>
        </measure>
        <measure width="96.82" number="10">
            <direction>
                <direction-type>
                    <words default-y="100">Em</words>
                </direction-type>
            </direction>
            <note default-y="-5.00" default-x="12.00" dynamics="111.11">
                <pitch>
                    <step>E</step>
                    <octave>5</octave>
                </pitch>
                <duration>32</duration>
                <tie type="stop"/>
                <voice>1</voice>
                <type>whole</type>
                <staff>1</staff>
                <notations>
                    <tied type="stop"/>
                </notations>
            </note>
            <backup>
                <duration>32</duration>
            </backup>
            <note default-y="-120.00" default-x="12.00" dynamics="111.11">
                <pitch>
                    <step>E</step>
                    <octave>3</octave>
                </pitch>
                <duration>32</duration>
                <voice>5</voice>
                <type>whole</type>
                <staff>2</staff>
            </note>
            <note default-y="-110.00" default-x="12.00" dynamics="111.11">
                <chord/>
                <pitch>
                    <step>G</step>
                    <octave>3</octave>
                </pitch>
                <duration>32</duration>
                <voice>5</voice>
                <type>whole</type>
                <staff>2</staff>
            </note>
            <note default-y="-100.00" default-x="12.00" dynamics="111.11">
                <chord/>
                <pitch>
                    <step>B</step>
                    <octave>3</octave>
                </pitch>
                <duration>32</duration>
                <voice>5</voice>
                <type>whole</type>
                <staff>2</staff>
            </note>
        </measure>
        <measure width="96.82" number="11">
            <harmony print-frame="no">
                <root>
                    <root-step>C</root-step>
                </root>
                <kind text="">major</kind>
                <staff>1</staff>
            </harmony>
            <note>
                <rest/>
                <duration>32</duration>
                <voice>1</voice>
                <type>whole</type>
                <staff>1</staff>
            </note>
            <backup>
                <duration>32</duration>
            </backup>
            <note default-y="-120.00" default-x="12.00" dynamics="111.11">
                <pitch>
                    <step>E</step>
                    <octave>3</octave>
                </pitch>
                <duration>32</duration>
                <voice>5</voice>
                <type>whole</type>
                <staff>2</staff>
            </note>
            <note default-y="-110.00" default-x="12.00" dynamics="111.11">
                <chord/>
                <pitch>
                    <step>G</step>
                    <octave>3</octave>
                </pitch>
                <duration>32</duration>
                <voice>5</voice>
                <type>whole</type>
                <staff>2</staff>
            </note>
            <note default-y="-95.00" default-x="12.00" dynamics="111.11">
                <chord/>
                <pitch>
                    <step>C</step>
                    <octave>4</octave>
                </pitch>
                <duration>32</duration>
                <voice>5</voice>
                <type>whole</type>
                <staff>2</staff>
            </note>
        </measure>
        <measure width="230.65" number="12">
            <harmony print-frame="no">
                <root>
                    <root-step>G</root-step>
                </root>
                <kind text="">major</kind>
                <staff>1</staff>
            </harmony>
            <note default-y="-10.00" default-x="17.50" dynamics="111.11">
                <pitch>
                    <step>D</step>
                    <octave>5</octave>
                </pitch>
                <duration>8</duration>
                <tie type="start"/>
                <voice>1</voice>
                <type>quarter</type>
                <stem>down</stem>
                <staff>1</staff>
                <notations>
                    <tied type="start"/>
                </notations>
            </note>
            <note default-y="-10.00" default-x="54.28" dynamics="111.11">
                <pitch>
                    <step>D</step>
                    <octave>5</octave>
                </pitch>
                <duration>4</duration>
                <tie type="stop"/>
                <tie type="start"/>
                <voice>1</voice>
                <type>eighth</type>
                <stem>down</stem>
                <staff>1</staff>
                <beam number="1">begin</beam>
                <notations>
                    <tied type="stop"/>
                    <tied type="start"/>
                </notations>
            </note>
            <note default-y="-10.00" default-x="81.03" dynamics="111.11">
                <pitch>
                    <step>D</step>
                    <octave>5</octave>
                </pitch>
                <duration>2</duration>
                <tie type="stop"/>
                <voice>1</voice>
                <type>16th</type>
                <stem>down</stem>
                <staff>1</staff>
                <beam number="1">continue</beam>
                <beam number="2">forward hook</beam>
                <notations>
                    <tied type="stop"/>
                </notations>
            </note>
            <note default-y="-15.00" default-x="98.20" dynamics="111.11">
                <pitch>
                    <step>C</step>
                    <octave>5</octave>
                </pitch>
                <duration>4</duration>
                <tie type="start"/>
                <voice>1</voice>
                <type>eighth</type>
                <stem>down</stem>
                <staff>1</staff>
                <beam number="1">continue</beam>
                <notations>
                    <tied type="start"/>
                </notations>
            </note>
            <note default-y="-15.00" default-x="124.95" dynamics="111.11">
                <pitch>
                    <step>C</step>
                    <octave>5</octave>
                </pitch>
                <duration>2</duration>
                <tie type="stop"/>
                <voice>1</voice>
                <type>16th</type>
                <stem>down</stem>
                <staff>1</staff>
                <beam number="1">end</beam>
                <beam number="2">backward hook</beam>
                <notations>
                    <tied type="stop"/>
                </notations>
            </note>
            <note>
                <rest/>
                <duration>2</duration>
                <voice>1</voice>
                <type>16th</type>
                <staff>1</staff>
            </note>
            <note default-y="-20.00" default-x="158.83" dynamics="111.11">
                <pitch>
                    <step>B</step>
                    <octave>4</octave>
                </pitch>
                <duration>4</duration>
                <voice>1</voice>
                <type>eighth</type>
                <stem>down</stem>
                <staff>1</staff>
            </note>
            <note>
                <rest/>
                <duration>2</duration>
                <voice>1</voice>
                <type>16th</type>
                <staff>1</staff>
            </note>
            <note default-y="-20.00" default-x="202.30" dynamics="111.11">
                <pitch>
                    <step>B</step>
                    <octave>4</octave>
                </pitch>
                <duration>4</duration>
                <tie type="start"/>
                <voice>1</voice>
                <type>eighth</type>
                <stem>down</stem>
                <staff>1</staff>
                <notations>
                    <tied type="start"/>
                </notations>
            </note>
            <backup>
                <duration>32</duration>
            </backup>
            <note default-y="-125.00" default-x="17.50" dynamics="111.11">
                <pitch>
                    <step>D</step>
                    <octave>3</octave>
                </pitch>
                <duration>32</duration>
                <voice>5</voice>
                <type>whole</type>
                <staff>2</staff>
            </note>
            <note default-y="-110.00" default-x="17.50" dynamics="111.11">
                <chord/>
                <pitch>
                    <step>G</step>
                    <octave>3</octave>
                </pitch>
                <duration>32</duration>
                <voice>5</voice>
                <type>whole</type>
                <staff>2</staff>
            </note>
            <note default-y="-100.00" default-x="17.50" dynamics="111.11">
                <chord/>
                <pitch>
                    <step>B</step>
                    <octave>3</octave>
                </pitch>
                <duration>32</duration>
                <voice>5</voice>
                <type>whole</type>
                <staff>2</staff>
            </note>
        </measure>
        <measure width="141.68" number="13">
            <harmony print-frame="no">
                <root>
                    <root-step>D</root-step>
                </root>
                <kind text="">major</kind>
                <staff>1</staff>
            </harmony>
            <note default-y="-20.00" default-x="17.50" dynamics="111.11">
                <pitch>
                    <step>B</step>
                    <octave>4</octave>
                </pitch>
                <duration>8</duration>
                <tie type="stop"/>
                <voice>1</voice>
                <type>quarter</type>
                <stem>down</stem>
                <staff>1</staff>
                <notations>
                    <tied type="stop"/>
                </notations>
            </note>
            <note>
                <rest/>
                <duration>8</duration>
                <voice>1</voice>
                <type>quarter</type>
                <staff>1</staff>
            </note>
            <note>
                <rest/>
                <duration>16</duration>
                <voice>1</voice>
                <type>half</type>
                <staff>1</staff>
            </note>
            <backup>
                <duration>32</duration>
            </backup>
            <note default-y="-125.00" default-x="17.50" dynamics="111.11">
                <pitch>
                    <step>D</step>
                    <octave>3</octave>
                </pitch>
                <duration>32</duration>
                <voice>5</voice>
                <type>whole</type>
                <staff>2</staff>
            </note>
            <note default-y="-115.00" default-x="17.50" dynamics="111.11">
                <chord/>
                <pitch>
                    <step>F</step>
                    <alter>1</alter>
                    <octave>3</octave>
                </pitch>
                <duration>32</duration>
                <voice>5</voice>
                <type>whole</type>
                <staff>2</staff>
            </note>
            <note default-y="-105.00" default-x="17.50" dynamics="111.11">
                <chord/>
                <pitch>
                    <step>A</step>
                    <octave>3</octave>
                </pitch>
                <duration>32</duration>
                <voice>5</voice>
                <type>whole</type>
                <staff>2</staff>
            </note>
        </measure>
        <measure width="263.87" number="14">
            <barline location="left">
                <bar-style>heavy-light</bar-style>
                <repeat direction="forward"/>
            </barline>
            <direction>
                <direction-type>
                    <words default-y="100">Em</words>
                </direction-type>
            </direction>
            <note default-y="-30.00" default-x="12.00" dynamics="111.11">
                <pitch>
                    <step>G</step>
                    <octave>4</octave>
                </pitch>
                <duration>4</duration>
                <voice>1</voice>
                <type>eighth</type>
                <stem>up</stem>
                <staff>1</staff>
            </note>
            <note>
                <rest/>
                <duration>4</duration>
                <voice>1</voice>
                <type>eighth</type>
                <staff>1</staff>
            </note>
            <note default-y="-30.00" default-x="72.17" dynamics="111.11">
                <pitch>
                    <step>G</step>
                    <octave>4</octave>
                </pitch>
                <duration>4</duration>
                <voice>1</voice>
                <type>eighth</type>
                <stem>up</stem>
                <staff>1</staff>
            </note>
            <note>
                <rest/>
                <duration>4</duration>
                <voice>1</voice>
                <type>eighth</type>
                <staff>1</staff>
            </note>
            <note default-y="-30.00" default-x="132.33" dynamics="111.11">
                <pitch>
                    <step>G</step>
                    <octave>4</octave>
                </pitch>
                <duration>4</duration>
                <voice>1</voice>
                <type>eighth</type>
                <stem>up</stem>
                <staff>1</staff>
            </note>
            <note>
                <rest/>
                <duration>2</duration>
                <voice>1</voice>
                <type>16th</type>
                <staff>1</staff>
            </note>
            <note default-y="-35.00" default-x="181.22" dynamics="111.11">
                <pitch>
                    <step>F</step>
                    <alter>1</alter>
                    <octave>4</octave>
                </pitch>
                <duration>4</duration>
                <voice>1</voice>
                <type>eighth</type>
                <stem>up</stem>
                <staff>1</staff>
            </note>
            <note>
                <rest/>
                <duration>2</duration>
                <voice>1</voice>
                <type>16th</type>
                <staff>1</staff>
            </note>
            <note default-y="-35.00" default-x="230.10" dynamics="111.11">
                <pitch>
                    <step>F</step>
                    <alter>1</alter>
                    <octave>4</octave>
                </pitch>
                <duration>4</duration>
                <voice>1</voice>
                <type>eighth</type>
                <stem>up</stem>
                <staff>1</staff>
            </note>
            <backup>
                <duration>32</duration>
            </backup>
            <note default-y="-120.00" default-x="12.00" dynamics="111.11">
                <pitch>
                    <step>E</step>
                    <octave>3</octave>
                </pitch>
                <duration>32</duration>
                <voice>5</voice>
                <type>whole</type>
                <staff>2</staff>
            </note>
            <note default-y="-110.00" default-x="12.00" dynamics="111.11">
                <chord/>
                <pitch>
                    <step>G</step>
                    <octave>3</octave>
                </pitch>
                <duration>32</duration>
                <voice>5</voice>
                <type>whole</type>
                <staff>2</staff>
            </note>
            <note default-y="-100.00" default-x="12.00" dynamics="111.11">
                <chord/>
                <pitch>
                    <step>B</step>
                    <octave>3</octave>
                </pitch>
                <duration>32</duration>
                <voice>5</voice>
                <type>whole</type>
                <staff>2</staff>
            </note>
        </measure>
        <measure width="340.44" number="15">
            <print new-system="yes">
                <system-layout>
                    <system-margins>
                        <left-margin>18.50</left-margin>
                        <right-margin>0.00</right-margin>
                    </system-margins>
                    <system-distance>194.05</system-distance>
                </system-layout>
                <staff-layout number="2">
                    <staff-distance>65.00</staff-distance>
                </staff-layout>
            </print>
            <harmony print-frame="no">
                <root>
                    <root-step>C</root-step>
                </root>
                <kind text="">major</kind>
                <staff>1</staff>
            </harmony>
            <note default-y="-30.00" default-x="65.33" dynamics="111.11">
                <pitch>
                    <step>G</step>
                    <octave>4</octave>
                </pitch>
                <duration>4</duration>
                <voice>1</voice>
                <type>eighth</type>
                <stem>up</stem>
                <staff>1</staff>
            </note>
            <note>
                <rest/>
                <duration>4</duration>
                <voice>1</voice>
                <type>eighth</type>
                <staff>1</staff>
            </note>
            <note default-y="-30.00" default-x="130.21" dynamics="111.11">
                <pitch>
                    <step>G</step>
                    <octave>4</octave>
                </pitch>
                <duration>4</duration>
                <voice>1</voice>
                <type>eighth</type>
                <stem>up</stem>
                <staff>1</staff>
            </note>
            <note>
                <rest/>
                <duration>4</duration>
                <voice>1</voice>
                <type>eighth</type>
                <staff>1</staff>
            </note>
            <note default-y="-30.00" default-x="195.08" dynamics="111.11">
                <pitch>
                    <step>G</step>
                    <octave>4</octave>
                </pitch>
                <duration>4</duration>
                <voice>1</voice>
                <type>eighth</type>
                <stem>up</stem>
                <staff>1</staff>
            </note>
            <note>
                <rest/>
                <duration>2</duration>
                <voice>1</voice>
                <type>16th</type>
                <staff>1</staff>
            </note>
            <note default-y="-30.00" default-x="247.79" dynamics="111.11">
                <pitch>
                    <step>G</step>
                    <octave>4</octave>
                </pitch>
                <duration>2</duration>
                <voice>1</voice>
                <type>16th</type>
                <stem>up</stem>
                <staff>1</staff>
            </note>
            <note>
                <rest/>
                <duration>4</duration>
                <voice>1</voice>
                <type>eighth</type>
                <staff>1</staff>
            </note>
            <note default-y="-5.00" default-x="306.40" dynamics="111.11">
                <pitch>
                    <step>E</step>
                    <octave>5</octave>
                </pitch>
                <duration>4</duration>
                <voice>1</voice>
                <type>eighth</type>
                <stem>down</stem>
                <staff>1</staff>
            </note>
            <backup>
                <duration>32</duration>
            </backup>
            <note default-y="-120.00" default-x="65.33" dynamics="111.11">
                <pitch>
                    <step>E</step>
                    <octave>3</octave>
                </pitch>
                <duration>32</duration>
                <voice>5</voice>
                <type>whole</type>
                <staff>2</staff>
            </note>
            <note default-y="-110.00" default-x="65.33" dynamics="111.11">
                <chord/>
                <pitch>
                    <step>G</step>
                    <octave>3</octave>
                </pitch>
                <duration>32</duration>
                <voice>5</voice>
                <type>whole</type>
                <staff>2</staff>
            </note>
            <note default-y="-95.00" default-x="65.33" dynamics="111.11">
                <chord/>
                <pitch>
                    <step>C</step>
                    <octave>4</octave>
                </pitch>
                <duration>32</duration>
                <voice>5</voice>
                <type>whole</type>
                <staff>2</staff>
            </note>
        </measure>
        <measure width="258.56" number="16">
            <harmony print-frame="no">
                <root>
                    <root-step>G</root-step>
                </root>
                <kind text="">major</kind>
                <staff>1</staff>
            </harmony>
            <note default-y="-20.00" default-x="17.50" dynamics="111.11">
                <pitch>
                    <step>B</step>
                    <octave>4</octave>
                </pitch>
                <duration>4</duration>
                <voice>1</voice>
                <type>eighth</type>
                <stem>down</stem>
                <staff>1</staff>
            </note>
            <note>
                <rest/>
                <duration>4</duration>
                <voice>1</voice>
                <type>eighth</type>
                <staff>1</staff>
            </note>
            <note default-y="-20.00" default-x="75.55" dynamics="111.11">
                <pitch>
                    <step>B</step>
                    <octave>4</octave>
                </pitch>
                <duration>4</duration>
                <voice>1</voice>
                <type>eighth</type>
                <stem>down</stem>
                <staff>1</staff>
            </note>
            <note>
                <rest/>
                <duration>4</duration>
                <voice>1</voice>
                <type>eighth</type>
                <staff>1</staff>
            </note>
            <note default-y="-20.00" default-x="133.60" dynamics="111.11">
                <pitch>
                    <step>B</step>
                    <octave>4</octave>
                </pitch>
                <duration>4</duration>
                <voice>1</voice>
                <type>eighth</type>
                <stem>down</stem>
                <staff>1</staff>
            </note>
            <note>
                <rest/>
                <duration>2</duration>
                <voice>1</voice>
                <type>16th</type>
                <staff>1</staff>
            </note>
            <note default-y="-10.00" default-x="180.77" dynamics="111.11">
                <pitch>
                    <step>D</step>
                    <octave>5</octave>
                </pitch>
                <duration>4</duration>
                <voice>1</voice>
                <type>eighth</type>
                <stem>down</stem>
                <staff>1</staff>
            </note>
            <note>
                <rest/>
                <duration>2</duration>
                <voice>1</voice>
                <type>16th</type>
                <staff>1</staff>
            </note>
            <note default-y="-10.00" default-x="227.94" dynamics="111.11">
                <pitch>
                    <step>D</step>
                    <octave>5</octave>
                </pitch>
                <duration>4</duration>
                <voice>1</voice>
                <type>eighth</type>
                <stem>down</stem>
                <staff>1</staff>
            </note>
            <backup>
                <duration>32</duration>
            </backup>
            <note default-y="-125.00" default-x="17.50" dynamics="111.11">
                <pitch>
                    <step>D</step>
                    <octave>3</octave>
                </pitch>
                <duration>32</duration>
                <voice>5</voice>
                <type>whole</type>
                <staff>2</staff>
            </note>
            <note default-y="-110.00" default-x="17.50" dynamics="111.11">
                <chord/>
                <pitch>
                    <step>G</step>
                    <octave>3</octave>
                </pitch>
                <duration>32</duration>
                <voice>5</voice>
                <type>whole</type>
                <staff>2</staff>
            </note>
            <note default-y="-100.00" default-x="17.50" dynamics="111.11">
                <chord/>
                <pitch>
                    <step>B</step>
                    <octave>3</octave>
                </pitch>
                <duration>32</duration>
                <voice>5</voice>
                <type>whole</type>
                <staff>2</staff>
            </note>
        </measure>
        <measure width="317.11" number="17">
            <harmony print-frame="no">
                <root>
                    <root-step>D</root-step>
                </root>
                <kind text="">major</kind>
                <staff>1</staff>
            </harmony>
            <note default-y="-25.00" default-x="17.50" dynamics="111.11">
                <pitch>
                    <step>A</step>
                    <octave>4</octave>
                </pitch>
                <duration>4</duration>
                <voice>1</voice>
                <type>eighth</type>
                <stem>up</stem>
                <staff>1</staff>
            </note>
            <note>
                <rest/>
                <duration>4</duration>
                <voice>1</voice>
                <type>eighth</type>
                <staff>1</staff>
            </note>
            <note default-y="-25.00" default-x="86.47" dynamics="111.11">
                <pitch>
                    <step>A</step>
                    <octave>4</octave>
                </pitch>
                <duration>4</duration>
                <voice>1</voice>
                <type>eighth</type>
                <stem>up</stem>
                <staff>1</staff>
            </note>
            <note>
                <rest/>
                <duration>4</duration>
                <voice>1</voice>
                <type>eighth</type>
                <staff>1</staff>
            </note>
            <note default-y="-25.00" default-x="155.45" dynamics="111.11">
                <pitch>
                    <step>A</step>
                    <octave>4</octave>
                </pitch>
                <duration>4</duration>
                <voice>1</voice>
                <type>eighth</type>
                <stem>up</stem>
                <staff>1</staff>
            </note>
            <note>
                <rest/>
                <duration>2</duration>
                <voice>1</voice>
                <type>16th</type>
                <staff>1</staff>
            </note>
            <note default-y="-35.00" default-x="211.49" dynamics="111.11">
                <pitch>
                    <step>F</step>
                    <alter>1</alter>
                    <octave>4</octave>
                </pitch>
                <duration>4</duration>
                <voice>1</voice>
                <type>eighth</type>
                <stem>up</stem>
                <staff>1</staff>
            </note>
            <note>
                <rest/>
                <duration>2</duration>
                <voice>1</voice>
                <type>16th</type>
                <staff>1</staff>
            </note>
            <note default-y="-35.00" default-x="267.53" dynamics="111.11">
                <pitch>
                    <step>F</step>
                    <alter>1</alter>
                    <octave>4</octave>
                </pitch>
                <duration>4</duration>
                <voice>1</voice>
                <type>eighth</type>
                <stem>up</stem>
                <staff>1</staff>
            </note>
            <backup>
                <duration>32</duration>
            </backup>
            <note default-y="-125.00" default-x="17.50" dynamics="111.11">
                <pitch>
                    <step>D</step>
                    <octave>3</octave>
                </pitch>
                <duration>32</duration>
                <voice>5</voice>
                <type>whole</type>
                <staff>2</staff>
            </note>
            <note default-y="-115.00" default-x="17.50" dynamics="111.11">
                <chord/>
                <pitch>
                    <step>F</step>
                    <alter>1</alter>
                    <octave>3</octave>
                </pitch>
                <duration>32</duration>
                <voice>5</voice>
                <type>whole</type>
                <staff>2</staff>
            </note>
            <note default-y="-105.00" default-x="17.50" dynamics="111.11">
                <chord/>
                <pitch>
                    <step>A</step>
                    <octave>3</octave>
                </pitch>
                <duration>32</duration>
                <voice>5</voice>
                <type>whole</type>
                <staff>2</staff>
            </note>
            <barline location="right">
                <bar-style>light-heavy</bar-style>
                <repeat direction="backward"/>
            </barline>
        </measure>
        <measure width="142.55" number="18">
            <direction>
                <direction-type>
                    <words default-y="100">Em</words>
                </direction-type>
            </direction>
            <note default-y="-40.00" default-x="17.50">
                <pitch>
                    <step>E</step>
                    <octave>4</octave>
                </pitch>
                <duration>32</duration>
                <voice>1</voice>
                <type>whole</type>
                <staff>1</staff>
            </note>
            <backup>
                <duration>32</duration>
            </backup>
            <note default-y="-120.00" default-x="17.50" dynamics="111.11">
                <pitch>
                    <step>E</step>
                    <octave>3</octave>
                </pitch>
                <duration>32</duration>
                <voice>5</voice>
                <type>whole</type>
                <staff>2</staff>
            </note>
            <note default-y="-110.00" default-x="17.50" dynamics="111.11">
                <chord/>
                <pitch>
                    <step>G</step>
                    <octave>3</octave>
                </pitch>
                <duration>32</duration>
                <voice>5</voice>
                <type>whole</type>
                <staff>2</staff>
            </note>
            <note default-y="-100.00" default-x="17.50" dynamics="111.11">
                <chord/>
                <pitch>
                    <step>B</step>
                    <octave>3</octave>
                </pitch>
                <duration>32</duration>
                <voice>5</voice>
                <type>whole</type>
                <staff>2</staff>
            </note>
            <barline location="right">
                <bar-style>light-heavy</bar-style>
            </barline>
        </measure>
    </part>
</score-partwise>
