<?xml version="1.0" encoding="UTF-8"?>
<!DOCTYPE score-partwise PUBLIC "-//Recordare//DTD MusicXML 2.0 Partwise//EN" "http://www.musicxml.org/dtds/partwise.dtd">
<score-partwise version="2.0">
    <work>
        <work-number></work-number>
        <work-title></work-title>
    </work>
    <movement-number></movement-number>
    <movement-title>I Love You More And More Every Day</movement-title>
    <identification>
        <creator type="composer">Don Robertson</creator>
        <creator type="poet">Don Robertson</creator>
        <rights>All Rights Reserved</rights>
        <encoding>
            <software>MuseScore 1.2</software>
            <encoding-date>2012-08-08</encoding-date>
            <software>ProxyMusic 2.0 c</software>
        </encoding>
        <source>http://wikifonia.org/node/17161/revisions/22765/view</source>
    </identification>
    <defaults>
        <scaling>
            <millimeters>5.7</millimeters>
            <tenths>40</tenths>
        </scaling>
        <page-layout>
            <page-height>2084.21</page-height>
            <page-width>1473.68</page-width>
            <page-margins type="both">
                <left-margin>70.1754</left-margin>
                <right-margin>70.1754</right-margin>
                <top-margin>70.1754</top-margin>
                <bottom-margin>140.351</bottom-margin>
            </page-margins>
        </page-layout>
    </defaults>
    <credit page="1">
        <credit-words font-size="24" default-y="2014.04" default-x="736.842" justify="center" valign="top">I Love You More And More Every Day</credit-words>
    </credit>
    <credit page="1">
        <credit-words font-size="12" default-y="1951.17" default-x="1403.51" justify="right" valign="top">Don Robertson</credit-words>
    </credit>
    <credit page="1">
        <credit-words font-size="12" default-y="1951.17" default-x="70.1754" justify="left" valign="top">Don Robertson</credit-words>
    </credit>
    <part-list>
        <score-part id="P1">
            <part-name></part-name>
            <score-instrument id="P1-I3">
                <instrument-name></instrument-name>
            </score-instrument>
            <midi-instrument id="P1-I3">
                <midi-channel>1</midi-channel>
                <midi-program>41</midi-program>
                <volume>78.7402</volume>
                <pan>0</pan>
            </midi-instrument>
        </score-part>
    </part-list>
    <part id="P1">
        <measure width="398.09" number="1">
            <print>
                <system-layout>
                    <system-margins>
                        <left-margin>0.00</left-margin>
                        <right-margin>0.00</right-margin>
                    </system-margins>
                    <top-system-distance>251.30</top-system-distance>
                </system-layout>
            </print>
            <attributes>
                <divisions>2</divisions>
                <key>
                    <fifths>1</fifths>
                    <mode>major</mode>
                </key>
                <time symbol="cut">
                    <beats>2</beats>
                    <beat-type>2</beat-type>
                </time>
                <clef>
                    <sign>G</sign>
                    <line>2</line>
                </clef>
            </attributes>
            <note>
                <rest/>
                <duration>2</duration>
                <voice>1</voice>
                <type>quarter</type>
            </note>
            <harmony print-frame="no">
                <root>
                    <root-step>G</root-step>
                </root>
                <kind text="">major</kind>
            </harmony>
            <note default-y="-20.00" default-x="163.73">
                <pitch>
                    <step>B</step>
                    <octave>4</octave>
                </pitch>
                <duration>2</duration>
                <voice>1</voice>
                <type>quarter</type>
                <stem>down</stem>
            </note>
            <harmony print-frame="no">
                <root>
                    <root-step>D</root-step>
                </root>
                <kind text="7sus">suspended-fourth</kind>
                <degree>
                    <degree-value>7</degree-value>
                    <degree-alter>0</degree-alter>
                    <degree-type>add</degree-type>
                </degree>
            </harmony>
            <note default-y="-15.00" default-x="241.32">
                <pitch>
                    <step>C</step>
                    <octave>5</octave>
                </pitch>
                <duration>2</duration>
                <voice>1</voice>
                <type>quarter</type>
                <stem>down</stem>
            </note>
            <harmony print-frame="no">
                <root>
                    <root-step>G</root-step>
                </root>
                <kind text="">major</kind>
            </harmony>
            <note default-y="-10.00" default-x="318.90">
                <pitch>
                    <step>D</step>
                    <octave>5</octave>
                </pitch>
                <duration>2</duration>
                <voice>1</voice>
                <type>quarter</type>
                <stem>down</stem>
            </note>
        </measure>
        <measure width="300.25" number="2">
            <harmony print-frame="no">
                <root>
                    <root-step>C</root-step>
                </root>
                <kind text="">major</kind>
            </harmony>
            <note default-y="-5.00" default-x="12.00">
                <pitch>
                    <step>E</step>
                    <octave>5</octave>
                </pitch>
                <duration>6</duration>
                <voice>1</voice>
                <type>half</type>
                <dot/>
                <stem>down</stem>
            </note>
            <note default-y="-5.00" default-x="201.52">
                <pitch>
                    <step>E</step>
                    <octave>5</octave>
                </pitch>
                <duration>2</duration>
                <voice>1</voice>
                <type>quarter</type>
                <stem>down</stem>
            </note>
        </measure>
        <measure width="308.92" number="3">
            <harmony print-frame="no">
                <root>
                    <root-step>D</root-step>
                </root>
                <kind text="6">major-sixth</kind>
            </harmony>
            <note default-y="-10.00" default-x="12.00">
                <pitch>
                    <step>D</step>
                    <octave>5</octave>
                </pitch>
                <duration>4</duration>
                <voice>1</voice>
                <type>half</type>
                <stem>down</stem>
            </note>
            <harmony print-frame="no">
                <root>
                    <root-step>D</root-step>
                </root>
                <kind text="7">dominant</kind>
            </harmony>
            <note default-y="-15.00" default-x="143.25">
                <pitch>
                    <step>C</step>
                    <octave>5</octave>
                </pitch>
                <duration>2</duration>
                <voice>1</voice>
                <type>quarter</type>
                <stem>down</stem>
            </note>
            <note default-y="-15.00" default-x="225.28">
                <pitch>
                    <step>C</step>
                    <octave>5</octave>
                </pitch>
                <duration>2</duration>
                <voice>1</voice>
                <type>quarter</type>
                <stem>down</stem>
            </note>
        </measure>
        <measure width="326.08" number="4">
            <harmony print-frame="no">
                <root>
                    <root-step>G</root-step>
                </root>
                <kind text="">major</kind>
            </harmony>
            <note default-y="-20.00" default-x="12.00">
                <pitch>
                    <step>B</step>
                    <octave>4</octave>
                </pitch>
                <duration>4</duration>
                <voice>1</voice>
                <type>half</type>
                <stem>down</stem>
            </note>
            <harmony print-frame="no">
                <root>
                    <root-step>C</root-step>
                </root>
                <kind text="">major</kind>
            </harmony>
            <note default-y="-30.00" default-x="130.53">
                <pitch>
                    <step>G</step>
                    <octave>4</octave>
                </pitch>
                <duration>1</duration>
                <voice>1</voice>
                <type>eighth</type>
                <stem>up</stem>
                <beam number="1">begin</beam>
            </note>
            <harmony print-frame="no">
                <root>
                    <root-step>G</root-step>
                </root>
                <kind text="">major</kind>
            </harmony>
            <note default-y="-30.00" default-x="184.40">
                <pitch>
                    <step>G</step>
                    <octave>4</octave>
                </pitch>
                <duration>1</duration>
                <voice>1</voice>
                <type>eighth</type>
                <stem>up</stem>
                <beam number="1">end</beam>
            </note>
            <harmony print-frame="no">
                <root>
                    <root-step>C</root-step>
                </root>
                <kind text="6">major-sixth</kind>
            </harmony>
            <note default-y="-30.00" default-x="238.28">
                <pitch>
                    <step>G</step>
                    <octave>4</octave>
                </pitch>
                <duration>2</duration>
                <voice>1</voice>
                <type>quarter</type>
                <stem>up</stem>
            </note>
        </measure>
        <measure width="370.40" number="5">
            <print new-system="yes">
                <system-layout>
                    <system-margins>
                        <left-margin>0.00</left-margin>
                        <right-margin>0.00</right-margin>
                    </system-margins>
                    <system-distance>163.80</system-distance>
                </system-layout>
            </print>
            <harmony print-frame="no">
                <root>
                    <root-step>G</root-step>
                </root>
                <kind text="">major</kind>
            </harmony>
            <note default-y="-30.00" default-x="64.15">
                <pitch>
                    <step>G</step>
                    <octave>4</octave>
                </pitch>
                <duration>6</duration>
                <voice>1</voice>
                <type>half</type>
                <dot/>
                <stem>up</stem>
            </note>
            <note default-y="-45.00" default-x="256.64">
                <pitch>
                    <step>D</step>
                    <octave>4</octave>
                </pitch>
                <duration>2</duration>
                <voice>1</voice>
                <type>quarter</type>
                <stem>up</stem>
                <lyric number="1">
                    <syllabic>single</syllabic>
                    <text>They</text>
                </lyric>
            </note>
        </measure>
        <measure width="299.46" number="6">
            <barline location="left">
                <bar-style>heavy-light</bar-style>
                <repeat direction="forward"/>
            </barline>
            <harmony print-frame="no">
                <root>
                    <root-step>G</root-step>
                </root>
                <kind text="">major</kind>
            </harmony>
            <note default-y="-45.00" default-x="22.84">
                <pitch>
                    <step>D</step>
                    <octave>4</octave>
                </pitch>
                <duration>6</duration>
                <voice>1</voice>
                <type>half</type>
                <dot/>
                <stem>up</stem>
                <lyric number="1">
                    <syllabic>single</syllabic>
                    <text>said</text>
                </lyric>
            </note>
            <note default-y="-45.00" default-x="204.67">
                <pitch>
                    <step>D</step>
                    <octave>4</octave>
                </pitch>
                <duration>2</duration>
                <voice>1</voice>
                <type>quarter</type>
                <stem>up</stem>
                <lyric number="1">
                    <syllabic>single</syllabic>
                    <text>our</text>
                </lyric>
            </note>
        </measure>
        <measure width="365.87" number="7">
            <harmony print-frame="no">
                <root>
                    <root-step>C</root-step>
                </root>
                <kind text="">major</kind>
            </harmony>
            <note default-y="-40.00" default-x="24.08">
                <pitch>
                    <step>E</step>
                    <octave>4</octave>
                </pitch>
                <duration>2</duration>
                <voice>1</voice>
                <type>quarter</type>
                <stem>up</stem>
                <lyric number="1">
                    <syllabic>single</syllabic>
                    <text>love</text>
                </lyric>
            </note>
            <note default-y="-30.00" default-x="109.13">
                <pitch>
                    <step>G</step>
                    <octave>4</octave>
                </pitch>
                <duration>2</duration>
                <voice>1</voice>
                <type>quarter</type>
                <stem>up</stem>
                <lyric number="1">
                    <syllabic>single</syllabic>
                    <text>was</text>
                </lyric>
            </note>
            <note default-y="-50.00" default-x="194.18">
                <pitch>
                    <step>C</step>
                    <octave>4</octave>
                </pitch>
                <duration>2</duration>
                <voice>1</voice>
                <type>quarter</type>
                <stem>up</stem>
                <lyric number="1">
                    <syllabic>single</syllabic>
                    <text>just</text>
                </lyric>
            </note>
            <note default-y="-40.00" default-x="279.22">
                <pitch>
                    <step>E</step>
                    <octave>4</octave>
                </pitch>
                <duration>2</duration>
                <voice>1</voice>
                <type>quarter</type>
                <stem>up</stem>
                <lyric number="1">
                    <syllabic>single</syllabic>
                    <text>e</text>
                </lyric>
            </note>
        </measure>
        <measure width="297.61" number="8">
            <note default-y="-40.00" default-x="19.12">
                <pitch>
                    <step>E</step>
                    <octave>4</octave>
                </pitch>
                <duration>2</duration>
                <voice>1</voice>
                <type>quarter</type>
                <stem>up</stem>
                <lyric number="1">
                    <syllabic>single</syllabic>
                    <text>mo</text>
                </lyric>
            </note>
            <harmony print-frame="no">
                <root>
                    <root-step>G</root-step>
                </root>
                <kind text="">major</kind>
            </harmony>
            <note default-y="-45.00" default-x="112.95">
                <pitch>
                    <step>D</step>
                    <octave>4</octave>
                </pitch>
                <duration>6</duration>
                <tie type="start"/>
                <voice>1</voice>
                <type>half</type>
                <dot/>
                <stem>up</stem>
                <notations>
                    <tied type="start"/>
                </notations>
                <lyric number="1">
                    <syllabic>single</syllabic>
                    <text>tion</text>
                </lyric>
            </note>
        </measure>
        <measure width="350.03" number="9">
            <print new-system="yes">
                <system-layout>
                    <system-margins>
                        <left-margin>0.00</left-margin>
                        <right-margin>0.00</right-margin>
                    </system-margins>
                    <system-distance>176.06</system-distance>
                </system-layout>
            </print>
            <note default-y="-45.00" default-x="64.15">
                <pitch>
                    <step>D</step>
                    <octave>4</octave>
                </pitch>
                <duration>6</duration>
                <tie type="stop"/>
                <voice>1</voice>
                <type>half</type>
                <dot/>
                <stem>up</stem>
                <notations>
                    <tied type="stop"/>
                </notations>
            </note>
            <note default-y="-25.00" default-x="252.09">
                <pitch>
                    <step>A</step>
                    <octave>4</octave>
                </pitch>
                <duration>2</duration>
                <voice>1</voice>
                <type>quarter</type>
                <stem>up</stem>
                <lyric number="1">
                    <syllabic>single</syllabic>
                    <text>that</text>
                </lyric>
            </note>
        </measure>
        <measure width="332.93" number="10">
            <harmony print-frame="no">
                <root>
                    <root-step>D</root-step>
                </root>
                <kind text="">major</kind>
            </harmony>
            <note default-y="-25.00" default-x="24.70">
                <pitch>
                    <step>A</step>
                    <octave>4</octave>
                </pitch>
                <duration>6</duration>
                <voice>1</voice>
                <type>half</type>
                <dot/>
                <stem>up</stem>
                <lyric number="1">
                    <syllabic>single</syllabic>
                    <text>time</text>
                </lyric>
            </note>
            <harmony print-frame="no">
                <root>
                    <root-step>A</root-step>
                </root>
                <kind text="m7">minor-seventh</kind>
            </harmony>
            <note default-y="-30.00" default-x="227.43">
                <pitch>
                    <step>G</step>
                    <octave>4</octave>
                </pitch>
                <duration>2</duration>
                <voice>1</voice>
                <type>quarter</type>
                <stem>up</stem>
                <lyric number="1">
                    <syllabic>single</syllabic>
                    <text>would</text>
                </lyric>
            </note>
        </measure>
        <measure width="377.38" number="11">
            <harmony print-frame="no">
                <root>
                    <root-step>D</root-step>
                </root>
                <kind text="7">dominant</kind>
            </harmony>
            <note default-y="-35.00" default-x="25.95">
                <pitch>
                    <step>F</step>
                    <alter>1</alter>
                    <octave>4</octave>
                </pitch>
                <duration>2</duration>
                <voice>1</voice>
                <type>quarter</type>
                <stem>up</stem>
                <lyric number="1">
                    <syllabic>begin</syllabic>
                    <text>slow</text>
                </lyric>
            </note>
            <note default-y="-45.00" default-x="116.95">
                <pitch>
                    <step>D</step>
                    <octave>4</octave>
                </pitch>
                <duration>2</duration>
                <voice>1</voice>
                <type>quarter</type>
                <stem>up</stem>
                <lyric number="1">
                    <syllabic>end</syllabic>
                    <text>ly</text>
                </lyric>
            </note>
            <note default-y="-35.00" default-x="207.94">
                <pitch>
                    <step>F</step>
                    <alter>1</alter>
                    <octave>4</octave>
                </pitch>
                <duration>3</duration>
                <voice>1</voice>
                <type>quarter</type>
                <dot/>
                <stem>up</stem>
                <lyric number="1">
                    <syllabic>single</syllabic>
                    <text>fade</text>
                </lyric>
            </note>
            <note default-y="-40.00" default-x="318.90">
                <pitch>
                    <step>E</step>
                    <octave>4</octave>
                </pitch>
                <duration>1</duration>
                <voice>1</voice>
                <type>eighth</type>
                <stem>up</stem>
                <lyric number="1">
                    <syllabic>begin</syllabic>
                    <text>a</text>
                </lyric>
            </note>
        </measure>
        <measure width="273.00" number="12">
            <harmony print-frame="no">
                <root>
                    <root-step>G</root-step>
                </root>
                <kind text="">major</kind>
            </harmony>
            <note default-y="-45.00" default-x="26.56">
                <pitch>
                    <step>D</step>
                    <octave>4</octave>
                </pitch>
                <duration>8</duration>
                <tie type="start"/>
                <voice>1</voice>
                <type>whole</type>
                <notations>
                    <tied type="start"/>
                </notations>
                <lyric number="1">
                    <syllabic>end</syllabic>
                    <text>way;</text>
                </lyric>
            </note>
        </measure>
        <measure width="360.23" number="13">
            <print new-system="yes">
                <system-layout>
                    <system-margins>
                        <left-margin>0.00</left-margin>
                        <right-margin>0.00</right-margin>
                    </system-margins>
                    <system-distance>176.06</system-distance>
                </system-layout>
            </print>
            <note default-y="-45.00" default-x="64.15">
                <pitch>
                    <step>D</step>
                    <octave>4</octave>
                </pitch>
                <duration>2</duration>
                <tie type="stop"/>
                <voice>1</voice>
                <type>quarter</type>
                <stem>up</stem>
                <notations>
                    <tied type="stop"/>
                </notations>
            </note>
            <harmony print-frame="no">
                <root>
                    <root-step>D</root-step>
                </root>
                <kind text="7">dominant</kind>
            </harmony>
            <note>
                <rest/>
                <duration>2</duration>
                <voice>1</voice>
                <type>quarter</type>
            </note>
            <harmony print-frame="no">
                <root>
                    <root-step>D</root-step>
                </root>
                <kind text="7sus">suspended-fourth</kind>
                <degree>
                    <degree-value>7</degree-value>
                    <degree-alter>0</degree-alter>
                    <degree-type>add</degree-type>
                </degree>
            </harmony>
            <note>
                <rest/>
                <duration>2</duration>
                <voice>1</voice>
                <type>quarter</type>
            </note>
            <harmony print-frame="no">
                <root>
                    <root-step>D</root-step>
                </root>
                <kind text="7">dominant</kind>
            </harmony>
            <note default-y="-45.00" default-x="285.01">
                <pitch>
                    <step>D</step>
                    <octave>4</octave>
                </pitch>
                <duration>2</duration>
                <voice>1</voice>
                <type>quarter</type>
                <stem>up</stem>
                <lyric number="1">
                    <syllabic>single</syllabic>
                    <text>But</text>
                </lyric>
            </note>
        </measure>
        <measure width="309.92" number="14">
            <harmony print-frame="no">
                <root>
                    <root-step>G</root-step>
                </root>
                <kind text="">major</kind>
            </harmony>
            <note default-y="-45.00" default-x="31.06">
                <pitch>
                    <step>D</step>
                    <octave>4</octave>
                </pitch>
                <duration>6</duration>
                <voice>1</voice>
                <type>half</type>
                <dot/>
                <stem>up</stem>
                <lyric number="1">
                    <syllabic>single</syllabic>
                    <text>time's</text>
                </lyric>
            </note>
            <note default-y="-45.00" default-x="214.37">
                <pitch>
                    <step>D</step>
                    <octave>4</octave>
                </pitch>
                <duration>2</duration>
                <voice>1</voice>
                <type>quarter</type>
                <stem>up</stem>
                <lyric number="1">
                    <syllabic>single</syllabic>
                    <text>just</text>
                </lyric>
            </note>
        </measure>
        <measure width="373.57" number="15">
            <harmony print-frame="no">
                <root>
                    <root-step>C</root-step>
                </root>
                <kind text="">major</kind>
            </harmony>
            <note default-y="-40.00" default-x="25.94">
                <pitch>
                    <step>E</step>
                    <octave>4</octave>
                </pitch>
                <duration>2</duration>
                <voice>1</voice>
                <type>quarter</type>
                <stem>up</stem>
                <lyric number="1">
                    <syllabic>begin</syllabic>
                    <text>deep</text>
                </lyric>
            </note>
            <note default-y="-30.00" default-x="112.45">
                <pitch>
                    <step>G</step>
                    <octave>4</octave>
                </pitch>
                <duration>2</duration>
                <voice>1</voice>
                <type>quarter</type>
                <stem>up</stem>
                <lyric number="1">
                    <syllabic>end</syllabic>
                    <text>ened</text>
                </lyric>
            </note>
            <note default-y="-50.00" default-x="198.95">
                <pitch>
                    <step>C</step>
                    <octave>4</octave>
                </pitch>
                <duration>2</duration>
                <voice>1</voice>
                <type>quarter</type>
                <stem>up</stem>
                <lyric number="1">
                    <syllabic>single</syllabic>
                    <text>my</text>
                </lyric>
            </note>
            <note default-y="-40.00" default-x="285.46">
                <pitch>
                    <step>E</step>
                    <octave>4</octave>
                </pitch>
                <duration>2</duration>
                <voice>1</voice>
                <type>quarter</type>
                <stem>up</stem>
                <lyric number="1">
                    <syllabic>begin</syllabic>
                    <text>de</text>
                </lyric>
            </note>
        </measure>
        <measure width="289.62" number="16">
            <harmony print-frame="no">
                <root>
                    <root-step>C</root-step>
                </root>
                <kind text="">major</kind>
            </harmony>
            <note default-y="-40.00" default-x="16.02">
                <pitch>
                    <step>E</step>
                    <octave>4</octave>
                </pitch>
                <duration>2</duration>
                <voice>1</voice>
                <type>quarter</type>
                <stem>up</stem>
                <lyric number="1">
                    <syllabic>middle</syllabic>
                    <text>vo</text>
                </lyric>
            </note>
            <harmony print-frame="no">
                <root>
                    <root-step>G</root-step>
                </root>
                <kind text="">major</kind>
            </harmony>
            <note default-y="-45.00" default-x="108.19">
                <pitch>
                    <step>D</step>
                    <octave>4</octave>
                </pitch>
                <duration>6</duration>
                <tie type="start"/>
                <voice>1</voice>
                <type>half</type>
                <dot/>
                <stem>up</stem>
                <notations>
                    <tied type="start"/>
                </notations>
                <lyric number="1">
                    <syllabic>end</syllabic>
                    <text>tion,</text>
                </lyric>
            </note>
        </measure>
        <measure width="413.65" number="17">
            <print new-system="yes">
                <system-layout>
                    <system-margins>
                        <left-margin>0.00</left-margin>
                        <right-margin>0.00</right-margin>
                    </system-margins>
                    <system-distance>176.06</system-distance>
                </system-layout>
            </print>
            <note default-y="-45.00" default-x="64.15">
                <pitch>
                    <step>D</step>
                    <octave>4</octave>
                </pitch>
                <duration>2</duration>
                <tie type="stop"/>
                <voice>1</voice>
                <type>quarter</type>
                <stem>up</stem>
                <notations>
                    <tied type="stop"/>
                </notations>
            </note>
            <harmony print-frame="no">
                <root>
                    <root-step>G</root-step>
                </root>
                <kind text="">major</kind>
            </harmony>
            <note default-y="-30.00" default-x="151.13">
                <pitch>
                    <step>G</step>
                    <octave>4</octave>
                </pitch>
                <duration>2</duration>
                <voice>1</voice>
                <type>quarter</type>
                <stem>up</stem>
                <lyric number="1">
                    <syllabic>single</syllabic>
                    <text>I</text>
                </lyric>
            </note>
            <harmony print-frame="no">
                <root>
                    <root-step>A</root-step>
                </root>
                <kind text="m7">minor-seventh</kind>
            </harmony>
            <note default-y="-25.00" default-x="238.10">
                <pitch>
                    <step>A</step>
                    <octave>4</octave>
                </pitch>
                <duration>2</duration>
                <voice>1</voice>
                <type>quarter</type>
                <stem>up</stem>
                <lyric number="1">
                    <syllabic>single</syllabic>
                    <text>Love</text>
                </lyric>
            </note>
            <harmony print-frame="no">
                <root>
                    <root-step>G</root-step>
                </root>
                <kind text="">major</kind>
                <bass>
                    <bass-step>B</bass-step>
                </bass>
            </harmony>
            <note default-y="-20.00" default-x="325.08">
                <pitch>
                    <step>B</step>
                    <octave>4</octave>
                </pitch>
                <duration>2</duration>
                <voice>1</voice>
                <type>quarter</type>
                <stem>down</stem>
                <lyric number="1">
                    <syllabic>single</syllabic>
                    <text>You</text>
                </lyric>
            </note>
        </measure>
        <measure width="318.54" number="18">
            <harmony print-frame="no">
                <root>
                    <root-step>C</root-step>
                </root>
                <kind text="">major</kind>
            </harmony>
            <note default-y="-15.00" default-x="29.05">
                <pitch>
                    <step>C</step>
                    <octave>5</octave>
                </pitch>
                <duration>6</duration>
                <voice>1</voice>
                <type>half</type>
                <dot/>
                <stem>down</stem>
                <lyric number="1">
                    <syllabic>single</syllabic>
                    <text>More</text>
                </lyric>
            </note>
            <note default-y="-15.00" default-x="219.38">
                <pitch>
                    <step>C</step>
                    <octave>5</octave>
                </pitch>
                <duration>2</duration>
                <voice>1</voice>
                <type>quarter</type>
                <stem>down</stem>
                <lyric number="1">
                    <syllabic>single</syllabic>
                    <text>And</text>
                </lyric>
            </note>
        </measure>
        <measure width="334.61" number="19">
            <harmony print-frame="no">
                <root>
                    <root-step>D</root-step>
                </root>
                <kind text="6">major-sixth</kind>
            </harmony>
            <note default-y="-20.00" default-x="29.05">
                <pitch>
                    <step>B</step>
                    <octave>4</octave>
                </pitch>
                <duration>4</duration>
                <voice>1</voice>
                <type>half</type>
                <stem>down</stem>
                <lyric number="1">
                    <syllabic>single</syllabic>
                    <text>More</text>
                </lyric>
            </note>
            <harmony print-frame="no">
                <root>
                    <root-step>D</root-step>
                </root>
                <kind text="7">dominant</kind>
            </harmony>
            <note default-y="-25.00" default-x="164.14">
                <pitch>
                    <step>A</step>
                    <octave>4</octave>
                </pitch>
                <duration>2</duration>
                <voice>1</voice>
                <type>quarter</type>
                <stem>up</stem>
                <lyric number="1">
                    <syllabic>begin</syllabic>
                    <text>Ev</text>
                </lyric>
            </note>
            <note default-y="-25.00" default-x="248.58">
                <pitch>
                    <step>A</step>
                    <octave>4</octave>
                </pitch>
                <duration>2</duration>
                <voice>1</voice>
                <type>quarter</type>
                <stem>up</stem>
                <lyric number="1">
                    <syllabic>end</syllabic>
                    <text>'ry</text>
                </lyric>
            </note>
        </measure>
        <measure width="266.53" number="20">
            <harmony print-frame="no">
                <root>
                    <root-step>G</root-step>
                </root>
                <kind text="">major</kind>
            </harmony>
            <note default-y="-30.00" default-x="25.53">
                <pitch>
                    <step>G</step>
                    <octave>4</octave>
                </pitch>
                <duration>8</duration>
                <tie type="start"/>
                <voice>1</voice>
                <type>whole</type>
                <notations>
                    <tied type="start"/>
                </notations>
                <lyric number="1">
                    <syllabic>single</syllabic>
                    <text>Day.</text>
                </lyric>
            </note>
        </measure>
        <measure width="288.26" number="21">
            <print new-system="yes">
                <system-layout>
                    <system-margins>
                        <left-margin>0.00</left-margin>
                        <right-margin>0.00</right-margin>
                    </system-margins>
                    <system-distance>176.06</system-distance>
                </system-layout>
            </print>
            <note default-y="-30.00" default-x="64.15">
                <pitch>
                    <step>G</step>
                    <octave>4</octave>
                </pitch>
                <duration>2</duration>
                <tie type="stop"/>
                <voice>1</voice>
                <type>quarter</type>
                <stem>up</stem>
                <notations>
                    <tied type="stop"/>
                </notations>
            </note>
            <harmony print-frame="no">
                <root>
                    <root-step>G</root-step>
                </root>
                <kind text="">major</kind>
            </harmony>
            <note default-y="-55.00" default-x="119.78">
                <pitch>
                    <step>B</step>
                    <octave>3</octave>
                </pitch>
                <duration>2</duration>
                <voice>1</voice>
                <type>quarter</type>
                <stem>up</stem>
                <lyric number="1">
                    <syllabic>single</syllabic>
                    <text>The</text>
                </lyric>
            </note>
            <harmony print-frame="no">
                <root>
                    <root-step>A</root-step>
                </root>
                <kind text="m7">minor-seventh</kind>
            </harmony>
            <note default-y="-50.00" default-x="175.41">
                <pitch>
                    <step>C</step>
                    <octave>4</octave>
                </pitch>
                <duration>2</duration>
                <voice>1</voice>
                <type>quarter</type>
                <stem>up</stem>
                <lyric number="1">
                    <syllabic>single</syllabic>
                    <text>day</text>
                </lyric>
            </note>
            <harmony print-frame="no">
                <root>
                    <root-step>G</root-step>
                </root>
                <kind text="">major</kind>
                <bass>
                    <bass-step>B</bass-step>
                </bass>
            </harmony>
            <note default-y="-45.00" default-x="231.04">
                <pitch>
                    <step>D</step>
                    <octave>4</octave>
                </pitch>
                <duration>2</duration>
                <voice>1</voice>
                <type>quarter</type>
                <stem>up</stem>
                <lyric number="1">
                    <syllabic>single</syllabic>
                    <text>you</text>
                </lyric>
            </note>
        </measure>
        <measure width="199.11" number="22">
            <harmony print-frame="no">
                <root>
                    <root-step>C</root-step>
                </root>
                <kind text="">major</kind>
            </harmony>
            <note default-y="-40.00" default-x="29.04">
                <pitch>
                    <step>E</step>
                    <octave>4</octave>
                </pitch>
                <duration>6</duration>
                <voice>1</voice>
                <type>half</type>
                <dot/>
                <stem>up</stem>
                <lyric number="1">
                    <syllabic>single</syllabic>
                    <text>made</text>
                </lyric>
            </note>
            <note default-y="-30.00" default-x="140.42">
                <pitch>
                    <step>G</step>
                    <octave>4</octave>
                </pitch>
                <duration>2</duration>
                <voice>1</voice>
                <type>quarter</type>
                <stem>up</stem>
                <lyric number="1">
                    <syllabic>single</syllabic>
                    <text>those</text>
                </lyric>
            </note>
        </measure>
        <measure width="250.99" number="23">
            <note default-y="-25.00" default-x="18.49">
                <pitch>
                    <step>A</step>
                    <octave>4</octave>
                </pitch>
                <duration>2</duration>
                <voice>1</voice>
                <type>quarter</type>
                <stem>up</stem>
                <lyric number="1">
                    <syllabic>begin</syllabic>
                    <text>ten</text>
                </lyric>
            </note>
            <note default-y="-30.00" default-x="78.55">
                <pitch>
                    <step>G</step>
                    <octave>4</octave>
                </pitch>
                <duration>2</duration>
                <voice>1</voice>
                <type>quarter</type>
                <stem>up</stem>
                <lyric number="1">
                    <syllabic>end</syllabic>
                    <text>der</text>
                </lyric>
            </note>
            <note default-y="-50.00" default-x="138.61">
                <pitch>
                    <step>C</step>
                    <octave>4</octave>
                </pitch>
                <duration>3</duration>
                <voice>1</voice>
                <type>quarter</type>
                <dot/>
                <stem>up</stem>
                <lyric number="1">
                    <syllabic>single</syllabic>
                    <text>vows</text>
                </lyric>
            </note>
            <note default-y="-40.00" default-x="211.85">
                <pitch>
                    <step>E</step>
                    <octave>4</octave>
                </pitch>
                <duration>1</duration>
                <voice>1</voice>
                <type>eighth</type>
                <stem>up</stem>
                <lyric number="1">
                    <syllabic>begin</syllabic>
                    <text>be</text>
                </lyric>
            </note>
        </measure>
        <measure width="177.13" number="24">
            <harmony print-frame="no">
                <root>
                    <root-step>C</root-step>
                </root>
                <kind text="">major</kind>
            </harmony>
            <note default-y="-40.00" default-x="22.84">
                <pitch>
                    <step>E</step>
                    <octave>4</octave>
                </pitch>
                <duration>2</duration>
                <voice>1</voice>
                <type>quarter</type>
                <stem>up</stem>
                <lyric number="1">
                    <syllabic>end</syllabic>
                    <text>side</text>
                </lyric>
            </note>
            <harmony print-frame="no">
                <root>
                    <root-step>G</root-step>
                </root>
                <kind text="">major</kind>
            </harmony>
            <note default-y="-45.00" default-x="74.58">
                <pitch>
                    <step>D</step>
                    <octave>4</octave>
                </pitch>
                <duration>6</duration>
                <tie type="start"/>
                <voice>1</voice>
                <type>half</type>
                <dot/>
                <stem>up</stem>
                <notations>
                    <tied type="start"/>
                </notations>
                <lyric number="1">
                    <syllabic>single</syllabic>
                    <text>me,</text>
                </lyric>
            </note>
        </measure>
        <measure width="229.92" number="25">
            <note default-y="-45.00" default-x="12.00">
                <pitch>
                    <step>D</step>
                    <octave>4</octave>
                </pitch>
                <duration>2</duration>
                <tie type="stop"/>
                <voice>1</voice>
                <type>quarter</type>
                <stem>up</stem>
                <notations>
                    <tied type="stop"/>
                </notations>
            </note>
            <harmony print-frame="no">
                <root>
                    <root-step>G</root-step>
                </root>
                <kind text="">major</kind>
                <bass>
                    <bass-step>D</bass-step>
                </bass>
            </harmony>
            <note default-y="-45.00" default-x="66.08">
                <pitch>
                    <step>D</step>
                    <octave>4</octave>
                </pitch>
                <duration>2</duration>
                <voice>1</voice>
                <type>quarter</type>
                <stem>up</stem>
                <lyric number="1">
                    <syllabic>single</syllabic>
                    <text>My</text>
                </lyric>
            </note>
            <harmony print-frame="no">
                <root>
                    <root-step>E</root-step>
                </root>
                <kind text="dim">diminished</kind>
            </harmony>
            <note default-y="-50.00" default-x="120.16">
                <pitch>
                    <step>C</step>
                    <alter>1</alter>
                    <octave>4</octave>
                </pitch>
                <duration>2</duration>
                <voice>1</voice>
                <type>quarter</type>
                <accidental>sharp</accidental>
                <stem>up</stem>
                <lyric number="1">
                    <syllabic>single</syllabic>
                    <text>joy</text>
                </lyric>
            </note>
            <harmony print-frame="no">
                <root>
                    <root-step>G</root-step>
                </root>
                <kind text="">major</kind>
                <bass>
                    <bass-step>D</bass-step>
                </bass>
            </harmony>
            <note default-y="-45.00" default-x="174.24">
                <pitch>
                    <step>D</step>
                    <octave>4</octave>
                </pitch>
                <duration>2</duration>
                <voice>1</voice>
                <type>quarter</type>
                <stem>up</stem>
                <lyric number="1">
                    <syllabic>single</syllabic>
                    <text>was</text>
                </lyric>
            </note>
        </measure>
        <measure width="187.93" number="26">
            <harmony print-frame="no">
                <root>
                    <root-step>A</root-step>
                </root>
                <kind text="7">dominant</kind>
            </harmony>
            <note default-y="-40.00" default-x="27.81">
                <pitch>
                    <step>E</step>
                    <octave>4</octave>
                </pitch>
                <duration>6</duration>
                <voice>1</voice>
                <type>half</type>
                <dot/>
                <stem>up</stem>
                <lyric number="1">
                    <syllabic>single</syllabic>
                    <text>more</text>
                </lyric>
            </note>
            <harmony print-frame="no">
                <root>
                    <root-step>D</root-step>
                </root>
                <kind text="7">dominant</kind>
            </harmony>
            <note default-y="-35.00" default-x="132.61">
                <pitch>
                    <step>F</step>
                    <alter>1</alter>
                    <octave>4</octave>
                </pitch>
                <duration>2</duration>
                <voice>1</voice>
                <type>quarter</type>
                <stem>up</stem>
                <lyric number="1">
                    <syllabic>single</syllabic>
                    <text>than</text>
                </lyric>
            </note>
        </measure>
        <measure width="295.74" number="27">
            <print new-system="yes">
                <system-layout>
                    <system-margins>
                        <left-margin>0.00</left-margin>
                        <right-margin>0.00</right-margin>
                    </system-margins>
                    <system-distance>176.06</system-distance>
                </system-layout>
            </print>
            <harmony print-frame="no">
                <root>
                    <root-step>A</root-step>
                </root>
                <kind text="7">dominant</kind>
            </harmony>
            <note default-y="-30.00" default-x="92.71">
                <pitch>
                    <step>G</step>
                    <octave>4</octave>
                </pitch>
                <duration>3</duration>
                <voice>1</voice>
                <type>quarter</type>
                <dot/>
                <stem>up</stem>
                <lyric number="1">
                    <syllabic>single</syllabic>
                    <text>words</text>
                </lyric>
            </note>
            <note default-y="-30.00" default-x="153.15">
                <pitch>
                    <step>G</step>
                    <octave>4</octave>
                </pitch>
                <duration>1</duration>
                <voice>1</voice>
                <type>eighth</type>
                <stem>up</stem>
                <lyric number="1">
                    <syllabic>single</syllabic>
                    <text>could</text>
                </lyric>
            </note>
            <note default-y="-25.00" default-x="195.01">
                <pitch>
                    <step>A</step>
                    <octave>4</octave>
                </pitch>
                <duration>2</duration>
                <voice>1</voice>
                <type>quarter</type>
                <stem>up</stem>
                <lyric number="1">
                    <syllabic>begin</syllabic>
                    <text>ev</text>
                </lyric>
            </note>
            <harmony print-frame="no">
                <root>
                    <root-step>A</root-step>
                </root>
                <kind text="9">dominant-ninth</kind>
            </harmony>
            <note default-y="-20.00" default-x="244.58">
                <pitch>
                    <step>B</step>
                    <octave>4</octave>
                </pitch>
                <duration>2</duration>
                <voice>1</voice>
                <type>quarter</type>
                <stem>down</stem>
                <lyric number="1">
                    <syllabic>end</syllabic>
                    <text>er</text>
                </lyric>
            </note>
        </measure>
        <measure width="104.95" number="28">
            <harmony print-frame="no">
                <root>
                    <root-step>D</root-step>
                </root>
                <kind text="">major</kind>
            </harmony>
            <note default-y="-25.00" default-x="22.84">
                <pitch>
                    <step>A</step>
                    <octave>4</octave>
                </pitch>
                <duration>8</duration>
                <tie type="start"/>
                <voice>1</voice>
                <type>whole</type>
                <notations>
                    <tied type="start"/>
                </notations>
                <lyric number="1">
                    <syllabic>single</syllabic>
                    <text>say;</text>
                </lyric>
            </note>
        </measure>
        <measure width="208.70" number="29">
            <harmony print-frame="no">
                <root>
                    <root-step>D</root-step>
                </root>
                <kind text="7">dominant</kind>
            </harmony>
            <note default-y="-25.00" default-x="12.00">
                <pitch>
                    <step>A</step>
                    <octave>4</octave>
                </pitch>
                <duration>2</duration>
                <tie type="stop"/>
                <voice>1</voice>
                <type>quarter</type>
                <stem>up</stem>
                <notations>
                    <tied type="stop"/>
                </notations>
            </note>
            <harmony print-frame="no">
                <root>
                    <root-step>A</root-step>
                </root>
                <kind text="m7">minor-seventh</kind>
            </harmony>
            <note default-y="-30.00" default-x="60.78">
                <pitch>
                    <step>G</step>
                    <octave>4</octave>
                </pitch>
                <duration>2</duration>
                <voice>1</voice>
                <type>quarter</type>
                <stem>up</stem>
                <lyric number="1">
                    <syllabic>single</syllabic>
                    <text>And</text>
                </lyric>
            </note>
            <harmony print-frame="no">
                <root>
                    <root-step>D</root-step>
                </root>
                <kind text="7">dominant</kind>
            </harmony>
            <note default-y="-35.00" default-x="109.55">
                <pitch>
                    <step>F</step>
                    <alter>1</alter>
                    <octave>4</octave>
                </pitch>
                <duration>2</duration>
                <voice>1</voice>
                <type>quarter</type>
                <stem>up</stem>
                <lyric number="1">
                    <syllabic>begin</syllabic>
                    <text>dar</text>
                </lyric>
            </note>
            <harmony print-frame="no">
                <root>
                    <root-step>D</root-step>
                </root>
                <kind text="9">dominant-ninth</kind>
            </harmony>
            <note default-y="-40.00" default-x="158.33">
                <pitch>
                    <step>E</step>
                    <octave>4</octave>
                </pitch>
                <duration>2</duration>
                <voice>1</voice>
                <type>quarter</type>
                <stem>up</stem>
                <lyric number="1">
                    <syllabic>end</syllabic>
                    <text>ling</text>
                </lyric>
            </note>
        </measure>
        <measure width="130.92" number="30">
            <harmony print-frame="no">
                <root>
                    <root-step>G</root-step>
                </root>
                <kind text="">major</kind>
            </harmony>
            <note default-y="-45.00" default-x="21.61">
                <pitch>
                    <step>D</step>
                    <octave>4</octave>
                </pitch>
                <duration>6</duration>
                <voice>1</voice>
                <type>half</type>
                <dot/>
                <stem>up</stem>
                <lyric number="1">
                    <syllabic>single</syllabic>
                    <text>still</text>
                </lyric>
            </note>
            <note default-y="-45.00" default-x="92.82">
                <pitch>
                    <step>D</step>
                    <octave>4</octave>
                </pitch>
                <duration>2</duration>
                <voice>1</voice>
                <type>quarter</type>
                <stem>up</stem>
                <lyric number="1">
                    <syllabic>single</syllabic>
                    <text>it</text>
                </lyric>
            </note>
        </measure>
        <measure width="249.98" number="31">
            <harmony print-frame="no">
                <root>
                    <root-step>C</root-step>
                </root>
                <kind text="">major</kind>
            </harmony>
            <note default-y="-40.00" default-x="32.16">
                <pitch>
                    <step>E</step>
                    <octave>4</octave>
                </pitch>
                <duration>2</duration>
                <voice>1</voice>
                <type>quarter</type>
                <stem>up</stem>
                <lyric number="1">
                    <syllabic>single</syllabic>
                    <text>grows</text>
                </lyric>
            </note>
            <note default-y="-30.00" default-x="86.21">
                <pitch>
                    <step>G</step>
                    <octave>4</octave>
                </pitch>
                <duration>2</duration>
                <voice>1</voice>
                <type>quarter</type>
                <stem>up</stem>
                <lyric number="1">
                    <syllabic>single</syllabic>
                    <text>and</text>
                </lyric>
            </note>
            <note default-y="-50.00" default-x="140.27">
                <pitch>
                    <step>C</step>
                    <octave>4</octave>
                </pitch>
                <duration>2</duration>
                <voice>1</voice>
                <type>quarter</type>
                <stem>up</stem>
                <lyric number="1">
                    <syllabic>single</syllabic>
                    <text>grows</text>
                </lyric>
            </note>
            <note default-y="-40.00" default-x="194.32">
                <pitch>
                    <step>E</step>
                    <octave>4</octave>
                </pitch>
                <duration>2</duration>
                <voice>1</voice>
                <type>quarter</type>
                <stem>up</stem>
                <lyric number="1">
                    <syllabic>begin</syllabic>
                    <text>in</text>
                </lyric>
            </note>
        </measure>
        <measure width="148.48" number="32">
            <note default-y="-40.00" default-x="22.84">
                <pitch>
                    <step>E</step>
                    <octave>4</octave>
                </pitch>
                <duration>2</duration>
                <voice>1</voice>
                <type>quarter</type>
                <stem>up</stem>
                <lyric number="1">
                    <syllabic>end</syllabic>
                    <text>side</text>
                </lyric>
            </note>
            <harmony print-frame="no">
                <root>
                    <root-step>G</root-step>
                </root>
                <kind text="">major</kind>
            </harmony>
            <note default-y="-45.00" default-x="64.88">
                <pitch>
                    <step>D</step>
                    <octave>4</octave>
                </pitch>
                <duration>6</duration>
                <tie type="start"/>
                <voice>1</voice>
                <type>half</type>
                <dot/>
                <stem>up</stem>
                <notations>
                    <tied type="start"/>
                </notations>
                <lyric number="1">
                    <syllabic>single</syllabic>
                    <text>me,</text>
                </lyric>
            </note>
        </measure>
        <measure width="194.56" number="33">
            <note default-y="-45.00" default-x="12.00">
                <pitch>
                    <step>D</step>
                    <octave>4</octave>
                </pitch>
                <duration>2</duration>
                <tie type="stop"/>
                <voice>1</voice>
                <type>quarter</type>
                <stem>up</stem>
                <notations>
                    <tied type="stop"/>
                </notations>
            </note>
            <harmony print-frame="no">
                <root>
                    <root-step>G</root-step>
                </root>
                <kind text="">major</kind>
            </harmony>
            <note default-y="-30.00" default-x="57.24">
                <pitch>
                    <step>G</step>
                    <octave>4</octave>
                </pitch>
                <duration>2</duration>
                <voice>1</voice>
                <type>quarter</type>
                <stem>up</stem>
                <lyric number="1">
                    <syllabic>single</syllabic>
                    <text>I</text>
                </lyric>
            </note>
            <harmony print-frame="no">
                <root>
                    <root-step>D</root-step>
                </root>
                <kind text="7sus">suspended-fourth</kind>
                <degree>
                    <degree-value>7</degree-value>
                    <degree-alter>0</degree-alter>
                    <degree-type>add</degree-type>
                </degree>
            </harmony>
            <note default-y="-25.00" default-x="102.48">
                <pitch>
                    <step>A</step>
                    <octave>4</octave>
                </pitch>
                <duration>2</duration>
                <voice>1</voice>
                <type>quarter</type>
                <stem>up</stem>
                <lyric number="1">
                    <syllabic>single</syllabic>
                    <text>love</text>
                </lyric>
            </note>
            <harmony relative-x="60.00" print-frame="no">
                <root>
                    <root-step>G</root-step>
                </root>
                <kind text="">major</kind>
            </harmony>
            <note default-y="-20.00" default-x="147.72">
                <pitch>
                    <step>B</step>
                    <octave>4</octave>
                </pitch>
                <duration>2</duration>
                <voice>1</voice>
                <type>quarter</type>
                <stem>down</stem>
                <lyric number="1">
                    <syllabic>single</syllabic>
                    <text>you</text>
                </lyric>
            </note>
        </measure>
        <measure width="194.52" number="34">
            <print new-system="yes">
                <system-layout>
                    <system-margins>
                        <left-margin>0.00</left-margin>
                        <right-margin>0.00</right-margin>
                    </system-margins>
                    <system-distance>176.06</system-distance>
                </system-layout>
            </print>
            <harmony print-frame="no">
                <root>
                    <root-step>C</root-step>
                </root>
                <kind text="">major</kind>
            </harmony>
            <note default-y="-15.00" default-x="88.36">
                <pitch>
                    <step>C</step>
                    <octave>5</octave>
                </pitch>
                <duration>6</duration>
                <voice>1</voice>
                <type>half</type>
                <dot/>
                <stem>down</stem>
                <lyric number="1">
                    <syllabic>single</syllabic>
                    <text>more</text>
                </lyric>
            </note>
            <note default-y="-15.00" default-x="157.48">
                <pitch>
                    <step>C</step>
                    <octave>5</octave>
                </pitch>
                <duration>2</duration>
                <voice>1</voice>
                <type>quarter</type>
                <stem>down</stem>
                <lyric number="1">
                    <syllabic>single</syllabic>
                    <text>and</text>
                </lyric>
            </note>
        </measure>
        <measure width="153.88" number="35">
            <harmony print-frame="no">
                <root>
                    <root-step>D</root-step>
                </root>
                <kind text="6">major-sixth</kind>
            </harmony>
            <note default-y="-20.00" default-x="27.81">
                <pitch>
                    <step>B</step>
                    <octave>4</octave>
                </pitch>
                <duration>4</duration>
                <voice>1</voice>
                <type>half</type>
                <stem>down</stem>
                <lyric number="1">
                    <syllabic>single</syllabic>
                    <text>more</text>
                </lyric>
            </note>
            <harmony print-frame="no">
                <root>
                    <root-step>D</root-step>
                </root>
                <kind text="7">dominant</kind>
            </harmony>
            <note default-y="-25.00" default-x="83.13">
                <pitch>
                    <step>A</step>
                    <octave>4</octave>
                </pitch>
                <duration>2</duration>
                <voice>1</voice>
                <type>quarter</type>
                <stem>up</stem>
                <lyric number="1">
                    <syllabic>begin</syllabic>
                    <text>ev</text>
                </lyric>
            </note>
            <note default-y="-25.00" default-x="117.71">
                <pitch>
                    <step>A</step>
                    <octave>4</octave>
                </pitch>
                <duration>2</duration>
                <voice>1</voice>
                <type>quarter</type>
                <stem>up</stem>
                <lyric number="1">
                    <syllabic>end</syllabic>
                    <text>'ry</text>
                </lyric>
            </note>
        </measure>
        <measure width="86.06" number="36">
            <barline location="left">
                <ending type="start" number="1"></ending>
            </barline>
            <harmony print-frame="no">
                <root>
                    <root-step>G</root-step>
                </root>
                <kind text="">major</kind>
            </harmony>
            <harmony print-frame="no">
                <root>
                    <root-step>C</root-step>
                </root>
                <kind text="">major</kind>
                <offset>4</offset>
            </harmony>
            <note default-y="-30.00" default-x="23.06">
                <pitch>
                    <step>G</step>
                    <octave>4</octave>
                </pitch>
                <duration>8</duration>
                <tie type="start"/>
                <voice>1</voice>
                <type>whole</type>
                <notations>
                    <tied type="start"/>
                </notations>
                <lyric number="1">
                    <syllabic>single</syllabic>
                    <text>day.</text>
                </lyric>
            </note>
            <barline location="right">
                <ending type="stop" number="1"></ending>
            </barline>
        </measure>
        <measure width="165.79" number="37">
            <harmony print-frame="no">
                <root>
                    <root-step>G</root-step>
                </root>
                <kind text="">major</kind>
            </harmony>
            <note default-y="-30.00" default-x="12.00">
                <pitch>
                    <step>G</step>
                    <octave>4</octave>
                </pitch>
                <duration>2</duration>
                <tie type="stop"/>
                <voice>1</voice>
                <type>quarter</type>
                <stem>up</stem>
                <notations>
                    <tied type="stop"/>
                </notations>
            </note>
            <note>
                <rest/>
                <duration>2</duration>
                <voice>1</voice>
                <type>quarter</type>
            </note>
            <note>
                <rest/>
                <duration>2</duration>
                <voice>1</voice>
                <type>quarter</type>
            </note>
            <harmony print-frame="no">
                <root>
                    <root-step>D</root-step>
                </root>
                <kind text="7">dominant</kind>
            </harmony>
            <note default-y="-45.00" default-x="116.48">
                <pitch>
                    <step>D</step>
                    <octave>4</octave>
                </pitch>
                <duration>2</duration>
                <voice>1</voice>
                <type>quarter</type>
                <stem>up</stem>
                <lyric number="1">
                    <syllabic>single</syllabic>
                    <text>They</text>
                </lyric>
            </note>
            <barline location="right">
                <bar-style>light-heavy</bar-style>
                <repeat direction="backward"/>
            </barline>
        </measure>
        <measure width="86.06" number="38">
            <barline location="left">
                <ending type="start" number="2"></ending>
            </barline>
            <harmony print-frame="no">
                <root>
                    <root-step>G</root-step>
                </root>
                <kind text="">major</kind>
            </harmony>
            <note default-y="-30.00" default-x="23.06">
                <pitch>
                    <step>G</step>
                    <octave>4</octave>
                </pitch>
                <duration>8</duration>
                <tie type="start"/>
                <voice>1</voice>
                <type>whole</type>
                <notations>
                    <tied type="start"/>
                </notations>
                <lyric number="1">
                    <syllabic>single</syllabic>
                    <text>day.</text>
                </lyric>
            </note>
            <barline location="right">
                <ending type="discontinue" number="2"></ending>
            </barline>
        </measure>
        <measure width="175.46" number="39">
            <note default-y="-30.00" default-x="12.00">
                <pitch>
                    <step>G</step>
                    <octave>4</octave>
                </pitch>
                <duration>2</duration>
                <tie type="stop"/>
                <voice>1</voice>
                <type>quarter</type>
                <stem>up</stem>
                <notations>
                    <tied type="stop"/>
                </notations>
            </note>
            <harmony print-frame="no">
                <root>
                    <root-step>G</root-step>
                </root>
                <kind text="">major</kind>
            </harmony>
            <note default-y="-30.00" default-x="51.79">
                <pitch>
                    <step>G</step>
                    <octave>4</octave>
                </pitch>
                <duration>2</duration>
                <voice>1</voice>
                <type>quarter</type>
                <stem>up</stem>
                <lyric number="1">
                    <syllabic>single</syllabic>
                    <text>I</text>
                </lyric>
            </note>
            <harmony print-frame="no">
                <root>
                    <root-step>D</root-step>
                </root>
                <kind text="7sus">suspended-fourth</kind>
                <degree>
                    <degree-value>7</degree-value>
                    <degree-alter>0</degree-alter>
                    <degree-type>add</degree-type>
                </degree>
            </harmony>
            <note default-y="-25.00" default-x="91.58">
                <pitch>
                    <step>A</step>
                    <octave>4</octave>
                </pitch>
                <duration>2</duration>
                <voice>1</voice>
                <type>quarter</type>
                <stem>up</stem>
                <lyric number="1">
                    <syllabic>single</syllabic>
                    <text>love</text>
                </lyric>
            </note>
            <harmony relative-x="70.00" print-frame="no">
                <root>
                    <root-step>G</root-step>
                </root>
                <kind text="">major</kind>
            </harmony>
            <note default-y="-20.00" default-x="134.07">
                <pitch>
                    <step>B</step>
                    <octave>4</octave>
                </pitch>
                <duration>2</duration>
                <voice>1</voice>
                <type>quarter</type>
                <stem>down</stem>
                <lyric number="1">
                    <syllabic>single</syllabic>
                    <text>you</text>
                </lyric>
            </note>
        </measure>
        <measure width="133.97" number="40">
            <harmony print-frame="no">
                <root>
                    <root-step>C</root-step>
                </root>
                <kind text="">major</kind>
            </harmony>
            <note default-y="-15.00" default-x="27.81">
                <pitch>
                    <step>C</step>
                    <octave>5</octave>
                </pitch>
                <duration>6</duration>
                <voice>1</voice>
                <type>half</type>
                <dot/>
                <stem>down</stem>
                <lyric number="1">
                    <syllabic>single</syllabic>
                    <text>more</text>
                </lyric>
            </note>
            <note default-y="-15.00" default-x="96.93">
                <pitch>
                    <step>C</step>
                    <octave>5</octave>
                </pitch>
                <duration>2</duration>
                <voice>1</voice>
                <type>quarter</type>
                <stem>down</stem>
                <lyric number="1">
                    <syllabic>single</syllabic>
                    <text>and</text>
                </lyric>
            </note>
        </measure>
        <measure width="153.88" number="41">
            <harmony print-frame="no">
                <root>
                    <root-step>D</root-step>
                </root>
                <kind text="6">major-sixth</kind>
            </harmony>
            <note default-y="-20.00" default-x="27.81">
                <pitch>
                    <step>B</step>
                    <octave>4</octave>
                </pitch>
                <duration>4</duration>
                <voice>1</voice>
                <type>half</type>
                <stem>down</stem>
                <lyric number="1">
                    <syllabic>single</syllabic>
                    <text>more</text>
                </lyric>
            </note>
            <harmony print-frame="no">
                <root>
                    <root-step>D</root-step>
                </root>
                <kind text="7">dominant</kind>
            </harmony>
            <note default-y="-25.00" default-x="83.13">
                <pitch>
                    <step>A</step>
                    <octave>4</octave>
                </pitch>
                <duration>2</duration>
                <voice>1</voice>
                <type>quarter</type>
                <stem>up</stem>
                <lyric number="1">
                    <syllabic>begin</syllabic>
                    <text>ev</text>
                </lyric>
            </note>
            <note default-y="-25.00" default-x="117.71">
                <pitch>
                    <step>A</step>
                    <octave>4</octave>
                </pitch>
                <duration>2</duration>
                <voice>1</voice>
                <type>quarter</type>
                <stem>up</stem>
                <lyric number="1">
                    <syllabic>end</syllabic>
                    <text>'ry</text>
                </lyric>
            </note>
        </measure>
        <measure width="86.06" number="42">
            <harmony print-frame="no">
                <root>
                    <root-step>G</root-step>
                </root>
                <kind text="">major</kind>
            </harmony>
            <harmony print-frame="no">
                <root>
                    <root-step>C</root-step>
                </root>
                <kind text="">major</kind>
                <offset>4</offset>
            </harmony>
            <note default-y="-30.00" default-x="23.06">
                <pitch>
                    <step>G</step>
                    <octave>4</octave>
                </pitch>
                <duration>8</duration>
                <tie type="start"/>
                <voice>1</voice>
                <type>whole</type>
                <notations>
                    <tied type="start"/>
                </notations>
                <lyric number="1">
                    <syllabic>begin</syllabic>
                    <text>day.</text>
                </lyric>
            </note>
        </measure>
        <measure width="97.67" number="43">
            <harmony print-frame="no">
                <root>
                    <root-step>G</root-step>
                </root>
                <kind text="">major</kind>
            </harmony>
            <note default-y="-30.00" default-x="12.00">
                <pitch>
                    <step>G</step>
                    <octave>4</octave>
                </pitch>
                <duration>4</duration>
                <tie type="stop"/>
                <voice>1</voice>
                <type>half</type>
                <stem>up</stem>
                <notations>
                    <tied type="stop"/>
                </notations>
            </note>
            <note>
                <rest/>
                <duration>4</duration>
                <voice>1</voice>
                <type>half</type>
            </note>
            <barline location="right">
                <bar-style>light-heavy</bar-style>
            </barline>
        </measure>
    </part>
</score-partwise>
