<?xml version="1.0" encoding="UTF-8"?>
<!DOCTYPE score-partwise PUBLIC "-//Recordare//DTD MusicXML 2.0 Partwise//EN" "http://www.musicxml.org/dtds/partwise.dtd">
<score-partwise version="2.0">
    <work>
        <work-number></work-number>
        <work-title></work-title>
    </work>
    <movement-number></movement-number>
    <movement-title>Jubilee Stomp (Short Version)</movement-title>
    <identification>
        <creator type="composer">Duke Ellington</creator>
        <creator type="poet">Duke Ellington</creator>
        <rights>All Rights Reserved</rights>
        <encoding>
            <software>Notation Composer 2, 6, 3, 0</software>
            <software>ProxyMusic 2.0 c</software>
        </encoding>
        <source>http://wikifonia.org/node/20212/revisions/26691/view</source>
    </identification>
    <defaults>
        <scaling>
            <millimeters>7.24</millimeters>
            <tenths>40</tenths>
        </scaling>
        <page-layout>
            <page-height>1543</page-height>
            <page-width>1192</page-width>
            <page-margins type="both">
                <left-margin>70</left-margin>
                <right-margin>70</right-margin>
                <top-margin>105</top-margin>
                <bottom-margin>70</bottom-margin>
            </page-margins>
        </page-layout>
        <music-font font-size="10" font-family="Harmony"/>
        <word-font font-size="10" font-family="Times New Roman"/>
        <lyric-font font-size="10" font-family="Arial"/>
    </defaults>
    <part-list>
        <part-group type="start" number="1">
            <group-symbol></group-symbol>
            <group-barline></group-barline>
        </part-group>
        <score-part id="T34731528">
            <part-name>Melody</part-name>
            <part-abbreviation>Choir</part-abbreviation>
            <score-instrument id="IT34731528">
                <instrument-name>Melody</instrument-name>
            </score-instrument>
            <midi-instrument id="IT34731528">
                <midi-channel>1</midi-channel>
                <midi-bank>0</midi-bank>
                <midi-program>54</midi-program>
            </midi-instrument>
        </score-part>
        <part-group type="stop" number="1"/>
    </part-list>
    <part id="T34731528">
        <measure width="276" number="1">
            <print>
                <system-layout>
                    <system-margins>
                        <left-margin>-6</left-margin>
                        <right-margin>0</right-margin>
                    </system-margins>
                    <top-system-distance>132</top-system-distance>
                </system-layout>
            </print>
            <attributes>
                <divisions>480</divisions>
                <key>
                    <fifths>-4</fifths>
                </key>
                <time>
                    <beats>4</beats>
                    <beat-type>4</beat-type>
                </time>
                <clef>
                    <sign>G</sign>
                    <line>2</line>
                </clef>
                <staff-details print-object="yes"/>
            </attributes>
            <note default-x="108">
                <rest/>
                <duration>480</duration>
                <type>quarter</type>
            </note>
            <note default-x="149" release="-7" dynamics="75">
                <pitch>
                    <step>C</step>
                    <octave>5</octave>
                </pitch>
                <duration>240</duration>
                <type>eighth</type>
                <stem default-y="-50">down</stem>
            </note>
            <note default-x="179" release="-7" dynamics="75">
                <pitch>
                    <step>C</step>
                    <octave>5</octave>
                </pitch>
                <duration>480</duration>
                <type>quarter</type>
                <stem default-y="-50">down</stem>
            </note>
            <note default-x="220" release="-7" dynamics="75">
                <pitch>
                    <step>C</step>
                    <octave>5</octave>
                </pitch>
                <duration>720</duration>
                <type>quarter</type>
                <dot/>
                <stem default-y="-50">down</stem>
            </note>
        </measure>
        <measure width="182" number="2">
            <attributes>
                <staff-details print-object="yes"/>
            </attributes>
            <note default-x="19" release="-7" dynamics="75">
                <pitch>
                    <step>C</step>
                    <octave>5</octave>
                </pitch>
                <duration>240</duration>
                <type>eighth</type>
                <stem default-y="-50">down</stem>
            </note>
            <note default-x="48" release="-7" dynamics="75">
                <pitch>
                    <step>C</step>
                    <octave>5</octave>
                </pitch>
                <duration>480</duration>
                <type>quarter</type>
                <stem default-y="-50">down</stem>
            </note>
            <note default-x="90" release="-7" dynamics="75">
                <pitch>
                    <step>C</step>
                    <octave>5</octave>
                </pitch>
                <duration>240</duration>
                <type>eighth</type>
                <stem default-y="-50">down</stem>
            </note>
            <note default-x="119" release="-7" dynamics="75">
                <pitch>
                    <step>F</step>
                    <octave>5</octave>
                </pitch>
                <duration>960</duration>
                <type>half</type>
                <stem default-y="-35">down</stem>
            </note>
        </measure>
        <measure width="202" number="3">
            <attributes>
                <staff-details print-object="yes"/>
            </attributes>
            <note default-x="13">
                <rest/>
                <duration>480</duration>
                <type>quarter</type>
            </note>
            <note default-x="55" release="-7" dynamics="75">
                <pitch>
                    <step>C</step>
                    <octave>5</octave>
                </pitch>
                <duration>240</duration>
                <type>eighth</type>
                <stem default-y="-50">down</stem>
            </note>
            <note default-x="84" release="-7" dynamics="75">
                <pitch>
                    <step>C</step>
                    <octave>5</octave>
                </pitch>
                <duration>480</duration>
                <type>quarter</type>
                <stem default-y="-50">down</stem>
            </note>
            <note default-x="125" release="-7" dynamics="75">
                <pitch>
                    <step>B</step>
                    <alter>-1</alter>
                    <octave>4</octave>
                </pitch>
                <duration>240</duration>
                <type>eighth</type>
                <stem default-y="-55">down</stem>
            </note>
            <note default-x="155" release="-7" dynamics="75">
                <pitch>
                    <step>C</step>
                    <octave>5</octave>
                </pitch>
                <duration>480</duration>
                <type>quarter</type>
                <stem default-y="-50">down</stem>
            </note>
        </measure>
        <measure width="111" number="4">
            <attributes>
                <staff-details print-object="yes"/>
            </attributes>
            <note default-x="19" release="-7" dynamics="75">
                <pitch>
                    <step>E</step>
                    <alter>-1</alter>
                    <octave>5</octave>
                </pitch>
                <duration>1920</duration>
                <type>whole</type>
            </note>
        </measure>
        <measure width="262" number="5">
            <attributes>
                <staff-details print-object="yes"/>
            </attributes>
            <note default-x="19" release="-7" dynamics="75">
                <pitch>
                    <step>F</step>
                    <octave>5</octave>
                </pitch>
                <duration>360</duration>
                <type>eighth</type>
                <dot/>
                <stem default-y="-35">down</stem>
                <beam number="1">begin</beam>
            </note>
            <note default-x="54" release="-7" dynamics="75">
                <pitch>
                    <step>E</step>
                    <octave>5</octave>
                </pitch>
                <duration>120</duration>
                <type>16th</type>
                <accidental>natural</accidental>
                <stem default-y="-40">down</stem>
                <beam number="1">end</beam>
                <beam number="2">continue</beam>
            </note>
            <note default-x="78" release="-7" dynamics="75">
                <pitch>
                    <step>F</step>
                    <octave>5</octave>
                </pitch>
                <duration>360</duration>
                <type>eighth</type>
                <dot/>
                <stem default-y="-35">down</stem>
                <beam number="1">begin</beam>
            </note>
            <note default-x="113" release="-7" dynamics="75">
                <pitch>
                    <step>A</step>
                    <alter>-1</alter>
                    <octave>5</octave>
                </pitch>
                <duration>120</duration>
                <type>16th</type>
                <stem default-y="-25">down</stem>
                <beam number="1">end</beam>
                <beam number="2">continue</beam>
            </note>
            <note default-x="137" release="-7" dynamics="75">
                <pitch>
                    <step>C</step>
                    <octave>6</octave>
                </pitch>
                <duration>360</duration>
                <type>eighth</type>
                <dot/>
                <stem default-y="-20">down</stem>
                <beam number="1">begin</beam>
            </note>
            <note default-x="172" release="-7" dynamics="75">
                <pitch>
                    <step>A</step>
                    <alter>-1</alter>
                    <octave>5</octave>
                </pitch>
                <duration>120</duration>
                <type>16th</type>
                <stem default-y="-25">down</stem>
                <beam number="1">end</beam>
                <beam number="2">continue</beam>
            </note>
            <note default-x="196" release="-7" dynamics="75">
                <pitch>
                    <step>F</step>
                    <octave>5</octave>
                </pitch>
                <duration>360</duration>
                <type>eighth</type>
                <dot/>
                <stem default-y="-35">down</stem>
                <beam number="1">begin</beam>
            </note>
            <note default-x="231" release="-7" dynamics="75">
                <pitch>
                    <step>E</step>
                    <octave>5</octave>
                </pitch>
                <duration>120</duration>
                <type>16th</type>
                <stem default-y="-40">down</stem>
                <beam number="1">end</beam>
                <beam number="2">continue</beam>
            </note>
        </measure>
        <measure width="286" number="6">
            <print new-system="yes">
                <system-layout>
                    <system-margins>
                        <left-margin>-6</left-margin>
                        <right-margin>0</right-margin>
                    </system-margins>
                    <system-distance>133</system-distance>
                </system-layout>
            </print>
            <attributes>
                <staff-details print-object="yes"/>
            </attributes>
            <note default-x="99" release="-7" dynamics="75">
                <pitch>
                    <step>F</step>
                    <octave>5</octave>
                </pitch>
                <duration>360</duration>
                <type>eighth</type>
                <dot/>
                <stem default-y="-35">down</stem>
                <beam number="1">begin</beam>
            </note>
            <note default-x="126" release="-7" dynamics="75">
                <pitch>
                    <step>A</step>
                    <alter>-1</alter>
                    <octave>5</octave>
                </pitch>
                <duration>120</duration>
                <type>16th</type>
                <stem default-y="-25">down</stem>
                <beam number="1">end</beam>
                <beam number="2">continue</beam>
            </note>
            <note default-x="146" release="-7" dynamics="75">
                <pitch>
                    <step>C</step>
                    <octave>6</octave>
                </pitch>
                <duration>360</duration>
                <type>eighth</type>
                <dot/>
                <stem default-y="-20">down</stem>
                <beam number="1">begin</beam>
            </note>
            <note default-x="173" release="-7" dynamics="75">
                <pitch>
                    <step>A</step>
                    <alter>-1</alter>
                    <octave>5</octave>
                </pitch>
                <duration>120</duration>
                <type>16th</type>
                <stem default-y="-25">down</stem>
                <beam number="1">end</beam>
                <beam number="2">continue</beam>
            </note>
            <note default-x="191" release="-7" dynamics="75">
                <pitch>
                    <step>F</step>
                    <octave>5</octave>
                </pitch>
                <duration>360</duration>
                <type>eighth</type>
                <dot/>
                <stem default-y="-35">down</stem>
                <beam number="1">begin</beam>
            </note>
            <note default-x="217" release="-7" dynamics="75">
                <pitch>
                    <step>E</step>
                    <octave>5</octave>
                </pitch>
                <duration>120</duration>
                <type>16th</type>
                <accidental>natural</accidental>
                <stem default-y="-40">down</stem>
                <beam number="1">end</beam>
                <beam number="2">continue</beam>
            </note>
            <note default-x="236" release="-7" dynamics="75">
                <pitch>
                    <step>F</step>
                    <octave>5</octave>
                </pitch>
                <duration>360</duration>
                <type>eighth</type>
                <dot/>
                <stem default-y="-35">down</stem>
                <beam number="1">begin</beam>
            </note>
            <note default-x="262" release="-7" dynamics="75">
                <pitch>
                    <step>A</step>
                    <alter>-1</alter>
                    <octave>5</octave>
                </pitch>
                <duration>120</duration>
                <type>16th</type>
                <stem default-y="-25">down</stem>
                <beam number="1">end</beam>
                <beam number="2">continue</beam>
            </note>
        </measure>
        <measure width="115" number="7">
            <attributes>
                <staff-details print-object="yes"/>
            </attributes>
            <note default-x="23" release="-7" dynamics="75">
                <pitch>
                    <step>C</step>
                    <octave>6</octave>
                </pitch>
                <duration>480</duration>
                <type>quarter</type>
                <stem default-y="-20">down</stem>
            </note>
            <note default-x="55" release="-7" dynamics="75">
                <pitch>
                    <step>E</step>
                    <alter>-1</alter>
                    <octave>6</octave>
                </pitch>
                <duration>1440</duration>
                <tie type="start"/>
                <type>half</type>
                <dot/>
                <stem default-y="-20">down</stem>
                <notations>
                    <tied orientation="over" type="start"/>
                </notations>
            </note>
        </measure>
        <measure width="95" number="8">
            <attributes>
                <staff-details print-object="yes"/>
            </attributes>
            <note default-x="23">
                <pitch>
                    <step>E</step>
                    <alter>-1</alter>
                    <octave>6</octave>
                </pitch>
                <duration>1920</duration>
                <tie type="stop"/>
                <type>whole</type>
                <notations>
                    <tied type="stop"/>
                </notations>
            </note>
        </measure>
        <measure width="206" number="9">
            <attributes>
                <staff-details print-object="yes"/>
            </attributes>
            <note default-x="18" release="-7" dynamics="75">
                <pitch>
                    <step>F</step>
                    <octave>5</octave>
                </pitch>
                <duration>360</duration>
                <type>eighth</type>
                <dot/>
                <stem default-y="-35">down</stem>
                <beam number="1">begin</beam>
            </note>
            <note default-x="45" release="-7" dynamics="75">
                <pitch>
                    <step>E</step>
                    <octave>5</octave>
                </pitch>
                <duration>120</duration>
                <type>16th</type>
                <accidental>natural</accidental>
                <stem default-y="-40">down</stem>
                <beam number="1">end</beam>
                <beam number="2">continue</beam>
            </note>
            <note default-x="63" release="-7" dynamics="75">
                <pitch>
                    <step>F</step>
                    <octave>5</octave>
                </pitch>
                <duration>360</duration>
                <type>eighth</type>
                <dot/>
                <stem default-y="-35">down</stem>
                <beam number="1">begin</beam>
            </note>
            <note default-x="90" release="-7" dynamics="75">
                <pitch>
                    <step>A</step>
                    <alter>-1</alter>
                    <octave>5</octave>
                </pitch>
                <duration>120</duration>
                <type>16th</type>
                <stem default-y="-25">down</stem>
                <beam number="1">end</beam>
                <beam number="2">continue</beam>
            </note>
            <note default-x="110" release="-7" dynamics="75">
                <pitch>
                    <step>C</step>
                    <octave>6</octave>
                </pitch>
                <duration>360</duration>
                <type>eighth</type>
                <dot/>
                <stem default-y="-20">down</stem>
                <beam number="1">begin</beam>
            </note>
            <note default-x="137" release="-7" dynamics="75">
                <pitch>
                    <step>A</step>
                    <alter>-1</alter>
                    <octave>5</octave>
                </pitch>
                <duration>120</duration>
                <type>16th</type>
                <stem default-y="-25">down</stem>
                <beam number="1">end</beam>
                <beam number="2">continue</beam>
            </note>
            <note default-x="155" release="-7" dynamics="75">
                <pitch>
                    <step>F</step>
                    <octave>5</octave>
                </pitch>
                <duration>360</duration>
                <type>eighth</type>
                <dot/>
                <stem default-y="-35">down</stem>
                <beam number="1">begin</beam>
            </note>
            <note default-x="182" release="-7" dynamics="75">
                <pitch>
                    <step>E</step>
                    <octave>5</octave>
                </pitch>
                <duration>120</duration>
                <type>16th</type>
                <stem default-y="-40">down</stem>
                <beam number="1">end</beam>
                <beam number="2">continue</beam>
            </note>
        </measure>
        <measure width="206" number="10">
            <attributes>
                <staff-details print-object="yes"/>
            </attributes>
            <note default-x="18" release="-7" dynamics="75">
                <pitch>
                    <step>F</step>
                    <octave>5</octave>
                </pitch>
                <duration>360</duration>
                <type>eighth</type>
                <dot/>
                <stem default-y="-35">down</stem>
                <beam number="1">begin</beam>
            </note>
            <note default-x="45" release="-7" dynamics="75">
                <pitch>
                    <step>A</step>
                    <alter>-1</alter>
                    <octave>5</octave>
                </pitch>
                <duration>120</duration>
                <type>16th</type>
                <stem default-y="-25">down</stem>
                <beam number="1">end</beam>
                <beam number="2">continue</beam>
            </note>
            <note default-x="65" release="-7" dynamics="75">
                <pitch>
                    <step>C</step>
                    <octave>6</octave>
                </pitch>
                <duration>360</duration>
                <type>eighth</type>
                <dot/>
                <stem default-y="-20">down</stem>
                <beam number="1">begin</beam>
            </note>
            <note default-x="92" release="-7" dynamics="75">
                <pitch>
                    <step>A</step>
                    <alter>-1</alter>
                    <octave>5</octave>
                </pitch>
                <duration>120</duration>
                <type>16th</type>
                <stem default-y="-25">down</stem>
                <beam number="1">end</beam>
                <beam number="2">continue</beam>
            </note>
            <note default-x="110" release="-7" dynamics="75">
                <pitch>
                    <step>F</step>
                    <octave>5</octave>
                </pitch>
                <duration>360</duration>
                <type>eighth</type>
                <dot/>
                <stem default-y="-35">down</stem>
                <beam number="1">begin</beam>
            </note>
            <note default-x="137" release="-7" dynamics="75">
                <pitch>
                    <step>E</step>
                    <octave>5</octave>
                </pitch>
                <duration>120</duration>
                <type>16th</type>
                <accidental>natural</accidental>
                <stem default-y="-40">down</stem>
                <beam number="1">end</beam>
                <beam number="2">continue</beam>
            </note>
            <note default-x="155" release="-7" dynamics="75">
                <pitch>
                    <step>F</step>
                    <octave>5</octave>
                </pitch>
                <duration>360</duration>
                <type>eighth</type>
                <dot/>
                <stem default-y="-35">down</stem>
                <beam number="1">begin</beam>
            </note>
            <note default-x="182" release="-7" dynamics="75">
                <pitch>
                    <step>A</step>
                    <alter>-1</alter>
                    <octave>5</octave>
                </pitch>
                <duration>120</duration>
                <type>16th</type>
                <stem default-y="-25">down</stem>
                <beam number="1">end</beam>
                <beam number="2">continue</beam>
            </note>
        </measure>
        <measure width="125" number="11">
            <attributes>
                <staff-details print-object="yes"/>
            </attributes>
            <note default-x="32" release="-7" dynamics="75">
                <pitch>
                    <step>C</step>
                    <alter>-1</alter>
                    <octave>6</octave>
                </pitch>
                <duration>480</duration>
                <type>quarter</type>
                <accidental>flat</accidental>
                <stem default-y="-20">down</stem>
            </note>
            <note default-x="64" release="-7" dynamics="75">
                <pitch>
                    <step>E</step>
                    <alter>-1</alter>
                    <octave>6</octave>
                </pitch>
                <duration>1440</duration>
                <tie type="start"/>
                <type>half</type>
                <dot/>
                <stem default-y="-20">down</stem>
                <notations>
                    <tied orientation="over" type="start"/>
                </notations>
            </note>
        </measure>
        <measure width="203" number="12">
            <print new-system="yes">
                <system-layout>
                    <system-margins>
                        <left-margin>-6</left-margin>
                        <right-margin>0</right-margin>
                    </system-margins>
                    <system-distance>131</system-distance>
                </system-layout>
            </print>
            <attributes>
                <staff-details print-object="yes"/>
            </attributes>
            <note default-x="108">
                <pitch>
                    <step>E</step>
                    <alter>-1</alter>
                    <octave>6</octave>
                </pitch>
                <duration>1920</duration>
                <tie type="stop"/>
                <type>whole</type>
                <notations>
                    <tied type="stop"/>
                </notations>
            </note>
        </measure>
        <measure width="275" number="13">
            <attributes>
                <staff-details print-object="yes"/>
            </attributes>
            <note default-x="13">
                <rest/>
                <duration>360</duration>
                <type>eighth</type>
                <dot/>
            </note>
            <note default-x="50" release="-7" dynamics="75">
                <pitch>
                    <step>C</step>
                    <octave>6</octave>
                </pitch>
                <duration>120</duration>
                <type>16th</type>
                <stem default-y="-20">down</stem>
            </note>
            <note default-x="79" release="-7" dynamics="75">
                <pitch>
                    <step>B</step>
                    <octave>5</octave>
                </pitch>
                <duration>360</duration>
                <type>eighth</type>
                <dot/>
                <accidental>natural</accidental>
                <stem default-y="-20">down</stem>
                <beam number="1">begin</beam>
            </note>
            <note default-x="116" release="-7" dynamics="75">
                <pitch>
                    <step>C</step>
                    <octave>6</octave>
                </pitch>
                <duration>120</duration>
                <type>16th</type>
                <stem default-y="-20">down</stem>
                <beam number="1">end</beam>
                <beam number="2">continue</beam>
            </note>
            <note default-x="146" release="-7" dynamics="75">
                <pitch>
                    <step>B</step>
                    <alter>-1</alter>
                    <octave>5</octave>
                </pitch>
                <duration>360</duration>
                <type>eighth</type>
                <dot/>
                <accidental>flat</accidental>
                <stem default-y="-20">down</stem>
                <beam number="1">begin</beam>
            </note>
            <note default-x="183" release="-7" dynamics="75">
                <pitch>
                    <step>G</step>
                    <octave>5</octave>
                </pitch>
                <duration>120</duration>
                <type>16th</type>
                <stem default-y="-30">down</stem>
                <beam number="1">end</beam>
                <beam number="2">continue</beam>
            </note>
            <note default-x="208" release="-7" dynamics="75">
                <pitch>
                    <step>E</step>
                    <octave>5</octave>
                </pitch>
                <duration>360</duration>
                <type>eighth</type>
                <dot/>
                <accidental>natural</accidental>
                <stem default-y="-40">down</stem>
                <beam number="1">begin</beam>
            </note>
            <note default-x="244" release="-7" dynamics="75">
                <pitch>
                    <step>C</step>
                    <octave>5</octave>
                </pitch>
                <duration>120</duration>
                <type>16th</type>
                <stem default-y="-50">down</stem>
                <beam number="1">end</beam>
                <beam number="2">continue</beam>
            </note>
        </measure>
        <measure width="282" number="14">
            <attributes>
                <staff-details print-object="yes"/>
            </attributes>
            <note default-x="24" release="-7" dynamics="75">
                <pitch>
                    <step>C</step>
                    <octave>6</octave>
                </pitch>
                <duration>360</duration>
                <type>eighth</type>
                <dot/>
                <stem default-y="-20">down</stem>
                <beam number="1">begin</beam>
            </note>
            <note default-x="61" release="-7" dynamics="75">
                <pitch>
                    <step>B</step>
                    <octave>5</octave>
                </pitch>
                <duration>120</duration>
                <type>16th</type>
                <accidental>natural</accidental>
                <stem default-y="-20">down</stem>
                <beam number="1">end</beam>
                <beam number="2">continue</beam>
            </note>
            <note default-x="91" release="-7" dynamics="75">
                <pitch>
                    <step>B</step>
                    <alter>-1</alter>
                    <octave>5</octave>
                </pitch>
                <duration>360</duration>
                <type>eighth</type>
                <dot/>
                <accidental>flat</accidental>
                <stem default-y="-20">down</stem>
                <beam number="1">begin</beam>
            </note>
            <note default-x="128" release="-7" dynamics="75">
                <pitch>
                    <step>G</step>
                    <octave>5</octave>
                </pitch>
                <duration>120</duration>
                <type>16th</type>
                <stem default-y="-30">down</stem>
                <beam number="1">end</beam>
                <beam number="2">continue</beam>
            </note>
            <note default-x="153" release="-7" dynamics="75">
                <pitch>
                    <step>E</step>
                    <octave>5</octave>
                </pitch>
                <duration>360</duration>
                <type>eighth</type>
                <dot/>
                <accidental>natural</accidental>
                <stem default-y="-40">down</stem>
                <beam number="1">begin</beam>
            </note>
            <note default-x="190" release="-7" dynamics="75">
                <pitch>
                    <step>C</step>
                    <octave>5</octave>
                </pitch>
                <duration>120</duration>
                <type>16th</type>
                <stem default-y="-50">down</stem>
                <beam number="1">end</beam>
                <beam number="2">continue</beam>
            </note>
            <note default-x="214" release="-7" dynamics="75">
                <pitch>
                    <step>B</step>
                    <octave>4</octave>
                </pitch>
                <duration>360</duration>
                <type>eighth</type>
                <dot/>
                <accidental>natural</accidental>
                <stem default-y="-55">down</stem>
                <beam number="1">begin</beam>
            </note>
            <note default-x="251" release="-7" dynamics="75">
                <pitch>
                    <step>C</step>
                    <octave>5</octave>
                </pitch>
                <duration>120</duration>
                <type>16th</type>
                <stem default-y="-50">down</stem>
                <beam number="1">end</beam>
                <beam number="2">continue</beam>
            </note>
        </measure>
        <measure width="273" number="15">
            <attributes>
                <staff-details print-object="yes"/>
            </attributes>
            <note default-x="19" release="-7" dynamics="75">
                <pitch>
                    <step>D</step>
                    <alter>-1</alter>
                    <octave>5</octave>
                </pitch>
                <duration>360</duration>
                <type>eighth</type>
                <dot/>
                <stem default-y="-45">down</stem>
                <beam number="1">begin</beam>
            </note>
            <note default-x="56" release="-7" dynamics="75">
                <pitch>
                    <step>C</step>
                    <octave>5</octave>
                </pitch>
                <duration>120</duration>
                <type>16th</type>
                <stem default-y="-50">down</stem>
                <beam number="1">end</beam>
                <beam number="2">continue</beam>
            </note>
            <note default-x="81" release="-7" dynamics="75">
                <pitch>
                    <step>F</step>
                    <octave>5</octave>
                </pitch>
                <duration>360</duration>
                <type>eighth</type>
                <dot/>
                <stem default-y="-35">down</stem>
                <beam number="1">begin</beam>
            </note>
            <note default-x="117" release="-7" dynamics="75">
                <pitch>
                    <step>E</step>
                    <octave>5</octave>
                </pitch>
                <duration>120</duration>
                <type>16th</type>
                <accidental>natural</accidental>
                <stem default-y="-40">down</stem>
                <beam number="1">end</beam>
                <beam number="2">continue</beam>
            </note>
            <note default-x="142" release="-7" dynamics="75">
                <pitch>
                    <step>A</step>
                    <alter>-1</alter>
                    <octave>5</octave>
                </pitch>
                <duration>360</duration>
                <type>eighth</type>
                <dot/>
                <stem default-y="-25">down</stem>
                <beam number="1">begin</beam>
            </note>
            <note default-x="179" release="-7" dynamics="75">
                <pitch>
                    <step>G</step>
                    <octave>5</octave>
                </pitch>
                <duration>120</duration>
                <type>16th</type>
                <stem default-y="-30">down</stem>
                <beam number="1">end</beam>
                <beam number="2">continue</beam>
            </note>
            <note default-x="203" release="-7" dynamics="75">
                <pitch>
                    <step>D</step>
                    <alter>-1</alter>
                    <octave>6</octave>
                </pitch>
                <duration>360</duration>
                <type>eighth</type>
                <dot/>
                <stem default-y="-20">down</stem>
                <beam number="1">begin</beam>
            </note>
            <note default-x="240" release="-7" dynamics="75">
                <pitch>
                    <step>G</step>
                    <octave>5</octave>
                </pitch>
                <duration>120</duration>
                <type>16th</type>
                <stem default-y="-30">down</stem>
                <beam number="1">end</beam>
                <beam number="2">continue</beam>
            </note>
        </measure>
        <measure width="317" number="16">
            <print new-system="yes">
                <system-layout>
                    <system-margins>
                        <left-margin>-6</left-margin>
                        <right-margin>0</right-margin>
                    </system-margins>
                    <system-distance>123</system-distance>
                </system-layout>
            </print>
            <attributes>
                <staff-details print-object="yes"/>
            </attributes>
            <note default-x="104" release="-7" dynamics="75">
                <pitch>
                    <step>C</step>
                    <octave>6</octave>
                </pitch>
                <duration>360</duration>
                <type>eighth</type>
                <dot/>
                <stem default-y="-20">down</stem>
                <beam number="1">begin</beam>
            </note>
            <note default-x="134" release="-7" dynamics="75">
                <pitch>
                    <step>G</step>
                    <octave>5</octave>
                </pitch>
                <duration>120</duration>
                <type>16th</type>
                <stem default-y="-30">down</stem>
                <beam number="1">end</beam>
                <beam number="2">continue</beam>
            </note>
            <note default-x="158" release="-7" dynamics="75">
                <pitch>
                    <step>B</step>
                    <octave>5</octave>
                </pitch>
                <duration>360</duration>
                <type>eighth</type>
                <dot/>
                <accidental>natural</accidental>
                <stem default-y="-20">down</stem>
                <beam number="1">begin</beam>
            </note>
            <note default-x="187" release="-7" dynamics="75">
                <pitch>
                    <step>G</step>
                    <octave>5</octave>
                </pitch>
                <duration>120</duration>
                <type>16th</type>
                <stem default-y="-30">down</stem>
                <beam number="1">end</beam>
                <beam number="2">continue</beam>
            </note>
            <note default-x="213" release="-7" dynamics="75">
                <pitch>
                    <step>B</step>
                    <alter>-1</alter>
                    <octave>5</octave>
                </pitch>
                <duration>360</duration>
                <type>eighth</type>
                <dot/>
                <accidental>flat</accidental>
                <stem default-y="-20">down</stem>
                <beam number="1">begin</beam>
            </note>
            <note default-x="243" release="-7" dynamics="75">
                <pitch>
                    <step>G</step>
                    <octave>5</octave>
                </pitch>
                <duration>120</duration>
                <type>16th</type>
                <stem default-y="-30">down</stem>
                <beam number="1">end</beam>
                <beam number="2">continue</beam>
            </note>
            <note default-x="262" release="-7" dynamics="75">
                <pitch>
                    <step>E</step>
                    <octave>5</octave>
                </pitch>
                <duration>360</duration>
                <type>eighth</type>
                <dot/>
                <accidental>natural</accidental>
                <stem default-y="-40">down</stem>
                <beam number="1">begin</beam>
            </note>
            <note default-x="292" release="-7" dynamics="75">
                <pitch>
                    <step>C</step>
                    <octave>5</octave>
                </pitch>
                <duration>120</duration>
                <type>16th</type>
                <stem default-y="-50">down</stem>
                <beam number="1">end</beam>
                <beam number="2">continue</beam>
            </note>
        </measure>
        <measure width="229" number="17">
            <attributes>
                <staff-details print-object="yes"/>
            </attributes>
            <note default-x="26" release="-7" dynamics="75">
                <pitch>
                    <step>B</step>
                    <octave>4</octave>
                </pitch>
                <duration>360</duration>
                <type>eighth</type>
                <dot/>
                <accidental>natural</accidental>
                <stem default-y="-55">down</stem>
                <beam number="1">begin</beam>
            </note>
            <note default-x="56" release="-7" dynamics="75">
                <pitch>
                    <step>C</step>
                    <octave>5</octave>
                </pitch>
                <duration>120</duration>
                <type>16th</type>
                <stem default-y="-50">down</stem>
                <beam number="1">end</beam>
                <beam number="2">continue</beam>
            </note>
            <note default-x="75" release="-7" dynamics="75">
                <pitch>
                    <step>D</step>
                    <octave>5</octave>
                </pitch>
                <duration>360</duration>
                <type>eighth</type>
                <dot/>
                <accidental>natural</accidental>
                <stem default-y="-45">down</stem>
                <beam number="1">begin</beam>
            </note>
            <note default-x="105" release="-7" dynamics="75">
                <pitch>
                    <step>E</step>
                    <alter>-1</alter>
                    <octave>5</octave>
                </pitch>
                <duration>120</duration>
                <type>16th</type>
                <stem default-y="-40">down</stem>
                <beam number="1">end</beam>
                <beam number="2">continue</beam>
            </note>
            <note default-x="124" release="-7" dynamics="75">
                <pitch>
                    <step>D</step>
                    <octave>5</octave>
                </pitch>
                <duration>360</duration>
                <type>eighth</type>
                <dot/>
                <stem default-y="-45">down</stem>
                <beam number="1">begin</beam>
            </note>
            <note default-x="154" release="-7" dynamics="75">
                <pitch>
                    <step>C</step>
                    <octave>5</octave>
                </pitch>
                <duration>120</duration>
                <type>16th</type>
                <stem default-y="-50">down</stem>
                <beam number="1">end</beam>
                <beam number="2">continue</beam>
            </note>
            <note default-x="173" release="-7" dynamics="75">
                <pitch>
                    <step>B</step>
                    <octave>4</octave>
                </pitch>
                <duration>360</duration>
                <type>eighth</type>
                <dot/>
                <stem default-y="-55">down</stem>
                <beam number="1">begin</beam>
            </note>
            <note default-x="203" release="-7" dynamics="75">
                <pitch>
                    <step>C</step>
                    <octave>5</octave>
                </pitch>
                <duration>120</duration>
                <type>16th</type>
                <stem default-y="-50">down</stem>
                <beam number="1">end</beam>
                <beam number="2">continue</beam>
            </note>
        </measure>
        <measure width="229" number="18">
            <attributes>
                <staff-details print-object="yes"/>
            </attributes>
            <note default-x="26" release="-7" dynamics="75">
                <pitch>
                    <step>D</step>
                    <octave>5</octave>
                </pitch>
                <duration>360</duration>
                <type>eighth</type>
                <dot/>
                <accidental>natural</accidental>
                <stem default-y="-45">down</stem>
                <beam number="1">begin</beam>
            </note>
            <note default-x="56" release="-7" dynamics="75">
                <pitch>
                    <step>E</step>
                    <octave>5</octave>
                </pitch>
                <duration>120</duration>
                <type>16th</type>
                <accidental>natural</accidental>
                <stem default-y="-40">down</stem>
                <beam number="1">end</beam>
                <beam number="2">continue</beam>
            </note>
            <note default-x="75" release="-7" dynamics="75">
                <pitch>
                    <step>D</step>
                    <octave>5</octave>
                </pitch>
                <duration>360</duration>
                <type>eighth</type>
                <dot/>
                <stem default-y="-45">down</stem>
                <beam number="1">begin</beam>
            </note>
            <note default-x="105" release="-7" dynamics="75">
                <pitch>
                    <step>C</step>
                    <octave>5</octave>
                </pitch>
                <duration>120</duration>
                <type>16th</type>
                <stem default-y="-50">down</stem>
                <beam number="1">end</beam>
                <beam number="2">continue</beam>
            </note>
            <note default-x="124" release="-7" dynamics="75">
                <pitch>
                    <step>B</step>
                    <octave>4</octave>
                </pitch>
                <duration>360</duration>
                <type>eighth</type>
                <dot/>
                <accidental>natural</accidental>
                <stem default-y="-55">down</stem>
                <beam number="1">begin</beam>
            </note>
            <note default-x="154" release="-7" dynamics="75">
                <pitch>
                    <step>C</step>
                    <octave>5</octave>
                </pitch>
                <duration>120</duration>
                <type>16th</type>
                <stem default-y="-50">down</stem>
                <beam number="1">end</beam>
                <beam number="2">continue</beam>
            </note>
            <note default-x="173" release="-7" dynamics="75">
                <pitch>
                    <step>D</step>
                    <octave>5</octave>
                </pitch>
                <duration>360</duration>
                <type>eighth</type>
                <dot/>
                <stem default-y="-45">down</stem>
                <beam number="1">begin</beam>
            </note>
            <note default-x="203" release="-7" dynamics="75">
                <pitch>
                    <step>E</step>
                    <octave>5</octave>
                </pitch>
                <duration>120</duration>
                <type>16th</type>
                <stem default-y="-40">down</stem>
                <beam number="1">end</beam>
                <beam number="2">continue</beam>
            </note>
        </measure>
        <measure width="140" number="19">
            <attributes>
                <staff-details print-object="yes"/>
            </attributes>
            <note default-x="19" release="-7" dynamics="75">
                <pitch>
                    <step>F</step>
                    <octave>5</octave>
                </pitch>
                <duration>480</duration>
                <type>quarter</type>
                <stem default-y="-35">down</stem>
            </note>
            <note default-x="53">
                <rest/>
                <duration>480</duration>
                <type>quarter</type>
            </note>
            <note default-x="87" release="-7" dynamics="75">
                <pitch>
                    <step>B</step>
                    <octave>4</octave>
                </pitch>
                <duration>960</duration>
                <type>half</type>
                <accidental>natural</accidental>
                <stem default-y="-50">down</stem>
            </note>
        </measure>
        <measure width="119" number="20">
            <attributes>
                <staff-details print-object="yes"/>
            </attributes>
            <note default-x="19" release="-7" dynamics="75">
                <pitch>
                    <step>B</step>
                    <alter>-1</alter>
                    <octave>4</octave>
                </pitch>
                <duration>960</duration>
                <type>half</type>
                <stem default-y="-50">down</stem>
            </note>
            <note default-x="65" release="-7" dynamics="75">
                <pitch>
                    <step>A</step>
                    <alter>-1</alter>
                    <octave>4</octave>
                </pitch>
                <duration>960</duration>
                <type>half</type>
                <stem default-y="10">up</stem>
            </note>
        </measure>
        <measure width="321" number="21">
            <print new-system="yes">
                <system-layout>
                    <system-margins>
                        <left-margin>-6</left-margin>
                        <right-margin>0</right-margin>
                    </system-margins>
                    <system-distance>121</system-distance>
                </system-layout>
            </print>
            <attributes>
                <staff-details print-object="yes"/>
            </attributes>
            <note default-x="100" release="-7" dynamics="75">
                <pitch>
                    <step>F</step>
                    <octave>4</octave>
                </pitch>
                <duration>360</duration>
                <type>eighth</type>
                <dot/>
                <stem default-y="0">up</stem>
                <beam number="1">begin</beam>
            </note>
            <note default-x="132" release="-7" dynamics="75">
                <pitch>
                    <step>E</step>
                    <octave>4</octave>
                </pitch>
                <duration>120</duration>
                <type>16th</type>
                <accidental>natural</accidental>
                <stem default-y="-5">up</stem>
                <beam number="1">end</beam>
                <beam number="2">continue</beam>
            </note>
            <note default-x="154" release="-7" dynamics="75">
                <pitch>
                    <step>F</step>
                    <octave>4</octave>
                </pitch>
                <duration>360</duration>
                <type>eighth</type>
                <dot/>
                <stem default-y="0">up</stem>
                <beam number="1">begin</beam>
            </note>
            <note default-x="186" release="-7" dynamics="75">
                <pitch>
                    <step>A</step>
                    <alter>-1</alter>
                    <octave>4</octave>
                </pitch>
                <duration>120</duration>
                <type>16th</type>
                <stem default-y="10">up</stem>
                <beam number="1">end</beam>
                <beam number="2">continue</beam>
            </note>
            <note default-x="208" release="-7" dynamics="75">
                <pitch>
                    <step>C</step>
                    <octave>5</octave>
                </pitch>
                <duration>360</duration>
                <type>eighth</type>
                <dot/>
                <stem default-y="-50">down</stem>
                <beam number="1">begin</beam>
            </note>
            <note default-x="240" release="-7" dynamics="75">
                <pitch>
                    <step>A</step>
                    <alter>-1</alter>
                    <octave>4</octave>
                </pitch>
                <duration>120</duration>
                <type>16th</type>
                <stem default-y="-60">down</stem>
                <beam number="1">end</beam>
                <beam number="2">continue</beam>
            </note>
            <note default-x="261" release="-7" dynamics="75">
                <pitch>
                    <step>F</step>
                    <octave>4</octave>
                </pitch>
                <duration>360</duration>
                <type>eighth</type>
                <dot/>
                <stem default-y="0">up</stem>
                <beam number="1">begin</beam>
            </note>
            <note default-x="293" release="-7" dynamics="75">
                <pitch>
                    <step>E</step>
                    <octave>4</octave>
                </pitch>
                <duration>120</duration>
                <type>16th</type>
                <stem default-y="-5">up</stem>
                <beam number="1">end</beam>
                <beam number="2">continue</beam>
            </note>
        </measure>
        <measure width="239" number="22">
            <attributes>
                <staff-details print-object="yes"/>
            </attributes>
            <note default-x="18" release="-7" dynamics="75">
                <pitch>
                    <step>F</step>
                    <octave>4</octave>
                </pitch>
                <duration>360</duration>
                <type>eighth</type>
                <dot/>
                <stem default-y="0">up</stem>
                <beam number="1">begin</beam>
            </note>
            <note default-x="50" release="-7" dynamics="75">
                <pitch>
                    <step>A</step>
                    <alter>-1</alter>
                    <octave>4</octave>
                </pitch>
                <duration>120</duration>
                <type>16th</type>
                <stem default-y="10">up</stem>
                <beam number="1">end</beam>
                <beam number="2">continue</beam>
            </note>
            <note default-x="72" release="-7" dynamics="75">
                <pitch>
                    <step>C</step>
                    <octave>5</octave>
                </pitch>
                <duration>360</duration>
                <type>eighth</type>
                <dot/>
                <stem default-y="-50">down</stem>
                <beam number="1">begin</beam>
            </note>
            <note default-x="104" release="-7" dynamics="75">
                <pitch>
                    <step>A</step>
                    <alter>-1</alter>
                    <octave>4</octave>
                </pitch>
                <duration>120</duration>
                <type>16th</type>
                <stem default-y="-60">down</stem>
                <beam number="1">end</beam>
                <beam number="2">continue</beam>
            </note>
            <note default-x="125" release="-7" dynamics="75">
                <pitch>
                    <step>F</step>
                    <octave>4</octave>
                </pitch>
                <duration>360</duration>
                <type>eighth</type>
                <dot/>
                <stem default-y="0">up</stem>
                <beam number="1">begin</beam>
            </note>
            <note default-x="157" release="-7" dynamics="75">
                <pitch>
                    <step>E</step>
                    <octave>4</octave>
                </pitch>
                <duration>120</duration>
                <type>16th</type>
                <accidental>natural</accidental>
                <stem default-y="-5">up</stem>
                <beam number="1">end</beam>
                <beam number="2">continue</beam>
            </note>
            <note default-x="179" release="-7" dynamics="75">
                <pitch>
                    <step>F</step>
                    <octave>4</octave>
                </pitch>
                <duration>360</duration>
                <type>eighth</type>
                <dot/>
                <stem default-y="0">up</stem>
                <beam number="1">begin</beam>
            </note>
            <note default-x="211" release="-7" dynamics="75">
                <pitch>
                    <step>A</step>
                    <alter>-1</alter>
                    <octave>4</octave>
                </pitch>
                <duration>120</duration>
                <type>16th</type>
                <stem default-y="10">up</stem>
                <beam number="1">end</beam>
                <beam number="2">continue</beam>
            </note>
        </measure>
        <measure width="127" number="23">
            <attributes>
                <staff-details print-object="yes"/>
            </attributes>
            <note default-x="19" release="-7" dynamics="75">
                <pitch>
                    <step>C</step>
                    <octave>5</octave>
                </pitch>
                <duration>480</duration>
                <type>quarter</type>
                <stem default-y="-50">down</stem>
            </note>
            <note default-x="56" release="-7" dynamics="75">
                <pitch>
                    <step>C</step>
                    <octave>6</octave>
                </pitch>
                <duration>1440</duration>
                <tie type="start"/>
                <type>half</type>
                <dot/>
                <stem default-y="-20">down</stem>
                <notations>
                    <tied orientation="over" type="start"/>
                </notations>
            </note>
        </measure>
        <measure width="108" number="24">
            <attributes>
                <staff-details print-object="yes"/>
            </attributes>
            <note default-x="24">
                <pitch>
                    <step>C</step>
                    <octave>6</octave>
                </pitch>
                <duration>1920</duration>
                <tie type="stop"/>
                <type>whole</type>
                <notations>
                    <tied type="stop"/>
                </notations>
            </note>
        </measure>
        <measure width="239" number="25">
            <attributes>
                <staff-details print-object="yes"/>
            </attributes>
            <note default-x="13">
                <rest/>
                <duration>360</duration>
                <type>eighth</type>
                <dot/>
            </note>
            <note default-x="45" release="-7" dynamics="75">
                <pitch>
                    <step>A</step>
                    <alter>-1</alter>
                    <octave>5</octave>
                </pitch>
                <duration>120</duration>
                <type>16th</type>
                <stem default-y="-25">down</stem>
            </note>
            <note default-x="67" release="-7" dynamics="75">
                <pitch>
                    <step>G</step>
                    <octave>5</octave>
                </pitch>
                <duration>360</duration>
                <type>eighth</type>
                <dot/>
                <stem default-y="-30">down</stem>
                <beam number="1">begin</beam>
            </note>
            <note default-x="99" release="-7" dynamics="75">
                <pitch>
                    <step>A</step>
                    <alter>-1</alter>
                    <octave>5</octave>
                </pitch>
                <duration>120</duration>
                <type>16th</type>
                <stem default-y="-25">down</stem>
                <beam number="1">end</beam>
                <beam number="2">continue</beam>
            </note>
            <note default-x="124" release="-7" dynamics="75">
                <pitch>
                    <step>G</step>
                    <alter>-1</alter>
                    <octave>5</octave>
                </pitch>
                <duration>360</duration>
                <type>eighth</type>
                <dot/>
                <accidental>flat</accidental>
                <stem default-y="-30">down</stem>
                <beam number="1">begin</beam>
            </note>
            <note default-x="156" release="-7" dynamics="75">
                <pitch>
                    <step>E</step>
                    <alter>-1</alter>
                    <octave>5</octave>
                </pitch>
                <duration>120</duration>
                <type>16th</type>
                <stem default-y="-40">down</stem>
                <beam number="1">end</beam>
                <beam number="2">continue</beam>
            </note>
            <note default-x="178" release="-7" dynamics="75">
                <pitch>
                    <step>C</step>
                    <octave>5</octave>
                </pitch>
                <duration>360</duration>
                <type>eighth</type>
                <dot/>
                <stem default-y="-50">down</stem>
                <beam number="1">begin</beam>
            </note>
            <note default-x="210" release="-7" dynamics="75">
                <pitch>
                    <step>A</step>
                    <alter>-1</alter>
                    <octave>4</octave>
                </pitch>
                <duration>120</duration>
                <type>16th</type>
                <stem default-y="-60">down</stem>
                <beam number="1">end</beam>
                <beam number="2">continue</beam>
            </note>
        </measure>
        <measure width="304" number="26">
            <print new-system="yes">
                <system-layout>
                    <system-margins>
                        <left-margin>-6</left-margin>
                        <right-margin>0</right-margin>
                    </system-margins>
                    <system-distance>116</system-distance>
                </system-layout>
            </print>
            <attributes>
                <staff-details print-object="yes"/>
            </attributes>
            <note default-x="104" release="-7" dynamics="75">
                <pitch>
                    <step>A</step>
                    <alter>-1</alter>
                    <octave>5</octave>
                </pitch>
                <duration>360</duration>
                <type>eighth</type>
                <dot/>
                <stem default-y="-25">down</stem>
                <beam number="1">begin</beam>
            </note>
            <note default-x="133" release="-7" dynamics="75">
                <pitch>
                    <step>G</step>
                    <octave>5</octave>
                </pitch>
                <duration>120</duration>
                <type>16th</type>
                <stem default-y="-30">down</stem>
                <beam number="1">end</beam>
                <beam number="2">continue</beam>
            </note>
            <note default-x="154" release="-7" dynamics="75">
                <pitch>
                    <step>G</step>
                    <alter>-1</alter>
                    <octave>5</octave>
                </pitch>
                <duration>360</duration>
                <type>eighth</type>
                <dot/>
                <accidental>flat</accidental>
                <stem default-y="-30">down</stem>
                <beam number="1">begin</beam>
            </note>
            <note default-x="182" release="-7" dynamics="75">
                <pitch>
                    <step>E</step>
                    <alter>-1</alter>
                    <octave>5</octave>
                </pitch>
                <duration>120</duration>
                <type>16th</type>
                <stem default-y="-40">down</stem>
                <beam number="1">end</beam>
                <beam number="2">continue</beam>
            </note>
            <note default-x="202" release="-7" dynamics="75">
                <pitch>
                    <step>C</step>
                    <octave>5</octave>
                </pitch>
                <duration>360</duration>
                <type>eighth</type>
                <dot/>
                <stem default-y="-50">down</stem>
                <beam number="1">begin</beam>
            </note>
            <note default-x="230" release="-7" dynamics="75">
                <pitch>
                    <step>A</step>
                    <alter>-1</alter>
                    <octave>4</octave>
                </pitch>
                <duration>120</duration>
                <type>16th</type>
                <stem default-y="-60">down</stem>
                <beam number="1">end</beam>
                <beam number="2">continue</beam>
            </note>
            <note default-x="250" release="-7" dynamics="75">
                <pitch>
                    <step>B</step>
                    <alter>-1</alter>
                    <octave>4</octave>
                </pitch>
                <duration>360</duration>
                <type>eighth</type>
                <dot/>
                <stem default-y="-55">down</stem>
                <beam number="1">begin</beam>
            </note>
            <note default-x="278" release="-7" dynamics="75">
                <pitch>
                    <step>C</step>
                    <octave>5</octave>
                </pitch>
                <duration>120</duration>
                <type>16th</type>
                <stem default-y="-50">down</stem>
                <beam number="1">end</beam>
                <beam number="2">continue</beam>
            </note>
        </measure>
        <measure width="202" number="27">
            <attributes>
                <staff-details print-object="yes"/>
            </attributes>
            <note default-x="18" release="-7" dynamics="75">
                <pitch>
                    <step>D</step>
                    <alter>-1</alter>
                    <octave>5</octave>
                </pitch>
                <duration>360</duration>
                <type>eighth</type>
                <dot/>
                <stem default-y="-45">down</stem>
                <beam number="1">begin</beam>
            </note>
            <note default-x="47" release="-7" dynamics="75">
                <pitch>
                    <step>F</step>
                    <octave>5</octave>
                </pitch>
                <duration>120</duration>
                <type>16th</type>
                <stem default-y="-35">down</stem>
                <beam number="1">end</beam>
                <beam number="2">continue</beam>
            </note>
            <note default-x="67" release="-7" dynamics="75">
                <pitch>
                    <step>C</step>
                    <octave>5</octave>
                </pitch>
                <duration>360</duration>
                <type>eighth</type>
                <dot/>
                <stem default-y="-50">down</stem>
                <beam number="1">begin</beam>
            </note>
            <note default-x="95" release="-7" dynamics="75">
                <pitch>
                    <step>E</step>
                    <alter>-1</alter>
                    <octave>5</octave>
                </pitch>
                <duration>120</duration>
                <type>16th</type>
                <stem default-y="-40">down</stem>
                <beam number="1">end</beam>
                <beam number="2">continue</beam>
            </note>
            <note default-x="115" release="-7" dynamics="75">
                <pitch>
                    <step>D</step>
                    <alter>-1</alter>
                    <octave>5</octave>
                </pitch>
                <duration>240</duration>
                <type>eighth</type>
                <stem default-y="-45">down</stem>
            </note>
            <note default-x="139" release="-7" dynamics="75">
                <pitch>
                    <step>C</step>
                    <octave>5</octave>
                </pitch>
                <duration>480</duration>
                <type>quarter</type>
                <stem default-y="-50">down</stem>
            </note>
            <note default-x="172" release="-7" dynamics="75">
                <pitch>
                    <step>B</step>
                    <alter>-1</alter>
                    <octave>4</octave>
                </pitch>
                <duration>240</duration>
                <type>eighth</type>
                <stem default-y="-55">down</stem>
            </note>
        </measure>
        <measure width="94" number="28">
            <attributes>
                <staff-details print-object="yes"/>
            </attributes>
            <note default-x="18" release="-1" dynamics="75">
                <pitch>
                    <step>A</step>
                    <alter>-1</alter>
                    <octave>4</octave>
                </pitch>
                <duration>1920</duration>
                <type>whole</type>
            </note>
        </measure>
        <measure width="217" number="29">
            <attributes>
                <staff-details print-object="yes"/>
            </attributes>
            <note default-x="18" release="-7" dynamics="75">
                <pitch>
                    <step>F</step>
                    <octave>5</octave>
                </pitch>
                <duration>360</duration>
                <type>eighth</type>
                <dot/>
                <stem default-y="-35">down</stem>
                <beam number="1">begin</beam>
            </note>
            <note default-x="47" release="-7" dynamics="75">
                <pitch>
                    <step>E</step>
                    <octave>5</octave>
                </pitch>
                <duration>120</duration>
                <type>16th</type>
                <accidental>natural</accidental>
                <stem default-y="-40">down</stem>
                <beam number="1">end</beam>
                <beam number="2">continue</beam>
            </note>
            <note default-x="67" release="-7" dynamics="75">
                <pitch>
                    <step>F</step>
                    <octave>5</octave>
                </pitch>
                <duration>360</duration>
                <type>eighth</type>
                <dot/>
                <stem default-y="-35">down</stem>
                <beam number="1">begin</beam>
            </note>
            <note default-x="95" release="-7" dynamics="75">
                <pitch>
                    <step>G</step>
                    <octave>5</octave>
                </pitch>
                <duration>120</duration>
                <type>16th</type>
                <stem default-y="-30">down</stem>
                <beam number="1">end</beam>
                <beam number="2">continue</beam>
            </note>
            <note default-x="115" release="-7" dynamics="75">
                <pitch>
                    <step>A</step>
                    <alter>-1</alter>
                    <octave>5</octave>
                </pitch>
                <duration>360</duration>
                <type>eighth</type>
                <dot/>
                <stem default-y="-25">down</stem>
                <beam number="1">begin</beam>
            </note>
            <note default-x="143" release="-7" dynamics="75">
                <pitch>
                    <step>G</step>
                    <octave>5</octave>
                </pitch>
                <duration>120</duration>
                <type>16th</type>
                <stem default-y="-30">down</stem>
                <beam number="1">end</beam>
                <beam number="2">continue</beam>
            </note>
            <note default-x="162" release="-7" dynamics="75">
                <pitch>
                    <step>F</step>
                    <octave>5</octave>
                </pitch>
                <duration>360</duration>
                <type>eighth</type>
                <dot/>
                <stem default-y="-35">down</stem>
                <beam number="1">begin</beam>
            </note>
            <note default-x="191" release="-7" dynamics="75">
                <pitch>
                    <step>E</step>
                    <octave>5</octave>
                </pitch>
                <duration>120</duration>
                <type>16th</type>
                <stem default-y="-40">down</stem>
                <beam number="1">end</beam>
                <beam number="2">continue</beam>
            </note>
        </measure>
        <measure width="217" number="30">
            <attributes>
                <staff-details print-object="yes"/>
            </attributes>
            <note default-x="18" release="-7" dynamics="75">
                <pitch>
                    <step>F</step>
                    <octave>5</octave>
                </pitch>
                <duration>360</duration>
                <type>eighth</type>
                <dot/>
                <stem default-y="-35">down</stem>
                <beam number="1">begin</beam>
            </note>
            <note default-x="47" release="-7" dynamics="75">
                <pitch>
                    <step>G</step>
                    <octave>5</octave>
                </pitch>
                <duration>120</duration>
                <type>16th</type>
                <stem default-y="-30">down</stem>
                <beam number="1">end</beam>
                <beam number="2">continue</beam>
            </note>
            <note default-x="67" release="-7" dynamics="75">
                <pitch>
                    <step>A</step>
                    <alter>-1</alter>
                    <octave>5</octave>
                </pitch>
                <duration>360</duration>
                <type>eighth</type>
                <dot/>
                <stem default-y="-25">down</stem>
                <beam number="1">begin</beam>
            </note>
            <note default-x="95" release="-7" dynamics="75">
                <pitch>
                    <step>G</step>
                    <octave>5</octave>
                </pitch>
                <duration>120</duration>
                <type>16th</type>
                <stem default-y="-30">down</stem>
                <beam number="1">end</beam>
                <beam number="2">continue</beam>
            </note>
            <note default-x="115" release="-7" dynamics="75">
                <pitch>
                    <step>F</step>
                    <octave>5</octave>
                </pitch>
                <duration>360</duration>
                <type>eighth</type>
                <dot/>
                <stem default-y="-35">down</stem>
                <beam number="1">begin</beam>
            </note>
            <note default-x="143" release="-7" dynamics="75">
                <pitch>
                    <step>E</step>
                    <octave>5</octave>
                </pitch>
                <duration>120</duration>
                <type>16th</type>
                <accidental>natural</accidental>
                <stem default-y="-40">down</stem>
                <beam number="1">end</beam>
                <beam number="2">continue</beam>
            </note>
            <note default-x="162" release="-7" dynamics="75">
                <pitch>
                    <step>F</step>
                    <octave>5</octave>
                </pitch>
                <duration>360</duration>
                <type>eighth</type>
                <dot/>
                <stem default-y="-35">down</stem>
                <beam number="1">begin</beam>
            </note>
            <note default-x="191" release="-7" dynamics="75">
                <pitch>
                    <step>G</step>
                    <octave>5</octave>
                </pitch>
                <duration>120</duration>
                <type>16th</type>
                <stem default-y="-30">down</stem>
                <beam number="1">end</beam>
                <beam number="2">continue</beam>
            </note>
        </measure>
        <measure width="302" number="31">
            <print new-system="yes">
                <system-layout>
                    <system-margins>
                        <left-margin>-6</left-margin>
                        <right-margin>0</right-margin>
                    </system-margins>
                    <system-distance>128</system-distance>
                </system-layout>
            </print>
            <attributes>
                <staff-details print-object="yes"/>
            </attributes>
            <note default-x="105" release="-7" dynamics="75">
                <pitch>
                    <step>A</step>
                    <alter>-1</alter>
                    <octave>5</octave>
                </pitch>
                <duration>360</duration>
                <type>eighth</type>
                <dot/>
                <stem default-y="-25">down</stem>
                <beam number="1">begin</beam>
            </note>
            <note default-x="135" release="-7" dynamics="75">
                <pitch>
                    <step>G</step>
                    <octave>5</octave>
                </pitch>
                <duration>120</duration>
                <type>16th</type>
                <stem default-y="-30">down</stem>
                <beam number="1">end</beam>
                <beam number="2">continue</beam>
            </note>
            <note default-x="156" release="-7" dynamics="75">
                <pitch>
                    <step>A</step>
                    <alter>-1</alter>
                    <octave>5</octave>
                </pitch>
                <duration>360</duration>
                <type>eighth</type>
                <dot/>
                <stem default-y="-25">down</stem>
                <beam number="1">begin</beam>
            </note>
            <note default-x="187" release="-7" dynamics="75">
                <pitch>
                    <step>B</step>
                    <alter>-1</alter>
                    <octave>5</octave>
                </pitch>
                <duration>120</duration>
                <type>16th</type>
                <stem default-y="-20">down</stem>
                <beam number="1">end</beam>
                <beam number="2">continue</beam>
            </note>
            <note default-x="208" release="-7" dynamics="75">
                <pitch>
                    <step>C</step>
                    <octave>6</octave>
                </pitch>
                <duration>240</duration>
                <type>eighth</type>
                <stem default-y="-20">down</stem>
            </note>
            <note default-x="234" release="-7" dynamics="75">
                <pitch>
                    <step>E</step>
                    <alter>-1</alter>
                    <octave>6</octave>
                </pitch>
                <duration>480</duration>
                <type>quarter</type>
                <stem default-y="-20">down</stem>
            </note>
            <note default-x="270" release="-7" dynamics="75">
                <pitch>
                    <step>C</step>
                    <octave>6</octave>
                </pitch>
                <duration>240</duration>
                <type>eighth</type>
                <stem default-y="-20">down</stem>
            </note>
        </measure>
        <measure width="185" number="32">
            <attributes>
                <staff-details print-object="yes"/>
            </attributes>
            <note default-x="19" release="-7" dynamics="75">
                <pitch>
                    <step>G</step>
                    <octave>5</octave>
                </pitch>
                <duration>240</duration>
                <type>eighth</type>
                <stem default-y="-30">down</stem>
                <beam number="1">begin</beam>
            </note>
            <note default-x="45" release="-7" dynamics="75">
                <pitch>
                    <step>G</step>
                    <octave>5</octave>
                </pitch>
                <duration>240</duration>
                <type>eighth</type>
                <stem default-y="-30">down</stem>
                <beam number="1">continue</beam>
            </note>
            <note default-x="71" release="-7" dynamics="75">
                <pitch>
                    <step>G</step>
                    <octave>5</octave>
                </pitch>
                <duration>480</duration>
                <type>quarter</type>
                <stem default-y="-30">down</stem>
            </note>
            <note default-x="107" release="-7" dynamics="75">
                <pitch>
                    <step>G</step>
                    <octave>5</octave>
                </pitch>
                <duration>480</duration>
                <type>quarter</type>
                <stem default-y="-30">down</stem>
            </note>
            <note default-x="143" release="-7" dynamics="75">
                <pitch>
                    <step>F</step>
                    <octave>5</octave>
                </pitch>
                <duration>480</duration>
                <type>quarter</type>
                <stem default-y="-35">down</stem>
            </note>
        </measure>
        <measure width="180" number="33">
            <attributes>
                <staff-details print-object="yes"/>
            </attributes>
            <note default-x="13">
                <rest/>
                <duration>480</duration>
                <type>quarter</type>
            </note>
            <note default-x="49" release="-7" dynamics="75">
                <pitch>
                    <step>C</step>
                    <octave>5</octave>
                </pitch>
                <duration>480</duration>
                <type>quarter</type>
                <stem default-y="-50">down</stem>
            </note>
            <note default-x="86">
                <rest/>
                <duration>240</duration>
                <type>eighth</type>
            </note>
            <note default-x="112" release="-7" dynamics="75">
                <pitch>
                    <step>C</step>
                    <octave>5</octave>
                </pitch>
                <duration>240</duration>
                <type>eighth</type>
                <stem default-y="-50">down</stem>
            </note>
            <note default-x="137" release="-7" dynamics="75">
                <pitch>
                    <step>B</step>
                    <alter>-1</alter>
                    <octave>4</octave>
                </pitch>
                <duration>480</duration>
                <type>quarter</type>
                <stem default-y="-50">down</stem>
            </note>
        </measure>
        <measure width="185" number="34">
            <attributes>
                <staff-details print-object="yes"/>
            </attributes>
            <note default-x="19" release="-7" dynamics="75">
                <pitch>
                    <step>F</step>
                    <octave>5</octave>
                </pitch>
                <duration>240</duration>
                <type>eighth</type>
                <stem default-y="-35">down</stem>
                <beam number="1">begin</beam>
            </note>
            <note default-x="45" release="-7" dynamics="75">
                <pitch>
                    <step>F</step>
                    <octave>5</octave>
                </pitch>
                <duration>240</duration>
                <type>eighth</type>
                <stem default-y="-35">down</stem>
                <beam number="1">continue</beam>
            </note>
            <note default-x="71" release="-7" dynamics="75">
                <pitch>
                    <step>F</step>
                    <octave>5</octave>
                </pitch>
                <duration>480</duration>
                <type>quarter</type>
                <stem default-y="-35">down</stem>
            </note>
            <note default-x="107" release="-7" dynamics="75">
                <pitch>
                    <step>F</step>
                    <octave>5</octave>
                </pitch>
                <duration>480</duration>
                <type>quarter</type>
                <stem default-y="-35">down</stem>
            </note>
            <note default-x="143" release="-7" dynamics="75">
                <pitch>
                    <step>E</step>
                    <alter>-1</alter>
                    <octave>5</octave>
                </pitch>
                <duration>480</duration>
                <type>quarter</type>
                <stem default-y="-40">down</stem>
            </note>
        </measure>
        <measure width="181" number="35">
            <attributes>
                <staff-details print-object="yes"/>
            </attributes>
            <note default-x="13">
                <rest/>
                <duration>480</duration>
                <type>quarter</type>
            </note>
            <note default-x="49" release="-7" dynamics="75">
                <pitch>
                    <step>A</step>
                    <alter>-1</alter>
                    <octave>5</octave>
                </pitch>
                <duration>240</duration>
                <type>eighth</type>
                <stem default-y="-25">down</stem>
            </note>
            <note default-x="75" release="-7" dynamics="75">
                <pitch>
                    <step>A</step>
                    <alter>-1</alter>
                    <octave>5</octave>
                </pitch>
                <duration>480</duration>
                <type>quarter</type>
                <stem default-y="-25">down</stem>
            </note>
            <note default-x="112" release="-7" dynamics="75">
                <pitch>
                    <step>A</step>
                    <alter>-1</alter>
                    <octave>5</octave>
                </pitch>
                <duration>240</duration>
                <type>eighth</type>
                <stem default-y="-25">down</stem>
            </note>
            <note default-x="137" release="-7" dynamics="75">
                <pitch>
                    <step>F</step>
                    <octave>5</octave>
                </pitch>
                <duration>480</duration>
                <type>quarter</type>
                <stem default-y="-35">down</stem>
            </note>
        </measure>
        <measure width="314" number="36">
            <print new-system="yes">
                <system-layout>
                    <system-margins>
                        <left-margin>-6</left-margin>
                        <right-margin>0</right-margin>
                    </system-margins>
                    <system-distance>120</system-distance>
                </system-layout>
            </print>
            <attributes>
                <staff-details print-object="yes"/>
            </attributes>
            <note default-x="108" release="-7" dynamics="75">
                <pitch>
                    <step>E</step>
                    <octave>5</octave>
                </pitch>
                <duration>160</duration>
                <type>eighth</type>
                <accidental>natural</accidental>
                <time-modification>
                    <actual-notes>3</actual-notes>
                    <normal-notes>2</normal-notes>
                </time-modification>
                <stem default-y="-40">down</stem>
                <beam number="1">begin</beam>
                <notations>
                    <tuplet placement="below" line-shape="straight" type="start" show-number="actual" number="1" bracket="yes"/>
                </notations>
            </note>
            <note default-x="135" release="-7" dynamics="75">
                <pitch>
                    <step>F</step>
                    <alter>1</alter>
                    <octave>5</octave>
                </pitch>
                <duration>160</duration>
                <type>eighth</type>
                <accidental>sharp</accidental>
                <time-modification>
                    <actual-notes>3</actual-notes>
                    <normal-notes>2</normal-notes>
                </time-modification>
                <stem default-y="-35">down</stem>
                <beam number="1">continue</beam>
            </note>
            <note default-x="163" release="-7" dynamics="75">
                <pitch>
                    <step>E</step>
                    <octave>5</octave>
                </pitch>
                <duration>160</duration>
                <type>eighth</type>
                <time-modification>
                    <actual-notes>3</actual-notes>
                    <normal-notes>2</normal-notes>
                </time-modification>
                <stem default-y="-40">down</stem>
                <beam number="1">continue</beam>
                <notations>
                    <tuplet type="stop" number="1"/>
                </notations>
            </note>
            <note default-x="190" release="-7" dynamics="75">
                <pitch>
                    <step>B</step>
                    <octave>4</octave>
                </pitch>
                <duration>240</duration>
                <type>eighth</type>
                <accidental>natural</accidental>
                <stem default-y="-55">down</stem>
                <beam number="1">begin</beam>
            </note>
            <note default-x="220" release="-7" dynamics="75">
                <pitch>
                    <step>B</step>
                    <octave>4</octave>
                </pitch>
                <duration>240</duration>
                <tie type="start"/>
                <type>eighth</type>
                <stem default-y="-55">down</stem>
                <beam number="1">continue</beam>
                <notations>
                    <tied orientation="over" type="start"/>
                </notations>
            </note>
            <note default-x="251">
                <pitch>
                    <step>B</step>
                    <octave>4</octave>
                </pitch>
                <duration>960</duration>
                <tie type="stop"/>
                <type>half</type>
                <stem default-y="-50">down</stem>
                <notations>
                    <tied type="stop"/>
                </notations>
            </note>
        </measure>
        <measure width="207" number="37">
            <attributes>
                <staff-details print-object="yes"/>
            </attributes>
            <note default-x="13">
                <rest/>
                <duration>480</duration>
                <type>quarter</type>
            </note>
            <note default-x="56" release="-7" dynamics="75">
                <pitch>
                    <step>E</step>
                    <alter>-1</alter>
                    <octave>5</octave>
                </pitch>
                <duration>480</duration>
                <tie type="start"/>
                <type>quarter</type>
                <stem default-y="-40">down</stem>
                <notations>
                    <tied orientation="over" type="start"/>
                </notations>
            </note>
            <note default-x="98">
                <pitch>
                    <step>E</step>
                    <alter>-1</alter>
                    <octave>5</octave>
                </pitch>
                <duration>240</duration>
                <tie type="stop"/>
                <type>eighth</type>
                <stem default-y="30">up</stem>
                <beam number="1">begin</beam>
                <notations>
                    <tied type="stop"/>
                </notations>
            </note>
            <note default-x="128" release="-7" dynamics="75">
                <pitch>
                    <step>E</step>
                    <alter>-1</alter>
                    <octave>4</octave>
                </pitch>
                <duration>240</duration>
                <type>eighth</type>
                <stem default-y="-5">up</stem>
                <beam number="1">continue</beam>
            </note>
            <note default-x="159" release="-7" dynamics="75">
                <pitch>
                    <step>F</step>
                    <octave>4</octave>
                </pitch>
                <duration>480</duration>
                <type>quarter</type>
                <stem default-y="0">up</stem>
            </note>
        </measure>
        <measure width="118" number="38">
            <attributes>
                <staff-details print-object="yes"/>
            </attributes>
            <barline location="right">
                <bar-style>light-heavy</bar-style>
            </barline>
            <note default-x="18" release="-7" dynamics="75">
                <pitch>
                    <step>A</step>
                    <alter>-1</alter>
                    <octave>4</octave>
                </pitch>
                <duration>1920</duration>
                <type>whole</type>
            </note>
        </measure>
    </part>
</score-partwise>
