<?xml version="1.0" encoding="UTF-8"?>
<!DOCTYPE score-partwise PUBLIC "-//Recordare//DTD MusicXML 2.0 Partwise//EN" "http://www.musicxml.org/dtds/partwise.dtd">
<score-partwise version="2.0">
    <work>
        <work-number></work-number>
        <work-title></work-title>
    </work>
    <movement-number></movement-number>
    <movement-title>Love Affair</movement-title>
    <identification>
        <creator type="composer">Ennio Morricone</creator>
        <creator type="poet"></creator>
        <rights>All Rights Reserved</rights>
        <encoding>
            <software>MuseScore 1.2</software>
            <encoding-date>2013-03-04</encoding-date>
            <software>ProxyMusic 2.0 c</software>
        </encoding>
        <source>http://wikifonia.org/node/21001/revisions/27759/view</source>
    </identification>
    <defaults>
        <scaling>
            <millimeters>7.056</millimeters>
            <tenths>40</tenths>
        </scaling>
        <page-layout>
            <page-height>1683.67</page-height>
            <page-width>1190.48</page-width>
            <page-margins type="even">
                <left-margin>56.6893</left-margin>
                <right-margin>56.6893</right-margin>
                <top-margin>56.6893</top-margin>
                <bottom-margin>113.379</bottom-margin>
            </page-margins>
            <page-margins type="odd">
                <left-margin>56.6893</left-margin>
                <right-margin>56.6893</right-margin>
                <top-margin>56.6893</top-margin>
                <bottom-margin>113.379</bottom-margin>
            </page-margins>
        </page-layout>
    </defaults>
    <credit page="1">
        <credit-words font-size="24" default-y="1626.98" default-x="595.238" justify="center" valign="top">Love Affair</credit-words>
    </credit>
    <part-list>
        <part-group type="start" number="1">
            <group-symbol>brace</group-symbol>
        </part-group>
        <score-part id="P1">
            <part-name>Piano</part-name>
            <part-abbreviation>Pno.</part-abbreviation>
            <score-instrument id="P1-I3">
                <instrument-name>Piano</instrument-name>
            </score-instrument>
            <midi-instrument id="P1-I3">
                <midi-channel>1</midi-channel>
                <midi-program>1</midi-program>
                <volume>78.7402</volume>
                <pan>0</pan>
            </midi-instrument>
        </score-part>
    </part-list>
    <part id="P1">
        <measure width="308.34" number="1">
            <print>
                <system-layout>
                    <system-margins>
                        <left-margin>87.10</left-margin>
                        <right-margin>0.00</right-margin>
                    </system-margins>
                    <top-system-distance>217.01</top-system-distance>
                </system-layout>
            </print>
            <attributes>
                <divisions>2</divisions>
                <key>
                    <fifths>-1</fifths>
                    <mode>major</mode>
                </key>
                <time>
                    <beats>4</beats>
                    <beat-type>4</beat-type>
                </time>
                <clef>
                    <sign>G</sign>
                    <line>2</line>
                </clef>
            </attributes>
            <harmony print-frame="no">
                <root>
                    <root-step>F</root-step>
                </root>
                <kind text="">major</kind>
            </harmony>
            <note default-y="-15.00" default-x="83.65">
                <pitch>
                    <step>C</step>
                    <octave>5</octave>
                </pitch>
                <duration>4</duration>
                <tie type="start"/>
                <voice>1</voice>
                <type>half</type>
                <stem>down</stem>
                <notations>
                    <tied type="start"/>
                </notations>
            </note>
            <note default-y="-15.00" default-x="168.27">
                <pitch>
                    <step>C</step>
                    <octave>5</octave>
                </pitch>
                <duration>1</duration>
                <tie type="stop"/>
                <voice>1</voice>
                <type>eighth</type>
                <stem>down</stem>
                <notations>
                    <tied type="stop"/>
                </notations>
            </note>
            <note default-y="0.00" default-x="206.74">
                <pitch>
                    <step>F</step>
                    <octave>5</octave>
                </pitch>
                <duration>2</duration>
                <voice>1</voice>
                <type>quarter</type>
                <stem>down</stem>
            </note>
            <note default-y="-5.00" default-x="268.28">
                <pitch>
                    <step>E</step>
                    <octave>5</octave>
                </pitch>
                <duration>1</duration>
                <voice>1</voice>
                <type>eighth</type>
                <stem>down</stem>
            </note>
        </measure>
        <measure width="236.69" number="2">
            <harmony print-frame="no">
                <root>
                    <root-step>B</root-step>
                    <root-alter>-1</root-alter>
                </root>
                <kind text="">major</kind>
                <bass>
                    <bass-step>F</bass-step>
                </bass>
            </harmony>
            <note default-y="-15.00" default-x="12.00">
                <pitch>
                    <step>C</step>
                    <octave>5</octave>
                </pitch>
                <duration>4</duration>
                <tie type="start"/>
                <voice>1</voice>
                <type>half</type>
                <stem>down</stem>
                <notations>
                    <tied type="start"/>
                </notations>
            </note>
            <note default-y="-15.00" default-x="96.62">
                <pitch>
                    <step>C</step>
                    <octave>5</octave>
                </pitch>
                <duration>1</duration>
                <tie type="stop"/>
                <voice>1</voice>
                <type>eighth</type>
                <stem>down</stem>
                <notations>
                    <tied type="stop"/>
                </notations>
            </note>
            <note default-y="5.00" default-x="135.09">
                <pitch>
                    <step>G</step>
                    <octave>5</octave>
                </pitch>
                <duration>2</duration>
                <voice>1</voice>
                <type>quarter</type>
                <stem>down</stem>
            </note>
            <note default-y="0.00" default-x="196.63">
                <pitch>
                    <step>F</step>
                    <octave>5</octave>
                </pitch>
                <duration>1</duration>
                <voice>1</voice>
                <type>eighth</type>
                <stem>down</stem>
            </note>
        </measure>
        <measure width="253.85" number="3">
            <note default-y="-20.00" default-x="12.00">
                <pitch>
                    <step>B</step>
                    <alter>-1</alter>
                    <octave>4</octave>
                </pitch>
                <duration>4</duration>
                <tie type="start"/>
                <voice>1</voice>
                <type>half</type>
                <stem>down</stem>
                <notations>
                    <tied type="start"/>
                </notations>
            </note>
            <note default-y="-20.00" default-x="97.25">
                <pitch>
                    <step>B</step>
                    <alter>-1</alter>
                    <octave>4</octave>
                </pitch>
                <duration>1</duration>
                <tie type="stop"/>
                <voice>1</voice>
                <type>eighth</type>
                <stem>down</stem>
                <beam number="1">begin</beam>
                <notations>
                    <tied type="stop"/>
                </notations>
            </note>
            <note default-y="-20.00" default-x="136.00">
                <pitch>
                    <step>B</step>
                    <alter>-1</alter>
                    <octave>4</octave>
                </pitch>
                <duration>1</duration>
                <voice>1</voice>
                <type>eighth</type>
                <stem>down</stem>
                <beam number="1">continue</beam>
            </note>
            <note default-y="0.00" default-x="174.75">
                <pitch>
                    <step>F</step>
                    <octave>5</octave>
                </pitch>
                <duration>1</duration>
                <voice>1</voice>
                <type>eighth</type>
                <stem>down</stem>
                <beam number="1">continue</beam>
            </note>
            <note default-y="-5.00" default-x="213.50">
                <pitch>
                    <step>E</step>
                    <octave>5</octave>
                </pitch>
                <duration>1</duration>
                <voice>1</voice>
                <type>eighth</type>
                <stem>down</stem>
                <beam number="1">end</beam>
            </note>
        </measure>
        <measure width="191.11" number="4">
            <harmony print-frame="no">
                <root>
                    <root-step>F</root-step>
                </root>
                <kind text="">major</kind>
            </harmony>
            <note default-y="-25.00" default-x="12.00">
                <pitch>
                    <step>A</step>
                    <octave>4</octave>
                </pitch>
                <duration>8</duration>
                <voice>1</voice>
                <type>whole</type>
            </note>
        </measure>
        <measure width="286.03" number="5">
            <print new-system="yes">
                <system-layout>
                    <system-margins>
                        <left-margin>75.53</left-margin>
                        <right-margin>0.00</right-margin>
                    </system-margins>
                    <system-distance>129.51</system-distance>
                </system-layout>
            </print>
            <harmony print-frame="no">
                <root>
                    <root-step>G</root-step>
                </root>
                <kind text="m7">minor-seventh</kind>
            </harmony>
            <note default-y="-15.00" default-x="62.35">
                <pitch>
                    <step>C</step>
                    <octave>5</octave>
                </pitch>
                <duration>4</duration>
                <tie type="start"/>
                <voice>1</voice>
                <type>half</type>
                <stem>down</stem>
                <notations>
                    <tied type="start"/>
                </notations>
            </note>
            <harmony print-frame="no">
                <root>
                    <root-step>F</root-step>
                </root>
                <kind text="">major</kind>
                <bass>
                    <bass-step>A</bass-step>
                </bass>
            </harmony>
            <note default-y="-15.00" default-x="146.59">
                <pitch>
                    <step>C</step>
                    <octave>5</octave>
                </pitch>
                <duration>1</duration>
                <tie type="stop"/>
                <voice>1</voice>
                <type>eighth</type>
                <stem>down</stem>
                <notations>
                    <tied type="stop"/>
                </notations>
            </note>
            <note default-y="0.00" default-x="184.88">
                <pitch>
                    <step>F</step>
                    <octave>5</octave>
                </pitch>
                <duration>2</duration>
                <voice>1</voice>
                <type>quarter</type>
                <stem>down</stem>
            </note>
            <note default-y="-5.00" default-x="246.14">
                <pitch>
                    <step>E</step>
                    <octave>5</octave>
                </pitch>
                <duration>1</duration>
                <voice>1</voice>
                <type>eighth</type>
                <stem>down</stem>
            </note>
        </measure>
        <measure width="235.68" number="6">
            <harmony print-frame="no">
                <root>
                    <root-step>B</root-step>
                    <root-alter>-1</root-alter>
                </root>
                <kind text="Maj7">major-seventh</kind>
            </harmony>
            <note default-y="-15.00" default-x="12.00">
                <pitch>
                    <step>C</step>
                    <octave>5</octave>
                </pitch>
                <duration>4</duration>
                <tie type="start"/>
                <voice>1</voice>
                <type>half</type>
                <stem>down</stem>
                <notations>
                    <tied type="start"/>
                </notations>
            </note>
            <harmony print-frame="no">
                <root>
                    <root-step>B</root-step>
                    <root-alter>-1</root-alter>
                </root>
                <kind text="Maj7">major-seventh</kind>
                <bass>
                    <bass-step>C</bass-step>
                </bass>
            </harmony>
            <note default-y="-15.00" default-x="96.24">
                <pitch>
                    <step>C</step>
                    <octave>5</octave>
                </pitch>
                <duration>1</duration>
                <tie type="stop"/>
                <voice>1</voice>
                <type>eighth</type>
                <stem>down</stem>
                <notations>
                    <tied type="stop"/>
                </notations>
            </note>
            <note default-y="10.00" default-x="134.53">
                <pitch>
                    <step>A</step>
                    <octave>5</octave>
                </pitch>
                <duration>2</duration>
                <voice>1</voice>
                <type>quarter</type>
                <stem>down</stem>
            </note>
            <note default-y="5.00" default-x="195.79">
                <pitch>
                    <step>G</step>
                    <octave>5</octave>
                </pitch>
                <duration>1</duration>
                <voice>1</voice>
                <type>eighth</type>
                <stem>down</stem>
            </note>
        </measure>
        <measure width="252.84" number="7">
            <harmony print-frame="no">
                <root>
                    <root-step>B</root-step>
                    <root-alter>-1</root-alter>
                </root>
                <kind text="">major</kind>
                <bass>
                    <bass-step>D</bass-step>
                </bass>
            </harmony>
            <note default-y="15.00" default-x="12.00">
                <pitch>
                    <step>B</step>
                    <alter>-1</alter>
                    <octave>5</octave>
                </pitch>
                <duration>4</duration>
                <tie type="start"/>
                <voice>1</voice>
                <type>half</type>
                <stem>down</stem>
                <notations>
                    <tied type="start"/>
                </notations>
            </note>
            <harmony print-frame="no">
                <root>
                    <root-step>B</root-step>
                    <root-alter>-1</root-alter>
                </root>
                <kind text="">major</kind>
                <bass>
                    <bass-step>D</bass-step>
                    <bass-alter>-1</bass-alter>
                </bass>
            </harmony>
            <note default-y="15.00" default-x="96.89">
                <pitch>
                    <step>B</step>
                    <alter>-1</alter>
                    <octave>5</octave>
                </pitch>
                <duration>1</duration>
                <tie type="stop"/>
                <voice>1</voice>
                <type>eighth</type>
                <stem>down</stem>
                <beam number="1">begin</beam>
                <notations>
                    <tied type="stop"/>
                </notations>
            </note>
            <note default-y="10.00" default-x="135.48">
                <pitch>
                    <step>A</step>
                    <octave>5</octave>
                </pitch>
                <duration>1</duration>
                <voice>1</voice>
                <type>eighth</type>
                <stem>down</stem>
                <beam number="1">continue</beam>
            </note>
            <note default-y="5.00" default-x="174.07">
                <pitch>
                    <step>G</step>
                    <octave>5</octave>
                </pitch>
                <duration>1</duration>
                <voice>1</voice>
                <type>eighth</type>
                <stem>down</stem>
                <beam number="1">continue</beam>
            </note>
            <note default-y="0.00" default-x="212.65">
                <pitch>
                    <step>F</step>
                    <octave>5</octave>
                </pitch>
                <duration>1</duration>
                <voice>1</voice>
                <type>eighth</type>
                <stem>down</stem>
                <beam number="1">end</beam>
            </note>
        </measure>
        <measure width="227.02" number="8">
            <harmony print-frame="no">
                <root>
                    <root-step>C</root-step>
                </root>
                <kind text="m7">minor-seventh</kind>
            </harmony>
            <harmony print-frame="no">
                <root>
                    <root-step>F</root-step>
                </root>
                <kind text="">major</kind>
                <offset>4</offset>
            </harmony>
            <note default-y="5.00" default-x="12.00">
                <pitch>
                    <step>G</step>
                    <octave>5</octave>
                </pitch>
                <duration>6</duration>
                <voice>1</voice>
                <type>half</type>
                <dot/>
                <stem>down</stem>
            </note>
            <note default-y="10.00" default-x="131.63">
                <pitch>
                    <step>A</step>
                    <octave>5</octave>
                </pitch>
                <duration>1</duration>
                <voice>1</voice>
                <type>eighth</type>
                <stem>down</stem>
                <beam number="1">begin</beam>
            </note>
            <note default-y="15.00" default-x="178.52">
                <pitch>
                    <step>B</step>
                    <alter>-1</alter>
                    <octave>5</octave>
                </pitch>
                <duration>1</duration>
                <voice>1</voice>
                <type>eighth</type>
                <stem>down</stem>
                <beam number="1">end</beam>
            </note>
        </measure>
        <measure width="299.71" number="9">
            <print new-system="yes">
                <system-layout>
                    <system-margins>
                        <left-margin>75.53</left-margin>
                        <right-margin>0.00</right-margin>
                    </system-margins>
                    <system-distance>129.51</system-distance>
                </system-layout>
            </print>
            <harmony print-frame="no">
                <root>
                    <root-step>B</root-step>
                    <root-alter>-1</root-alter>
                </root>
                <kind text="">major</kind>
            </harmony>
            <note default-y="20.00" default-x="62.35">
                <pitch>
                    <step>C</step>
                    <octave>6</octave>
                </pitch>
                <duration>2</duration>
                <voice>1</voice>
                <type>quarter</type>
                <stem>down</stem>
            </note>
            <note default-y="0.00" default-x="114.74">
                <pitch>
                    <step>F</step>
                    <octave>5</octave>
                </pitch>
                <duration>2</duration>
                <tie type="start"/>
                <voice>1</voice>
                <type>quarter</type>
                <stem>down</stem>
                <notations>
                    <tied type="start"/>
                </notations>
            </note>
            <note default-y="0.00" default-x="167.13">
                <pitch>
                    <step>F</step>
                    <octave>5</octave>
                </pitch>
                <duration>1</duration>
                <tie type="stop"/>
                <voice>1</voice>
                <type>eighth</type>
                <stem>down</stem>
                <beam number="1">begin</beam>
                <notations>
                    <tied type="stop"/>
                </notations>
            </note>
            <note default-y="-5.00" default-x="199.87">
                <pitch>
                    <step>E</step>
                    <octave>5</octave>
                </pitch>
                <duration>1</duration>
                <voice>1</voice>
                <type>eighth</type>
                <stem>down</stem>
                <beam number="1">continue</beam>
            </note>
            <note default-y="0.00" default-x="232.62">
                <pitch>
                    <step>F</step>
                    <octave>5</octave>
                </pitch>
                <duration>1</duration>
                <voice>1</voice>
                <type>eighth</type>
                <stem>down</stem>
                <beam number="1">continue</beam>
            </note>
            <note default-y="5.00" default-x="265.36">
                <pitch>
                    <step>G</step>
                    <octave>5</octave>
                </pitch>
                <duration>1</duration>
                <voice>1</voice>
                <type>eighth</type>
                <stem>down</stem>
                <beam number="1">end</beam>
            </note>
        </measure>
        <measure width="249.36" number="10">
            <harmony print-frame="no">
                <root>
                    <root-step>F</root-step>
                </root>
                <kind text="">major</kind>
                <bass>
                    <bass-step>A</bass-step>
                </bass>
            </harmony>
            <note default-y="20.00" default-x="12.00">
                <pitch>
                    <step>C</step>
                    <octave>6</octave>
                </pitch>
                <duration>2</duration>
                <voice>1</voice>
                <type>quarter</type>
                <stem>down</stem>
            </note>
            <note default-y="0.00" default-x="64.39">
                <pitch>
                    <step>F</step>
                    <octave>5</octave>
                </pitch>
                <duration>2</duration>
                <tie type="start"/>
                <voice>1</voice>
                <type>quarter</type>
                <stem>down</stem>
                <notations>
                    <tied type="start"/>
                </notations>
            </note>
            <note default-y="0.00" default-x="116.78">
                <pitch>
                    <step>F</step>
                    <octave>5</octave>
                </pitch>
                <duration>1</duration>
                <tie type="stop"/>
                <voice>1</voice>
                <type>eighth</type>
                <stem>down</stem>
                <beam number="1">begin</beam>
                <notations>
                    <tied type="stop"/>
                </notations>
            </note>
            <note default-y="-5.00" default-x="149.52">
                <pitch>
                    <step>E</step>
                    <octave>5</octave>
                </pitch>
                <duration>1</duration>
                <voice>1</voice>
                <type>eighth</type>
                <stem>down</stem>
                <beam number="1">continue</beam>
            </note>
            <note default-y="0.00" default-x="182.27">
                <pitch>
                    <step>F</step>
                    <octave>5</octave>
                </pitch>
                <duration>1</duration>
                <voice>1</voice>
                <type>eighth</type>
                <stem>down</stem>
                <beam number="1">continue</beam>
            </note>
            <note default-y="5.00" default-x="215.01">
                <pitch>
                    <step>G</step>
                    <octave>5</octave>
                </pitch>
                <duration>1</duration>
                <voice>1</voice>
                <type>eighth</type>
                <stem>down</stem>
                <beam number="1">end</beam>
            </note>
        </measure>
        <measure width="223.53" number="11">
            <harmony print-frame="no">
                <root>
                    <root-step>G</root-step>
                </root>
                <kind text="m7">minor-seventh</kind>
            </harmony>
            <note default-y="20.00" default-x="12.00">
                <pitch>
                    <step>C</step>
                    <octave>6</octave>
                </pitch>
                <duration>2</duration>
                <voice>1</voice>
                <type>quarter</type>
                <stem>down</stem>
            </note>
            <note default-y="15.00" default-x="66.61">
                <pitch>
                    <step>B</step>
                    <alter>-1</alter>
                    <octave>5</octave>
                </pitch>
                <duration>2</duration>
                <voice>1</voice>
                <type>quarter</type>
                <stem>down</stem>
            </note>
            <harmony print-frame="no">
                <root>
                    <root-step>C</root-step>
                </root>
                <kind text="7">dominant</kind>
            </harmony>
            <note default-y="10.00" default-x="121.22">
                <pitch>
                    <step>A</step>
                    <octave>5</octave>
                </pitch>
                <duration>3</duration>
                <voice>1</voice>
                <type>quarter</type>
                <dot/>
                <stem>down</stem>
            </note>
            <note default-y="5.00" default-x="187.80">
                <pitch>
                    <step>G</step>
                    <octave>5</octave>
                </pitch>
                <duration>1</duration>
                <voice>1</voice>
                <type>eighth</type>
                <stem>down</stem>
            </note>
        </measure>
        <measure width="228.97" number="12">
            <harmony print-frame="no">
                <root>
                    <root-step>E</root-step>
                    <root-alter>-1</root-alter>
                </root>
                <kind text="">major</kind>
            </harmony>
            <note default-y="15.00" default-x="12.00">
                <pitch>
                    <step>B</step>
                    <alter>-1</alter>
                    <octave>5</octave>
                </pitch>
                <duration>2</duration>
                <voice>1</voice>
                <type>quarter</type>
                <stem>down</stem>
            </note>
            <harmony print-frame="no">
                <root>
                    <root-step>D</root-step>
                </root>
                <kind text="7">dominant</kind>
                <offset>2</offset>
            </harmony>
            <note default-y="10.00" default-x="71.41">
                <pitch>
                    <step>A</step>
                    <octave>5</octave>
                </pitch>
                <duration>4</duration>
                <voice>1</voice>
                <type>half</type>
                <stem>down</stem>
            </note>
            <note default-y="0.00" default-x="153.10">
                <pitch>
                    <step>F</step>
                    <alter>1</alter>
                    <octave>5</octave>
                </pitch>
                <duration>1</duration>
                <voice>1</voice>
                <type>eighth</type>
                <accidental>sharp</accidental>
                <stem>down</stem>
                <beam number="1">begin</beam>
            </note>
            <note default-y="-10.00" default-x="190.24">
                <pitch>
                    <step>D</step>
                    <octave>5</octave>
                </pitch>
                <duration>1</duration>
                <voice>1</voice>
                <type>eighth</type>
                <stem>down</stem>
                <beam number="1">end</beam>
            </note>
        </measure>
        <measure width="378.62" number="13">
            <print new-system="yes">
                <system-layout>
                    <system-margins>
                        <left-margin>75.53</left-margin>
                        <right-margin>0.00</right-margin>
                    </system-margins>
                    <system-distance>129.51</system-distance>
                </system-layout>
            </print>
            <harmony print-frame="no">
                <root>
                    <root-step>B</root-step>
                    <root-alter>-1</root-alter>
                </root>
                <kind text="">major</kind>
            </harmony>
            <note default-y="10.00" default-x="62.35">
                <pitch>
                    <step>A</step>
                    <octave>5</octave>
                </pitch>
                <duration>2</duration>
                <voice>1</voice>
                <type>quarter</type>
                <stem>down</stem>
            </note>
            <note default-y="5.00" default-x="144.20">
                <pitch>
                    <step>G</step>
                    <octave>5</octave>
                </pitch>
                <duration>2</duration>
                <voice>1</voice>
                <type>quarter</type>
                <stem>down</stem>
            </note>
            <harmony print-frame="no">
                <root>
                    <root-step>B</root-step>
                    <root-alter>-1</root-alter>
                </root>
                <kind text="m">minor</kind>
            </harmony>
            <note default-y="0.00" default-x="226.05">
                <pitch>
                    <step>F</step>
                    <octave>5</octave>
                </pitch>
                <duration>3</duration>
                <voice>1</voice>
                <type>quarter</type>
                <dot/>
                <stem>down</stem>
            </note>
            <note default-y="-5.00" default-x="325.86">
                <pitch>
                    <step>E</step>
                    <octave>5</octave>
                </pitch>
                <duration>1</duration>
                <voice>1</voice>
                <type>eighth</type>
                <stem>down</stem>
            </note>
        </measure>
        <measure width="328.27" number="14">
            <harmony print-frame="no">
                <root>
                    <root-step>F</root-step>
                </root>
                <kind text="">major</kind>
                <bass>
                    <bass-step>A</bass-step>
                </bass>
            </harmony>
            <note default-y="5.00" default-x="12.00">
                <pitch>
                    <step>G</step>
                    <octave>5</octave>
                </pitch>
                <duration>2</duration>
                <voice>1</voice>
                <type>quarter</type>
                <stem>down</stem>
            </note>
            <note default-y="0.00" default-x="93.85">
                <pitch>
                    <step>F</step>
                    <octave>5</octave>
                </pitch>
                <duration>2</duration>
                <voice>1</voice>
                <type>quarter</type>
                <stem>down</stem>
            </note>
            <harmony print-frame="no">
                <root>
                    <root-step>A</root-step>
                    <root-alter>-1</root-alter>
                </root>
                <kind text="dim">diminished</kind>
            </harmony>
            <note default-y="-5.00" default-x="175.70">
                <pitch>
                    <step>E</step>
                    <octave>5</octave>
                </pitch>
                <duration>3</duration>
                <voice>1</voice>
                <type>quarter</type>
                <dot/>
                <stem>down</stem>
            </note>
            <note default-y="-10.00" default-x="275.51">
                <pitch>
                    <step>D</step>
                    <octave>5</octave>
                </pitch>
                <duration>1</duration>
                <voice>1</voice>
                <type>eighth</type>
                <stem>down</stem>
            </note>
        </measure>
        <measure width="294.68" number="15">
            <harmony print-frame="no">
                <root>
                    <root-step>G</root-step>
                </root>
                <kind text="m7">minor-seventh</kind>
            </harmony>
            <note default-y="-15.00" default-x="12.00">
                <pitch>
                    <step>C</step>
                    <octave>5</octave>
                </pitch>
                <duration>2</duration>
                <voice>1</voice>
                <type>quarter</type>
                <stem>down</stem>
            </note>
            <note default-y="-20.00" default-x="107.25">
                <pitch>
                    <step>B</step>
                    <alter>-1</alter>
                    <octave>4</octave>
                </pitch>
                <duration>6</duration>
                <voice>1</voice>
                <type>half</type>
                <dot/>
                <stem>down</stem>
            </note>
        </measure>
        <measure width="356.61" number="16">
            <print new-system="yes">
                <system-layout>
                    <system-margins>
                        <left-margin>75.53</left-margin>
                        <right-margin>-0.00</right-margin>
                    </system-margins>
                    <system-distance>129.51</system-distance>
                </system-layout>
            </print>
            <harmony print-frame="no">
                <root>
                    <root-step>F</root-step>
                </root>
                <kind text="">major</kind>
                <bass>
                    <bass-step>C</bass-step>
                </bass>
            </harmony>
            <note>
                <rest/>
                <duration>2</duration>
                <voice>1</voice>
                <type>quarter</type>
            </note>
            <note default-y="-25.00" default-x="142.37">
                <pitch>
                    <step>A</step>
                    <octave>4</octave>
                </pitch>
                <duration>4</duration>
                <voice>1</voice>
                <type>half</type>
                <stem>up</stem>
            </note>
            <harmony print-frame="no">
                <root>
                    <root-step>B</root-step>
                    <root-alter>-1</root-alter>
                </root>
                <kind text="">major</kind>
                <bass>
                    <bass-step>C</bass-step>
                </bass>
            </harmony>
            <note default-y="-20.00" default-x="270.39">
                <pitch>
                    <step>B</step>
                    <alter>-1</alter>
                    <octave>4</octave>
                </pitch>
                <duration>2</duration>
                <voice>1</voice>
                <type>quarter</type>
                <stem>down</stem>
            </note>
            <barline location="right">
                <bar-style>light-light</bar-style>
            </barline>
        </measure>
        <measure width="322.48" number="17">
            <harmony print-frame="no">
                <root>
                    <root-step>F</root-step>
                </root>
                <kind text="">major</kind>
            </harmony>
            <note default-y="-15.00" default-x="12.00">
                <pitch>
                    <step>C</step>
                    <octave>5</octave>
                </pitch>
                <duration>4</duration>
                <tie type="start"/>
                <voice>1</voice>
                <type>half</type>
                <stem>down</stem>
                <notations>
                    <tied type="start"/>
                </notations>
            </note>
            <note default-y="-15.00" default-x="129.16">
                <pitch>
                    <step>C</step>
                    <octave>5</octave>
                </pitch>
                <duration>1</duration>
                <tie type="stop"/>
                <voice>1</voice>
                <type>eighth</type>
                <stem>down</stem>
                <notations>
                    <tied type="stop"/>
                </notations>
            </note>
            <note default-y="0.00" default-x="182.42">
                <pitch>
                    <step>F</step>
                    <octave>5</octave>
                </pitch>
                <duration>2</duration>
                <voice>1</voice>
                <type>quarter</type>
                <stem>down</stem>
            </note>
            <note default-y="-5.00" default-x="267.62">
                <pitch>
                    <step>E</step>
                    <octave>5</octave>
                </pitch>
                <duration>1</duration>
                <voice>1</voice>
                <type>eighth</type>
                <stem>down</stem>
            </note>
        </measure>
        <measure width="322.48" number="18">
            <harmony print-frame="no">
                <root>
                    <root-step>B</root-step>
                    <root-alter>-1</root-alter>
                </root>
                <kind text="">major</kind>
                <bass>
                    <bass-step>F</bass-step>
                </bass>
            </harmony>
            <note default-y="-15.00" default-x="12.00">
                <pitch>
                    <step>C</step>
                    <octave>5</octave>
                </pitch>
                <duration>4</duration>
                <tie type="start"/>
                <voice>1</voice>
                <type>half</type>
                <stem>down</stem>
                <notations>
                    <tied type="start"/>
                </notations>
            </note>
            <note default-y="-15.00" default-x="129.16">
                <pitch>
                    <step>C</step>
                    <octave>5</octave>
                </pitch>
                <duration>1</duration>
                <tie type="stop"/>
                <voice>1</voice>
                <type>eighth</type>
                <stem>down</stem>
                <notations>
                    <tied type="stop"/>
                </notations>
            </note>
            <note default-y="5.00" default-x="182.42">
                <pitch>
                    <step>G</step>
                    <octave>5</octave>
                </pitch>
                <duration>2</duration>
                <voice>1</voice>
                <type>quarter</type>
                <stem>down</stem>
            </note>
            <note default-y="0.00" default-x="267.62">
                <pitch>
                    <step>F</step>
                    <octave>5</octave>
                </pitch>
                <duration>1</duration>
                <voice>1</voice>
                <type>eighth</type>
                <stem>down</stem>
            </note>
        </measure>
        <measure width="394.06" number="19">
            <print new-system="yes">
                <system-layout>
                    <system-margins>
                        <left-margin>75.53</left-margin>
                        <right-margin>0.00</right-margin>
                    </system-margins>
                    <system-distance>129.51</system-distance>
                </system-layout>
            </print>
            <note default-y="-20.00" default-x="62.35">
                <pitch>
                    <step>B</step>
                    <alter>-1</alter>
                    <octave>4</octave>
                </pitch>
                <duration>4</duration>
                <tie type="start"/>
                <voice>1</voice>
                <type>half</type>
                <stem>down</stem>
                <notations>
                    <tied type="start"/>
                </notations>
            </note>
            <note default-y="-20.00" default-x="179.49">
                <pitch>
                    <step>B</step>
                    <alter>-1</alter>
                    <octave>4</octave>
                </pitch>
                <duration>1</duration>
                <tie type="stop"/>
                <voice>1</voice>
                <type>eighth</type>
                <stem>down</stem>
                <beam number="1">begin</beam>
                <notations>
                    <tied type="stop"/>
                </notations>
            </note>
            <note default-y="-20.00" default-x="232.73">
                <pitch>
                    <step>B</step>
                    <alter>-1</alter>
                    <octave>4</octave>
                </pitch>
                <duration>1</duration>
                <voice>1</voice>
                <type>eighth</type>
                <stem>down</stem>
                <beam number="1">continue</beam>
            </note>
            <note default-y="0.00" default-x="285.97">
                <pitch>
                    <step>F</step>
                    <octave>5</octave>
                </pitch>
                <duration>1</duration>
                <voice>1</voice>
                <type>eighth</type>
                <stem>down</stem>
                <beam number="1">continue</beam>
            </note>
            <note default-y="-5.00" default-x="339.21">
                <pitch>
                    <step>E</step>
                    <octave>5</octave>
                </pitch>
                <duration>1</duration>
                <voice>1</voice>
                <type>eighth</type>
                <stem>down</stem>
                <beam number="1">end</beam>
            </note>
        </measure>
        <measure width="280.96" number="20">
            <harmony print-frame="no">
                <root>
                    <root-step>F</root-step>
                </root>
                <kind text="">major</kind>
            </harmony>
            <note default-y="-25.00" default-x="12.00">
                <pitch>
                    <step>A</step>
                    <octave>4</octave>
                </pitch>
                <duration>8</duration>
                <voice>1</voice>
                <type>whole</type>
            </note>
        </measure>
        <measure width="326.55" number="21">
            <harmony print-frame="no">
                <root>
                    <root-step>G</root-step>
                </root>
                <kind text="m7">minor-seventh</kind>
            </harmony>
            <note default-y="-15.00" default-x="12.00">
                <pitch>
                    <step>C</step>
                    <octave>5</octave>
                </pitch>
                <duration>4</duration>
                <tie type="start"/>
                <voice>1</voice>
                <type>half</type>
                <stem>down</stem>
                <notations>
                    <tied type="start"/>
                </notations>
            </note>
            <note default-y="-15.00" default-x="130.70">
                <pitch>
                    <step>C</step>
                    <octave>5</octave>
                </pitch>
                <duration>1</duration>
                <tie type="stop"/>
                <voice>1</voice>
                <type>eighth</type>
                <stem>down</stem>
                <notations>
                    <tied type="stop"/>
                </notations>
            </note>
            <harmony print-frame="no">
                <root>
                    <root-step>F</root-step>
                </root>
                <kind text="">major</kind>
                <bass>
                    <bass-step>A</bass-step>
                </bass>
            </harmony>
            <note default-y="0.00" default-x="184.66">
                <pitch>
                    <step>F</step>
                    <octave>5</octave>
                </pitch>
                <duration>2</duration>
                <voice>1</voice>
                <type>quarter</type>
                <stem>down</stem>
            </note>
            <note default-y="-5.00" default-x="270.99">
                <pitch>
                    <step>E</step>
                    <octave>5</octave>
                </pitch>
                <duration>1</duration>
                <voice>1</voice>
                <type>eighth</type>
                <stem>down</stem>
            </note>
        </measure>
        <measure width="382.86" number="22">
            <print new-system="yes">
                <system-layout>
                    <system-margins>
                        <left-margin>75.53</left-margin>
                        <right-margin>0.00</right-margin>
                    </system-margins>
                    <system-distance>129.51</system-distance>
                </system-layout>
            </print>
            <harmony print-frame="no">
                <root>
                    <root-step>B</root-step>
                    <root-alter>-1</root-alter>
                </root>
                <kind text="Maj7">major-seventh</kind>
            </harmony>
            <note default-y="-15.00" default-x="62.35">
                <pitch>
                    <step>C</step>
                    <octave>5</octave>
                </pitch>
                <duration>4</duration>
                <voice>1</voice>
                <type>half</type>
                <stem>down</stem>
            </note>
            <harmony print-frame="no">
                <root>
                    <root-step>C</root-step>
                </root>
                <kind text="7">dominant</kind>
            </harmony>
            <note default-y="-15.00" default-x="183.32">
                <pitch>
                    <step>C</step>
                    <octave>5</octave>
                </pitch>
                <duration>1</duration>
                <voice>1</voice>
                <type>eighth</type>
                <stem>down</stem>
            </note>
            <note default-y="10.00" default-x="238.30">
                <pitch>
                    <step>A</step>
                    <octave>5</octave>
                </pitch>
                <duration>2</duration>
                <voice>1</voice>
                <type>quarter</type>
                <stem>down</stem>
            </note>
            <note default-y="5.00" default-x="326.28">
                <pitch>
                    <step>G</step>
                    <octave>5</octave>
                </pitch>
                <duration>1</duration>
                <voice>1</voice>
                <type>eighth</type>
                <stem>down</stem>
            </note>
        </measure>
        <measure width="331.77" number="23">
            <harmony print-frame="no">
                <root>
                    <root-step>B</root-step>
                    <root-alter>-1</root-alter>
                </root>
                <kind text="6">major-sixth</kind>
            </harmony>
            <note default-y="15.00" default-x="12.00">
                <pitch>
                    <step>B</step>
                    <alter>-1</alter>
                    <octave>5</octave>
                </pitch>
                <duration>2</duration>
                <voice>1</voice>
                <type>quarter</type>
                <stem>down</stem>
            </note>
            <note default-y="10.00" default-x="91.54">
                <pitch>
                    <step>A</step>
                    <octave>5</octave>
                </pitch>
                <duration>2</duration>
                <voice>1</voice>
                <type>quarter</type>
                <stem>down</stem>
            </note>
            <harmony print-frame="no">
                <root>
                    <root-step>F</root-step>
                </root>
                <kind text="dim">diminished</kind>
            </harmony>
            <note default-y="0.00" default-x="171.09">
                <pitch>
                    <step>F</step>
                    <octave>5</octave>
                </pitch>
                <duration>2</duration>
                <voice>1</voice>
                <type>quarter</type>
                <stem>down</stem>
            </note>
            <note default-y="-10.00" default-x="250.63">
                <pitch>
                    <step>D</step>
                    <octave>5</octave>
                </pitch>
                <duration>2</duration>
                <voice>1</voice>
                <type>quarter</type>
                <stem>down</stem>
            </note>
        </measure>
        <measure width="286.93" number="24">
            <harmony print-frame="no">
                <root>
                    <root-step>A</root-step>
                </root>
                <kind text="m">minor</kind>
            </harmony>
            <harmony print-frame="no">
                <root>
                    <root-step>A</root-step>
                </root>
                <kind text="m7">minor-seventh</kind>
                <offset>4</offset>
            </harmony>
            <note default-y="-15.00" default-x="12.00">
                <pitch>
                    <step>C</step>
                    <octave>5</octave>
                </pitch>
                <duration>8</duration>
                <tie type="start"/>
                <voice>1</voice>
                <type>whole</type>
                <notations>
                    <tied type="start"/>
                </notations>
            </note>
        </measure>
        <measure width="280.46" number="25">
            <print new-system="yes">
                <system-layout>
                    <system-margins>
                        <left-margin>75.53</left-margin>
                        <right-margin>0.00</right-margin>
                    </system-margins>
                    <system-distance>129.51</system-distance>
                </system-layout>
            </print>
            <harmony print-frame="no">
                <root>
                    <root-step>G</root-step>
                </root>
                <kind text="m7">minor-seventh</kind>
            </harmony>
            <harmony print-frame="no">
                <root>
                    <root-step>C</root-step>
                </root>
                <kind text="7">dominant</kind>
                <offset>4</offset>
            </harmony>
            <note default-y="-15.00" default-x="62.35">
                <pitch>
                    <step>C</step>
                    <octave>5</octave>
                </pitch>
                <duration>8</duration>
                <tie type="stop"/>
                <tie type="start"/>
                <voice>1</voice>
                <type>whole</type>
                <notations>
                    <tied type="stop"/>
                    <tied type="start"/>
                </notations>
            </note>
        </measure>
        <measure width="230.11" number="26">
            <harmony print-frame="no">
                <root>
                    <root-step>F</root-step>
                </root>
                <kind text="add2">major</kind>
                <degree>
                    <degree-value>9</degree-value>
                    <degree-alter>0</degree-alter>
                    <degree-type>add</degree-type>
                </degree>
            </harmony>
            <note default-y="-15.00" default-x="12.00">
                <pitch>
                    <step>C</step>
                    <octave>5</octave>
                </pitch>
                <duration>8</duration>
                <tie type="stop"/>
                <voice>1</voice>
                <type>whole</type>
                <notations>
                    <tied type="stop"/>
                </notations>
            </note>
        </measure>
        <measure width="254.87" number="27">
            <note>
                <rest/>
                <duration>2</duration>
                <voice>1</voice>
                <type>quarter</type>
            </note>
            <note default-y="10.00" default-x="79.02">
                <pitch>
                    <step>A</step>
                    <octave>5</octave>
                </pitch>
                <duration>4</duration>
                <voice>1</voice>
                <type>half</type>
                <stem>down</stem>
            </note>
            <note default-y="10.00" default-x="186.25">
                <pitch>
                    <step>A</step>
                    <octave>5</octave>
                </pitch>
                <duration>2</duration>
                <voice>1</voice>
                <type>quarter</type>
                <stem>down</stem>
            </note>
        </measure>
        <measure width="236.11" number="28">
            <note default-y="10.00" default-x="12.00">
                <pitch>
                    <step>A</step>
                    <octave>5</octave>
                </pitch>
                <duration>8</duration>
                <voice>1</voice>
                <type>whole</type>
            </note>
            <barline location="right">
                <bar-style>light-heavy</bar-style>
            </barline>
        </measure>
    </part>
</score-partwise>
