<?xml version="1.0" encoding="UTF-8"?>
<!DOCTYPE score-partwise PUBLIC "-//Recordare//DTD MusicXML 2.0 Partwise//EN" "http://www.musicxml.org/dtds/partwise.dtd">
<score-partwise version="2.0">
    <work>
        <work-number></work-number>
        <work-title></work-title>
    </work>
    <movement-number></movement-number>
    <movement-title>Nothing's Gonna Change My Love For You</movement-title>
    <identification>
        <creator type="composer">Gerry Goffin</creator>
        <creator type="poet">Michael Masser</creator>
        <rights>Public Domain</rights>
        <encoding>
            <encoding-date>2012-10-30</encoding-date>
            <encoder>Max</encoder>
            <software>Sibelius 7.1.3</software>
            <software>Direct export, not from Dolet</software>
            <encoding-description>Sibelius / MusicXML 3.0</encoding-description>
            <supports value="yes" type="yes" element="print" attribute="new-system"/>
            <supports value="yes" type="yes" element="print" attribute="new-page"/>
            <supports type="yes" element="accidental"/>
            <supports type="yes" element="beam"/>
            <supports type="yes" element="stem"/>
            <software>ProxyMusic 2.0 c</software>
        </encoding>
        <source>http://wikifonia.org/node/15380/revisions/26779/view</source>
    </identification>
    <defaults>
        <scaling>
            <millimeters>210</millimeters>
            <tenths>1190</tenths>
        </scaling>
        <page-layout>
            <page-height>1683</page-height>
            <page-width>1190</page-width>
            <page-margins type="both">
                <left-margin>56</left-margin>
                <right-margin>56</right-margin>
                <top-margin>56</top-margin>
                <bottom-margin>113</bottom-margin>
            </page-margins>
        </page-layout>
        <system-layout>
            <system-margins>
                <left-margin>21</left-margin>
                <right-margin>0</right-margin>
            </system-margins>
            <system-distance>92</system-distance>
        </system-layout>
        <appearance>
            <line-width type="stem">0.9375</line-width>
            <line-width type="beam">5</line-width>
            <line-width type="staff">0.9375</line-width>
            <line-width type="light barline">1.5625</line-width>
            <line-width type="heavy barline">5</line-width>
            <line-width type="leger">1.5625</line-width>
            <line-width type="ending">1.5625</line-width>
            <line-width type="wedge">1.25</line-width>
            <line-width type="enclosure">0.9375</line-width>
            <line-width type="tuplet bracket">1.25</line-width>
            <line-width type="bracket">5</line-width>
            <line-width type="dashes">1.5625</line-width>
            <line-width type="extend">0.9375</line-width>
            <line-width type="octave shift">1.5625</line-width>
            <line-width type="pedal">1.5625</line-width>
            <line-width type="slur middle">1.5625</line-width>
            <line-width type="slur tip">0.625</line-width>
            <line-width type="tie middle">1.5625</line-width>
            <line-width type="tie tip">0.625</line-width>
            <note-size type="cue">75</note-size>
            <note-size type="grace">60</note-size>
        </appearance>
        <music-font font-size="20.0013" font-family="Opus Std"/>
        <lyric-font font-size="11.5632" font-family="Plantin MT Std"/>
        <lyric-language/>
    </defaults>
    <credit page="1">
        <credit-words font-weight="normal" font-style="normal" font-size="22.1889" font-family="Plantin MT Std" default-y="195" default-x="595" justify="center" valign="middle">Nothings's Gonna Change My Love For You</credit-words>
    </credit>
    <credit page="1">
        <credit-words font-weight="normal" font-style="normal" font-size="11.0944" font-family="Plantin MT Std" default-y="114" default-x="1134" justify="right" valign="middle">Gerry Goffin</credit-words>
    </credit>
    <credit page="1">
        <credit-words font-weight="normal" font-style="normal" font-size="11.0944" font-family="Plantin MT Std" default-y="119" default-x="56" justify="left" valign="middle">Michael Masser</credit-words>
    </credit>
    <credit page="1">
        <credit-words font-weight="normal" font-style="normal" font-size="10.1569" font-family="Plantin MT Std" default-y="113" default-x="595" justify="center" valign="middle">Public Domain</credit-words>
    </credit>
    <part-list>
        <score-part id="P1">
            <part-name>Voice</part-name>
            <part-name-display>
                <display-text>Voice</display-text>
            </part-name-display>
            <score-instrument id="P1-I1">
                <instrument-name>Voice (2)</instrument-name>
            </score-instrument>
        </score-part>
    </part-list>
    <part id="P1">
        <measure width="183" number="1">
            <print new-page="yes">
                <system-layout>
                    <system-margins>
                        <left-margin>78</left-margin>
                        <right-margin>0</right-margin>
                    </system-margins>
                    <top-system-distance>250</top-system-distance>
                </system-layout>
            </print>
            <attributes>
                <divisions>256</divisions>
                <key color="#000000">
                    <fifths>0</fifths>
                    <mode>major</mode>
                </key>
                <time color="#000000">
                    <beats>4</beats>
                    <beat-type>4</beat-type>
                </time>
                <staves>1</staves>
                <clef color="#000000" number="1">
                    <sign>G</sign>
                    <line>2</line>
                </clef>
                <staff-details print-object="yes" number="1"/>
            </attributes>
            <note default-x="76">
                <rest/>
                <duration>128</duration>
                <instrument id="P1-I1"/>
                <voice>1</voice>
                <type>eighth</type>
                <staff>1</staff>
            </note>
            <note default-x="118" color="#000000">
                <pitch>
                    <step>E</step>
                    <octave>4</octave>
                </pitch>
                <duration>64</duration>
                <instrument id="P1-I1"/>
                <voice>1</voice>
                <type>16th</type>
                <stem>up</stem>
                <staff>1</staff>
                <beam number="1">begin</beam>
                <beam number="2">begin</beam>
            </note>
            <note default-x="150" color="#000000">
                <pitch>
                    <step>F</step>
                    <octave>4</octave>
                </pitch>
                <duration>64</duration>
                <instrument id="P1-I1"/>
                <voice>1</voice>
                <type>16th</type>
                <stem>up</stem>
                <staff>1</staff>
                <beam number="1">end</beam>
                <beam number="2">end</beam>
            </note>
        </measure>
        <measure width="419" number="2">
            <harmony default-y="25" color="#000000">
                <root>
                    <root-step>C</root-step>
                </root>
                <kind>major</kind>
                <staff>1</staff>
            </harmony>
            <note default-y="2" default-x="15" color="#000000">
                <pitch>
                    <step>G</step>
                    <octave>4</octave>
                </pitch>
                <duration>128</duration>
                <instrument id="P1-I1"/>
                <voice>1</voice>
                <type>eighth</type>
                <stem>up</stem>
                <staff>1</staff>
                <beam number="1">begin</beam>
            </note>
            <note default-y="2" default-x="56" color="#000000">
                <pitch>
                    <step>E</step>
                    <octave>4</octave>
                </pitch>
                <duration>64</duration>
                <instrument id="P1-I1"/>
                <voice>1</voice>
                <type>16th</type>
                <stem>up</stem>
                <staff>1</staff>
                <beam number="1">continue</beam>
                <beam number="2">begin</beam>
            </note>
            <note default-y="2" default-x="89" color="#000000">
                <pitch>
                    <step>G</step>
                    <octave>4</octave>
                </pitch>
                <duration>64</duration>
                <tie type="start"/>
                <instrument id="P1-I1"/>
                <voice>1</voice>
                <type>16th</type>
                <stem>up</stem>
                <staff>1</staff>
                <beam number="1">continue</beam>
                <beam number="2">end</beam>
                <notations>
                    <tied type="start"/>
                </notations>
            </note>
            <note default-y="2" default-x="121" color="#000000">
                <pitch>
                    <step>G</step>
                    <octave>4</octave>
                </pitch>
                <duration>128</duration>
                <tie type="stop"/>
                <instrument id="P1-I1"/>
                <voice>1</voice>
                <type>eighth</type>
                <stem>up</stem>
                <staff>1</staff>
                <beam number="1">continue</beam>
                <notations>
                    <tied type="stop"/>
                </notations>
            </note>
            <note default-y="2" default-x="163" color="#000000">
                <pitch>
                    <step>E</step>
                    <octave>4</octave>
                </pitch>
                <duration>64</duration>
                <instrument id="P1-I1"/>
                <voice>1</voice>
                <type>16th</type>
                <stem>up</stem>
                <staff>1</staff>
                <beam number="1">continue</beam>
                <beam number="2">begin</beam>
            </note>
            <note default-y="2" default-x="195" color="#000000">
                <pitch>
                    <step>G</step>
                    <octave>4</octave>
                </pitch>
                <duration>64</duration>
                <tie type="start"/>
                <instrument id="P1-I1"/>
                <voice>1</voice>
                <type>16th</type>
                <stem>up</stem>
                <staff>1</staff>
                <beam number="1">end</beam>
                <beam number="2">end</beam>
                <notations>
                    <tied type="start"/>
                </notations>
            </note>
            <harmony default-y="25" color="#000000">
                <root>
                    <root-step>G</root-step>
                </root>
                <kind>major</kind>
                <bass>
                    <bass-step>B</bass-step>
                </bass>
                <staff>1</staff>
            </harmony>
            <note default-y="17" default-x="228" color="#000000">
                <pitch>
                    <step>G</step>
                    <octave>4</octave>
                </pitch>
                <duration>128</duration>
                <tie type="stop"/>
                <instrument id="P1-I1"/>
                <voice>1</voice>
                <type>eighth</type>
                <stem>up</stem>
                <staff>1</staff>
                <beam number="1">begin</beam>
                <notations>
                    <tied type="stop"/>
                </notations>
            </note>
            <note default-y="17" default-x="270" color="#000000">
                <pitch>
                    <step>E</step>
                    <octave>4</octave>
                </pitch>
                <duration>64</duration>
                <instrument id="P1-I1"/>
                <voice>1</voice>
                <type>16th</type>
                <stem>up</stem>
                <staff>1</staff>
                <beam number="1">continue</beam>
                <beam number="2">begin</beam>
            </note>
            <note default-y="17" default-x="302" color="#000000">
                <pitch>
                    <step>G</step>
                    <octave>4</octave>
                </pitch>
                <duration>64</duration>
                <tie type="start"/>
                <instrument id="P1-I1"/>
                <voice>1</voice>
                <type>16th</type>
                <stem>up</stem>
                <staff>1</staff>
                <beam number="1">continue</beam>
                <beam number="2">end</beam>
                <notations>
                    <tied type="start"/>
                </notations>
            </note>
            <note default-y="17" default-x="335" color="#000000">
                <pitch>
                    <step>G</step>
                    <octave>4</octave>
                </pitch>
                <duration>128</duration>
                <tie type="stop"/>
                <instrument id="P1-I1"/>
                <voice>1</voice>
                <type>eighth</type>
                <stem>up</stem>
                <staff>1</staff>
                <beam number="1">continue</beam>
                <notations>
                    <tied type="stop"/>
                </notations>
            </note>
            <note default-y="17" default-x="377" color="#000000">
                <pitch>
                    <step>D</step>
                    <octave>5</octave>
                </pitch>
                <duration>128</duration>
                <instrument id="P1-I1"/>
                <voice>1</voice>
                <type>eighth</type>
                <stem>up</stem>
                <staff>1</staff>
                <beam number="1">end</beam>
            </note>
        </measure>
        <measure width="397" number="3">
            <harmony default-y="25" color="#000000">
                <root>
                    <root-step>A</root-step>
                </root>
                <kind>minor-seventh</kind>
                <staff>1</staff>
            </harmony>
            <note default-y="12" default-x="15" color="#000000">
                <pitch>
                    <step>C</step>
                    <octave>5</octave>
                </pitch>
                <duration>128</duration>
                <instrument id="P1-I1"/>
                <voice>1</voice>
                <type>eighth</type>
                <stem>up</stem>
                <staff>1</staff>
                <beam number="1">begin</beam>
            </note>
            <note default-y="12" default-x="57" color="#000000">
                <pitch>
                    <step>E</step>
                    <octave>4</octave>
                </pitch>
                <duration>128</duration>
                <instrument id="P1-I1"/>
                <voice>1</voice>
                <type>eighth</type>
                <stem>up</stem>
                <staff>1</staff>
                <beam number="1">end</beam>
            </note>
            <note default-x="99">
                <rest/>
                <duration>64</duration>
                <instrument id="P1-I1"/>
                <voice>1</voice>
                <type>16th</type>
                <staff>1</staff>
            </note>
            <note default-x="131">
                <rest/>
                <duration>128</duration>
                <instrument id="P1-I1"/>
                <voice>1</voice>
                <type>eighth</type>
                <staff>1</staff>
            </note>
            <note default-y="-15" default-x="173" color="#000000">
                <pitch>
                    <step>C</step>
                    <octave>4</octave>
                </pitch>
                <duration>64</duration>
                <instrument id="P1-I1"/>
                <voice>1</voice>
                <type>16th</type>
                <stem>up</stem>
                <staff>1</staff>
            </note>
            <harmony default-y="25" color="#000000">
                <root>
                    <root-step>E</root-step>
                </root>
                <kind>minor</kind>
                <bass>
                    <bass-step>G</bass-step>
                </bass>
                <staff>1</staff>
            </harmony>
            <note default-y="14" default-x="206" color="#000000">
                <pitch>
                    <step>B</step>
                    <octave>4</octave>
                </pitch>
                <duration>128</duration>
                <instrument id="P1-I1"/>
                <voice>1</voice>
                <type>eighth</type>
                <stem>up</stem>
                <staff>1</staff>
                <beam number="1">begin</beam>
            </note>
            <note default-y="14" default-x="248" color="#000000">
                <pitch>
                    <step>C</step>
                    <octave>5</octave>
                </pitch>
                <duration>64</duration>
                <instrument id="P1-I1"/>
                <voice>1</voice>
                <type>16th</type>
                <stem>up</stem>
                <staff>1</staff>
                <beam number="1">continue</beam>
                <beam number="2">begin</beam>
            </note>
            <note default-y="14" default-x="280" color="#000000">
                <pitch>
                    <step>B</step>
                    <octave>4</octave>
                </pitch>
                <duration>64</duration>
                <tie type="start"/>
                <instrument id="P1-I1"/>
                <voice>1</voice>
                <type>16th</type>
                <stem>up</stem>
                <staff>1</staff>
                <beam number="1">continue</beam>
                <beam number="2">end</beam>
                <notations>
                    <tied type="start"/>
                </notations>
            </note>
            <note default-y="14" default-x="312" color="#000000">
                <pitch>
                    <step>B</step>
                    <octave>4</octave>
                </pitch>
                <duration>128</duration>
                <tie type="stop"/>
                <instrument id="P1-I1"/>
                <voice>1</voice>
                <type>eighth</type>
                <stem>up</stem>
                <staff>1</staff>
                <beam number="1">continue</beam>
                <notations>
                    <tied type="stop"/>
                </notations>
            </note>
            <note default-y="14" default-x="355" color="#000000">
                <pitch>
                    <step>G</step>
                    <octave>4</octave>
                </pitch>
                <duration>128</duration>
                <instrument id="P1-I1"/>
                <voice>1</voice>
                <type>eighth</type>
                <stem>up</stem>
                <staff>1</staff>
                <beam number="1">end</beam>
            </note>
        </measure>
        <measure width="485" number="4">
            <print new-system="yes">
                <system-layout>
                    <system-margins>
                        <left-margin>22</left-margin>
                        <right-margin>0</right-margin>
                    </system-margins>
                    <system-distance>92</system-distance>
                </system-layout>
            </print>
            <attributes>
                <staff-details print-object="yes" number="1"/>
            </attributes>
            <harmony default-y="25" color="#000000">
                <root>
                    <root-step>F</root-step>
                </root>
                <kind>major-seventh</kind>
                <staff>1</staff>
            </harmony>
            <note default-y="-5" default-x="57" color="#000000">
                <pitch>
                    <step>E</step>
                    <octave>4</octave>
                </pitch>
                <duration>128</duration>
                <instrument id="P1-I1"/>
                <voice>1</voice>
                <type>eighth</type>
                <stem>up</stem>
                <staff>1</staff>
            </note>
            <note default-y="-15" default-x="126" color="#000000">
                <pitch>
                    <step>C</step>
                    <octave>4</octave>
                </pitch>
                <duration>384</duration>
                <instrument id="P1-I1"/>
                <voice>1</voice>
                <type>quarter</type>
                <dot/>
                <stem>up</stem>
                <staff>1</staff>
            </note>
            <harmony default-y="25" color="#000000">
                <root>
                    <root-step>C</root-step>
                </root>
                <kind>major</kind>
                <bass>
                    <bass-step>E</bass-step>
                </bass>
                <staff>1</staff>
            </harmony>
            <note default-x="255">
                <rest/>
                <duration>256</duration>
                <instrument id="P1-I1"/>
                <voice>1</voice>
                <type>quarter</type>
                <staff>1</staff>
            </note>
            <note default-x="350">
                <rest/>
                <duration>192</duration>
                <instrument id="P1-I1"/>
                <voice>1</voice>
                <type>eighth</type>
                <dot/>
                <staff>1</staff>
            </note>
            <note default-y="-20" default-x="432" color="#000000">
                <pitch>
                    <step>G</step>
                    <octave>3</octave>
                </pitch>
                <duration>64</duration>
                <instrument id="P1-I1"/>
                <voice>1</voice>
                <type>16th</type>
                <stem>up</stem>
                <staff>1</staff>
            </note>
        </measure>
        <measure width="570" number="5">
            <harmony default-y="25" color="#000000">
                <root>
                    <root-step>D</root-step>
                </root>
                <kind>minor-seventh</kind>
                <staff>1</staff>
            </harmony>
            <note default-y="9" default-x="15" color="#000000">
                <pitch>
                    <step>F</step>
                    <octave>4</octave>
                </pitch>
                <duration>128</duration>
                <instrument id="P1-I1"/>
                <voice>1</voice>
                <type>eighth</type>
                <stem>up</stem>
                <staff>1</staff>
                <beam number="1">begin</beam>
            </note>
            <note default-y="9" default-x="84" color="#000000">
                <pitch>
                    <step>G</step>
                    <octave>4</octave>
                </pitch>
                <duration>64</duration>
                <instrument id="P1-I1"/>
                <voice>1</voice>
                <type>16th</type>
                <stem>up</stem>
                <staff>1</staff>
                <beam number="1">continue</beam>
                <beam number="2">begin</beam>
            </note>
            <note default-y="9" default-x="136" color="#000000">
                <pitch>
                    <step>A</step>
                    <octave>4</octave>
                </pitch>
                <duration>64</duration>
                <tie type="start"/>
                <instrument id="P1-I1"/>
                <voice>1</voice>
                <type>16th</type>
                <stem>up</stem>
                <staff>1</staff>
                <beam number="1">continue</beam>
                <beam number="2">end</beam>
                <notations>
                    <tied type="start"/>
                </notations>
            </note>
            <note default-y="9" default-x="189" color="#000000">
                <pitch>
                    <step>A</step>
                    <octave>4</octave>
                </pitch>
                <duration>128</duration>
                <tie type="stop"/>
                <instrument id="P1-I1"/>
                <voice>1</voice>
                <type>eighth</type>
                <stem>up</stem>
                <staff>1</staff>
                <beam number="1">continue</beam>
                <notations>
                    <tied type="stop"/>
                </notations>
            </note>
            <note default-y="9" default-x="258" color="#000000">
                <pitch>
                    <step>G</step>
                    <octave>4</octave>
                </pitch>
                <duration>128</duration>
                <instrument id="P1-I1"/>
                <voice>1</voice>
                <type>eighth</type>
                <stem>up</stem>
                <staff>1</staff>
                <beam number="1">end</beam>
            </note>
            <harmony default-y="25" color="#000000">
                <root>
                    <root-step>G</root-step>
                </root>
                <kind>suspended-fourth</kind>
                <staff>1</staff>
            </harmony>
            <note default-y="-10" default-x="327" color="#000000">
                <pitch>
                    <step>D</step>
                    <octave>4</octave>
                </pitch>
                <duration>256</duration>
                <instrument id="P1-I1"/>
                <voice>1</voice>
                <type>quarter</type>
                <stem>up</stem>
                <staff>1</staff>
            </note>
            <harmony default-y="25" color="#000000">
                <root>
                    <root-step>G</root-step>
                </root>
                <kind>major</kind>
                <staff>1</staff>
            </harmony>
            <note default-x="423">
                <rest/>
                <duration>192</duration>
                <instrument id="P1-I1"/>
                <voice>1</voice>
                <type>eighth</type>
                <dot/>
                <staff>1</staff>
            </note>
            <note default-y="-20" default-x="505" color="#000000">
                <pitch>
                    <step>G</step>
                    <octave>3</octave>
                </pitch>
                <duration>64</duration>
                <instrument id="P1-I1"/>
                <voice>1</voice>
                <type>16th</type>
                <stem>up</stem>
                <staff>1</staff>
            </note>
            <barline location="right">
                <bar-style>light-light</bar-style>
            </barline>
        </measure>
        <measure width="564" number="6">
            <print new-system="yes">
                <system-layout>
                    <system-margins>
                        <left-margin>22</left-margin>
                        <right-margin>0</right-margin>
                    </system-margins>
                    <system-distance>92</system-distance>
                </system-layout>
            </print>
            <attributes>
                <staff-details print-object="yes" number="1"/>
            </attributes>
            <harmony default-y="25" color="#000000">
                <root>
                    <root-step>C</root-step>
                </root>
                <kind>major</kind>
                <staff>1</staff>
            </harmony>
            <note default-y="2" default-x="57" color="#000000">
                <pitch>
                    <step>G</step>
                    <octave>4</octave>
                </pitch>
                <duration>128</duration>
                <instrument id="P1-I1"/>
                <voice>1</voice>
                <type>eighth</type>
                <stem>up</stem>
                <staff>1</staff>
                <beam number="1">begin</beam>
            </note>
            <note default-y="2" default-x="110" color="#000000">
                <pitch>
                    <step>E</step>
                    <octave>4</octave>
                </pitch>
                <duration>64</duration>
                <instrument id="P1-I1"/>
                <voice>1</voice>
                <type>16th</type>
                <stem>up</stem>
                <staff>1</staff>
                <beam number="1">continue</beam>
                <beam number="2">begin</beam>
            </note>
            <note default-y="2" default-x="150" color="#000000">
                <pitch>
                    <step>G</step>
                    <octave>4</octave>
                </pitch>
                <duration>64</duration>
                <tie type="start"/>
                <instrument id="P1-I1"/>
                <voice>1</voice>
                <type>16th</type>
                <stem>up</stem>
                <staff>1</staff>
                <beam number="1">continue</beam>
                <beam number="2">end</beam>
                <notations>
                    <tied type="start"/>
                </notations>
            </note>
            <note default-y="2" default-x="191" color="#000000">
                <pitch>
                    <step>G</step>
                    <octave>4</octave>
                </pitch>
                <duration>128</duration>
                <tie type="stop"/>
                <instrument id="P1-I1"/>
                <voice>1</voice>
                <type>eighth</type>
                <stem>up</stem>
                <staff>1</staff>
                <beam number="1">continue</beam>
                <notations>
                    <tied type="stop"/>
                </notations>
            </note>
            <note default-y="2" default-x="244" color="#000000">
                <pitch>
                    <step>E</step>
                    <octave>4</octave>
                </pitch>
                <duration>64</duration>
                <instrument id="P1-I1"/>
                <voice>1</voice>
                <type>16th</type>
                <stem>up</stem>
                <staff>1</staff>
                <beam number="1">continue</beam>
                <beam number="2">begin</beam>
            </note>
            <note default-y="2" default-x="284" color="#000000">
                <pitch>
                    <step>G</step>
                    <octave>4</octave>
                </pitch>
                <duration>64</duration>
                <tie type="start"/>
                <instrument id="P1-I1"/>
                <voice>1</voice>
                <type>16th</type>
                <stem>up</stem>
                <staff>1</staff>
                <beam number="1">end</beam>
                <beam number="2">end</beam>
                <notations>
                    <tied type="start"/>
                </notations>
            </note>
            <harmony default-y="25" color="#000000">
                <root>
                    <root-step>G</root-step>
                </root>
                <kind>major</kind>
                <bass>
                    <bass-step>B</bass-step>
                </bass>
                <staff>1</staff>
            </harmony>
            <note default-y="17" default-x="325" color="#000000">
                <pitch>
                    <step>G</step>
                    <octave>4</octave>
                </pitch>
                <duration>128</duration>
                <tie type="stop"/>
                <instrument id="P1-I1"/>
                <voice>1</voice>
                <type>eighth</type>
                <stem>up</stem>
                <staff>1</staff>
                <beam number="1">begin</beam>
                <notations>
                    <tied type="stop"/>
                </notations>
            </note>
            <note default-y="17" default-x="377" color="#000000">
                <pitch>
                    <step>E</step>
                    <octave>4</octave>
                </pitch>
                <duration>64</duration>
                <instrument id="P1-I1"/>
                <voice>1</voice>
                <type>16th</type>
                <stem>up</stem>
                <staff>1</staff>
                <beam number="1">continue</beam>
                <beam number="2">begin</beam>
            </note>
            <note default-y="17" default-x="418" color="#000000">
                <pitch>
                    <step>G</step>
                    <octave>4</octave>
                </pitch>
                <duration>64</duration>
                <tie type="start"/>
                <instrument id="P1-I1"/>
                <voice>1</voice>
                <type>16th</type>
                <stem>up</stem>
                <staff>1</staff>
                <beam number="1">continue</beam>
                <beam number="2">end</beam>
                <notations>
                    <tied type="start"/>
                </notations>
            </note>
            <note default-y="17" default-x="458" color="#000000">
                <pitch>
                    <step>G</step>
                    <octave>4</octave>
                </pitch>
                <duration>128</duration>
                <tie type="stop"/>
                <instrument id="P1-I1"/>
                <voice>1</voice>
                <type>eighth</type>
                <stem>up</stem>
                <staff>1</staff>
                <beam number="1">continue</beam>
                <notations>
                    <tied type="stop"/>
                </notations>
            </note>
            <note default-y="17" default-x="511" color="#000000">
                <pitch>
                    <step>D</step>
                    <octave>5</octave>
                </pitch>
                <duration>128</duration>
                <instrument id="P1-I1"/>
                <voice>1</voice>
                <type>eighth</type>
                <stem>up</stem>
                <staff>1</staff>
                <beam number="1">end</beam>
            </note>
        </measure>
        <measure width="491" number="7">
            <harmony default-y="25" color="#000000">
                <root>
                    <root-step>A</root-step>
                </root>
                <kind>minor-seventh</kind>
                <staff>1</staff>
            </harmony>
            <note default-y="12" default-x="15" color="#000000">
                <pitch>
                    <step>C</step>
                    <octave>5</octave>
                </pitch>
                <duration>128</duration>
                <instrument id="P1-I1"/>
                <voice>1</voice>
                <type>eighth</type>
                <stem>up</stem>
                <staff>1</staff>
                <beam number="1">begin</beam>
            </note>
            <note default-y="12" default-x="67" color="#000000">
                <pitch>
                    <step>E</step>
                    <octave>4</octave>
                </pitch>
                <duration>128</duration>
                <instrument id="P1-I1"/>
                <voice>1</voice>
                <type>eighth</type>
                <stem>up</stem>
                <staff>1</staff>
                <beam number="1">end</beam>
            </note>
            <note default-x="120">
                <rest/>
                <duration>192</duration>
                <instrument id="P1-I1"/>
                <voice>1</voice>
                <type>eighth</type>
                <dot/>
                <staff>1</staff>
            </note>
            <note default-y="-15" default-x="183" color="#000000">
                <pitch>
                    <step>C</step>
                    <octave>4</octave>
                </pitch>
                <duration>64</duration>
                <instrument id="P1-I1"/>
                <voice>1</voice>
                <type>16th</type>
                <stem>up</stem>
                <staff>1</staff>
            </note>
            <harmony default-y="25" color="#000000">
                <root>
                    <root-step>E</root-step>
                </root>
                <kind>minor</kind>
                <bass>
                    <bass-step>G</bass-step>
                </bass>
                <staff>1</staff>
            </harmony>
            <note default-y="14" default-x="223" color="#000000">
                <pitch>
                    <step>B</step>
                    <octave>4</octave>
                </pitch>
                <duration>128</duration>
                <instrument id="P1-I1"/>
                <voice>1</voice>
                <type>eighth</type>
                <stem>up</stem>
                <staff>1</staff>
                <beam number="1">begin</beam>
            </note>
            <note default-y="14" default-x="276" color="#000000">
                <pitch>
                    <step>C</step>
                    <octave>5</octave>
                </pitch>
                <duration>64</duration>
                <instrument id="P1-I1"/>
                <voice>1</voice>
                <type>16th</type>
                <stem>up</stem>
                <staff>1</staff>
                <beam number="1">continue</beam>
                <beam number="2">begin</beam>
            </note>
            <note default-y="14" default-x="317" color="#000000">
                <pitch>
                    <step>B</step>
                    <octave>4</octave>
                </pitch>
                <duration>64</duration>
                <tie type="start"/>
                <instrument id="P1-I1"/>
                <voice>1</voice>
                <type>16th</type>
                <stem>up</stem>
                <staff>1</staff>
                <beam number="1">continue</beam>
                <beam number="2">end</beam>
                <notations>
                    <tied type="start"/>
                </notations>
            </note>
            <note default-y="14" default-x="357" color="#000000">
                <pitch>
                    <step>B</step>
                    <octave>4</octave>
                </pitch>
                <duration>128</duration>
                <tie type="stop"/>
                <instrument id="P1-I1"/>
                <voice>1</voice>
                <type>eighth</type>
                <stem>up</stem>
                <staff>1</staff>
                <beam number="1">continue</beam>
                <notations>
                    <tied type="stop"/>
                </notations>
            </note>
            <note default-y="14" default-x="410" color="#000000">
                <pitch>
                    <step>G</step>
                    <octave>4</octave>
                </pitch>
                <duration>64</duration>
                <instrument id="P1-I1"/>
                <voice>1</voice>
                <type>16th</type>
                <stem>up</stem>
                <staff>1</staff>
                <beam number="1">continue</beam>
                <beam number="2">begin</beam>
            </note>
            <note default-y="14" default-x="450" color="#000000">
                <pitch>
                    <step>E</step>
                    <octave>4</octave>
                </pitch>
                <duration>64</duration>
                <tie type="start"/>
                <instrument id="P1-I1"/>
                <voice>1</voice>
                <type>16th</type>
                <stem>up</stem>
                <staff>1</staff>
                <beam number="1">end</beam>
                <beam number="2">end</beam>
                <notations>
                    <tied type="start"/>
                </notations>
            </note>
        </measure>
        <measure width="541" number="8">
            <print new-system="yes">
                <system-layout>
                    <system-margins>
                        <left-margin>22</left-margin>
                        <right-margin>0</right-margin>
                    </system-margins>
                    <system-distance>92</system-distance>
                </system-layout>
            </print>
            <attributes>
                <staff-details print-object="yes" number="1"/>
            </attributes>
            <harmony default-y="25" color="#000000">
                <root>
                    <root-step>F</root-step>
                </root>
                <kind>major-seventh</kind>
                <staff>1</staff>
            </harmony>
            <note default-y="-7" default-x="57" color="#000000">
                <pitch>
                    <step>E</step>
                    <octave>4</octave>
                </pitch>
                <duration>128</duration>
                <tie type="stop"/>
                <instrument id="P1-I1"/>
                <voice>1</voice>
                <type>eighth</type>
                <stem>up</stem>
                <staff>1</staff>
                <beam number="1">begin</beam>
                <notations>
                    <tied type="stop"/>
                </notations>
            </note>
            <note default-y="-7" default-x="119" color="#000000">
                <pitch>
                    <step>C</step>
                    <octave>4</octave>
                </pitch>
                <duration>64</duration>
                <instrument id="P1-I1"/>
                <voice>1</voice>
                <type>16th</type>
                <stem>up</stem>
                <staff>1</staff>
                <beam number="1">continue</beam>
                <beam number="2">begin</beam>
            </note>
            <note default-y="-7" default-x="166" color="#000000">
                <pitch>
                    <step>C</step>
                    <octave>4</octave>
                </pitch>
                <duration>64</duration>
                <tie type="start"/>
                <instrument id="P1-I1"/>
                <voice>1</voice>
                <type>16th</type>
                <stem>up</stem>
                <staff>1</staff>
                <beam number="1">end</beam>
                <beam number="2">end</beam>
                <notations>
                    <tied type="start"/>
                </notations>
            </note>
            <note default-y="-15" default-x="214" color="#000000">
                <pitch>
                    <step>C</step>
                    <octave>4</octave>
                </pitch>
                <duration>256</duration>
                <tie type="stop"/>
                <instrument id="P1-I1"/>
                <voice>1</voice>
                <type>quarter</type>
                <stem>up</stem>
                <staff>1</staff>
                <notations>
                    <tied type="stop"/>
                </notations>
            </note>
            <harmony default-y="25" color="#000000">
                <root>
                    <root-step>C</root-step>
                </root>
                <kind>major</kind>
                <bass>
                    <bass-step>E</bass-step>
                </bass>
                <staff>1</staff>
            </harmony>
            <note default-x="299">
                <rest/>
                <duration>256</duration>
                <instrument id="P1-I1"/>
                <voice>1</voice>
                <type>quarter</type>
                <staff>1</staff>
            </note>
            <note default-x="385">
                <rest/>
                <duration>128</duration>
                <instrument id="P1-I1"/>
                <voice>1</voice>
                <type>eighth</type>
                <staff>1</staff>
            </note>
            <note default-y="-20" default-x="447" color="#000000">
                <pitch>
                    <step>G</step>
                    <octave>3</octave>
                </pitch>
                <duration>64</duration>
                <instrument id="P1-I1"/>
                <voice>1</voice>
                <type>16th</type>
                <stem>up</stem>
                <staff>1</staff>
                <beam number="1">begin</beam>
                <beam number="2">begin</beam>
            </note>
            <note default-y="-20" default-x="494" color="#000000">
                <pitch>
                    <step>G</step>
                    <octave>3</octave>
                </pitch>
                <duration>64</duration>
                <instrument id="P1-I1"/>
                <voice>1</voice>
                <type>16th</type>
                <stem>up</stem>
                <staff>1</staff>
                <beam number="1">end</beam>
                <beam number="2">end</beam>
            </note>
        </measure>
        <measure width="513" number="9">
            <harmony default-y="25" color="#000000">
                <root>
                    <root-step>D</root-step>
                </root>
                <kind>minor-seventh</kind>
                <staff>1</staff>
            </harmony>
            <note default-y="9" default-x="15" color="#000000">
                <pitch>
                    <step>F</step>
                    <octave>4</octave>
                </pitch>
                <duration>128</duration>
                <instrument id="P1-I1"/>
                <voice>1</voice>
                <type>eighth</type>
                <stem>up</stem>
                <staff>1</staff>
                <beam number="1">begin</beam>
            </note>
            <note default-y="9" default-x="76" color="#000000">
                <pitch>
                    <step>G</step>
                    <octave>4</octave>
                </pitch>
                <duration>64</duration>
                <instrument id="P1-I1"/>
                <voice>1</voice>
                <type>16th</type>
                <stem>up</stem>
                <staff>1</staff>
                <beam number="1">continue</beam>
                <beam number="2">begin</beam>
            </note>
            <note default-y="9" default-x="124" color="#000000">
                <pitch>
                    <step>A</step>
                    <octave>4</octave>
                </pitch>
                <duration>64</duration>
                <instrument id="P1-I1"/>
                <voice>1</voice>
                <type>16th</type>
                <stem>up</stem>
                <staff>1</staff>
                <beam number="1">continue</beam>
                <beam number="2">end</beam>
            </note>
            <note default-y="9" default-x="171" color="#000000">
                <pitch>
                    <step>A</step>
                    <octave>4</octave>
                </pitch>
                <duration>128</duration>
                <instrument id="P1-I1"/>
                <voice>1</voice>
                <type>eighth</type>
                <stem>up</stem>
                <staff>1</staff>
                <beam number="1">continue</beam>
            </note>
            <note default-y="9" default-x="233" color="#000000">
                <pitch>
                    <step>G</step>
                    <octave>4</octave>
                </pitch>
                <duration>128</duration>
                <instrument id="P1-I1"/>
                <voice>1</voice>
                <type>eighth</type>
                <stem>up</stem>
                <staff>1</staff>
                <beam number="1">end</beam>
            </note>
            <harmony default-y="25" color="#000000">
                <root>
                    <root-step>G</root-step>
                </root>
                <kind>suspended-fourth</kind>
                <staff>1</staff>
            </harmony>
            <note default-y="-10" default-x="295" color="#000000">
                <pitch>
                    <step>D</step>
                    <octave>4</octave>
                </pitch>
                <duration>256</duration>
                <instrument id="P1-I1"/>
                <voice>1</voice>
                <type>quarter</type>
                <stem>up</stem>
                <staff>1</staff>
            </note>
            <harmony default-y="25" color="#000000">
                <root>
                    <root-step>G</root-step>
                </root>
                <kind>major</kind>
                <staff>1</staff>
            </harmony>
            <note default-x="381">
                <rest/>
                <duration>192</duration>
                <instrument id="P1-I1"/>
                <voice>1</voice>
                <type>eighth</type>
                <dot/>
                <staff>1</staff>
            </note>
            <note default-y="-15" default-x="454" color="#000000">
                <pitch>
                    <step>C</step>
                    <octave>4</octave>
                </pitch>
                <duration>64</duration>
                <instrument id="P1-I1"/>
                <voice>1</voice>
                <type>16th</type>
                <stem>up</stem>
                <staff>1</staff>
            </note>
            <barline location="right">
                <bar-style>light-light</bar-style>
            </barline>
        </measure>
        <measure width="595" number="10">
            <print new-system="yes">
                <system-layout>
                    <system-margins>
                        <left-margin>22</left-margin>
                        <right-margin>0</right-margin>
                    </system-margins>
                    <system-distance>92</system-distance>
                </system-layout>
            </print>
            <attributes>
                <staff-details print-object="yes" number="1"/>
            </attributes>
            <harmony default-y="25" color="#000000">
                <root>
                    <root-step>F</root-step>
                </root>
                <kind>major</kind>
                <staff>1</staff>
            </harmony>
            <note default-y="-52" default-x="57" color="#000000">
                <pitch>
                    <step>A</step>
                    <octave>4</octave>
                </pitch>
                <duration>128</duration>
                <instrument id="P1-I1"/>
                <voice>1</voice>
                <type>eighth</type>
                <stem>down</stem>
                <staff>1</staff>
                <beam number="1">begin</beam>
            </note>
            <note default-y="-52" default-x="113" color="#000000">
                <pitch>
                    <step>B</step>
                    <octave>4</octave>
                </pitch>
                <duration>64</duration>
                <instrument id="P1-I1"/>
                <voice>1</voice>
                <type>16th</type>
                <stem>down</stem>
                <staff>1</staff>
                <beam number="1">continue</beam>
                <beam number="2">begin</beam>
            </note>
            <note default-y="-52" default-x="156" color="#000000">
                <pitch>
                    <step>C</step>
                    <octave>5</octave>
                </pitch>
                <duration>64</duration>
                <tie type="start"/>
                <instrument id="P1-I1"/>
                <voice>1</voice>
                <type>16th</type>
                <stem>down</stem>
                <staff>1</staff>
                <beam number="1">end</beam>
                <beam number="2">end</beam>
                <notations>
                    <tied type="start"/>
                </notations>
            </note>
            <note default-y="-49" default-x="200" color="#000000">
                <pitch>
                    <step>C</step>
                    <octave>5</octave>
                </pitch>
                <duration>64</duration>
                <tie type="stop"/>
                <instrument id="P1-I1"/>
                <voice>1</voice>
                <type>16th</type>
                <stem>down</stem>
                <staff>1</staff>
                <beam number="1">begin</beam>
                <beam number="2">forward hook</beam>
                <notations>
                    <tied type="stop"/>
                </notations>
            </note>
            <note default-y="-49" default-x="243" color="#000000">
                <pitch>
                    <step>D</step>
                    <octave>5</octave>
                </pitch>
                <duration>128</duration>
                <instrument id="P1-I1"/>
                <voice>1</voice>
                <type>eighth</type>
                <stem>down</stem>
                <staff>1</staff>
                <beam number="1">continue</beam>
            </note>
            <note default-y="-49" default-x="299" color="#000000">
                <pitch>
                    <step>C</step>
                    <octave>5</octave>
                </pitch>
                <duration>64</duration>
                <tie type="start"/>
                <instrument id="P1-I1"/>
                <voice>1</voice>
                <type>16th</type>
                <stem>down</stem>
                <staff>1</staff>
                <beam number="1">end</beam>
                <beam number="2">backward hook</beam>
                <notations>
                    <tied type="start"/>
                </notations>
            </note>
            <harmony default-y="25" color="#000000">
                <root>
                    <root-step>C</root-step>
                </root>
                <kind>major</kind>
                <bass>
                    <bass-step>E</bass-step>
                </bass>
                <staff>1</staff>
            </harmony>
            <note default-y="12" default-x="342" color="#000000">
                <pitch>
                    <step>C</step>
                    <octave>5</octave>
                </pitch>
                <duration>64</duration>
                <tie type="stop"/>
                <instrument id="P1-I1"/>
                <voice>1</voice>
                <type>16th</type>
                <stem>up</stem>
                <staff>1</staff>
                <beam number="1">begin</beam>
                <beam number="2">forward hook</beam>
                <notations>
                    <tied type="stop"/>
                </notations>
            </note>
            <note default-y="12" default-x="385" color="#000000">
                <pitch>
                    <step>G</step>
                    <octave>4</octave>
                </pitch>
                <duration>128</duration>
                <instrument id="P1-I1"/>
                <voice>1</voice>
                <type>eighth</type>
                <stem>up</stem>
                <staff>1</staff>
                <beam number="1">continue</beam>
            </note>
            <note default-y="12" default-x="441" color="#000000">
                <pitch>
                    <step>G</step>
                    <octave>4</octave>
                </pitch>
                <duration>64</duration>
                <tie type="start"/>
                <instrument id="P1-I1"/>
                <voice>1</voice>
                <type>16th</type>
                <stem>up</stem>
                <staff>1</staff>
                <beam number="1">continue</beam>
                <beam number="2">forward hook</beam>
                <notations>
                    <tied type="start"/>
                </notations>
            </note>
            <note default-y="12" default-x="485" color="#000000">
                <pitch>
                    <step>G</step>
                    <octave>4</octave>
                </pitch>
                <duration>192</duration>
                <tie type="stop"/>
                <instrument id="P1-I1"/>
                <voice>1</voice>
                <type>eighth</type>
                <dot/>
                <stem>up</stem>
                <staff>1</staff>
                <beam number="1">continue</beam>
                <notations>
                    <tied type="stop"/>
                </notations>
            </note>
            <note default-y="12" default-x="551" color="#000000">
                <pitch>
                    <step>G</step>
                    <octave>4</octave>
                </pitch>
                <duration>64</duration>
                <instrument id="P1-I1"/>
                <voice>1</voice>
                <type>16th</type>
                <stem>up</stem>
                <staff>1</staff>
                <beam number="1">end</beam>
                <beam number="2">backward hook</beam>
            </note>
        </measure>
        <measure width="460" number="11">
            <harmony default-y="25" color="#000000">
                <root>
                    <root-step>B</root-step>
                    <root-alter>-1</root-alter>
                </root>
                <kind>major</kind>
                <bass>
                    <bass-step>C</bass-step>
                </bass>
                <staff>1</staff>
            </harmony>
            <note default-y="-42" default-x="15" color="#000000">
                <pitch>
                    <step>F</step>
                    <octave>5</octave>
                </pitch>
                <duration>128</duration>
                <instrument id="P1-I1"/>
                <voice>1</voice>
                <type>eighth</type>
                <stem>down</stem>
                <staff>1</staff>
                <beam number="1">begin</beam>
            </note>
            <note default-y="-42" default-x="71" color="#000000">
                <pitch>
                    <step>E</step>
                    <octave>5</octave>
                </pitch>
                <duration>128</duration>
                <instrument id="P1-I1"/>
                <voice>1</voice>
                <type>eighth</type>
                <stem>down</stem>
                <staff>1</staff>
                <beam number="1">continue</beam>
            </note>
            <note default-y="-42" default-x="127" color="#000000">
                <pitch>
                    <step>F</step>
                    <octave>5</octave>
                </pitch>
                <duration>128</duration>
                <instrument id="P1-I1"/>
                <voice>1</voice>
                <type>eighth</type>
                <stem>down</stem>
                <staff>1</staff>
                <beam number="1">continue</beam>
            </note>
            <note default-y="-42" default-x="183" color="#000000">
                <pitch>
                    <step>G</step>
                    <octave>5</octave>
                </pitch>
                <duration>128</duration>
                <instrument id="P1-I1"/>
                <voice>1</voice>
                <type>eighth</type>
                <stem>down</stem>
                <staff>1</staff>
                <beam number="1">end</beam>
            </note>
            <harmony default-y="25" color="#000000">
                <root>
                    <root-step>F</root-step>
                </root>
                <kind>major-seventh</kind>
                <staff>1</staff>
            </harmony>
            <note default-y="-47" default-x="240" color="#000000">
                <pitch>
                    <step>E</step>
                    <octave>5</octave>
                </pitch>
                <duration>128</duration>
                <instrument id="P1-I1"/>
                <voice>1</voice>
                <type>eighth</type>
                <stem>down</stem>
                <staff>1</staff>
                <beam number="1">begin</beam>
            </note>
            <note default-y="-47" default-x="296" color="#000000">
                <pitch>
                    <step>C</step>
                    <octave>5</octave>
                </pitch>
                <duration>64</duration>
                <instrument id="P1-I1"/>
                <voice>1</voice>
                <type>16th</type>
                <stem>down</stem>
                <staff>1</staff>
                <beam number="1">continue</beam>
                <beam number="2">begin</beam>
            </note>
            <note default-y="-47" default-x="339" color="#000000">
                <pitch>
                    <step>C</step>
                    <octave>5</octave>
                </pitch>
                <duration>64</duration>
                <tie type="start"/>
                <instrument id="P1-I1"/>
                <voice>1</voice>
                <type>16th</type>
                <stem>down</stem>
                <staff>1</staff>
                <beam number="1">end</beam>
                <beam number="2">end</beam>
                <notations>
                    <tied type="start"/>
                </notations>
            </note>
            <note default-y="-50" default-x="382" color="#000000">
                <pitch>
                    <step>C</step>
                    <octave>5</octave>
                </pitch>
                <duration>256</duration>
                <tie type="stop"/>
                <instrument id="P1-I1"/>
                <voice>1</voice>
                <type>quarter</type>
                <stem>down</stem>
                <staff>1</staff>
                <notations>
                    <tied type="stop"/>
                </notations>
            </note>
        </measure>
        <measure width="453" number="12">
            <print new-system="yes">
                <system-layout>
                    <system-margins>
                        <left-margin>22</left-margin>
                        <right-margin>0</right-margin>
                    </system-margins>
                    <system-distance>92</system-distance>
                </system-layout>
            </print>
            <attributes>
                <staff-details print-object="yes" number="1"/>
            </attributes>
            <harmony default-y="25" color="#000000">
                <root>
                    <root-step>D</root-step>
                </root>
                <kind>minor-seventh</kind>
                <staff>1</staff>
            </harmony>
            <note default-y="-52" default-x="57" color="#000000">
                <pitch>
                    <step>A</step>
                    <octave>4</octave>
                </pitch>
                <duration>128</duration>
                <instrument id="P1-I1"/>
                <voice>1</voice>
                <type>eighth</type>
                <stem>down</stem>
                <staff>1</staff>
                <beam number="1">begin</beam>
            </note>
            <note default-y="-52" default-x="108" color="#000000">
                <pitch>
                    <step>B</step>
                    <octave>4</octave>
                </pitch>
                <duration>64</duration>
                <instrument id="P1-I1"/>
                <voice>1</voice>
                <type>16th</type>
                <stem>down</stem>
                <staff>1</staff>
                <beam number="1">continue</beam>
                <beam number="2">begin</beam>
            </note>
            <note default-y="-52" default-x="146" color="#000000">
                <pitch>
                    <step>C</step>
                    <octave>5</octave>
                </pitch>
                <duration>64</duration>
                <tie type="start"/>
                <instrument id="P1-I1"/>
                <voice>1</voice>
                <type>16th</type>
                <stem>down</stem>
                <staff>1</staff>
                <beam number="1">end</beam>
                <beam number="2">end</beam>
                <notations>
                    <tied type="start"/>
                </notations>
            </note>
            <note default-y="-50" default-x="185" color="#000000">
                <pitch>
                    <step>C</step>
                    <octave>5</octave>
                </pitch>
                <duration>256</duration>
                <tie type="stop"/>
                <instrument id="P1-I1"/>
                <voice>1</voice>
                <type>quarter</type>
                <stem>down</stem>
                <staff>1</staff>
                <notations>
                    <tied type="stop"/>
                </notations>
            </note>
            <harmony default-y="25" color="#000000">
                <root>
                    <root-step>C</root-step>
                </root>
                <kind>major</kind>
                <bass>
                    <bass-step>E</bass-step>
                </bass>
                <staff>1</staff>
            </harmony>
            <note default-y="-57" default-x="255" color="#000000">
                <pitch>
                    <step>G</step>
                    <octave>4</octave>
                </pitch>
                <duration>128</duration>
                <instrument id="P1-I1"/>
                <voice>1</voice>
                <type>eighth</type>
                <stem>down</stem>
                <staff>1</staff>
                <beam number="1">begin</beam>
            </note>
            <note default-y="-57" default-x="305" color="#000000">
                <pitch>
                    <step>B</step>
                    <octave>4</octave>
                </pitch>
                <duration>64</duration>
                <instrument id="P1-I1"/>
                <voice>1</voice>
                <type>16th</type>
                <stem>down</stem>
                <staff>1</staff>
                <beam number="1">continue</beam>
                <beam number="2">begin</beam>
            </note>
            <note default-y="-57" default-x="344" color="#000000">
                <pitch>
                    <step>C</step>
                    <octave>5</octave>
                </pitch>
                <duration>64</duration>
                <tie type="start"/>
                <instrument id="P1-I1"/>
                <voice>1</voice>
                <type>16th</type>
                <stem>down</stem>
                <staff>1</staff>
                <beam number="1">end</beam>
                <beam number="2">end</beam>
                <notations>
                    <tied type="start"/>
                </notations>
            </note>
            <note default-y="-50" default-x="383" color="#000000">
                <pitch>
                    <step>C</step>
                    <octave>5</octave>
                </pitch>
                <duration>256</duration>
                <tie type="stop"/>
                <instrument id="P1-I1"/>
                <voice>1</voice>
                <type>quarter</type>
                <stem>down</stem>
                <staff>1</staff>
                <notations>
                    <tied type="stop"/>
                </notations>
            </note>
        </measure>
        <measure width="236" number="13">
            <attributes>
                <time color="#000000">
                    <beats>2</beats>
                    <beat-type>4</beat-type>
                </time>
            </attributes>
            <harmony default-y="25" color="#000000">
                <root>
                    <root-step>F</root-step>
                </root>
                <kind>major</kind>
                <staff>1</staff>
            </harmony>
            <note default-y="9" default-x="33" color="#000000">
                <pitch>
                    <step>A</step>
                    <octave>4</octave>
                </pitch>
                <duration>128</duration>
                <instrument id="P1-I1"/>
                <voice>1</voice>
                <type>eighth</type>
                <stem>up</stem>
                <staff>1</staff>
                <beam number="1">begin</beam>
            </note>
            <note default-y="9" default-x="84" color="#000000">
                <pitch>
                    <step>B</step>
                    <octave>4</octave>
                </pitch>
                <duration>128</duration>
                <instrument id="P1-I1"/>
                <voice>1</voice>
                <type>eighth</type>
                <stem>up</stem>
                <staff>1</staff>
                <beam number="1">end</beam>
            </note>
            <note default-y="-52" default-x="135" color="#000000">
                <pitch>
                    <step>C</step>
                    <octave>5</octave>
                </pitch>
                <duration>128</duration>
                <instrument id="P1-I1"/>
                <voice>1</voice>
                <type>eighth</type>
                <stem>down</stem>
                <staff>1</staff>
                <beam number="1">begin</beam>
            </note>
            <note default-y="-52" default-x="185" color="#000000">
                <pitch>
                    <step>A</step>
                    <octave>4</octave>
                </pitch>
                <duration>128</duration>
                <instrument id="P1-I1"/>
                <voice>1</voice>
                <type>eighth</type>
                <stem>down</stem>
                <staff>1</staff>
                <beam number="1">end</beam>
            </note>
        </measure>
        <measure width="365" number="14">
            <attributes>
                <time color="#000000" symbol="common">
                    <beats>4</beats>
                    <beat-type>4</beat-type>
                </time>
            </attributes>
            <harmony default-y="25" color="#000000">
                <root>
                    <root-step>C</root-step>
                </root>
                <kind>major</kind>
                <bass>
                    <bass-step>G</bass-step>
                </bass>
                <staff>1</staff>
            </harmony>
            <note default-y="-49" default-x="33" color="#000000">
                <pitch>
                    <step>E</step>
                    <octave>5</octave>
                </pitch>
                <duration>128</duration>
                <instrument id="P1-I1"/>
                <voice>1</voice>
                <type>eighth</type>
                <stem>down</stem>
                <staff>1</staff>
                <beam number="1">begin</beam>
            </note>
            <note default-y="-49" default-x="83" color="#000000">
                <pitch>
                    <step>D</step>
                    <octave>5</octave>
                </pitch>
                <duration>128</duration>
                <instrument id="P1-I1"/>
                <voice>1</voice>
                <type>eighth</type>
                <stem>down</stem>
                <staff>1</staff>
                <beam number="1">continue</beam>
            </note>
            <note default-y="-49" default-x="134" color="#000000">
                <pitch>
                    <step>C</step>
                    <octave>5</octave>
                </pitch>
                <duration>128</duration>
                <instrument id="P1-I1"/>
                <voice>1</voice>
                <type>eighth</type>
                <stem>down</stem>
                <staff>1</staff>
                <beam number="1">continue</beam>
            </note>
            <note default-y="-49" default-x="184" color="#000000">
                <pitch>
                    <step>D</step>
                    <octave>5</octave>
                </pitch>
                <duration>128</duration>
                <tie type="start"/>
                <instrument id="P1-I1"/>
                <voice>1</voice>
                <type>eighth</type>
                <stem>down</stem>
                <staff>1</staff>
                <beam number="1">end</beam>
                <notations>
                    <tied type="start"/>
                </notations>
            </note>
            <harmony default-y="25" color="#000000">
                <root>
                    <root-step>G</root-step>
                </root>
                <kind>major</kind>
                <staff>1</staff>
            </harmony>
            <note default-y="-45" default-x="235" color="#000000">
                <pitch>
                    <step>D</step>
                    <octave>5</octave>
                </pitch>
                <duration>512</duration>
                <tie type="stop"/>
                <instrument id="P1-I1"/>
                <voice>1</voice>
                <type>half</type>
                <stem>down</stem>
                <staff>1</staff>
                <notations>
                    <tied type="stop"/>
                </notations>
            </note>
            <barline location="right">
                <bar-style>light-light</bar-style>
            </barline>
        </measure>
        <measure width="585" number="15">
            <print new-system="yes">
                <system-layout>
                    <system-margins>
                        <left-margin>22</left-margin>
                        <right-margin>0</right-margin>
                    </system-margins>
                    <system-distance>92</system-distance>
                </system-layout>
            </print>
            <attributes>
                <staff-details print-object="yes" number="1"/>
            </attributes>
            <barline location="left">
                <bar-style>heavy-light</bar-style>
                <repeat direction="forward"/>
            </barline>
            <harmony default-y="25" color="#000000">
                <root>
                    <root-step>C</root-step>
                </root>
                <kind>major</kind>
                <staff>1</staff>
            </harmony>
            <note default-y="-59" default-x="80" color="#000000">
                <pitch>
                    <step>D</step>
                    <octave>5</octave>
                </pitch>
                <duration>64</duration>
                <instrument id="P1-I1"/>
                <voice>1</voice>
                <type>16th</type>
                <stem>down</stem>
                <staff>1</staff>
                <beam number="1">begin</beam>
                <beam number="2">begin</beam>
            </note>
            <note default-y="-59" default-x="118" color="#000000">
                <pitch>
                    <step>E</step>
                    <octave>5</octave>
                </pitch>
                <duration>64</duration>
                <instrument id="P1-I1"/>
                <voice>1</voice>
                <type>16th</type>
                <stem>down</stem>
                <staff>1</staff>
                <beam number="1">continue</beam>
                <beam number="2">continue</beam>
            </note>
            <note default-y="-59" default-x="157" color="#000000">
                <pitch>
                    <step>E</step>
                    <octave>5</octave>
                </pitch>
                <duration>64</duration>
                <instrument id="P1-I1"/>
                <voice>1</voice>
                <type>16th</type>
                <stem>down</stem>
                <staff>1</staff>
                <beam number="1">continue</beam>
                <beam number="2">continue</beam>
            </note>
            <note default-y="-59" default-x="195" color="#000000">
                <pitch>
                    <step>E</step>
                    <octave>5</octave>
                </pitch>
                <duration>64</duration>
                <instrument id="P1-I1"/>
                <voice>1</voice>
                <type>16th</type>
                <stem>down</stem>
                <staff>1</staff>
                <beam number="1">continue</beam>
                <beam number="2">end</beam>
            </note>
            <note default-y="-59" default-x="234" color="#000000">
                <pitch>
                    <step>E</step>
                    <octave>5</octave>
                </pitch>
                <duration>128</duration>
                <instrument id="P1-I1"/>
                <voice>1</voice>
                <type>eighth</type>
                <stem>down</stem>
                <staff>1</staff>
                <beam number="1">continue</beam>
            </note>
            <note default-y="-59" default-x="284" color="#000000">
                <pitch>
                    <step>G</step>
                    <octave>4</octave>
                </pitch>
                <duration>64</duration>
                <instrument id="P1-I1"/>
                <voice>1</voice>
                <type>16th</type>
                <stem>down</stem>
                <staff>1</staff>
                <beam number="1">continue</beam>
                <beam number="2">begin</beam>
            </note>
            <note default-y="-59" default-x="322" color="#000000">
                <pitch>
                    <step>G</step>
                    <octave>4</octave>
                </pitch>
                <duration>64</duration>
                <instrument id="P1-I1"/>
                <voice>1</voice>
                <type>16th</type>
                <stem>down</stem>
                <staff>1</staff>
                <beam number="1">end</beam>
                <beam number="2">end</beam>
                <notations>
                    <slur orientation="over" color="#000000" type="start" number="1"/>
                </notations>
            </note>
            <harmony default-y="25" color="#000000">
                <root>
                    <root-step>F</root-step>
                </root>
                <kind>major-seventh</kind>
                <staff>1</staff>
            </harmony>
            <note default-y="9" default-x="360" color="#000000">
                <pitch>
                    <step>G</step>
                    <octave>4</octave>
                </pitch>
                <duration>64</duration>
                <instrument id="P1-I1"/>
                <voice>1</voice>
                <type>16th</type>
                <stem>up</stem>
                <staff>1</staff>
                <beam number="1">begin</beam>
                <beam number="2">forward hook</beam>
                <notations>
                    <slur orientation="over" color="#000000" type="stop" number="1"/>
                </notations>
            </note>
            <note default-y="9" default-x="399" color="#000000">
                <pitch>
                    <step>A</step>
                    <octave>4</octave>
                </pitch>
                <duration>128</duration>
                <instrument id="P1-I1"/>
                <voice>1</voice>
                <type>eighth</type>
                <stem>up</stem>
                <staff>1</staff>
                <beam number="1">continue</beam>
            </note>
            <note default-y="9" default-x="449" color="#000000">
                <pitch>
                    <step>A</step>
                    <octave>4</octave>
                </pitch>
                <duration>64</duration>
                <tie type="start"/>
                <instrument id="P1-I1"/>
                <voice>1</voice>
                <type>16th</type>
                <stem>up</stem>
                <staff>1</staff>
                <beam number="1">continue</beam>
                <beam number="2">forward hook</beam>
                <notations>
                    <tied type="start"/>
                </notations>
            </note>
            <note default-y="9" default-x="488" color="#000000">
                <pitch>
                    <step>A</step>
                    <octave>4</octave>
                </pitch>
                <duration>192</duration>
                <tie type="stop"/>
                <instrument id="P1-I1"/>
                <voice>1</voice>
                <type>eighth</type>
                <dot/>
                <stem>up</stem>
                <staff>1</staff>
                <beam number="1">continue</beam>
                <notations>
                    <tied type="stop"/>
                </notations>
            </note>
            <note default-y="9" default-x="547" color="#000000">
                <pitch>
                    <step>A</step>
                    <octave>4</octave>
                </pitch>
                <duration>64</duration>
                <instrument id="P1-I1"/>
                <voice>1</voice>
                <type>16th</type>
                <stem>up</stem>
                <staff>1</staff>
                <beam number="1">end</beam>
                <beam number="2">backward hook</beam>
            </note>
        </measure>
        <measure width="469" number="16">
            <harmony default-y="25" color="#000000">
                <root>
                    <root-step>G</root-step>
                </root>
                <kind>major</kind>
                <staff>1</staff>
            </harmony>
            <note default-y="-62" default-x="15" color="#000000">
                <pitch>
                    <step>D</step>
                    <octave>5</octave>
                </pitch>
                <duration>64</duration>
                <instrument id="P1-I1"/>
                <voice>1</voice>
                <type>16th</type>
                <stem>down</stem>
                <staff>1</staff>
                <beam number="1">begin</beam>
                <beam number="2">begin</beam>
            </note>
            <note default-y="-62" default-x="53" color="#000000">
                <pitch>
                    <step>D</step>
                    <octave>5</octave>
                </pitch>
                <duration>64</duration>
                <instrument id="P1-I1"/>
                <voice>1</voice>
                <type>16th</type>
                <stem>down</stem>
                <staff>1</staff>
                <beam number="1">continue</beam>
                <beam number="2">continue</beam>
            </note>
            <note default-y="-62" default-x="91" color="#000000">
                <pitch>
                    <step>D</step>
                    <octave>5</octave>
                </pitch>
                <duration>64</duration>
                <instrument id="P1-I1"/>
                <voice>1</voice>
                <type>16th</type>
                <stem>down</stem>
                <staff>1</staff>
                <beam number="1">continue</beam>
                <beam number="2">continue</beam>
            </note>
            <note default-y="-62" default-x="130" color="#000000">
                <pitch>
                    <step>D</step>
                    <octave>5</octave>
                </pitch>
                <duration>64</duration>
                <instrument id="P1-I1"/>
                <voice>1</voice>
                <type>16th</type>
                <stem>down</stem>
                <staff>1</staff>
                <beam number="1">continue</beam>
                <beam number="2">end</beam>
            </note>
            <note default-y="-62" default-x="168" color="#000000">
                <pitch>
                    <step>D</step>
                    <octave>5</octave>
                </pitch>
                <duration>128</duration>
                <instrument id="P1-I1"/>
                <voice>1</voice>
                <type>eighth</type>
                <stem>down</stem>
                <staff>1</staff>
                <beam number="1">continue</beam>
            </note>
            <note default-y="-62" default-x="218" color="#000000">
                <pitch>
                    <step>F</step>
                    <octave>4</octave>
                </pitch>
                <duration>128</duration>
                <instrument id="P1-I1"/>
                <voice>1</voice>
                <type>eighth</type>
                <stem>down</stem>
                <staff>1</staff>
                <beam number="1">end</beam>
            </note>
            <harmony default-y="25" color="#000000">
                <root>
                    <root-step>E</root-step>
                </root>
                <kind>major</kind>
                <staff>1</staff>
            </harmony>
            <note default-y="-67" default-x="269" color="#000000">
                <pitch>
                    <step>E</step>
                    <octave>4</octave>
                </pitch>
                <duration>128</duration>
                <instrument id="P1-I1"/>
                <voice>1</voice>
                <type>eighth</type>
                <stem>down</stem>
                <staff>1</staff>
                <beam number="1">begin</beam>
            </note>
            <note default-y="-67" default-x="319" color="#000000">
                <pitch>
                    <step>F</step>
                    <octave>5</octave>
                </pitch>
                <duration>128</duration>
                <instrument id="P1-I1"/>
                <voice>1</voice>
                <type>eighth</type>
                <stem>down</stem>
                <staff>1</staff>
                <beam number="1">continue</beam>
            </note>
            <note default-y="-67" default-x="369" color="#000000">
                <pitch>
                    <step>E</step>
                    <octave>5</octave>
                </pitch>
                <duration>128</duration>
                <instrument id="P1-I1"/>
                <voice>1</voice>
                <type>eighth</type>
                <stem>down</stem>
                <staff>1</staff>
                <beam number="1">continue</beam>
            </note>
            <note default-y="-67" default-x="419" color="#000000">
                <pitch>
                    <step>D</step>
                    <octave>5</octave>
                </pitch>
                <duration>128</duration>
                <instrument id="P1-I1"/>
                <voice>1</voice>
                <type>eighth</type>
                <stem>down</stem>
                <staff>1</staff>
                <beam number="1">end</beam>
            </note>
        </measure>
        <measure width="509" number="17">
            <print new-system="yes">
                <system-layout>
                    <system-margins>
                        <left-margin>22</left-margin>
                        <right-margin>0</right-margin>
                    </system-margins>
                    <system-distance>92</system-distance>
                </system-layout>
            </print>
            <attributes>
                <staff-details print-object="yes" number="1"/>
            </attributes>
            <harmony default-y="25" color="#000000">
                <root>
                    <root-step>A</root-step>
                </root>
                <kind>minor</kind>
                <staff>1</staff>
            </harmony>
            <note default-x="57">
                <rest/>
                <duration>128</duration>
                <instrument id="P1-I1"/>
                <voice>1</voice>
                <type>eighth</type>
                <staff>1</staff>
            </note>
            <note default-y="-52" default-x="110" color="#000000">
                <pitch>
                    <step>C</step>
                    <octave>5</octave>
                </pitch>
                <duration>128</duration>
                <instrument id="P1-I1"/>
                <voice>1</voice>
                <type>eighth</type>
                <stem>down</stem>
                <staff>1</staff>
                <beam number="1">begin</beam>
            </note>
            <note default-y="-52" default-x="163" color="#000000">
                <pitch>
                    <step>B</step>
                    <octave>4</octave>
                </pitch>
                <duration>128</duration>
                <instrument id="P1-I1"/>
                <voice>1</voice>
                <type>eighth</type>
                <stem>down</stem>
                <staff>1</staff>
                <beam number="1">continue</beam>
            </note>
            <note default-y="-52" default-x="216" color="#000000">
                <pitch>
                    <step>C</step>
                    <octave>5</octave>
                </pitch>
                <duration>64</duration>
                <instrument id="P1-I1"/>
                <voice>1</voice>
                <type>16th</type>
                <stem>down</stem>
                <staff>1</staff>
                <beam number="1">continue</beam>
                <beam number="2">begin</beam>
            </note>
            <note default-y="-52" default-x="256" color="#000000">
                <pitch>
                    <step>E</step>
                    <octave>5</octave>
                </pitch>
                <duration>64</duration>
                <tie type="start"/>
                <instrument id="P1-I1"/>
                <voice>1</voice>
                <type>16th</type>
                <stem>down</stem>
                <staff>1</staff>
                <beam number="1">end</beam>
                <beam number="2">end</beam>
                <notations>
                    <tied type="start"/>
                </notations>
            </note>
            <harmony default-y="25" color="#000000">
                <root>
                    <root-step>D</root-step>
                </root>
                <kind>major</kind>
                <bass>
                    <bass-step>F</bass-step>
                    <bass-alter>1</bass-alter>
                </bass>
                <staff>1</staff>
            </harmony>
            <note default-y="-54" default-x="297" color="#000000">
                <pitch>
                    <step>E</step>
                    <octave>5</octave>
                </pitch>
                <duration>128</duration>
                <tie type="stop"/>
                <instrument id="P1-I1"/>
                <voice>1</voice>
                <type>eighth</type>
                <stem>down</stem>
                <staff>1</staff>
                <beam number="1">begin</beam>
                <notations>
                    <tied type="stop"/>
                </notations>
            </note>
            <note default-y="-54" default-x="350" color="#000000">
                <pitch>
                    <step>D</step>
                    <octave>5</octave>
                </pitch>
                <duration>128</duration>
                <instrument id="P1-I1"/>
                <voice>1</voice>
                <type>eighth</type>
                <stem>down</stem>
                <staff>1</staff>
                <beam number="1">continue</beam>
            </note>
            <note default-y="-54" default-x="403" color="#000000">
                <pitch>
                    <step>A</step>
                    <octave>4</octave>
                </pitch>
                <duration>128</duration>
                <instrument id="P1-I1"/>
                <voice>1</voice>
                <type>eighth</type>
                <stem>down</stem>
                <staff>1</staff>
                <beam number="1">continue</beam>
            </note>
            <note default-y="-54" default-x="456" color="#000000">
                <pitch>
                    <step>D</step>
                    <octave>5</octave>
                </pitch>
                <duration>128</duration>
                <instrument id="P1-I1"/>
                <voice>1</voice>
                <type>eighth</type>
                <stem>down</stem>
                <staff>1</staff>
                <beam number="1">end</beam>
            </note>
        </measure>
        <measure width="546" number="18">
            <harmony default-y="25" color="#000000">
                <root>
                    <root-step>G</root-step>
                </root>
                <kind>dominant</kind>
                <degree>
                    <degree-value>4</degree-value>
                    <degree-alter>0</degree-alter>
                    <degree-type>add</degree-type>
                </degree>
                <degree>
                    <degree-value>3</degree-value>
                    <degree-alter>0</degree-alter>
                    <degree-type>subtract</degree-type>
                </degree>
                <staff>1</staff>
            </harmony>
            <note default-x="15">
                <rest/>
                <duration>64</duration>
                <instrument id="P1-I1"/>
                <voice>1</voice>
                <type>16th</type>
                <staff>1</staff>
            </note>
            <note default-y="-54" default-x="55" color="#000000">
                <pitch>
                    <step>C</step>
                    <octave>5</octave>
                </pitch>
                <duration>64</duration>
                <instrument id="P1-I1"/>
                <voice>1</voice>
                <type>16th</type>
                <stem>down</stem>
                <staff>1</staff>
                <beam number="1">begin</beam>
                <beam number="2">begin</beam>
            </note>
            <note default-y="-54" default-x="96" color="#000000">
                <pitch>
                    <step>C</step>
                    <octave>5</octave>
                </pitch>
                <duration>64</duration>
                <instrument id="P1-I1"/>
                <voice>1</voice>
                <type>16th</type>
                <stem>down</stem>
                <staff>1</staff>
                <beam number="1">continue</beam>
                <beam number="2">continue</beam>
            </note>
            <note default-y="-54" default-x="136" color="#000000">
                <pitch>
                    <step>C</step>
                    <octave>5</octave>
                </pitch>
                <duration>64</duration>
                <instrument id="P1-I1"/>
                <voice>1</voice>
                <type>16th</type>
                <stem>down</stem>
                <staff>1</staff>
                <beam number="1">continue</beam>
                <beam number="2">end</beam>
            </note>
            <note default-y="-54" default-x="177" color="#000000">
                <pitch>
                    <step>C</step>
                    <octave>5</octave>
                </pitch>
                <duration>128</duration>
                <instrument id="P1-I1"/>
                <voice>1</voice>
                <type>eighth</type>
                <stem>down</stem>
                <staff>1</staff>
                <beam number="1">continue</beam>
            </note>
            <note default-y="-54" default-x="230" color="#000000">
                <pitch>
                    <step>B</step>
                    <octave>4</octave>
                </pitch>
                <duration>64</duration>
                <instrument id="P1-I1"/>
                <voice>1</voice>
                <type>16th</type>
                <stem>down</stem>
                <staff>1</staff>
                <beam number="1">continue</beam>
                <beam number="2">begin</beam>
            </note>
            <note default-y="-54" default-x="270" color="#000000">
                <pitch>
                    <step>B</step>
                    <octave>4</octave>
                </pitch>
                <duration>64</duration>
                <tie type="start"/>
                <instrument id="P1-I1"/>
                <voice>1</voice>
                <type>16th</type>
                <stem>down</stem>
                <staff>1</staff>
                <beam number="1">end</beam>
                <beam number="2">end</beam>
                <notations>
                    <tied type="start"/>
                </notations>
            </note>
            <harmony default-y="25" color="#000000">
                <root>
                    <root-step>G</root-step>
                </root>
                <kind>dominant</kind>
                <staff>1</staff>
            </harmony>
            <note default-y="12" default-x="311" color="#000000">
                <pitch>
                    <step>B</step>
                    <octave>4</octave>
                </pitch>
                <duration>128</duration>
                <tie type="stop"/>
                <instrument id="P1-I1"/>
                <voice>1</voice>
                <type>eighth</type>
                <stem>up</stem>
                <staff>1</staff>
                <beam number="1">begin</beam>
                <notations>
                    <tied type="stop"/>
                </notations>
            </note>
            <note default-y="12" default-x="364" color="#000000">
                <pitch>
                    <step>A</step>
                    <octave>4</octave>
                </pitch>
                <duration>128</duration>
                <instrument id="P1-I1"/>
                <voice>1</voice>
                <type>eighth</type>
                <stem>up</stem>
                <staff>1</staff>
                <beam number="1">continue</beam>
            </note>
            <note default-y="12" default-x="417" color="#000000">
                <pitch>
                    <step>A</step>
                    <octave>4</octave>
                </pitch>
                <duration>128</duration>
                <instrument id="P1-I1"/>
                <voice>1</voice>
                <type>eighth</type>
                <stem>up</stem>
                <staff>1</staff>
                <beam number="1">continue</beam>
            </note>
            <note default-y="12" default-x="470" color="#000000">
                <pitch>
                    <step>G</step>
                    <octave>4</octave>
                </pitch>
                <duration>128</duration>
                <instrument id="P1-I1"/>
                <voice>1</voice>
                <type>eighth</type>
                <stem>up</stem>
                <staff>1</staff>
                <beam number="1">end</beam>
            </note>
            <barline location="right">
                <bar-style>light-heavy</bar-style>
                <repeat direction="backward"/>
            </barline>
        </measure>
    </part>
</score-partwise>
