<?xml version="1.0" encoding="UTF-8"?>
<!DOCTYPE score-partwise PUBLIC "-//Recordare//DTD MusicXML 2.0 Partwise//EN" "http://www.musicxml.org/dtds/partwise.dtd">
<score-partwise version="2.0">
    <work>
        <work-number></work-number>
        <work-title></work-title>
    </work>
    <movement-number></movement-number>
    <movement-title>So ein Pony - Immenhof</movement-title>
    <identification>
        <creator type="composer">Hans-Martin Majewski </creator>
        <creator type="poet"></creator>
        <rights>All Rights Reserved</rights>
        <encoding>
            <software>MuseScore 1.2</software>
            <encoding-date>2013-01-31</encoding-date>
            <software>ProxyMusic 2.0 c</software>
        </encoding>
        <source>http://wikifonia.org/node/20428/revisions/26990/view</source>
    </identification>
    <defaults>
        <scaling>
            <millimeters>7.05556</millimeters>
            <tenths>40</tenths>
        </scaling>
        <page-layout>
            <page-height>1683.78</page-height>
            <page-width>1190.55</page-width>
            <page-margins type="even">
                <left-margin>56.6929</left-margin>
                <right-margin>56.6929</right-margin>
                <top-margin>56.6929</top-margin>
                <bottom-margin>113.386</bottom-margin>
            </page-margins>
            <page-margins type="odd">
                <left-margin>56.6929</left-margin>
                <right-margin>56.6929</right-margin>
                <top-margin>56.6929</top-margin>
                <bottom-margin>113.386</bottom-margin>
            </page-margins>
        </page-layout>
    </defaults>
    <credit page="1">
        <credit-words font-size="24" default-y="1627.09" default-x="595.276" justify="center" valign="top"></credit-words>
    </credit>
    <credit page="1">
        <credit-words font-size="24" default-y="1627.09" default-x="595.276" justify="center" valign="top">So ein Pony</credit-words>
    </credit>
    <credit page="1">
        <credit-words font-size="14" default-y="1570.39" default-x="595.276" justify="center" valign="top">Immenhof</credit-words>
    </credit>
    <credit page="1">
        <credit-words font-size="12" default-y="1560.09" default-x="1133.86" justify="right" valign="top">Hans-Martin Majewski </credit-words>
    </credit>
    <part-list>
        <score-part id="P1">
            <part-name>Piano</part-name>
            <score-instrument id="P1-I3">
                <instrument-name>Piano</instrument-name>
            </score-instrument>
            <midi-instrument id="P1-I3">
                <midi-channel>1</midi-channel>
                <midi-program>1</midi-program>
                <volume>78.7402</volume>
                <pan>0</pan>
            </midi-instrument>
        </score-part>
    </part-list>
    <part id="P1">
        <measure width="265.61" number="1">
            <print>
                <system-layout>
                    <system-margins>
                        <left-margin>99.13</left-margin>
                        <right-margin>0.00</right-margin>
                    </system-margins>
                    <top-system-distance>242.21</top-system-distance>
                </system-layout>
                <staff-layout number="2">
                    <staff-distance>104.34</staff-distance>
                </staff-layout>
            </print>
            <attributes>
                <divisions>2</divisions>
                <key>
                    <fifths>-1</fifths>
                    <mode>major</mode>
                </key>
                <time>
                    <beats>4</beats>
                    <beat-type>4</beat-type>
                </time>
                <staves>2</staves>
                <clef number="1">
                    <sign>G</sign>
                    <line>2</line>
                </clef>
                <clef number="2">
                    <sign>F</sign>
                    <line>4</line>
                </clef>
            </attributes>
            <note>
                <rest/>
                <duration>2</duration>
                <voice>1</voice>
                <type>quarter</type>
                <staff>1</staff>
            </note>
            <note>
                <rest/>
                <duration>4</duration>
                <voice>1</voice>
                <type>half</type>
                <staff>1</staff>
            </note>
            <note default-y="-35.00" default-x="200.51" dynamics="80.00">
                <pitch>
                    <step>F</step>
                    <octave>4</octave>
                </pitch>
                <duration>1</duration>
                <voice>1</voice>
                <type>eighth</type>
                <stem>up</stem>
                <staff>1</staff>
                <beam number="1">begin</beam>
                <lyric number="1">
                    <syllabic>single</syllabic>
                    <text>So</text>
                </lyric>
            </note>
            <note default-y="-30.00" default-x="234.55" dynamics="62.22">
                <pitch>
                    <step>G</step>
                    <octave>4</octave>
                </pitch>
                <duration>1</duration>
                <voice>1</voice>
                <type>eighth</type>
                <stem>up</stem>
                <staff>1</staff>
                <beam number="1">end</beam>
                <lyric number="1">
                    <syllabic>single</syllabic>
                    <text>ein</text>
                </lyric>
            </note>
            <backup>
                <duration>8</duration>
            </backup>
            <note>
                <rest/>
                <duration>8</duration>
                <voice>5</voice>
                <type>whole</type>
                <staff>2</staff>
            </note>
        </measure>
        <measure width="243.37" number="2">
            <harmony print-frame="no">
                <root>
                    <root-step>F</root-step>
                </root>
                <kind text="">major</kind>
                <staff>1</staff>
            </harmony>
            <note default-y="-25.00" default-x="23.21" dynamics="75.56">
                <pitch>
                    <step>A</step>
                    <octave>4</octave>
                </pitch>
                <duration>2</duration>
                <voice>1</voice>
                <type>quarter</type>
                <stem>up</stem>
                <staff>1</staff>
                <lyric number="1">
                    <syllabic>begin</syllabic>
                    <text>Po</text>
                </lyric>
            </note>
            <note default-y="-35.00" default-x="77.85" dynamics="84.44">
                <pitch>
                    <step>F</step>
                    <octave>4</octave>
                </pitch>
                <duration>2</duration>
                <voice>1</voice>
                <type>quarter</type>
                <stem>up</stem>
                <staff>1</staff>
                <lyric number="1">
                    <syllabic>end</syllabic>
                    <text>ny</text>
                </lyric>
            </note>
            <note default-y="-25.00" default-x="132.49" dynamics="62.22">
                <pitch>
                    <step>A</step>
                    <octave>4</octave>
                </pitch>
                <duration>2</duration>
                <voice>1</voice>
                <type>quarter</type>
                <stem>up</stem>
                <staff>1</staff>
                <lyric number="1">
                    <syllabic>single</syllabic>
                    <text>das</text>
                </lyric>
            </note>
            <note default-y="-30.00" default-x="187.13" dynamics="68.89">
                <pitch>
                    <step>G</step>
                    <octave>4</octave>
                </pitch>
                <duration>2</duration>
                <voice>1</voice>
                <type>quarter</type>
                <stem>up</stem>
                <staff>1</staff>
                <lyric number="1">
                    <syllabic>single</syllabic>
                    <text>kann</text>
                </lyric>
            </note>
            <backup>
                <duration>8</duration>
            </backup>
            <note default-y="-154.34" default-x="23.21" dynamics="44.44">
                <pitch>
                    <step>F</step>
                    <octave>3</octave>
                </pitch>
                <duration>2</duration>
                <voice>5</voice>
                <type>quarter</type>
                <stem>down</stem>
                <staff>2</staff>
            </note>
            <note default-y="-144.34" default-x="23.21" dynamics="61.11">
                <chord/>
                <pitch>
                    <step>A</step>
                    <octave>3</octave>
                </pitch>
                <duration>2</duration>
                <voice>5</voice>
                <type>quarter</type>
                <stem>down</stem>
                <staff>2</staff>
            </note>
            <note default-y="-134.34" default-x="23.21" dynamics="60.00">
                <chord/>
                <pitch>
                    <step>C</step>
                    <octave>4</octave>
                </pitch>
                <duration>2</duration>
                <voice>5</voice>
                <type>quarter</type>
                <stem>down</stem>
                <staff>2</staff>
            </note>
            <note>
                <rest/>
                <duration>2</duration>
                <voice>5</voice>
                <type>quarter</type>
                <staff>2</staff>
            </note>
            <note default-y="-154.34" default-x="132.49" dynamics="47.78">
                <pitch>
                    <step>F</step>
                    <octave>3</octave>
                </pitch>
                <duration>2</duration>
                <voice>5</voice>
                <type>quarter</type>
                <stem>down</stem>
                <staff>2</staff>
            </note>
            <note default-y="-144.34" default-x="132.49" dynamics="63.33">
                <chord/>
                <pitch>
                    <step>A</step>
                    <octave>3</octave>
                </pitch>
                <duration>2</duration>
                <voice>5</voice>
                <type>quarter</type>
                <stem>down</stem>
                <staff>2</staff>
            </note>
            <note default-y="-134.34" default-x="132.49" dynamics="51.11">
                <chord/>
                <pitch>
                    <step>C</step>
                    <octave>4</octave>
                </pitch>
                <duration>2</duration>
                <voice>5</voice>
                <type>quarter</type>
                <stem>down</stem>
                <staff>2</staff>
            </note>
            <note>
                <rest/>
                <duration>2</duration>
                <voice>5</voice>
                <type>quarter</type>
                <staff>2</staff>
            </note>
        </measure>
        <measure width="210.07" number="3">
            <harmony print-frame="no">
                <root>
                    <root-step>B</root-step>
                    <root-alter>-1</root-alter>
                </root>
                <kind text="">major</kind>
                <staff>1</staff>
            </harmony>
            <note default-y="-35.00" default-x="13.52" dynamics="83.33">
                <pitch>
                    <step>F</step>
                    <octave>4</octave>
                </pitch>
                <duration>2</duration>
                <voice>1</voice>
                <type>quarter</type>
                <stem>up</stem>
                <staff>1</staff>
                <lyric number="1">
                    <syllabic>begin</syllabic>
                    <text>al</text>
                </lyric>
            </note>
            <note default-y="-45.00" default-x="57.97" dynamics="70.00">
                <pitch>
                    <step>D</step>
                    <octave>4</octave>
                </pitch>
                <duration>4</duration>
                <voice>1</voice>
                <type>half</type>
                <stem>up</stem>
                <staff>1</staff>
                <lyric number="1">
                    <syllabic>end</syllabic>
                    <text>les,</text>
                </lyric>
            </note>
            <note default-y="-35.00" default-x="146.88" dynamics="83.33">
                <pitch>
                    <step>F</step>
                    <octave>4</octave>
                </pitch>
                <duration>1</duration>
                <voice>1</voice>
                <type>eighth</type>
                <stem>up</stem>
                <staff>1</staff>
                <beam number="1">begin</beam>
                <lyric number="1">
                    <syllabic>single</syllabic>
                    <text>ja</text>
                </lyric>
            </note>
            <note default-y="-30.00" default-x="180.68" dynamics="57.78">
                <pitch>
                    <step>G</step>
                    <octave>4</octave>
                </pitch>
                <duration>1</duration>
                <voice>1</voice>
                <type>eighth</type>
                <stem>up</stem>
                <staff>1</staff>
                <beam number="1">end</beam>
                <lyric number="1">
                    <syllabic>single</syllabic>
                    <text>das</text>
                </lyric>
            </note>
            <backup>
                <duration>8</duration>
            </backup>
            <note default-y="-154.34" default-x="13.52" dynamics="57.78">
                <pitch>
                    <step>F</step>
                    <octave>3</octave>
                </pitch>
                <duration>2</duration>
                <voice>5</voice>
                <type>quarter</type>
                <stem>down</stem>
                <staff>2</staff>
            </note>
            <note default-y="-139.34" default-x="13.52" dynamics="67.78">
                <chord/>
                <pitch>
                    <step>B</step>
                    <alter>-1</alter>
                    <octave>3</octave>
                </pitch>
                <duration>2</duration>
                <voice>5</voice>
                <type>quarter</type>
                <stem>down</stem>
                <staff>2</staff>
            </note>
            <note default-y="-129.34" default-x="13.52" dynamics="54.44">
                <chord/>
                <pitch>
                    <step>D</step>
                    <octave>4</octave>
                </pitch>
                <duration>2</duration>
                <voice>5</voice>
                <type>quarter</type>
                <stem>down</stem>
                <staff>2</staff>
            </note>
            <note>
                <rest/>
                <duration>2</duration>
                <voice>5</voice>
                <type>quarter</type>
                <staff>2</staff>
            </note>
            <note default-y="-154.34" default-x="102.43" dynamics="51.11">
                <pitch>
                    <step>F</step>
                    <octave>3</octave>
                </pitch>
                <duration>2</duration>
                <voice>5</voice>
                <type>quarter</type>
                <stem>down</stem>
                <staff>2</staff>
            </note>
            <note default-y="-139.34" default-x="102.43" dynamics="61.11">
                <chord/>
                <pitch>
                    <step>B</step>
                    <alter>-1</alter>
                    <octave>3</octave>
                </pitch>
                <duration>2</duration>
                <voice>5</voice>
                <type>quarter</type>
                <stem>down</stem>
                <staff>2</staff>
            </note>
            <note default-y="-129.34" default-x="102.43" dynamics="48.89">
                <chord/>
                <pitch>
                    <step>D</step>
                    <octave>4</octave>
                </pitch>
                <duration>2</duration>
                <voice>5</voice>
                <type>quarter</type>
                <stem>down</stem>
                <staff>2</staff>
            </note>
            <note>
                <rest/>
                <duration>2</duration>
                <voice>5</voice>
                <type>quarter</type>
                <staff>2</staff>
            </note>
        </measure>
        <measure width="258.99" number="4">
            <harmony print-frame="no">
                <root>
                    <root-step>F</root-step>
                </root>
                <kind text="">major</kind>
                <staff>1</staff>
            </harmony>
            <note default-y="-25.00" default-x="27.46" dynamics="73.33">
                <pitch>
                    <step>A</step>
                    <octave>4</octave>
                </pitch>
                <duration>2</duration>
                <voice>1</voice>
                <type>quarter</type>
                <stem>up</stem>
                <staff>1</staff>
                <lyric number="1">
                    <syllabic>single</syllabic>
                    <text>weiß</text>
                </lyric>
            </note>
            <note default-y="-15.00" default-x="84.94" dynamics="73.33">
                <pitch>
                    <step>C</step>
                    <octave>5</octave>
                </pitch>
                <duration>2</duration>
                <voice>1</voice>
                <type>quarter</type>
                <stem>down</stem>
                <staff>1</staff>
                <lyric number="1">
                    <syllabic>single</syllabic>
                    <text>viel</text>
                </lyric>
            </note>
            <note default-y="-10.00" default-x="142.43" dynamics="81.11">
                <pitch>
                    <step>D</step>
                    <octave>5</octave>
                </pitch>
                <duration>2</duration>
                <voice>1</voice>
                <type>quarter</type>
                <stem>down</stem>
                <staff>1</staff>
                <lyric number="1">
                    <syllabic>single</syllabic>
                    <text>mehr</text>
                </lyric>
            </note>
            <note default-y="-15.00" default-x="199.91" dynamics="68.89">
                <pitch>
                    <step>C</step>
                    <octave>5</octave>
                </pitch>
                <duration>2</duration>
                <voice>1</voice>
                <type>quarter</type>
                <stem>down</stem>
                <staff>1</staff>
                <lyric number="1">
                    <syllabic>single</syllabic>
                    <text>als</text>
                </lyric>
            </note>
            <backup>
                <duration>8</duration>
            </backup>
            <note default-y="-154.34" default-x="27.46" dynamics="43.33">
                <pitch>
                    <step>F</step>
                    <octave>3</octave>
                </pitch>
                <duration>2</duration>
                <voice>5</voice>
                <type>quarter</type>
                <stem>down</stem>
                <staff>2</staff>
            </note>
            <note default-y="-144.34" default-x="27.46" dynamics="64.44">
                <chord/>
                <pitch>
                    <step>A</step>
                    <octave>3</octave>
                </pitch>
                <duration>2</duration>
                <voice>5</voice>
                <type>quarter</type>
                <stem>down</stem>
                <staff>2</staff>
            </note>
            <note default-y="-134.34" default-x="27.46" dynamics="46.67">
                <chord/>
                <pitch>
                    <step>C</step>
                    <octave>4</octave>
                </pitch>
                <duration>2</duration>
                <voice>5</voice>
                <type>quarter</type>
                <stem>down</stem>
                <staff>2</staff>
            </note>
            <note>
                <rest/>
                <duration>2</duration>
                <voice>5</voice>
                <type>quarter</type>
                <staff>2</staff>
            </note>
            <note default-y="-154.34" default-x="142.43" dynamics="47.78">
                <pitch>
                    <step>F</step>
                    <octave>3</octave>
                </pitch>
                <duration>2</duration>
                <voice>5</voice>
                <type>quarter</type>
                <stem>down</stem>
                <staff>2</staff>
            </note>
            <note default-y="-144.34" default-x="142.43" dynamics="66.67">
                <chord/>
                <pitch>
                    <step>A</step>
                    <octave>3</octave>
                </pitch>
                <duration>2</duration>
                <voice>5</voice>
                <type>quarter</type>
                <stem>down</stem>
                <staff>2</staff>
            </note>
            <note default-y="-134.34" default-x="142.43" dynamics="50.00">
                <chord/>
                <pitch>
                    <step>C</step>
                    <octave>4</octave>
                </pitch>
                <duration>2</duration>
                <voice>5</voice>
                <type>quarter</type>
                <stem>down</stem>
                <staff>2</staff>
            </note>
            <note>
                <rest/>
                <duration>2</duration>
                <voice>5</voice>
                <type>quarter</type>
                <staff>2</staff>
            </note>
        </measure>
        <measure width="258.02" number="5">
            <print new-system="yes">
                <system-layout>
                    <system-margins>
                        <left-margin>18.50</left-margin>
                        <right-margin>0.00</right-margin>
                    </system-margins>
                    <system-distance>154.71</system-distance>
                </system-layout>
                <staff-layout number="2">
                    <staff-distance>104.34</staff-distance>
                </staff-layout>
            </print>
            <harmony print-frame="no">
                <root>
                    <root-step>C</root-step>
                </root>
                <kind text="">major</kind>
                <staff>1</staff>
            </harmony>
            <note default-y="-30.00" default-x="78.08" dynamics="62.22">
                <pitch>
                    <step>G</step>
                    <octave>4</octave>
                </pitch>
                <duration>4</duration>
                <tie type="start"/>
                <voice>1</voice>
                <type>half</type>
                <stem>up</stem>
                <staff>1</staff>
                <notations>
                    <tied type="start"/>
                </notations>
                <lyric number="1">
                    <syllabic>single</syllabic>
                    <text>ihr</text>
                </lyric>
            </note>
            <note default-y="-30.00" default-x="148.18" dynamics="62.22">
                <pitch>
                    <step>G</step>
                    <octave>4</octave>
                </pitch>
                <duration>2</duration>
                <tie type="stop"/>
                <voice>1</voice>
                <type>quarter</type>
                <stem>up</stem>
                <staff>1</staff>
                <notations>
                    <tied type="stop"/>
                </notations>
            </note>
            <note default-y="-35.00" default-x="192.28" dynamics="87.78">
                <pitch>
                    <step>F</step>
                    <octave>4</octave>
                </pitch>
                <duration>1</duration>
                <voice>1</voice>
                <type>eighth</type>
                <stem>up</stem>
                <staff>1</staff>
                <beam number="1">begin</beam>
                <lyric number="1">
                    <syllabic>begin</syllabic>
                    <text>Könn</text>
                </lyric>
            </note>
            <note default-y="-30.00" default-x="233.26" dynamics="63.33">
                <pitch>
                    <step>G</step>
                    <octave>4</octave>
                </pitch>
                <duration>1</duration>
                <voice>1</voice>
                <type>eighth</type>
                <stem>up</stem>
                <staff>1</staff>
                <beam number="1">end</beam>
                <lyric number="1">
                    <syllabic>end</syllabic>
                    <text>te</text>
                </lyric>
            </note>
            <backup>
                <duration>8</duration>
            </backup>
            <note default-y="-159.34" default-x="78.08" dynamics="42.22">
                <pitch>
                    <step>E</step>
                    <octave>3</octave>
                </pitch>
                <duration>2</duration>
                <voice>5</voice>
                <type>quarter</type>
                <stem>down</stem>
                <staff>2</staff>
            </note>
            <note default-y="-149.34" default-x="78.08" dynamics="54.44">
                <chord/>
                <pitch>
                    <step>G</step>
                    <octave>3</octave>
                </pitch>
                <duration>2</duration>
                <voice>5</voice>
                <type>quarter</type>
                <stem>down</stem>
                <staff>2</staff>
            </note>
            <note default-y="-134.34" default-x="78.08" dynamics="45.56">
                <chord/>
                <pitch>
                    <step>C</step>
                    <octave>4</octave>
                </pitch>
                <duration>2</duration>
                <voice>5</voice>
                <type>quarter</type>
                <stem>down</stem>
                <staff>2</staff>
            </note>
            <note>
                <rest/>
                <duration>2</duration>
                <voice>5</voice>
                <type>quarter</type>
                <staff>2</staff>
            </note>
            <note default-y="-159.34" default-x="148.18" dynamics="43.33">
                <pitch>
                    <step>E</step>
                    <octave>3</octave>
                </pitch>
                <duration>2</duration>
                <voice>5</voice>
                <type>quarter</type>
                <stem>down</stem>
                <staff>2</staff>
            </note>
            <note default-y="-149.34" default-x="148.18" dynamics="57.78">
                <chord/>
                <pitch>
                    <step>G</step>
                    <octave>3</octave>
                </pitch>
                <duration>2</duration>
                <voice>5</voice>
                <type>quarter</type>
                <stem>down</stem>
                <staff>2</staff>
            </note>
            <note default-y="-134.34" default-x="148.18" dynamics="50.00">
                <chord/>
                <pitch>
                    <step>C</step>
                    <octave>4</octave>
                </pitch>
                <duration>2</duration>
                <voice>5</voice>
                <type>quarter</type>
                <stem>down</stem>
                <staff>2</staff>
            </note>
            <note>
                <rest/>
                <duration>2</duration>
                <voice>5</voice>
                <type>quarter</type>
                <staff>2</staff>
            </note>
        </measure>
        <measure width="201.55" number="6">
            <harmony print-frame="no">
                <root>
                    <root-step>F</root-step>
                </root>
                <kind text="">major</kind>
                <staff>1</staff>
            </harmony>
            <note default-y="-25.00" default-x="28.64" dynamics="80.00">
                <pitch>
                    <step>A</step>
                    <octave>4</octave>
                </pitch>
                <duration>2</duration>
                <voice>1</voice>
                <type>quarter</type>
                <stem>up</stem>
                <staff>1</staff>
                <lyric number="1">
                    <syllabic>single</syllabic>
                    <text>es</text>
                </lyric>
            </note>
            <note default-y="-15.00" default-x="71.47" dynamics="86.67">
                <pitch>
                    <step>C</step>
                    <octave>5</octave>
                </pitch>
                <duration>2</duration>
                <voice>1</voice>
                <type>quarter</type>
                <stem>down</stem>
                <staff>1</staff>
                <lyric number="1">
                    <syllabic>single</syllabic>
                    <text>noch</text>
                </lyric>
            </note>
            <harmony print-frame="no">
                <root>
                    <root-step>F</root-step>
                </root>
                <kind text="7">dominant</kind>
                <staff>1</staff>
            </harmony>
            <note default-y="-25.00" default-x="114.30" dynamics="71.11">
                <pitch>
                    <step>A</step>
                    <octave>4</octave>
                </pitch>
                <duration>2</duration>
                <voice>1</voice>
                <type>quarter</type>
                <stem>up</stem>
                <staff>1</staff>
                <lyric number="1">
                    <syllabic>begin</syllabic>
                    <text>Ei</text>
                </lyric>
            </note>
            <note default-y="-35.00" default-x="157.12" dynamics="90.00">
                <pitch>
                    <step>F</step>
                    <octave>4</octave>
                </pitch>
                <duration>2</duration>
                <voice>1</voice>
                <type>quarter</type>
                <stem>up</stem>
                <staff>1</staff>
                <lyric number="1">
                    <syllabic>end</syllabic>
                    <text>er</text>
                </lyric>
            </note>
            <backup>
                <duration>8</duration>
            </backup>
            <note default-y="-154.34" default-x="28.64">
                <pitch>
                    <step>F</step>
                    <octave>3</octave>
                </pitch>
                <duration>2</duration>
                <voice>5</voice>
                <type>quarter</type>
                <stem>down</stem>
                <staff>2</staff>
            </note>
            <note default-y="-144.34" default-x="28.64">
                <chord/>
                <pitch>
                    <step>A</step>
                    <octave>3</octave>
                </pitch>
                <duration>2</duration>
                <voice>5</voice>
                <type>quarter</type>
                <stem>down</stem>
                <staff>2</staff>
            </note>
            <note default-y="-134.34" default-x="28.64">
                <chord/>
                <pitch>
                    <step>C</step>
                    <octave>4</octave>
                </pitch>
                <duration>2</duration>
                <voice>5</voice>
                <type>quarter</type>
                <stem>down</stem>
                <staff>2</staff>
            </note>
            <note>
                <rest/>
                <duration>2</duration>
                <voice>5</voice>
                <type>quarter</type>
                <staff>2</staff>
            </note>
            <note default-y="-154.34" default-x="114.30" dynamics="46.67">
                <pitch>
                    <step>F</step>
                    <octave>3</octave>
                </pitch>
                <duration>2</duration>
                <voice>5</voice>
                <type>quarter</type>
                <stem>down</stem>
                <staff>2</staff>
            </note>
            <note default-y="-134.34" default-x="114.30" dynamics="70.00">
                <chord/>
                <pitch>
                    <step>C</step>
                    <octave>4</octave>
                </pitch>
                <duration>2</duration>
                <voice>5</voice>
                <type>quarter</type>
                <stem>down</stem>
                <staff>2</staff>
            </note>
            <note default-y="-124.34" default-x="114.30" dynamics="64.44">
                <chord/>
                <pitch>
                    <step>E</step>
                    <alter>-1</alter>
                    <octave>4</octave>
                </pitch>
                <duration>2</duration>
                <voice>5</voice>
                <type>quarter</type>
                <accidental>flat</accidental>
                <stem>down</stem>
                <staff>2</staff>
            </note>
            <note>
                <rest/>
                <duration>2</duration>
                <voice>5</voice>
                <type>quarter</type>
                <staff>2</staff>
            </note>
        </measure>
        <measure width="199.19" number="7">
            <harmony print-frame="no">
                <root>
                    <root-step>B</root-step>
                    <root-alter>-1</root-alter>
                </root>
                <kind text="">major</kind>
                <staff>1</staff>
            </harmony>
            <note default-y="-45.00" default-x="27.55" dynamics="87.78">
                <pitch>
                    <step>D</step>
                    <octave>4</octave>
                </pitch>
                <duration>2</duration>
                <voice>1</voice>
                <type>quarter</type>
                <stem>up</stem>
                <staff>1</staff>
                <lyric number="1">
                    <syllabic>begin</syllabic>
                    <text>le</text>
                </lyric>
            </note>
            <note default-y="-20.00" default-x="66.29" dynamics="67.78">
                <pitch>
                    <step>B</step>
                    <alter>-1</alter>
                    <octave>4</octave>
                </pitch>
                <duration>4</duration>
                <voice>1</voice>
                <type>half</type>
                <stem>down</stem>
                <staff>1</staff>
                <lyric number="1">
                    <syllabic>end</syllabic>
                    <text>gen,</text>
                </lyric>
            </note>
            <note default-y="-15.00" default-x="143.78" dynamics="63.33">
                <pitch>
                    <step>C</step>
                    <octave>5</octave>
                </pitch>
                <duration>1</duration>
                <voice>1</voice>
                <type>eighth</type>
                <stem>down</stem>
                <staff>1</staff>
                <beam number="1">begin</beam>
                <lyric number="1">
                    <syllabic>begin</syllabic>
                    <text>wä</text>
                </lyric>
            </note>
            <note default-y="-20.00" default-x="173.37" dynamics="67.78">
                <pitch>
                    <step>B</step>
                    <alter>-1</alter>
                    <octave>4</octave>
                </pitch>
                <duration>1</duration>
                <voice>1</voice>
                <type>eighth</type>
                <stem>down</stem>
                <staff>1</staff>
                <beam number="1">end</beam>
                <lyric number="1">
                    <syllabic>end</syllabic>
                    <text>re</text>
                </lyric>
            </note>
            <backup>
                <duration>8</duration>
            </backup>
            <note default-y="-154.34" default-x="27.55" dynamics="56.67">
                <pitch>
                    <step>F</step>
                    <octave>3</octave>
                </pitch>
                <duration>2</duration>
                <voice>5</voice>
                <type>quarter</type>
                <stem>down</stem>
                <staff>2</staff>
            </note>
            <note default-y="-139.34" default-x="27.55" dynamics="55.56">
                <chord/>
                <pitch>
                    <step>B</step>
                    <alter>-1</alter>
                    <octave>3</octave>
                </pitch>
                <duration>2</duration>
                <voice>5</voice>
                <type>quarter</type>
                <stem>down</stem>
                <staff>2</staff>
            </note>
            <note default-y="-129.34" default-x="27.55" dynamics="60.00">
                <chord/>
                <pitch>
                    <step>D</step>
                    <octave>4</octave>
                </pitch>
                <duration>2</duration>
                <voice>5</voice>
                <type>quarter</type>
                <stem>down</stem>
                <staff>2</staff>
            </note>
            <note>
                <rest/>
                <duration>2</duration>
                <voice>5</voice>
                <type>quarter</type>
                <staff>2</staff>
            </note>
            <note default-y="-154.34" default-x="105.03" dynamics="47.78">
                <pitch>
                    <step>F</step>
                    <octave>3</octave>
                </pitch>
                <duration>2</duration>
                <voice>5</voice>
                <type>quarter</type>
                <stem>down</stem>
                <staff>2</staff>
            </note>
            <note default-y="-139.34" default-x="105.03" dynamics="70.00">
                <chord/>
                <pitch>
                    <step>B</step>
                    <alter>-1</alter>
                    <octave>3</octave>
                </pitch>
                <duration>2</duration>
                <voice>5</voice>
                <type>quarter</type>
                <stem>down</stem>
                <staff>2</staff>
            </note>
            <note default-y="-129.34" default-x="105.03" dynamics="60.00">
                <chord/>
                <pitch>
                    <step>D</step>
                    <octave>4</octave>
                </pitch>
                <duration>2</duration>
                <voice>5</voice>
                <type>quarter</type>
                <stem>down</stem>
                <staff>2</staff>
            </note>
            <note>
                <rest/>
                <duration>2</duration>
                <voice>5</voice>
                <type>quarter</type>
                <staff>2</staff>
            </note>
        </measure>
        <measure width="216.30" number="8">
            <harmony print-frame="no">
                <root>
                    <root-step>F</root-step>
                </root>
                <kind text="">major</kind>
                <staff>1</staff>
            </harmony>
            <note default-y="-25.00" default-x="28.64" dynamics="65.56">
                <pitch>
                    <step>A</step>
                    <octave>4</octave>
                </pitch>
                <duration>2</duration>
                <voice>1</voice>
                <type>quarter</type>
                <stem>up</stem>
                <staff>1</staff>
                <lyric number="1">
                    <syllabic>single</syllabic>
                    <text>es</text>
                </lyric>
            </note>
            <note default-y="-35.00" default-x="75.16" dynamics="85.56">
                <pitch>
                    <step>F</step>
                    <octave>4</octave>
                </pitch>
                <duration>2</duration>
                <voice>1</voice>
                <type>quarter</type>
                <stem>up</stem>
                <staff>1</staff>
                <lyric number="1">
                    <syllabic>single</syllabic>
                    <text>ein</text>
                </lyric>
            </note>
            <harmony print-frame="no">
                <root>
                    <root-step>C</root-step>
                </root>
                <kind text="">major</kind>
                <staff>1</staff>
            </harmony>
            <note default-y="-50.00" default-x="121.67" dynamics="90.00">
                <pitch>
                    <step>C</step>
                    <octave>4</octave>
                </pitch>
                <duration>2</duration>
                <voice>1</voice>
                <type>quarter</type>
                <stem>up</stem>
                <staff>1</staff>
                <lyric number="1">
                    <syllabic>begin</syllabic>
                    <text>Wun</text>
                </lyric>
            </note>
            <note default-y="-40.00" default-x="168.19" dynamics="75.56">
                <pitch>
                    <step>E</step>
                    <octave>4</octave>
                </pitch>
                <duration>2</duration>
                <voice>1</voice>
                <type>quarter</type>
                <stem>up</stem>
                <staff>1</staff>
                <lyric number="1">
                    <syllabic>middle</syllabic>
                    <text>der</text>
                </lyric>
            </note>
            <backup>
                <duration>8</duration>
            </backup>
            <note default-y="-154.34" default-x="28.64" dynamics="53.33">
                <pitch>
                    <step>F</step>
                    <octave>3</octave>
                </pitch>
                <duration>2</duration>
                <voice>5</voice>
                <type>quarter</type>
                <stem>down</stem>
                <staff>2</staff>
            </note>
            <note default-y="-144.34" default-x="28.64" dynamics="62.22">
                <chord/>
                <pitch>
                    <step>A</step>
                    <octave>3</octave>
                </pitch>
                <duration>2</duration>
                <voice>5</voice>
                <type>quarter</type>
                <stem>down</stem>
                <staff>2</staff>
            </note>
            <note default-y="-134.34" default-x="28.64" dynamics="47.78">
                <chord/>
                <pitch>
                    <step>C</step>
                    <octave>4</octave>
                </pitch>
                <duration>2</duration>
                <voice>5</voice>
                <type>quarter</type>
                <stem>down</stem>
                <staff>2</staff>
            </note>
            <note>
                <rest/>
                <duration>2</duration>
                <voice>5</voice>
                <type>quarter</type>
                <staff>2</staff>
            </note>
            <note default-y="-159.34" default-x="121.67" dynamics="48.89">
                <pitch>
                    <step>E</step>
                    <octave>3</octave>
                </pitch>
                <duration>2</duration>
                <voice>5</voice>
                <type>quarter</type>
                <stem>down</stem>
                <staff>2</staff>
            </note>
            <note default-y="-149.34" default-x="121.67" dynamics="55.56">
                <chord/>
                <pitch>
                    <step>G</step>
                    <octave>3</octave>
                </pitch>
                <duration>2</duration>
                <voice>5</voice>
                <type>quarter</type>
                <stem>down</stem>
                <staff>2</staff>
            </note>
            <note default-y="-134.34" default-x="121.67" dynamics="50.00">
                <chord/>
                <pitch>
                    <step>C</step>
                    <octave>4</octave>
                </pitch>
                <duration>2</duration>
                <voice>5</voice>
                <type>quarter</type>
                <stem>down</stem>
                <staff>2</staff>
            </note>
            <note>
                <rest/>
                <duration>2</duration>
                <voice>5</voice>
                <type>quarter</type>
                <staff>2</staff>
            </note>
        </measure>
        <measure width="183.60" number="9">
            <harmony print-frame="no">
                <root>
                    <root-step>F</root-step>
                </root>
                <kind text="">major</kind>
                <staff>1</staff>
            </harmony>
            <note default-y="-35.00" default-x="20.57" dynamics="68.89">
                <pitch>
                    <step>F</step>
                    <octave>4</octave>
                </pitch>
                <duration>4</duration>
                <tie type="start"/>
                <voice>1</voice>
                <type>half</type>
                <stem>up</stem>
                <staff>1</staff>
                <notations>
                    <tied type="start"/>
                </notations>
                <lyric number="1">
                    <syllabic>end</syllabic>
                    <text>tier</text>
                </lyric>
            </note>
            <note default-y="-35.00" default-x="90.66">
                <pitch>
                    <step>F</step>
                    <octave>4</octave>
                </pitch>
                <duration>2</duration>
                <tie type="stop"/>
                <voice>1</voice>
                <type>quarter</type>
                <stem>up</stem>
                <staff>1</staff>
                <notations>
                    <tied type="stop"/>
                </notations>
            </note>
            <note default-y="0.00" default-x="126.31">
                <pitch>
                    <step>F</step>
                    <octave>5</octave>
                </pitch>
                <duration>1</duration>
                <voice>1</voice>
                <type>eighth</type>
                <stem>down</stem>
                <staff>1</staff>
                <beam number="1">begin</beam>
                <lyric number="1">
                    <syllabic>begin</syllabic>
                    <text>Hol</text>
                </lyric>
            </note>
            <note default-y="-10.00" default-x="158.84">
                <pitch>
                    <step>D</step>
                    <octave>5</octave>
                </pitch>
                <duration>1</duration>
                <voice>1</voice>
                <type>eighth</type>
                <stem>down</stem>
                <staff>1</staff>
                <beam number="1">end</beam>
                <lyric number="1">
                    <syllabic>end</syllabic>
                    <text>la</text>
                </lyric>
            </note>
            <backup>
                <duration>8</duration>
            </backup>
            <note default-y="-154.34" default-x="20.57" dynamics="50.00">
                <pitch>
                    <step>F</step>
                    <octave>3</octave>
                </pitch>
                <duration>2</duration>
                <voice>5</voice>
                <type>quarter</type>
                <stem>down</stem>
                <staff>2</staff>
            </note>
            <note default-y="-144.34" default-x="20.57" dynamics="72.22">
                <chord/>
                <pitch>
                    <step>A</step>
                    <octave>3</octave>
                </pitch>
                <duration>2</duration>
                <voice>5</voice>
                <type>quarter</type>
                <stem>down</stem>
                <staff>2</staff>
            </note>
            <note default-y="-134.34" default-x="20.57" dynamics="55.56">
                <chord/>
                <pitch>
                    <step>C</step>
                    <octave>4</octave>
                </pitch>
                <duration>2</duration>
                <voice>5</voice>
                <type>quarter</type>
                <stem>down</stem>
                <staff>2</staff>
            </note>
            <note>
                <rest/>
                <duration>2</duration>
                <voice>5</voice>
                <type>quarter</type>
                <staff>2</staff>
            </note>
            <note default-y="-154.34" default-x="90.66" dynamics="52.22">
                <pitch>
                    <step>F</step>
                    <octave>3</octave>
                </pitch>
                <duration>2</duration>
                <voice>5</voice>
                <type>quarter</type>
                <stem>down</stem>
                <staff>2</staff>
            </note>
            <note default-y="-144.34" default-x="90.66" dynamics="65.56">
                <chord/>
                <pitch>
                    <step>A</step>
                    <octave>3</octave>
                </pitch>
                <duration>2</duration>
                <voice>5</voice>
                <type>quarter</type>
                <stem>down</stem>
                <staff>2</staff>
            </note>
            <note default-y="-134.34" default-x="90.66" dynamics="62.22">
                <chord/>
                <pitch>
                    <step>C</step>
                    <octave>4</octave>
                </pitch>
                <duration>2</duration>
                <voice>5</voice>
                <type>quarter</type>
                <stem>down</stem>
                <staff>2</staff>
            </note>
            <note>
                <rest/>
                <duration>2</duration>
                <voice>5</voice>
                <type>quarter</type>
                <staff>2</staff>
            </note>
        </measure>
        <measure width="236.89" number="10">
            <print new-system="yes">
                <system-layout>
                    <system-margins>
                        <left-margin>18.50</left-margin>
                        <right-margin>0.00</right-margin>
                    </system-margins>
                    <system-distance>154.71</system-distance>
                </system-layout>
                <staff-layout number="2">
                    <staff-distance>104.34</staff-distance>
                </staff-layout>
            </print>
            <harmony print-frame="no">
                <root>
                    <root-step>B</root-step>
                    <root-alter>-1</root-alter>
                </root>
                <kind text="">major</kind>
                <staff>1</staff>
            </harmony>
            <note default-y="0.00" default-x="77.03">
                <pitch>
                    <step>F</step>
                    <octave>5</octave>
                </pitch>
                <duration>6</duration>
                <voice>1</voice>
                <type>half</type>
                <dot/>
                <stem>down</stem>
                <staff>1</staff>
                <lyric number="1">
                    <syllabic>single</syllabic>
                    <text>ho</text>
                </lyric>
            </note>
            <note default-y="-20.00" default-x="179.60" dynamics="55.56">
                <pitch>
                    <step>B</step>
                    <alter>-1</alter>
                    <octave>4</octave>
                </pitch>
                <duration>1</duration>
                <voice>1</voice>
                <type>eighth</type>
                <stem>down</stem>
                <staff>1</staff>
                <beam number="1">begin</beam>
                <lyric number="1">
                    <syllabic>begin</syllabic>
                    <text>Hol</text>
                </lyric>
            </note>
            <note default-y="-10.00" default-x="212.13" dynamics="67.78">
                <pitch>
                    <step>D</step>
                    <octave>5</octave>
                </pitch>
                <duration>1</duration>
                <voice>1</voice>
                <type>eighth</type>
                <stem>down</stem>
                <staff>1</staff>
                <beam number="1">end</beam>
                <lyric number="1">
                    <syllabic>end</syllabic>
                    <text>la</text>
                </lyric>
            </note>
            <backup>
                <duration>8</duration>
            </backup>
            <note default-y="-154.34" default-x="77.03">
                <pitch>
                    <step>F</step>
                    <octave>3</octave>
                </pitch>
                <duration>2</duration>
                <voice>5</voice>
                <type>quarter</type>
                <stem>down</stem>
                <staff>2</staff>
            </note>
            <note default-y="-139.34" default-x="77.03">
                <chord/>
                <pitch>
                    <step>B</step>
                    <alter>-1</alter>
                    <octave>3</octave>
                </pitch>
                <duration>2</duration>
                <voice>5</voice>
                <type>quarter</type>
                <stem>down</stem>
                <staff>2</staff>
            </note>
            <note default-y="-129.34" default-x="77.03">
                <chord/>
                <pitch>
                    <step>D</step>
                    <octave>4</octave>
                </pitch>
                <duration>2</duration>
                <voice>5</voice>
                <type>quarter</type>
                <stem>down</stem>
                <staff>2</staff>
            </note>
            <note>
                <rest/>
                <duration>2</duration>
                <voice>5</voice>
                <type>quarter</type>
                <staff>2</staff>
            </note>
            <note default-y="-154.34" default-x="145.41" dynamics="47.78">
                <pitch>
                    <step>F</step>
                    <octave>3</octave>
                </pitch>
                <duration>2</duration>
                <voice>5</voice>
                <type>quarter</type>
                <stem>down</stem>
                <staff>2</staff>
            </note>
            <note default-y="-139.34" default-x="145.41" dynamics="71.11">
                <chord/>
                <pitch>
                    <step>B</step>
                    <alter>-1</alter>
                    <octave>3</octave>
                </pitch>
                <duration>2</duration>
                <voice>5</voice>
                <type>quarter</type>
                <stem>down</stem>
                <staff>2</staff>
            </note>
            <note default-y="-129.34" default-x="145.41" dynamics="55.56">
                <chord/>
                <pitch>
                    <step>D</step>
                    <octave>4</octave>
                </pitch>
                <duration>2</duration>
                <voice>5</voice>
                <type>quarter</type>
                <stem>down</stem>
                <staff>2</staff>
            </note>
            <note>
                <rest/>
                <duration>2</duration>
                <voice>5</voice>
                <type>quarter</type>
                <staff>2</staff>
            </note>
        </measure>
        <measure width="188.96" number="11">
            <harmony print-frame="no">
                <root>
                    <root-step>F</root-step>
                </root>
                <kind text="">major</kind>
                <staff>1</staff>
            </harmony>
            <note default-y="-15.00" default-x="17.10" dynamics="82.22">
                <pitch>
                    <step>C</step>
                    <octave>5</octave>
                </pitch>
                <duration>4</duration>
                <tie type="start"/>
                <voice>1</voice>
                <type>half</type>
                <stem>down</stem>
                <staff>1</staff>
                <notations>
                    <tied type="start"/>
                </notations>
                <lyric number="1">
                    <syllabic>single</syllabic>
                    <text>ho</text>
                </lyric>
            </note>
            <note default-y="-15.00" default-x="94.71">
                <pitch>
                    <step>C</step>
                    <octave>5</octave>
                </pitch>
                <duration>2</duration>
                <tie type="stop"/>
                <voice>1</voice>
                <type>quarter</type>
                <stem>down</stem>
                <staff>1</staff>
                <notations>
                    <tied type="stop"/>
                </notations>
            </note>
            <note default-y="-35.00" default-x="133.51" dynamics="62.22">
                <pitch>
                    <step>F</step>
                    <octave>4</octave>
                </pitch>
                <duration>1</duration>
                <voice>1</voice>
                <type>eighth</type>
                <stem>up</stem>
                <staff>1</staff>
                <beam number="1">begin</beam>
                <lyric number="1">
                    <syllabic>begin</syllabic>
                    <text>wä</text>
                </lyric>
            </note>
            <note default-y="-25.00" default-x="163.11" dynamics="52.22">
                <pitch>
                    <step>A</step>
                    <octave>4</octave>
                </pitch>
                <duration>1</duration>
                <voice>1</voice>
                <type>eighth</type>
                <stem>up</stem>
                <staff>1</staff>
                <beam number="1">end</beam>
                <lyric number="1">
                    <syllabic>end</syllabic>
                    <text>re</text>
                </lyric>
            </note>
            <backup>
                <duration>8</duration>
            </backup>
            <note default-y="-154.34" default-x="17.10" dynamics="48.89">
                <pitch>
                    <step>F</step>
                    <octave>3</octave>
                </pitch>
                <duration>2</duration>
                <voice>5</voice>
                <type>quarter</type>
                <stem>down</stem>
                <staff>2</staff>
            </note>
            <note default-y="-144.34" default-x="17.10" dynamics="72.22">
                <chord/>
                <pitch>
                    <step>A</step>
                    <octave>3</octave>
                </pitch>
                <duration>2</duration>
                <voice>5</voice>
                <type>quarter</type>
                <stem>down</stem>
                <staff>2</staff>
            </note>
            <note default-y="-134.34" default-x="17.10" dynamics="54.44">
                <chord/>
                <pitch>
                    <step>C</step>
                    <octave>4</octave>
                </pitch>
                <duration>2</duration>
                <voice>5</voice>
                <type>quarter</type>
                <stem>down</stem>
                <staff>2</staff>
            </note>
            <note>
                <rest/>
                <duration>2</duration>
                <voice>5</voice>
                <type>quarter</type>
                <staff>2</staff>
            </note>
            <note default-y="-154.34" default-x="94.71" dynamics="46.67">
                <pitch>
                    <step>F</step>
                    <octave>3</octave>
                </pitch>
                <duration>2</duration>
                <voice>5</voice>
                <type>quarter</type>
                <stem>down</stem>
                <staff>2</staff>
            </note>
            <note default-y="-144.34" default-x="94.71" dynamics="62.22">
                <chord/>
                <pitch>
                    <step>A</step>
                    <octave>3</octave>
                </pitch>
                <duration>2</duration>
                <voice>5</voice>
                <type>quarter</type>
                <stem>down</stem>
                <staff>2</staff>
            </note>
            <note default-y="-134.34" default-x="94.71" dynamics="52.22">
                <chord/>
                <pitch>
                    <step>C</step>
                    <octave>4</octave>
                </pitch>
                <duration>2</duration>
                <voice>5</voice>
                <type>quarter</type>
                <stem>down</stem>
                <staff>2</staff>
            </note>
            <note>
                <rest/>
                <duration>2</duration>
                <voice>5</voice>
                <type>quarter</type>
                <staff>2</staff>
            </note>
        </measure>
        <measure width="231.61" number="12">
            <harmony print-frame="no">
                <root>
                    <root-step>C</root-step>
                </root>
                <kind text="">major</kind>
                <staff>1</staff>
            </harmony>
            <note default-y="-30.00" default-x="28.64">
                <pitch>
                    <step>G</step>
                    <octave>4</octave>
                </pitch>
                <duration>2</duration>
                <voice>1</voice>
                <type>quarter</type>
                <stem>up</stem>
                <staff>1</staff>
                <lyric number="1">
                    <syllabic>single</syllabic>
                    <text>es</text>
                </lyric>
            </note>
            <note default-y="-50.00" default-x="78.98" dynamics="78.89">
                <pitch>
                    <step>C</step>
                    <octave>4</octave>
                </pitch>
                <duration>2</duration>
                <voice>1</voice>
                <type>quarter</type>
                <stem>up</stem>
                <staff>1</staff>
                <lyric number="1">
                    <syllabic>single</syllabic>
                    <text>ein</text>
                </lyric>
            </note>
            <note default-y="-40.00" default-x="129.33" dynamics="70.00">
                <pitch>
                    <step>E</step>
                    <octave>4</octave>
                </pitch>
                <duration>2</duration>
                <voice>1</voice>
                <type>quarter</type>
                <stem>up</stem>
                <staff>1</staff>
                <lyric number="1">
                    <syllabic>begin</syllabic>
                    <text>Wun</text>
                </lyric>
            </note>
            <note default-y="-30.00" default-x="179.67" dynamics="55.56">
                <pitch>
                    <step>G</step>
                    <octave>4</octave>
                </pitch>
                <duration>2</duration>
                <voice>1</voice>
                <type>quarter</type>
                <stem>up</stem>
                <staff>1</staff>
                <lyric number="1">
                    <syllabic>middle</syllabic>
                    <text>der</text>
                </lyric>
            </note>
            <backup>
                <duration>8</duration>
            </backup>
            <note default-y="-159.34" default-x="28.64" dynamics="47.78">
                <pitch>
                    <step>E</step>
                    <octave>3</octave>
                </pitch>
                <duration>2</duration>
                <voice>5</voice>
                <type>quarter</type>
                <stem>down</stem>
                <staff>2</staff>
            </note>
            <note default-y="-149.34" default-x="28.64" dynamics="55.56">
                <chord/>
                <pitch>
                    <step>G</step>
                    <octave>3</octave>
                </pitch>
                <duration>2</duration>
                <voice>5</voice>
                <type>quarter</type>
                <stem>down</stem>
                <staff>2</staff>
            </note>
            <note default-y="-134.34" default-x="28.64" dynamics="50.00">
                <chord/>
                <pitch>
                    <step>C</step>
                    <octave>4</octave>
                </pitch>
                <duration>2</duration>
                <voice>5</voice>
                <type>quarter</type>
                <stem>down</stem>
                <staff>2</staff>
            </note>
            <note>
                <rest/>
                <duration>2</duration>
                <voice>5</voice>
                <type>quarter</type>
                <staff>2</staff>
            </note>
            <note default-y="-159.34" default-x="129.33" dynamics="44.44">
                <pitch>
                    <step>E</step>
                    <octave>3</octave>
                </pitch>
                <duration>2</duration>
                <voice>5</voice>
                <type>quarter</type>
                <stem>down</stem>
                <staff>2</staff>
            </note>
            <note default-y="-149.34" default-x="129.33" dynamics="58.89">
                <chord/>
                <pitch>
                    <step>G</step>
                    <octave>3</octave>
                </pitch>
                <duration>2</duration>
                <voice>5</voice>
                <type>quarter</type>
                <stem>down</stem>
                <staff>2</staff>
            </note>
            <note default-y="-134.34" default-x="129.33" dynamics="43.33">
                <chord/>
                <pitch>
                    <step>C</step>
                    <octave>4</octave>
                </pitch>
                <duration>2</duration>
                <voice>5</voice>
                <type>quarter</type>
                <stem>down</stem>
                <staff>2</staff>
            </note>
            <note>
                <rest/>
                <duration>2</duration>
                <voice>5</voice>
                <type>quarter</type>
                <staff>2</staff>
            </note>
        </measure>
        <measure width="196.96" number="13">
            <harmony print-frame="no">
                <root>
                    <root-step>F</root-step>
                </root>
                <kind text="">major</kind>
                <staff>1</staff>
            </harmony>
            <note default-y="-25.00" default-x="25.59" dynamics="58.89">
                <pitch>
                    <step>A</step>
                    <octave>4</octave>
                </pitch>
                <duration>2</duration>
                <voice>1</voice>
                <type>quarter</type>
                <stem>up</stem>
                <staff>1</staff>
                <lyric number="1">
                    <syllabic>middle</syllabic>
                    <text>ti</text>
                </lyric>
            </note>
            <note default-y="-15.00" default-x="64.15" dynamics="82.22">
                <pitch>
                    <step>C</step>
                    <octave>5</octave>
                </pitch>
                <duration>4</duration>
                <voice>1</voice>
                <type>half</type>
                <stem>down</stem>
                <staff>1</staff>
                <lyric number="1">
                    <syllabic>end</syllabic>
                    <text>er</text>
                </lyric>
            </note>
            <note default-y="0.00" default-x="141.27" dynamics="88.89">
                <pitch>
                    <step>F</step>
                    <octave>5</octave>
                </pitch>
                <duration>1</duration>
                <voice>1</voice>
                <type>eighth</type>
                <stem>down</stem>
                <staff>1</staff>
                <beam number="1">begin</beam>
                <lyric number="1">
                    <syllabic>begin</syllabic>
                    <text>Ho</text>
                </lyric>
            </note>
            <note default-y="-10.00" default-x="171.26">
                <pitch>
                    <step>D</step>
                    <octave>5</octave>
                </pitch>
                <duration>1</duration>
                <voice>1</voice>
                <type>eighth</type>
                <stem>down</stem>
                <staff>1</staff>
                <beam number="1">end</beam>
                <lyric number="1">
                    <syllabic>end</syllabic>
                    <text>la</text>
                </lyric>
            </note>
            <backup>
                <duration>8</duration>
            </backup>
            <note default-y="-154.34" default-x="25.59" dynamics="47.78">
                <pitch>
                    <step>F</step>
                    <octave>3</octave>
                </pitch>
                <duration>2</duration>
                <voice>5</voice>
                <type>quarter</type>
                <stem>down</stem>
                <staff>2</staff>
            </note>
            <note default-y="-144.34" default-x="25.59" dynamics="63.33">
                <chord/>
                <pitch>
                    <step>A</step>
                    <octave>3</octave>
                </pitch>
                <duration>2</duration>
                <voice>5</voice>
                <type>quarter</type>
                <stem>down</stem>
                <staff>2</staff>
            </note>
            <note default-y="-134.34" default-x="25.59" dynamics="51.11">
                <chord/>
                <pitch>
                    <step>C</step>
                    <octave>4</octave>
                </pitch>
                <duration>2</duration>
                <voice>5</voice>
                <type>quarter</type>
                <stem>down</stem>
                <staff>2</staff>
            </note>
            <note>
                <rest/>
                <duration>2</duration>
                <voice>5</voice>
                <type>quarter</type>
                <staff>2</staff>
            </note>
            <note default-y="-154.34" default-x="102.71" dynamics="46.67">
                <pitch>
                    <step>F</step>
                    <octave>3</octave>
                </pitch>
                <duration>2</duration>
                <voice>5</voice>
                <type>quarter</type>
                <stem>down</stem>
                <staff>2</staff>
            </note>
            <note default-y="-144.34" default-x="102.71" dynamics="64.44">
                <chord/>
                <pitch>
                    <step>A</step>
                    <octave>3</octave>
                </pitch>
                <duration>2</duration>
                <voice>5</voice>
                <type>quarter</type>
                <stem>down</stem>
                <staff>2</staff>
            </note>
            <note default-y="-134.34" default-x="102.71" dynamics="45.56">
                <chord/>
                <pitch>
                    <step>C</step>
                    <octave>4</octave>
                </pitch>
                <duration>2</duration>
                <voice>5</voice>
                <type>quarter</type>
                <stem>down</stem>
                <staff>2</staff>
            </note>
            <note>
                <rest/>
                <duration>2</duration>
                <voice>5</voice>
                <type>quarter</type>
                <staff>2</staff>
            </note>
        </measure>
        <measure width="204.25" number="14">
            <harmony print-frame="no">
                <root>
                    <root-step>B</root-step>
                    <root-alter>-1</root-alter>
                </root>
                <kind text="">major</kind>
                <staff>1</staff>
            </harmony>
            <note default-y="0.00" default-x="31.00" dynamics="73.33">
                <pitch>
                    <step>F</step>
                    <octave>5</octave>
                </pitch>
                <duration>4</duration>
                <tie type="start"/>
                <voice>1</voice>
                <type>half</type>
                <stem>down</stem>
                <staff>1</staff>
                <notations>
                    <tied type="start"/>
                </notations>
                <lyric number="1">
                    <syllabic>single</syllabic>
                    <text>ho</text>
                </lyric>
            </note>
            <note default-y="0.00" default-x="109.16">
                <pitch>
                    <step>F</step>
                    <octave>5</octave>
                </pitch>
                <duration>2</duration>
                <tie type="stop"/>
                <voice>1</voice>
                <type>quarter</type>
                <stem>down</stem>
                <staff>1</staff>
                <notations>
                    <tied type="stop"/>
                </notations>
            </note>
            <note default-y="-20.00" default-x="148.24" dynamics="53.33">
                <pitch>
                    <step>B</step>
                    <alter>-1</alter>
                    <octave>4</octave>
                </pitch>
                <duration>1</duration>
                <voice>1</voice>
                <type>eighth</type>
                <stem>down</stem>
                <staff>1</staff>
                <beam number="1">begin</beam>
                <lyric number="1">
                    <syllabic>begin</syllabic>
                    <text>Ho</text>
                </lyric>
            </note>
            <note default-y="-10.00" default-x="178.22" dynamics="70.00">
                <pitch>
                    <step>D</step>
                    <octave>5</octave>
                </pitch>
                <duration>1</duration>
                <voice>1</voice>
                <type>eighth</type>
                <stem>down</stem>
                <staff>1</staff>
                <beam number="1">end</beam>
                <lyric number="1">
                    <syllabic>end</syllabic>
                    <text>la</text>
                </lyric>
            </note>
            <backup>
                <duration>8</duration>
            </backup>
            <note default-y="-154.34" default-x="31.00" dynamics="38.89">
                <pitch>
                    <step>F</step>
                    <octave>3</octave>
                </pitch>
                <duration>2</duration>
                <voice>5</voice>
                <type>quarter</type>
                <stem>down</stem>
                <staff>2</staff>
            </note>
            <note default-y="-139.34" default-x="31.00" dynamics="60.00">
                <chord/>
                <pitch>
                    <step>B</step>
                    <alter>-1</alter>
                    <octave>3</octave>
                </pitch>
                <duration>2</duration>
                <voice>5</voice>
                <type>quarter</type>
                <stem>down</stem>
                <staff>2</staff>
            </note>
            <note default-y="-129.34" default-x="31.00" dynamics="45.56">
                <chord/>
                <pitch>
                    <step>D</step>
                    <octave>4</octave>
                </pitch>
                <duration>2</duration>
                <voice>5</voice>
                <type>quarter</type>
                <stem>down</stem>
                <staff>2</staff>
            </note>
            <note>
                <rest/>
                <duration>2</duration>
                <voice>5</voice>
                <type>quarter</type>
                <staff>2</staff>
            </note>
            <note default-y="-154.34" default-x="109.16" dynamics="35.56">
                <pitch>
                    <step>F</step>
                    <octave>3</octave>
                </pitch>
                <duration>2</duration>
                <voice>5</voice>
                <type>quarter</type>
                <stem>down</stem>
                <staff>2</staff>
            </note>
            <note default-y="-139.34" default-x="109.16" dynamics="53.33">
                <chord/>
                <pitch>
                    <step>B</step>
                    <alter>-1</alter>
                    <octave>3</octave>
                </pitch>
                <duration>2</duration>
                <voice>5</voice>
                <type>quarter</type>
                <stem>down</stem>
                <staff>2</staff>
            </note>
            <note default-y="-129.34" default-x="109.16" dynamics="37.78">
                <chord/>
                <pitch>
                    <step>D</step>
                    <octave>4</octave>
                </pitch>
                <duration>2</duration>
                <voice>5</voice>
                <type>quarter</type>
                <stem>down</stem>
                <staff>2</staff>
            </note>
            <note>
                <rest/>
                <duration>2</duration>
                <voice>5</voice>
                <type>quarter</type>
                <staff>2</staff>
            </note>
        </measure>
        <measure width="410.68" number="15">
            <print new-system="yes">
                <system-layout>
                    <system-margins>
                        <left-margin>18.50</left-margin>
                        <right-margin>0.00</right-margin>
                    </system-margins>
                    <system-distance>154.71</system-distance>
                </system-layout>
                <staff-layout number="2">
                    <staff-distance>104.34</staff-distance>
                </staff-layout>
            </print>
            <harmony print-frame="no">
                <root>
                    <root-step>F</root-step>
                </root>
                <kind text="">major</kind>
                <staff>1</staff>
            </harmony>
            <note default-y="-15.00" default-x="77.03" dynamics="84.44">
                <pitch>
                    <step>C</step>
                    <octave>5</octave>
                </pitch>
                <duration>4</duration>
                <tie type="start"/>
                <voice>1</voice>
                <type>half</type>
                <stem>down</stem>
                <staff>1</staff>
                <notations>
                    <tied type="start"/>
                </notations>
                <lyric number="1">
                    <syllabic>single</syllabic>
                    <text>ho</text>
                </lyric>
            </note>
            <note default-y="-15.00" default-x="233.29">
                <pitch>
                    <step>C</step>
                    <octave>5</octave>
                </pitch>
                <duration>2</duration>
                <tie type="stop"/>
                <voice>1</voice>
                <type>quarter</type>
                <stem>down</stem>
                <staff>1</staff>
                <notations>
                    <tied type="stop"/>
                </notations>
            </note>
            <note default-y="-35.00" default-x="311.42" dynamics="86.67">
                <pitch>
                    <step>F</step>
                    <octave>4</octave>
                </pitch>
                <duration>1</duration>
                <voice>1</voice>
                <type>eighth</type>
                <stem>up</stem>
                <staff>1</staff>
                <beam number="1">begin</beam>
                <lyric number="1">
                    <syllabic>begin</syllabic>
                    <text>wä</text>
                </lyric>
            </note>
            <note default-y="-25.00" default-x="360.25">
                <pitch>
                    <step>A</step>
                    <octave>4</octave>
                </pitch>
                <duration>1</duration>
                <voice>1</voice>
                <type>eighth</type>
                <stem>up</stem>
                <staff>1</staff>
                <beam number="1">end</beam>
                <lyric number="1">
                    <syllabic>end</syllabic>
                    <text>re</text>
                </lyric>
            </note>
            <backup>
                <duration>8</duration>
            </backup>
            <note default-y="-154.34" default-x="77.03" dynamics="51.11">
                <pitch>
                    <step>F</step>
                    <octave>3</octave>
                </pitch>
                <duration>2</duration>
                <voice>5</voice>
                <type>quarter</type>
                <stem>down</stem>
                <staff>2</staff>
            </note>
            <note default-y="-144.34" default-x="77.03" dynamics="57.78">
                <chord/>
                <pitch>
                    <step>A</step>
                    <octave>3</octave>
                </pitch>
                <duration>2</duration>
                <voice>5</voice>
                <type>quarter</type>
                <stem>down</stem>
                <staff>2</staff>
            </note>
            <note default-y="-134.34" default-x="77.03" dynamics="48.89">
                <chord/>
                <pitch>
                    <step>C</step>
                    <octave>4</octave>
                </pitch>
                <duration>2</duration>
                <voice>5</voice>
                <type>quarter</type>
                <stem>down</stem>
                <staff>2</staff>
            </note>
            <note>
                <rest/>
                <duration>2</duration>
                <voice>5</voice>
                <type>quarter</type>
                <staff>2</staff>
            </note>
            <note default-y="-154.34" default-x="233.29" dynamics="42.22">
                <pitch>
                    <step>F</step>
                    <octave>3</octave>
                </pitch>
                <duration>2</duration>
                <voice>5</voice>
                <type>quarter</type>
                <stem>down</stem>
                <staff>2</staff>
            </note>
            <note default-y="-144.34" default-x="233.29" dynamics="61.11">
                <chord/>
                <pitch>
                    <step>A</step>
                    <octave>3</octave>
                </pitch>
                <duration>2</duration>
                <voice>5</voice>
                <type>quarter</type>
                <stem>down</stem>
                <staff>2</staff>
            </note>
            <note default-y="-134.34" default-x="233.29" dynamics="41.11">
                <chord/>
                <pitch>
                    <step>C</step>
                    <octave>4</octave>
                </pitch>
                <duration>2</duration>
                <voice>5</voice>
                <type>quarter</type>
                <stem>down</stem>
                <staff>2</staff>
            </note>
            <note>
                <rest/>
                <duration>2</duration>
                <voice>5</voice>
                <type>quarter</type>
                <staff>2</staff>
            </note>
        </measure>
        <measure width="379.50" number="16">
            <harmony print-frame="no">
                <root>
                    <root-step>C</root-step>
                </root>
                <kind text="">major</kind>
                <staff>1</staff>
            </harmony>
            <note default-y="-30.00" default-x="14.74" dynamics="72.22">
                <pitch>
                    <step>G</step>
                    <octave>4</octave>
                </pitch>
                <duration>2</duration>
                <voice>1</voice>
                <type>quarter</type>
                <stem>up</stem>
                <staff>1</staff>
                <lyric number="1">
                    <syllabic>single</syllabic>
                    <text>es</text>
                </lyric>
            </note>
            <note default-y="-50.00" default-x="105.53" dynamics="74.44">
                <pitch>
                    <step>C</step>
                    <octave>4</octave>
                </pitch>
                <duration>2</duration>
                <voice>1</voice>
                <type>quarter</type>
                <stem>up</stem>
                <staff>1</staff>
                <lyric number="1">
                    <syllabic>single</syllabic>
                    <text>ein</text>
                </lyric>
            </note>
            <note default-y="-40.00" default-x="196.32" dynamics="74.44">
                <pitch>
                    <step>E</step>
                    <octave>4</octave>
                </pitch>
                <duration>2</duration>
                <voice>1</voice>
                <type>quarter</type>
                <stem>up</stem>
                <staff>1</staff>
                <lyric number="1">
                    <syllabic>begin</syllabic>
                    <text>Wun</text>
                </lyric>
            </note>
            <note default-y="-30.00" default-x="287.11" dynamics="57.78">
                <pitch>
                    <step>G</step>
                    <octave>4</octave>
                </pitch>
                <duration>2</duration>
                <voice>1</voice>
                <type>quarter</type>
                <stem>up</stem>
                <staff>1</staff>
                <lyric number="1">
                    <syllabic>middle</syllabic>
                    <text>der</text>
                </lyric>
            </note>
            <backup>
                <duration>8</duration>
            </backup>
            <note default-y="-159.34" default-x="14.74" dynamics="43.33">
                <pitch>
                    <step>E</step>
                    <octave>3</octave>
                </pitch>
                <duration>2</duration>
                <voice>5</voice>
                <type>quarter</type>
                <stem>down</stem>
                <staff>2</staff>
            </note>
            <note default-y="-149.34" default-x="14.74" dynamics="61.11">
                <chord/>
                <pitch>
                    <step>G</step>
                    <octave>3</octave>
                </pitch>
                <duration>2</duration>
                <voice>5</voice>
                <type>quarter</type>
                <stem>down</stem>
                <staff>2</staff>
            </note>
            <note default-y="-134.34" default-x="14.74" dynamics="50.00">
                <chord/>
                <pitch>
                    <step>C</step>
                    <octave>4</octave>
                </pitch>
                <duration>2</duration>
                <voice>5</voice>
                <type>quarter</type>
                <stem>down</stem>
                <staff>2</staff>
            </note>
            <note>
                <rest/>
                <duration>2</duration>
                <voice>5</voice>
                <type>quarter</type>
                <staff>2</staff>
            </note>
            <note default-y="-159.34" default-x="196.32" dynamics="44.44">
                <pitch>
                    <step>E</step>
                    <octave>3</octave>
                </pitch>
                <duration>2</duration>
                <voice>5</voice>
                <type>quarter</type>
                <stem>down</stem>
                <staff>2</staff>
            </note>
            <note default-y="-149.34" default-x="196.32" dynamics="60.00">
                <chord/>
                <pitch>
                    <step>G</step>
                    <octave>3</octave>
                </pitch>
                <duration>2</duration>
                <voice>5</voice>
                <type>quarter</type>
                <stem>down</stem>
                <staff>2</staff>
            </note>
            <note default-y="-134.34" default-x="196.32" dynamics="53.33">
                <chord/>
                <pitch>
                    <step>C</step>
                    <octave>4</octave>
                </pitch>
                <duration>2</duration>
                <voice>5</voice>
                <type>quarter</type>
                <stem>down</stem>
                <staff>2</staff>
            </note>
            <note>
                <rest/>
                <duration>2</duration>
                <voice>5</voice>
                <type>quarter</type>
                <staff>2</staff>
            </note>
        </measure>
        <measure width="268.49" number="17">
            <harmony print-frame="no">
                <root>
                    <root-step>F</root-step>
                </root>
                <kind text="">major</kind>
                <staff>1</staff>
            </harmony>
            <note default-y="-35.00" default-x="20.57" dynamics="78.89">
                <pitch>
                    <step>F</step>
                    <octave>4</octave>
                </pitch>
                <duration>8</duration>
                <voice>1</voice>
                <type>whole</type>
                <staff>1</staff>
                <lyric number="1">
                    <syllabic>end</syllabic>
                    <text>tier</text>
                </lyric>
            </note>
            <backup>
                <duration>8</duration>
            </backup>
            <note default-y="-154.34" default-x="20.57" dynamics="46.67">
                <pitch>
                    <step>F</step>
                    <octave>3</octave>
                </pitch>
                <duration>8</duration>
                <voice>5</voice>
                <type>whole</type>
                <staff>2</staff>
            </note>
            <note default-y="-144.34" default-x="20.57" dynamics="65.56">
                <chord/>
                <pitch>
                    <step>A</step>
                    <octave>3</octave>
                </pitch>
                <duration>8</duration>
                <voice>5</voice>
                <type>whole</type>
                <staff>2</staff>
            </note>
            <note default-y="-134.34" default-x="20.57" dynamics="51.11">
                <chord/>
                <pitch>
                    <step>C</step>
                    <octave>4</octave>
                </pitch>
                <duration>8</duration>
                <voice>5</voice>
                <type>whole</type>
                <staff>2</staff>
            </note>
        </measure>
    </part>
</score-partwise>
