<?xml version="1.0" encoding="UTF-8"?>
<!DOCTYPE score-partwise PUBLIC "-//Recordare//DTD MusicXML 2.0 Partwise//EN" "http://www.musicxml.org/dtds/partwise.dtd">
<score-partwise version="2.0">
    <work>
        <work-number></work-number>
        <work-title></work-title>
    </work>
    <movement-number></movement-number>
    <movement-title>Det er foraar alting klippes ned</movement-title>
    <identification>
        <creator type="composer">Hilsen til forårssolen</creator>
        <creator type="poet"></creator>
        <rights>All Rights Reserved</rights>
        <encoding>
            <encoding-date>2013-03-24</encoding-date>
            <encoder>ERLAND THOMSEN</encoder>
            <software>Sibelius 7.1.3</software>
            <software>Direct export, not from Dolet</software>
            <encoding-description>Sibelius / MusicXML 3.0</encoding-description>
            <supports value="yes" type="yes" element="print" attribute="new-system"/>
            <supports value="yes" type="yes" element="print" attribute="new-page"/>
            <supports type="yes" element="accidental"/>
            <supports type="yes" element="beam"/>
            <supports type="yes" element="stem"/>
            <software>ProxyMusic 2.0 c</software>
        </encoding>
        <source>http://wikifonia.org/node/21485/revisions/28392/view</source>
    </identification>
    <defaults>
        <scaling>
            <millimeters>210</millimeters>
            <tenths>1200</tenths>
        </scaling>
        <page-layout>
            <page-height>1697</page-height>
            <page-width>1200</page-width>
            <page-margins type="both">
                <left-margin>72</left-margin>
                <right-margin>72</right-margin>
                <top-margin>72</top-margin>
                <bottom-margin>72</bottom-margin>
            </page-margins>
        </page-layout>
        <system-layout>
            <system-margins>
                <left-margin>22</left-margin>
                <right-margin>0</right-margin>
            </system-margins>
            <system-distance>92</system-distance>
        </system-layout>
        <appearance>
            <line-width type="stem">0.9375</line-width>
            <line-width type="beam">5</line-width>
            <line-width type="staff">0.9375</line-width>
            <line-width type="light barline">1.5625</line-width>
            <line-width type="heavy barline">5</line-width>
            <line-width type="leger">1.5625</line-width>
            <line-width type="ending">1.5625</line-width>
            <line-width type="wedge">1.25</line-width>
            <line-width type="enclosure">0.9375</line-width>
            <line-width type="tuplet bracket">1.25</line-width>
            <line-width type="bracket">5</line-width>
            <line-width type="dashes">1.5625</line-width>
            <line-width type="extend">0.9375</line-width>
            <line-width type="octave shift">1.5625</line-width>
            <line-width type="pedal">1.5625</line-width>
            <line-width type="slur middle">1.5625</line-width>
            <line-width type="slur tip">0.625</line-width>
            <line-width type="tie middle">1.5625</line-width>
            <line-width type="tie tip">0.625</line-width>
            <note-size type="cue">75</note-size>
            <note-size type="grace">60</note-size>
        </appearance>
        <music-font font-size="19.8425" font-family="Opus Std"/>
        <lyric-font font-size="11.4715" font-family="Plantin MT Std"/>
        <lyric-language/>
    </defaults>
    <credit page="1">
        <credit-words font-weight="normal" font-style="normal" font-size="22.0128" font-family="Plantin MT Std" default-y="155" default-x="600" justify="center" valign="middle">Det er forår alting klippes ned</credit-words>
    </credit>
    <credit page="1">
        <credit-words font-weight="normal" font-style="normal" font-size="11.0064" font-family="Plantin MT Std" default-y="84" default-x="1127" justify="right" valign="middle">Hilsen til forårssolen</credit-words>
    </credit>
    <part-list>
        <score-part id="P1">
            <part-name> </part-name>
            <part-name-display>
                <display-text> </display-text>
            </part-name-display>
            <part-abbreviation> </part-abbreviation>
            <part-abbreviation-display>
                <display-text> </display-text>
            </part-abbreviation-display>
            <score-instrument id="P1-I1">
                <instrument-name> </instrument-name>
            </score-instrument>
        </score-part>
    </part-list>
    <part id="P1">
        <measure width="287" number="1">
            <print new-page="yes">
                <system-layout>
                    <system-margins>
                        <left-margin>22</left-margin>
                        <right-margin>0</right-margin>
                    </system-margins>
                    <top-system-distance>232</top-system-distance>
                </system-layout>
            </print>
            <attributes>
                <divisions>256</divisions>
                <key color="#000000">
                    <fifths>-1</fifths>
                    <mode>major</mode>
                </key>
                <time color="#000000">
                    <beats>4</beats>
                    <beat-type>4</beat-type>
                </time>
                <staves>1</staves>
                <clef color="#000000" number="1">
                    <sign>G</sign>
                    <line>2</line>
                </clef>
                <staff-details print-object="yes" number="1"/>
            </attributes>
            <note default-y="-40" default-x="87">
                <rest/>
                <duration>128</duration>
                <instrument id="P1-I1"/>
                <voice>1</voice>
                <type>eighth</type>
                <staff>1</staff>
            </note>
            <note default-x="114">
                <rest/>
                <duration>128</duration>
                <instrument id="P1-I1"/>
                <voice>1</voice>
                <type>eighth</type>
                <staff>1</staff>
            </note>
            <note default-x="141">
                <rest/>
                <duration>256</duration>
                <instrument id="P1-I1"/>
                <voice>1</voice>
                <type>quarter</type>
                <staff>1</staff>
            </note>
            <note default-y="-40" default-x="179">
                <rest/>
                <duration>128</duration>
                <instrument id="P1-I1"/>
                <voice>1</voice>
                <type>eighth</type>
                <staff>1</staff>
            </note>
            <note default-x="206">
                <rest/>
                <duration>128</duration>
                <instrument id="P1-I1"/>
                <voice>1</voice>
                <type>eighth</type>
                <staff>1</staff>
            </note>
            <note default-y="-20" default-x="233" color="#000000">
                <pitch>
                    <step>A</step>
                    <octave>3</octave>
                </pitch>
                <duration>128</duration>
                <instrument id="P1-I1"/>
                <voice>1</voice>
                <type>eighth</type>
                <stem>up</stem>
                <staff>1</staff>
                <beam number="1">begin</beam>
            </note>
            <note default-y="-20" default-x="260" color="#000000">
                <pitch>
                    <step>B</step>
                    <alter>-1</alter>
                    <octave>3</octave>
                </pitch>
                <duration>128</duration>
                <instrument id="P1-I1"/>
                <voice>1</voice>
                <type>eighth</type>
                <stem>up</stem>
                <staff>1</staff>
                <beam number="1">end</beam>
            </note>
        </measure>
        <measure width="198" number="2">
            <harmony default-y="25" color="#000000">
                <root>
                    <root-step>F</root-step>
                </root>
                <kind>major</kind>
                <staff>1</staff>
            </harmony>
            <note default-y="-15" default-x="15" color="#000000">
                <pitch>
                    <step>C</step>
                    <octave>4</octave>
                </pitch>
                <duration>256</duration>
                <instrument id="P1-I1"/>
                <voice>1</voice>
                <type>quarter</type>
                <stem>up</stem>
                <staff>1</staff>
            </note>
            <note default-y="-15" default-x="52" color="#000000">
                <pitch>
                    <step>C</step>
                    <octave>4</octave>
                </pitch>
                <duration>256</duration>
                <instrument id="P1-I1"/>
                <voice>1</voice>
                <type>quarter</type>
                <stem>up</stem>
                <staff>1</staff>
            </note>
            <harmony default-y="25" color="#000000">
                <root>
                    <root-step>B</root-step>
                    <root-alter>-1</root-alter>
                </root>
                <kind>major</kind>
                <staff>1</staff>
            </harmony>
            <note default-y="-7" default-x="90" color="#000000">
                <pitch>
                    <step>D</step>
                    <octave>4</octave>
                </pitch>
                <duration>128</duration>
                <instrument id="P1-I1"/>
                <voice>1</voice>
                <type>eighth</type>
                <stem>up</stem>
                <staff>1</staff>
                <beam number="1">begin</beam>
            </note>
            <note default-y="-7" default-x="117" color="#000000">
                <pitch>
                    <step>D</step>
                    <octave>4</octave>
                </pitch>
                <duration>128</duration>
                <instrument id="P1-I1"/>
                <voice>1</voice>
                <type>eighth</type>
                <stem>up</stem>
                <staff>1</staff>
                <beam number="1">continue</beam>
            </note>
            <harmony default-y="25" color="#000000">
                <root>
                    <root-step>C</root-step>
                </root>
                <kind>major</kind>
                <staff>1</staff>
            </harmony>
            <note default-y="-7" default-x="144" color="#000000">
                <pitch>
                    <step>E</step>
                    <octave>4</octave>
                </pitch>
                <duration>128</duration>
                <instrument id="P1-I1"/>
                <voice>1</voice>
                <type>eighth</type>
                <stem>up</stem>
                <staff>1</staff>
                <beam number="1">continue</beam>
            </note>
            <note default-y="-7" default-x="171" color="#000000">
                <pitch>
                    <step>E</step>
                    <octave>4</octave>
                </pitch>
                <duration>128</duration>
                <instrument id="P1-I1"/>
                <voice>1</voice>
                <type>eighth</type>
                <stem>up</stem>
                <staff>1</staff>
                <beam number="1">end</beam>
            </note>
        </measure>
        <measure width="144" number="3">
            <harmony default-y="25" color="#000000">
                <root>
                    <root-step>F</root-step>
                </root>
                <kind>major</kind>
                <staff>1</staff>
            </harmony>
            <note default-x="15" color="#000000">
                <pitch>
                    <step>F</step>
                    <octave>4</octave>
                </pitch>
                <duration>768</duration>
                <instrument id="P1-I1"/>
                <voice>1</voice>
                <type>half</type>
                <dot/>
                <stem>up</stem>
                <staff>1</staff>
            </note>
            <harmony default-y="25" color="#000000">
                <root>
                    <root-step>F</root-step>
                </root>
                <kind>dominant</kind>
                <staff>1</staff>
            </harmony>
            <note default-x="90" color="#000000">
                <pitch>
                    <step>F</step>
                    <octave>4</octave>
                </pitch>
                <duration>128</duration>
                <instrument id="P1-I1"/>
                <voice>1</voice>
                <type>eighth</type>
                <stem>up</stem>
                <staff>1</staff>
                <beam number="1">begin</beam>
            </note>
            <note default-x="117" color="#000000">
                <pitch>
                    <step>F</step>
                    <octave>4</octave>
                </pitch>
                <duration>128</duration>
                <instrument id="P1-I1"/>
                <voice>1</voice>
                <type>eighth</type>
                <stem>up</stem>
                <staff>1</staff>
                <beam number="1">end</beam>
            </note>
        </measure>
        <measure width="231" number="4">
            <harmony default-y="25" color="#000000">
                <root>
                    <root-step>B</root-step>
                    <root-alter>-1</root-alter>
                </root>
                <kind>major</kind>
                <staff>1</staff>
            </harmony>
            <note default-y="-52" default-x="15" color="#000000">
                <pitch>
                    <step>B</step>
                    <alter>-1</alter>
                    <octave>4</octave>
                </pitch>
                <duration>128</duration>
                <instrument id="P1-I1"/>
                <voice>1</voice>
                <type>eighth</type>
                <stem>down</stem>
                <staff>1</staff>
                <beam number="1">begin</beam>
            </note>
            <note default-y="-52" default-x="42" color="#000000">
                <pitch>
                    <step>B</step>
                    <alter>-1</alter>
                    <octave>4</octave>
                </pitch>
                <duration>128</duration>
                <instrument id="P1-I1"/>
                <voice>1</voice>
                <type>eighth</type>
                <stem>down</stem>
                <staff>1</staff>
                <beam number="1">continue</beam>
            </note>
            <note default-y="-52" default-x="69" color="#000000">
                <pitch>
                    <step>B</step>
                    <alter>-1</alter>
                    <octave>4</octave>
                </pitch>
                <duration>128</duration>
                <instrument id="P1-I1"/>
                <voice>1</voice>
                <type>eighth</type>
                <stem>down</stem>
                <staff>1</staff>
                <beam number="1">continue</beam>
            </note>
            <note default-y="-52" default-x="96" color="#000000">
                <pitch>
                    <step>B</step>
                    <alter>-1</alter>
                    <octave>4</octave>
                </pitch>
                <duration>128</duration>
                <instrument id="P1-I1"/>
                <voice>1</voice>
                <type>eighth</type>
                <stem>down</stem>
                <staff>1</staff>
                <beam number="1">end</beam>
            </note>
            <harmony default-y="25" color="#000000">
                <root>
                    <root-step>C</root-step>
                </root>
                <kind>major</kind>
                <staff>1</staff>
            </harmony>
            <note default-y="12" default-x="123" color="#000000">
                <pitch>
                    <step>A</step>
                    <octave>4</octave>
                </pitch>
                <duration>128</duration>
                <instrument id="P1-I1"/>
                <voice>1</voice>
                <type>eighth</type>
                <stem>up</stem>
                <staff>1</staff>
                <beam number="1">begin</beam>
            </note>
            <note default-y="12" default-x="150" color="#000000">
                <pitch>
                    <step>A</step>
                    <octave>4</octave>
                </pitch>
                <duration>128</duration>
                <instrument id="P1-I1"/>
                <voice>1</voice>
                <type>eighth</type>
                <stem>up</stem>
                <staff>1</staff>
                <beam number="1">continue</beam>
            </note>
            <note default-y="12" default-x="177" color="#000000">
                <pitch>
                    <step>G</step>
                    <octave>4</octave>
                </pitch>
                <duration>128</duration>
                <instrument id="P1-I1"/>
                <voice>1</voice>
                <type>eighth</type>
                <stem>up</stem>
                <staff>1</staff>
                <beam number="1">continue</beam>
            </note>
            <note default-y="12" default-x="204" color="#000000">
                <pitch>
                    <step>G</step>
                    <octave>4</octave>
                </pitch>
                <duration>128</duration>
                <instrument id="P1-I1"/>
                <voice>1</voice>
                <type>eighth</type>
                <stem>up</stem>
                <staff>1</staff>
                <beam number="1">end</beam>
            </note>
        </measure>
        <measure width="170" number="5">
            <harmony default-y="25" color="#000000">
                <root>
                    <root-step>F</root-step>
                </root>
                <kind>major</kind>
                <staff>1</staff>
            </harmony>
            <note default-y="2" default-x="15" color="#000000">
                <pitch>
                    <step>G</step>
                    <octave>4</octave>
                </pitch>
                <duration>128</duration>
                <instrument id="P1-I1"/>
                <voice>1</voice>
                <type>eighth</type>
                <stem>up</stem>
                <staff>1</staff>
                <beam number="1">begin</beam>
            </note>
            <note default-y="2" default-x="42" color="#000000">
                <pitch>
                    <step>F</step>
                    <octave>4</octave>
                </pitch>
                <duration>128</duration>
                <instrument id="P1-I1"/>
                <voice>1</voice>
                <type>eighth</type>
                <stem>up</stem>
                <staff>1</staff>
                <beam number="1">end</beam>
            </note>
            <note default-x="69" color="#000000">
                <pitch>
                    <step>F</step>
                    <octave>4</octave>
                </pitch>
                <duration>256</duration>
                <instrument id="P1-I1"/>
                <voice>1</voice>
                <type>quarter</type>
                <stem>up</stem>
                <staff>1</staff>
            </note>
            <note default-x="106">
                <rest/>
                <duration>512</duration>
                <instrument id="P1-I1"/>
                <voice>1</voice>
                <type>half</type>
                <staff>1</staff>
            </note>
        </measure>
        <measure width="226" number="6">
            <print new-system="yes">
                <system-layout>
                    <system-margins>
                        <left-margin>22</left-margin>
                        <right-margin>0</right-margin>
                    </system-margins>
                    <system-distance>106</system-distance>
                </system-layout>
            </print>
            <attributes>
                <staff-details print-object="yes" number="1"/>
            </attributes>
            <note default-x="68">
                <rest/>
                <duration>512</duration>
                <instrument id="P1-I1"/>
                <voice>1</voice>
                <type>half</type>
                <staff>1</staff>
            </note>
            <note default-x="133">
                <rest/>
                <duration>256</duration>
                <instrument id="P1-I1"/>
                <voice>1</voice>
                <type>quarter</type>
                <staff>1</staff>
            </note>
            <note default-y="-20" default-x="171" color="#000000">
                <pitch>
                    <step>A</step>
                    <octave>3</octave>
                </pitch>
                <duration>128</duration>
                <instrument id="P1-I1"/>
                <voice>1</voice>
                <type>eighth</type>
                <stem>up</stem>
                <staff>1</staff>
                <beam number="1">begin</beam>
            </note>
            <note default-y="-20" default-x="198" color="#000000">
                <pitch>
                    <step>B</step>
                    <alter>-1</alter>
                    <octave>3</octave>
                </pitch>
                <duration>128</duration>
                <instrument id="P1-I1"/>
                <voice>1</voice>
                <type>eighth</type>
                <stem>up</stem>
                <staff>1</staff>
                <beam number="1">end</beam>
            </note>
        </measure>
        <measure width="220" number="7">
            <harmony default-y="25" color="#000000">
                <root>
                    <root-step>F</root-step>
                </root>
                <kind>major</kind>
                <staff>1</staff>
            </harmony>
            <note default-y="-17" default-x="15" color="#000000">
                <pitch>
                    <step>C</step>
                    <octave>4</octave>
                </pitch>
                <duration>128</duration>
                <tie type="start"/>
                <instrument id="P1-I1"/>
                <voice>1</voice>
                <type>eighth</type>
                <stem>up</stem>
                <staff>1</staff>
                <beam number="1">begin</beam>
                <notations>
                    <tied type="start"/>
                </notations>
            </note>
            <note default-y="-17" default-x="45" color="#000000">
                <pitch>
                    <step>C</step>
                    <octave>4</octave>
                </pitch>
                <duration>128</duration>
                <tie type="stop"/>
                <instrument id="P1-I1"/>
                <voice>1</voice>
                <type>eighth</type>
                <stem>up</stem>
                <staff>1</staff>
                <beam number="1">continue</beam>
                <notations>
                    <tied type="stop"/>
                </notations>
            </note>
            <note default-y="-17" default-x="73" color="#000000">
                <pitch>
                    <step>C</step>
                    <octave>4</octave>
                </pitch>
                <duration>128</duration>
                <instrument id="P1-I1"/>
                <voice>1</voice>
                <type>eighth</type>
                <stem>up</stem>
                <staff>1</staff>
                <beam number="1">continue</beam>
            </note>
            <note default-y="-17" default-x="100" color="#000000">
                <pitch>
                    <step>C</step>
                    <octave>4</octave>
                </pitch>
                <duration>128</duration>
                <instrument id="P1-I1"/>
                <voice>1</voice>
                <type>eighth</type>
                <stem>up</stem>
                <staff>1</staff>
                <beam number="1">end</beam>
            </note>
            <harmony default-y="25" color="#000000">
                <root>
                    <root-step>B</root-step>
                    <root-alter>-1</root-alter>
                </root>
                <kind>major</kind>
                <staff>1</staff>
            </harmony>
            <note default-y="-52" default-x="128" color="#000000">
                <pitch>
                    <step>B</step>
                    <alter>-1</alter>
                    <octave>4</octave>
                </pitch>
                <duration>128</duration>
                <tie type="start"/>
                <instrument id="P1-I1"/>
                <voice>1</voice>
                <type>eighth</type>
                <stem>down</stem>
                <staff>1</staff>
                <beam number="1">begin</beam>
                <notations>
                    <tied type="start"/>
                </notations>
            </note>
            <note default-y="-52" default-x="155" color="#000000">
                <pitch>
                    <step>B</step>
                    <alter>-1</alter>
                    <octave>4</octave>
                </pitch>
                <duration>128</duration>
                <tie type="stop"/>
                <instrument id="P1-I1"/>
                <voice>1</voice>
                <type>eighth</type>
                <stem>down</stem>
                <staff>1</staff>
                <beam number="1">end</beam>
                <notations>
                    <tied type="stop"/>
                </notations>
            </note>
            <note default-y="10" default-x="183" color="#000000">
                <pitch>
                    <step>A</step>
                    <octave>4</octave>
                </pitch>
                <duration>256</duration>
                <instrument id="P1-I1"/>
                <voice>1</voice>
                <type>quarter</type>
                <stem>up</stem>
                <staff>1</staff>
            </note>
        </measure>
        <measure width="146" number="8">
            <harmony default-y="25" color="#000000">
                <root>
                    <root-step>C</root-step>
                </root>
                <kind>major</kind>
                <staff>1</staff>
            </harmony>
            <note default-y="5" default-x="15" color="#000000">
                <pitch>
                    <step>G</step>
                    <octave>4</octave>
                </pitch>
                <duration>768</duration>
                <instrument id="P1-I1"/>
                <voice>1</voice>
                <type>half</type>
                <dot/>
                <stem>up</stem>
                <staff>1</staff>
            </note>
            <note default-y="2" default-x="91" color="#000000">
                <pitch>
                    <step>G</step>
                    <octave>4</octave>
                </pitch>
                <duration>128</duration>
                <instrument id="P1-I1"/>
                <voice>1</voice>
                <type>eighth</type>
                <stem>up</stem>
                <staff>1</staff>
                <beam number="1">begin</beam>
            </note>
            <note default-y="2" default-x="119" color="#000000">
                <pitch>
                    <step>G</step>
                    <octave>4</octave>
                </pitch>
                <duration>128</duration>
                <instrument id="P1-I1"/>
                <voice>1</voice>
                <type>eighth</type>
                <stem>up</stem>
                <staff>1</staff>
                <beam number="1">end</beam>
            </note>
        </measure>
        <measure width="235" number="9">
            <harmony default-y="25" color="#000000">
                <root>
                    <root-step>G</root-step>
                </root>
                <kind>dominant</kind>
                <staff>1</staff>
            </harmony>
            <note default-y="2" default-x="15" color="#000000">
                <pitch>
                    <step>G</step>
                    <octave>4</octave>
                </pitch>
                <duration>128</duration>
                <instrument id="P1-I1"/>
                <voice>1</voice>
                <type>eighth</type>
                <stem>up</stem>
                <staff>1</staff>
                <beam number="1">begin</beam>
            </note>
            <note default-y="2" default-x="42" color="#000000">
                <pitch>
                    <step>G</step>
                    <octave>4</octave>
                </pitch>
                <duration>128</duration>
                <instrument id="P1-I1"/>
                <voice>1</voice>
                <type>eighth</type>
                <stem>up</stem>
                <staff>1</staff>
                <beam number="1">continue</beam>
            </note>
            <note default-y="2" default-x="70" color="#000000">
                <pitch>
                    <step>G</step>
                    <octave>4</octave>
                </pitch>
                <duration>128</duration>
                <instrument id="P1-I1"/>
                <voice>1</voice>
                <type>eighth</type>
                <stem>up</stem>
                <staff>1</staff>
                <beam number="1">continue</beam>
            </note>
            <note default-y="2" default-x="97" color="#000000">
                <pitch>
                    <step>G</step>
                    <octave>4</octave>
                </pitch>
                <duration>128</duration>
                <instrument id="P1-I1"/>
                <voice>1</voice>
                <type>eighth</type>
                <stem>up</stem>
                <staff>1</staff>
                <beam number="1">end</beam>
            </note>
            <note default-y="12" default-x="125" color="#000000">
                <pitch>
                    <step>G</step>
                    <octave>4</octave>
                </pitch>
                <duration>128</duration>
                <instrument id="P1-I1"/>
                <voice>1</voice>
                <type>eighth</type>
                <stem>up</stem>
                <staff>1</staff>
                <beam number="1">begin</beam>
            </note>
            <note default-y="12" default-x="152" color="#000000">
                <pitch>
                    <step>A</step>
                    <octave>4</octave>
                </pitch>
                <duration>128</duration>
                <instrument id="P1-I1"/>
                <voice>1</voice>
                <type>eighth</type>
                <stem>up</stem>
                <staff>1</staff>
                <beam number="1">continue</beam>
            </note>
            <note default-y="12" default-x="180" color="#000000">
                <pitch>
                    <step>G</step>
                    <octave>4</octave>
                </pitch>
                <duration>128</duration>
                <instrument id="P1-I1"/>
                <voice>1</voice>
                <type>eighth</type>
                <stem>up</stem>
                <staff>1</staff>
                <beam number="1">continue</beam>
            </note>
            <note default-y="12" default-x="207" color="#000000">
                <pitch>
                    <step>F</step>
                    <octave>4</octave>
                </pitch>
                <duration>128</duration>
                <instrument id="P1-I1"/>
                <voice>1</voice>
                <type>eighth</type>
                <stem>up</stem>
                <staff>1</staff>
                <beam number="1">end</beam>
            </note>
        </measure>
        <measure width="204" number="10">
            <harmony default-y="25" color="#000000">
                <root>
                    <root-step>C</root-step>
                </root>
                <kind>major</kind>
                <staff>1</staff>
            </harmony>
            <note default-y="-7" default-x="15" color="#000000">
                <pitch>
                    <step>E</step>
                    <octave>4</octave>
                </pitch>
                <duration>128</duration>
                <instrument id="P1-I1"/>
                <voice>1</voice>
                <type>eighth</type>
                <stem>up</stem>
                <staff>1</staff>
                <beam number="1">begin</beam>
            </note>
            <note default-y="-7" default-x="42" color="#000000">
                <pitch>
                    <step>C</step>
                    <octave>4</octave>
                </pitch>
                <duration>128</duration>
                <tie type="start"/>
                <instrument id="P1-I1"/>
                <voice>1</voice>
                <type>eighth</type>
                <stem>up</stem>
                <staff>1</staff>
                <beam number="1">end</beam>
                <notations>
                    <tied type="start"/>
                </notations>
            </note>
            <note default-y="-15" default-x="73" color="#000000">
                <pitch>
                    <step>C</step>
                    <octave>4</octave>
                </pitch>
                <duration>256</duration>
                <tie type="stop"/>
                <instrument id="P1-I1"/>
                <voice>1</voice>
                <type>quarter</type>
                <stem>up</stem>
                <staff>1</staff>
                <notations>
                    <tied type="stop"/>
                </notations>
            </note>
            <note default-x="111">
                <rest/>
                <duration>256</duration>
                <instrument id="P1-I1"/>
                <voice>1</voice>
                <type>quarter</type>
                <staff>1</staff>
            </note>
            <note default-y="-17" default-x="149" color="#000000">
                <pitch>
                    <step>C</step>
                    <octave>4</octave>
                </pitch>
                <duration>128</duration>
                <instrument id="P1-I1"/>
                <voice>1</voice>
                <type>eighth</type>
                <stem>up</stem>
                <staff>1</staff>
                <beam number="1">begin</beam>
            </note>
            <note default-y="-17" default-x="176" color="#000000">
                <pitch>
                    <step>C</step>
                    <octave>4</octave>
                </pitch>
                <duration>128</duration>
                <instrument id="P1-I1"/>
                <voice>1</voice>
                <type>eighth</type>
                <stem>up</stem>
                <staff>1</staff>
                <beam number="1">end</beam>
            </note>
        </measure>
        <measure width="273" number="11">
            <print new-system="yes">
                <system-layout>
                    <system-margins>
                        <left-margin>22</left-margin>
                        <right-margin>0</right-margin>
                    </system-margins>
                    <system-distance>106</system-distance>
                </system-layout>
            </print>
            <attributes>
                <staff-details print-object="yes" number="1"/>
            </attributes>
            <harmony default-y="25" color="#000000">
                <root>
                    <root-step>F</root-step>
                </root>
                <kind>major</kind>
                <staff>1</staff>
            </harmony>
            <note default-y="10" default-x="68" color="#000000">
                <pitch>
                    <step>A</step>
                    <octave>4</octave>
                </pitch>
                <duration>256</duration>
                <instrument id="P1-I1"/>
                <voice>1</voice>
                <type>quarter</type>
                <stem>up</stem>
                <staff>1</staff>
            </note>
            <note default-y="10" default-x="110" color="#000000">
                <pitch>
                    <step>A</step>
                    <octave>4</octave>
                </pitch>
                <duration>256</duration>
                <instrument id="P1-I1"/>
                <voice>1</voice>
                <type>quarter</type>
                <stem>up</stem>
                <staff>1</staff>
            </note>
            <harmony default-y="25" color="#000000">
                <root>
                    <root-step>A</root-step>
                </root>
                <kind>dominant</kind>
                <staff>1</staff>
            </harmony>
            <note default-y="12" default-x="152" color="#000000">
                <pitch>
                    <step>A</step>
                    <octave>4</octave>
                </pitch>
                <duration>128</duration>
                <instrument id="P1-I1"/>
                <voice>1</voice>
                <type>eighth</type>
                <stem>up</stem>
                <staff>1</staff>
                <beam number="1">begin</beam>
            </note>
            <note default-y="12" default-x="182" color="#000000">
                <pitch>
                    <step>A</step>
                    <octave>4</octave>
                </pitch>
                <duration>128</duration>
                <instrument id="P1-I1"/>
                <voice>1</voice>
                <type>eighth</type>
                <stem>up</stem>
                <staff>1</staff>
                <beam number="1">continue</beam>
            </note>
            <note default-y="12" default-x="212" color="#000000">
                <pitch>
                    <step>A</step>
                    <octave>4</octave>
                </pitch>
                <duration>128</duration>
                <instrument id="P1-I1"/>
                <voice>1</voice>
                <type>eighth</type>
                <stem>up</stem>
                <staff>1</staff>
                <beam number="1">continue</beam>
            </note>
            <note default-y="12" default-x="243" color="#000000">
                <pitch>
                    <step>G</step>
                    <octave>4</octave>
                </pitch>
                <duration>128</duration>
                <instrument id="P1-I1"/>
                <voice>1</voice>
                <type>eighth</type>
                <stem>up</stem>
                <staff>1</staff>
                <beam number="1">end</beam>
            </note>
        </measure>
        <measure width="238" number="12">
            <harmony default-y="25" color="#000000">
                <root>
                    <root-step>D</root-step>
                </root>
                <kind>minor</kind>
                <staff>1</staff>
            </harmony>
            <note default-y="2" default-x="15" color="#000000">
                <pitch>
                    <step>F</step>
                    <octave>4</octave>
                </pitch>
                <duration>128</duration>
                <instrument id="P1-I1"/>
                <voice>1</voice>
                <type>eighth</type>
                <stem>up</stem>
                <staff>1</staff>
                <beam number="1">begin</beam>
            </note>
            <note default-y="2" default-x="45" color="#000000">
                <pitch>
                    <step>F</step>
                    <octave>4</octave>
                </pitch>
                <duration>128</duration>
                <instrument id="P1-I1"/>
                <voice>1</voice>
                <type>eighth</type>
                <stem>up</stem>
                <staff>1</staff>
                <beam number="1">continue</beam>
            </note>
            <note default-y="2" default-x="75" color="#000000">
                <pitch>
                    <step>F</step>
                    <octave>4</octave>
                </pitch>
                <duration>128</duration>
                <instrument id="P1-I1"/>
                <voice>1</voice>
                <type>eighth</type>
                <stem>up</stem>
                <staff>1</staff>
                <beam number="1">continue</beam>
            </note>
            <note default-y="2" default-x="105" color="#000000">
                <pitch>
                    <step>E</step>
                    <octave>4</octave>
                </pitch>
                <duration>128</duration>
                <instrument id="P1-I1"/>
                <voice>1</voice>
                <type>eighth</type>
                <stem>up</stem>
                <staff>1</staff>
                <beam number="1">end</beam>
            </note>
            <harmony default-y="25" color="#000000">
                <root>
                    <root-step>B</root-step>
                    <root-alter>-1</root-alter>
                </root>
                <kind>major</kind>
                <staff>1</staff>
            </harmony>
            <note default-y="-10" default-x="135" color="#000000">
                <pitch>
                    <step>D</step>
                    <octave>4</octave>
                </pitch>
                <duration>256</duration>
                <instrument id="P1-I1"/>
                <voice>1</voice>
                <type>quarter</type>
                <stem>up</stem>
                <staff>1</staff>
            </note>
            <note default-y="-10" default-x="177" color="#000000">
                <pitch>
                    <step>D</step>
                    <octave>4</octave>
                </pitch>
                <duration>128</duration>
                <instrument id="P1-I1"/>
                <voice>1</voice>
                <type>eighth</type>
                <stem>up</stem>
                <staff>1</staff>
                <beam number="1">begin</beam>
            </note>
            <note default-y="-10" default-x="207" color="#000000">
                <pitch>
                    <step>D</step>
                    <octave>4</octave>
                </pitch>
                <duration>128</duration>
                <instrument id="P1-I1"/>
                <voice>1</voice>
                <type>eighth</type>
                <stem>up</stem>
                <staff>1</staff>
                <beam number="1">end</beam>
            </note>
        </measure>
        <measure width="238" number="13">
            <harmony default-y="25" color="#000000">
                <root>
                    <root-step>F</root-step>
                </root>
                <kind>major</kind>
                <staff>1</staff>
            </harmony>
            <note default-y="9" default-x="15" color="#000000">
                <pitch>
                    <step>C</step>
                    <octave>4</octave>
                </pitch>
                <duration>128</duration>
                <instrument id="P1-I1"/>
                <voice>1</voice>
                <type>eighth</type>
                <stem>up</stem>
                <staff>1</staff>
                <beam number="1">begin</beam>
            </note>
            <note default-y="9" default-x="45" color="#000000">
                <pitch>
                    <step>C</step>
                    <octave>4</octave>
                </pitch>
                <duration>128</duration>
                <instrument id="P1-I1"/>
                <voice>1</voice>
                <type>eighth</type>
                <stem>up</stem>
                <staff>1</staff>
                <beam number="1">continue</beam>
            </note>
            <note default-y="9" default-x="75" color="#000000">
                <pitch>
                    <step>A</step>
                    <octave>4</octave>
                </pitch>
                <duration>128</duration>
                <instrument id="P1-I1"/>
                <voice>1</voice>
                <type>eighth</type>
                <stem>up</stem>
                <staff>1</staff>
                <beam number="1">continue</beam>
            </note>
            <note default-y="9" default-x="105" color="#000000">
                <pitch>
                    <step>C</step>
                    <octave>4</octave>
                </pitch>
                <duration>128</duration>
                <instrument id="P1-I1"/>
                <voice>1</voice>
                <type>eighth</type>
                <stem>up</stem>
                <staff>1</staff>
                <beam number="1">end</beam>
            </note>
            <harmony default-y="25" color="#000000">
                <root>
                    <root-step>C</root-step>
                </root>
                <kind>dominant</kind>
                <staff>1</staff>
            </harmony>
            <note default-x="135" color="#000000">
                <pitch>
                    <step>B</step>
                    <alter>-1</alter>
                    <octave>3</octave>
                </pitch>
                <duration>128</duration>
                <instrument id="P1-I1"/>
                <voice>1</voice>
                <type>eighth</type>
                <stem>up</stem>
                <staff>1</staff>
                <beam number="1">begin</beam>
            </note>
            <note default-x="166" color="#000000">
                <pitch>
                    <step>G</step>
                    <octave>4</octave>
                </pitch>
                <duration>128</duration>
                <tie type="start"/>
                <instrument id="P1-I1"/>
                <voice>1</voice>
                <type>eighth</type>
                <stem>up</stem>
                <staff>1</staff>
                <beam number="1">end</beam>
                <notations>
                    <tied type="start"/>
                </notations>
            </note>
            <note default-y="5" default-x="196" color="#000000">
                <pitch>
                    <step>G</step>
                    <octave>4</octave>
                </pitch>
                <duration>256</duration>
                <tie type="stop"/>
                <instrument id="P1-I1"/>
                <voice>1</voice>
                <type>quarter</type>
                <stem>up</stem>
                <staff>1</staff>
                <notations>
                    <tied type="stop"/>
                </notations>
            </note>
        </measure>
        <measure width="135" number="14">
            <attributes>
                <time color="#000000">
                    <beats>2</beats>
                    <beat-type>4</beat-type>
                </time>
            </attributes>
            <harmony default-y="25" color="#000000">
                <root>
                    <root-step>B</root-step>
                    <root-alter>-1</root-alter>
                </root>
                <kind>major</kind>
                <staff>1</staff>
            </harmony>
            <note default-x="33">
                <rest/>
                <duration>256</duration>
                <instrument id="P1-I1"/>
                <voice>1</voice>
                <type>quarter</type>
                <staff>1</staff>
            </note>
            <note default-x="75" color="#000000">
                <pitch>
                    <step>F</step>
                    <octave>4</octave>
                </pitch>
                <duration>128</duration>
                <instrument id="P1-I1"/>
                <voice>1</voice>
                <type>eighth</type>
                <stem>up</stem>
                <staff>1</staff>
                <beam number="1">begin</beam>
            </note>
            <note default-x="105" color="#000000">
                <pitch>
                    <step>G</step>
                    <octave>4</octave>
                </pitch>
                <duration>128</duration>
                <instrument id="P1-I1"/>
                <voice>1</voice>
                <type>eighth</type>
                <stem>up</stem>
                <staff>1</staff>
                <beam number="1">end</beam>
            </note>
        </measure>
        <measure width="146" number="15">
            <attributes>
                <time color="#000000">
                    <beats>4</beats>
                    <beat-type>4</beat-type>
                </time>
            </attributes>
            <harmony default-y="25" color="#000000">
                <root>
                    <root-step>F</root-step>
                </root>
                <kind>major</kind>
                <staff>1</staff>
            </harmony>
            <note default-x="33" color="#000000">
                <pitch>
                    <step>F</step>
                    <octave>4</octave>
                </pitch>
                <duration>1024</duration>
                <instrument id="P1-I1"/>
                <voice>1</voice>
                <type>whole</type>
                <staff>1</staff>
            </note>
            <barline location="right">
                <bar-style>light-heavy</bar-style>
            </barline>
        </measure>
    </part>
</score-partwise>
