<?xml version="1.0" encoding="UTF-8"?>
<!DOCTYPE score-partwise PUBLIC "-//Recordare//DTD MusicXML 2.0 Partwise//EN" "http://www.musicxml.org/dtds/partwise.dtd">
<score-partwise version="2.0">
    <work>
        <work-number></work-number>
        <work-title></work-title>
    </work>
    <movement-number></movement-number>
    <movement-title>Ashoken Farewell</movement-title>
    <identification>
        <creator type="composer">Jay Unger</creator>
        <creator type="poet"></creator>
        <rights>All Rights Reserved</rights>
        <encoding>
            <software>Sibelius 6.2</software>
            <software>Dolet 6.1 for Sibelius</software>
            <encoding-date>2012-06-21</encoding-date>
            <supports type="no" element="accidental"/>
            <supports type="no" element="transpose"/>
            <supports value="yes" type="yes" element="print" attribute="new-page"/>
            <supports value="yes" type="yes" element="print" attribute="new-system"/>
            <software>ProxyMusic 2.0 c</software>
        </encoding>
        <source>http://wikifonia.org/node/16481/revisions/21917/view</source>
    </identification>
    <defaults>
        <scaling>
            <millimeters>7</millimeters>
            <tenths>40</tenths>
        </scaling>
        <page-layout>
            <page-height>1597</page-height>
            <page-width>1234</page-width>
            <page-margins type="odd">
                <left-margin>36.2857</left-margin>
                <right-margin>36.2857</right-margin>
                <top-margin>72.5714</top-margin>
                <bottom-margin>72.5714</bottom-margin>
            </page-margins>
            <page-margins type="even">
                <left-margin>72.5714</left-margin>
                <right-margin>72.5714</right-margin>
                <top-margin>72.5714</top-margin>
                <bottom-margin>72.5714</bottom-margin>
            </page-margins>
        </page-layout>
        <system-layout>
            <system-margins>
                <left-margin>21.875</left-margin>
                <right-margin>0</right-margin>
            </system-margins>
            <system-distance>92.5</system-distance>
            <top-system-distance>72.8125</top-system-distance>
        </system-layout>
        <appearance>
            <line-width type="beam">5</line-width>
            <line-width type="heavy barline">5</line-width>
            <line-width type="leger">1.5625</line-width>
            <line-width type="light barline">1.5625</line-width>
            <line-width type="slur middle">2.1875</line-width>
            <line-width type="slur tip">0.625</line-width>
            <line-width type="staff">0.9375</line-width>
            <line-width type="stem">0.9375</line-width>
            <line-width type="tie middle">2.1875</line-width>
            <line-width type="tie tip">0.625</line-width>
            <note-size type="grace">60</note-size>
            <note-size type="cue">75</note-size>
        </appearance>
        <music-font font-family="Opus,music"/>
        <word-font font-family="Times New Roman"/>
    </defaults>
    <part-list>
        <score-part id="P1">
            <part-name print-object="no">Piano</part-name>
            <part-abbreviation print-object="no">Pno.</part-abbreviation>
            <score-instrument id="P1-I1">
                <instrument-name>Piano</instrument-name>
                <instrument-abbreviation>Pno.</instrument-abbreviation>
            </score-instrument>
            <midi-instrument id="P1-I1">
                <volume>79</volume>
                <pan>-18</pan>
            </midi-instrument>
        </score-part>
        <part-group type="stop" number="1"/>
    </part-list>
    <part id="P1">
        <measure number="0" implicit="yes">
            <print>
                <system-layout>
                    <top-system-distance>217.8125</top-system-distance>
                </system-layout>
                <staff-layout/>
            </print>
            <attributes>
                <divisions>768</divisions>
                <key>
                    <fifths>2</fifths>
                    <mode>major</mode>
                </key>
                <time>
                    <beats>3</beats>
                    <beat-type>4</beat-type>
                </time>
                <clef>
                    <sign>G</sign>
                    <line>2</line>
                </clef>
            </attributes>
            <direction placement="above" directive="yes">
                <direction-type>
                    <words font-weight="bold">Ballad</words>
                </direction-type>
                <direction-type>
                    <metronome>
                        <beat-unit>quarter</beat-unit>
                        <per-minute>108</per-minute>
                    </metronome>
                </direction-type>
                <sound tempo="108"/>
            </direction>
            <note>
                <pitch>
                    <step>A</step>
                    <octave>4</octave>
                </pitch>
                <duration>384</duration>
                <voice>1</voice>
                <type>eighth</type>
                <beam number="1">begin</beam>
            </note>
            <note>
                <pitch>
                    <step>C</step>
                    <alter>1</alter>
                    <octave>5</octave>
                </pitch>
                <duration>384</duration>
                <voice>1</voice>
                <type>eighth</type>
                <beam number="1">end</beam>
            </note>
        </measure>
        <measure number="1">
            <harmony relative-x="7" default-y="25" print-frame="no">
                <root>
                    <root-step>D</root-step>
                </root>
                <kind text="">major</kind>
            </harmony>
            <note>
                <pitch>
                    <step>F</step>
                    <alter>1</alter>
                    <octave>4</octave>
                </pitch>
                <duration>1152</duration>
                <voice>1</voice>
                <type>quarter</type>
                <dot/>
            </note>
            <note>
                <chord/>
                <pitch>
                    <step>A</step>
                    <octave>4</octave>
                </pitch>
                <duration>1152</duration>
                <voice>1</voice>
                <type>quarter</type>
                <dot/>
            </note>
            <note>
                <chord/>
                <pitch>
                    <step>D</step>
                    <octave>5</octave>
                </pitch>
                <duration>1152</duration>
                <voice>1</voice>
                <type>quarter</type>
                <dot/>
            </note>
            <note>
                <pitch>
                    <step>C</step>
                    <alter>1</alter>
                    <octave>5</octave>
                </pitch>
                <duration>384</duration>
                <voice>1</voice>
                <type>eighth</type>
            </note>
            <note>
                <pitch>
                    <step>B</step>
                    <octave>4</octave>
                </pitch>
                <duration>384</duration>
                <voice>1</voice>
                <type>eighth</type>
                <beam number="1">begin</beam>
            </note>
            <note>
                <pitch>
                    <step>A</step>
                    <octave>4</octave>
                </pitch>
                <duration>384</duration>
                <voice>1</voice>
                <type>eighth</type>
                <beam number="1">end</beam>
            </note>
        </measure>
        <measure number="2">
            <harmony relative-x="7" default-y="25" print-frame="no">
                <root>
                    <root-step>F</root-step>
                    <root-alter>1</root-alter>
                </root>
                <kind text="+">augmented</kind>
            </harmony>
            <note>
                <pitch>
                    <step>D</step>
                    <octave>4</octave>
                </pitch>
                <duration>1536</duration>
                <voice>1</voice>
                <type>half</type>
            </note>
            <note>
                <chord/>
                <pitch>
                    <step>F</step>
                    <alter>1</alter>
                    <octave>4</octave>
                </pitch>
                <duration>1536</duration>
                <voice>1</voice>
                <type>half</type>
            </note>
            <note>
                <pitch>
                    <step>E</step>
                    <octave>4</octave>
                </pitch>
                <duration>384</duration>
                <voice>1</voice>
                <type>eighth</type>
                <beam number="1">begin</beam>
            </note>
            <note>
                <pitch>
                    <step>F</step>
                    <alter>1</alter>
                    <octave>4</octave>
                </pitch>
                <duration>384</duration>
                <voice>1</voice>
                <type>eighth</type>
                <beam number="1">end</beam>
            </note>
        </measure>
        <measure number="3">
            <harmony relative-x="7" default-y="25" print-frame="no">
                <root>
                    <root-step>G</root-step>
                </root>
                <kind text="">major</kind>
            </harmony>
            <note>
                <pitch>
                    <step>B</step>
                    <octave>3</octave>
                </pitch>
                <duration>1152</duration>
                <voice>1</voice>
                <type>quarter</type>
                <dot/>
            </note>
            <note>
                <chord/>
                <pitch>
                    <step>D</step>
                    <octave>4</octave>
                </pitch>
                <duration>1152</duration>
                <voice>1</voice>
                <type>quarter</type>
                <dot/>
            </note>
            <note>
                <chord/>
                <pitch>
                    <step>G</step>
                    <octave>4</octave>
                </pitch>
                <duration>1152</duration>
                <voice>1</voice>
                <type>quarter</type>
                <dot/>
            </note>
            <note>
                <pitch>
                    <step>F</step>
                    <alter>1</alter>
                    <octave>4</octave>
                </pitch>
                <duration>384</duration>
                <voice>1</voice>
                <type>eighth</type>
            </note>
            <note>
                <pitch>
                    <step>E</step>
                    <octave>4</octave>
                </pitch>
                <duration>384</duration>
                <voice>1</voice>
                <type>eighth</type>
                <beam number="1">begin</beam>
            </note>
            <note>
                <pitch>
                    <step>D</step>
                    <octave>4</octave>
                </pitch>
                <duration>384</duration>
                <voice>1</voice>
                <type>eighth</type>
                <beam number="1">end</beam>
            </note>
        </measure>
        <measure number="4">
            <print new-system="yes"/>
            <harmony relative-x="7" default-y="25" print-frame="no">
                <root>
                    <root-step>E</root-step>
                </root>
                <kind text="m">minor</kind>
            </harmony>
            <note>
                <pitch>
                    <step>G</step>
                    <octave>3</octave>
                </pitch>
                <duration>768</duration>
                <voice>1</voice>
                <type>quarter</type>
            </note>
            <note>
                <chord/>
                <pitch>
                    <step>B</step>
                    <octave>3</octave>
                </pitch>
                <duration>768</duration>
                <voice>1</voice>
                <type>quarter</type>
            </note>
            <note>
                <pitch>
                    <step>G</step>
                    <octave>3</octave>
                </pitch>
                <duration>1152</duration>
                <voice>1</voice>
                <type>quarter</type>
                <dot/>
            </note>
            <note>
                <chord/>
                <pitch>
                    <step>B</step>
                    <octave>3</octave>
                </pitch>
                <duration>1152</duration>
                <voice>1</voice>
                <type>quarter</type>
                <dot/>
            </note>
            <note>
                <chord/>
                <pitch>
                    <step>D</step>
                    <octave>4</octave>
                </pitch>
                <duration>1152</duration>
                <voice>1</voice>
                <type>quarter</type>
                <dot/>
            </note>
            <note>
                <pitch>
                    <step>B</step>
                    <octave>3</octave>
                </pitch>
                <duration>384</duration>
                <voice>1</voice>
                <type>eighth</type>
            </note>
        </measure>
        <measure number="5">
            <harmony relative-x="7" default-y="25" print-frame="no">
                <root>
                    <root-step>D</root-step>
                </root>
                <kind text="">major</kind>
            </harmony>
            <note>
                <pitch>
                    <step>A</step>
                    <octave>3</octave>
                </pitch>
                <duration>768</duration>
                <voice>1</voice>
                <type>quarter</type>
            </note>
            <note>
                <pitch>
                    <step>A</step>
                    <octave>3</octave>
                </pitch>
                <duration>768</duration>
                <voice>1</voice>
                <type>quarter</type>
            </note>
            <note>
                <chord/>
                <pitch>
                    <step>D</step>
                    <octave>4</octave>
                </pitch>
                <duration>768</duration>
                <voice>1</voice>
                <type>quarter</type>
            </note>
            <note>
                <pitch>
                    <step>A</step>
                    <octave>3</octave>
                </pitch>
                <duration>768</duration>
                <voice>1</voice>
                <type>quarter</type>
            </note>
            <note>
                <chord/>
                <pitch>
                    <step>D</step>
                    <octave>4</octave>
                </pitch>
                <duration>768</duration>
                <voice>1</voice>
                <type>quarter</type>
            </note>
            <note>
                <chord/>
                <pitch>
                    <step>F</step>
                    <alter>1</alter>
                    <octave>4</octave>
                </pitch>
                <duration>768</duration>
                <voice>1</voice>
                <type>quarter</type>
            </note>
        </measure>
        <measure number="6">
            <harmony relative-x="7" default-y="25" print-frame="no">
                <root>
                    <root-step>B</root-step>
                </root>
                <kind text="m7">minor-seventh</kind>
            </harmony>
            <note>
                <pitch>
                    <step>D</step>
                    <octave>4</octave>
                </pitch>
                <duration>768</duration>
                <voice>1</voice>
                <type>quarter</type>
            </note>
            <note>
                <chord/>
                <pitch>
                    <step>F</step>
                    <alter>1</alter>
                    <octave>4</octave>
                </pitch>
                <duration>768</duration>
                <voice>1</voice>
                <type>quarter</type>
            </note>
            <note>
                <chord/>
                <pitch>
                    <step>A</step>
                    <octave>4</octave>
                </pitch>
                <duration>768</duration>
                <voice>1</voice>
                <type>quarter</type>
            </note>
            <note>
                <pitch>
                    <step>D</step>
                    <octave>4</octave>
                </pitch>
                <duration>768</duration>
                <voice>1</voice>
                <type>quarter</type>
            </note>
            <note>
                <chord/>
                <pitch>
                    <step>F</step>
                    <alter>1</alter>
                    <octave>4</octave>
                </pitch>
                <duration>768</duration>
                <voice>1</voice>
                <type>quarter</type>
            </note>
            <note>
                <chord/>
                <pitch>
                    <step>A</step>
                    <octave>4</octave>
                </pitch>
                <duration>768</duration>
                <voice>1</voice>
                <type>quarter</type>
            </note>
            <note>
                <chord/>
                <pitch>
                    <step>D</step>
                    <octave>5</octave>
                </pitch>
                <duration>768</duration>
                <voice>1</voice>
                <type>quarter</type>
            </note>
            <note>
                <pitch>
                    <step>B</step>
                    <octave>4</octave>
                </pitch>
                <duration>768</duration>
                <voice>1</voice>
                <type>quarter</type>
            </note>
            <note>
                <chord/>
                <pitch>
                    <step>D</step>
                    <octave>5</octave>
                </pitch>
                <duration>768</duration>
                <voice>1</voice>
                <type>quarter</type>
            </note>
            <note>
                <chord/>
                <pitch>
                    <step>F</step>
                    <alter>1</alter>
                    <octave>5</octave>
                </pitch>
                <duration>768</duration>
                <voice>1</voice>
                <type>quarter</type>
            </note>
        </measure>
        <measure number="7">
            <print new-system="yes"/>
            <harmony relative-x="7" default-y="25" print-frame="no">
                <root>
                    <root-step>G</root-step>
                </root>
                <kind text="maj7">major-seventh</kind>
            </harmony>
            <note>
                <pitch>
                    <step>B</step>
                    <octave>4</octave>
                </pitch>
                <duration>1152</duration>
                <voice>1</voice>
                <type>quarter</type>
                <dot/>
            </note>
            <note>
                <chord/>
                <pitch>
                    <step>D</step>
                    <octave>5</octave>
                </pitch>
                <duration>1152</duration>
                <voice>1</voice>
                <type>quarter</type>
                <dot/>
            </note>
            <note>
                <chord/>
                <pitch>
                    <step>F</step>
                    <alter>1</alter>
                    <octave>5</octave>
                </pitch>
                <duration>1152</duration>
                <voice>1</voice>
                <type>quarter</type>
                <dot/>
            </note>
            <note>
                <pitch>
                    <step>B</step>
                    <octave>4</octave>
                </pitch>
                <duration>384</duration>
                <voice>1</voice>
                <type>eighth</type>
            </note>
            <note>
                <chord/>
                <pitch>
                    <step>D</step>
                    <octave>5</octave>
                </pitch>
                <duration>384</duration>
                <voice>1</voice>
                <type>eighth</type>
            </note>
            <note>
                <chord/>
                <pitch>
                    <step>G</step>
                    <octave>5</octave>
                </pitch>
                <duration>384</duration>
                <voice>1</voice>
                <type>eighth</type>
            </note>
            <note>
                <pitch>
                    <step>B</step>
                    <octave>4</octave>
                </pitch>
                <duration>384</duration>
                <voice>1</voice>
                <type>eighth</type>
                <beam number="1">begin</beam>
            </note>
            <note>
                <chord/>
                <pitch>
                    <step>D</step>
                    <octave>5</octave>
                </pitch>
                <duration>384</duration>
                <voice>1</voice>
                <type>eighth</type>
            </note>
            <note>
                <chord/>
                <pitch>
                    <step>F</step>
                    <alter>1</alter>
                    <octave>5</octave>
                </pitch>
                <duration>384</duration>
                <voice>1</voice>
                <type>eighth</type>
            </note>
            <note>
                <pitch>
                    <step>B</step>
                    <octave>4</octave>
                </pitch>
                <duration>384</duration>
                <voice>1</voice>
                <type>eighth</type>
                <beam number="1">end</beam>
            </note>
        </measure>
        <measure number="8">
            <harmony relative-x="7" default-y="25" print-frame="no">
                <root>
                    <root-step>A</root-step>
                </root>
                <kind text="7">dominant</kind>
            </harmony>
            <note>
                <pitch>
                    <step>A</step>
                    <octave>4</octave>
                </pitch>
                <duration>1536</duration>
                <voice>1</voice>
                <type>half</type>
            </note>
            <note>
                <chord/>
                <pitch>
                    <step>C</step>
                    <alter>1</alter>
                    <octave>5</octave>
                </pitch>
                <duration>1536</duration>
                <voice>1</voice>
                <type>half</type>
            </note>
            <note>
                <chord/>
                <pitch>
                    <step>E</step>
                    <octave>5</octave>
                </pitch>
                <duration>1536</duration>
                <voice>1</voice>
                <type>half</type>
            </note>
            <note>
                <pitch>
                    <step>A</step>
                    <octave>4</octave>
                </pitch>
                <duration>384</duration>
                <voice>1</voice>
                <type>eighth</type>
                <beam number="1">begin</beam>
            </note>
            <note>
                <pitch>
                    <step>C</step>
                    <alter>1</alter>
                    <octave>5</octave>
                </pitch>
                <duration>384</duration>
                <voice>1</voice>
                <type>eighth</type>
                <beam number="1">end</beam>
            </note>
        </measure>
        <measure number="9">
            <harmony relative-x="7" default-y="25" print-frame="no">
                <root>
                    <root-step>D</root-step>
                </root>
                <kind text="">major</kind>
            </harmony>
            <note>
                <pitch>
                    <step>D</step>
                    <octave>4</octave>
                </pitch>
                <duration>1152</duration>
                <voice>1</voice>
                <type>quarter</type>
                <dot/>
            </note>
            <note>
                <chord/>
                <pitch>
                    <step>F</step>
                    <alter>1</alter>
                    <octave>4</octave>
                </pitch>
                <duration>1152</duration>
                <voice>1</voice>
                <type>quarter</type>
                <dot/>
            </note>
            <note>
                <chord/>
                <pitch>
                    <step>D</step>
                    <octave>5</octave>
                </pitch>
                <duration>1152</duration>
                <voice>1</voice>
                <type>quarter</type>
                <dot/>
            </note>
            <note>
                <pitch>
                    <step>C</step>
                    <alter>1</alter>
                    <octave>5</octave>
                </pitch>
                <duration>384</duration>
                <voice>1</voice>
                <type>eighth</type>
            </note>
            <note>
                <pitch>
                    <step>B</step>
                    <octave>4</octave>
                </pitch>
                <duration>384</duration>
                <voice>1</voice>
                <type>eighth</type>
                <beam number="1">begin</beam>
            </note>
            <note>
                <pitch>
                    <step>A</step>
                    <octave>4</octave>
                </pitch>
                <duration>384</duration>
                <voice>1</voice>
                <type>eighth</type>
                <beam number="1">end</beam>
            </note>
        </measure>
        <measure number="10">
            <print new-system="yes"/>
            <harmony relative-x="7" default-y="25" print-frame="no">
                <root>
                    <root-step>A</root-step>
                </root>
                <kind text="m6">minor-sixth</kind>
            </harmony>
            <note>
                <pitch>
                    <step>C</step>
                    <octave>4</octave>
                </pitch>
                <duration>1536</duration>
                <voice>1</voice>
                <type>half</type>
            </note>
            <note>
                <chord/>
                <pitch>
                    <step>E</step>
                    <octave>4</octave>
                </pitch>
                <duration>1536</duration>
                <voice>1</voice>
                <type>half</type>
            </note>
            <note>
                <chord/>
                <pitch>
                    <step>F</step>
                    <alter>1</alter>
                    <octave>4</octave>
                </pitch>
                <duration>1536</duration>
                <voice>1</voice>
                <type>half</type>
            </note>
            <note>
                <pitch>
                    <step>E</step>
                    <octave>4</octave>
                </pitch>
                <duration>384</duration>
                <voice>1</voice>
                <type>eighth</type>
                <beam number="1">begin</beam>
            </note>
            <note>
                <pitch>
                    <step>F</step>
                    <alter>1</alter>
                    <octave>4</octave>
                </pitch>
                <duration>384</duration>
                <voice>1</voice>
                <type>eighth</type>
                <beam number="1">end</beam>
            </note>
        </measure>
        <measure number="11">
            <harmony relative-x="7" default-y="25" print-frame="no">
                <root>
                    <root-step>G</root-step>
                </root>
                <kind text="">major</kind>
            </harmony>
            <note>
                <pitch>
                    <step>B</step>
                    <octave>3</octave>
                </pitch>
                <duration>1152</duration>
                <voice>1</voice>
                <type>quarter</type>
                <dot/>
            </note>
            <note>
                <chord/>
                <pitch>
                    <step>D</step>
                    <octave>4</octave>
                </pitch>
                <duration>1152</duration>
                <voice>1</voice>
                <type>quarter</type>
                <dot/>
            </note>
            <note>
                <chord/>
                <pitch>
                    <step>G</step>
                    <octave>4</octave>
                </pitch>
                <duration>1152</duration>
                <voice>1</voice>
                <type>quarter</type>
                <dot/>
            </note>
            <note>
                <pitch>
                    <step>F</step>
                    <alter>1</alter>
                    <octave>4</octave>
                </pitch>
                <duration>384</duration>
                <voice>1</voice>
                <type>eighth</type>
            </note>
            <note>
                <pitch>
                    <step>E</step>
                    <octave>4</octave>
                </pitch>
                <duration>384</duration>
                <voice>1</voice>
                <type>eighth</type>
                <beam number="1">begin</beam>
            </note>
            <note>
                <pitch>
                    <step>D</step>
                    <octave>4</octave>
                </pitch>
                <duration>384</duration>
                <voice>1</voice>
                <type>eighth</type>
                <beam number="1">end</beam>
            </note>
        </measure>
        <measure number="12">
            <harmony relative-x="7" default-y="25" print-frame="no">
                <root>
                    <root-step>E</root-step>
                </root>
                <kind text="m">minor</kind>
            </harmony>
            <note>
                <pitch>
                    <step>G</step>
                    <octave>3</octave>
                </pitch>
                <duration>768</duration>
                <voice>1</voice>
                <type>quarter</type>
            </note>
            <note>
                <chord/>
                <pitch>
                    <step>B</step>
                    <octave>3</octave>
                </pitch>
                <duration>768</duration>
                <voice>1</voice>
                <type>quarter</type>
            </note>
            <note>
                <pitch>
                    <step>G</step>
                    <octave>3</octave>
                </pitch>
                <duration>1152</duration>
                <voice>1</voice>
                <type>quarter</type>
                <dot/>
            </note>
            <note>
                <chord/>
                <pitch>
                    <step>B</step>
                    <octave>3</octave>
                </pitch>
                <duration>1152</duration>
                <voice>1</voice>
                <type>quarter</type>
                <dot/>
            </note>
            <note>
                <chord/>
                <pitch>
                    <step>D</step>
                    <octave>4</octave>
                </pitch>
                <duration>1152</duration>
                <voice>1</voice>
                <type>quarter</type>
                <dot/>
            </note>
            <note>
                <pitch>
                    <step>B</step>
                    <octave>3</octave>
                </pitch>
                <duration>384</duration>
                <voice>1</voice>
                <type>eighth</type>
            </note>
        </measure>
        <measure number="13">
            <print new-system="yes"/>
            <harmony relative-x="7" default-y="25" print-frame="no">
                <root>
                    <root-step>D</root-step>
                </root>
                <kind text="">major</kind>
            </harmony>
            <note>
                <pitch>
                    <step>A</step>
                    <octave>3</octave>
                </pitch>
                <duration>768</duration>
                <voice>1</voice>
                <type>quarter</type>
            </note>
            <note>
                <pitch>
                    <step>A</step>
                    <octave>3</octave>
                </pitch>
                <duration>768</duration>
                <voice>1</voice>
                <type>quarter</type>
            </note>
            <note>
                <chord/>
                <pitch>
                    <step>D</step>
                    <octave>4</octave>
                </pitch>
                <duration>768</duration>
                <voice>1</voice>
                <type>quarter</type>
            </note>
            <note>
                <pitch>
                    <step>A</step>
                    <octave>3</octave>
                </pitch>
                <duration>768</duration>
                <voice>1</voice>
                <type>quarter</type>
            </note>
            <note>
                <chord/>
                <pitch>
                    <step>D</step>
                    <octave>4</octave>
                </pitch>
                <duration>768</duration>
                <voice>1</voice>
                <type>quarter</type>
            </note>
            <note>
                <chord/>
                <pitch>
                    <step>F</step>
                    <alter>1</alter>
                    <octave>4</octave>
                </pitch>
                <duration>768</duration>
                <voice>1</voice>
                <type>quarter</type>
            </note>
        </measure>
        <measure number="14">
            <harmony relative-x="8" default-y="25" print-frame="no">
                <root>
                    <root-step>D</root-step>
                </root>
                <kind text="">major</kind>
                <bass>
                    <bass-step>F</bass-step>
                    <bass-alter>1</bass-alter>
                </bass>
            </harmony>
            <note>
                <pitch>
                    <step>D</step>
                    <octave>4</octave>
                </pitch>
                <duration>768</duration>
                <voice>1</voice>
                <type>quarter</type>
            </note>
            <note>
                <chord/>
                <pitch>
                    <step>F</step>
                    <alter>1</alter>
                    <octave>4</octave>
                </pitch>
                <duration>768</duration>
                <voice>1</voice>
                <type>quarter</type>
            </note>
            <note>
                <chord/>
                <pitch>
                    <step>A</step>
                    <octave>4</octave>
                </pitch>
                <duration>768</duration>
                <voice>1</voice>
                <type>quarter</type>
            </note>
            <note>
                <pitch>
                    <step>D</step>
                    <octave>4</octave>
                </pitch>
                <duration>768</duration>
                <voice>1</voice>
                <type>quarter</type>
            </note>
            <note>
                <chord/>
                <pitch>
                    <step>F</step>
                    <alter>1</alter>
                    <octave>4</octave>
                </pitch>
                <duration>768</duration>
                <voice>1</voice>
                <type>quarter</type>
            </note>
            <note>
                <chord/>
                <pitch>
                    <step>A</step>
                    <octave>4</octave>
                </pitch>
                <duration>768</duration>
                <voice>1</voice>
                <type>quarter</type>
            </note>
            <note>
                <chord/>
                <pitch>
                    <step>D</step>
                    <octave>5</octave>
                </pitch>
                <duration>768</duration>
                <voice>1</voice>
                <type>quarter</type>
            </note>
            <note>
                <pitch>
                    <step>A</step>
                    <octave>4</octave>
                </pitch>
                <duration>768</duration>
                <voice>1</voice>
                <type>quarter</type>
            </note>
            <note>
                <chord/>
                <pitch>
                    <step>D</step>
                    <octave>5</octave>
                </pitch>
                <duration>768</duration>
                <voice>1</voice>
                <type>quarter</type>
            </note>
            <note>
                <chord/>
                <pitch>
                    <step>F</step>
                    <alter>1</alter>
                    <octave>5</octave>
                </pitch>
                <duration>768</duration>
                <voice>1</voice>
                <type>quarter</type>
            </note>
        </measure>
        <measure number="15">
            <harmony relative-x="12" default-y="25" print-frame="no">
                <root>
                    <root-step>A</root-step>
                </root>
                <kind text="7">dominant</kind>
            </harmony>
            <note>
                <pitch>
                    <step>A</step>
                    <octave>4</octave>
                </pitch>
                <duration>768</duration>
                <voice>1</voice>
                <type>quarter</type>
            </note>
            <note>
                <pitch>
                    <step>A</step>
                    <octave>4</octave>
                </pitch>
                <duration>768</duration>
                <voice>1</voice>
                <type>quarter</type>
            </note>
            <note>
                <chord/>
                <pitch>
                    <step>C</step>
                    <alter>1</alter>
                    <octave>5</octave>
                </pitch>
                <duration>768</duration>
                <voice>1</voice>
                <type>quarter</type>
            </note>
            <note>
                <pitch>
                    <step>A</step>
                    <octave>4</octave>
                </pitch>
                <duration>768</duration>
                <voice>1</voice>
                <type>quarter</type>
            </note>
            <note>
                <chord/>
                <pitch>
                    <step>C</step>
                    <alter>1</alter>
                    <octave>5</octave>
                </pitch>
                <duration>768</duration>
                <voice>1</voice>
                <type>quarter</type>
            </note>
            <note>
                <chord/>
                <pitch>
                    <step>E</step>
                    <octave>5</octave>
                </pitch>
                <duration>768</duration>
                <voice>1</voice>
                <type>quarter</type>
            </note>
        </measure>
        <measure number="16">
            <print new-system="yes"/>
            <harmony relative-x="7" default-y="25" print-frame="no">
                <root>
                    <root-step>D</root-step>
                </root>
                <kind text="">major</kind>
            </harmony>
            <note>
                <pitch>
                    <step>F</step>
                    <alter>1</alter>
                    <octave>4</octave>
                </pitch>
                <duration>1536</duration>
                <voice>1</voice>
                <type>half</type>
            </note>
            <note>
                <chord/>
                <pitch>
                    <step>A</step>
                    <octave>4</octave>
                </pitch>
                <duration>1536</duration>
                <voice>1</voice>
                <type>half</type>
            </note>
            <note>
                <chord/>
                <pitch>
                    <step>D</step>
                    <octave>5</octave>
                </pitch>
                <duration>1536</duration>
                <voice>1</voice>
                <type>half</type>
            </note>
            <note>
                <pitch>
                    <step>D</step>
                    <octave>4</octave>
                </pitch>
                <duration>384</duration>
                <voice>1</voice>
                <type>eighth</type>
                <beam number="1">begin</beam>
            </note>
            <note>
                <chord/>
                <pitch>
                    <step>F</step>
                    <alter>1</alter>
                    <octave>4</octave>
                </pitch>
                <duration>384</duration>
                <voice>1</voice>
                <type>eighth</type>
            </note>
            <note>
                <pitch>
                    <step>G</step>
                    <octave>4</octave>
                </pitch>
                <duration>384</duration>
                <voice>1</voice>
                <type>eighth</type>
                <beam number="1">end</beam>
            </note>
            <barline location="right">
                <bar-style>light-light</bar-style>
            </barline>
        </measure>
        <measure number="17">
            <harmony relative-x="8" default-y="25" print-frame="no">
                <root>
                    <root-step>D</root-step>
                </root>
                <kind text="">major</kind>
            </harmony>
            <note>
                <pitch>
                    <step>D</step>
                    <octave>4</octave>
                </pitch>
                <duration>1152</duration>
                <voice>1</voice>
                <type>quarter</type>
                <dot/>
            </note>
            <note>
                <chord/>
                <pitch>
                    <step>F</step>
                    <alter>1</alter>
                    <octave>4</octave>
                </pitch>
                <duration>1152</duration>
                <voice>1</voice>
                <type>quarter</type>
                <dot/>
            </note>
            <note>
                <chord/>
                <pitch>
                    <step>A</step>
                    <octave>4</octave>
                </pitch>
                <duration>1152</duration>
                <voice>1</voice>
                <type>quarter</type>
                <dot/>
            </note>
            <note>
                <pitch>
                    <step>F</step>
                    <alter>1</alter>
                    <octave>4</octave>
                </pitch>
                <duration>384</duration>
                <voice>1</voice>
                <type>eighth</type>
            </note>
            <note>
                <pitch>
                    <step>D</step>
                    <octave>4</octave>
                </pitch>
                <duration>768</duration>
                <voice>1</voice>
                <type>quarter</type>
            </note>
        </measure>
        <measure number="18">
            <harmony relative-x="8" default-y="25" print-frame="no">
                <root>
                    <root-step>D</root-step>
                </root>
                <kind text="">major</kind>
                <bass>
                    <bass-step>F</bass-step>
                    <bass-alter>1</bass-alter>
                </bass>
            </harmony>
            <note>
                <pitch>
                    <step>D</step>
                    <octave>4</octave>
                </pitch>
                <duration>1536</duration>
                <tie type="start"/>
                <voice>1</voice>
                <type>half</type>
                <notations>
                    <tied type="start"/>
                    <arpeggiate/>
                </notations>
            </note>
            <note>
                <chord/>
                <pitch>
                    <step>F</step>
                    <alter>1</alter>
                    <octave>4</octave>
                </pitch>
                <duration>1536</duration>
                <tie type="start"/>
                <voice>1</voice>
                <type>half</type>
                <notations>
                    <tied type="start"/>
                    <arpeggiate/>
                </notations>
            </note>
            <note>
                <chord/>
                <pitch>
                    <step>A</step>
                    <octave>4</octave>
                </pitch>
                <duration>1536</duration>
                <tie type="start"/>
                <voice>1</voice>
                <type>half</type>
                <notations>
                    <tied type="start"/>
                    <arpeggiate/>
                </notations>
            </note>
            <note>
                <chord/>
                <pitch>
                    <step>D</step>
                    <octave>5</octave>
                </pitch>
                <duration>1536</duration>
                <tie type="start"/>
                <voice>1</voice>
                <type>half</type>
                <notations>
                    <tied type="start"/>
                    <arpeggiate/>
                </notations>
            </note>
            <note>
                <pitch>
                    <step>D</step>
                    <octave>4</octave>
                </pitch>
                <duration>384</duration>
                <tie type="stop"/>
                <voice>1</voice>
                <type>eighth</type>
                <beam number="1">begin</beam>
                <notations>
                    <tied type="stop"/>
                </notations>
            </note>
            <note>
                <chord/>
                <pitch>
                    <step>F</step>
                    <alter>1</alter>
                    <octave>4</octave>
                </pitch>
                <duration>384</duration>
                <tie type="stop"/>
                <voice>1</voice>
                <type>eighth</type>
                <notations>
                    <tied type="stop"/>
                </notations>
            </note>
            <note>
                <chord/>
                <pitch>
                    <step>A</step>
                    <octave>4</octave>
                </pitch>
                <duration>384</duration>
                <tie type="stop"/>
                <voice>1</voice>
                <type>eighth</type>
                <notations>
                    <tied type="stop"/>
                </notations>
            </note>
            <note>
                <chord/>
                <pitch>
                    <step>D</step>
                    <octave>5</octave>
                </pitch>
                <duration>384</duration>
                <tie type="stop"/>
                <voice>1</voice>
                <type>eighth</type>
                <notations>
                    <tied type="stop"/>
                </notations>
            </note>
            <note>
                <pitch>
                    <step>A</step>
                    <octave>4</octave>
                </pitch>
                <duration>384</duration>
                <voice>1</voice>
                <type>eighth</type>
                <beam number="1">end</beam>
            </note>
        </measure>
        <measure number="19">
            <print new-system="yes"/>
            <harmony relative-x="7" default-y="25" print-frame="no">
                <root>
                    <root-step>G</root-step>
                </root>
                <kind text="">major</kind>
            </harmony>
            <note>
                <pitch>
                    <step>D</step>
                    <octave>4</octave>
                </pitch>
                <duration>1152</duration>
                <voice>1</voice>
                <type>quarter</type>
                <dot/>
            </note>
            <note>
                <chord/>
                <pitch>
                    <step>G</step>
                    <octave>4</octave>
                </pitch>
                <duration>1152</duration>
                <voice>1</voice>
                <type>quarter</type>
                <dot/>
            </note>
            <note>
                <chord/>
                <pitch>
                    <step>B</step>
                    <octave>4</octave>
                </pitch>
                <duration>1152</duration>
                <voice>1</voice>
                <type>quarter</type>
                <dot/>
            </note>
            <note>
                <pitch>
                    <step>C</step>
                    <alter>1</alter>
                    <octave>5</octave>
                </pitch>
                <duration>768</duration>
                <voice>1</voice>
                <type>quarter</type>
            </note>
            <note>
                <pitch>
                    <step>D</step>
                    <octave>5</octave>
                </pitch>
                <duration>384</duration>
                <voice>1</voice>
                <type>eighth</type>
            </note>
        </measure>
        <measure number="20">
            <harmony relative-x="7" default-y="25" print-frame="no">
                <root>
                    <root-step>D</root-step>
                </root>
                <kind text="">major</kind>
            </harmony>
            <note>
                <pitch>
                    <step>D</step>
                    <octave>4</octave>
                </pitch>
                <duration>768</duration>
                <voice>1</voice>
                <type>quarter</type>
            </note>
            <note>
                <chord/>
                <pitch>
                    <step>F</step>
                    <alter>1</alter>
                    <octave>4</octave>
                </pitch>
                <duration>768</duration>
                <voice>1</voice>
                <type>quarter</type>
            </note>
            <note>
                <chord/>
                <pitch>
                    <step>A</step>
                    <octave>4</octave>
                </pitch>
                <duration>768</duration>
                <voice>1</voice>
                <type>quarter</type>
            </note>
            <note>
                <pitch>
                    <step>D</step>
                    <octave>4</octave>
                </pitch>
                <duration>1152</duration>
                <voice>1</voice>
                <type>quarter</type>
                <dot/>
            </note>
            <note>
                <chord/>
                <pitch>
                    <step>F</step>
                    <alter>1</alter>
                    <octave>4</octave>
                </pitch>
                <duration>1152</duration>
                <voice>1</voice>
                <type>quarter</type>
                <dot/>
            </note>
            <note>
                <pitch>
                    <step>E</step>
                    <octave>4</octave>
                </pitch>
                <duration>384</duration>
                <voice>1</voice>
                <type>eighth</type>
            </note>
        </measure>
        <measure number="21">
            <note>
                <pitch>
                    <step>D</step>
                    <octave>4</octave>
                </pitch>
                <duration>1152</duration>
                <voice>1</voice>
                <type>quarter</type>
                <dot/>
            </note>
            <note>
                <chord/>
                <pitch>
                    <step>F</step>
                    <alter>1</alter>
                    <octave>4</octave>
                </pitch>
                <duration>1152</duration>
                <voice>1</voice>
                <type>quarter</type>
                <dot/>
            </note>
            <note>
                <pitch>
                    <step>E</step>
                    <octave>4</octave>
                </pitch>
                <duration>384</duration>
                <voice>1</voice>
                <type>eighth</type>
            </note>
            <note>
                <pitch>
                    <step>D</step>
                    <octave>4</octave>
                </pitch>
                <duration>768</duration>
                <voice>1</voice>
                <type>quarter</type>
            </note>
        </measure>
        <measure number="22">
            <print new-system="yes"/>
            <harmony relative-x="2" default-y="25" print-frame="no">
                <root>
                    <root-step>B</root-step>
                </root>
                <kind text="m">minor</kind>
            </harmony>
            <note>
                <pitch>
                    <step>B</step>
                    <octave>3</octave>
                </pitch>
                <duration>1536</duration>
                <voice>1</voice>
                <type>half</type>
            </note>
            <note>
                <pitch>
                    <step>G</step>
                    <octave>3</octave>
                </pitch>
                <duration>768</duration>
                <voice>1</voice>
                <type>quarter</type>
            </note>
        </measure>
        <measure number="23">
            <harmony relative-x="8" default-y="25" print-frame="no">
                <root>
                    <root-step>A</root-step>
                </root>
                <kind text="7">dominant</kind>
            </harmony>
            <note>
                <pitch>
                    <step>A</step>
                    <octave>3</octave>
                </pitch>
                <duration>1536</duration>
                <voice>1</voice>
                <type>half</type>
            </note>
            <note>
                <pitch>
                    <step>A</step>
                    <octave>4</octave>
                </pitch>
                <duration>768</duration>
                <voice>1</voice>
                <type>quarter</type>
            </note>
        </measure>
        <measure number="24">
            <harmony relative-x="7" default-y="25" print-frame="no">
                <root>
                    <root-step>A</root-step>
                </root>
                <kind text="7">dominant</kind>
                <bass>
                    <bass-step>G</bass-step>
                </bass>
            </harmony>
            <note>
                <pitch>
                    <step>A</step>
                    <octave>3</octave>
                </pitch>
                <duration>1536</duration>
                <voice>1</voice>
                <type>half</type>
            </note>
            <note>
                <chord/>
                <pitch>
                    <step>C</step>
                    <alter>1</alter>
                    <octave>4</octave>
                </pitch>
                <duration>1536</duration>
                <voice>1</voice>
                <type>half</type>
            </note>
            <note>
                <chord/>
                <pitch>
                    <step>E</step>
                    <octave>4</octave>
                </pitch>
                <duration>1536</duration>
                <voice>1</voice>
                <type>half</type>
            </note>
            <note>
                <chord/>
                <pitch>
                    <step>A</step>
                    <octave>4</octave>
                </pitch>
                <duration>1536</duration>
                <voice>1</voice>
                <type>half</type>
            </note>
            <note>
                <pitch>
                    <step>F</step>
                    <alter>1</alter>
                    <octave>4</octave>
                </pitch>
                <duration>384</duration>
                <voice>1</voice>
                <type>eighth</type>
                <beam number="1">begin</beam>
            </note>
            <note>
                <pitch>
                    <step>E</step>
                    <octave>4</octave>
                </pitch>
                <duration>384</duration>
                <voice>1</voice>
                <type>eighth</type>
                <beam number="1">end</beam>
            </note>
        </measure>
        <measure number="25">
            <print new-system="yes"/>
            <harmony relative-x="8" default-y="25" print-frame="no">
                <root>
                    <root-step>D</root-step>
                </root>
                <kind text="">major</kind>
            </harmony>
            <note>
                <pitch>
                    <step>D</step>
                    <octave>4</octave>
                </pitch>
                <duration>768</duration>
                <voice>1</voice>
                <type>quarter</type>
            </note>
            <note>
                <pitch>
                    <step>F</step>
                    <alter>1</alter>
                    <octave>4</octave>
                </pitch>
                <duration>768</duration>
                <voice>1</voice>
                <type>quarter</type>
            </note>
            <note>
                <pitch>
                    <step>D</step>
                    <octave>4</octave>
                </pitch>
                <duration>768</duration>
                <voice>1</voice>
                <type>quarter</type>
            </note>
            <note>
                <chord/>
                <pitch>
                    <step>A</step>
                    <octave>4</octave>
                </pitch>
                <duration>768</duration>
                <voice>1</voice>
                <type>quarter</type>
            </note>
        </measure>
        <measure number="26">
            <harmony relative-x="7" default-y="25" print-frame="no">
                <root>
                    <root-step>C</root-step>
                </root>
                <kind text="">major</kind>
            </harmony>
            <note>
                <pitch>
                    <step>E</step>
                    <octave>4</octave>
                </pitch>
                <duration>1536</duration>
                <voice>1</voice>
                <type>half</type>
                <notations>
                    <arpeggiate/>
                    <fermata>normal</fermata>
                </notations>
            </note>
            <note>
                <chord/>
                <pitch>
                    <step>G</step>
                    <octave>4</octave>
                </pitch>
                <duration>1536</duration>
                <voice>1</voice>
                <type>half</type>
                <notations>
                    <arpeggiate/>
                </notations>
            </note>
            <note>
                <chord/>
                <pitch>
                    <step>C</step>
                    <octave>5</octave>
                </pitch>
                <duration>1536</duration>
                <voice>1</voice>
                <type>half</type>
                <notations>
                    <arpeggiate/>
                </notations>
            </note>
            <note>
                <chord/>
                <pitch>
                    <step>E</step>
                    <octave>5</octave>
                </pitch>
                <duration>1536</duration>
                <voice>1</voice>
                <type>half</type>
                <notations>
                    <arpeggiate/>
                </notations>
            </note>
            <note>
                <chord/>
                <pitch>
                    <step>G</step>
                    <octave>5</octave>
                </pitch>
                <duration>1536</duration>
                <voice>1</voice>
                <type>half</type>
                <notations>
                    <arpeggiate/>
                </notations>
            </note>
            <note>
                <pitch>
                    <step>D</step>
                    <octave>5</octave>
                </pitch>
                <duration>768</duration>
                <voice>1</voice>
                <type>quarter</type>
            </note>
            <note>
                <chord/>
                <pitch>
                    <step>F</step>
                    <alter>1</alter>
                    <octave>5</octave>
                </pitch>
                <duration>768</duration>
                <voice>1</voice>
                <type>quarter</type>
            </note>
            <note>
                <chord/>
                <pitch>
                    <step>A</step>
                    <octave>5</octave>
                </pitch>
                <duration>768</duration>
                <voice>1</voice>
                <type>quarter</type>
            </note>
        </measure>
        <measure number="27">
            <harmony relative-x="7" default-y="25" print-frame="no">
                <root>
                    <root-step>G</root-step>
                </root>
                <kind text="">major</kind>
            </harmony>
            <note>
                <pitch>
                    <step>D</step>
                    <octave>4</octave>
                </pitch>
                <duration>1152</duration>
                <voice>1</voice>
                <type>quarter</type>
                <dot/>
            </note>
            <note>
                <chord/>
                <pitch>
                    <step>B</step>
                    <octave>4</octave>
                </pitch>
                <duration>1152</duration>
                <voice>1</voice>
                <type>quarter</type>
                <dot/>
            </note>
            <note>
                <pitch>
                    <step>C</step>
                    <alter>1</alter>
                    <octave>5</octave>
                </pitch>
                <duration>384</duration>
                <voice>1</voice>
                <type>eighth</type>
            </note>
            <note>
                <pitch>
                    <step>D</step>
                    <octave>5</octave>
                </pitch>
                <duration>768</duration>
                <voice>1</voice>
                <type>quarter</type>
            </note>
        </measure>
        <measure number="28">
            <harmony relative-x="7" default-y="25" print-frame="no">
                <root>
                    <root-step>D</root-step>
                </root>
                <kind text="">major</kind>
            </harmony>
            <note>
                <pitch>
                    <step>D</step>
                    <octave>4</octave>
                </pitch>
                <duration>768</duration>
                <voice>1</voice>
                <type>quarter</type>
            </note>
            <note>
                <chord/>
                <pitch>
                    <step>F</step>
                    <alter>1</alter>
                    <octave>4</octave>
                </pitch>
                <duration>768</duration>
                <voice>1</voice>
                <type>quarter</type>
            </note>
            <note>
                <chord/>
                <pitch>
                    <step>A</step>
                    <octave>4</octave>
                </pitch>
                <duration>768</duration>
                <voice>1</voice>
                <type>quarter</type>
            </note>
            <note>
                <pitch>
                    <step>D</step>
                    <octave>4</octave>
                </pitch>
                <duration>1152</duration>
                <voice>1</voice>
                <type>quarter</type>
                <dot/>
            </note>
            <note>
                <chord/>
                <pitch>
                    <step>F</step>
                    <alter>1</alter>
                    <octave>4</octave>
                </pitch>
                <duration>1152</duration>
                <voice>1</voice>
                <type>quarter</type>
                <dot/>
            </note>
            <note>
                <pitch>
                    <step>D</step>
                    <octave>4</octave>
                </pitch>
                <duration>384</duration>
                <voice>1</voice>
                <type>eighth</type>
            </note>
        </measure>
        <measure number="29">
            <print new-system="yes"/>
            <note>
                <pitch>
                    <step>A</step>
                    <octave>3</octave>
                </pitch>
                <duration>384</duration>
                <voice>1</voice>
                <type>eighth</type>
                <beam number="1">begin</beam>
            </note>
            <note>
                <pitch>
                    <step>D</step>
                    <octave>4</octave>
                </pitch>
                <duration>384</duration>
                <voice>1</voice>
                <type>eighth</type>
                <beam number="1">end</beam>
            </note>
            <note>
                <pitch>
                    <step>F</step>
                    <alter>1</alter>
                    <octave>4</octave>
                </pitch>
                <duration>384</duration>
                <voice>1</voice>
                <type>eighth</type>
                <beam number="1">begin</beam>
            </note>
            <note>
                <pitch>
                    <step>A</step>
                    <octave>4</octave>
                </pitch>
                <duration>384</duration>
                <voice>1</voice>
                <type>eighth</type>
                <beam number="1">end</beam>
            </note>
            <note>
                <pitch>
                    <step>D</step>
                    <octave>5</octave>
                </pitch>
                <duration>384</duration>
                <voice>1</voice>
                <type>eighth</type>
                <beam number="1">begin</beam>
            </note>
            <note>
                <pitch>
                    <step>F</step>
                    <alter>1</alter>
                    <octave>5</octave>
                </pitch>
                <duration>384</duration>
                <voice>1</voice>
                <type>eighth</type>
                <beam number="1">end</beam>
            </note>
        </measure>
        <measure number="30">
            <harmony relative-x="3" default-y="25" print-frame="no">
                <root>
                    <root-step>B</root-step>
                </root>
                <kind text="m7">minor-seventh</kind>
            </harmony>
            <note>
                <pitch>
                    <step>D</step>
                    <octave>5</octave>
                </pitch>
                <duration>768</duration>
                <voice>1</voice>
                <type>quarter</type>
            </note>
            <note>
                <chord/>
                <pitch>
                    <step>F</step>
                    <alter>1</alter>
                    <octave>5</octave>
                </pitch>
                <duration>768</duration>
                <voice>1</voice>
                <type>quarter</type>
            </note>
            <note>
                <chord/>
                <pitch>
                    <step>A</step>
                    <octave>5</octave>
                </pitch>
                <duration>768</duration>
                <voice>1</voice>
                <type>quarter</type>
            </note>
            <note>
                <pitch>
                    <step>D</step>
                    <octave>5</octave>
                </pitch>
                <duration>1152</duration>
                <voice>1</voice>
                <type>quarter</type>
                <dot/>
            </note>
            <note>
                <chord/>
                <pitch>
                    <step>F</step>
                    <alter>1</alter>
                    <octave>5</octave>
                </pitch>
                <duration>1152</duration>
                <voice>1</voice>
                <type>quarter</type>
                <dot/>
            </note>
            <note>
                <chord/>
                <pitch>
                    <step>A</step>
                    <octave>5</octave>
                </pitch>
                <duration>1152</duration>
                <voice>1</voice>
                <type>quarter</type>
                <dot/>
            </note>
            <note>
                <chord/>
                <pitch>
                    <step>D</step>
                    <octave>6</octave>
                </pitch>
                <duration>1152</duration>
                <voice>1</voice>
                <type>quarter</type>
                <dot/>
            </note>
            <note>
                <pitch>
                    <step>F</step>
                    <alter>1</alter>
                    <octave>5</octave>
                </pitch>
                <duration>384</duration>
                <voice>1</voice>
                <type>eighth</type>
            </note>
        </measure>
        <measure number="31">
            <harmony relative-x="7" default-y="25" print-frame="no">
                <root>
                    <root-step>A</root-step>
                </root>
                <kind text="7">dominant</kind>
            </harmony>
            <note>
                <pitch>
                    <step>G</step>
                    <octave>4</octave>
                </pitch>
                <duration>1152</duration>
                <voice>1</voice>
                <type>quarter</type>
                <dot/>
            </note>
            <note>
                <chord/>
                <pitch>
                    <step>C</step>
                    <alter>1</alter>
                    <octave>5</octave>
                </pitch>
                <duration>1152</duration>
                <voice>1</voice>
                <type>quarter</type>
                <dot/>
            </note>
            <note>
                <chord/>
                <pitch>
                    <step>E</step>
                    <octave>5</octave>
                </pitch>
                <duration>1152</duration>
                <voice>1</voice>
                <type>quarter</type>
                <dot/>
            </note>
            <note>
                <pitch>
                    <step>A</step>
                    <octave>4</octave>
                </pitch>
                <duration>384</duration>
                <voice>1</voice>
                <type>eighth</type>
            </note>
            <note>
                <pitch>
                    <step>C</step>
                    <alter>1</alter>
                    <octave>5</octave>
                </pitch>
                <duration>768</duration>
                <voice>1</voice>
                <type>quarter</type>
            </note>
        </measure>
        <measure number="32">
            <harmony relative-x="7" default-y="25" print-frame="no">
                <root>
                    <root-step>D</root-step>
                </root>
                <kind text="">major</kind>
            </harmony>
            <note>
                <pitch>
                    <step>D</step>
                    <octave>4</octave>
                </pitch>
                <duration>2304</duration>
                <voice>1</voice>
                <type>half</type>
                <dot/>
            </note>
            <note>
                <chord/>
                <pitch>
                    <step>F</step>
                    <alter>1</alter>
                    <octave>4</octave>
                </pitch>
                <duration>2304</duration>
                <voice>1</voice>
                <type>half</type>
                <dot/>
            </note>
            <note>
                <chord/>
                <pitch>
                    <step>A</step>
                    <octave>4</octave>
                </pitch>
                <duration>2304</duration>
                <voice>1</voice>
                <type>half</type>
                <dot/>
            </note>
            <note>
                <chord/>
                <pitch>
                    <step>D</step>
                    <octave>5</octave>
                </pitch>
                <duration>2304</duration>
                <voice>1</voice>
                <type>half</type>
                <dot/>
            </note>
            <barline location="right">
                <bar-style>light-heavy</bar-style>
            </barline>
        </measure>
    </part>
</score-partwise>
