<?xml version="1.0" encoding="UTF-8"?>
<!DOCTYPE score-partwise PUBLIC "-//Recordare//DTD MusicXML 2.0 Partwise//EN" "http://www.musicxml.org/dtds/partwise.dtd">
<score-partwise version="2.0">
    <work>
        <work-number></work-number>
        <work-title></work-title>
    </work>
    <movement-number></movement-number>
    <movement-title>Almost 13</movement-title>
    <identification>
        <creator type="composer">Jazzengers</creator>
        <creator type="poet"></creator>
        <rights>All Rights Reserved</rights>
        <encoding>
            <encoding-date>2012-12-30</encoding-date>
            <encoder>Roland</encoder>
            <software>Sibelius 7.1.3</software>
            <software>Direct export, not from Dolet</software>
            <encoding-description>Sibelius / MusicXML 3.0</encoding-description>
            <supports value="yes" type="yes" element="print" attribute="new-system"/>
            <supports value="yes" type="yes" element="print" attribute="new-page"/>
            <supports type="yes" element="accidental"/>
            <supports type="yes" element="beam"/>
            <supports type="yes" element="stem"/>
            <software>ProxyMusic 2.0 c</software>
        </encoding>
        <source>http://wikifonia.org/node/19787/revisions/26124/view</source>
    </identification>
    <defaults>
        <scaling>
            <millimeters>210</millimeters>
            <tenths>1680</tenths>
        </scaling>
        <page-layout>
            <page-height>2375</page-height>
            <page-width>1680</page-width>
            <page-margins type="both">
                <left-margin>101</left-margin>
                <right-margin>101</right-margin>
                <top-margin>101</top-margin>
                <bottom-margin>101</bottom-margin>
            </page-margins>
        </page-layout>
        <system-layout>
            <system-margins>
                <left-margin>21</left-margin>
                <right-margin>0</right-margin>
            </system-margins>
            <system-distance>152</system-distance>
        </system-layout>
        <appearance>
            <line-width type="stem">2.1875</line-width>
            <line-width type="beam">5</line-width>
            <line-width type="staff">0.9375</line-width>
            <line-width type="light barline">3.4375</line-width>
            <line-width type="heavy barline">7.5</line-width>
            <line-width type="leger">3.4375</line-width>
            <line-width type="ending">3.125</line-width>
            <line-width type="wedge">3.125</line-width>
            <line-width type="enclosure">3.4375</line-width>
            <line-width type="tuplet bracket">3.125</line-width>
            <line-width type="bracket">5.9375</line-width>
            <line-width type="dashes">3.125</line-width>
            <line-width type="extend">3.125</line-width>
            <line-width type="octave shift">4.0625</line-width>
            <line-width type="pedal">3.125</line-width>
            <line-width type="slur middle">3.125</line-width>
            <line-width type="slur tip">3.125</line-width>
            <line-width type="tie middle">3.125</line-width>
            <line-width type="tie tip">3.125</line-width>
            <note-size type="cue">75</note-size>
            <note-size type="grace">60</note-size>
        </appearance>
        <music-font font-size="14.1732" font-family="Inkpen2"/>
        <lyric-font font-size="9.9656" font-family="Inkpen2 Script"/>
        <lyric-language/>
    </defaults>
    <credit page="1">
        <credit-words font-weight="normal" font-style="normal" font-size="17.8273" font-family="Inkpen2 Script" default-y="155" default-x="840" justify="center" valign="middle">Almost 13</credit-words>
    </credit>
    <part-list>
        <score-part id="P1">
            <part-name>Leadsheet</part-name>
            <part-name-display>
                <display-text>Leadsheet</display-text>
            </part-name-display>
            <score-instrument id="P1-I1">
                <instrument-name>Voice (2)</instrument-name>
            </score-instrument>
        </score-part>
    </part-list>
    <part id="P1">
        <measure width="432" number="1">
            <print new-page="yes">
                <system-layout>
                    <system-margins>
                        <left-margin>112</left-margin>
                        <right-margin>0</right-margin>
                    </system-margins>
                    <top-system-distance>218</top-system-distance>
                </system-layout>
            </print>
            <attributes>
                <divisions>256</divisions>
                <key color="#000000">
                    <fifths>-2</fifths>
                    <mode>major</mode>
                </key>
                <time color="#000000">
                    <beats>4</beats>
                    <beat-type>4</beat-type>
                </time>
                <staves>1</staves>
                <clef color="#000000" number="1">
                    <sign>G</sign>
                    <line>2</line>
                </clef>
                <staff-details print-object="yes" number="1"/>
            </attributes>
            <direction>
                <direction-type>
                    <rehearsal font-weight="bold" font-style="normal" font-size="14.284" font-family="Inkpen2 Script" default-x="94" color="#000000" enclosure="square">A</rehearsal>
                </direction-type>
                <voice>1</voice>
                <staff>1</staff>
            </direction>
            <barline location="left">
                <bar-style>heavy-light</bar-style>
                <repeat direction="forward"/>
            </barline>
            <direction>
                <direction-type>
                    <metronome font-weight="normal" font-style="normal" font-size="9.3012" font-family="Opus Text Std" default-y="73" color="#000000">
                        <beat-unit>quarter</beat-unit>
                        <per-minute>78</per-minute>
                    </metronome>
                </direction-type>
                <voice>1</voice>
                <staff>1</staff>
            </direction>
            <note default-y="10" default-x="109" color="#000000">
                <pitch>
                    <step>A</step>
                    <octave>4</octave>
                </pitch>
                <duration>512</duration>
                <instrument id="P1-I1"/>
                <voice>1</voice>
                <type>half</type>
                <stem>up</stem>
                <staff>1</staff>
            </note>
            <backup>
                <duration>256</duration>
            </backup>
            <harmony default-y="25" color="#000000">
                <root>
                    <root-step>G</root-step>
                </root>
                <kind>minor-ninth</kind>
                <staff>1</staff>
            </harmony>
            <forward>
                <duration>256</duration>
            </forward>
            <note default-y="12" default-x="223" color="#000000">
                <pitch>
                    <step>B</step>
                    <alter>-1</alter>
                    <octave>4</octave>
                </pitch>
                <duration>128</duration>
                <instrument id="P1-I1"/>
                <voice>1</voice>
                <type>eighth</type>
                <stem>up</stem>
                <staff>1</staff>
                <beam number="1">begin</beam>
                <notations>
                    <slur orientation="under" color="#000000" type="start" number="1"/>
                </notations>
            </note>
            <note default-y="12" default-x="285" color="#000000">
                <pitch>
                    <step>A</step>
                    <octave>4</octave>
                </pitch>
                <duration>128</duration>
                <instrument id="P1-I1"/>
                <voice>1</voice>
                <type>eighth</type>
                <stem>up</stem>
                <staff>1</staff>
                <beam number="1">continue</beam>
            </note>
            <note default-y="12" default-x="334" color="#000000">
                <pitch>
                    <step>G</step>
                    <octave>4</octave>
                </pitch>
                <duration>128</duration>
                <instrument id="P1-I1"/>
                <voice>1</voice>
                <type>eighth</type>
                <stem>up</stem>
                <staff>1</staff>
                <beam number="1">continue</beam>
            </note>
            <note default-y="12" default-x="383" color="#000000">
                <pitch>
                    <step>F</step>
                    <octave>4</octave>
                </pitch>
                <duration>128</duration>
                <instrument id="P1-I1"/>
                <voice>1</voice>
                <type>eighth</type>
                <stem>up</stem>
                <staff>1</staff>
                <beam number="1">end</beam>
            </note>
        </measure>
        <measure width="219" number="2">
            <harmony default-y="25" color="#000000">
                <root>
                    <root-step>C</root-step>
                </root>
                <kind>minor-ninth</kind>
                <staff>1</staff>
            </harmony>
            <note default-y="5" default-x="15" color="#000000">
                <pitch>
                    <step>G</step>
                    <octave>4</octave>
                </pitch>
                <duration>768</duration>
                <instrument id="P1-I1"/>
                <voice>1</voice>
                <type>half</type>
                <dot/>
                <stem>up</stem>
                <staff>1</staff>
                <notations>
                    <slur orientation="under" color="#000000" type="stop" number="1"/>
                </notations>
            </note>
            <note default-x="151">
                <rest/>
                <duration>256</duration>
                <instrument id="P1-I1"/>
                <voice>1</voice>
                <type>quarter</type>
                <staff>1</staff>
            </note>
        </measure>
        <measure width="334" number="3">
            <harmony default-y="25" color="#000000">
                <root>
                    <root-step>B</root-step>
                    <root-alter>-1</root-alter>
                </root>
                <kind>minor-seventh</kind>
                <staff>1</staff>
            </harmony>
            <note default-y="4" default-x="24" color="#000000">
                <pitch>
                    <step>A</step>
                    <alter>-1</alter>
                    <octave>4</octave>
                </pitch>
                <duration>128</duration>
                <instrument id="P1-I1"/>
                <voice>1</voice>
                <type>eighth</type>
                <accidental>flat</accidental>
                <stem>up</stem>
                <staff>1</staff>
                <beam number="1">begin</beam>
                <notations>
                    <slur orientation="under" color="#000000" type="start" number="1"/>
                </notations>
            </note>
            <note default-y="4" default-x="72" color="#000000">
                <pitch>
                    <step>G</step>
                    <octave>4</octave>
                </pitch>
                <duration>128</duration>
                <instrument id="P1-I1"/>
                <voice>1</voice>
                <type>eighth</type>
                <stem>up</stem>
                <staff>1</staff>
                <beam number="1">continue</beam>
            </note>
            <note default-y="4" default-x="121" color="#000000">
                <pitch>
                    <step>F</step>
                    <octave>4</octave>
                </pitch>
                <duration>128</duration>
                <instrument id="P1-I1"/>
                <voice>1</voice>
                <type>eighth</type>
                <stem>up</stem>
                <staff>1</staff>
                <beam number="1">continue</beam>
            </note>
            <note default-y="4" default-x="170" color="#000000">
                <pitch>
                    <step>E</step>
                    <alter>-1</alter>
                    <octave>4</octave>
                </pitch>
                <duration>128</duration>
                <instrument id="P1-I1"/>
                <voice>1</voice>
                <type>eighth</type>
                <stem>up</stem>
                <staff>1</staff>
                <beam number="1">end</beam>
            </note>
            <note default-x="219" color="#000000">
                <pitch>
                    <step>F</step>
                    <octave>4</octave>
                </pitch>
                <duration>512</duration>
                <tie type="start"/>
                <instrument id="P1-I1"/>
                <voice>1</voice>
                <type>half</type>
                <stem>up</stem>
                <staff>1</staff>
                <notations>
                    <tied type="start"/>
                </notations>
            </note>
        </measure>
        <measure width="379" number="4">
            <harmony default-y="25" color="#000000">
                <root>
                    <root-step>E</root-step>
                    <root-alter>-1</root-alter>
                </root>
                <kind>minor-ninth</kind>
                <staff>1</staff>
            </harmony>
            <note default-x="24" color="#000000">
                <pitch>
                    <step>F</step>
                    <octave>4</octave>
                </pitch>
                <duration>256</duration>
                <tie type="stop"/>
                <instrument id="P1-I1"/>
                <voice>1</voice>
                <type>quarter</type>
                <stem>up</stem>
                <staff>1</staff>
                <notations>
                    <slur orientation="under" color="#000000" type="stop" number="1"/>
                    <tied type="stop"/>
                </notations>
            </note>
            <note default-x="91">
                <rest/>
                <duration>256</duration>
                <instrument id="P1-I1"/>
                <voice>1</voice>
                <type>quarter</type>
                <staff>1</staff>
            </note>
            <note default-y="2" default-x="159" color="#000000">
                <pitch>
                    <step>G</step>
                    <alter>-1</alter>
                    <octave>4</octave>
                </pitch>
                <duration>128</duration>
                <instrument id="P1-I1"/>
                <voice>1</voice>
                <type>eighth</type>
                <accidental>flat</accidental>
                <stem>up</stem>
                <staff>1</staff>
                <beam number="1">begin</beam>
                <notations>
                    <slur orientation="under" color="#000000" type="start" number="1"/>
                </notations>
            </note>
            <note default-y="2" default-x="232" color="#000000">
                <pitch>
                    <step>F</step>
                    <octave>4</octave>
                </pitch>
                <duration>128</duration>
                <instrument id="P1-I1"/>
                <voice>1</voice>
                <type>eighth</type>
                <stem>up</stem>
                <staff>1</staff>
                <beam number="1">continue</beam>
            </note>
            <note default-y="2" default-x="281" color="#000000">
                <pitch>
                    <step>E</step>
                    <alter>-1</alter>
                    <octave>4</octave>
                </pitch>
                <duration>128</duration>
                <instrument id="P1-I1"/>
                <voice>1</voice>
                <type>eighth</type>
                <stem>up</stem>
                <staff>1</staff>
                <beam number="1">continue</beam>
            </note>
            <note default-y="2" default-x="330" color="#000000">
                <pitch>
                    <step>D</step>
                    <alter>-1</alter>
                    <octave>4</octave>
                </pitch>
                <duration>128</duration>
                <instrument id="P1-I1"/>
                <voice>1</voice>
                <type>eighth</type>
                <accidental>flat</accidental>
                <stem>up</stem>
                <staff>1</staff>
                <beam number="1">end</beam>
            </note>
        </measure>
        <measure width="329" number="5">
            <print new-system="yes">
                <system-layout>
                    <system-margins>
                        <left-margin>22</left-margin>
                        <right-margin>0</right-margin>
                    </system-margins>
                    <system-distance>152</system-distance>
                </system-layout>
            </print>
            <attributes>
                <staff-details print-object="yes" number="1"/>
            </attributes>
            <harmony default-y="31" color="#000000">
                <root>
                    <root-step>E</root-step>
                    <root-alter>-1</root-alter>
                </root>
                <kind>minor-seventh</kind>
                <staff>1</staff>
            </harmony>
            <note default-y="-5" default-x="89" color="#000000">
                <pitch>
                    <step>E</step>
                    <alter>-1</alter>
                    <octave>4</octave>
                </pitch>
                <duration>768</duration>
                <instrument id="P1-I1"/>
                <voice>1</voice>
                <type>half</type>
                <dot/>
                <stem>up</stem>
                <staff>1</staff>
                <notations>
                    <slur orientation="under" color="#000000" type="stop" number="1"/>
                </notations>
            </note>
            <backup>
                <duration>256</duration>
            </backup>
            <harmony default-y="31" color="#000000">
                <root>
                    <root-step>F</root-step>
                </root>
                <kind>minor-seventh</kind>
                <staff>1</staff>
            </harmony>
            <forward>
                <duration>256</duration>
            </forward>
            <harmony default-y="31" color="#000000">
                <root>
                    <root-step>D</root-step>
                    <root-alter>-1</root-alter>
                </root>
                <kind>dominant-ninth</kind>
                <staff>1</staff>
            </harmony>
            <note default-x="249" color="#000000">
                <pitch>
                    <step>F</step>
                    <octave>4</octave>
                </pitch>
                <duration>256</duration>
                <instrument id="P1-I1"/>
                <voice>1</voice>
                <type>quarter</type>
                <stem>up</stem>
                <staff>1</staff>
            </note>
        </measure>
        <measure width="413" number="6">
            <harmony default-y="31" color="#000000">
                <root>
                    <root-step>G</root-step>
                    <root-alter>-1</root-alter>
                </root>
                <kind>major-sixth</kind>
                <staff>1</staff>
            </harmony>
            <note default-y="5" default-x="24" color="#000000">
                <pitch>
                    <step>G</step>
                    <alter>-1</alter>
                    <octave>4</octave>
                </pitch>
                <duration>384</duration>
                <instrument id="P1-I1"/>
                <voice>1</voice>
                <type>quarter</type>
                <dot/>
                <accidental>flat</accidental>
                <stem>up</stem>
                <staff>1</staff>
            </note>
            <note default-y="9" default-x="130" color="#000000">
                <pitch>
                    <step>A</step>
                    <alter>-1</alter>
                    <octave>4</octave>
                </pitch>
                <duration>64</duration>
                <instrument id="P1-I1"/>
                <voice>1</voice>
                <type>16th</type>
                <accidental>flat</accidental>
                <stem>up</stem>
                <staff>1</staff>
                <beam number="1">begin</beam>
                <beam number="2">begin</beam>
                <notations>
                    <slur orientation="over" color="#000000" type="start" number="1"/>
                </notations>
            </note>
            <note default-y="9" default-x="175" color="#000000">
                <pitch>
                    <step>A</step>
                    <octave>4</octave>
                </pitch>
                <duration>64</duration>
                <instrument id="P1-I1"/>
                <voice>1</voice>
                <type>16th</type>
                <accidental>natural</accidental>
                <stem>up</stem>
                <staff>1</staff>
                <beam number="1">end</beam>
                <beam number="2">end</beam>
            </note>
            <note default-y="-55" default-x="218" color="#000000">
                <pitch>
                    <step>B</step>
                    <alter>-1</alter>
                    <octave>4</octave>
                </pitch>
                <duration>384</duration>
                <instrument id="P1-I1"/>
                <voice>1</voice>
                <type>quarter</type>
                <dot/>
                <stem>down</stem>
                <staff>1</staff>
                <notations>
                    <slur orientation="over" color="#000000" type="stop" number="1"/>
                </notations>
            </note>
            <note default-y="-49" default-x="325" color="#000000">
                <pitch>
                    <step>C</step>
                    <alter>-1</alter>
                    <octave>5</octave>
                </pitch>
                <duration>64</duration>
                <instrument id="P1-I1"/>
                <voice>1</voice>
                <type>16th</type>
                <accidental>flat</accidental>
                <stem>down</stem>
                <staff>1</staff>
                <beam number="1">begin</beam>
                <beam number="2">begin</beam>
                <notations>
                    <slur orientation="over" color="#000000" type="start" number="1"/>
                </notations>
            </note>
            <note default-y="-49" default-x="369" color="#000000">
                <pitch>
                    <step>C</step>
                    <octave>5</octave>
                </pitch>
                <duration>64</duration>
                <instrument id="P1-I1"/>
                <voice>1</voice>
                <type>16th</type>
                <accidental>natural</accidental>
                <stem>down</stem>
                <staff>1</staff>
                <beam number="1">end</beam>
                <beam number="2">end</beam>
            </note>
        </measure>
        <measure width="482" number="7">
            <harmony default-y="31" color="#000000">
                <root>
                    <root-step>E</root-step>
                    <root-alter>-1</root-alter>
                </root>
                <kind>minor-seventh</kind>
                <staff>1</staff>
            </harmony>
            <note default-y="17" default-x="24" color="#000000">
                <pitch>
                    <step>D</step>
                    <alter>-1</alter>
                    <octave>5</octave>
                </pitch>
                <duration>128</duration>
                <instrument id="P1-I1"/>
                <voice>1</voice>
                <type>eighth</type>
                <accidental>flat</accidental>
                <stem>up</stem>
                <staff>1</staff>
                <beam number="1">begin</beam>
                <notations>
                    <slur orientation="over" color="#000000" type="stop" number="1"/>
                </notations>
            </note>
            <note default-y="17" default-x="81" color="#000000">
                <pitch>
                    <step>B</step>
                    <alter>-1</alter>
                    <octave>4</octave>
                </pitch>
                <duration>128</duration>
                <instrument id="P1-I1"/>
                <voice>1</voice>
                <type>eighth</type>
                <stem>up</stem>
                <staff>1</staff>
                <beam number="1">continue</beam>
                <notations>
                    <slur orientation="under" color="#000000" type="start" number="1"/>
                </notations>
            </note>
            <note default-y="17" default-x="138" color="#000000">
                <pitch>
                    <step>G</step>
                    <alter>-1</alter>
                    <octave>4</octave>
                </pitch>
                <duration>128</duration>
                <instrument id="P1-I1"/>
                <voice>1</voice>
                <type>eighth</type>
                <accidental>flat</accidental>
                <stem>up</stem>
                <staff>1</staff>
                <beam number="1">continue</beam>
            </note>
            <note default-y="17" default-x="196" color="#000000">
                <pitch>
                    <step>A</step>
                    <alter>-1</alter>
                    <octave>4</octave>
                </pitch>
                <duration>128</duration>
                <instrument id="P1-I1"/>
                <voice>1</voice>
                <type>eighth</type>
                <accidental>flat</accidental>
                <stem>up</stem>
                <staff>1</staff>
                <beam number="1">end</beam>
            </note>
            <harmony default-y="31" color="#000000">
                <root>
                    <root-step>E</root-step>
                    <root-alter>-1</root-alter>
                </root>
                <kind>minor-sixth</kind>
                <bass>
                    <bass-step>B</bass-step>
                    <bass-alter>-1</bass-alter>
                </bass>
                <staff>1</staff>
            </harmony>
            <note default-y="2" default-x="253" color="#000000">
                <pitch>
                    <step>F</step>
                    <octave>4</octave>
                </pitch>
                <duration>128</duration>
                <instrument id="P1-I1"/>
                <voice>1</voice>
                <type>eighth</type>
                <stem>up</stem>
                <staff>1</staff>
                <beam number="1">begin</beam>
            </note>
            <note default-y="2" default-x="310" color="#000000">
                <pitch>
                    <step>G</step>
                    <alter>-1</alter>
                    <octave>4</octave>
                </pitch>
                <duration>128</duration>
                <instrument id="P1-I1"/>
                <voice>1</voice>
                <type>eighth</type>
                <stem>up</stem>
                <staff>1</staff>
                <beam number="1">continue</beam>
            </note>
            <harmony default-y="31" color="#000000">
                <root>
                    <root-step>A</root-step>
                    <root-alter>-1</root-alter>
                </root>
                <kind>minor-sixth</kind>
                <degree>
                    <degree-value>9</degree-value>
                    <degree-alter>-1</degree-alter>
                    <degree-type>add</degree-type>
                </degree>
                <staff>1</staff>
            </harmony>
            <note default-y="2" default-x="368" color="#000000">
                <pitch>
                    <step>E</step>
                    <alter>-1</alter>
                    <octave>4</octave>
                </pitch>
                <duration>128</duration>
                <instrument id="P1-I1"/>
                <voice>1</voice>
                <type>eighth</type>
                <stem>up</stem>
                <staff>1</staff>
                <beam number="1">continue</beam>
            </note>
            <note default-y="2" default-x="425" color="#000000">
                <pitch>
                    <step>F</step>
                    <octave>4</octave>
                </pitch>
                <duration>128</duration>
                <instrument id="P1-I1"/>
                <voice>1</voice>
                <type>eighth</type>
                <stem>up</stem>
                <staff>1</staff>
                <beam number="1">end</beam>
            </note>
        </measure>
        <measure width="229" number="8">
            <harmony default-y="31" color="#000000">
                <root>
                    <root-step>G</root-step>
                </root>
                <kind>minor-ninth</kind>
                <staff>1</staff>
            </harmony>
            <note default-x="15" color="#000000">
                <pitch>
                    <step>D</step>
                    <octave>4</octave>
                </pitch>
                <duration>1024</duration>
                <instrument id="P1-I1"/>
                <voice>1</voice>
                <type>whole</type>
                <staff>1</staff>
                <notations>
                    <slur orientation="under" color="#000000" type="stop" number="1"/>
                </notations>
            </note>
            <barline location="right">
                <bar-style>light-heavy</bar-style>
                <repeat direction="backward"/>
            </barline>
        </measure>
        <measure width="414" number="9">
            <print new-system="yes">
                <system-layout>
                    <system-margins>
                        <left-margin>22</left-margin>
                        <right-margin>0</right-margin>
                    </system-margins>
                    <system-distance>152</system-distance>
                </system-layout>
            </print>
            <attributes>
                <staff-details print-object="yes" number="1"/>
            </attributes>
            <direction>
                <direction-type>
                    <rehearsal font-weight="bold" font-style="normal" font-size="14.284" font-family="Inkpen2 Script" default-x="65" color="#000000" enclosure="square">B</rehearsal>
                </direction-type>
                <voice>1</voice>
                <staff>1</staff>
            </direction>
            <note default-x="89">
                <rest/>
                <duration>256</duration>
                <instrument id="P1-I1"/>
                <voice>1</voice>
                <type>quarter</type>
                <staff>1</staff>
            </note>
            <harmony default-y="25" color="#000000">
                <root>
                    <root-step>G</root-step>
                    <root-alter>-1</root-alter>
                </root>
                <kind>major-ninth</kind>
                <staff>1</staff>
            </harmony>
            <note default-x="170" color="#000000">
                <pitch>
                    <step>F</step>
                    <octave>4</octave>
                </pitch>
                <duration>256</duration>
                <instrument id="P1-I1"/>
                <voice>1</voice>
                <type>quarter</type>
                <stem>up</stem>
                <staff>1</staff>
                <notations>
                    <slur orientation="over" color="#000000" type="start" number="1"/>
                </notations>
            </note>
            <note default-y="-50" default-x="251" color="#000000">
                <pitch>
                    <step>C</step>
                    <octave>5</octave>
                </pitch>
                <duration>256</duration>
                <instrument id="P1-I1"/>
                <voice>1</voice>
                <type>quarter</type>
                <stem>down</stem>
                <staff>1</staff>
            </note>
            <note default-y="-55" default-x="333" color="#000000">
                <pitch>
                    <step>B</step>
                    <alter>-1</alter>
                    <octave>4</octave>
                </pitch>
                <duration>256</duration>
                <instrument id="P1-I1"/>
                <voice>1</voice>
                <type>quarter</type>
                <stem>down</stem>
                <staff>1</staff>
            </note>
        </measure>
        <measure width="330" number="10">
            <harmony default-y="25" color="#000000">
                <root>
                    <root-step>E</root-step>
                    <root-alter>-1</root-alter>
                </root>
                <kind>dominant</kind>
                <degree>
                    <degree-value>4</degree-value>
                    <degree-alter>0</degree-alter>
                    <degree-type>add</degree-type>
                </degree>
                <degree>
                    <degree-value>3</degree-value>
                    <degree-alter>0</degree-alter>
                    <degree-type>subtract</degree-type>
                </degree>
                <staff>1</staff>
            </harmony>
            <note default-y="10" default-x="29" color="#000000">
                <pitch>
                    <step>A</step>
                    <alter>-1</alter>
                    <octave>4</octave>
                </pitch>
                <duration>512</duration>
                <instrument id="P1-I1"/>
                <voice>1</voice>
                <type>half</type>
                <accidental>flat</accidental>
                <stem>up</stem>
                <staff>1</staff>
                <notations>
                    <slur orientation="over" color="#000000" type="stop" number="1"/>
                </notations>
            </note>
            <note default-x="167">
                <rest/>
                <duration>256</duration>
                <instrument id="P1-I1"/>
                <voice>1</voice>
                <type>quarter</type>
                <staff>1</staff>
            </note>
            <note default-y="-55" default-x="248" color="#000000">
                <pitch>
                    <step>B</step>
                    <alter>-1</alter>
                    <octave>4</octave>
                </pitch>
                <duration>256</duration>
                <instrument id="P1-I1"/>
                <voice>1</voice>
                <type>quarter</type>
                <stem>down</stem>
                <staff>1</staff>
                <notations>
                    <slur orientation="over" color="#000000" type="start" number="1"/>
                </notations>
            </note>
        </measure>
        <measure width="415" number="11">
            <harmony default-y="25" color="#000000">
                <root>
                    <root-step>F</root-step>
                </root>
                <kind>major-ninth</kind>
                <staff>1</staff>
            </harmony>
            <note default-y="-50" default-x="15" color="#000000">
                <pitch>
                    <step>C</step>
                    <octave>5</octave>
                </pitch>
                <duration>512</duration>
                <instrument id="P1-I1"/>
                <voice>1</voice>
                <type>half</type>
                <stem>down</stem>
                <staff>1</staff>
                <notations>
                    <slur orientation="over" color="#000000" type="stop" number="1"/>
                </notations>
            </note>
            <note default-x="153">
                <rest/>
                <duration>256</duration>
                <instrument id="P1-I1"/>
                <voice>1</voice>
                <type>quarter</type>
                <staff>1</staff>
            </note>
            <note default-y="-54" default-x="234" color="#000000">
                <pitch>
                    <step>D</step>
                    <octave>5</octave>
                </pitch>
                <duration>64</duration>
                <instrument id="P1-I1"/>
                <voice>1</voice>
                <type>16th</type>
                <stem>down</stem>
                <staff>1</staff>
                <beam number="1">begin</beam>
                <beam number="2">begin</beam>
                <notations>
                    <slur orientation="over" color="#000000" type="start" number="1"/>
                </notations>
            </note>
            <note default-y="-54" default-x="279" color="#000000">
                <pitch>
                    <step>C</step>
                    <octave>5</octave>
                </pitch>
                <duration>64</duration>
                <instrument id="P1-I1"/>
                <voice>1</voice>
                <type>16th</type>
                <stem>down</stem>
                <staff>1</staff>
                <beam number="1">continue</beam>
                <beam number="2">continue</beam>
            </note>
            <note default-y="-54" default-x="324" color="#000000">
                <pitch>
                    <step>B</step>
                    <alter>-1</alter>
                    <octave>4</octave>
                </pitch>
                <duration>64</duration>
                <instrument id="P1-I1"/>
                <voice>1</voice>
                <type>16th</type>
                <stem>down</stem>
                <staff>1</staff>
                <beam number="1">continue</beam>
                <beam number="2">continue</beam>
            </note>
            <note default-y="-54" default-x="370" color="#000000">
                <pitch>
                    <step>A</step>
                    <octave>4</octave>
                </pitch>
                <duration>64</duration>
                <instrument id="P1-I1"/>
                <voice>1</voice>
                <type>16th</type>
                <stem>down</stem>
                <staff>1</staff>
                <beam number="1">end</beam>
                <beam number="2">end</beam>
            </note>
        </measure>
        <measure width="295" number="12">
            <harmony default-y="25" color="#000000">
                <root>
                    <root-step>D</root-step>
                </root>
                <kind>dominant</kind>
                <degree>
                    <degree-value>4</degree-value>
                    <degree-alter>0</degree-alter>
                    <degree-type>add</degree-type>
                </degree>
                <degree>
                    <degree-value>3</degree-value>
                    <degree-alter>0</degree-alter>
                    <degree-type>subtract</degree-type>
                </degree>
                <staff>1</staff>
            </harmony>
            <note default-y="5" default-x="18" color="#000000">
                <pitch>
                    <step>G</step>
                    <octave>4</octave>
                </pitch>
                <duration>512</duration>
                <instrument id="P1-I1"/>
                <voice>1</voice>
                <type>half</type>
                <stem>up</stem>
                <staff>1</staff>
                <notations>
                    <slur orientation="over" color="#000000" type="stop" number="1"/>
                </notations>
            </note>
            <note default-y="10" default-x="156" color="#000000">
                <pitch>
                    <step>A</step>
                    <octave>4</octave>
                </pitch>
                <duration>512</duration>
                <instrument id="P1-I1"/>
                <voice>1</voice>
                <type>half</type>
                <stem>up</stem>
                <staff>1</staff>
            </note>
        </measure>
        <measure width="456" number="13">
            <print new-system="yes">
                <system-layout>
                    <system-margins>
                        <left-margin>22</left-margin>
                        <right-margin>0</right-margin>
                    </system-margins>
                    <system-distance>152</system-distance>
                </system-layout>
            </print>
            <attributes>
                <staff-details print-object="yes" number="1"/>
            </attributes>
            <harmony default-y="25" color="#000000">
                <root>
                    <root-step>E</root-step>
                </root>
                <kind>major-ninth</kind>
                <staff>1</staff>
            </harmony>
            <note default-y="-55" default-x="120" color="#000000">
                <pitch>
                    <step>B</step>
                    <octave>4</octave>
                </pitch>
                <duration>768</duration>
                <instrument id="P1-I1"/>
                <voice>1</voice>
                <type>half</type>
                <dot/>
                <accidental>natural</accidental>
                <stem>down</stem>
                <staff>1</staff>
            </note>
            <note default-y="12" default-x="280" color="#000000">
                <pitch>
                    <step>C</step>
                    <alter>1</alter>
                    <octave>5</octave>
                </pitch>
                <duration>64</duration>
                <instrument id="P1-I1"/>
                <voice>1</voice>
                <type>16th</type>
                <accidental>sharp</accidental>
                <stem>up</stem>
                <staff>1</staff>
                <beam number="1">begin</beam>
                <beam number="2">begin</beam>
                <notations>
                    <slur orientation="over" color="#000000" type="start" number="1"/>
                </notations>
            </note>
            <note default-y="12" default-x="324" color="#000000">
                <pitch>
                    <step>B</step>
                    <octave>4</octave>
                </pitch>
                <duration>64</duration>
                <instrument id="P1-I1"/>
                <voice>1</voice>
                <type>16th</type>
                <stem>up</stem>
                <staff>1</staff>
                <beam number="1">continue</beam>
                <beam number="2">continue</beam>
            </note>
            <note default-y="12" default-x="368" color="#000000">
                <pitch>
                    <step>A</step>
                    <alter>1</alter>
                    <octave>4</octave>
                </pitch>
                <duration>64</duration>
                <instrument id="P1-I1"/>
                <voice>1</voice>
                <type>16th</type>
                <accidental>sharp</accidental>
                <stem>up</stem>
                <staff>1</staff>
                <beam number="1">continue</beam>
                <beam number="2">continue</beam>
            </note>
            <note default-y="12" default-x="412" color="#000000">
                <pitch>
                    <step>G</step>
                    <alter>1</alter>
                    <octave>4</octave>
                </pitch>
                <duration>64</duration>
                <instrument id="P1-I1"/>
                <voice>1</voice>
                <type>16th</type>
                <accidental>sharp</accidental>
                <stem>up</stem>
                <staff>1</staff>
                <beam number="1">end</beam>
                <beam number="2">end</beam>
            </note>
        </measure>
        <measure width="284" number="14">
            <harmony default-y="25" color="#000000">
                <root>
                    <root-step>D</root-step>
                    <root-alter>-1</root-alter>
                </root>
                <kind>dominant</kind>
                <degree>
                    <degree-value>4</degree-value>
                    <degree-alter>0</degree-alter>
                    <degree-type>add</degree-type>
                </degree>
                <degree>
                    <degree-value>3</degree-value>
                    <degree-alter>0</degree-alter>
                    <degree-type>subtract</degree-type>
                </degree>
                <staff>1</staff>
            </harmony>
            <note default-y="-55" default-x="15" color="#000000">
                <pitch>
                    <step>B</step>
                    <octave>4</octave>
                </pitch>
                <duration>512</duration>
                <instrument id="P1-I1"/>
                <voice>1</voice>
                <type>half</type>
                <accidental>natural</accidental>
                <stem>down</stem>
                <staff>1</staff>
                <notations>
                    <slur orientation="over" color="#000000" type="stop" number="1"/>
                </notations>
            </note>
            <note default-y="-45" default-x="149" color="#000000">
                <pitch>
                    <step>D</step>
                    <alter>-1</alter>
                    <octave>5</octave>
                </pitch>
                <duration>512</duration>
                <instrument id="P1-I1"/>
                <voice>1</voice>
                <type>half</type>
                <accidental>flat</accidental>
                <stem>down</stem>
                <staff>1</staff>
            </note>
        </measure>
        <measure width="265" number="15">
            <harmony default-y="25" color="#000000">
                <root>
                    <root-step>E</root-step>
                    <root-alter>-1</root-alter>
                </root>
                <kind>major-ninth</kind>
                <staff>1</staff>
            </harmony>
            <note default-y="-45" default-x="25" color="#000000">
                <pitch>
                    <step>D</step>
                    <octave>5</octave>
                </pitch>
                <duration>768</duration>
                <instrument id="P1-I1"/>
                <voice>1</voice>
                <type>half</type>
                <dot/>
                <accidental>natural</accidental>
                <stem>down</stem>
                <staff>1</staff>
            </note>
            <note default-x="185">
                <rest/>
                <duration>256</duration>
                <instrument id="P1-I1"/>
                <voice>1</voice>
                <type>quarter</type>
                <staff>1</staff>
            </note>
        </measure>
        <measure width="449" number="16">
            <harmony default-y="25" color="#000000">
                <root>
                    <root-step>C</root-step>
                </root>
                <kind>dominant</kind>
                <degree>
                    <degree-value>4</degree-value>
                    <degree-alter>0</degree-alter>
                    <degree-type>add</degree-type>
                </degree>
                <degree>
                    <degree-value>3</degree-value>
                    <degree-alter>0</degree-alter>
                    <degree-type>subtract</degree-type>
                </degree>
                <staff>1</staff>
            </harmony>
            <note default-x="18">
                <rest/>
                <duration>256</duration>
                <instrument id="P1-I1"/>
                <voice>1</voice>
                <type>quarter</type>
                <staff>1</staff>
            </note>
            <note default-y="17" default-x="97" color="#000000">
                <pitch>
                    <step>D</step>
                    <octave>5</octave>
                </pitch>
                <duration>64</duration>
                <instrument id="P1-I1"/>
                <voice>1</voice>
                <type>16th</type>
                <stem>up</stem>
                <staff>1</staff>
                <beam number="1">begin</beam>
                <beam number="2">begin</beam>
                <notations>
                    <slur orientation="under" color="#000000" type="start" number="1"/>
                </notations>
            </note>
            <note default-y="17" default-x="141" color="#000000">
                <pitch>
                    <step>B</step>
                    <alter>-1</alter>
                    <octave>4</octave>
                </pitch>
                <duration>64</duration>
                <instrument id="P1-I1"/>
                <voice>1</voice>
                <type>16th</type>
                <stem>up</stem>
                <staff>1</staff>
                <beam number="1">continue</beam>
                <beam number="2">continue</beam>
            </note>
            <note default-y="17" default-x="185" color="#000000">
                <pitch>
                    <step>G</step>
                    <octave>4</octave>
                </pitch>
                <duration>64</duration>
                <instrument id="P1-I1"/>
                <voice>1</voice>
                <type>16th</type>
                <stem>up</stem>
                <staff>1</staff>
                <beam number="1">continue</beam>
                <beam number="2">continue</beam>
            </note>
            <note default-y="17" default-x="229" color="#000000">
                <pitch>
                    <step>E</step>
                    <octave>4</octave>
                </pitch>
                <duration>64</duration>
                <instrument id="P1-I1"/>
                <voice>1</voice>
                <type>16th</type>
                <accidental>natural</accidental>
                <stem>up</stem>
                <staff>1</staff>
                <beam number="1">end</beam>
                <beam number="2">end</beam>
            </note>
            <harmony default-y="25" color="#000000">
                <root>
                    <root-step>D</root-step>
                </root>
                <kind>dominant-ninth</kind>
                <staff>1</staff>
            </harmony>
            <note default-y="-10" default-x="273" color="#000000">
                <pitch>
                    <step>D</step>
                    <octave>4</octave>
                </pitch>
                <duration>256</duration>
                <instrument id="P1-I1"/>
                <voice>1</voice>
                <type>quarter</type>
                <stem>up</stem>
                <staff>1</staff>
            </note>
            <note default-x="352" color="#000000">
                <pitch>
                    <step>F</step>
                    <alter>1</alter>
                    <octave>4</octave>
                </pitch>
                <duration>256</duration>
                <instrument id="P1-I1"/>
                <voice>1</voice>
                <type>quarter</type>
                <accidental>sharp</accidental>
                <stem>up</stem>
                <staff>1</staff>
            </note>
            <barline location="right">
                <bar-style>light-light</bar-style>
            </barline>
        </measure>
        <measure width="432" number="17">
            <print new-system="yes">
                <system-layout>
                    <system-margins>
                        <left-margin>22</left-margin>
                        <right-margin>0</right-margin>
                    </system-margins>
                    <system-distance>152</system-distance>
                </system-layout>
            </print>
            <attributes>
                <staff-details print-object="yes" number="1"/>
            </attributes>
            <direction>
                <direction-type>
                    <rehearsal font-weight="bold" font-style="normal" font-size="14.284" font-family="Inkpen2 Script" default-x="65" color="#000000" enclosure="square">A</rehearsal>
                </direction-type>
                <voice>1</voice>
                <staff>1</staff>
            </direction>
            <note default-y="10" default-x="80" color="#000000">
                <pitch>
                    <step>A</step>
                    <octave>4</octave>
                </pitch>
                <duration>512</duration>
                <instrument id="P1-I1"/>
                <voice>1</voice>
                <type>half</type>
                <stem>up</stem>
                <staff>1</staff>
                <notations>
                    <slur orientation="under" color="#000000" type="stop" number="1"/>
                </notations>
            </note>
            <backup>
                <duration>256</duration>
            </backup>
            <harmony default-y="25" color="#000000">
                <root>
                    <root-step>G</root-step>
                </root>
                <kind>minor-ninth</kind>
                <staff>1</staff>
            </harmony>
            <forward>
                <duration>256</duration>
            </forward>
            <note default-y="12" default-x="210" color="#000000">
                <pitch>
                    <step>B</step>
                    <alter>-1</alter>
                    <octave>4</octave>
                </pitch>
                <duration>128</duration>
                <instrument id="P1-I1"/>
                <voice>1</voice>
                <type>eighth</type>
                <stem>up</stem>
                <staff>1</staff>
                <beam number="1">begin</beam>
                <notations>
                    <slur orientation="under" color="#000000" type="start" number="1"/>
                </notations>
            </note>
            <note default-y="12" default-x="265" color="#000000">
                <pitch>
                    <step>A</step>
                    <octave>4</octave>
                </pitch>
                <duration>128</duration>
                <instrument id="P1-I1"/>
                <voice>1</voice>
                <type>eighth</type>
                <stem>up</stem>
                <staff>1</staff>
                <beam number="1">continue</beam>
            </note>
            <note default-y="12" default-x="321" color="#000000">
                <pitch>
                    <step>G</step>
                    <octave>4</octave>
                </pitch>
                <duration>128</duration>
                <instrument id="P1-I1"/>
                <voice>1</voice>
                <type>eighth</type>
                <stem>up</stem>
                <staff>1</staff>
                <beam number="1">continue</beam>
            </note>
            <note default-y="12" default-x="376" color="#000000">
                <pitch>
                    <step>F</step>
                    <octave>4</octave>
                </pitch>
                <duration>128</duration>
                <instrument id="P1-I1"/>
                <voice>1</voice>
                <type>eighth</type>
                <stem>up</stem>
                <staff>1</staff>
                <beam number="1">end</beam>
            </note>
        </measure>
        <measure width="247" number="18">
            <harmony default-y="25" color="#000000">
                <root>
                    <root-step>C</root-step>
                </root>
                <kind>minor-ninth</kind>
                <staff>1</staff>
            </harmony>
            <note default-y="5" default-x="15" color="#000000">
                <pitch>
                    <step>G</step>
                    <octave>4</octave>
                </pitch>
                <duration>768</duration>
                <instrument id="P1-I1"/>
                <voice>1</voice>
                <type>half</type>
                <dot/>
                <stem>up</stem>
                <staff>1</staff>
                <notations>
                    <slur orientation="under" color="#000000" type="stop" number="1"/>
                </notations>
            </note>
            <note default-x="169">
                <rest/>
                <duration>256</duration>
                <instrument id="P1-I1"/>
                <voice>1</voice>
                <type>quarter</type>
                <staff>1</staff>
            </note>
        </measure>
        <measure width="376" number="19">
            <harmony default-y="25" color="#000000">
                <root>
                    <root-step>B</root-step>
                    <root-alter>-1</root-alter>
                </root>
                <kind>minor-seventh</kind>
                <staff>1</staff>
            </harmony>
            <note default-y="4" default-x="24" color="#000000">
                <pitch>
                    <step>A</step>
                    <alter>-1</alter>
                    <octave>4</octave>
                </pitch>
                <duration>128</duration>
                <instrument id="P1-I1"/>
                <voice>1</voice>
                <type>eighth</type>
                <accidental>flat</accidental>
                <stem>up</stem>
                <staff>1</staff>
                <beam number="1">begin</beam>
                <notations>
                    <slur orientation="under" color="#000000" type="start" number="1"/>
                </notations>
            </note>
            <note default-y="4" default-x="79" color="#000000">
                <pitch>
                    <step>G</step>
                    <octave>4</octave>
                </pitch>
                <duration>128</duration>
                <instrument id="P1-I1"/>
                <voice>1</voice>
                <type>eighth</type>
                <stem>up</stem>
                <staff>1</staff>
                <beam number="1">continue</beam>
            </note>
            <note default-y="4" default-x="135" color="#000000">
                <pitch>
                    <step>F</step>
                    <octave>4</octave>
                </pitch>
                <duration>128</duration>
                <instrument id="P1-I1"/>
                <voice>1</voice>
                <type>eighth</type>
                <stem>up</stem>
                <staff>1</staff>
                <beam number="1">continue</beam>
            </note>
            <note default-y="4" default-x="190" color="#000000">
                <pitch>
                    <step>E</step>
                    <alter>-1</alter>
                    <octave>4</octave>
                </pitch>
                <duration>128</duration>
                <instrument id="P1-I1"/>
                <voice>1</voice>
                <type>eighth</type>
                <stem>up</stem>
                <staff>1</staff>
                <beam number="1">end</beam>
            </note>
            <note default-x="245" color="#000000">
                <pitch>
                    <step>F</step>
                    <octave>4</octave>
                </pitch>
                <duration>512</duration>
                <tie type="start"/>
                <instrument id="P1-I1"/>
                <voice>1</voice>
                <type>half</type>
                <stem>up</stem>
                <staff>1</staff>
                <notations>
                    <tied type="start"/>
                </notations>
            </note>
        </measure>
        <measure width="399" number="20">
            <harmony default-y="25" color="#000000">
                <root>
                    <root-step>E</root-step>
                    <root-alter>-1</root-alter>
                </root>
                <kind>minor-ninth</kind>
                <staff>1</staff>
            </harmony>
            <note default-x="24" color="#000000">
                <pitch>
                    <step>F</step>
                    <octave>4</octave>
                </pitch>
                <duration>256</duration>
                <tie type="stop"/>
                <instrument id="P1-I1"/>
                <voice>1</voice>
                <type>quarter</type>
                <stem>up</stem>
                <staff>1</staff>
                <notations>
                    <slur orientation="under" color="#000000" type="stop" number="1"/>
                    <tied type="stop"/>
                </notations>
            </note>
            <note default-x="100">
                <rest/>
                <duration>256</duration>
                <instrument id="P1-I1"/>
                <voice>1</voice>
                <type>quarter</type>
                <staff>1</staff>
            </note>
            <note default-y="2" default-x="177" color="#000000">
                <pitch>
                    <step>G</step>
                    <alter>-1</alter>
                    <octave>4</octave>
                </pitch>
                <duration>128</duration>
                <instrument id="P1-I1"/>
                <voice>1</voice>
                <type>eighth</type>
                <accidental>flat</accidental>
                <stem>up</stem>
                <staff>1</staff>
                <beam number="1">begin</beam>
                <notations>
                    <slur orientation="under" color="#000000" type="start" number="1"/>
                </notations>
            </note>
            <note default-y="2" default-x="232" color="#000000">
                <pitch>
                    <step>F</step>
                    <octave>4</octave>
                </pitch>
                <duration>128</duration>
                <instrument id="P1-I1"/>
                <voice>1</voice>
                <type>eighth</type>
                <stem>up</stem>
                <staff>1</staff>
                <beam number="1">continue</beam>
            </note>
            <note default-y="2" default-x="288" color="#000000">
                <pitch>
                    <step>E</step>
                    <alter>-1</alter>
                    <octave>4</octave>
                </pitch>
                <duration>128</duration>
                <instrument id="P1-I1"/>
                <voice>1</voice>
                <type>eighth</type>
                <stem>up</stem>
                <staff>1</staff>
                <beam number="1">continue</beam>
            </note>
            <note default-y="2" default-x="343" color="#000000">
                <pitch>
                    <step>D</step>
                    <alter>-1</alter>
                    <octave>4</octave>
                </pitch>
                <duration>128</duration>
                <instrument id="P1-I1"/>
                <voice>1</voice>
                <type>eighth</type>
                <accidental>flat</accidental>
                <stem>up</stem>
                <staff>1</staff>
                <beam number="1">end</beam>
            </note>
        </measure>
        <measure width="330" number="21">
            <print new-system="yes">
                <system-layout>
                    <system-margins>
                        <left-margin>22</left-margin>
                        <right-margin>0</right-margin>
                    </system-margins>
                    <system-distance>152</system-distance>
                </system-layout>
            </print>
            <attributes>
                <staff-details print-object="yes" number="1"/>
            </attributes>
            <harmony default-y="31" color="#000000">
                <root>
                    <root-step>E</root-step>
                    <root-alter>-1</root-alter>
                </root>
                <kind>minor-seventh</kind>
                <staff>1</staff>
            </harmony>
            <note default-y="-5" default-x="89" color="#000000">
                <pitch>
                    <step>E</step>
                    <alter>-1</alter>
                    <octave>4</octave>
                </pitch>
                <duration>768</duration>
                <instrument id="P1-I1"/>
                <voice>1</voice>
                <type>half</type>
                <dot/>
                <stem>up</stem>
                <staff>1</staff>
                <notations>
                    <slur orientation="under" color="#000000" type="stop" number="1"/>
                </notations>
            </note>
            <backup>
                <duration>256</duration>
            </backup>
            <harmony default-y="31" color="#000000">
                <root>
                    <root-step>F</root-step>
                </root>
                <kind>minor-seventh</kind>
                <staff>1</staff>
            </harmony>
            <forward>
                <duration>256</duration>
            </forward>
            <harmony default-y="31" color="#000000">
                <root>
                    <root-step>D</root-step>
                    <root-alter>-1</root-alter>
                </root>
                <kind>dominant-ninth</kind>
                <staff>1</staff>
            </harmony>
            <note default-x="250" color="#000000">
                <pitch>
                    <step>F</step>
                    <octave>4</octave>
                </pitch>
                <duration>256</duration>
                <instrument id="P1-I1"/>
                <voice>1</voice>
                <type>quarter</type>
                <stem>up</stem>
                <staff>1</staff>
            </note>
        </measure>
        <measure width="415" number="22">
            <harmony default-y="31" color="#000000">
                <root>
                    <root-step>G</root-step>
                    <root-alter>-1</root-alter>
                </root>
                <kind>major-sixth</kind>
                <staff>1</staff>
            </harmony>
            <note default-y="5" default-x="24" color="#000000">
                <pitch>
                    <step>G</step>
                    <alter>-1</alter>
                    <octave>4</octave>
                </pitch>
                <duration>384</duration>
                <instrument id="P1-I1"/>
                <voice>1</voice>
                <type>quarter</type>
                <dot/>
                <accidental>flat</accidental>
                <stem>up</stem>
                <staff>1</staff>
            </note>
            <note default-y="9" default-x="131" color="#000000">
                <pitch>
                    <step>A</step>
                    <alter>-1</alter>
                    <octave>4</octave>
                </pitch>
                <duration>64</duration>
                <instrument id="P1-I1"/>
                <voice>1</voice>
                <type>16th</type>
                <accidental>flat</accidental>
                <stem>up</stem>
                <staff>1</staff>
                <beam number="1">begin</beam>
                <beam number="2">begin</beam>
                <notations>
                    <slur orientation="over" color="#000000" type="start" number="1"/>
                </notations>
            </note>
            <note default-y="9" default-x="175" color="#000000">
                <pitch>
                    <step>A</step>
                    <octave>4</octave>
                </pitch>
                <duration>64</duration>
                <instrument id="P1-I1"/>
                <voice>1</voice>
                <type>16th</type>
                <accidental>natural</accidental>
                <stem>up</stem>
                <staff>1</staff>
                <beam number="1">end</beam>
                <beam number="2">end</beam>
            </note>
            <note default-y="-55" default-x="220" color="#000000">
                <pitch>
                    <step>B</step>
                    <alter>-1</alter>
                    <octave>4</octave>
                </pitch>
                <duration>384</duration>
                <instrument id="P1-I1"/>
                <voice>1</voice>
                <type>quarter</type>
                <dot/>
                <stem>down</stem>
                <staff>1</staff>
                <notations>
                    <slur orientation="over" color="#000000" type="stop" number="1"/>
                </notations>
            </note>
            <note default-y="-49" default-x="327" color="#000000">
                <pitch>
                    <step>C</step>
                    <alter>-1</alter>
                    <octave>5</octave>
                </pitch>
                <duration>64</duration>
                <instrument id="P1-I1"/>
                <voice>1</voice>
                <type>16th</type>
                <accidental>flat</accidental>
                <stem>down</stem>
                <staff>1</staff>
                <beam number="1">begin</beam>
                <beam number="2">begin</beam>
                <notations>
                    <slur orientation="over" color="#000000" type="start" number="1"/>
                </notations>
            </note>
            <note default-y="-49" default-x="371" color="#000000">
                <pitch>
                    <step>C</step>
                    <octave>5</octave>
                </pitch>
                <duration>64</duration>
                <instrument id="P1-I1"/>
                <voice>1</voice>
                <type>16th</type>
                <accidental>natural</accidental>
                <stem>down</stem>
                <staff>1</staff>
                <beam number="1">end</beam>
                <beam number="2">end</beam>
            </note>
        </measure>
        <measure width="485" number="23">
            <harmony default-y="31" color="#000000">
                <root>
                    <root-step>E</root-step>
                    <root-alter>-1</root-alter>
                </root>
                <kind>minor-seventh</kind>
                <staff>1</staff>
            </harmony>
            <note default-y="17" default-x="24" color="#000000">
                <pitch>
                    <step>D</step>
                    <alter>-1</alter>
                    <octave>5</octave>
                </pitch>
                <duration>128</duration>
                <instrument id="P1-I1"/>
                <voice>1</voice>
                <type>eighth</type>
                <accidental>flat</accidental>
                <stem>up</stem>
                <staff>1</staff>
                <beam number="1">begin</beam>
                <notations>
                    <slur orientation="over" color="#000000" type="stop" number="1"/>
                </notations>
            </note>
            <note default-y="17" default-x="81" color="#000000">
                <pitch>
                    <step>B</step>
                    <alter>-1</alter>
                    <octave>4</octave>
                </pitch>
                <duration>128</duration>
                <instrument id="P1-I1"/>
                <voice>1</voice>
                <type>eighth</type>
                <stem>up</stem>
                <staff>1</staff>
                <beam number="1">continue</beam>
                <notations>
                    <slur orientation="under" color="#000000" type="start" number="1"/>
                </notations>
            </note>
            <note default-y="17" default-x="139" color="#000000">
                <pitch>
                    <step>G</step>
                    <alter>-1</alter>
                    <octave>4</octave>
                </pitch>
                <duration>128</duration>
                <instrument id="P1-I1"/>
                <voice>1</voice>
                <type>eighth</type>
                <accidental>flat</accidental>
                <stem>up</stem>
                <staff>1</staff>
                <beam number="1">continue</beam>
            </note>
            <note default-y="17" default-x="197" color="#000000">
                <pitch>
                    <step>A</step>
                    <alter>-1</alter>
                    <octave>4</octave>
                </pitch>
                <duration>128</duration>
                <instrument id="P1-I1"/>
                <voice>1</voice>
                <type>eighth</type>
                <accidental>flat</accidental>
                <stem>up</stem>
                <staff>1</staff>
                <beam number="1">end</beam>
            </note>
            <harmony default-y="31" color="#000000">
                <root>
                    <root-step>E</root-step>
                    <root-alter>-1</root-alter>
                </root>
                <kind>minor-sixth</kind>
                <bass>
                    <bass-step>B</bass-step>
                    <bass-alter>-1</bass-alter>
                </bass>
                <staff>1</staff>
            </harmony>
            <note default-y="2" default-x="255" color="#000000">
                <pitch>
                    <step>F</step>
                    <octave>4</octave>
                </pitch>
                <duration>128</duration>
                <instrument id="P1-I1"/>
                <voice>1</voice>
                <type>eighth</type>
                <stem>up</stem>
                <staff>1</staff>
                <beam number="1">begin</beam>
            </note>
            <note default-y="2" default-x="312" color="#000000">
                <pitch>
                    <step>G</step>
                    <alter>-1</alter>
                    <octave>4</octave>
                </pitch>
                <duration>128</duration>
                <instrument id="P1-I1"/>
                <voice>1</voice>
                <type>eighth</type>
                <stem>up</stem>
                <staff>1</staff>
                <beam number="1">continue</beam>
            </note>
            <harmony default-y="31" color="#000000">
                <root>
                    <root-step>A</root-step>
                    <root-alter>-1</root-alter>
                </root>
                <kind>minor-sixth</kind>
                <degree>
                    <degree-value>9</degree-value>
                    <degree-alter>-1</degree-alter>
                    <degree-type>add</degree-type>
                </degree>
                <staff>1</staff>
            </harmony>
            <note default-y="2" default-x="370" color="#000000">
                <pitch>
                    <step>E</step>
                    <alter>-1</alter>
                    <octave>4</octave>
                </pitch>
                <duration>128</duration>
                <instrument id="P1-I1"/>
                <voice>1</voice>
                <type>eighth</type>
                <stem>up</stem>
                <staff>1</staff>
                <beam number="1">continue</beam>
            </note>
            <note default-y="2" default-x="428" color="#000000">
                <pitch>
                    <step>F</step>
                    <octave>4</octave>
                </pitch>
                <duration>128</duration>
                <instrument id="P1-I1"/>
                <voice>1</voice>
                <type>eighth</type>
                <stem>up</stem>
                <staff>1</staff>
                <beam number="1">end</beam>
            </note>
        </measure>
        <measure width="222" number="24">
            <harmony default-y="31" color="#000000">
                <root>
                    <root-step>G</root-step>
                </root>
                <kind>minor-ninth</kind>
                <staff>1</staff>
            </harmony>
            <note default-x="15" color="#000000">
                <pitch>
                    <step>D</step>
                    <octave>4</octave>
                </pitch>
                <duration>1024</duration>
                <instrument id="P1-I1"/>
                <voice>1</voice>
                <type>whole</type>
                <staff>1</staff>
                <notations>
                    <slur orientation="under" color="#000000" type="stop" number="1"/>
                    <fermata>normal</fermata>
                </notations>
            </note>
            <barline location="right">
                <bar-style>light-heavy</bar-style>
            </barline>
        </measure>
    </part>
</score-partwise>
