<?xml version="1.0" encoding="UTF-8"?>
<!DOCTYPE score-partwise PUBLIC "-//Recordare//DTD MusicXML 2.0 Partwise//EN" "http://www.musicxml.org/dtds/partwise.dtd">
<score-partwise version="2.0">
    <work>
        <work-number></work-number>
        <work-title></work-title>
    </work>
    <movement-number></movement-number>
    <movement-title>Sprokie vir n Stadskind</movement-title>
    <identification>
        <creator type="composer">Koos du Plessis</creator>
        <creator type="poet"></creator>
        <rights>All Rights Reserved</rights>
        <encoding>
            <software>Sibelius 7.1.3</software>
            <software>Dolet 6.2 for Sibelius</software>
            <encoding-date>2013-05-03</encoding-date>
            <supports type="no" element="accidental"/>
            <supports type="no" element="transpose"/>
            <supports value="yes" type="yes" element="print" attribute="new-page"/>
            <supports value="yes" type="yes" element="print" attribute="new-system"/>
            <software>ProxyMusic 2.0 c</software>
        </encoding>
        <source>http://wikifonia.org/node/22201/revisions/29284/view</source>
    </identification>
    <defaults>
        <scaling>
            <millimeters>7</millimeters>
            <tenths>40</tenths>
        </scaling>
        <page-layout>
            <page-height>1697</page-height>
            <page-width>1200</page-width>
            <page-margins type="odd">
                <left-margin>72.5714</left-margin>
                <right-margin>72.5714</right-margin>
                <top-margin>72.5714</top-margin>
                <bottom-margin>72.5714</bottom-margin>
            </page-margins>
            <page-margins type="even">
                <left-margin>72.5714</left-margin>
                <right-margin>72.5714</right-margin>
                <top-margin>72.5714</top-margin>
                <bottom-margin>72.5714</bottom-margin>
            </page-margins>
        </page-layout>
        <system-layout>
            <system-margins>
                <left-margin>22.1875</left-margin>
                <right-margin>0</right-margin>
            </system-margins>
            <system-distance>92.5</system-distance>
            <top-system-distance>72.8125</top-system-distance>
        </system-layout>
        <appearance>
            <line-width type="beam">5</line-width>
            <line-width type="heavy barline">5</line-width>
            <line-width type="leger">1.5625</line-width>
            <line-width type="light barline">1.5625</line-width>
            <line-width type="slur middle">2.1875</line-width>
            <line-width type="slur tip">0.625</line-width>
            <line-width type="staff">0.9375</line-width>
            <line-width type="stem">0.9375</line-width>
            <line-width type="tie middle">2.1875</line-width>
            <line-width type="tie tip">0.625</line-width>
            <note-size type="grace">60</note-size>
            <note-size type="cue">75</note-size>
        </appearance>
        <music-font font-family="Opus Std,music"/>
        <word-font font-family="Plantin MT Std"/>
    </defaults>
    <part-list>
        <score-part id="P1">
            <part-name print-object="no">[Unnamed (treble staff)]</part-name>
            <score-instrument id="P1-I1">
                <instrument-name></instrument-name>
            </score-instrument>
            <midi-instrument id="P1-I1">
                <volume>79</volume>
                <pan>0</pan>
            </midi-instrument>
        </score-part>
    </part-list>
    <part id="P1">
        <measure number="1">
            <print>
                <system-layout>
                    <system-margins>
                        <left-margin>22.1875</left-margin>
                        <right-margin>0</right-margin>
                    </system-margins>
                    <top-system-distance>217.8125</top-system-distance>
                </system-layout>
                <staff-layout/>
            </print>
            <barline location="left">
                <bar-style>heavy-light</bar-style>
                <repeat direction="forward"/>
            </barline>
            <attributes>
                <divisions>768</divisions>
                <key>
                    <fifths>2</fifths>
                    <mode>major</mode>
                </key>
                <time>
                    <beats>3</beats>
                    <beat-type>4</beat-type>
                </time>
                <clef>
                    <sign>G</sign>
                    <line>2</line>
                </clef>
            </attributes>
            <harmony relative-x="7" default-y="25" print-frame="no">
                <root>
                    <root-step>D</root-step>
                </root>
                <kind text="">major</kind>
            </harmony>
            <note>
                <pitch>
                    <step>A</step>
                    <octave>4</octave>
                </pitch>
                <duration>1152</duration>
                <voice>1</voice>
                <type>quarter</type>
                <dot/>
                <stem>up</stem>
                <lyric default-y="-80" number="1" name="verse">
                    <syllabic>single</syllabic>
                    <text>As</text>
                </lyric>
                <lyric default-y="-105" number="2" name="verse">
                    <syllabic>single</syllabic>
                    <text>Volg</text>
                </lyric>
            </note>
            <note>
                <pitch>
                    <step>B</step>
                    <octave>4</octave>
                </pitch>
                <duration>384</duration>
                <voice>1</voice>
                <type>eighth</type>
                <stem>down</stem>
                <lyric default-y="-80" number="1" name="verse">
                    <syllabic>single</syllabic>
                    <text>die</text>
                </lyric>
                <lyric default-y="-105" number="2" name="verse">
                    <syllabic>single</syllabic>
                    <text>hom</text>
                </lyric>
            </note>
            <note>
                <pitch>
                    <step>A</step>
                    <octave>4</octave>
                </pitch>
                <duration>384</duration>
                <voice>1</voice>
                <type>eighth</type>
                <stem>up</stem>
                <beam number="1">begin</beam>
                <lyric default-y="-80" number="1" name="verse">
                    <syllabic>single</syllabic>
                    <text>reën</text>
                </lyric>
                <lyric default-y="-105" number="2" name="verse">
                    <syllabic>begin</syllabic>
                    <text>el</text>
                </lyric>
            </note>
            <note>
                <pitch>
                    <step>F</step>
                    <alter>1</alter>
                    <octave>4</octave>
                </pitch>
                <duration>384</duration>
                <voice>1</voice>
                <type>eighth</type>
                <stem>up</stem>
                <beam number="1">end</beam>
                <lyric default-y="-80" number="1" name="verse">
                    <syllabic>single</syllabic>
                    <text>van</text>
                </lyric>
                <lyric default-y="-105" number="2" name="verse">
                    <syllabic>end</syllabic>
                    <text>ke</text>
                </lyric>
            </note>
        </measure>
        <measure number="2">
            <harmony relative-x="7" default-y="25" print-frame="no">
                <root>
                    <root-step>D</root-step>
                </root>
                <kind text="7">dominant</kind>
            </harmony>
            <note>
                <pitch>
                    <step>D</step>
                    <octave>4</octave>
                </pitch>
                <duration>1152</duration>
                <voice>1</voice>
                <type>quarter</type>
                <dot/>
                <stem>up</stem>
                <lyric default-y="-80" number="1" name="verse">
                    <syllabic>single</syllabic>
                    <text>stof</text>
                </lyric>
                <lyric default-y="-105" number="2" name="verse">
                    <syllabic>single</syllabic>
                    <text>nag</text>
                </lyric>
            </note>
            <note>
                <pitch>
                    <step>E</step>
                    <octave>4</octave>
                </pitch>
                <duration>384</duration>
                <voice>1</voice>
                <type>eighth</type>
                <stem>up</stem>
                <lyric default-y="-80" number="1" name="verse">
                    <syllabic>single</syllabic>
                    <text>en</text>
                </lyric>
                <lyric default-y="-105" number="2" name="verse">
                    <syllabic>single</syllabic>
                    <text>oor</text>
                </lyric>
            </note>
            <note>
                <pitch>
                    <step>D</step>
                    <octave>4</octave>
                </pitch>
                <duration>384</duration>
                <voice>1</voice>
                <type>eighth</type>
                <stem>up</stem>
                <beam number="1">begin</beam>
                <lyric default-y="-80" number="1" name="verse">
                    <syllabic>single</syllabic>
                    <text>roet</text>
                </lyric>
                <lyric default-y="-105" number="2" name="verse">
                    <syllabic>single</syllabic>
                    <text>swart</text>
                </lyric>
            </note>
            <note>
                <pitch>
                    <step>C</step>
                    <octave>4</octave>
                </pitch>
                <duration>384</duration>
                <voice>1</voice>
                <type>eighth</type>
                <stem>up</stem>
                <beam number="1">end</beam>
                <lyric default-y="-80" number="1" name="verse">
                    <syllabic>begin</syllabic>
                    <text>ver</text>
                </lyric>
                <lyric default-y="-105" number="2" name="verse">
                    <syllabic>begin</syllabic>
                    <text>ri</text>
                </lyric>
            </note>
        </measure>
        <measure number="3">
            <harmony relative-x="7" default-y="25" print-frame="no">
                <root>
                    <root-step>G</root-step>
                </root>
                <kind text="">major</kind>
            </harmony>
            <note>
                <pitch>
                    <step>C</step>
                    <octave>4</octave>
                </pitch>
                <duration>768</duration>
                <voice>1</voice>
                <type>quarter</type>
                <stem>up</stem>
                <lyric default-y="-80" number="1" name="verse">
                    <syllabic>end</syllabic>
                    <text>by</text>
                </lyric>
                <lyric default-y="-105" number="2" name="verse">
                    <syllabic>middle</syllabic>
                    <text>vie</text>
                </lyric>
            </note>
            <note>
                <pitch>
                    <step>B</step>
                    <octave>3</octave>
                </pitch>
                <duration>1536</duration>
                <voice>1</voice>
                <type>half</type>
                <stem>up</stem>
                <lyric default-y="-80" number="1" name="verse">
                    <syllabic>single</syllabic>
                    <text>is.</text>
                </lyric>
                <lyric default-y="-105" number="2" name="verse">
                    <syllabic>end</syllabic>
                    <text>re.</text>
                </lyric>
            </note>
        </measure>
        <measure number="4">
            <harmony relative-x="7" default-y="25" print-frame="no">
                <root>
                    <root-step>G</root-step>
                </root>
                <kind text="">major</kind>
            </harmony>
            <note>
                <rest/>
                <duration>2304</duration>
                <voice>1</voice>
                <type>half</type>
                <dot/>
                <lyric relative-x="39" default-y="-104" number="2" name="verse">
                    <syllabic>single</syllabic>
                    <text>oor</text>
                </lyric>
            </note>
        </measure>
        <measure number="5">
            <harmony relative-x="7" default-y="25" print-frame="no">
                <root>
                    <root-step>D</root-step>
                </root>
                <kind text="">major</kind>
            </harmony>
            <note>
                <pitch>
                    <step>F</step>
                    <alter>1</alter>
                    <octave>4</octave>
                </pitch>
                <duration>1536</duration>
                <voice>1</voice>
                <type>half</type>
                <stem>up</stem>
                <lyric default-y="-80" number="1" name="verse">
                    <syllabic>single</syllabic>
                    <text>En</text>
                </lyric>
                <lyric default-y="-105" number="2" name="verse">
                    <syllabic>begin</syllabic>
                    <text>kran</text>
                </lyric>
            </note>
            <note>
                <pitch>
                    <step>F</step>
                    <alter>1</alter>
                    <octave>4</octave>
                </pitch>
                <duration>768</duration>
                <voice>1</voice>
                <type>quarter</type>
                <stem>up</stem>
                <lyric default-y="-80" number="1" name="verse">
                    <syllabic>single</syllabic>
                    <text>die</text>
                </lyric>
                <lyric default-y="-105" number="2" name="verse">
                    <syllabic>end</syllabic>
                    <text>se</text>
                </lyric>
            </note>
        </measure>
        <measure number="6">
            <harmony relative-x="7" default-y="25" print-frame="no">
                <root>
                    <root-step>A</root-step>
                </root>
                <kind text="">major</kind>
            </harmony>
            <note>
                <pitch>
                    <step>E</step>
                    <octave>4</octave>
                </pitch>
                <duration>1536</duration>
                <voice>1</voice>
                <type>half</type>
                <stem>up</stem>
                <lyric default-y="-80" number="1" name="verse">
                    <syllabic>single</syllabic>
                    <text>rook</text>
                </lyric>
                <lyric default-y="-105" number="2" name="verse">
                    <syllabic>single</syllabic>
                    <text>van</text>
                </lyric>
            </note>
            <note>
                <pitch>
                    <step>E</step>
                    <octave>4</octave>
                </pitch>
                <duration>768</duration>
                <voice>1</voice>
                <type>quarter</type>
                <stem>up</stem>
                <lyric default-y="-80" number="1" name="verse">
                    <syllabic>begin</syllabic>
                    <text>ver</text>
                </lyric>
                <lyric default-y="-105" number="2" name="verse">
                    <syllabic>begin</syllabic>
                    <text>be</text>
                </lyric>
            </note>
        </measure>
        <measure number="7">
            <harmony relative-x="7" default-y="25" print-frame="no">
                <root>
                    <root-step>D</root-step>
                </root>
                <kind text="">major</kind>
            </harmony>
            <note>
                <pitch>
                    <step>D</step>
                    <octave>4</octave>
                </pitch>
                <duration>2304</duration>
                <voice>1</voice>
                <type>half</type>
                <dot/>
                <stem>up</stem>
                <lyric default-y="-80" number="1" name="verse">
                    <syllabic>end</syllabic>
                    <text>dwyn.</text>
                </lyric>
                <lyric default-y="-105" number="2" name="verse">
                    <syllabic>end</syllabic>
                    <text>ton.</text>
                </lyric>
            </note>
        </measure>
        <measure number="8">
            <harmony relative-x="7" default-y="25" print-frame="no">
                <root>
                    <root-step>A</root-step>
                </root>
                <kind text="7">dominant</kind>
            </harmony>
            <note>
                <rest/>
                <duration>2304</duration>
                <voice>1</voice>
            </note>
        </measure>
        <measure number="9">
            <print new-system="yes"/>
            <note>
                <pitch>
                    <step>A</step>
                    <octave>4</octave>
                </pitch>
                <duration>1152</duration>
                <voice>1</voice>
                <type>quarter</type>
                <dot/>
                <stem>up</stem>
                <lyric default-y="-80" number="1" name="verse">
                    <syllabic>single</syllabic>
                    <text>Sal</text>
                </lyric>
                <lyric default-y="-105" number="2" name="verse">
                    <syllabic>single</syllabic>
                    <text>As</text>
                </lyric>
            </note>
            <note>
                <pitch>
                    <step>B</step>
                    <octave>4</octave>
                </pitch>
                <duration>384</duration>
                <voice>1</voice>
                <type>eighth</type>
                <stem>down</stem>
                <lyric default-y="-80" number="1" name="verse">
                    <syllabic>single</syllabic>
                    <text>daar</text>
                </lyric>
                <lyric default-y="-105" number="2" name="verse">
                    <syllabic>single</syllabic>
                    <text>jy</text>
                </lyric>
            </note>
            <note>
                <pitch>
                    <step>A</step>
                    <octave>4</octave>
                </pitch>
                <duration>384</duration>
                <voice>1</voice>
                <type>eighth</type>
                <stem>up</stem>
                <beam number="1">begin</beam>
                <lyric default-y="-80" number="1" name="verse">
                    <syllabic>single</syllabic>
                    <text>aan</text>
                </lyric>
                <lyric default-y="-105" number="2" name="verse">
                    <syllabic>begin</syllabic>
                    <text>aan</text>
                </lyric>
            </note>
            <note>
                <pitch>
                    <step>F</step>
                    <alter>1</alter>
                    <octave>4</octave>
                </pitch>
                <duration>384</duration>
                <voice>1</voice>
                <type>eighth</type>
                <stem>up</stem>
                <beam number="1">end</beam>
                <lyric default-y="-80" number="1" name="verse">
                    <syllabic>single</syllabic>
                    <text>die</text>
                </lyric>
                <lyric default-y="-105" number="2" name="verse">
                    <syllabic>end</syllabic>
                    <text>hou</text>
                </lyric>
            </note>
        </measure>
        <measure number="10">
            <note>
                <pitch>
                    <step>D</step>
                    <octave>4</octave>
                </pitch>
                <duration>1152</duration>
                <voice>1</voice>
                <type>quarter</type>
                <dot/>
                <stem>up</stem>
                <lyric default-y="-80" number="1" name="verse">
                    <syllabic>begin</syllabic>
                    <text>ster</text>
                </lyric>
                <lyric default-y="-105" number="2" name="verse">
                    <syllabic>single</syllabic>
                    <text>stap</text>
                </lyric>
            </note>
            <note>
                <pitch>
                    <step>E</step>
                    <octave>4</octave>
                </pitch>
                <duration>384</duration>
                <voice>1</voice>
                <type>eighth</type>
                <stem>up</stem>
                <lyric default-y="-80" number="1" name="verse">
                    <syllabic>middle</syllabic>
                    <text>re</text>
                </lyric>
                <lyric default-y="-105" number="2" name="verse">
                    <syllabic>begin</syllabic>
                    <text>tien</text>
                </lyric>
            </note>
            <note>
                <pitch>
                    <step>D</step>
                    <octave>4</octave>
                </pitch>
                <duration>384</duration>
                <voice>1</voice>
                <type>eighth</type>
                <stem>up</stem>
                <beam number="1">begin</beam>
                <lyric default-y="-80" number="1" name="verse">
                    <syllabic>middle</syllabic>
                    <text>lo</text>
                </lyric>
                <lyric default-y="-105" number="2" name="verse">
                    <syllabic>middle</syllabic>
                    <text>dui</text>
                </lyric>
            </note>
            <note>
                <pitch>
                    <step>C</step>
                    <octave>4</octave>
                </pitch>
                <duration>384</duration>
                <voice>1</voice>
                <type>eighth</type>
                <stem>up</stem>
                <beam number="1">end</beam>
                <lyric default-y="-80" number="1" name="verse">
                    <syllabic>end</syllabic>
                    <text>se</text>
                </lyric>
                <lyric default-y="-105" number="2" name="verse">
                    <syllabic>end</syllabic>
                    <text>send</text>
                </lyric>
            </note>
        </measure>
        <measure number="11">
            <harmony relative-x="8" default-y="24" print-frame="no">
                <root>
                    <root-step>G</root-step>
                </root>
                <kind text="">major</kind>
            </harmony>
            <note>
                <pitch>
                    <step>C</step>
                    <octave>4</octave>
                </pitch>
                <duration>768</duration>
                <voice>1</voice>
                <type>quarter</type>
                <stem>up</stem>
                <lyric default-y="-80" number="1" name="verse">
                    <syllabic>begin</syllabic>
                    <text>he</text>
                </lyric>
                <lyric default-y="-105" number="2" name="verse">
                    <syllabic>begin</syllabic>
                    <text>u</text>
                </lyric>
            </note>
            <note>
                <pitch>
                    <step>B</step>
                    <octave>3</octave>
                </pitch>
                <duration>1536</duration>
                <voice>1</voice>
                <type>half</type>
                <stem>up</stem>
                <lyric default-y="-80" number="1" name="verse">
                    <syllabic>end</syllabic>
                    <text>mel</text>
                </lyric>
                <lyric default-y="-105" number="2" name="verse">
                    <syllabic>end</syllabic>
                    <text>re</text>
                    <extend/>
                </lyric>
            </note>
        </measure>
        <measure number="12">
            <note>
                <rest/>
                <duration>1536</duration>
                <voice>1</voice>
                <type>half</type>
            </note>
            <note>
                <rest/>
                <duration>384</duration>
                <voice>1</voice>
                <type>eighth</type>
            </note>
            <note>
                <pitch>
                    <step>A</step>
                    <octave>3</octave>
                </pitch>
                <duration>384</duration>
                <voice>1</voice>
                <type>eighth</type>
                <stem>up</stem>
                <lyric default-y="-80" number="1" name="verse">
                    <syllabic>single</syllabic>
                    <text>'n</text>
                </lyric>
            </note>
        </measure>
        <measure number="13">
            <harmony relative-x="8" default-y="25" print-frame="no">
                <root>
                    <root-step>D</root-step>
                </root>
                <kind text="">major</kind>
            </harmony>
            <note>
                <pitch>
                    <step>F</step>
                    <alter>1</alter>
                    <octave>4</octave>
                </pitch>
                <duration>768</duration>
                <voice>1</voice>
                <type>quarter</type>
                <stem>up</stem>
                <lyric default-y="-80" number="1" name="verse">
                    <syllabic>begin</syllabic>
                    <text>ne</text>
                </lyric>
                <lyric default-y="-105" number="2" name="verse">
                    <syllabic>single</syllabic>
                    <text>sal</text>
                </lyric>
            </note>
            <note>
                <pitch>
                    <step>F</step>
                    <alter>1</alter>
                    <octave>4</octave>
                </pitch>
                <duration>1536</duration>
                <voice>1</voice>
                <type>half</type>
                <stem>up</stem>
                <lyric default-y="-80" number="1" name="verse">
                    <syllabic>middle</syllabic>
                    <text>on</text>
                </lyric>
                <lyric default-y="-105" number="2" name="verse">
                    <syllabic>single</syllabic>
                    <text>jy</text>
                </lyric>
            </note>
        </measure>
        <measure number="14">
            <harmony relative-x="8" default-y="25" print-frame="no">
                <root>
                    <root-step>A</root-step>
                </root>
                <kind text="">major</kind>
            </harmony>
            <note>
                <pitch>
                    <step>E</step>
                    <octave>4</octave>
                </pitch>
                <duration>1536</duration>
                <voice>1</voice>
                <type>half</type>
                <stem>up</stem>
                <lyric default-y="-80" number="1" name="verse">
                    <syllabic>end</syllabic>
                    <text>boog</text>
                </lyric>
                <lyric default-y="-105" number="2" name="verse">
                    <syllabic>single</syllabic>
                    <text>dalk</text>
                </lyric>
            </note>
            <note>
                <pitch>
                    <step>E</step>
                    <octave>4</octave>
                </pitch>
                <duration>768</duration>
                <voice>1</voice>
                <type>quarter</type>
                <stem>up</stem>
                <lyric default-y="-80" number="1" name="verse">
                    <syllabic>begin</syllabic>
                    <text>ver</text>
                </lyric>
                <lyric default-y="-105" number="2" name="verse">
                    <syllabic>single</syllabic>
                    <text>daar</text>
                </lyric>
            </note>
        </measure>
        <measure number="15">
            <harmony relative-x="7" default-y="25" print-frame="no">
                <root>
                    <root-step>D</root-step>
                </root>
                <kind text="">major</kind>
            </harmony>
            <note>
                <pitch>
                    <step>D</step>
                    <octave>4</octave>
                </pitch>
                <duration>2304</duration>
                <voice>1</voice>
                <type>half</type>
                <dot/>
                <stem>up</stem>
                <lyric default-y="-80" number="1" name="verse">
                    <syllabic>end</syllabic>
                    <text>skyn.</text>
                </lyric>
                <lyric default-y="-105" number="2" name="verse">
                    <syllabic>single</syllabic>
                    <text>kom.</text>
                </lyric>
            </note>
        </measure>
        <measure number="16">
            <print new-system="yes"/>
            <harmony relative-x="7" default-y="25" print-frame="no">
                <root>
                    <root-step>D</root-step>
                </root>
                <kind text="7">dominant</kind>
            </harmony>
            <note>
                <rest/>
                <duration>1536</duration>
                <voice>1</voice>
                <type>half</type>
            </note>
            <note>
                <pitch>
                    <step>D</step>
                    <octave>4</octave>
                </pitch>
                <duration>768</duration>
                <voice>1</voice>
                <type>quarter</type>
                <stem>up</stem>
                <lyric default-y="-80" number="1" name="verse">
                    <syllabic>single</syllabic>
                    <text>En</text>
                </lyric>
                <lyric default-y="-105" number="2" name="verse">
                    <syllabic>single</syllabic>
                    <text>Maar</text>
                </lyric>
            </note>
        </measure>
        <measure number="17">
            <harmony relative-x="7" default-y="25" print-frame="no">
                <root>
                    <root-step>G</root-step>
                </root>
                <kind text="">major</kind>
            </harmony>
            <note>
                <pitch>
                    <step>B</step>
                    <octave>4</octave>
                </pitch>
                <duration>1536</duration>
                <voice>1</voice>
                <type>half</type>
                <stem>down</stem>
                <lyric default-y="-80" number="1" name="verse">
                    <syllabic>single</syllabic>
                    <text>kyk</text>
                </lyric>
                <lyric default-y="-105" number="2" name="verse">
                    <syllabic>single</syllabic>
                    <text>hier</text>
                </lyric>
            </note>
            <note>
                <pitch>
                    <step>B</step>
                    <octave>4</octave>
                </pitch>
                <duration>768</duration>
                <voice>1</voice>
                <type>quarter</type>
                <stem>down</stem>
                <lyric default-y="-80" number="1" name="verse">
                    <syllabic>single</syllabic>
                    <text>maar</text>
                </lyric>
                <lyric default-y="-105" number="2" name="verse">
                    <syllabic>single</syllabic>
                    <text>moet</text>
                </lyric>
            </note>
        </measure>
        <measure number="18">
            <harmony relative-x="7" default-y="25" print-frame="no">
                <root>
                    <root-step>G</root-step>
                </root>
                <kind text="">major</kind>
            </harmony>
            <note>
                <pitch>
                    <step>B</step>
                    <octave>4</octave>
                </pitch>
                <duration>1536</duration>
                <voice>1</voice>
                <type>half</type>
                <stem>down</stem>
                <lyric default-y="-80" number="1" name="verse">
                    <syllabic>single</syllabic>
                    <text>goed,</text>
                </lyric>
                <lyric default-y="-105" number="2" name="verse">
                    <syllabic>single</syllabic>
                    <text>jy</text>
                </lyric>
            </note>
            <note>
                <pitch>
                    <step>D</step>
                    <octave>5</octave>
                </pitch>
                <duration>768</duration>
                <voice>1</voice>
                <type>quarter</type>
                <stem>down</stem>
                <lyric default-y="-80" number="1" name="verse">
                    <syllabic>single</syllabic>
                    <text>want</text>
                </lyric>
                <lyric default-y="-105" number="2" name="verse">
                    <syllabic>single</syllabic>
                    <text>jou</text>
                </lyric>
            </note>
        </measure>
        <measure number="19">
            <harmony relative-x="7" default-y="25" print-frame="no">
                <root>
                    <root-step>D</root-step>
                </root>
                <kind text="">major</kind>
            </harmony>
            <note>
                <pitch>
                    <step>B</step>
                    <octave>4</octave>
                </pitch>
                <duration>768</duration>
                <voice>1</voice>
                <type>quarter</type>
                <stem>down</stem>
                <lyric default-y="-80" number="1" name="verse">
                    <syllabic>single</syllabic>
                    <text>as</text>
                </lyric>
                <lyric default-y="-105" number="2" name="verse">
                    <syllabic>begin</syllabic>
                    <text>nim</text>
                </lyric>
            </note>
            <note>
                <pitch>
                    <step>A</step>
                    <octave>4</octave>
                </pitch>
                <duration>1152</duration>
                <voice>1</voice>
                <type>quarter</type>
                <dot/>
                <stem>up</stem>
                <lyric default-y="-80" number="1" name="verse">
                    <syllabic>single</syllabic>
                    <text>jy</text>
                </lyric>
                <lyric default-y="-105" number="2" name="verse">
                    <syllabic>end</syllabic>
                    <text>mer</text>
                </lyric>
            </note>
            <note>
                <pitch>
                    <step>G</step>
                    <alter>1</alter>
                    <octave>4</octave>
                </pitch>
                <duration>384</duration>
                <voice>1</voice>
                <type>eighth</type>
                <stem>up</stem>
                <lyric default-y="-80" number="1" name="verse">
                    <syllabic>single</syllabic>
                    <text>hom</text>
                </lyric>
                <lyric default-y="-105" number="2" name="verse">
                    <syllabic>single</syllabic>
                    <text>laat</text>
                </lyric>
            </note>
        </measure>
        <measure number="20">
            <harmony relative-x="7" default-y="25" print-frame="no">
                <root>
                    <root-step>D</root-step>
                </root>
                <kind text="">major</kind>
            </harmony>
            <note>
                <pitch>
                    <step>A</step>
                    <octave>4</octave>
                </pitch>
                <duration>1536</duration>
                <voice>1</voice>
                <type>half</type>
                <stem>up</stem>
                <lyric default-y="-80" number="1" name="verse">
                    <syllabic>single</syllabic>
                    <text>vind,</text>
                </lyric>
                <lyric default-y="-105" number="2" name="verse">
                    <syllabic>single</syllabic>
                    <text>bind,</text>
                </lyric>
            </note>
            <note>
                <rest/>
                <duration>384</duration>
                <voice>1</voice>
                <type>eighth</type>
            </note>
            <note>
                <pitch>
                    <step>A</step>
                    <octave>4</octave>
                </pitch>
                <duration>384</duration>
                <voice>1</voice>
                <type>eighth</type>
                <stem>up</stem>
                <lyric default-y="-80" number="1" name="verse">
                    <syllabic>begin</syllabic>
                    <text>ver</text>
                </lyric>
                <lyric default-y="-105" number="2" name="verse">
                    <syllabic>single</syllabic>
                    <text>want</text>
                </lyric>
            </note>
        </measure>
        <measure number="21">
            <harmony relative-x="7" default-y="25" print-frame="no">
                <root>
                    <root-step>A</root-step>
                </root>
                <kind text="7">dominant</kind>
            </harmony>
            <note>
                <pitch>
                    <step>A</step>
                    <octave>4</octave>
                </pitch>
                <duration>768</duration>
                <voice>1</voice>
                <type>quarter</type>
                <stem>up</stem>
                <lyric default-y="-80" number="1" name="verse">
                    <syllabic>end</syllabic>
                    <text>tel</text>
                </lyric>
                <lyric default-y="-105" number="2" name="verse">
                    <syllabic>single</syllabic>
                    <text>so</text>
                </lyric>
            </note>
            <note>
                <pitch>
                    <step>G</step>
                    <octave>4</octave>
                </pitch>
                <duration>1152</duration>
                <voice>1</voice>
                <type>quarter</type>
                <dot/>
                <stem>up</stem>
                <lyric default-y="-80" number="1" name="verse">
                    <syllabic>single</syllabic>
                    <text>ek</text>
                </lyric>
                <lyric default-y="-105" number="2" name="verse">
                    <syllabic>single</syllabic>
                    <text>lui</text>
                </lyric>
            </note>
            <note>
                <pitch>
                    <step>F</step>
                    <alter>1</alter>
                    <octave>4</octave>
                </pitch>
                <duration>384</duration>
                <voice>1</voice>
                <type>eighth</type>
                <stem>up</stem>
                <lyric default-y="-80" number="1" name="verse">
                    <syllabic>single</syllabic>
                    <text>vir</text>
                </lyric>
                <lyric default-y="-105" number="2" name="verse">
                    <syllabic>single</syllabic>
                    <text>die</text>
                </lyric>
            </note>
        </measure>
        <measure number="22">
            <harmony relative-x="7" default-y="25" print-frame="no">
                <root>
                    <root-step>A</root-step>
                </root>
                <kind text="7">dominant</kind>
            </harmony>
            <note>
                <pitch>
                    <step>G</step>
                    <octave>4</octave>
                </pitch>
                <duration>1536</duration>
                <voice>1</voice>
                <type>half</type>
                <stem>up</stem>
                <lyric default-y="-80" number="1" name="verse">
                    <syllabic>single</syllabic>
                    <text>jou</text>
                </lyric>
                <lyric default-y="-105" number="2" name="verse">
                    <syllabic>single</syllabic>
                    <text>ou</text>
                </lyric>
            </note>
            <note>
                <pitch>
                    <step>A</step>
                    <octave>4</octave>
                </pitch>
                <duration>768</duration>
                <voice>1</voice>
                <type>quarter</type>
                <stem>up</stem>
                <lyric default-y="-80" number="1" name="verse">
                    <syllabic>single</syllabic>
                    <text>'n</text>
                </lyric>
                <lyric default-y="-105" number="2" name="verse">
                    <syllabic>single</syllabic>
                    <text>ou</text>
                </lyric>
            </note>
        </measure>
        <measure number="23">
            <harmony relative-x="7" default-y="25" print-frame="no">
                <root>
                    <root-step>D</root-step>
                </root>
                <kind text="">major</kind>
            </harmony>
            <note>
                <pitch>
                    <step>G</step>
                    <octave>4</octave>
                </pitch>
                <duration>768</duration>
                <voice>1</voice>
                <type>quarter</type>
                <stem>up</stem>
                <lyric default-y="-80" number="1" name="verse">
                    <syllabic>begin</syllabic>
                    <text>spro</text>
                </lyric>
                <lyric default-y="-105" number="2" name="verse">
                    <syllabic>begin</syllabic>
                    <text>spro</text>
                </lyric>
            </note>
            <note>
                <pitch>
                    <step>F</step>
                    <alter>1</alter>
                    <octave>4</octave>
                </pitch>
                <duration>768</duration>
                <voice>1</voice>
                <type>quarter</type>
                <stem>up</stem>
                <lyric default-y="-80" number="1" name="verse">
                    <syllabic>end</syllabic>
                    <text>kie</text>
                </lyric>
                <lyric default-y="-105" number="2" name="verse">
                    <syllabic>end</syllabic>
                    <text>kie</text>
                </lyric>
            </note>
            <note>
                <pitch>
                    <step>G</step>
                    <octave>4</octave>
                </pitch>
                <duration>768</duration>
                <voice>1</voice>
                <type>quarter</type>
                <stem>up</stem>
                <lyric default-y="-80" number="1" name="verse">
                    <syllabic>single</syllabic>
                    <text>my</text>
                </lyric>
                <lyric default-y="-105" number="2" name="verse">
                    <syllabic>single</syllabic>
                    <text>my</text>
                </lyric>
            </note>
        </measure>
        <measure number="24">
            <print new-system="yes"/>
            <harmony relative-x="7" default-y="25" print-frame="no">
                <root>
                    <root-step>D</root-step>
                </root>
                <kind text="7">dominant</kind>
                <bass>
                    <bass-step>F</bass-step>
                    <bass-alter>1</bass-alter>
                </bass>
            </harmony>
            <note>
                <pitch>
                    <step>A</step>
                    <octave>4</octave>
                </pitch>
                <duration>1152</duration>
                <voice>1</voice>
                <type>quarter</type>
                <dot/>
                <stem>up</stem>
                <lyric default-y="-80" number="1" name="verse">
                    <syllabic>single</syllabic>
                    <text>kind.</text>
                </lyric>
                <lyric default-y="-105" number="2" name="verse">
                    <syllabic>single</syllabic>
                    <text>kind.</text>
                </lyric>
            </note>
            <note>
                <rest/>
                <duration>384</duration>
                <voice>1</voice>
                <type>eighth</type>
            </note>
            <harmony relative-x="7" default-y="25" print-frame="no">
                <root>
                    <root-step>D</root-step>
                </root>
                <kind text="7">dominant</kind>
            </harmony>
            <note>
                <pitch>
                    <step>D</step>
                    <octave>4</octave>
                </pitch>
                <duration>384</duration>
                <voice>1</voice>
                <type>eighth</type>
                <stem>up</stem>
                <beam number="1">begin</beam>
                <lyric default-y="-80" number="1" name="verse">
                    <syllabic>single</syllabic>
                    <text>Van</text>
                </lyric>
                <lyric default-y="-105" number="2" name="verse">
                    <syllabic>single</syllabic>
                    <text>As</text>
                </lyric>
            </note>
            <note>
                <pitch>
                    <step>D</step>
                    <octave>4</octave>
                </pitch>
                <duration>384</duration>
                <voice>1</voice>
                <type>eighth</type>
                <stem>up</stem>
                <beam number="1">end</beam>
                <lyric default-y="-80" number="1" name="verse">
                    <syllabic>single</syllabic>
                    <text>'n</text>
                </lyric>
            </note>
        </measure>
        <measure number="25">
            <harmony relative-x="7" default-y="25" print-frame="no">
                <root>
                    <root-step>G</root-step>
                </root>
                <kind text="">major</kind>
            </harmony>
            <note>
                <pitch>
                    <step>B</step>
                    <octave>4</octave>
                </pitch>
                <duration>1536</duration>
                <voice>1</voice>
                <type>half</type>
                <stem>down</stem>
                <lyric default-y="-80" number="1" name="verse">
                    <syllabic>begin</syllabic>
                    <text>skat</text>
                </lyric>
                <lyric default-y="-105" number="2" name="verse">
                    <syllabic>single</syllabic>
                    <text>jy</text>
                </lyric>
            </note>
            <note>
                <pitch>
                    <step>B</step>
                    <octave>4</octave>
                </pitch>
                <duration>768</duration>
                <voice>1</voice>
                <type>quarter</type>
                <stem>down</stem>
                <lyric default-y="-80" number="1" name="verse">
                    <syllabic>end</syllabic>
                    <text>kis</text>
                </lyric>
                <lyric default-y="-105" number="2" name="verse">
                    <syllabic>begin</syllabic>
                    <text>ge</text>
                </lyric>
            </note>
        </measure>
        <measure number="26">
            <harmony relative-x="7" default-y="25" print-frame="no">
                <root>
                    <root-step>E</root-step>
                </root>
                <kind text="m">minor</kind>
            </harmony>
            <note>
                <pitch>
                    <step>B</step>
                    <octave>4</octave>
                </pitch>
                <duration>1536</duration>
                <voice>1</voice>
                <type>half</type>
                <stem>down</stem>
                <lyric default-y="-80" number="1" name="verse">
                    <syllabic>single</syllabic>
                    <text>met</text>
                </lyric>
                <lyric default-y="-105" number="2" name="verse">
                    <syllabic>end</syllabic>
                    <text>luk</text>
                </lyric>
            </note>
            <note>
                <pitch>
                    <step>D</step>
                    <octave>5</octave>
                </pitch>
                <duration>768</duration>
                <voice>1</voice>
                <type>quarter</type>
                <stem>down</stem>
                <lyric default-y="-80" number="1" name="verse">
                    <syllabic>single</syllabic>
                    <text>ou</text>
                </lyric>
                <lyric default-y="-105" number="2" name="verse">
                    <syllabic>single</syllabic>
                    <text>en</text>
                </lyric>
            </note>
        </measure>
        <measure number="27">
            <harmony relative-x="7" default-y="25" print-frame="no">
                <root>
                    <root-step>F</root-step>
                    <root-alter>1</root-alter>
                </root>
                <kind text="m">minor</kind>
            </harmony>
            <note>
                <pitch>
                    <step>B</step>
                    <octave>4</octave>
                </pitch>
                <duration>768</duration>
                <voice>1</voice>
                <type>quarter</type>
                <stem>down</stem>
                <lyric default-y="-80" number="1" name="verse">
                    <syllabic>begin</syllabic>
                    <text>ket</text>
                </lyric>
                <lyric default-y="-105" number="2" name="verse">
                    <syllabic>begin</syllabic>
                    <text>vreug</text>
                </lyric>
            </note>
            <note>
                <pitch>
                    <step>A</step>
                    <octave>4</octave>
                </pitch>
                <duration>1152</duration>
                <voice>1</voice>
                <type>quarter</type>
                <dot/>
                <stem>up</stem>
                <lyric default-y="-80" number="1" name="verse">
                    <syllabic>end</syllabic>
                    <text>tings</text>
                </lyric>
                <lyric default-y="-105" number="2" name="verse">
                    <syllabic>end</syllabic>
                    <text>de</text>
                </lyric>
            </note>
            <note>
                <pitch>
                    <step>G</step>
                    <alter>1</alter>
                    <octave>4</octave>
                </pitch>
                <duration>384</duration>
                <voice>1</voice>
                <type>eighth</type>
                <stem>up</stem>
                <lyric default-y="-80" number="1" name="verse">
                    <syllabic>begin</syllabic>
                    <text>ge</text>
                </lyric>
                <lyric default-y="-105" number="2" name="verse">
                    <syllabic>single</syllabic>
                    <text>wil</text>
                </lyric>
            </note>
        </measure>
        <measure number="28">
            <harmony relative-x="7" default-y="25" print-frame="no">
                <root>
                    <root-step>B</root-step>
                </root>
                <kind text="m7">minor-seventh</kind>
            </harmony>
            <note>
                <pitch>
                    <step>A</step>
                    <octave>4</octave>
                </pitch>
                <duration>1536</duration>
                <voice>1</voice>
                <type>half</type>
                <stem>up</stem>
                <lyric default-y="-80" number="1" name="verse">
                    <syllabic>end</syllabic>
                    <text>bind</text>
                </lyric>
                <lyric default-y="-105" number="2" name="verse">
                    <syllabic>single</syllabic>
                    <text>vind,</text>
                </lyric>
            </note>
            <note>
                <rest/>
                <duration>768</duration>
                <voice>1</voice>
                <type>quarter</type>
            </note>
        </measure>
        <measure number="29">
            <harmony relative-x="7" default-y="25" print-frame="no">
                <root>
                    <root-step>E</root-step>
                </root>
                <kind text="">major</kind>
            </harmony>
            <note>
                <pitch>
                    <step>G</step>
                    <alter>1</alter>
                    <octave>4</octave>
                </pitch>
                <duration>1536</duration>
                <voice>1</voice>
                <type>half</type>
                <stem>up</stem>
                <lyric default-y="-80" number="1" name="verse">
                    <syllabic>single</syllabic>
                    <text>aan</text>
                </lyric>
                <lyric default-y="-105" number="2" name="verse">
                    <syllabic>single</syllabic>
                    <text>soek</text>
                </lyric>
            </note>
            <note>
                <pitch>
                    <step>G</step>
                    <alter>1</alter>
                    <octave>4</octave>
                </pitch>
                <duration>768</duration>
                <voice>1</voice>
                <type>quarter</type>
                <stem>up</stem>
                <lyric default-y="-80" number="1" name="verse">
                    <syllabic>single</syllabic>
                    <text>die</text>
                </lyric>
                <lyric default-y="-105" number="2" name="verse">
                    <syllabic>single</syllabic>
                    <text>die</text>
                </lyric>
            </note>
        </measure>
        <measure number="30">
            <harmony relative-x="7" default-y="25" print-frame="no">
                <root>
                    <root-step>E</root-step>
                </root>
                <kind text="">major</kind>
            </harmony>
            <note>
                <pitch>
                    <step>G</step>
                    <alter>1</alter>
                    <octave>4</octave>
                </pitch>
                <duration>768</duration>
                <voice>1</voice>
                <type>quarter</type>
                <stem>up</stem>
                <notations>
                    <slur type="start" number="1"/>
                </notations>
                <lyric default-y="-80" number="1" name="verse">
                    <syllabic>begin</syllabic>
                    <text>ne</text>
                </lyric>
                <lyric default-y="-105" number="2" name="verse">
                    <syllabic>begin</syllabic>
                    <text>ne</text>
                    <extend/>
                </lyric>
            </note>
            <note>
                <pitch>
                    <step>F</step>
                    <alter>1</alter>
                    <octave>4</octave>
                </pitch>
                <duration>768</duration>
                <voice>1</voice>
                <type>quarter</type>
                <stem>up</stem>
                <notations>
                    <slur type="stop" number="1"/>
                </notations>
            </note>
            <note>
                <pitch>
                    <step>E</step>
                    <octave>4</octave>
                </pitch>
                <duration>768</duration>
                <voice>1</voice>
                <type>quarter</type>
                <stem>up</stem>
                <lyric default-y="-80" number="1" name="verse">
                    <syllabic>middle</syllabic>
                    <text>on</text>
                </lyric>
                <lyric default-y="-105" number="2" name="verse">
                    <syllabic>middle</syllabic>
                    <text>on</text>
                </lyric>
            </note>
        </measure>
        <measure number="31">
            <harmony relative-x="7" default-y="25" print-frame="no">
                <root>
                    <root-step>A</root-step>
                </root>
                <kind text="">major</kind>
            </harmony>
            <note>
                <pitch>
                    <step>E</step>
                    <octave>4</octave>
                </pitch>
                <duration>1536</duration>
                <voice>1</voice>
                <type>half</type>
                <stem>up</stem>
                <lyric default-y="-80" number="1" name="verse">
                    <syllabic>end</syllabic>
                    <text>boog</text>
                </lyric>
                <lyric default-y="-105" number="2" name="verse">
                    <syllabic>end</syllabic>
                    <text>boog</text>
                </lyric>
            </note>
            <note>
                <pitch>
                    <step>F</step>
                    <alter>1</alter>
                    <octave>4</octave>
                </pitch>
                <duration>768</duration>
                <voice>1</voice>
                <type>quarter</type>
                <stem>up</stem>
                <lyric default-y="-80" number="1" name="verse">
                    <syllabic>single</syllabic>
                    <text>se</text>
                </lyric>
                <lyric default-y="-105" number="2" name="verse">
                    <syllabic>single</syllabic>
                    <text>se</text>
                </lyric>
            </note>
        </measure>
        <measure number="32">
            <print new-system="yes"/>
            <harmony relative-x="7" default-y="25" print-frame="no">
                <root>
                    <root-step>A</root-step>
                </root>
                <kind text="">major</kind>
            </harmony>
            <note>
                <pitch>
                    <step>G</step>
                    <octave>4</octave>
                </pitch>
                <duration>1536</duration>
                <voice>1</voice>
                <type>half</type>
                <stem>up</stem>
                <lyric default-y="-80" number="1" name="verse">
                    <syllabic>single</syllabic>
                    <text>punt.</text>
                </lyric>
                <lyric default-y="-105" number="2" name="verse">
                    <syllabic>single</syllabic>
                    <text>punt.</text>
                </lyric>
            </note>
            <note>
                <rest/>
                <duration>768</duration>
                <voice>1</voice>
                <type>quarter</type>
            </note>
            <barline location="right">
                <bar-style>light-heavy</bar-style>
                <repeat direction="backward"/>
            </barline>
        </measure>
        <measure number="33">
            <harmony relative-x="7" default-y="25" print-frame="no">
                <root>
                    <root-step>D</root-step>
                </root>
                <kind text="">major</kind>
            </harmony>
            <note>
                <pitch>
                    <step>A</step>
                    <octave>4</octave>
                </pitch>
                <duration>1152</duration>
                <voice>1</voice>
                <type>quarter</type>
                <dot/>
                <stem>up</stem>
                <lyric default-y="-80" number="1" name="verse">
                    <syllabic>single</syllabic>
                    <text>Volg</text>
                </lyric>
            </note>
            <note>
                <pitch>
                    <step>B</step>
                    <octave>4</octave>
                </pitch>
                <duration>384</duration>
                <voice>1</voice>
                <type>eighth</type>
                <stem>down</stem>
                <lyric default-y="-80" number="1" name="verse">
                    <syllabic>single</syllabic>
                    <text>hom</text>
                </lyric>
            </note>
            <note>
                <pitch>
                    <step>A</step>
                    <octave>4</octave>
                </pitch>
                <duration>384</duration>
                <voice>1</voice>
                <type>eighth</type>
                <stem>up</stem>
                <beam number="1">begin</beam>
                <lyric default-y="-80" number="1" name="verse">
                    <syllabic>begin</syllabic>
                    <text>elk</text>
                </lyric>
            </note>
            <note>
                <pitch>
                    <step>F</step>
                    <alter>1</alter>
                    <octave>4</octave>
                </pitch>
                <duration>384</duration>
                <voice>1</voice>
                <type>eighth</type>
                <stem>up</stem>
                <beam number="1">end</beam>
                <lyric default-y="-80" number="1" name="verse">
                    <syllabic>end</syllabic>
                    <text>ke</text>
                </lyric>
            </note>
        </measure>
        <measure number="34">
            <harmony relative-x="7" default-y="25" print-frame="no">
                <root>
                    <root-step>D</root-step>
                </root>
                <kind text="">major</kind>
                <bass>
                    <bass-step>F</bass-step>
                    <bass-alter>1</bass-alter>
                </bass>
            </harmony>
            <note>
                <pitch>
                    <step>D</step>
                    <octave>4</octave>
                </pitch>
                <duration>1152</duration>
                <voice>1</voice>
                <type>quarter</type>
                <dot/>
                <stem>up</stem>
                <lyric default-y="-80" number="1" name="verse">
                    <syllabic>single</syllabic>
                    <text>nag</text>
                </lyric>
            </note>
            <note>
                <pitch>
                    <step>E</step>
                    <octave>4</octave>
                </pitch>
                <duration>384</duration>
                <voice>1</voice>
                <type>eighth</type>
                <stem>up</stem>
                <lyric default-y="-80" number="1" name="verse">
                    <syllabic>single</syllabic>
                    <text>or</text>
                </lyric>
            </note>
            <note>
                <pitch>
                    <step>D</step>
                    <octave>4</octave>
                </pitch>
                <duration>384</duration>
                <voice>1</voice>
                <type>eighth</type>
                <stem>up</stem>
                <beam number="1">begin</beam>
                <lyric default-y="-80" number="1" name="verse">
                    <syllabic>single</syllabic>
                    <text>swart</text>
                </lyric>
            </note>
            <note>
                <pitch>
                    <step>C</step>
                    <octave>4</octave>
                </pitch>
                <duration>384</duration>
                <voice>1</voice>
                <type>eighth</type>
                <stem>up</stem>
                <beam number="1">end</beam>
                <lyric default-y="-80" number="1" name="verse">
                    <syllabic>begin</syllabic>
                    <text>ri</text>
                </lyric>
            </note>
        </measure>
        <measure number="35">
            <harmony relative-x="7" default-y="25" print-frame="no">
                <root>
                    <root-step>G</root-step>
                </root>
                <kind text="">major</kind>
            </harmony>
            <note>
                <pitch>
                    <step>C</step>
                    <octave>4</octave>
                </pitch>
                <duration>768</duration>
                <voice>1</voice>
                <type>quarter</type>
                <stem>up</stem>
                <lyric default-y="-80" number="1" name="verse">
                    <syllabic>middle</syllabic>
                    <text>vie</text>
                </lyric>
            </note>
            <note>
                <pitch>
                    <step>B</step>
                    <octave>3</octave>
                </pitch>
                <duration>1536</duration>
                <voice>1</voice>
                <type>half</type>
                <stem>up</stem>
                <lyric default-y="-80" number="1" name="verse">
                    <syllabic>end</syllabic>
                    <text>re.</text>
                </lyric>
            </note>
        </measure>
        <measure number="36">
            <harmony relative-x="7" default-y="25" print-frame="no">
                <root>
                    <root-step>G</root-step>
                </root>
                <kind text="">major</kind>
            </harmony>
            <note>
                <rest/>
                <duration>2304</duration>
                <voice>1</voice>
            </note>
        </measure>
        <measure number="37">
            <harmony relative-x="7" default-y="25" print-frame="no">
                <root>
                    <root-step>D</root-step>
                </root>
                <kind text="">major</kind>
            </harmony>
            <note>
                <pitch>
                    <step>F</step>
                    <alter>1</alter>
                    <octave>4</octave>
                </pitch>
                <duration>1536</duration>
                <voice>1</voice>
                <type>half</type>
                <stem>up</stem>
                <lyric default-y="-80" number="1" name="verse">
                    <syllabic>single</syllabic>
                    <text>kyk</text>
                </lyric>
            </note>
            <note>
                <pitch>
                    <step>F</step>
                    <alter>1</alter>
                    <octave>4</octave>
                </pitch>
                <duration>768</duration>
                <voice>1</voice>
                <type>quarter</type>
                <stem>up</stem>
                <lyric default-y="-80" number="1" name="verse">
                    <syllabic>single</syllabic>
                    <text>nie</text>
                </lyric>
            </note>
        </measure>
        <measure number="38">
            <harmony relative-x="7" default-y="25" print-frame="no">
                <root>
                    <root-step>A</root-step>
                </root>
                <kind text="">major</kind>
            </harmony>
            <note>
                <pitch>
                    <step>E</step>
                    <octave>4</octave>
                </pitch>
                <duration>1536</duration>
                <voice>1</voice>
                <type>half</type>
                <stem>up</stem>
                <lyric default-y="-80" number="1" name="verse">
                    <syllabic>begin</syllabic>
                    <text>een</text>
                </lyric>
            </note>
            <note>
                <pitch>
                    <step>E</step>
                    <octave>4</octave>
                </pitch>
                <duration>768</duration>
                <voice>1</voice>
                <type>quarter</type>
                <stem>up</stem>
                <lyric default-y="-80" number="1" name="verse">
                    <syllabic>end</syllabic>
                    <text>maal</text>
                </lyric>
            </note>
        </measure>
        <measure number="39">
            <harmony relative-x="7" default-y="25" print-frame="no">
                <root>
                    <root-step>D</root-step>
                </root>
                <kind text="">major</kind>
            </harmony>
            <note>
                <pitch>
                    <step>D</step>
                    <octave>4</octave>
                </pitch>
                <duration>2304</duration>
                <voice>1</voice>
                <type>half</type>
                <dot/>
                <stem>up</stem>
                <lyric default-y="-80" number="1" name="verse">
                    <syllabic>single</syllabic>
                    <text>om.</text>
                </lyric>
            </note>
        </measure>
        <measure number="40">
            <print new-system="yes"/>
            <harmony relative-x="7" default-y="25" print-frame="no">
                <root>
                    <root-step>A</root-step>
                </root>
                <kind text="">major</kind>
            </harmony>
            <note>
                <rest/>
                <duration>2304</duration>
                <voice>1</voice>
            </note>
        </measure>
        <measure number="41">
            <harmony relative-x="7" default-y="25" print-frame="no">
                <root>
                    <root-step>D</root-step>
                </root>
                <kind text="">major</kind>
            </harmony>
            <note>
                <pitch>
                    <step>A</step>
                    <octave>4</octave>
                </pitch>
                <duration>1152</duration>
                <voice>1</voice>
                <type>quarter</type>
                <dot/>
                <stem>up</stem>
                <lyric default-y="-80" number="1" name="verse">
                    <syllabic>single</syllabic>
                    <text>Dalk</text>
                </lyric>
            </note>
            <note>
                <pitch>
                    <step>B</step>
                    <octave>4</octave>
                </pitch>
                <duration>384</duration>
                <voice>1</voice>
                <type>eighth</type>
                <stem>down</stem>
                <lyric default-y="-80" number="1" name="verse">
                    <syllabic>single</syllabic>
                    <text>vind</text>
                </lyric>
            </note>
            <note>
                <pitch>
                    <step>A</step>
                    <octave>4</octave>
                </pitch>
                <duration>384</duration>
                <voice>1</voice>
                <type>eighth</type>
                <stem>up</stem>
                <beam number="1">begin</beam>
                <lyric default-y="-80" number="1" name="verse">
                    <syllabic>single</syllabic>
                    <text>jy</text>
                </lyric>
            </note>
            <note>
                <pitch>
                    <step>F</step>
                    <alter>1</alter>
                    <octave>4</octave>
                </pitch>
                <duration>384</duration>
                <voice>1</voice>
                <type>eighth</type>
                <stem>up</stem>
                <beam number="1">end</beam>
                <lyric default-y="-80" number="1" name="verse">
                    <syllabic>single</syllabic>
                    <text>die</text>
                </lyric>
            </note>
        </measure>
        <measure number="42">
            <harmony relative-x="7" default-y="25" print-frame="no">
                <root>
                    <root-step>D</root-step>
                </root>
                <kind text="">major</kind>
                <bass>
                    <bass-step>G</bass-step>
                </bass>
            </harmony>
            <note>
                <pitch>
                    <step>D</step>
                    <octave>4</octave>
                </pitch>
                <duration>1152</duration>
                <voice>1</voice>
                <type>quarter</type>
                <dot/>
                <stem>up</stem>
                <lyric default-y="-80" number="1" name="verse">
                    <syllabic>single</syllabic>
                    <text>land</text>
                </lyric>
            </note>
            <note>
                <pitch>
                    <step>E</step>
                    <octave>4</octave>
                </pitch>
                <duration>384</duration>
                <voice>1</voice>
                <type>eighth</type>
                <stem>up</stem>
                <lyric default-y="-80" number="1" name="verse">
                    <syllabic>single</syllabic>
                    <text>van</text>
                </lyric>
            </note>
            <note>
                <pitch>
                    <step>D</step>
                    <octave>4</octave>
                </pitch>
                <duration>384</duration>
                <voice>1</voice>
                <type>eighth</type>
                <stem>up</stem>
                <beam number="1">begin</beam>
                <lyric default-y="-80" number="1" name="verse">
                    <syllabic>single</syllabic>
                    <text>blou</text>
                </lyric>
            </note>
            <note>
                <pitch>
                    <step>C</step>
                    <octave>4</octave>
                </pitch>
                <duration>384</duration>
                <voice>1</voice>
                <type>eighth</type>
                <stem>up</stem>
                <beam number="1">end</beam>
                <lyric default-y="-80" number="1" name="verse">
                    <syllabic>begin</syllabic>
                    <text>saf</text>
                </lyric>
            </note>
        </measure>
        <measure number="43">
            <harmony relative-x="7" default-y="25" print-frame="no">
                <root>
                    <root-step>G</root-step>
                </root>
                <kind text="">major</kind>
                <bass>
                    <bass-step>B</bass-step>
                </bass>
            </harmony>
            <note>
                <pitch>
                    <step>C</step>
                    <octave>4</octave>
                </pitch>
                <duration>768</duration>
                <voice>1</voice>
                <type>quarter</type>
                <stem>up</stem>
                <lyric default-y="-80" number="1" name="verse">
                    <syllabic>middle</syllabic>
                    <text>fier</text>
                </lyric>
            </note>
            <note>
                <pitch>
                    <step>B</step>
                    <octave>3</octave>
                </pitch>
                <duration>1536</duration>
                <voice>1</voice>
                <type>half</type>
                <stem>up</stem>
                <lyric default-y="-80" number="1" name="verse">
                    <syllabic>end</syllabic>
                    <text>e</text>
                </lyric>
            </note>
        </measure>
        <measure number="44">
            <print new-system="yes"/>
            <harmony relative-x="7" default-y="25" print-frame="no">
                <root>
                    <root-step>G</root-step>
                </root>
                <kind text="">major</kind>
            </harmony>
            <note>
                <rest/>
                <duration>1536</duration>
                <voice>1</voice>
                <type>half</type>
            </note>
            <note>
                <rest/>
                <duration>384</duration>
                <voice>1</voice>
                <type>eighth</type>
            </note>
            <note>
                <pitch>
                    <step>A</step>
                    <octave>3</octave>
                </pitch>
                <duration>384</duration>
                <voice>1</voice>
                <type>eighth</type>
                <stem>up</stem>
                <lyric default-y="-80" number="1" name="verse">
                    <syllabic>single</syllabic>
                    <text>en</text>
                </lyric>
            </note>
        </measure>
        <measure number="45">
            <harmony relative-x="7" default-y="25" print-frame="no">
                <root>
                    <root-step>D</root-step>
                </root>
                <kind text="">major</kind>
                <bass>
                    <bass-step>A</bass-step>
                </bass>
            </harmony>
            <note>
                <pitch>
                    <step>F</step>
                    <alter>1</alter>
                    <octave>4</octave>
                </pitch>
                <duration>1536</duration>
                <voice>1</voice>
                <type>half</type>
                <stem>up</stem>
                <lyric default-y="-80" number="1" name="verse">
                    <syllabic>single</syllabic>
                    <text>dalk</text>
                </lyric>
            </note>
            <note>
                <pitch>
                    <step>F</step>
                    <alter>1</alter>
                    <octave>4</octave>
                </pitch>
                <duration>768</duration>
                <voice>1</voice>
                <type>quarter</type>
                <stem>up</stem>
                <lyric default-y="-80" number="1" name="verse">
                    <syllabic>single</syllabic>
                    <text>'n</text>
                </lyric>
            </note>
        </measure>
        <measure number="46">
            <note>
                <pitch>
                    <step>E</step>
                    <octave>4</octave>
                </pitch>
                <duration>384</duration>
                <voice>1</voice>
                <type>eighth</type>
                <stem>up</stem>
                <beam number="1">begin</beam>
                <lyric default-y="-80" number="1" name="verse">
                    <syllabic>begin</syllabic>
                    <text>brok</text>
                    <extend/>
                </lyric>
            </note>
            <harmony relative-x="7" default-y="25" print-frame="no">
                <root>
                    <root-step>A</root-step>
                </root>
                <kind text="7">dominant</kind>
            </harmony>
            <note>
                <pitch>
                    <step>E</step>
                    <octave>4</octave>
                </pitch>
                <duration>384</duration>
                <tie type="start"/>
                <voice>1</voice>
                <type>eighth</type>
                <stem>up</stem>
                <beam number="1">end</beam>
                <notations>
                    <tied type="start"/>
                </notations>
            </note>
            <note>
                <pitch>
                    <step>E</step>
                    <octave>4</octave>
                </pitch>
                <duration>1536</duration>
                <tie type="stop"/>
                <voice>1</voice>
                <type>half</type>
                <stem>up</stem>
                <notations>
                    <tied type="stop"/>
                </notations>
                <lyric default-y="-80" number="1" name="verse">
                    <syllabic>end</syllabic>
                    <text>kie</text>
                </lyric>
            </note>
        </measure>
        <measure number="47">
            <harmony relative-x="7" default-y="25" print-frame="no">
                <root>
                    <root-step>D</root-step>
                </root>
                <kind text="">major</kind>
            </harmony>
            <note>
                <pitch>
                    <step>D</step>
                    <octave>4</octave>
                </pitch>
                <duration>2304</duration>
                <voice>1</voice>
                <type>half</type>
                <dot/>
                <stem>up</stem>
                <lyric default-y="-80" number="1" name="verse">
                    <syllabic>single</syllabic>
                    <text>son.</text>
                </lyric>
            </note>
        </measure>
        <measure number="48">
            <note>
                <rest/>
                <duration>2304</duration>
                <voice>1</voice>
            </note>
            <barline location="right">
                <bar-style>light-heavy</bar-style>
            </barline>
        </measure>
    </part>
</score-partwise>
