<?xml version="1.0" encoding="UTF-8"?>
<!DOCTYPE score-partwise PUBLIC "-//Recordare//DTD MusicXML 2.0 Partwise//EN" "http://www.musicxml.org/dtds/partwise.dtd">
<score-partwise version="2.0">
    <work>
        <work-number></work-number>
        <work-title></work-title>
    </work>
    <movement-number></movement-number>
    <movement-title>Reën</movement-title>
    <identification>
        <creator type="composer">L Reed , B Mason</creator>
        <creator type="poet">A Viljoen</creator>
        <rights>All Rights Reserved</rights>
        <encoding>
            <software>Sibelius 7.1.3</software>
            <software>Dolet 6.2 for Sibelius</software>
            <encoding-date>2013-05-04</encoding-date>
            <supports type="no" element="accidental"/>
            <supports type="no" element="transpose"/>
            <supports value="yes" type="yes" element="print" attribute="new-page"/>
            <supports value="yes" type="yes" element="print" attribute="new-system"/>
            <software>ProxyMusic 2.0 c</software>
        </encoding>
        <source>http://wikifonia.org/node/14233/revisions/29292/view</source>
    </identification>
    <defaults>
        <scaling>
            <millimeters>7</millimeters>
            <tenths>40</tenths>
        </scaling>
        <page-layout>
            <page-height>1697</page-height>
            <page-width>1200</page-width>
            <page-margins type="both">
                <left-margin>85.7143</left-margin>
                <right-margin>85.7143</right-margin>
                <top-margin>85.7143</top-margin>
                <bottom-margin>85.7143</bottom-margin>
            </page-margins>
        </page-layout>
        <system-layout>
            <system-margins>
                <left-margin>22.1875</left-margin>
                <right-margin>0</right-margin>
            </system-margins>
            <system-distance>92.5</system-distance>
            <top-system-distance>72.8125</top-system-distance>
        </system-layout>
        <appearance>
            <line-width type="beam">5</line-width>
            <line-width type="heavy barline">5</line-width>
            <line-width type="leger">1.5625</line-width>
            <line-width type="light barline">1.5625</line-width>
            <line-width type="slur middle">2.1875</line-width>
            <line-width type="slur tip">0.625</line-width>
            <line-width type="staff">0.9375</line-width>
            <line-width type="stem">0.9375</line-width>
            <line-width type="tie middle">2.1875</line-width>
            <line-width type="tie tip">0.625</line-width>
            <note-size type="grace">60</note-size>
            <note-size type="cue">75</note-size>
        </appearance>
        <music-font font-family="Opus Std,music"/>
        <word-font font-family="Plantin MT Std"/>
    </defaults>
    <part-list>
        <score-part id="P1">
            <part-name print-object="no">[Unnamed (treble staff)]</part-name>
            <score-instrument id="P1-I1">
                <instrument-name></instrument-name>
            </score-instrument>
            <midi-instrument id="P1-I1">
                <volume>79</volume>
                <pan>0</pan>
            </midi-instrument>
        </score-part>
    </part-list>
    <part id="P1">
        <measure number="1">
            <print>
                <system-layout>
                    <system-margins>
                        <left-margin>22.1875</left-margin>
                        <right-margin>0</right-margin>
                    </system-margins>
                    <top-system-distance>217.8125</top-system-distance>
                </system-layout>
                <staff-layout/>
            </print>
            <attributes>
                <divisions>768</divisions>
                <key>
                    <fifths>-2</fifths>
                    <mode>major</mode>
                </key>
                <time>
                    <beats>3</beats>
                    <beat-type>4</beat-type>
                </time>
                <clef>
                    <sign>G</sign>
                    <line>2</line>
                </clef>
            </attributes>
            <note>
                <rest/>
                <duration>768</duration>
                <voice>1</voice>
                <type>quarter</type>
            </note>
            <note>
                <pitch>
                    <step>D</step>
                    <octave>5</octave>
                </pitch>
                <duration>768</duration>
                <voice>1</voice>
                <type>quarter</type>
                <stem>down</stem>
                <lyric default-y="-80" number="1" name="verse">
                    <syllabic>single</syllabic>
                    <text>Kyk</text>
                </lyric>
            </note>
            <note>
                <pitch>
                    <step>C</step>
                    <octave>5</octave>
                </pitch>
                <duration>768</duration>
                <voice>1</voice>
                <type>quarter</type>
                <stem>down</stem>
                <lyric default-y="-80" number="1" name="verse">
                    <syllabic>single</syllabic>
                    <text>hoe</text>
                </lyric>
            </note>
            <barline location="right">
                <bar-style>light-light</bar-style>
            </barline>
        </measure>
        <measure number="2">
            <barline location="left">
                <bar-style>heavy-light</bar-style>
                <repeat direction="forward"/>
            </barline>
            <harmony relative-x="8" default-y="25" print-frame="no">
                <root>
                    <root-step>B</root-step>
                    <root-alter>-1</root-alter>
                </root>
                <kind text="">major</kind>
            </harmony>
            <note>
                <pitch>
                    <step>B</step>
                    <alter>-1</alter>
                    <octave>4</octave>
                </pitch>
                <duration>768</duration>
                <voice>1</voice>
                <type>quarter</type>
                <stem>down</stem>
                <lyric default-y="-80" number="1" name="verse">
                    <syllabic>single</syllabic>
                    <text>sag</text>
                </lyric>
                <lyric default-y="-105" number="2" name="verse">
                    <syllabic>begin</syllabic>
                    <text>laat</text>
                </lyric>
            </note>
            <note>
                <pitch>
                    <step>D</step>
                    <octave>4</octave>
                </pitch>
                <duration>768</duration>
                <voice>1</voice>
                <type>quarter</type>
                <stem>up</stem>
                <lyric default-y="-80" number="1" name="verse">
                    <syllabic>single</syllabic>
                    <text>val</text>
                </lyric>
                <lyric default-y="-105" number="2" name="verse">
                    <syllabic>middle</syllabic>
                    <text>mid</text>
                </lyric>
            </note>
            <note>
                <pitch>
                    <step>E</step>
                    <alter>-1</alter>
                    <octave>4</octave>
                </pitch>
                <duration>768</duration>
                <voice>1</voice>
                <type>quarter</type>
                <stem>up</stem>
                <lyric default-y="-80" number="1" name="verse">
                    <syllabic>single</syllabic>
                    <text>die</text>
                </lyric>
                <lyric default-y="-105" number="2" name="verse">
                    <syllabic>middle</syllabic>
                    <text>dag</text>
                </lyric>
            </note>
        </measure>
        <measure number="3">
            <note>
                <pitch>
                    <step>F</step>
                    <octave>4</octave>
                </pitch>
                <duration>2304</duration>
                <tie type="start"/>
                <voice>1</voice>
                <type>half</type>
                <dot/>
                <stem>up</stem>
                <notations>
                    <tied type="start"/>
                </notations>
                <lyric default-y="-80" number="1" name="verse">
                    <syllabic>single</syllabic>
                    <text>reën</text>
                </lyric>
                <lyric default-y="-105" number="2" name="verse">
                    <syllabic>end</syllabic>
                    <text>reën</text>
                </lyric>
            </note>
        </measure>
        <measure number="4">
            <note>
                <pitch>
                    <step>F</step>
                    <octave>4</octave>
                </pitch>
                <duration>768</duration>
                <tie type="stop"/>
                <voice>1</voice>
                <type>quarter</type>
                <stem>up</stem>
                <notations>
                    <tied type="stop"/>
                </notations>
            </note>
            <note>
                <pitch>
                    <step>D</step>
                    <octave>4</octave>
                </pitch>
                <duration>768</duration>
                <voice>1</voice>
                <type>quarter</type>
                <stem>up</stem>
                <lyric default-y="-80" number="1" name="verse">
                    <syllabic>single</syllabic>
                    <text>in</text>
                </lyric>
                <lyric default-y="-105" number="2" name="verse">
                    <syllabic>single</syllabic>
                    <text>blink</text>
                </lyric>
            </note>
            <note>
                <pitch>
                    <step>E</step>
                    <alter>-1</alter>
                    <octave>4</octave>
                </pitch>
                <duration>768</duration>
                <voice>1</voice>
                <type>quarter</type>
                <stem>up</stem>
                <lyric default-y="-80" number="1" name="verse">
                    <syllabic>single</syllabic>
                    <text>die</text>
                </lyric>
                <lyric default-y="-105" number="2" name="verse">
                    <syllabic>single</syllabic>
                    <text>die</text>
                </lyric>
            </note>
        </measure>
        <measure number="5">
            <note>
                <pitch>
                    <step>F</step>
                    <octave>4</octave>
                </pitch>
                <duration>768</duration>
                <voice>1</voice>
                <type>quarter</type>
                <stem>up</stem>
                <lyric default-y="-80" number="1" name="verse">
                    <syllabic>begin</syllabic>
                    <text>boom</text>
                </lyric>
                <lyric default-y="-105" number="2" name="verse">
                    <syllabic>single</syllabic>
                    <text>nat</text>
                </lyric>
            </note>
            <note>
                <pitch>
                    <step>B</step>
                    <alter>-1</alter>
                    <octave>4</octave>
                </pitch>
                <duration>1152</duration>
                <voice>1</voice>
                <type>quarter</type>
                <dot/>
                <stem>down</stem>
                <lyric default-y="-80" number="1" name="verse">
                    <syllabic>middle</syllabic>
                    <text>ry</text>
                </lyric>
                <lyric default-y="-105" number="2" name="verse">
                    <syllabic>begin</syllabic>
                    <text>ei</text>
                </lyric>
            </note>
            <note>
                <pitch>
                    <step>A</step>
                    <octave>4</octave>
                </pitch>
                <duration>384</duration>
                <voice>1</voice>
                <type>eighth</type>
                <stem>up</stem>
                <lyric default-y="-80" number="1" name="verse">
                    <syllabic>end</syllabic>
                    <text>ke</text>
                </lyric>
                <lyric default-y="-105" number="2" name="verse">
                    <syllabic>end</syllabic>
                    <text>ke</text>
                </lyric>
            </note>
        </measure>
        <measure number="6">
            <harmony relative-x="8" default-y="25" print-frame="no">
                <root>
                    <root-step>E</root-step>
                    <root-alter>-1</root-alter>
                </root>
                <kind text="">major</kind>
            </harmony>
            <note>
                <pitch>
                    <step>A</step>
                    <octave>4</octave>
                </pitch>
                <duration>768</duration>
                <voice>1</voice>
                <type>quarter</type>
                <stem>up</stem>
                <lyric default-y="-80" number="1" name="verse">
                    <syllabic>begin</syllabic>
                    <text>la</text>
                </lyric>
                <lyric default-y="-105" number="2" name="verse">
                    <syllabic>begin</syllabic>
                    <text>bla</text>
                </lyric>
            </note>
            <note>
                <pitch>
                    <step>G</step>
                    <octave>4</octave>
                </pitch>
                <duration>1536</duration>
                <tie type="start"/>
                <voice>1</voice>
                <type>half</type>
                <stem>up</stem>
                <notations>
                    <tied type="start"/>
                </notations>
                <lyric default-y="-80" number="1" name="verse">
                    <syllabic>end</syllabic>
                    <text>ning</text>
                </lyric>
                <lyric default-y="-105" number="2" name="verse">
                    <syllabic>end</syllabic>
                    <text>re.</text>
                </lyric>
            </note>
        </measure>
        <measure number="7">
            <note>
                <pitch>
                    <step>G</step>
                    <octave>4</octave>
                </pitch>
                <duration>2304</duration>
                <tie type="stop"/>
                <tie type="start"/>
                <voice>1</voice>
                <type>half</type>
                <dot/>
                <stem>up</stem>
                <notations>
                    <tied type="stop"/>
                    <tied type="start"/>
                </notations>
            </note>
        </measure>
        <measure number="8">
            <note>
                <pitch>
                    <step>G</step>
                    <octave>4</octave>
                </pitch>
                <duration>2304</duration>
                <tie type="stop"/>
                <voice>1</voice>
                <type>half</type>
                <dot/>
                <stem>up</stem>
                <notations>
                    <tied type="stop"/>
                </notations>
            </note>
        </measure>
        <measure number="9">
            <print new-system="yes"/>
            <note>
                <rest/>
                <duration>768</duration>
                <voice>1</voice>
                <type>quarter</type>
            </note>
            <note>
                <pitch>
                    <step>C</step>
                    <octave>5</octave>
                </pitch>
                <duration>768</duration>
                <voice>1</voice>
                <type>quarter</type>
                <stem>down</stem>
                <lyric default-y="-80" number="1" name="verse">
                    <syllabic>single</syllabic>
                    <text>waar</text>
                </lyric>
                <lyric default-y="-105" number="2" name="verse">
                    <syllabic>single</syllabic>
                    <text>Hier</text>
                </lyric>
            </note>
            <note>
                <pitch>
                    <step>B</step>
                    <alter>-1</alter>
                    <octave>4</octave>
                </pitch>
                <duration>768</duration>
                <voice>1</voice>
                <type>quarter</type>
                <stem>down</stem>
                <lyric default-y="-80" number="1" name="verse">
                    <syllabic>single</syllabic>
                    <text>ek</text>
                </lyric>
                <lyric default-y="-105" number="2" name="verse">
                    <syllabic>single</syllabic>
                    <text>is</text>
                </lyric>
            </note>
        </measure>
        <measure number="10">
            <harmony relative-x="8" default-y="25" print-frame="no">
                <root>
                    <root-step>F</root-step>
                </root>
                <kind text="">major</kind>
            </harmony>
            <note>
                <pitch>
                    <step>A</step>
                    <octave>4</octave>
                </pitch>
                <duration>768</duration>
                <voice>1</voice>
                <type>quarter</type>
                <stem>up</stem>
                <lyric default-y="-80" number="1" name="verse">
                    <syllabic>single</syllabic>
                    <text>jou</text>
                </lyric>
                <lyric default-y="-105" number="2" name="verse">
                    <syllabic>single</syllabic>
                    <text>ons</text>
                </lyric>
            </note>
            <note>
                <pitch>
                    <step>C</step>
                    <octave>4</octave>
                </pitch>
                <duration>768</duration>
                <voice>1</voice>
                <type>quarter</type>
                <stem>up</stem>
                <lyric default-y="-80" number="1" name="verse">
                    <syllabic>begin</syllabic>
                    <text>al</text>
                </lyric>
                <lyric default-y="-105" number="2" name="verse">
                    <syllabic>single</syllabic>
                    <text>twee</text>
                </lyric>
            </note>
            <note>
                <pitch>
                    <step>D</step>
                    <octave>4</octave>
                </pitch>
                <duration>768</duration>
                <voice>1</voice>
                <type>quarter</type>
                <stem>up</stem>
                <lyric default-y="-80" number="1" name="verse">
                    <syllabic>end</syllabic>
                    <text>tyd</text>
                </lyric>
                <lyric default-y="-105" number="2" name="verse">
                    <syllabic>begin</syllabic>
                    <text>te</text>
                </lyric>
            </note>
        </measure>
        <measure number="11">
            <note>
                <pitch>
                    <step>E</step>
                    <alter>-1</alter>
                    <octave>4</octave>
                </pitch>
                <duration>2304</duration>
                <tie type="start"/>
                <voice>1</voice>
                <type>half</type>
                <dot/>
                <stem>up</stem>
                <notations>
                    <tied type="start"/>
                </notations>
                <lyric default-y="-80" number="1" name="verse">
                    <syllabic>single</syllabic>
                    <text>neem</text>
                </lyric>
                <lyric default-y="-105" number="2" name="verse">
                    <syllabic>end</syllabic>
                    <text>saam</text>
                </lyric>
            </note>
        </measure>
        <measure number="12">
            <note>
                <pitch>
                    <step>E</step>
                    <alter>-1</alter>
                    <octave>4</octave>
                </pitch>
                <duration>768</duration>
                <tie type="stop"/>
                <voice>1</voice>
                <type>quarter</type>
                <stem>up</stem>
                <notations>
                    <tied type="stop"/>
                </notations>
            </note>
            <note>
                <pitch>
                    <step>C</step>
                    <octave>4</octave>
                </pitch>
                <duration>768</duration>
                <voice>1</voice>
                <type>quarter</type>
                <stem>up</stem>
                <lyric default-y="-80" number="1" name="verse">
                    <syllabic>single</syllabic>
                    <text>in</text>
                </lyric>
                <lyric default-y="-105" number="2" name="verse">
                    <syllabic>single</syllabic>
                    <text>in</text>
                </lyric>
            </note>
            <note>
                <pitch>
                    <step>D</step>
                    <octave>4</octave>
                </pitch>
                <duration>768</duration>
                <voice>1</voice>
                <type>quarter</type>
                <stem>up</stem>
                <lyric default-y="-80" number="1" name="verse">
                    <syllabic>single</syllabic>
                    <text>ons</text>
                </lyric>
                <lyric default-y="-105" number="2" name="verse">
                    <syllabic>single</syllabic>
                    <text>die</text>
                </lyric>
            </note>
        </measure>
        <measure number="13">
            <note>
                <pitch>
                    <step>E</step>
                    <alter>-1</alter>
                    <octave>4</octave>
                </pitch>
                <duration>768</duration>
                <voice>1</voice>
                <type>quarter</type>
                <stem>up</stem>
                <lyric default-y="-80" number="1" name="verse">
                    <syllabic>begin</syllabic>
                    <text>vreug</text>
                </lyric>
                <lyric default-y="-105" number="2" name="verse">
                    <syllabic>single</syllabic>
                    <text>fleur</text>
                </lyric>
            </note>
            <note>
                <pitch>
                    <step>A</step>
                    <octave>4</octave>
                </pitch>
                <duration>1152</duration>
                <voice>1</voice>
                <type>quarter</type>
                <dot/>
                <stem>up</stem>
                <lyric default-y="-80" number="1" name="verse">
                    <syllabic>end</syllabic>
                    <text>-de</text>
                </lyric>
                <lyric default-y="-105" number="2" name="verse">
                    <syllabic>single</syllabic>
                    <text>van</text>
                </lyric>
            </note>
            <note>
                <pitch>
                    <step>G</step>
                    <octave>4</octave>
                </pitch>
                <duration>384</duration>
                <voice>1</voice>
                <type>eighth</type>
                <stem>up</stem>
                <lyric default-y="-80" number="1" name="verse">
                    <syllabic>single</syllabic>
                    <text>en</text>
                </lyric>
                <lyric default-y="-105" number="2" name="verse">
                    <syllabic>single</syllabic>
                    <text>ons</text>
                </lyric>
            </note>
        </measure>
        <measure number="14">
            <harmony relative-x="8" default-y="25" print-frame="no">
                <root>
                    <root-step>B</root-step>
                    <root-alter>-1</root-alter>
                </root>
                <kind text="">major</kind>
            </harmony>
            <note>
                <pitch>
                    <step>F</step>
                    <octave>4</octave>
                </pitch>
                <duration>2304</duration>
                <voice>1</voice>
                <type>half</type>
                <dot/>
                <stem>up</stem>
                <lyric default-y="-80" number="1" name="verse">
                    <syllabic>begin</syllabic>
                    <text>tra</text>
                </lyric>
                <lyric default-y="-105" number="2" name="verse">
                    <syllabic>begin</syllabic>
                    <text>ja</text>
                </lyric>
            </note>
        </measure>
        <measure number="15">
            <note>
                <pitch>
                    <step>D</step>
                    <octave>4</octave>
                </pitch>
                <duration>2304</duration>
                <voice>1</voice>
                <type>half</type>
                <dot/>
                <stem>up</stem>
                <lyric default-y="-80" number="1" name="verse">
                    <syllabic>end</syllabic>
                    <text>ne.</text>
                </lyric>
                <lyric default-y="-105" number="2" name="verse">
                    <syllabic>end</syllabic>
                    <text>re.</text>
                </lyric>
            </note>
        </measure>
        <measure number="16">
            <harmony relative-x="-10" default-y="25" print-frame="no">
                <root>
                    <root-step>E</root-step>
                    <root-alter>-1</root-alter>
                </root>
                <kind text="">major</kind>
                <offset>768</offset>
            </harmony>
            <note>
                <rest/>
                <duration>2304</duration>
                <voice>1</voice>
            </note>
        </measure>
        <measure number="17">
            <print new-system="yes"/>
            <harmony relative-x="8" default-y="25" print-frame="no">
                <root>
                    <root-step>F</root-step>
                </root>
                <kind text="">major</kind>
            </harmony>
            <note>
                <rest/>
                <duration>768</duration>
                <voice>1</voice>
                <type>quarter</type>
            </note>
            <note>
                <pitch>
                    <step>D</step>
                    <octave>5</octave>
                </pitch>
                <duration>768</duration>
                <voice>1</voice>
                <type>quarter</type>
                <stem>down</stem>
                <lyric default-y="-80" number="1" name="verse">
                    <syllabic>single</syllabic>
                    <text>In</text>
                </lyric>
                <lyric default-y="-105" number="2" name="verse">
                    <syllabic>single</syllabic>
                    <text>Sal</text>
                </lyric>
            </note>
            <note>
                <pitch>
                    <step>C</step>
                    <octave>5</octave>
                </pitch>
                <duration>768</duration>
                <voice>1</voice>
                <type>quarter</type>
                <stem>down</stem>
                <lyric default-y="-80" number="1" name="verse">
                    <syllabic>single</syllabic>
                    <text>my</text>
                </lyric>
                <lyric default-y="-105" number="2" name="verse">
                    <syllabic>single</syllabic>
                    <text>jy,</text>
                </lyric>
            </note>
        </measure>
        <measure number="18">
            <harmony relative-x="8" default-y="25" print-frame="no">
                <root>
                    <root-step>B</root-step>
                    <root-alter>-1</root-alter>
                </root>
                <kind text="">major</kind>
            </harmony>
            <note>
                <pitch>
                    <step>B</step>
                    <alter>-1</alter>
                    <octave>4</octave>
                </pitch>
                <duration>768</duration>
                <voice>1</voice>
                <type>quarter</type>
                <stem>down</stem>
                <lyric default-y="-80" number="1" name="verse">
                    <syllabic>single</syllabic>
                    <text>hart</text>
                </lyric>
                <lyric default-y="-105" number="2" name="verse">
                    <syllabic>begin</syllabic>
                    <text>lief</text>
                </lyric>
            </note>
            <note>
                <pitch>
                    <step>D</step>
                    <octave>4</octave>
                </pitch>
                <duration>768</duration>
                <voice>1</voice>
                <type>quarter</type>
                <stem>up</stem>
                <lyric default-y="-80" number="1" name="verse">
                    <syllabic>single</syllabic>
                    <text>val</text>
                </lyric>
                <lyric default-y="-105" number="2" name="verse">
                    <syllabic>end</syllabic>
                    <text>ling,</text>
                </lyric>
            </note>
            <note>
                <pitch>
                    <step>E</step>
                    <alter>-1</alter>
                    <octave>4</octave>
                </pitch>
                <duration>768</duration>
                <voice>1</voice>
                <type>quarter</type>
                <stem>up</stem>
                <lyric default-y="-80" number="1" name="verse">
                    <syllabic>single</syllabic>
                    <text>die</text>
                </lyric>
                <lyric default-y="-105" number="2" name="verse">
                    <syllabic>single</syllabic>
                    <text>my</text>
                </lyric>
            </note>
        </measure>
        <measure number="19">
            <note>
                <pitch>
                    <step>F</step>
                    <octave>4</octave>
                </pitch>
                <duration>2304</duration>
                <tie type="start"/>
                <voice>1</voice>
                <type>half</type>
                <dot/>
                <stem>up</stem>
                <notations>
                    <tied type="start"/>
                </notations>
                <lyric default-y="-80" number="1" name="verse">
                    <syllabic>single</syllabic>
                    <text>reën</text>
                </lyric>
                <lyric default-y="-105" number="2" name="verse">
                    <syllabic>single</syllabic>
                    <text>nou</text>
                </lyric>
            </note>
        </measure>
        <measure number="20">
            <note>
                <pitch>
                    <step>F</step>
                    <octave>4</octave>
                </pitch>
                <duration>768</duration>
                <tie type="stop"/>
                <voice>1</voice>
                <type>quarter</type>
                <stem>up</stem>
                <notations>
                    <tied type="stop"/>
                </notations>
            </note>
            <note>
                <pitch>
                    <step>D</step>
                    <octave>4</octave>
                </pitch>
                <duration>768</duration>
                <voice>1</voice>
                <type>quarter</type>
                <stem>up</stem>
                <lyric default-y="-80" number="1" name="verse">
                    <syllabic>single</syllabic>
                    <text>as</text>
                </lyric>
                <lyric default-y="-105" number="2" name="verse">
                    <syllabic>single</syllabic>
                    <text>al</text>
                </lyric>
            </note>
            <note>
                <pitch>
                    <step>E</step>
                    <alter>-1</alter>
                    <octave>4</octave>
                </pitch>
                <duration>768</duration>
                <voice>1</voice>
                <type>quarter</type>
                <stem>up</stem>
                <lyric default-y="-80" number="1" name="verse">
                    <syllabic>single</syllabic>
                    <text>jy</text>
                </lyric>
                <lyric default-y="-105" number="2" name="verse">
                    <syllabic>single</syllabic>
                    <text>jou</text>
                </lyric>
            </note>
        </measure>
        <measure number="21">
            <note>
                <pitch>
                    <step>F</step>
                    <octave>4</octave>
                </pitch>
                <duration>768</duration>
                <voice>1</voice>
                <type>quarter</type>
                <stem>up</stem>
                <lyric default-y="-80" number="1" name="verse">
                    <syllabic>begin</syllabic>
                    <text>som</text>
                </lyric>
                <lyric default-y="-105" number="2" name="verse">
                    <syllabic>begin</syllabic>
                    <text>lief</text>
                </lyric>
            </note>
            <note>
                <pitch>
                    <step>B</step>
                    <alter>-1</alter>
                    <octave>4</octave>
                </pitch>
                <duration>1152</duration>
                <voice>1</voice>
                <type>quarter</type>
                <dot/>
                <stem>down</stem>
                <lyric default-y="-80" number="1" name="verse">
                    <syllabic>end</syllabic>
                    <text>tyds</text>
                </lyric>
                <lyric default-y="-105" number="2" name="verse">
                    <syllabic>end</syllabic>
                    <text>de</text>
                </lyric>
            </note>
            <note>
                <pitch>
                    <step>A</step>
                    <octave>4</octave>
                </pitch>
                <duration>384</duration>
                <voice>1</voice>
                <type>eighth</type>
                <stem>up</stem>
                <lyric default-y="-80" number="1" name="verse">
                    <syllabic>single</syllabic>
                    <text>nog</text>
                </lyric>
                <lyric default-y="-105" number="2" name="verse">
                    <syllabic>begin</syllabic>
                    <text>be</text>
                </lyric>
            </note>
        </measure>
        <measure number="22">
            <harmony relative-x="8" default-y="25" print-frame="no">
                <root>
                    <root-step>E</root-step>
                    <root-alter>-1</root-alter>
                </root>
                <kind text="">major</kind>
            </harmony>
            <note>
                <pitch>
                    <step>A</step>
                    <octave>4</octave>
                </pitch>
                <duration>768</duration>
                <voice>1</voice>
                <type>quarter</type>
                <stem>up</stem>
                <lyric default-y="-80" number="1" name="verse">
                    <syllabic>begin</syllabic>
                    <text>twy</text>
                </lyric>
                <lyric default-y="-105" number="2" name="verse">
                    <syllabic>middle</syllabic>
                    <text>lo</text>
                </lyric>
            </note>
            <note>
                <pitch>
                    <step>G</step>
                    <octave>4</octave>
                </pitch>
                <duration>1536</duration>
                <tie type="start"/>
                <voice>1</voice>
                <type>half</type>
                <stem>up</stem>
                <notations>
                    <tied type="start"/>
                </notations>
                <lyric default-y="-80" number="1" name="verse">
                    <syllabic>end</syllabic>
                    <text>fel,</text>
                </lyric>
                <lyric default-y="-105" number="2" name="verse">
                    <syllabic>end</syllabic>
                    <text>we?</text>
                </lyric>
            </note>
        </measure>
        <measure number="23">
            <note>
                <pitch>
                    <step>G</step>
                    <octave>4</octave>
                </pitch>
                <duration>2304</duration>
                <tie type="stop"/>
                <tie type="start"/>
                <voice>1</voice>
                <type>half</type>
                <dot/>
                <stem>up</stem>
                <notations>
                    <tied type="stop"/>
                    <tied type="start"/>
                </notations>
            </note>
        </measure>
        <measure number="24">
            <note>
                <pitch>
                    <step>G</step>
                    <octave>4</octave>
                </pitch>
                <duration>2304</duration>
                <tie type="stop"/>
                <voice>1</voice>
                <type>half</type>
                <dot/>
                <stem>up</stem>
                <notations>
                    <tied type="stop"/>
                </notations>
            </note>
        </measure>
        <measure number="25">
            <print new-system="yes"/>
            <note>
                <rest/>
                <duration>768</duration>
                <voice>1</voice>
                <type>quarter</type>
            </note>
            <note>
                <pitch>
                    <step>C</step>
                    <octave>5</octave>
                </pitch>
                <duration>768</duration>
                <voice>1</voice>
                <type>quarter</type>
                <stem>down</stem>
                <lyric relative-x="-11" default-y="-80" number="1" name="verse">
                    <syllabic>single</syllabic>
                    <text>maar</text>
                </lyric>
                <lyric default-y="-105" number="2" name="verse">
                    <syllabic>single</syllabic>
                    <text>wil</text>
                </lyric>
            </note>
            <note>
                <pitch>
                    <step>B</step>
                    <alter>-1</alter>
                    <octave>4</octave>
                </pitch>
                <duration>768</duration>
                <voice>1</voice>
                <type>quarter</type>
                <stem>down</stem>
                <lyric relative-x="-1" default-y="-80" number="1" name="verse">
                    <syllabic>single</syllabic>
                    <text>my</text>
                </lyric>
                <lyric default-y="-105" number="2" name="verse">
                    <syllabic>single</syllabic>
                    <text>jy</text>
                </lyric>
            </note>
        </measure>
        <measure number="26">
            <harmony relative-x="8" default-y="25" print-frame="no">
                <root>
                    <root-step>F</root-step>
                </root>
                <kind text="">major</kind>
            </harmony>
            <note>
                <pitch>
                    <step>A</step>
                    <octave>4</octave>
                </pitch>
                <duration>768</duration>
                <voice>1</voice>
                <type>quarter</type>
                <stem>up</stem>
                <lyric default-y="-80" number="1" name="verse">
                    <syllabic>single</syllabic>
                    <text>hart</text>
                </lyric>
                <lyric default-y="-105" number="2" name="verse">
                    <syllabic>single</syllabic>
                    <text>graag</text>
                </lyric>
            </note>
            <note>
                <pitch>
                    <step>C</step>
                    <octave>4</octave>
                </pitch>
                <duration>768</duration>
                <voice>1</voice>
                <type>quarter</type>
                <stem>up</stem>
                <lyric default-y="-80" number="1" name="verse">
                    <syllabic>single</syllabic>
                    <text>word</text>
                </lyric>
                <lyric default-y="-105" number="2" name="verse">
                    <syllabic>single</syllabic>
                    <text>met</text>
                </lyric>
            </note>
            <note>
                <pitch>
                    <step>D</step>
                    <octave>4</octave>
                </pitch>
                <duration>768</duration>
                <voice>1</voice>
                <type>quarter</type>
                <stem>up</stem>
                <lyric default-y="-80" number="1" name="verse">
                    <syllabic>begin</syllabic>
                    <text>ge</text>
                </lyric>
                <lyric default-y="-105" number="2" name="verse">
                    <syllabic>single</syllabic>
                    <text>my</text>
                </lyric>
            </note>
        </measure>
        <measure number="27">
            <note>
                <pitch>
                    <step>E</step>
                    <alter>-1</alter>
                    <octave>4</octave>
                </pitch>
                <duration>2304</duration>
                <tie type="start"/>
                <voice>1</voice>
                <type>half</type>
                <dot/>
                <stem>up</stem>
                <notations>
                    <tied type="start"/>
                </notations>
                <lyric default-y="-80" number="1" name="verse">
                    <syllabic>end</syllabic>
                    <text>seën</text>
                </lyric>
                <lyric default-y="-105" number="2" name="verse">
                    <syllabic>single</syllabic>
                    <text>trou,</text>
                </lyric>
            </note>
        </measure>
        <measure number="28">
            <note>
                <pitch>
                    <step>E</step>
                    <alter>-1</alter>
                    <octave>4</octave>
                </pitch>
                <duration>768</duration>
                <tie type="stop"/>
                <voice>1</voice>
                <type>quarter</type>
                <stem>up</stem>
                <notations>
                    <tied type="stop"/>
                </notations>
            </note>
            <note>
                <pitch>
                    <step>C</step>
                    <octave>4</octave>
                </pitch>
                <duration>768</duration>
                <voice>1</voice>
                <type>quarter</type>
                <stem>up</stem>
                <lyric default-y="-80" number="1" name="verse">
                    <syllabic>single</syllabic>
                    <text>net</text>
                </lyric>
                <lyric default-y="-105" number="2" name="verse">
                    <syllabic>single</syllabic>
                    <text>dan</text>
                </lyric>
            </note>
            <note>
                <pitch>
                    <step>D</step>
                    <octave>4</octave>
                </pitch>
                <duration>768</duration>
                <voice>1</voice>
                <type>quarter</type>
                <stem>up</stem>
                <lyric default-y="-80" number="1" name="verse">
                    <syllabic>single</syllabic>
                    <text>met</text>
                </lyric>
                <lyric default-y="-105" number="2" name="verse">
                    <syllabic>single</syllabic>
                    <text>word</text>
                </lyric>
            </note>
        </measure>
        <measure number="29">
            <note>
                <pitch>
                    <step>E</step>
                    <alter>-1</alter>
                    <octave>4</octave>
                </pitch>
                <duration>768</duration>
                <voice>1</voice>
                <type>quarter</type>
                <stem>up</stem>
                <lyric default-y="-80" number="1" name="verse">
                    <syllabic>begin</syllabic>
                    <text>lief</text>
                </lyric>
                <lyric default-y="-105" number="2" name="verse">
                    <syllabic>single</syllabic>
                    <text>twee</text>
                </lyric>
            </note>
            <note>
                <pitch>
                    <step>G</step>
                    <octave>4</octave>
                </pitch>
                <duration>1152</duration>
                <voice>1</voice>
                <type>quarter</type>
                <dot/>
                <stem>up</stem>
                <lyric default-y="-80" number="1" name="verse">
                    <syllabic>middle</syllabic>
                    <text>-de</text>
                </lyric>
                <lyric default-y="-105" number="2" name="verse">
                    <syllabic>begin</syllabic>
                    <text>har</text>
                </lyric>
            </note>
            <note>
                <pitch>
                    <step>A</step>
                    <octave>4</octave>
                </pitch>
                <duration>384</duration>
                <voice>1</voice>
                <type>eighth</type>
                <stem>up</stem>
                <lyric default-y="-80" number="1" name="verse">
                    <syllabic>end</syllabic>
                    <text>vir</text>
                </lyric>
                <lyric default-y="-105" number="2" name="verse">
                    <syllabic>end</syllabic>
                    <text>te</text>
                </lyric>
            </note>
        </measure>
        <measure number="30">
            <harmony relative-x="3" default-y="25" print-frame="no">
                <root>
                    <root-step>B</root-step>
                    <root-alter>-1</root-alter>
                </root>
                <kind text="">major</kind>
            </harmony>
            <note>
                <pitch>
                    <step>B</step>
                    <alter>-1</alter>
                    <octave>4</octave>
                </pitch>
                <duration>2304</duration>
                <tie type="start"/>
                <voice>1</voice>
                <type>half</type>
                <dot/>
                <stem>down</stem>
                <notations>
                    <tied type="start"/>
                </notations>
                <lyric default-y="-80" number="1" name="verse">
                    <syllabic>single</syllabic>
                    <text>jou.</text>
                </lyric>
                <lyric default-y="-105" number="2" name="verse">
                    <syllabic>single</syllabic>
                    <text>een.</text>
                </lyric>
            </note>
        </measure>
        <measure number="31">
            <note>
                <pitch>
                    <step>B</step>
                    <alter>-1</alter>
                    <octave>4</octave>
                </pitch>
                <duration>2304</duration>
                <tie type="stop"/>
                <voice>1</voice>
                <type>half</type>
                <dot/>
                <stem>down</stem>
                <notations>
                    <tied type="stop"/>
                </notations>
            </note>
        </measure>
        <measure number="32">
            <harmony relative-x="8" default-y="25" print-frame="no">
                <root>
                    <root-step>F</root-step>
                </root>
                <kind text="">major</kind>
            </harmony>
            <note>
                <rest/>
                <duration>2304</duration>
                <voice>1</voice>
            </note>
        </measure>
        <measure number="33">
            <note>
                <rest/>
                <duration>2304</duration>
                <voice>1</voice>
            </note>
        </measure>
        <measure number="34">
            <print new-system="yes"/>
            <harmony relative-x="8" default-y="25" print-frame="no">
                <root>
                    <root-step>B</root-step>
                    <root-alter>-1</root-alter>
                </root>
                <kind text="">major</kind>
            </harmony>
            <note>
                <pitch>
                    <step>D</step>
                    <octave>5</octave>
                </pitch>
                <duration>2304</duration>
                <voice>1</voice>
                <type>half</type>
                <dot/>
                <stem>down</stem>
                <lyric default-y="-80" number="1" name="verse">
                    <syllabic>single</syllabic>
                    <text>Reën,</text>
                </lyric>
            </note>
        </measure>
        <measure number="35">
            <note>
                <pitch>
                    <step>D</step>
                    <octave>5</octave>
                </pitch>
                <duration>2304</duration>
                <voice>1</voice>
                <type>half</type>
                <dot/>
                <stem>down</stem>
                <lyric default-y="-80" number="1" name="verse">
                    <syllabic>single</syllabic>
                    <text>reën,</text>
                </lyric>
            </note>
        </measure>
        <measure number="36">
            <harmony relative-x="8" default-y="25" print-frame="no">
                <root>
                    <root-step>E</root-step>
                    <root-alter>-1</root-alter>
                </root>
                <kind text="">major</kind>
            </harmony>
            <note>
                <pitch>
                    <step>D</step>
                    <octave>5</octave>
                </pitch>
                <duration>768</duration>
                <voice>1</voice>
                <type>quarter</type>
                <stem>down</stem>
                <lyric default-y="-80" number="1" name="verse">
                    <syllabic>begin</syllabic>
                    <text>lief</text>
                </lyric>
            </note>
            <note>
                <pitch>
                    <step>C</step>
                    <octave>5</octave>
                </pitch>
                <duration>1152</duration>
                <voice>1</voice>
                <type>quarter</type>
                <dot/>
                <stem>down</stem>
                <lyric default-y="-80" number="1" name="verse">
                    <syllabic>middle</syllabic>
                    <text>li</text>
                </lyric>
            </note>
            <note>
                <pitch>
                    <step>B</step>
                    <octave>4</octave>
                </pitch>
                <duration>384</duration>
                <voice>1</voice>
                <type>eighth</type>
                <stem>down</stem>
                <lyric default-y="-80" number="1" name="verse">
                    <syllabic>end</syllabic>
                    <text>ke</text>
                </lyric>
            </note>
        </measure>
        <measure number="37">
            <harmony relative-x="8" default-y="25" print-frame="no">
                <root>
                    <root-step>C</root-step>
                </root>
                <kind text="m">minor</kind>
            </harmony>
            <note>
                <pitch>
                    <step>C</step>
                    <octave>5</octave>
                </pitch>
                <duration>2304</duration>
                <voice>1</voice>
                <type>half</type>
                <dot/>
                <stem>down</stem>
                <lyric default-y="-80" number="1" name="verse">
                    <syllabic>single</syllabic>
                    <text>reën,</text>
                </lyric>
            </note>
        </measure>
        <measure number="38">
            <harmony relative-x="8" default-y="25" print-frame="no">
                <root>
                    <root-step>F</root-step>
                </root>
                <kind text="">major</kind>
            </harmony>
            <note>
                <pitch>
                    <step>C</step>
                    <octave>5</octave>
                </pitch>
                <duration>768</duration>
                <voice>1</voice>
                <type>quarter</type>
                <stem>down</stem>
                <lyric default-y="-80" number="1" name="verse">
                    <syllabic>single</syllabic>
                    <text>val</text>
                </lyric>
            </note>
            <note>
                <pitch>
                    <step>F</step>
                    <octave>4</octave>
                </pitch>
                <duration>768</duration>
                <voice>1</voice>
                <type>quarter</type>
                <stem>up</stem>
                <lyric default-y="-80" number="1" name="verse">
                    <syllabic>single</syllabic>
                    <text>in</text>
                </lyric>
            </note>
            <note>
                <pitch>
                    <step>A</step>
                    <octave>4</octave>
                </pitch>
                <duration>768</duration>
                <voice>1</voice>
                <type>quarter</type>
                <stem>up</stem>
                <lyric default-y="-80" number="1" name="verse">
                    <syllabic>single</syllabic>
                    <text>die</text>
                </lyric>
            </note>
        </measure>
        <measure number="39">
            <note>
                <pitch>
                    <step>D</step>
                    <octave>5</octave>
                </pitch>
                <duration>1536</duration>
                <voice>1</voice>
                <type>half</type>
                <stem>down</stem>
                <lyric default-y="-80" number="1" name="verse">
                    <syllabic>begin</syllabic>
                    <text>la</text>
                </lyric>
            </note>
            <note>
                <pitch>
                    <step>C</step>
                    <octave>5</octave>
                </pitch>
                <duration>768</duration>
                <voice>1</voice>
                <type>quarter</type>
                <stem>down</stem>
                <lyric default-y="-80" number="1" name="verse">
                    <syllabic>end</syllabic>
                    <text>ning,</text>
                </lyric>
            </note>
        </measure>
        <measure number="40">
            <harmony relative-x="8" default-y="25" print-frame="no">
                <root>
                    <root-step>E</root-step>
                    <root-alter>-1</root-alter>
                </root>
                <kind text="">major</kind>
            </harmony>
            <note>
                <pitch>
                    <step>C</step>
                    <octave>5</octave>
                </pitch>
                <duration>768</duration>
                <voice>1</voice>
                <type>quarter</type>
                <stem>down</stem>
                <lyric default-y="-80" number="1" name="verse">
                    <syllabic>single</syllabic>
                    <text>val</text>
                </lyric>
            </note>
            <note>
                <pitch>
                    <step>B</step>
                    <alter>-1</alter>
                    <octave>4</octave>
                </pitch>
                <duration>768</duration>
                <voice>1</voice>
                <type>quarter</type>
                <stem>down</stem>
                <lyric default-y="-80" number="1" name="verse">
                    <syllabic>single</syllabic>
                    <text>om</text>
                </lyric>
            </note>
            <note>
                <pitch>
                    <step>G</step>
                    <octave>4</octave>
                </pitch>
                <duration>768</duration>
                <voice>1</voice>
                <type>quarter</type>
                <stem>up</stem>
                <lyric default-y="-80" number="1" name="verse">
                    <syllabic>single</syllabic>
                    <text>ons</text>
                </lyric>
            </note>
        </measure>
        <measure number="41">
            <harmony relative-x="8" default-y="25" print-frame="no">
                <root>
                    <root-step>B</root-step>
                    <root-alter>-1</root-alter>
                </root>
                <kind text="">major</kind>
            </harmony>
            <note>
                <pitch>
                    <step>F</step>
                    <octave>4</octave>
                </pitch>
                <duration>2304</duration>
                <voice>1</voice>
                <type>half</type>
                <dot/>
                <stem>up</stem>
                <lyric default-y="-80" number="1" name="verse">
                    <syllabic>single</syllabic>
                    <text>heen.</text>
                </lyric>
            </note>
        </measure>
        <measure number="42">
            <note>
                <pitch>
                    <step>D</step>
                    <octave>5</octave>
                </pitch>
                <duration>2304</duration>
                <voice>1</voice>
                <type>half</type>
                <dot/>
                <stem>down</stem>
                <lyric default-y="-80" number="1" name="verse">
                    <syllabic>single</syllabic>
                    <text>Reën,</text>
                </lyric>
            </note>
        </measure>
        <measure number="43">
            <print new-system="yes"/>
            <harmony relative-x="8" default-y="25" print-frame="no">
                <root>
                    <root-step>B</root-step>
                    <root-alter>-1</root-alter>
                </root>
                <kind text="m7">minor-seventh</kind>
            </harmony>
            <note>
                <pitch>
                    <step>F</step>
                    <octave>5</octave>
                </pitch>
                <duration>1536</duration>
                <voice>1</voice>
                <type>half</type>
                <stem>down</stem>
                <lyric default-y="-80" number="1" name="verse">
                    <syllabic>single</syllabic>
                    <text>reën,</text>
                </lyric>
            </note>
            <note>
                <pitch>
                    <step>F</step>
                    <octave>5</octave>
                </pitch>
                <duration>768</duration>
                <voice>1</voice>
                <type>quarter</type>
                <stem>down</stem>
                <lyric default-y="-80" number="1" name="verse">
                    <syllabic>single</syllabic>
                    <text>as</text>
                </lyric>
            </note>
        </measure>
        <measure number="44">
            <harmony relative-x="8" default-y="25" print-frame="no">
                <root>
                    <root-step>E</root-step>
                    <root-alter>-1</root-alter>
                </root>
                <kind text="">major</kind>
            </harmony>
            <note>
                <pitch>
                    <step>F</step>
                    <octave>5</octave>
                </pitch>
                <duration>768</duration>
                <voice>1</voice>
                <type>quarter</type>
                <stem>down</stem>
                <lyric default-y="-80" number="1" name="verse">
                    <syllabic>single</syllabic>
                    <text>wol</text>
                </lyric>
            </note>
            <note>
                <pitch>
                    <step>E</step>
                    <alter>-1</alter>
                    <octave>5</octave>
                </pitch>
                <duration>768</duration>
                <voice>1</voice>
                <type>quarter</type>
                <stem>down</stem>
                <lyric default-y="-80" number="1" name="verse">
                    <syllabic>single</syllabic>
                    <text>-ke</text>
                </lyric>
            </note>
            <note>
                <pitch>
                    <step>D</step>
                    <octave>5</octave>
                </pitch>
                <duration>768</duration>
                <voice>1</voice>
                <type>quarter</type>
                <stem>down</stem>
                <lyric default-y="-80" number="1" name="verse">
                    <syllabic>single</syllabic>
                    <text>kom</text>
                </lyric>
            </note>
        </measure>
        <measure number="45">
            <note>
                <pitch>
                    <step>E</step>
                    <alter>-1</alter>
                    <octave>5</octave>
                </pitch>
                <duration>1536</duration>
                <voice>1</voice>
                <type>half</type>
                <stem>down</stem>
                <lyric default-y="-80" number="1" name="verse">
                    <syllabic>single</syllabic>
                    <text>ween,</text>
                </lyric>
            </note>
            <note>
                <rest/>
                <duration>768</duration>
                <voice>1</voice>
                <type>quarter</type>
            </note>
        </measure>
        <measure number="46">
            <harmony relative-x="8" default-y="25" print-frame="no">
                <root>
                    <root-step>F</root-step>
                </root>
                <kind text="">major</kind>
            </harmony>
            <note>
                <pitch>
                    <step>C</step>
                    <octave>5</octave>
                </pitch>
                <duration>768</duration>
                <voice>1</voice>
                <type>quarter</type>
                <stem>down</stem>
                <lyric default-y="-80" number="1" name="verse">
                    <syllabic>begin</syllabic>
                    <text>ju</text>
                </lyric>
            </note>
            <note>
                <pitch>
                    <step>F</step>
                    <octave>4</octave>
                </pitch>
                <duration>768</duration>
                <voice>1</voice>
                <type>quarter</type>
                <stem>up</stem>
                <lyric default-y="-80" number="1" name="verse">
                    <syllabic>end</syllabic>
                    <text>bel</text>
                </lyric>
            </note>
            <note>
                <pitch>
                    <step>A</step>
                    <octave>4</octave>
                </pitch>
                <duration>768</duration>
                <voice>1</voice>
                <type>quarter</type>
                <stem>up</stem>
                <lyric default-y="-80" number="1" name="verse">
                    <syllabic>single</syllabic>
                    <text>my</text>
                </lyric>
            </note>
        </measure>
        <measure number="47">
            <note>
                <pitch>
                    <step>D</step>
                    <octave>5</octave>
                </pitch>
                <duration>1536</duration>
                <voice>1</voice>
                <type>half</type>
                <stem>down</stem>
                <lyric default-y="-80" number="1" name="verse">
                    <syllabic>single</syllabic>
                    <text>hart</text>
                </lyric>
            </note>
            <note>
                <pitch>
                    <step>C</step>
                    <octave>5</octave>
                </pitch>
                <duration>768</duration>
                <voice>1</voice>
                <type>quarter</type>
                <stem>down</stem>
                <lyric default-y="-80" number="1" name="verse">
                    <syllabic>single</syllabic>
                    <text>oor</text>
                </lyric>
            </note>
        </measure>
        <measure number="48">
            <harmony relative-x="8" default-y="25" print-frame="no">
                <root>
                    <root-step>B</root-step>
                    <root-alter>-1</root-alter>
                </root>
                <kind text="">major</kind>
            </harmony>
            <note>
                <pitch>
                    <step>B</step>
                    <alter>-1</alter>
                    <octave>4</octave>
                </pitch>
                <duration>2304</duration>
                <tie type="start"/>
                <voice>1</voice>
                <type>half</type>
                <dot/>
                <stem>down</stem>
                <notations>
                    <tied type="start"/>
                </notations>
                <lyric default-y="-80" number="1" name="verse">
                    <syllabic>single</syllabic>
                    <text>jou.</text>
                </lyric>
            </note>
        </measure>
        <measure number="49">
            <print new-system="yes"/>
            <note>
                <pitch>
                    <step>B</step>
                    <alter>-1</alter>
                    <octave>4</octave>
                </pitch>
                <duration>2304</duration>
                <tie type="stop"/>
                <voice>1</voice>
                <type>half</type>
                <dot/>
                <stem>down</stem>
                <notations>
                    <tied type="stop"/>
                </notations>
            </note>
        </measure>
        <measure number="50">
            <barline location="left">
                <ending type="start" number="1"></ending>
            </barline>
            <harmony relative-x="8" default-y="40" print-frame="no">
                <root>
                    <root-step>F</root-step>
                </root>
                <kind text="">major</kind>
            </harmony>
            <note>
                <rest/>
                <duration>2304</duration>
                <voice>1</voice>
            </note>
        </measure>
        <measure number="51">
            <note>
                <rest/>
                <duration>768</duration>
                <voice>1</voice>
                <type>quarter</type>
            </note>
            <note>
                <pitch>
                    <step>D</step>
                    <octave>5</octave>
                </pitch>
                <duration>768</duration>
                <voice>1</voice>
                <type>quarter</type>
                <stem>down</stem>
                <lyric default-y="-80" number="1" name="verse">
                    <syllabic>single</syllabic>
                    <text>in</text>
                </lyric>
            </note>
            <note>
                <pitch>
                    <step>C</step>
                    <octave>5</octave>
                </pitch>
                <duration>768</duration>
                <voice>1</voice>
                <type>quarter</type>
                <stem>down</stem>
                <lyric default-y="-80" number="1" name="verse">
                    <syllabic>single</syllabic>
                    <text>die</text>
                </lyric>
            </note>
            <barline location="right">
                <bar-style>light-heavy</bar-style>
                <ending type="stop" number="1"></ending>
                <repeat direction="backward"/>
            </barline>
        </measure>
        <measure number="52">
            <barline location="left">
                <ending type="start" number="2"></ending>
            </barline>
            <harmony relative-x="8" default-y="41" print-frame="no">
                <root>
                    <root-step>F</root-step>
                </root>
                <kind text="">major</kind>
            </harmony>
            <note>
                <pitch>
                    <step>C</step>
                    <octave>5</octave>
                </pitch>
                <duration>768</duration>
                <voice>1</voice>
                <type>quarter</type>
                <stem>down</stem>
                <lyric default-y="-80" number="1" name="verse">
                    <syllabic>begin</syllabic>
                    <text>ju</text>
                </lyric>
            </note>
            <note>
                <pitch>
                    <step>F</step>
                    <octave>4</octave>
                </pitch>
                <duration>768</duration>
                <voice>1</voice>
                <type>quarter</type>
                <stem>up</stem>
                <lyric default-y="-80" number="1" name="verse">
                    <syllabic>end</syllabic>
                    <text>bel</text>
                </lyric>
            </note>
            <note>
                <pitch>
                    <step>A</step>
                    <octave>4</octave>
                </pitch>
                <duration>768</duration>
                <voice>1</voice>
                <type>quarter</type>
                <stem>up</stem>
                <lyric default-y="-80" number="1" name="verse">
                    <syllabic>single</syllabic>
                    <text>my</text>
                </lyric>
            </note>
        </measure>
        <measure number="53">
            <note>
                <pitch>
                    <step>D</step>
                    <octave>5</octave>
                </pitch>
                <duration>1536</duration>
                <voice>1</voice>
                <type>half</type>
                <stem>down</stem>
                <lyric default-y="-80" number="1" name="verse">
                    <syllabic>single</syllabic>
                    <text>hart</text>
                </lyric>
            </note>
            <note>
                <pitch>
                    <step>C</step>
                    <octave>5</octave>
                </pitch>
                <duration>768</duration>
                <voice>1</voice>
                <type>quarter</type>
                <stem>down</stem>
                <lyric default-y="-80" number="1" name="verse">
                    <syllabic>single</syllabic>
                    <text>oor</text>
                </lyric>
            </note>
        </measure>
        <measure number="54">
            <harmony relative-x="8" default-y="34" print-frame="no">
                <root>
                    <root-step>B</root-step>
                    <root-alter>-1</root-alter>
                </root>
                <kind text="">major</kind>
            </harmony>
            <note>
                <pitch>
                    <step>B</step>
                    <alter>-1</alter>
                    <octave>4</octave>
                </pitch>
                <duration>2304</duration>
                <tie type="start"/>
                <voice>1</voice>
                <type>half</type>
                <dot/>
                <stem>down</stem>
                <notations>
                    <tied type="start"/>
                </notations>
                <lyric default-y="-80" number="1" name="verse">
                    <syllabic>single</syllabic>
                    <text>jou.</text>
                </lyric>
            </note>
        </measure>
        <measure number="55">
            <note>
                <pitch>
                    <step>B</step>
                    <alter>-1</alter>
                    <octave>4</octave>
                </pitch>
                <duration>2304</duration>
                <tie type="stop"/>
                <voice>1</voice>
                <type>half</type>
                <dot/>
                <stem>down</stem>
                <notations>
                    <tied type="stop"/>
                </notations>
            </note>
            <barline location="right">
                <bar-style>light-heavy</bar-style>
                <ending type="discontinue" number="2"></ending>
            </barline>
        </measure>
    </part>
</score-partwise>
