<?xml version="1.0" encoding="UTF-8"?>
<!DOCTYPE score-partwise PUBLIC "-//Recordare//DTD MusicXML 2.0 Partwise//EN" "http://www.musicxml.org/dtds/partwise.dtd">
<score-partwise version="2.0">
    <work>
        <work-number></work-number>
        <work-title></work-title>
    </work>
    <movement-number></movement-number>
    <movement-title>Itsi bitsi petit bikini</movement-title>
    <identification>
        <creator type="composer">Lee Pockriss, Paul J. Vance</creator>
        <creator type="poet">Dalida</creator>
        <rights>All Rights Reserved</rights>
        <encoding>
            <software>MuseScore 1.1</software>
            <encoding-date>2012-07-04</encoding-date>
            <software>ProxyMusic 2.0 c</software>
        </encoding>
        <source>http://wikifonia.org/node/16707/revisions/22187/view</source>
    </identification>
    <defaults>
        <scaling>
            <millimeters>7.05556</millimeters>
            <tenths>40</tenths>
        </scaling>
        <page-layout>
            <page-height>1683.78</page-height>
            <page-width>1190.55</page-width>
            <page-margins type="even">
                <left-margin>56.6929</left-margin>
                <right-margin>56.6929</right-margin>
                <top-margin>56.6929</top-margin>
                <bottom-margin>113.386</bottom-margin>
            </page-margins>
            <page-margins type="odd">
                <left-margin>56.6929</left-margin>
                <right-margin>56.6929</right-margin>
                <top-margin>56.6929</top-margin>
                <bottom-margin>113.386</bottom-margin>
            </page-margins>
        </page-layout>
    </defaults>
    <credit page="1">
        <credit-words font-size="24" default-y="1627.09" default-x="595.275" justify="center" valign="top">Itsi bitsi petit bikini</credit-words>
    </credit>
    <credit page="1">
        <credit-words font-size="12" default-y="1557.09" default-x="1133.86" justify="right" valign="top">Paul J. Vance, Lee Pockriss</credit-words>
    </credit>
    <credit page="1">
        <credit-words font-size="12" default-y="1557.09" default-x="56.6929" justify="left" valign="top">paroles françaises par Dalida</credit-words>
    </credit>
    <credit page="1">
        <credit-words font-size="8" default-y="113.386" default-x="595.275" justify="center" valign="bottom">George Pincus &amp; Sons Music Corp., New York, 1960, 1963</credit-words>
    </credit>
    <part-list>
        <score-part id="P1">
            <part-name>Voice</part-name>
            <part-abbreviation>Vo.</part-abbreviation>
            <score-instrument id="P1-I3">
                <instrument-name>Voice</instrument-name>
            </score-instrument>
            <midi-instrument id="P1-I3">
                <midi-channel>1</midi-channel>
                <midi-program>53</midi-program>
            </midi-instrument>
        </score-part>
    </part-list>
    <part id="P1">
        <measure width="288.10" number="0" implicit="yes">
            <print>
                <system-layout>
                    <system-margins>
                        <left-margin>69.16</left-margin>
                        <right-margin>-0.00</right-margin>
                    </system-margins>
                    <top-system-distance>180.00</top-system-distance>
                </system-layout>
            </print>
            <attributes>
                <divisions>2</divisions>
                <key>
                    <fifths>0</fifths>
                    <mode>major</mode>
                </key>
                <time symbol="cut">
                    <beats>2</beats>
                    <beat-type>2</beat-type>
                </time>
                <clef>
                    <sign>G</sign>
                    <line>2</line>
                </clef>
            </attributes>
            <direction placement="above">
                <direction-type>
                    <words>tempo moderato de cha-cha</words>
                </direction-type>
            </direction>
            <note default-y="-40.00" default-x="108.45">
                <pitch>
                    <step>E</step>
                    <octave>4</octave>
                </pitch>
                <duration>1</duration>
                <voice>1</voice>
                <type>eighth</type>
                <stem>up</stem>
                <beam number="1">begin</beam>
                <lyric number="1">
                    <syllabic>single</syllabic>
                    <text>1.  Sur</text>
                </lyric>
                <lyric number="2">
                    <syllabic>single</syllabic>
                    <text>2.  Elle</text>
                </lyric>
                <lyric number="3">
                    <syllabic>single</syllabic>
                    <text>3.  Elle</text>
                </lyric>
            </note>
            <note default-y="-40.00" default-x="164.32">
                <pitch>
                    <step>E</step>
                    <octave>4</octave>
                </pitch>
                <duration>1</duration>
                <voice>1</voice>
                <type>eighth</type>
                <stem>up</stem>
                <beam number="1">continue</beam>
                <lyric number="1">
                    <syllabic>begin</syllabic>
                    <text>u</text>
                </lyric>
                <lyric number="2">
                    <syllabic>single</syllabic>
                    <text>ne</text>
                </lyric>
                <lyric number="3">
                    <syllabic>single</syllabic>
                    <text>doit</text>
                </lyric>
            </note>
            <note default-y="-35.00" default-x="218.66">
                <pitch>
                    <step>F</step>
                    <octave>4</octave>
                </pitch>
                <duration>1</duration>
                <voice>1</voice>
                <type>eighth</type>
                <stem>up</stem>
                <beam number="1">end</beam>
                <lyric number="1">
                    <syllabic>end</syllabic>
                    <text>ne</text>
                </lyric>
                <lyric number="2">
                    <syllabic>begin</syllabic>
                    <text>songe</text>
                </lyric>
                <lyric number="3">
                    <syllabic>single</syllabic>
                    <text>maint'</text>
                </lyric>
            </note>
        </measure>
        <measure width="370.26" number="1">
            <barline location="left">
                <bar-style>heavy-light</bar-style>
                <repeat direction="forward"/>
            </barline>
            <harmony print-frame="no">
                <root>
                    <root-step>C</root-step>
                </root>
                <kind text="">major</kind>
            </harmony>
            <note default-y="-30.00" default-x="29.07">
                <pitch>
                    <step>G</step>
                    <octave>4</octave>
                </pitch>
                <duration>2</duration>
                <voice>1</voice>
                <type>quarter</type>
                <stem>up</stem>
                <lyric number="1">
                    <syllabic>single</syllabic>
                    <text>plage</text>
                </lyric>
                <lyric number="2">
                    <syllabic>end</syllabic>
                    <text>ait</text>
                </lyric>
                <lyric number="3">
                    <syllabic>single</syllabic>
                    <text>nent</text>
                </lyric>
            </note>
            <note default-y="-40.00" default-x="104.47">
                <pitch>
                    <step>E</step>
                    <octave>4</octave>
                </pitch>
                <duration>1</duration>
                <voice>1</voice>
                <type>eighth</type>
                <stem>up</stem>
                <beam number="1">begin</beam>
                <lyric number="1">
                    <syllabic>begin</syllabic>
                    <text>il</text>
                </lyric>
                <lyric number="2">
                    <syllabic>single</syllabic>
                    <text>qu'à</text>
                </lyric>
                <lyric number="3">
                    <syllabic>begin</syllabic>
                    <text>s'é</text>
                </lyric>
            </note>
            <note default-y="-35.00" default-x="151.59">
                <pitch>
                    <step>F</step>
                    <octave>4</octave>
                </pitch>
                <duration>1</duration>
                <voice>1</voice>
                <type>eighth</type>
                <stem>up</stem>
                <beam number="1">end</beam>
                <lyric number="1">
                    <syllabic>middle</syllabic>
                    <text>y'a</text>
                </lyric>
                <lyric number="2">
                    <syllabic>begin</syllabic>
                    <text>quit</text>
                </lyric>
                <lyric number="3">
                    <syllabic>middle</syllabic>
                    <text>lan</text>
                </lyric>
            </note>
            <note default-y="-30.00" default-x="198.72">
                <pitch>
                    <step>G</step>
                    <octave>4</octave>
                </pitch>
                <duration>2</duration>
                <voice>1</voice>
                <type>quarter</type>
                <stem>up</stem>
                <lyric number="1">
                    <syllabic>end</syllabic>
                    <text>vait</text>
                </lyric>
                <lyric number="2">
                    <syllabic>end</syllabic>
                    <text>ter</text>
                </lyric>
                <lyric number="3">
                    <syllabic>end</syllabic>
                    <text>cer</text>
                </lyric>
            </note>
            <note default-y="-40.00" default-x="274.12">
                <pitch>
                    <step>E</step>
                    <octave>4</octave>
                </pitch>
                <duration>1</duration>
                <voice>1</voice>
                <type>eighth</type>
                <stem>up</stem>
                <beam number="1">begin</beam>
                <lyric number="1">
                    <syllabic>single</syllabic>
                    <text>une</text>
                </lyric>
                <lyric number="2">
                    <syllabic>single</syllabic>
                    <text>sa</text>
                </lyric>
                <lyric number="3">
                    <syllabic>single</syllabic>
                    <text>hors</text>
                </lyric>
            </note>
            <note default-y="-30.00" default-x="321.53">
                <pitch>
                    <step>G</step>
                    <octave>4</octave>
                </pitch>
                <duration>1</duration>
                <voice>1</voice>
                <type>eighth</type>
                <stem>up</stem>
                <beam number="1">end</beam>
                <lyric number="1">
                    <syllabic>single</syllabic>
                    <text>belle</text>
                </lyric>
                <lyric number="2">
                    <syllabic>begin</syllabic>
                    <text>ca</text>
                </lyric>
                <lyric number="3">
                    <syllabic>single</syllabic>
                    <text>de</text>
                </lyric>
            </note>
        </measure>
        <measure width="349.65" number="2">
            <harmony print-frame="no">
                <root>
                    <root-step>G</root-step>
                </root>
                <kind text="7">dominant</kind>
            </harmony>
            <note default-y="-35.00" default-x="24.20">
                <pitch>
                    <step>F</step>
                    <octave>4</octave>
                </pitch>
                <duration>1</duration>
                <voice>1</voice>
                <type>eighth</type>
                <stem>up</stem>
                <beam number="1">begin</beam>
                <lyric number="1">
                    <syllabic>begin</syllabic>
                    <text>fil</text>
                </lyric>
                <lyric number="2">
                    <syllabic>middle</syllabic>
                    <text>bi</text>
                </lyric>
                <lyric number="3">
                    <syllabic>begin</syllabic>
                    <text>l'om</text>
                </lyric>
            </note>
            <note default-y="-45.00" default-x="67.05">
                <pitch>
                    <step>D</step>
                    <octave>4</octave>
                </pitch>
                <duration>1</duration>
                <voice>1</voice>
                <type>eighth</type>
                <stem>up</stem>
                <beam number="1">end</beam>
                <lyric number="1">
                    <syllabic>end</syllabic>
                    <text>le,</text>
                </lyric>
                <lyric number="2">
                    <syllabic>end</syllabic>
                    <text>ne,</text>
                </lyric>
                <lyric number="3">
                    <syllabic>end</syllabic>
                    <text>bre,</text>
                </lyric>
            </note>
            <note>
                <rest/>
                <duration>2</duration>
                <voice>1</voice>
                <type>quarter</type>
            </note>
            <note>
                <rest/>
                <duration>1</duration>
                <voice>1</voice>
                <type>eighth</type>
            </note>
            <note default-y="-45.00" default-x="209.82">
                <pitch>
                    <step>D</step>
                    <octave>4</octave>
                </pitch>
                <duration>1</duration>
                <voice>1</voice>
                <type>eighth</type>
                <stem>up</stem>
                <beam number="1">begin</beam>
                <lyric number="1">
                    <syllabic>single</syllabic>
                    <text>Qui</text>
                </lyric>
                <lyric number="2">
                    <syllabic>single</syllabic>
                    <text>Elle</text>
                </lyric>
                <lyric number="3">
                    <syllabic>single</syllabic>
                    <text>Elle</text>
                </lyric>
            </note>
            <note default-y="-45.00" default-x="259.73">
                <pitch>
                    <step>D</step>
                    <octave>4</octave>
                </pitch>
                <duration>1</duration>
                <voice>1</voice>
                <type>eighth</type>
                <stem>up</stem>
                <beam number="1">continue</beam>
                <lyric number="1">
                    <syllabic>begin</syllabic>
                    <text>a</text>
                </lyric>
                <lyric number="2">
                    <syllabic>begin</syllabic>
                    <text>s'en</text>
                </lyric>
                <lyric number="3">
                    <syllabic>single</syllabic>
                    <text>craint</text>
                </lyric>
            </note>
            <note default-y="-40.00" default-x="308.39">
                <pitch>
                    <step>E</step>
                    <octave>4</octave>
                </pitch>
                <duration>1</duration>
                <voice>1</voice>
                <type>eighth</type>
                <stem>up</stem>
                <beam number="1">end</beam>
                <lyric number="1">
                    <syllabic>end</syllabic>
                    <text>vait</text>
                </lyric>
                <lyric number="2">
                    <syllabic>middle</syllabic>
                    <text>rou</text>
                </lyric>
                <lyric number="3">
                    <syllabic>begin</syllabic>
                    <text>tou</text>
                </lyric>
            </note>
        </measure>
        <measure width="386.74" number="3">
            <print new-system="yes">
                <system-layout>
                    <system-margins>
                        <left-margin>46.81</left-margin>
                        <right-margin>-0.00</right-margin>
                    </system-margins>
                    <system-distance>178.24</system-distance>
                </system-layout>
            </print>
            <note default-y="-35.00" default-x="76.74">
                <pitch>
                    <step>F</step>
                    <octave>4</octave>
                </pitch>
                <duration>2</duration>
                <voice>1</voice>
                <type>quarter</type>
                <stem>up</stem>
                <lyric number="1">
                    <syllabic>single</syllabic>
                    <text>peur</text>
                </lyric>
                <lyric number="2">
                    <syllabic>end</syllabic>
                    <text>la</text>
                </lyric>
                <lyric number="3">
                    <syllabic>end</syllabic>
                    <text>jours</text>
                </lyric>
            </note>
            <note default-y="-45.00" default-x="142.91">
                <pitch>
                    <step>D</step>
                    <octave>4</octave>
                </pitch>
                <duration>1</duration>
                <voice>1</voice>
                <type>eighth</type>
                <stem>up</stem>
                <beam number="1">begin</beam>
                <lyric number="1">
                    <syllabic>begin</syllabic>
                    <text>d'al</text>
                </lyric>
                <lyric number="2">
                    <syllabic>single</syllabic>
                    <text>dans</text>
                </lyric>
                <lyric number="3">
                    <syllabic>single</syllabic>
                    <text>les</text>
                </lyric>
            </note>
            <note default-y="-40.00" default-x="185.31">
                <pitch>
                    <step>E</step>
                    <octave>4</octave>
                </pitch>
                <duration>1</duration>
                <voice>1</voice>
                <type>eighth</type>
                <stem>up</stem>
                <beam number="1">end</beam>
                <lyric number="1">
                    <syllabic>end</syllabic>
                    <text>ler</text>
                </lyric>
                <lyric number="2">
                    <syllabic>single</syllabic>
                    <text>son</text>
                </lyric>
                <lyric number="3">
                    <syllabic>begin</syllabic>
                    <text>re</text>
                </lyric>
            </note>
            <note default-y="-35.00" default-x="232.11">
                <pitch>
                    <step>F</step>
                    <octave>4</octave>
                </pitch>
                <duration>1</duration>
                <voice>1</voice>
                <type>eighth</type>
                <stem>up</stem>
                <notations>
                    <slur type="start" number="1"/>
                </notations>
                <lyric number="1">
                    <syllabic>begin</syllabic>
                    <text>pren</text>
                </lyric>
                <lyric number="2">
                    <syllabic>begin</syllabic>
                    <text>peign</text>
                </lyric>
                <lyric number="3">
                    <syllabic>end</syllabic>
                    <text>gards</text>
                </lyric>
            </note>
            <note default-y="-20.00" default-x="277.63">
                <pitch>
                    <step>B</step>
                    <octave>4</octave>
                </pitch>
                <duration>2</duration>
                <voice>1</voice>
                <type>quarter</type>
                <stem>down</stem>
                <notations>
                    <slur type="stop" number="1"/>
                </notations>
                <lyric number="1">
                    <syllabic>end</syllabic>
                    <text>dre</text>
                </lyric>
                <lyric number="2">
                    <syllabic>end</syllabic>
                    <text>oir</text>
                </lyric>
                <lyric number="3">
                    <syllabic>begin</syllabic>
                    <text>in</text>
                </lyric>
            </note>
            <note default-y="-25.00" default-x="343.79">
                <pitch>
                    <step>A</step>
                    <octave>4</octave>
                </pitch>
                <duration>1</duration>
                <voice>1</voice>
                <type>eighth</type>
                <stem>up</stem>
                <lyric number="1">
                    <syllabic>single</syllabic>
                    <text>son</text>
                </lyric>
                <lyric number="2">
                    <syllabic>single</syllabic>
                    <text>de</text>
                </lyric>
                <lyric number="3">
                    <syllabic>middle</syllabic>
                    <text>dis</text>
                </lyric>
            </note>
        </measure>
        <measure width="306.61" number="4">
            <harmony print-frame="no">
                <root>
                    <root-step>C</root-step>
                </root>
                <kind text="">major</kind>
            </harmony>
            <note default-y="-30.00" default-x="28.75">
                <pitch>
                    <step>G</step>
                    <octave>4</octave>
                </pitch>
                <duration>2</duration>
                <voice>1</voice>
                <type>quarter</type>
                <stem>up</stem>
                <lyric number="1">
                    <syllabic>single</syllabic>
                    <text>bain,</text>
                </lyric>
                <lyric number="2">
                    <syllabic>single</syllabic>
                    <text>bain,</text>
                </lyric>
                <lyric number="3">
                    <syllabic>end</syllabic>
                    <text>crets,</text>
                </lyric>
            </note>
            <note>
                <rest/>
                <duration>2</duration>
                <voice>1</voice>
                <type>quarter</type>
            </note>
            <note>
                <rest/>
                <duration>1</duration>
                <voice>1</voice>
                <type>eighth</type>
            </note>
            <note default-y="-40.00" default-x="170.82">
                <pitch>
                    <step>E</step>
                    <octave>4</octave>
                </pitch>
                <duration>1</duration>
                <voice>1</voice>
                <type>eighth</type>
                <stem>up</stem>
                <beam number="1">begin</beam>
                <lyric number="1">
                    <syllabic>begin</syllabic>
                    <text>El</text>
                </lyric>
                <lyric number="2">
                    <syllabic>single</syllabic>
                    <text>Car</text>
                </lyric>
                <lyric number="3">
                    <syllabic>single</syllabic>
                    <text>C'est</text>
                </lyric>
            </note>
            <note default-y="-40.00" default-x="215.24">
                <pitch>
                    <step>E</step>
                    <octave>4</octave>
                </pitch>
                <duration>1</duration>
                <voice>1</voice>
                <type>eighth</type>
                <stem>up</stem>
                <beam number="1">continue</beam>
                <lyric number="1">
                    <syllabic>end</syllabic>
                    <text>le</text>
                </lyric>
                <lyric number="2">
                    <syllabic>single</syllabic>
                    <text>elle</text>
                </lyric>
                <lyric number="3">
                    <syllabic>single</syllabic>
                    <text>le</text>
                </lyric>
            </note>
            <note default-y="-35.00" default-x="265.78">
                <pitch>
                    <step>F</step>
                    <octave>4</octave>
                </pitch>
                <duration>1</duration>
                <voice>1</voice>
                <type>eighth</type>
                <stem>up</stem>
                <beam number="1">end</beam>
                <lyric number="1">
                    <syllabic>begin</syllabic>
                    <text>craign</text>
                </lyric>
                <lyric number="2">
                    <syllabic>begin</syllabic>
                    <text>craign</text>
                </lyric>
                <lyric number="3">
                    <syllabic>begin</syllabic>
                    <text>mo</text>
                </lyric>
            </note>
        </measure>
        <measure width="337.00" number="5">
            <note default-y="-30.00" default-x="27.19">
                <pitch>
                    <step>G</step>
                    <octave>4</octave>
                </pitch>
                <duration>2</duration>
                <voice>1</voice>
                <type>quarter</type>
                <stem>up</stem>
                <lyric number="1">
                    <syllabic>end</syllabic>
                    <text>ait</text>
                </lyric>
                <lyric number="2">
                    <syllabic>end</syllabic>
                    <text>nait</text>
                </lyric>
                <lyric number="3">
                    <syllabic>end</syllabic>
                    <text>ment</text>
                </lyric>
            </note>
            <note default-y="-40.00" default-x="94.66">
                <pitch>
                    <step>E</step>
                    <octave>4</octave>
                </pitch>
                <duration>1</duration>
                <voice>1</voice>
                <type>eighth</type>
                <stem>up</stem>
                <beam number="1">begin</beam>
                <lyric number="1">
                    <syllabic>single</syllabic>
                    <text>de</text>
                </lyric>
                <lyric number="2">
                    <syllabic>single</syllabic>
                    <text>de</text>
                </lyric>
                <lyric number="3">
                    <syllabic>single</syllabic>
                    <text>de</text>
                </lyric>
            </note>
            <note default-y="-35.00" default-x="136.83">
                <pitch>
                    <step>F</step>
                    <octave>4</octave>
                </pitch>
                <duration>1</duration>
                <voice>1</voice>
                <type>eighth</type>
                <stem>up</stem>
                <beam number="1">end</beam>
                <lyric number="1">
                    <syllabic>begin</syllabic>
                    <text>quit</text>
                </lyric>
                <lyric number="2">
                    <syllabic>begin</syllabic>
                    <text>cho</text>
                </lyric>
                <lyric number="3">
                    <syllabic>single</syllabic>
                    <text>faire</text>
                </lyric>
            </note>
            <note default-y="-30.00" default-x="183.59">
                <pitch>
                    <step>G</step>
                    <octave>4</octave>
                </pitch>
                <duration>1</duration>
                <voice>1</voice>
                <type>eighth</type>
                <stem>up</stem>
                <lyric number="1">
                    <syllabic>end</syllabic>
                    <text>ter</text>
                </lyric>
                <lyric number="2">
                    <syllabic>end</syllabic>
                    <text>quer</text>
                </lyric>
                <lyric number="3">
                    <syllabic>single</syllabic>
                    <text>voir</text>
                </lyric>
            </note>
            <note default-y="-15.00" default-x="225.76">
                <pitch>
                    <step>C</step>
                    <octave>5</octave>
                </pitch>
                <duration>2</duration>
                <voice>1</voice>
                <type>quarter</type>
                <stem>down</stem>
                <lyric number="1">
                    <syllabic>single</syllabic>
                    <text>sa</text>
                </lyric>
                <lyric number="2">
                    <syllabic>single</syllabic>
                    <text>ses</text>
                </lyric>
                <lyric number="3">
                    <syllabic>single</syllabic>
                    <text>à</text>
                </lyric>
            </note>
            <note default-y="-20.00" default-x="293.23">
                <pitch>
                    <step>B</step>
                    <octave>4</octave>
                </pitch>
                <duration>1</duration>
                <voice>1</voice>
                <type>eighth</type>
                <stem>down</stem>
                <lyric number="1">
                    <syllabic>begin</syllabic>
                    <text>ca</text>
                </lyric>
                <lyric number="2">
                    <syllabic>begin</syllabic>
                    <text>voi</text>
                </lyric>
                <lyric number="3">
                    <syllabic>single</syllabic>
                    <text>tou'le</text>
                </lyric>
            </note>
        </measure>
        <measure width="387.87" number="6">
            <print new-system="yes">
                <system-layout>
                    <system-margins>
                        <left-margin>46.81</left-margin>
                        <right-margin>-0.00</right-margin>
                    </system-margins>
                    <system-distance>178.24</system-distance>
                </system-layout>
            </print>
            <harmony print-frame="no">
                <root>
                    <root-step>F</root-step>
                </root>
                <kind text="">major</kind>
            </harmony>
            <note default-y="-20.00" default-x="74.23">
                <pitch>
                    <step>B</step>
                    <octave>4</octave>
                </pitch>
                <duration>1</duration>
                <voice>1</voice>
                <type>eighth</type>
                <stem>up</stem>
                <beam number="1">begin</beam>
                <lyric number="1">
                    <syllabic>middle</syllabic>
                    <text>bi</text>
                </lyric>
                <lyric number="2">
                    <syllabic>middle</syllabic>
                    <text>si</text>
                </lyric>
                <lyric number="3">
                    <syllabic>begin</syllabic>
                    <text>mon</text>
                </lyric>
            </note>
            <note default-y="-25.00" default-x="118.19">
                <pitch>
                    <step>A</step>
                    <octave>4</octave>
                </pitch>
                <duration>1</duration>
                <voice>1</voice>
                <type>eighth</type>
                <stem>up</stem>
                <beam number="1">end</beam>
                <lyric number="1">
                    <syllabic>end</syllabic>
                    <text>ne</text>
                </lyric>
                <lyric number="2">
                    <syllabic>end</syllabic>
                    <text>nes,</text>
                </lyric>
                <lyric number="3">
                    <syllabic>end</syllabic>
                    <text>de,</text>
                </lyric>
            </note>
            <note>
                <rest/>
                <duration>2</duration>
                <voice>1</voice>
                <type>quarter</type>
            </note>
            <note>
                <rest/>
                <duration>1</duration>
                <voice>1</voice>
                <type>eighth</type>
            </note>
            <note default-y="-25.00" default-x="249.40">
                <pitch>
                    <step>A</step>
                    <octave>4</octave>
                </pitch>
                <duration>1</duration>
                <voice>1</voice>
                <type>eighth</type>
                <stem>up</stem>
                <beam number="1">begin</beam>
                <lyric number="1">
                    <syllabic>begin</syllabic>
                    <text>El</text>
                </lyric>
                <lyric number="2">
                    <syllabic>single</syllabic>
                    <text>Et</text>
                </lyric>
                <lyric number="3">
                    <syllabic>single</syllabic>
                    <text>Ce</text>
                </lyric>
            </note>
            <note default-y="-25.00" default-x="295.53">
                <pitch>
                    <step>A</step>
                    <octave>4</octave>
                </pitch>
                <duration>1</duration>
                <voice>1</voice>
                <type>eighth</type>
                <stem>up</stem>
                <beam number="1">continue</beam>
                <lyric number="1">
                    <syllabic>end</syllabic>
                    <text>le</text>
                </lyric>
                <lyric number="2">
                    <syllabic>single</syllabic>
                    <text>même</text>
                </lyric>
                <lyric number="3">
                    <syllabic>single</syllabic>
                    <text>qu'il</text>
                </lyric>
            </note>
            <note default-y="-25.00" default-x="349.82">
                <pitch>
                    <step>A</step>
                    <octave>4</octave>
                </pitch>
                <duration>1</duration>
                <voice>1</voice>
                <type>eighth</type>
                <stem>up</stem>
                <beam number="1">end</beam>
                <lyric number="1">
                    <syllabic>begin</syllabic>
                    <text>trem</text>
                </lyric>
                <lyric number="2">
                    <syllabic>begin</syllabic>
                    <text>aus</text>
                </lyric>
                <lyric number="3">
                    <syllabic>single</syllabic>
                    <text>la</text>
                </lyric>
            </note>
        </measure>
        <measure width="351.10" number="7">
            <note default-y="-30.00" default-x="33.62">
                <pitch>
                    <step>G</step>
                    <octave>4</octave>
                </pitch>
                <duration>2</duration>
                <voice>1</voice>
                <type>quarter</type>
                <stem>up</stem>
                <lyric number="1">
                    <syllabic>end</syllabic>
                    <text>blait</text>
                </lyric>
                <lyric number="2">
                    <syllabic>end</syllabic>
                    <text>si</text>
                </lyric>
                <lyric number="3">
                    <syllabic>single</syllabic>
                    <text>troubl'</text>
                </lyric>
            </note>
            <note default-y="-40.00" default-x="103.81">
                <pitch>
                    <step>E</step>
                    <octave>4</octave>
                </pitch>
                <duration>1</duration>
                <voice>1</voice>
                <type>eighth</type>
                <stem>up</stem>
                <beam number="1">begin</beam>
                <lyric number="1">
                    <syllabic>single</syllabic>
                    <text>de</text>
                </lyric>
                <lyric number="2">
                    <syllabic>single</syllabic>
                    <text>de</text>
                </lyric>
                <lyric number="3">
                    <syllabic>single</syllabic>
                    <text>et</text>
                </lyric>
            </note>
            <note default-y="-30.00" default-x="147.69">
                <pitch>
                    <step>G</step>
                    <octave>4</octave>
                </pitch>
                <duration>1</duration>
                <voice>1</voice>
                <type>eighth</type>
                <stem>up</stem>
                <beam number="1">end</beam>
                <lyric number="1">
                    <syllabic>begin</syllabic>
                    <text>mon</text>
                </lyric>
                <lyric number="2">
                    <syllabic>begin</syllabic>
                    <text>gê</text>
                </lyric>
                <lyric number="3">
                    <syllabic>single</syllabic>
                    <text>qui</text>
                </lyric>
            </note>
            <note default-y="-35.00" default-x="191.56">
                <pitch>
                    <step>F</step>
                    <octave>4</octave>
                </pitch>
                <duration>2</duration>
                <voice>1</voice>
                <type>quarter</type>
                <stem>up</stem>
                <lyric number="1">
                    <syllabic>end</syllabic>
                    <text>trer</text>
                </lyric>
                <lyric number="2">
                    <syllabic>end</syllabic>
                    <text>ner</text>
                </lyric>
                <lyric number="3">
                    <syllabic>single</syllabic>
                    <text>la</text>
                </lyric>
            </note>
            <note default-y="-40.00" default-x="261.75">
                <pitch>
                    <step>E</step>
                    <octave>4</octave>
                </pitch>
                <duration>1</duration>
                <voice>1</voice>
                <type>eighth</type>
                <stem>up</stem>
                <beam number="1">begin</beam>
                <lyric number="1">
                    <syllabic>single</syllabic>
                    <text>au</text>
                </lyric>
                <lyric number="2">
                    <syllabic>single</syllabic>
                    <text>ses</text>
                </lyric>
                <lyric number="3">
                    <syllabic>single</syllabic>
                    <text>fait</text>
                </lyric>
            </note>
            <note default-y="-45.00" default-x="305.63">
                <pitch>
                    <step>D</step>
                    <octave>4</octave>
                </pitch>
                <duration>1</duration>
                <voice>1</voice>
                <type>eighth</type>
                <stem>up</stem>
                <beam number="1">end</beam>
                <lyric number="1">
                    <syllabic>begin</syllabic>
                    <text>voi</text>
                </lyric>
                <lyric number="2">
                    <syllabic>begin</syllabic>
                    <text>voi</text>
                </lyric>
                <lyric number="3">
                    <syllabic>begin</syllabic>
                    <text>trem</text>
                </lyric>
            </note>
        </measure>
        <measure width="291.38" number="8">
            <note default-y="-50.00" default-x="25.01">
                <pitch>
                    <step>C</step>
                    <octave>4</octave>
                </pitch>
                <duration>2</duration>
                <voice>1</voice>
                <type>quarter</type>
                <stem>up</stem>
                <lyric number="1">
                    <syllabic>end</syllabic>
                    <text>sin,</text>
                </lyric>
                <lyric number="2">
                    <syllabic>end</syllabic>
                    <text>sins.</text>
                </lyric>
                <lyric number="3">
                    <syllabic>end</syllabic>
                    <text>bler.</text>
                </lyric>
            </note>
            <direction placement="above">
                <direction-type>
                    <words>(à voix parlée)</words>
                </direction-type>
            </direction>
            <note default-y="-30.00" default-x="91.20">
                <pitch>
                    <step>G</step>
                    <octave>4</octave>
                </pitch>
                <duration>2</duration>
                <voice>1</voice>
                <type>quarter</type>
                <stem>up</stem>
                <notehead>x</notehead>
                <lyric number="1">
                    <syllabic>single</syllabic>
                    <text>(Un,</text>
                </lyric>
                <lyric number="2">
                    <syllabic>single</syllabic>
                    <text>(Un,</text>
                </lyric>
                <lyric number="3">
                    <syllabic>single</syllabic>
                    <text>(Un,</text>
                </lyric>
            </note>
            <note default-y="-30.00" default-x="157.40">
                <pitch>
                    <step>G</step>
                    <octave>4</octave>
                </pitch>
                <duration>2</duration>
                <voice>1</voice>
                <type>quarter</type>
                <stem>up</stem>
                <notehead>x</notehead>
                <lyric number="1">
                    <syllabic>single</syllabic>
                    <text>deux,</text>
                </lyric>
                <lyric number="2">
                    <syllabic>single</syllabic>
                    <text>deux,</text>
                </lyric>
                <lyric number="3">
                    <syllabic>single</syllabic>
                    <text>deux,</text>
                </lyric>
            </note>
            <note default-y="-30.00" default-x="223.59">
                <pitch>
                    <step>G</step>
                    <octave>4</octave>
                </pitch>
                <duration>2</duration>
                <voice>1</voice>
                <type>quarter</type>
                <stem>up</stem>
                <notehead>x</notehead>
                <lyric number="1">
                    <syllabic>single</syllabic>
                    <text>trois,</text>
                </lyric>
                <lyric number="2">
                    <syllabic>single</syllabic>
                    <text>trois,</text>
                </lyric>
                <lyric number="3">
                    <syllabic>single</syllabic>
                    <text>trois</text>
                </lyric>
            </note>
        </measure>
        <measure width="474.45" number="9">
            <print new-system="yes">
                <system-layout>
                    <system-margins>
                        <left-margin>46.81</left-margin>
                        <right-margin>-0.00</right-margin>
                    </system-margins>
                    <system-distance>178.24</system-distance>
                </system-layout>
            </print>
            <note default-y="-30.00" default-x="72.34">
                <pitch>
                    <step>G</step>
                    <octave>4</octave>
                </pitch>
                <duration>1</duration>
                <voice>1</voice>
                <type>eighth</type>
                <stem>up</stem>
                <notehead>x</notehead>
                <beam number="1">begin</beam>
                <lyric number="1">
                    <syllabic>single</syllabic>
                    <text>Elle</text>
                </lyric>
                <lyric number="2">
                    <syllabic>single</syllabic>
                    <text>Elle</text>
                </lyric>
                <lyric number="3">
                    <syllabic>single</syllabic>
                    <text>Elle</text>
                </lyric>
            </note>
            <note default-y="-30.00" default-x="126.03">
                <pitch>
                    <step>G</step>
                    <octave>4</octave>
                </pitch>
                <duration>1</duration>
                <voice>1</voice>
                <type>eighth</type>
                <stem>up</stem>
                <notehead>x</notehead>
                <beam number="1">continue</beam>
                <lyric number="1">
                    <syllabic>begin</syllabic>
                    <text>trem</text>
                </lyric>
                <lyric number="2">
                    <syllabic>begin</syllabic>
                    <text>craign</text>
                </lyric>
                <lyric number="3">
                    <syllabic>single</syllabic>
                    <text>à</text>
                </lyric>
            </note>
            <note default-y="-30.00" default-x="182.24">
                <pitch>
                    <step>G</step>
                    <octave>4</octave>
                </pitch>
                <duration>1</duration>
                <voice>1</voice>
                <type>eighth</type>
                <stem>up</stem>
                <notehead>x</notehead>
                <beam number="1">continue</beam>
                <lyric number="1">
                    <syllabic>end</syllabic>
                    <text>blait</text>
                </lyric>
                <lyric number="2">
                    <syllabic>end</syllabic>
                    <text>ait</text>
                </lyric>
                <lyric number="3">
                    <syllabic>single</syllabic>
                    <text>peur</text>
                </lyric>
            </note>
            <note default-y="-30.00" default-x="234.11">
                <pitch>
                    <step>G</step>
                    <octave>4</octave>
                </pitch>
                <duration>1</duration>
                <voice>1</voice>
                <type>eighth</type>
                <stem>up</stem>
                <notehead>x</notehead>
                <beam number="1">end</beam>
                <lyric number="1">
                    <syllabic>single</syllabic>
                    <text>de</text>
                </lyric>
                <lyric number="2">
                    <syllabic>single</syllabic>
                    <text>de</text>
                </lyric>
                <lyric number="3">
                    <syllabic>single</syllabic>
                    <text>de</text>
                </lyric>
            </note>
            <note default-y="-30.00" default-x="285.97">
                <pitch>
                    <step>G</step>
                    <octave>4</octave>
                </pitch>
                <duration>1</duration>
                <voice>1</voice>
                <type>eighth</type>
                <stem>up</stem>
                <notehead>x</notehead>
                <beam number="1">begin</beam>
                <lyric number="1">
                    <syllabic>begin</syllabic>
                    <text>mon</text>
                </lyric>
                <lyric number="2">
                    <syllabic>begin</syllabic>
                    <text>mon</text>
                </lyric>
                <lyric number="3">
                    <syllabic>begin</syllabic>
                    <text>mon</text>
                </lyric>
            </note>
            <note default-y="-30.00" default-x="337.83">
                <pitch>
                    <step>G</step>
                    <octave>4</octave>
                </pitch>
                <duration>1</duration>
                <voice>1</voice>
                <type>eighth</type>
                <stem>up</stem>
                <notehead>x</notehead>
                <beam number="1">end</beam>
                <lyric number="1">
                    <syllabic>end</syllabic>
                    <text>trer</text>
                </lyric>
                <lyric number="2">
                    <syllabic>end</syllabic>
                    <text>trer</text>
                </lyric>
                <lyric number="3">
                    <syllabic>end</syllabic>
                    <text>trer</text>
                </lyric>
            </note>
            <note default-y="-30.00" default-x="389.87">
                <pitch>
                    <step>G</step>
                    <octave>4</octave>
                </pitch>
                <duration>2</duration>
                <voice>1</voice>
                <type>quarter</type>
                <stem>up</stem>
                <notehead>x</notehead>
                <lyric number="1">
                    <syllabic>single</syllabic>
                    <text>quoi?)</text>
                </lyric>
                <lyric number="2">
                    <syllabic>single</syllabic>
                    <text>quoi?)</text>
                </lyric>
                <lyric number="3">
                    <syllabic>single</syllabic>
                    <text>quoi?)</text>
                </lyric>
            </note>
        </measure>
        <measure width="237.70" number="10">
            <note default-y="0.00" default-x="12.00">
                <grace slash="yes"/>
                <pitch>
                    <step>F</step>
                    <alter>1</alter>
                    <octave>5</octave>
                </pitch>
                <voice>1</voice>
                <type>eighth</type>
                <accidental>sharp</accidental>
                <stem>up</stem>
                <notations>
                    <slur type="start" number="1"/>
                </notations>
            </note>
            <note default-y="5.00" default-x="31.52">
                <pitch>
                    <step>G</step>
                    <octave>5</octave>
                </pitch>
                <duration>2</duration>
                <voice>1</voice>
                <type>quarter</type>
                <stem>down</stem>
                <notations>
                    <slur type="stop" number="1"/>
                </notations>
            </note>
            <note default-y="-30.00" default-x="82.67">
                <pitch>
                    <step>G</step>
                    <octave>4</octave>
                </pitch>
                <duration>2</duration>
                <voice>1</voice>
                <type>quarter</type>
                <stem>up</stem>
                <lyric number="1">
                    <syllabic>single</syllabic>
                    <text>Son</text>
                </lyric>
            </note>
            <direction>
                <direction-type>
                    <words default-y="100">Gdim.</words>
                </direction-type>
            </direction>
            <note default-y="-25.00" default-x="133.81">
                <pitch>
                    <step>A</step>
                    <octave>4</octave>
                </pitch>
                <duration>2</duration>
                <voice>1</voice>
                <type>quarter</type>
                <stem>up</stem>
                <lyric number="1">
                    <syllabic>begin</syllabic>
                    <text>pe</text>
                </lyric>
            </note>
            <direction>
                <direction-type>
                    <words default-y="100">Gdim.</words>
                </direction-type>
            </direction>
            <note default-y="-25.00" default-x="184.96">
                <pitch>
                    <step>A</step>
                    <alter>1</alter>
                    <octave>4</octave>
                </pitch>
                <duration>2</duration>
                <voice>1</voice>
                <type>quarter</type>
                <accidental>sharp</accidental>
                <stem>up</stem>
                <lyric number="1">
                    <syllabic>end</syllabic>
                    <text>tit</text>
                </lyric>
            </note>
        </measure>
        <measure width="318.21" number="11">
            <harmony print-frame="no">
                <root>
                    <root-step>G</root-step>
                </root>
                <kind text="7">dominant</kind>
            </harmony>
            <note default-y="-20.00" default-x="12.00">
                <pitch>
                    <step>B</step>
                    <octave>4</octave>
                </pitch>
                <duration>1</duration>
                <voice>1</voice>
                <type>eighth</type>
                <stem>up</stem>
                <beam number="1">begin</beam>
                <lyric number="1">
                    <syllabic>begin</syllabic>
                    <text>it</text>
                </lyric>
            </note>
            <note default-y="-20.00" default-x="50.08">
                <pitch>
                    <step>B</step>
                    <octave>4</octave>
                </pitch>
                <duration>1</duration>
                <voice>1</voice>
                <type>eighth</type>
                <stem>up</stem>
                <beam number="1">continue</beam>
                <lyric number="1">
                    <syllabic>end</syllabic>
                    <text>si</text>
                </lyric>
            </note>
            <note default-y="-25.00" default-x="88.15">
                <pitch>
                    <step>A</step>
                    <octave>4</octave>
                </pitch>
                <duration>1</duration>
                <voice>1</voice>
                <type>eighth</type>
                <accidental>natural</accidental>
                <stem>up</stem>
                <beam number="1">continue</beam>
                <lyric number="1">
                    <syllabic>begin</syllabic>
                    <text>bit</text>
                </lyric>
            </note>
            <note default-y="-30.00" default-x="126.23">
                <pitch>
                    <step>G</step>
                    <octave>4</octave>
                </pitch>
                <duration>1</duration>
                <voice>1</voice>
                <type>eighth</type>
                <stem>up</stem>
                <beam number="1">end</beam>
                <lyric number="1">
                    <syllabic>end</syllabic>
                    <text>si,</text>
                </lyric>
            </note>
            <note default-y="-20.00" default-x="164.30">
                <pitch>
                    <step>B</step>
                    <octave>4</octave>
                </pitch>
                <duration>1</duration>
                <voice>1</voice>
                <type>eighth</type>
                <stem>up</stem>
                <beam number="1">begin</beam>
                <lyric number="1">
                    <syllabic>begin</syllabic>
                    <text>ti</text>
                </lyric>
            </note>
            <note default-y="-20.00" default-x="202.38">
                <pitch>
                    <step>B</step>
                    <octave>4</octave>
                </pitch>
                <duration>1</duration>
                <voice>1</voice>
                <type>eighth</type>
                <stem>up</stem>
                <beam number="1">continue</beam>
                <lyric number="1">
                    <syllabic>end</syllabic>
                    <text>ni</text>
                </lyric>
            </note>
            <note default-y="-25.00" default-x="240.45">
                <pitch>
                    <step>A</step>
                    <octave>4</octave>
                </pitch>
                <duration>1</duration>
                <voice>1</voice>
                <type>eighth</type>
                <stem>up</stem>
                <beam number="1">continue</beam>
                <lyric number="1">
                    <syllabic>begin</syllabic>
                    <text>oui</text>
                </lyric>
            </note>
            <note default-y="-30.00" default-x="278.53">
                <pitch>
                    <step>G</step>
                    <octave>4</octave>
                </pitch>
                <duration>1</duration>
                <voice>1</voice>
                <type>eighth</type>
                <stem>up</stem>
                <beam number="1">end</beam>
                <lyric number="1">
                    <syllabic>end</syllabic>
                    <text>ni,</text>
                </lyric>
            </note>
        </measure>
        <measure width="302.19" number="12">
            <print new-system="yes">
                <system-layout>
                    <system-margins>
                        <left-margin>46.81</left-margin>
                        <right-margin>-0.00</right-margin>
                    </system-margins>
                    <system-distance>178.24</system-distance>
                </system-layout>
            </print>
            <harmony print-frame="no">
                <root>
                    <root-step>C</root-step>
                </root>
                <kind text="">major</kind>
            </harmony>
            <note default-y="-15.00" default-x="71.73">
                <pitch>
                    <step>C</step>
                    <octave>5</octave>
                </pitch>
                <duration>1</duration>
                <voice>1</voice>
                <type>eighth</type>
                <stem>up</stem>
                <beam number="1">begin</beam>
                <lyric number="1">
                    <syllabic>single</syllabic>
                    <text>tout</text>
                </lyric>
            </note>
            <note default-y="-15.00" default-x="105.97">
                <pitch>
                    <step>C</step>
                    <octave>5</octave>
                </pitch>
                <duration>1</duration>
                <voice>1</voice>
                <type>eighth</type>
                <stem>up</stem>
                <beam number="1">continue</beam>
                <lyric number="1">
                    <syllabic>begin</syllabic>
                    <text>pe</text>
                </lyric>
            </note>
            <note default-y="-25.00" default-x="136.37">
                <pitch>
                    <step>A</step>
                    <octave>4</octave>
                </pitch>
                <duration>1</duration>
                <voice>1</voice>
                <type>eighth</type>
                <stem>up</stem>
                <beam number="1">continue</beam>
                <lyric number="1">
                    <syllabic>end</syllabic>
                    <text>tit,</text>
                </lyric>
            </note>
            <note default-y="-30.00" default-x="165.28">
                <pitch>
                    <step>G</step>
                    <octave>4</octave>
                </pitch>
                <duration>1</duration>
                <voice>1</voice>
                <type>eighth</type>
                <stem>up</stem>
                <beam number="1">end</beam>
                <lyric number="1">
                    <syllabic>begin</syllabic>
                    <text>pe</text>
                </lyric>
            </note>
            <note default-y="-15.00" default-x="192.86">
                <pitch>
                    <step>C</step>
                    <octave>5</octave>
                </pitch>
                <duration>1</duration>
                <voice>1</voice>
                <type>eighth</type>
                <stem>up</stem>
                <beam number="1">begin</beam>
                <lyric number="1">
                    <syllabic>end</syllabic>
                    <text>tit</text>
                </lyric>
            </note>
            <note default-y="-15.00" default-x="219.82">
                <pitch>
                    <step>C</step>
                    <octave>5</octave>
                </pitch>
                <duration>1</duration>
                <voice>1</voice>
                <type>eighth</type>
                <stem>up</stem>
                <beam number="1">continue</beam>
                <lyric number="1">
                    <syllabic>begin</syllabic>
                    <text>bi</text>
                </lyric>
            </note>
            <note default-y="-25.00" default-x="246.77">
                <pitch>
                    <step>A</step>
                    <octave>4</octave>
                </pitch>
                <duration>1</duration>
                <voice>1</voice>
                <type>eighth</type>
                <stem>up</stem>
                <beam number="1">continue</beam>
                <lyric number="1">
                    <syllabic>middle</syllabic>
                    <text>ki</text>
                </lyric>
            </note>
            <note default-y="-30.00" default-x="273.72">
                <pitch>
                    <step>G</step>
                    <octave>4</octave>
                </pitch>
                <duration>1</duration>
                <voice>1</voice>
                <type>eighth</type>
                <stem>up</stem>
                <beam number="1">end</beam>
                <lyric number="1">
                    <syllabic>end</syllabic>
                    <text>ni</text>
                </lyric>
            </note>
        </measure>
        <measure width="259.19" number="13">
            <harmony print-frame="no">
                <root>
                    <root-step>G</root-step>
                </root>
                <kind text="7">dominant</kind>
            </harmony>
            <note>
                <rest/>
                <duration>1</duration>
                <voice>1</voice>
                <type>eighth</type>
            </note>
            <note default-y="-20.00" default-x="59.14">
                <pitch>
                    <step>B</step>
                    <octave>4</octave>
                </pitch>
                <duration>2</duration>
                <voice>1</voice>
                <type>quarter</type>
                <stem>down</stem>
                <lyric number="1">
                    <syllabic>single</syllabic>
                    <text>Qu'elle</text>
                </lyric>
            </note>
            <note default-y="-25.00" default-x="114.22">
                <pitch>
                    <step>A</step>
                    <octave>4</octave>
                </pitch>
                <duration>1</duration>
                <voice>1</voice>
                <type>eighth</type>
                <stem>up</stem>
                <lyric number="1">
                    <syllabic>begin</syllabic>
                    <text>met</text>
                </lyric>
            </note>
            <note default-y="-30.00" default-x="155.83">
                <pitch>
                    <step>G</step>
                    <octave>4</octave>
                </pitch>
                <duration>2</duration>
                <voice>1</voice>
                <type>quarter</type>
                <stem>up</stem>
                <lyric number="1">
                    <syllabic>end</syllabic>
                    <text>tait</text>
                </lyric>
            </note>
            <note default-y="-25.00" default-x="197.00">
                <pitch>
                    <step>A</step>
                    <octave>4</octave>
                </pitch>
                <duration>1</duration>
                <voice>1</voice>
                <type>eighth</type>
                <stem>up</stem>
                <beam number="1">begin</beam>
                <lyric number="1">
                    <syllabic>single</syllabic>
                    <text>pour</text>
                </lyric>
            </note>
            <note default-y="-30.00" default-x="231.86">
                <pitch>
                    <step>G</step>
                    <octave>4</octave>
                </pitch>
                <duration>1</duration>
                <voice>1</voice>
                <type>eighth</type>
                <stem>up</stem>
                <beam number="1">end</beam>
                <lyric number="1">
                    <syllabic>single</syllabic>
                    <text>la</text>
                </lyric>
            </note>
        </measure>
        <measure width="231.71" number="14">
            <harmony print-frame="no">
                <root>
                    <root-step>C</root-step>
                </root>
                <kind text="">major</kind>
            </harmony>
            <note default-y="-30.00" default-x="19.02">
                <pitch>
                    <step>G</step>
                    <octave>4</octave>
                </pitch>
                <duration>1</duration>
                <voice>1</voice>
                <type>eighth</type>
                <stem>up</stem>
                <lyric number="1">
                    <syllabic>begin</syllabic>
                    <text>pre</text>
                </lyric>
            </note>
            <note default-y="-25.00" default-x="63.13">
                <pitch>
                    <step>A</step>
                    <octave>4</octave>
                </pitch>
                <duration>2</duration>
                <voice>1</voice>
                <type>quarter</type>
                <stem>up</stem>
                <lyric number="1">
                    <syllabic>middle</syllabic>
                    <text>miè</text>
                </lyric>
            </note>
            <note default-y="-30.00" default-x="94.84">
                <pitch>
                    <step>G</step>
                    <octave>4</octave>
                </pitch>
                <duration>1</duration>
                <voice>1</voice>
                <type>eighth</type>
                <stem>up</stem>
                <lyric number="1">
                    <syllabic>end</syllabic>
                    <text>re</text>
                </lyric>
            </note>
            <note default-y="-40.00" default-x="141.78">
                <pitch>
                    <step>E</step>
                    <octave>4</octave>
                </pitch>
                <duration>2</duration>
                <voice>1</voice>
                <type>quarter</type>
                <stem>up</stem>
                <lyric number="1">
                    <syllabic>single</syllabic>
                    <text>fois,</text>
                </lyric>
            </note>
            <note>
                <rest/>
                <duration>1</duration>
                <voice>1</voice>
                <type>eighth</type>
            </note>
            <note default-y="-30.00" default-x="197.94">
                <pitch>
                    <step>G</step>
                    <octave>4</octave>
                </pitch>
                <duration>1</duration>
                <voice>1</voice>
                <type>eighth</type>
                <stem>up</stem>
                <lyric number="1">
                    <syllabic>single</syllabic>
                    <text>Un</text>
                </lyric>
            </note>
        </measure>
        <measure width="237.26" number="15">
            <harmony print-frame="no">
                <root>
                    <root-step>G</root-step>
                </root>
                <kind text="7">dominant</kind>
            </harmony>
            <note default-y="-20.00" default-x="12.00">
                <pitch>
                    <step>B</step>
                    <octave>4</octave>
                </pitch>
                <duration>1</duration>
                <voice>1</voice>
                <type>eighth</type>
                <stem>up</stem>
                <beam number="1">begin</beam>
                <lyric number="1">
                    <syllabic>begin</syllabic>
                    <text>it</text>
                </lyric>
            </note>
            <note default-y="-20.00" default-x="37.70">
                <pitch>
                    <step>B</step>
                    <octave>4</octave>
                </pitch>
                <duration>1</duration>
                <voice>1</voice>
                <type>eighth</type>
                <stem>up</stem>
                <beam number="1">continue</beam>
                <lyric number="1">
                    <syllabic>end</syllabic>
                    <text>si</text>
                </lyric>
            </note>
            <note default-y="-25.00" default-x="67.79">
                <pitch>
                    <step>A</step>
                    <octave>4</octave>
                </pitch>
                <duration>1</duration>
                <voice>1</voice>
                <type>eighth</type>
                <stem>up</stem>
                <beam number="1">continue</beam>
                <lyric number="1">
                    <syllabic>begin</syllabic>
                    <text>bit</text>
                </lyric>
            </note>
            <note default-y="-30.00" default-x="93.49">
                <pitch>
                    <step>G</step>
                    <octave>4</octave>
                </pitch>
                <duration>1</duration>
                <voice>1</voice>
                <type>eighth</type>
                <stem>up</stem>
                <beam number="1">end</beam>
                <lyric number="1">
                    <syllabic>end</syllabic>
                    <text>si</text>
                </lyric>
            </note>
            <note default-y="-20.00" default-x="118.78">
                <pitch>
                    <step>B</step>
                    <octave>4</octave>
                </pitch>
                <duration>1</duration>
                <voice>1</voice>
                <type>eighth</type>
                <stem>up</stem>
                <beam number="1">begin</beam>
                <lyric number="1">
                    <syllabic>begin</syllabic>
                    <text>ti</text>
                </lyric>
            </note>
            <note default-y="-20.00" default-x="145.73">
                <pitch>
                    <step>B</step>
                    <octave>4</octave>
                </pitch>
                <duration>1</duration>
                <voice>1</voice>
                <type>eighth</type>
                <stem>up</stem>
                <beam number="1">continue</beam>
                <lyric number="1">
                    <syllabic>end</syllabic>
                    <text>ni</text>
                </lyric>
            </note>
            <note default-y="-25.00" default-x="178.33">
                <pitch>
                    <step>A</step>
                    <octave>4</octave>
                </pitch>
                <duration>1</duration>
                <voice>1</voice>
                <type>eighth</type>
                <stem>up</stem>
                <beam number="1">continue</beam>
                <lyric number="1">
                    <syllabic>begin</syllabic>
                    <text>oui</text>
                </lyric>
            </note>
            <note default-y="-30.00" default-x="210.38">
                <pitch>
                    <step>G</step>
                    <octave>4</octave>
                </pitch>
                <duration>1</duration>
                <voice>1</voice>
                <type>eighth</type>
                <stem>up</stem>
                <beam number="1">end</beam>
                <lyric number="1">
                    <syllabic>end</syllabic>
                    <text>ni,</text>
                </lyric>
            </note>
        </measure>
        <measure width="402.22" number="16">
            <print new-system="yes">
                <system-layout>
                    <system-margins>
                        <left-margin>46.81</left-margin>
                        <right-margin>-0.00</right-margin>
                    </system-margins>
                    <system-distance>125.44</system-distance>
                </system-layout>
            </print>
            <harmony print-frame="no">
                <root>
                    <root-step>C</root-step>
                </root>
                <kind text="">major</kind>
            </harmony>
            <note default-y="-15.00" default-x="71.73">
                <pitch>
                    <step>C</step>
                    <octave>5</octave>
                </pitch>
                <duration>1</duration>
                <voice>1</voice>
                <type>eighth</type>
                <stem>up</stem>
                <beam number="1">begin</beam>
                <lyric number="1">
                    <syllabic>single</syllabic>
                    <text>tout</text>
                </lyric>
            </note>
            <note default-y="-15.00" default-x="112.84">
                <pitch>
                    <step>C</step>
                    <octave>5</octave>
                </pitch>
                <duration>1</duration>
                <voice>1</voice>
                <type>eighth</type>
                <stem>up</stem>
                <beam number="1">continue</beam>
                <lyric number="1">
                    <syllabic>begin</syllabic>
                    <text>pe</text>
                </lyric>
            </note>
            <note default-y="-25.00" default-x="153.95">
                <pitch>
                    <step>A</step>
                    <octave>4</octave>
                </pitch>
                <duration>1</duration>
                <voice>1</voice>
                <type>eighth</type>
                <stem>up</stem>
                <beam number="1">continue</beam>
                <lyric number="1">
                    <syllabic>end</syllabic>
                    <text>tit,</text>
                </lyric>
            </note>
            <note default-y="-30.00" default-x="195.06">
                <pitch>
                    <step>G</step>
                    <octave>4</octave>
                </pitch>
                <duration>1</duration>
                <voice>1</voice>
                <type>eighth</type>
                <stem>up</stem>
                <beam number="1">end</beam>
                <lyric number="1">
                    <syllabic>begin</syllabic>
                    <text>pe</text>
                </lyric>
            </note>
            <note default-y="-15.00" default-x="236.18">
                <pitch>
                    <step>C</step>
                    <octave>5</octave>
                </pitch>
                <duration>1</duration>
                <voice>1</voice>
                <type>eighth</type>
                <stem>up</stem>
                <beam number="1">begin</beam>
                <lyric number="1">
                    <syllabic>end</syllabic>
                    <text>tit</text>
                </lyric>
            </note>
            <note default-y="-15.00" default-x="277.29">
                <pitch>
                    <step>C</step>
                    <octave>5</octave>
                </pitch>
                <duration>1</duration>
                <voice>1</voice>
                <type>eighth</type>
                <stem>up</stem>
                <beam number="1">continue</beam>
                <lyric number="1">
                    <syllabic>begin</syllabic>
                    <text>bi</text>
                </lyric>
            </note>
            <note default-y="-25.00" default-x="318.40">
                <pitch>
                    <step>A</step>
                    <octave>4</octave>
                </pitch>
                <duration>1</duration>
                <voice>1</voice>
                <type>eighth</type>
                <stem>up</stem>
                <beam number="1">continue</beam>
                <lyric number="1">
                    <syllabic>middle</syllabic>
                    <text>ki</text>
                </lyric>
            </note>
            <note default-y="-30.00" default-x="359.51">
                <pitch>
                    <step>G</step>
                    <octave>4</octave>
                </pitch>
                <duration>1</duration>
                <voice>1</voice>
                <type>eighth</type>
                <stem>up</stem>
                <beam number="1">end</beam>
                <lyric number="1">
                    <syllabic>end</syllabic>
                    <text>ni,</text>
                </lyric>
            </note>
        </measure>
        <measure width="350.75" number="17">
            <harmony print-frame="no">
                <root>
                    <root-step>G</root-step>
                </root>
                <kind text="7">dominant</kind>
            </harmony>
            <note>
                <rest/>
                <duration>1</duration>
                <voice>1</voice>
                <type>eighth</type>
            </note>
            <note default-y="-20.00" default-x="55.07">
                <pitch>
                    <step>B</step>
                    <octave>4</octave>
                </pitch>
                <duration>1</duration>
                <voice>1</voice>
                <type>eighth</type>
                <stem>down</stem>
                <beam number="1">begin</beam>
                <lyric number="1">
                    <syllabic>single</syllabic>
                    <text>Un</text>
                </lyric>
            </note>
            <note default-y="-20.00" default-x="98.14">
                <pitch>
                    <step>B</step>
                    <octave>4</octave>
                </pitch>
                <duration>1</duration>
                <voice>1</voice>
                <type>eighth</type>
                <stem>down</stem>
                <beam number="1">continue</beam>
                <lyric number="1">
                    <syllabic>begin</syllabic>
                    <text>bi</text>
                </lyric>
            </note>
            <note default-y="-25.00" default-x="141.21">
                <pitch>
                    <step>A</step>
                    <octave>4</octave>
                </pitch>
                <duration>1</duration>
                <voice>1</voice>
                <type>eighth</type>
                <stem>down</stem>
                <beam number="1">end</beam>
                <lyric number="1">
                    <syllabic>middle</syllabic>
                    <text>ki</text>
                </lyric>
            </note>
            <note default-y="-30.00" default-x="184.28">
                <pitch>
                    <step>G</step>
                    <octave>4</octave>
                </pitch>
                <duration>1</duration>
                <voice>1</voice>
                <type>eighth</type>
                <stem>up</stem>
                <lyric number="1">
                    <syllabic>end</syllabic>
                    <text>ni</text>
                </lyric>
            </note>
            <note default-y="-25.00" default-x="237.17">
                <pitch>
                    <step>A</step>
                    <octave>4</octave>
                </pitch>
                <duration>2</duration>
                <voice>1</voice>
                <type>quarter</type>
                <stem>up</stem>
                <lyric number="1">
                    <syllabic>single</syllabic>
                    <text>rouge</text>
                </lyric>
            </note>
            <note default-y="-30.00" default-x="306.08">
                <pitch>
                    <step>G</step>
                    <octave>4</octave>
                </pitch>
                <duration>1</duration>
                <voice>1</voice>
                <type>eighth</type>
                <stem>up</stem>
                <lyric number="1">
                    <syllabic>single</syllabic>
                    <text>et</text>
                </lyric>
            </note>
        </measure>
        <measure width="277.38" number="18">
            <barline location="left">
                <ending type="start" number="1, 2"></ending>
            </barline>
            <note default-y="-35.00" default-x="29.07">
                <pitch>
                    <step>F</step>
                    <octave>4</octave>
                </pitch>
                <duration>1</duration>
                <voice>1</voice>
                <type>eighth</type>
                <stem>up</stem>
                <lyric number="1">
                    <syllabic>single</syllabic>
                    <text>jaune</text>
                </lyric>
            </note>
            <note default-y="-40.00" default-x="75.01">
                <pitch>
                    <step>E</step>
                    <octave>4</octave>
                </pitch>
                <duration>2</duration>
                <voice>1</voice>
                <type>quarter</type>
                <stem>up</stem>
                <lyric number="1">
                    <syllabic>single</syllabic>
                    <text>à</text>
                </lyric>
            </note>
            <harmony relative-x="83.33" print-frame="no">
                <root>
                    <root-step>C</root-step>
                </root>
                <kind text="">major</kind>
                <offset>1</offset>
            </harmony>
            <note default-y="-45.00" default-x="148.52">
                <pitch>
                    <step>D</step>
                    <octave>4</octave>
                </pitch>
                <duration>1</duration>
                <voice>1</voice>
                <type>eighth</type>
                <stem>up</stem>
                <lyric number="1">
                    <syllabic>single</syllabic>
                    <text>p'tits</text>
                </lyric>
            </note>
            <harmony relative-x="83.33" print-frame="no">
                <root>
                    <root-step>C</root-step>
                </root>
                <kind text="">major</kind>
            </harmony>
            <note default-y="-50.00" default-x="197.67">
                <pitch>
                    <step>C</step>
                    <octave>4</octave>
                </pitch>
                <duration>2</duration>
                <voice>1</voice>
                <type>quarter</type>
                <stem>up</stem>
                <lyric number="1">
                    <syllabic>single</syllabic>
                    <text>pois.</text>
                </lyric>
            </note>
            <barline location="right">
                <bar-style>light-light</bar-style>
                <ending type="discontinue" number="1, 2"></ending>
            </barline>
        </measure>
        <measure width="118.49" number="19">
            <print new-system="yes">
                <system-layout>
                    <system-margins>
                        <left-margin>46.81</left-margin>
                        <right-margin>-0.00</right-margin>
                    </system-margins>
                    <system-distance>125.44</system-distance>
                </system-layout>
            </print>
            <direction placement="above">
                <direction-type>
                    <words>(à voix parlée)</words>
                </direction-type>
            </direction>
            <note default-y="-30.00" default-x="74.53">
                <pitch>
                    <step>G</step>
                    <octave>4</octave>
                </pitch>
                <duration>2</duration>
                <voice>1</voice>
                <type>quarter</type>
                <stem>up</stem>
                <notehead>x</notehead>
                <lyric number="1">
                    <syllabic>single</syllabic>
                    <text>(Un,</text>
                </lyric>
                <lyric number="2">
                    <syllabic>single</syllabic>
                    <text>(Un,</text>
                </lyric>
            </note>
        </measure>
        <measure width="322.60" number="20">
            <note default-y="-30.00" default-x="28.75">
                <pitch>
                    <step>G</step>
                    <octave>4</octave>
                </pitch>
                <duration>2</duration>
                <voice>1</voice>
                <type>quarter</type>
                <stem>up</stem>
                <notehead>x</notehead>
                <lyric number="1">
                    <syllabic>single</syllabic>
                    <text>deux,</text>
                </lyric>
                <lyric number="2">
                    <syllabic>single</syllabic>
                    <text>deux,</text>
                </lyric>
            </note>
            <note default-y="-30.00" default-x="91.07">
                <pitch>
                    <step>G</step>
                    <octave>4</octave>
                </pitch>
                <duration>2</duration>
                <voice>1</voice>
                <type>quarter</type>
                <stem>up</stem>
                <notehead>x</notehead>
                <lyric number="1">
                    <syllabic>single</syllabic>
                    <text>trois,</text>
                </lyric>
                <lyric number="2">
                    <syllabic>single</syllabic>
                    <text>troix,</text>
                </lyric>
            </note>
            <note default-y="-30.00" default-x="153.38">
                <pitch>
                    <step>G</step>
                    <octave>4</octave>
                </pitch>
                <duration>1</duration>
                <voice>1</voice>
                <type>eighth</type>
                <stem>up</stem>
                <notehead>x</notehead>
                <beam number="1">begin</beam>
                <lyric number="1">
                    <syllabic>begin</syllabic>
                    <text>Voi</text>
                </lyric>
                <lyric number="2">
                    <syllabic>begin</syllabic>
                    <text>Sa</text>
                </lyric>
            </note>
            <note default-y="-30.00" default-x="192.33">
                <pitch>
                    <step>G</step>
                    <octave>4</octave>
                </pitch>
                <duration>1</duration>
                <voice>1</voice>
                <type>eighth</type>
                <stem>up</stem>
                <notehead>x</notehead>
                <beam number="1">continue</beam>
                <lyric number="1">
                    <syllabic>end</syllabic>
                    <text>là</text>
                </lyric>
                <lyric number="2">
                    <syllabic>middle</syllabic>
                    <text>vez</text>
                </lyric>
            </note>
            <note default-y="-30.00" default-x="233.47">
                <pitch>
                    <step>G</step>
                    <octave>4</octave>
                </pitch>
                <duration>1</duration>
                <voice>1</voice>
                <type>eighth</type>
                <stem>up</stem>
                <notehead>x</notehead>
                <beam number="1">continue</beam>
                <lyric number="1">
                    <syllabic>single</syllabic>
                    <text>ce</text>
                </lyric>
                <lyric number="2">
                    <syllabic>end</syllabic>
                    <text>vous</text>
                </lyric>
            </note>
            <note default-y="-30.00" default-x="282.05">
                <pitch>
                    <step>G</step>
                    <octave>4</octave>
                </pitch>
                <duration>1</duration>
                <voice>1</voice>
                <type>eighth</type>
                <stem>up</stem>
                <notehead>x</notehead>
                <beam number="1">end</beam>
                <lyric number="1">
                    <syllabic>single</syllabic>
                    <text>qu'il</text>
                </lyric>
                <lyric number="2">
                    <syllabic>single</syllabic>
                    <text>c'qui</text>
                </lyric>
            </note>
        </measure>
        <measure width="349.82" number="21">
            <note default-y="-30.00" default-x="14.65">
                <pitch>
                    <step>G</step>
                    <octave>4</octave>
                </pitch>
                <duration>1</duration>
                <voice>1</voice>
                <type>eighth</type>
                <stem>up</stem>
                <notehead>x</notehead>
                <beam number="1">begin</beam>
                <lyric number="1">
                    <syllabic>begin</syllabic>
                    <text>ar</text>
                </lyric>
                <lyric number="2">
                    <syllabic>begin</syllabic>
                    <text>ar</text>
                </lyric>
            </note>
            <note default-y="-30.00" default-x="48.72">
                <pitch>
                    <step>G</step>
                    <octave>4</octave>
                </pitch>
                <duration>1</duration>
                <voice>1</voice>
                <type>eighth</type>
                <stem>up</stem>
                <notehead>x</notehead>
                <beam number="1">end</beam>
                <lyric number="1">
                    <syllabic>middle</syllabic>
                    <text>ri</text>
                </lyric>
                <lyric number="2">
                    <syllabic>middle</syllabic>
                    <text>ri</text>
                </lyric>
            </note>
            <note default-y="-30.00" default-x="86.95">
                <pitch>
                    <step>G</step>
                    <octave>4</octave>
                </pitch>
                <duration>2</duration>
                <voice>1</voice>
                <type>quarter</type>
                <stem>up</stem>
                <notehead>x</notehead>
                <lyric number="1">
                    <syllabic>end</syllabic>
                    <text>va!)</text>
                </lyric>
                <lyric number="2">
                    <syllabic>end</syllabic>
                    <text>va?)</text>
                </lyric>
            </note>
            <note>
                <rest/>
                <duration>1</duration>
                <voice>1</voice>
                <type>eighth</type>
            </note>
            <note default-y="-40.00" default-x="188.75">
                <pitch>
                    <step>E</step>
                    <octave>4</octave>
                </pitch>
                <duration>1</duration>
                <voice>1</voice>
                <type>eighth</type>
                <stem>up</stem>
                <beam number="1">begin</beam>
                <lyric number="1">
                    <syllabic>single</syllabic>
                    <text>2.  Elle</text>
                </lyric>
                <lyric number="2">
                    <syllabic>single</syllabic>
                    <text>3.  Elle</text>
                </lyric>
            </note>
            <note default-y="-40.00" default-x="244.63">
                <pitch>
                    <step>E</step>
                    <octave>4</octave>
                </pitch>
                <duration>1</duration>
                <voice>1</voice>
                <type>eighth</type>
                <stem>up</stem>
                <beam number="1">continue</beam>
                <lyric number="1">
                    <syllabic>single</syllabic>
                    <text>ne</text>
                </lyric>
                <lyric number="2">
                    <syllabic>single</syllabic>
                    <text>doit</text>
                </lyric>
            </note>
            <note default-y="-35.00" default-x="295.96">
                <pitch>
                    <step>F</step>
                    <octave>4</octave>
                </pitch>
                <duration>1</duration>
                <voice>1</voice>
                <type>eighth</type>
                <stem>up</stem>
                <beam number="1">end</beam>
                <lyric number="1">
                    <syllabic>begin</syllabic>
                    <text>songe</text>
                </lyric>
                <lyric number="2">
                    <syllabic>begin</syllabic>
                    <text>maint'</text>
                </lyric>
            </note>
            <barline location="right">
                <bar-style>light-heavy</bar-style>
                <repeat direction="backward"/>
            </barline>
        </measure>
        <measure width="239.44" number="22">
            <barline location="left">
                <ending type="start" number="3"></ending>
            </barline>
            <harmony print-frame="no">
                <root>
                    <root-step>G</root-step>
                </root>
                <kind text="7">dominant</kind>
            </harmony>
            <note default-y="-35.00" default-x="29.07">
                <pitch>
                    <step>F</step>
                    <octave>4</octave>
                </pitch>
                <duration>1</duration>
                <voice>1</voice>
                <type>eighth</type>
                <stem>up</stem>
                <lyric number="1">
                    <syllabic>end</syllabic>
                    <text>jaune</text>
                </lyric>
            </note>
            <note default-y="-40.00" default-x="71.74">
                <pitch>
                    <step>E</step>
                    <octave>4</octave>
                </pitch>
                <duration>2</duration>
                <voice>1</voice>
                <type>quarter</type>
                <stem>up</stem>
                <lyric number="1">
                    <syllabic>single</syllabic>
                    <text>à</text>
                </lyric>
            </note>
            <note default-y="-45.00" default-x="140.01">
                <pitch>
                    <step>D</step>
                    <octave>4</octave>
                </pitch>
                <duration>1</duration>
                <voice>1</voice>
                <type>eighth</type>
                <stem>up</stem>
                <beam number="1">begin</beam>
                <lyric number="1">
                    <syllabic>single</syllabic>
                    <text>p'tits</text>
                </lyric>
            </note>
            <note default-y="-50.00" default-x="189.17">
                <pitch>
                    <step>C</step>
                    <octave>4</octave>
                </pitch>
                <duration>1</duration>
                <voice>1</voice>
                <type>eighth</type>
                <stem>up</stem>
                <beam number="1">end</beam>
                <notations>
                    <fermata type="upright"></fermata>
                </notations>
                <lyric number="1">
                    <syllabic>single</syllabic>
                    <text>pois.</text>
                </lyric>
            </note>
            <barline location="right">
                <bar-style>light-heavy</bar-style>
                <ending type="stop" number="3"></ending>
            </barline>
        </measure>
    </part>
</score-partwise>
