<?xml version="1.0" encoding="UTF-8"?>
<!DOCTYPE score-partwise PUBLIC "-//Recordare//DTD MusicXML 2.0 Partwise//EN" "http://www.musicxml.org/dtds/partwise.dtd">
<score-partwise version="2.0">
    <work>
        <work-number></work-number>
        <work-title></work-title>
    </work>
    <movement-number></movement-number>
    <movement-title>Estrellita (Little Star)</movement-title>
    <identification>
        <creator type="composer">Manuel María Ponce Cuéllar</creator>
        <creator type="poet">Manuel María Ponce Cuéllar</creator>
        <rights>All Rights Reserved</rights>
        <encoding>
            <software>Notation Composer 2, 6, 3, 0</software>
            <software>ProxyMusic 2.0 c</software>
        </encoding>
        <source>http://wikifonia.org/node/17372/revisions/23023/view</source>
        <miscellaneous>
            <miscellaneous-field name="other">Ponce_Estrellita
Tempo Track</miscellaneous-field>
        </miscellaneous>
    </identification>
    <defaults>
        <scaling>
            <millimeters>8.64</millimeters>
            <tenths>40</tenths>
        </scaling>
        <page-layout>
            <page-height>1293</page-height>
            <page-width>999</page-width>
            <page-margins type="both">
                <left-margin>59</left-margin>
                <right-margin>59</right-margin>
                <top-margin>59</top-margin>
                <bottom-margin>59</bottom-margin>
            </page-margins>
        </page-layout>
        <music-font font-size="12" font-family="Harmony"/>
        <word-font font-size="12" font-family="Times New Roman"/>
        <lyric-font font-size="12" font-family="Arial"/>
    </defaults>
    <credit>
        <credit-words font-weight="bold" font-size="20" font-family="Times New Roman" default-y="1266" default-x="444" valign="top">Estrellita</credit-words>
    </credit>
    <part-list>
        <part-group type="start" number="1">
            <group-symbol></group-symbol>
            <group-barline></group-barline>
        </part-group>
        <score-part id="T69346816">
            <part-name>untitled</part-name>
            <part-abbreviation>untitled</part-abbreviation>
            <score-instrument id="IT69346816">
                <instrument-name>untitled</instrument-name>
            </score-instrument>
            <midi-instrument id="IT69346816">
                <midi-channel>1</midi-channel>
                <midi-bank>0</midi-bank>
                <midi-program>25</midi-program>
            </midi-instrument>
        </score-part>
        <part-group type="stop" number="1"/>
    </part-list>
    <part id="T69346816">
        <measure width="214" number="1">
            <print>
                <system-layout>
                    <system-margins>
                        <left-margin>11</left-margin>
                        <right-margin>0</right-margin>
                    </system-margins>
                    <top-system-distance>180</top-system-distance>
                </system-layout>
            </print>
            <attributes>
                <divisions>480</divisions>
                <key>
                    <fifths>-1</fifths>
                </key>
                <time>
                    <beats>2</beats>
                    <beat-type>4</beat-type>
                </time>
                <clef>
                    <sign>G</sign>
                    <line>2</line>
                </clef>
                <staff-details print-object="yes"/>
            </attributes>
            <note default-x="79">
                <rest/>
                <duration>480</duration>
                <type>quarter</type>
            </note>
            <harmony default-y="25">
                <root>
                    <root-step>C</root-step>
                    <root-alter>-1</root-alter>
                </root>
                <kind use-symbols="no" text="minMaj7">minMaj7</kind>
            </harmony>
            <note default-x="134">
                <rest/>
                <duration>360</duration>
                <type>eighth</type>
                <dot/>
            </note>
            <note default-x="190" release="-5" dynamics="86">
                <pitch>
                    <step>C</step>
                    <octave>4</octave>
                </pitch>
                <duration>120</duration>
                <type>16th</type>
                <stem default-y="-15">up</stem>
            </note>
        </measure>
        <measure width="170" number="2">
            <attributes>
                <staff-details print-object="yes"/>
            </attributes>
            <harmony default-y="25">
                <root>
                    <root-step>F</root-step>
                </root>
                <kind use-symbols="no" text="maj7">maj7</kind>
            </harmony>
            <note default-x="50" release="-80" dynamics="86">
                <pitch>
                    <step>E</step>
                    <octave>4</octave>
                </pitch>
                <duration>480</duration>
                <type>quarter</type>
                <stem default-y="-5">up</stem>
            </note>
            <note default-x="87" release="-5" dynamics="86">
                <pitch>
                    <step>F</step>
                    <octave>4</octave>
                </pitch>
                <duration>240</duration>
                <type>eighth</type>
                <stem default-y="0">up</stem>
                <beam number="1">begin</beam>
            </note>
            <note default-x="110" release="-5" dynamics="86">
                <pitch>
                    <step>A</step>
                    <octave>4</octave>
                </pitch>
                <duration>120</duration>
                <type>16th</type>
                <stem default-y="10">up</stem>
                <beam number="1">continue</beam>
                <beam number="2">begin</beam>
            </note>
            <harmony default-y="25">
                <root>
                    <root-step>A</root-step>
                </root>
                <kind use-symbols="no" text="min">min</kind>
            </harmony>
            <note default-x="130" release="-5" dynamics="86">
                <pitch>
                    <step>C</step>
                    <octave>5</octave>
                </pitch>
                <duration>120</duration>
                <type>16th</type>
                <stem default-y="20">up</stem>
                <beam number="1">end</beam>
                <beam number="2">continue</beam>
            </note>
        </measure>
        <measure width="87" number="3">
            <attributes>
                <staff-details print-object="yes"/>
            </attributes>
            <note default-x="19" release="-80" dynamics="86">
                <pitch>
                    <step>G</step>
                    <octave>5</octave>
                </pitch>
                <duration>720</duration>
                <type>quarter</type>
                <dot/>
                <stem default-y="-30">down</stem>
            </note>
            <note default-x="58" release="-5" dynamics="86">
                <pitch>
                    <step>F</step>
                    <octave>5</octave>
                </pitch>
                <duration>240</duration>
                <type>eighth</type>
                <stem default-y="-35">down</stem>
            </note>
        </measure>
        <measure width="157" number="4">
            <attributes>
                <staff-details print-object="yes"/>
            </attributes>
            <harmony default-y="25">
                <root>
                    <root-step>B</root-step>
                    <root-alter>-1</root-alter>
                </root>
                <kind use-symbols="no" text="maj7">maj7</kind>
            </harmony>
            <note default-x="56" release="-5" dynamics="86">
                <pitch>
                    <step>F</step>
                    <octave>5</octave>
                </pitch>
                <duration>360</duration>
                <type>eighth</type>
                <dot/>
                <stem default-y="-35">down</stem>
                <beam number="1">begin</beam>
            </note>
            <note default-x="100" release="-5" dynamics="86">
                <pitch>
                    <step>G</step>
                    <octave>4</octave>
                </pitch>
                <duration>120</duration>
                <type>16th</type>
                <stem default-y="-65">down</stem>
                <beam number="1">end</beam>
                <beam number="2">continue</beam>
            </note>
            <note default-x="118" release="-80" dynamics="86">
                <pitch>
                    <step>G</step>
                    <octave>4</octave>
                </pitch>
                <duration>480</duration>
                <type>quarter</type>
                <stem default-y="5">up</stem>
            </note>
        </measure>
        <measure width="135" number="5">
            <attributes>
                <staff-details print-object="yes"/>
            </attributes>
            <harmony default-y="25">
                <root>
                    <root-step>G</root-step>
                </root>
                <kind use-symbols="no" text="min">min</kind>
            </harmony>
            <note default-x="47">
                <rest/>
                <duration>480</duration>
                <type>quarter</type>
            </note>
            <note default-x="81">
                <rest/>
                <duration>240</duration>
                <type>eighth</type>
            </note>
            <note default-x="106" release="-5" dynamics="86">
                <pitch>
                    <step>C</step>
                    <octave>5</octave>
                </pitch>
                <duration>240</duration>
                <type>eighth</type>
                <stem default-y="-55">down</stem>
            </note>
            <note default-x="106" release="-5" dynamics="86">
                <chord/>
                <pitch>
                    <step>B</step>
                    <alter>-1</alter>
                    <octave>4</octave>
                </pitch>
                <duration>240</duration>
                <type>eighth</type>
                <stem default-y="-55">down</stem>
            </note>
        </measure>
        <measure width="135" number="6">
            <attributes>
                <staff-details print-object="yes"/>
            </attributes>
            <harmony default-y="25">
                <root>
                    <root-step>C</root-step>
                </root>
                <kind use-symbols="no" text="7">7</kind>
            </harmony>
            <note default-x="34" release="-5" dynamics="86">
                <pitch>
                    <step>D</step>
                    <octave>5</octave>
                </pitch>
                <duration>360</duration>
                <type>eighth</type>
                <dot/>
                <stem default-y="25">up</stem>
                <beam number="1">begin</beam>
            </note>
            <note default-x="62" release="-5" dynamics="86">
                <pitch>
                    <step>F</step>
                    <alter>1</alter>
                    <octave>4</octave>
                </pitch>
                <duration>120</duration>
                <type>16th</type>
                <accidental>sharp</accidental>
                <stem default-y="0">up</stem>
                <beam number="1">end</beam>
                <beam number="2">continue</beam>
            </note>
            <note default-x="82" release="-5" dynamics="86">
                <pitch>
                    <step>G</step>
                    <octave>4</octave>
                </pitch>
                <duration>360</duration>
                <type>eighth</type>
                <dot/>
                <stem default-y="5">up</stem>
                <beam number="1">begin</beam>
            </note>
            <note default-x="110" release="-5" dynamics="86">
                <pitch>
                    <step>A</step>
                    <octave>4</octave>
                </pitch>
                <duration>120</duration>
                <type>16th</type>
                <stem default-y="10">up</stem>
                <beam number="1">end</beam>
                <beam number="2">continue</beam>
            </note>
        </measure>
        <measure width="210" number="7">
            <print new-system="yes">
                <system-layout>
                    <system-margins>
                        <left-margin>11</left-margin>
                        <right-margin>0</right-margin>
                    </system-margins>
                    <system-distance>78</system-distance>
                </system-layout>
            </print>
            <attributes>
                <staff-details print-object="yes"/>
            </attributes>
            <harmony default-y="23">
                <root>
                    <root-step>G</root-step>
                </root>
                <kind use-symbols="no" text="min">min</kind>
            </harmony>
            <note default-x="102" release="-5" dynamics="86">
                <pitch>
                    <step>B</step>
                    <alter>-1</alter>
                    <octave>4</octave>
                </pitch>
                <duration>240</duration>
                <type>eighth</type>
                <stem default-y="-55">down</stem>
            </note>
            <note default-x="137">
                <rest/>
                <duration>480</duration>
                <type>quarter</type>
            </note>
            <note default-x="176" release="-5" dynamics="86">
                <pitch>
                    <step>D</step>
                    <octave>5</octave>
                </pitch>
                <duration>240</duration>
                <type>eighth</type>
                <stem default-y="-45">down</stem>
            </note>
        </measure>
        <measure width="195" number="8">
            <attributes>
                <staff-details print-object="yes"/>
            </attributes>
            <harmony default-y="23">
                <root>
                    <root-step>C</root-step>
                    <root-alter>-1</root-alter>
                </root>
                <kind use-symbols="no" text="dim">dim</kind>
            </harmony>
            <note default-x="52" release="-5" dynamics="86">
                <pitch>
                    <step>D</step>
                    <octave>5</octave>
                </pitch>
                <duration>360</duration>
                <type>eighth</type>
                <dot/>
                <stem default-y="-45">down</stem>
                <beam number="1">begin</beam>
            </note>
            <harmony default-y="23">
                <root>
                    <root-step>A</root-step>
                </root>
                <kind use-symbols="no" text="min">min</kind>
            </harmony>
            <note default-x="116" release="-5" dynamics="86">
                <pitch>
                    <step>E</step>
                    <octave>5</octave>
                </pitch>
                <duration>120</duration>
                <type>16th</type>
                <stem default-y="-40">down</stem>
                <beam number="1">end</beam>
                <beam number="2">continue</beam>
            </note>
            <note default-x="151" release="-80" dynamics="86">
                <pitch>
                    <step>C</step>
                    <octave>5</octave>
                </pitch>
                <duration>480</duration>
                <type>quarter</type>
                <stem default-y="-50">down</stem>
            </note>
        </measure>
        <measure width="220" number="9">
            <attributes>
                <staff-details print-object="yes"/>
            </attributes>
            <harmony default-y="23">
                <root>
                    <root-step>D</root-step>
                </root>
                <kind use-symbols="no" text="min">min</kind>
            </harmony>
            <note default-x="48" release="-5" dynamics="86">
                <pitch>
                    <step>C</step>
                    <octave>5</octave>
                </pitch>
                <duration>240</duration>
                <type>eighth</type>
                <stem default-y="20">up</stem>
                <beam number="1">begin</beam>
            </note>
            <note default-x="83" release="-7" dynamics="86">
                <pitch>
                    <step>C</step>
                    <octave>4</octave>
                </pitch>
                <duration>120</duration>
                <type>16th</type>
                <stem default-y="-15">up</stem>
                <beam number="1">continue</beam>
                <beam number="2">begin</beam>
            </note>
            <note default-x="105" release="-7" dynamics="75">
                <pitch>
                    <step>A</step>
                    <octave>4</octave>
                </pitch>
                <duration>120</duration>
                <tie type="start"/>
                <type>16th</type>
                <stem default-y="10">up</stem>
                <beam number="1">end</beam>
                <beam number="2">continue</beam>
                <notations>
                    <tied orientation="under" type="start"/>
                </notations>
            </note>
            <note default-x="142">
                <pitch>
                    <step>A</step>
                    <octave>4</octave>
                </pitch>
                <duration>120</duration>
                <tie type="stop"/>
                <type>16th</type>
                <stem default-y="10">up</stem>
                <notations>
                    <tied type="stop"/>
                </notations>
            </note>
            <note default-x="164">
                <rest/>
                <duration>240</duration>
                <type>eighth</type>
            </note>
            <note default-x="192" release="-5" dynamics="86">
                <pitch>
                    <step>A</step>
                    <octave>4</octave>
                </pitch>
                <duration>120</duration>
                <type>16th</type>
                <stem default-y="10">up</stem>
            </note>
        </measure>
        <measure width="146" number="10">
            <attributes>
                <staff-details print-object="yes"/>
            </attributes>
            <note default-x="29" release="-15" dynamics="75">
                <pitch>
                    <step>E</step>
                    <octave>4</octave>
                </pitch>
                <duration>480</duration>
                <type>quarter</type>
                <stem default-y="-5">up</stem>
            </note>
            <harmony default-y="23">
                <root>
                    <root-step>F</root-step>
                </root>
                <kind use-symbols="no" text=" "> </kind>
            </harmony>
            <note default-x="68" release="-5" dynamics="86">
                <pitch>
                    <step>F</step>
                    <octave>4</octave>
                </pitch>
                <duration>240</duration>
                <type>eighth</type>
                <stem default-y="0">up</stem>
                <beam number="1">begin</beam>
            </note>
            <note default-x="95" release="-5" dynamics="86">
                <pitch>
                    <step>A</step>
                    <octave>4</octave>
                </pitch>
                <duration>120</duration>
                <type>16th</type>
                <stem default-y="10">up</stem>
                <beam number="1">continue</beam>
                <beam number="2">begin</beam>
            </note>
            <note default-x="117" release="-5" dynamics="86">
                <pitch>
                    <step>C</step>
                    <octave>5</octave>
                </pitch>
                <duration>120</duration>
                <type>16th</type>
                <stem default-y="20">up</stem>
                <beam number="1">end</beam>
                <beam number="2">continue</beam>
            </note>
        </measure>
        <measure width="127" number="11">
            <attributes>
                <staff-details print-object="yes"/>
            </attributes>
            <note default-x="24" release="-80" dynamics="86">
                <pitch>
                    <step>A</step>
                    <octave>5</octave>
                </pitch>
                <duration>480</duration>
                <type>quarter</type>
                <stem default-y="-25">down</stem>
            </note>
            <harmony default-y="23">
                <root>
                    <root-step>A</root-step>
                </root>
                <kind use-symbols="no" text=" "> </kind>
            </harmony>
            <note default-x="63">
                <rest/>
                <duration>240</duration>
                <type>eighth</type>
            </note>
            <note default-x="91" release="-5" dynamics="86">
                <pitch>
                    <step>E</step>
                    <octave>5</octave>
                </pitch>
                <duration>240</duration>
                <type>eighth</type>
                <stem default-y="-40">down</stem>
            </note>
        </measure>
        <measure width="214" number="12">
            <print new-system="yes">
                <system-layout>
                    <system-margins>
                        <left-margin>11</left-margin>
                        <right-margin>0</right-margin>
                    </system-margins>
                    <system-distance>83</system-distance>
                </system-layout>
            </print>
            <attributes>
                <staff-details print-object="yes"/>
            </attributes>
            <harmony default-y="25">
                <root>
                    <root-step>B</root-step>
                    <root-alter>-1</root-alter>
                </root>
                <kind use-symbols="no" text="maj7">maj7</kind>
            </harmony>
            <note default-x="109" release="-5" dynamics="86">
                <pitch>
                    <step>G</step>
                    <octave>5</octave>
                </pitch>
                <duration>360</duration>
                <type>eighth</type>
                <dot/>
                <stem default-y="-30">down</stem>
                <beam number="1">begin</beam>
            </note>
            <note default-x="153" release="-5" dynamics="86">
                <pitch>
                    <step>F</step>
                    <octave>5</octave>
                </pitch>
                <duration>120</duration>
                <type>16th</type>
                <stem default-y="-35">down</stem>
                <beam number="1">end</beam>
                <beam number="2">continue</beam>
            </note>
            <note default-x="173" release="-80" dynamics="86">
                <pitch>
                    <step>G</step>
                    <octave>4</octave>
                </pitch>
                <duration>480</duration>
                <type>quarter</type>
                <stem default-y="5">up</stem>
            </note>
        </measure>
        <measure width="207" number="13">
            <attributes>
                <staff-details print-object="yes"/>
            </attributes>
            <harmony default-y="25">
                <root>
                    <root-step>G</root-step>
                </root>
                <kind use-symbols="no" text="min">min</kind>
            </harmony>
            <note default-x="47">
                <rest/>
                <duration>240</duration>
                <type>eighth</type>
            </note>
            <note default-x="81" release="-5" dynamics="86">
                <pitch>
                    <step>E</step>
                    <octave>5</octave>
                </pitch>
                <duration>120</duration>
                <type>16th</type>
                <stem default-y="-40">down</stem>
                <beam number="1">begin</beam>
                <beam number="2">begin</beam>
            </note>
            <note default-x="101" release="-5" dynamics="86">
                <pitch>
                    <step>G</step>
                    <octave>5</octave>
                </pitch>
                <duration>120</duration>
                <type>16th</type>
                <stem default-y="-30">down</stem>
                <beam number="1">end</beam>
                <beam number="2">continue</beam>
            </note>
            <note default-x="121" release="-5" dynamics="86">
                <pitch>
                    <step>F</step>
                    <octave>5</octave>
                </pitch>
                <duration>120</duration>
                <type>16th</type>
                <stem default-y="-35">down</stem>
                <beam number="1">begin</beam>
                <beam number="2">begin</beam>
            </note>
            <note default-x="141" release="-5" dynamics="86">
                <pitch>
                    <step>E</step>
                    <octave>5</octave>
                </pitch>
                <duration>120</duration>
                <type>16th</type>
                <stem default-y="-40">down</stem>
                <beam number="1">end</beam>
                <beam number="2">continue</beam>
            </note>
            <note default-x="161" release="-5" dynamics="86">
                <pitch>
                    <step>F</step>
                    <octave>5</octave>
                </pitch>
                <duration>120</duration>
                <type>16th</type>
                <stem default-y="-35">down</stem>
                <beam number="1">end</beam>
                <beam number="2">continue</beam>
            </note>
            <note default-x="181" release="-5" dynamics="86">
                <pitch>
                    <step>D</step>
                    <octave>5</octave>
                </pitch>
                <duration>120</duration>
                <type>16th</type>
                <stem default-y="-45">down</stem>
                <beam number="1">end</beam>
                <beam number="2">continue</beam>
            </note>
        </measure>
        <measure width="138" number="14">
            <attributes>
                <staff-details print-object="yes"/>
            </attributes>
            <harmony default-y="25">
                <root>
                    <root-step>F</root-step>
                </root>
                <kind use-symbols="no" text=" "> </kind>
            </harmony>
            <note default-x="28" release="-5" dynamics="86">
                <pitch>
                    <step>D</step>
                    <octave>5</octave>
                </pitch>
                <duration>360</duration>
                <type>eighth</type>
                <dot/>
                <stem default-y="-45">down</stem>
                <beam number="1">begin</beam>
            </note>
            <note default-x="58" release="-5" dynamics="86">
                <pitch>
                    <step>C</step>
                    <octave>5</octave>
                </pitch>
                <duration>120</duration>
                <type>16th</type>
                <stem default-y="-50">down</stem>
                <beam number="1">end</beam>
                <beam number="2">continue</beam>
            </note>
            <note default-x="78" release="-5" dynamics="86">
                <pitch>
                    <step>F</step>
                    <octave>5</octave>
                </pitch>
                <duration>360</duration>
                <type>eighth</type>
                <dot/>
                <stem default-y="-35">down</stem>
                <beam number="1">begin</beam>
            </note>
            <note default-x="108" release="-5" dynamics="86">
                <pitch>
                    <step>A</step>
                    <octave>4</octave>
                </pitch>
                <duration>120</duration>
                <type>16th</type>
                <stem default-y="-60">down</stem>
                <beam number="1">end</beam>
                <beam number="2">continue</beam>
            </note>
        </measure>
        <measure width="151" number="15">
            <attributes>
                <staff-details print-object="yes"/>
            </attributes>
            <harmony default-y="25">
                <root>
                    <root-step>C</root-step>
                </root>
                <kind use-symbols="no" text="7">7</kind>
            </harmony>
            <note default-x="45" release="-5" dynamics="86">
                <pitch>
                    <step>A</step>
                    <octave>4</octave>
                </pitch>
                <duration>240</duration>
                <type>eighth</type>
                <stem default-y="10">up</stem>
                <beam number="1">begin</beam>
            </note>
            <note default-x="70" release="-5" dynamics="86">
                <pitch>
                    <step>B</step>
                    <alter>-1</alter>
                    <octave>4</octave>
                </pitch>
                <duration>240</duration>
                <type>eighth</type>
                <stem default-y="15">up</stem>
                <beam number="1">continue</beam>
            </note>
            <note default-x="95" release="-5" dynamics="86">
                <pitch>
                    <step>D</step>
                    <octave>5</octave>
                </pitch>
                <duration>360</duration>
                <type>eighth</type>
                <dot/>
                <stem default-y="25">up</stem>
                <beam number="1">begin</beam>
            </note>
            <note default-x="125" release="-5" dynamics="86">
                <pitch>
                    <step>E</step>
                    <octave>4</octave>
                </pitch>
                <duration>120</duration>
                <type>16th</type>
                <stem default-y="-5">up</stem>
                <beam number="1">end</beam>
                <beam number="2">continue</beam>
            </note>
        </measure>
        <measure width="82" number="16">
            <attributes>
                <staff-details print-object="yes"/>
            </attributes>
            <harmony default-y="25">
                <root>
                    <root-step>F</root-step>
                </root>
                <kind use-symbols="no" text=" "> </kind>
            </harmony>
            <note default-x="28" release="-120" dynamics="86">
                <pitch>
                    <step>F</step>
                    <octave>4</octave>
                </pitch>
                <duration>960</duration>
                <type>half</type>
                <stem default-y="0">up</stem>
            </note>
        </measure>
        <measure width="105" number="17">
            <attributes>
                <staff-details print-object="yes"/>
            </attributes>
            <note default-x="13">
                <rest/>
                <duration>480</duration>
                <type>quarter</type>
            </note>
            <note default-x="48">
                <rest/>
                <duration>360</duration>
                <type>eighth</type>
                <dot/>
            </note>
            <note default-x="78" release="-5" dynamics="86">
                <pitch>
                    <step>C</step>
                    <octave>4</octave>
                </pitch>
                <duration>120</duration>
                <type>16th</type>
                <stem default-y="-15">up</stem>
            </note>
        </measure>
        <measure width="223" number="18">
            <print new-system="yes">
                <system-layout>
                    <system-margins>
                        <left-margin>11</left-margin>
                        <right-margin>0</right-margin>
                    </system-margins>
                    <system-distance>84</system-distance>
                </system-layout>
            </print>
            <attributes>
                <staff-details print-object="yes"/>
            </attributes>
            <harmony default-y="25">
                <root>
                    <root-step>F</root-step>
                </root>
                <kind use-symbols="no" text="maj7">maj7</kind>
            </harmony>
            <note default-x="102" release="-80" dynamics="86">
                <pitch>
                    <step>E</step>
                    <octave>4</octave>
                </pitch>
                <duration>480</duration>
                <type>quarter</type>
                <stem default-y="-5">up</stem>
            </note>
            <note default-x="139" release="-5" dynamics="86">
                <pitch>
                    <step>F</step>
                    <octave>4</octave>
                </pitch>
                <duration>240</duration>
                <type>eighth</type>
                <stem default-y="0">up</stem>
                <beam number="1">begin</beam>
            </note>
            <note default-x="162" release="-5" dynamics="86">
                <pitch>
                    <step>A</step>
                    <octave>4</octave>
                </pitch>
                <duration>120</duration>
                <type>16th</type>
                <stem default-y="10">up</stem>
                <beam number="1">continue</beam>
                <beam number="2">begin</beam>
            </note>
            <harmony default-y="25">
                <root>
                    <root-step>A</root-step>
                </root>
                <kind use-symbols="no" text="min">min</kind>
            </harmony>
            <note default-x="183" release="-5" dynamics="86">
                <pitch>
                    <step>C</step>
                    <octave>5</octave>
                </pitch>
                <duration>120</duration>
                <type>16th</type>
                <stem default-y="20">up</stem>
                <beam number="1">end</beam>
                <beam number="2">continue</beam>
            </note>
        </measure>
        <measure width="92" number="19">
            <attributes>
                <staff-details print-object="yes"/>
            </attributes>
            <note default-x="19" release="-80" dynamics="86">
                <pitch>
                    <step>G</step>
                    <octave>5</octave>
                </pitch>
                <duration>720</duration>
                <type>quarter</type>
                <dot/>
                <stem default-y="-30">down</stem>
            </note>
            <note default-x="59" release="-5" dynamics="86">
                <pitch>
                    <step>F</step>
                    <octave>5</octave>
                </pitch>
                <duration>240</duration>
                <type>eighth</type>
                <stem default-y="-35">down</stem>
            </note>
        </measure>
        <measure width="157" number="20">
            <attributes>
                <staff-details print-object="yes"/>
            </attributes>
            <harmony default-y="25">
                <root>
                    <root-step>B</root-step>
                    <root-alter>-1</root-alter>
                </root>
                <kind use-symbols="no" text="maj7">maj7</kind>
            </harmony>
            <note default-x="57" release="-5" dynamics="86">
                <pitch>
                    <step>F</step>
                    <octave>5</octave>
                </pitch>
                <duration>360</duration>
                <type>eighth</type>
                <dot/>
                <stem default-y="-35">down</stem>
                <beam number="1">begin</beam>
            </note>
            <note default-x="100" release="-5" dynamics="86">
                <pitch>
                    <step>G</step>
                    <octave>4</octave>
                </pitch>
                <duration>120</duration>
                <type>16th</type>
                <stem default-y="-65">down</stem>
                <beam number="1">end</beam>
                <beam number="2">continue</beam>
            </note>
            <note default-x="119" release="-80" dynamics="86">
                <pitch>
                    <step>G</step>
                    <octave>4</octave>
                </pitch>
                <duration>480</duration>
                <type>quarter</type>
                <stem default-y="5">up</stem>
            </note>
        </measure>
        <measure width="145" number="21">
            <attributes>
                <staff-details print-object="yes"/>
            </attributes>
            <harmony default-y="25">
                <root>
                    <root-step>G</root-step>
                </root>
                <kind use-symbols="no" text="min">min</kind>
            </harmony>
            <note default-x="57">
                <rest/>
                <duration>480</duration>
                <type>quarter</type>
            </note>
            <note default-x="91">
                <rest/>
                <duration>240</duration>
                <type>eighth</type>
            </note>
            <note default-x="116" release="-5" dynamics="86">
                <pitch>
                    <step>C</step>
                    <octave>5</octave>
                </pitch>
                <duration>240</duration>
                <type>eighth</type>
                <stem default-y="-55">down</stem>
            </note>
            <note default-x="116" release="-5" dynamics="86">
                <chord/>
                <pitch>
                    <step>B</step>
                    <alter>-1</alter>
                    <octave>4</octave>
                </pitch>
                <duration>240</duration>
                <type>eighth</type>
                <stem default-y="-55">down</stem>
            </note>
        </measure>
        <measure width="136" number="22">
            <attributes>
                <staff-details print-object="yes"/>
            </attributes>
            <harmony default-y="25">
                <root>
                    <root-step>C</root-step>
                </root>
                <kind use-symbols="no" text="7">7</kind>
            </harmony>
            <note default-x="34" release="-5" dynamics="86">
                <pitch>
                    <step>D</step>
                    <octave>5</octave>
                </pitch>
                <duration>360</duration>
                <type>eighth</type>
                <dot/>
                <stem default-y="25">up</stem>
                <beam number="1">begin</beam>
            </note>
            <note default-x="62" release="-5" dynamics="86">
                <pitch>
                    <step>F</step>
                    <alter>1</alter>
                    <octave>4</octave>
                </pitch>
                <duration>120</duration>
                <type>16th</type>
                <accidental>sharp</accidental>
                <stem default-y="0">up</stem>
                <beam number="1">end</beam>
                <beam number="2">continue</beam>
            </note>
            <note default-x="83" release="-5" dynamics="86">
                <pitch>
                    <step>G</step>
                    <octave>4</octave>
                </pitch>
                <duration>360</duration>
                <type>eighth</type>
                <dot/>
                <stem default-y="5">up</stem>
                <beam number="1">begin</beam>
            </note>
            <note default-x="111" release="-5" dynamics="86">
                <pitch>
                    <step>A</step>
                    <octave>4</octave>
                </pitch>
                <duration>120</duration>
                <type>16th</type>
                <stem default-y="10">up</stem>
                <beam number="1">end</beam>
                <beam number="2">continue</beam>
            </note>
        </measure>
        <measure width="144" number="23">
            <attributes>
                <staff-details print-object="yes"/>
            </attributes>
            <harmony default-y="25">
                <root>
                    <root-step>G</root-step>
                </root>
                <kind use-symbols="no" text="min">min</kind>
            </harmony>
            <note default-x="47" release="-5" dynamics="86">
                <pitch>
                    <step>B</step>
                    <alter>-1</alter>
                    <octave>4</octave>
                </pitch>
                <duration>240</duration>
                <type>eighth</type>
                <stem default-y="-55">down</stem>
            </note>
            <note default-x="81">
                <rest/>
                <duration>480</duration>
                <type>quarter</type>
            </note>
            <note default-x="114" release="-5" dynamics="86">
                <pitch>
                    <step>D</step>
                    <octave>5</octave>
                </pitch>
                <duration>240</duration>
                <type>eighth</type>
                <stem default-y="-45">down</stem>
            </note>
        </measure>
        <measure width="243" number="24">
            <print new-system="yes">
                <system-layout>
                    <system-margins>
                        <left-margin>11</left-margin>
                        <right-margin>0</right-margin>
                    </system-margins>
                    <system-distance>81</system-distance>
                </system-layout>
            </print>
            <attributes>
                <staff-details print-object="yes"/>
            </attributes>
            <harmony default-y="23">
                <root>
                    <root-step>C</root-step>
                    <root-alter>-1</root-alter>
                </root>
                <kind use-symbols="no" text="dim">dim</kind>
            </harmony>
            <note default-x="96" release="-5" dynamics="86">
                <pitch>
                    <step>D</step>
                    <octave>5</octave>
                </pitch>
                <duration>360</duration>
                <type>eighth</type>
                <dot/>
                <stem default-y="-45">down</stem>
                <beam number="1">begin</beam>
            </note>
            <harmony default-y="23">
                <root>
                    <root-step>A</root-step>
                </root>
                <kind use-symbols="no" text="min">min</kind>
            </harmony>
            <note default-x="159" release="-5" dynamics="86">
                <pitch>
                    <step>E</step>
                    <octave>5</octave>
                </pitch>
                <duration>120</duration>
                <type>16th</type>
                <stem default-y="-40">down</stem>
                <beam number="1">end</beam>
                <beam number="2">continue</beam>
            </note>
            <note default-x="194" release="-80" dynamics="86">
                <pitch>
                    <step>C</step>
                    <octave>5</octave>
                </pitch>
                <duration>480</duration>
                <type>quarter</type>
                <stem default-y="-50">down</stem>
            </note>
        </measure>
        <measure width="220" number="25">
            <attributes>
                <staff-details print-object="yes"/>
            </attributes>
            <harmony default-y="23">
                <root>
                    <root-step>D</root-step>
                </root>
                <kind use-symbols="no" text="min">min</kind>
            </harmony>
            <note default-x="48" release="-5" dynamics="86">
                <pitch>
                    <step>C</step>
                    <octave>5</octave>
                </pitch>
                <duration>240</duration>
                <type>eighth</type>
                <stem default-y="20">up</stem>
                <beam number="1">begin</beam>
            </note>
            <note default-x="83" release="-7" dynamics="86">
                <pitch>
                    <step>C</step>
                    <octave>4</octave>
                </pitch>
                <duration>120</duration>
                <type>16th</type>
                <stem default-y="-15">up</stem>
                <beam number="1">continue</beam>
                <beam number="2">begin</beam>
            </note>
            <note default-x="105" release="-7" dynamics="75">
                <pitch>
                    <step>A</step>
                    <octave>4</octave>
                </pitch>
                <duration>120</duration>
                <tie type="start"/>
                <type>16th</type>
                <stem default-y="10">up</stem>
                <beam number="1">end</beam>
                <beam number="2">continue</beam>
                <notations>
                    <tied orientation="under" type="start"/>
                </notations>
            </note>
            <note default-x="142">
                <pitch>
                    <step>A</step>
                    <octave>4</octave>
                </pitch>
                <duration>120</duration>
                <tie type="stop"/>
                <type>16th</type>
                <stem default-y="10">up</stem>
                <notations>
                    <tied type="stop"/>
                </notations>
            </note>
            <note default-x="164">
                <rest/>
                <duration>240</duration>
                <type>eighth</type>
            </note>
            <note default-x="192" release="-5" dynamics="86">
                <pitch>
                    <step>A</step>
                    <octave>4</octave>
                </pitch>
                <duration>120</duration>
                <type>16th</type>
                <stem default-y="10">up</stem>
            </note>
        </measure>
        <measure width="136" number="26">
            <attributes>
                <staff-details print-object="yes"/>
            </attributes>
            <note default-x="19" release="-15" dynamics="75">
                <pitch>
                    <step>E</step>
                    <octave>4</octave>
                </pitch>
                <duration>480</duration>
                <type>quarter</type>
                <stem default-y="-5">up</stem>
            </note>
            <harmony default-y="23">
                <root>
                    <root-step>F</root-step>
                </root>
                <kind use-symbols="no" text=" "> </kind>
            </harmony>
            <note default-x="57" release="-5" dynamics="86">
                <pitch>
                    <step>F</step>
                    <octave>4</octave>
                </pitch>
                <duration>240</duration>
                <type>eighth</type>
                <stem default-y="0">up</stem>
                <beam number="1">begin</beam>
            </note>
            <note default-x="85" release="-5" dynamics="86">
                <pitch>
                    <step>A</step>
                    <octave>4</octave>
                </pitch>
                <duration>120</duration>
                <type>16th</type>
                <stem default-y="10">up</stem>
                <beam number="1">continue</beam>
                <beam number="2">begin</beam>
            </note>
            <note default-x="107" release="-5" dynamics="86">
                <pitch>
                    <step>C</step>
                    <octave>5</octave>
                </pitch>
                <duration>120</duration>
                <type>16th</type>
                <stem default-y="20">up</stem>
                <beam number="1">end</beam>
                <beam number="2">continue</beam>
            </note>
        </measure>
        <measure width="125" number="27">
            <attributes>
                <staff-details print-object="yes"/>
            </attributes>
            <note default-x="24" release="-80" dynamics="86">
                <pitch>
                    <step>A</step>
                    <octave>5</octave>
                </pitch>
                <duration>480</duration>
                <type>quarter</type>
                <stem default-y="-25">down</stem>
            </note>
            <harmony default-y="23">
                <root>
                    <root-step>A</root-step>
                </root>
                <kind use-symbols="no" text=" "> </kind>
            </harmony>
            <note default-x="63">
                <rest/>
                <duration>240</duration>
                <type>eighth</type>
            </note>
            <note default-x="91" release="-5" dynamics="86">
                <pitch>
                    <step>E</step>
                    <octave>5</octave>
                </pitch>
                <duration>240</duration>
                <type>eighth</type>
                <stem default-y="-40">down</stem>
            </note>
        </measure>
        <measure width="173" number="28">
            <attributes>
                <staff-details print-object="yes"/>
            </attributes>
            <harmony default-y="23">
                <root>
                    <root-step>B</root-step>
                    <root-alter>-1</root-alter>
                </root>
                <kind use-symbols="no" text="maj7">maj7</kind>
            </harmony>
            <note default-x="58" release="-5" dynamics="86">
                <pitch>
                    <step>G</step>
                    <octave>5</octave>
                </pitch>
                <duration>360</duration>
                <type>eighth</type>
                <dot/>
                <stem default-y="-30">down</stem>
                <beam number="1">begin</beam>
            </note>
            <note default-x="104" release="-5" dynamics="86">
                <pitch>
                    <step>F</step>
                    <octave>5</octave>
                </pitch>
                <duration>120</duration>
                <type>16th</type>
                <stem default-y="-35">down</stem>
                <beam number="1">end</beam>
                <beam number="2">continue</beam>
            </note>
            <note default-x="126" release="-80" dynamics="86">
                <pitch>
                    <step>G</step>
                    <octave>4</octave>
                </pitch>
                <duration>480</duration>
                <type>quarter</type>
                <stem default-y="5">up</stem>
            </note>
        </measure>
        <measure width="254" number="29">
            <print new-system="yes">
                <system-layout>
                    <system-margins>
                        <left-margin>11</left-margin>
                        <right-margin>0</right-margin>
                    </system-margins>
                    <system-distance>80</system-distance>
                </system-layout>
            </print>
            <attributes>
                <staff-details print-object="yes"/>
            </attributes>
            <harmony default-y="25">
                <root>
                    <root-step>G</root-step>
                </root>
                <kind use-symbols="no" text="min">min</kind>
            </harmony>
            <note default-x="99">
                <rest/>
                <duration>240</duration>
                <type>eighth</type>
            </note>
            <note default-x="133" release="-5" dynamics="86">
                <pitch>
                    <step>E</step>
                    <octave>5</octave>
                </pitch>
                <duration>120</duration>
                <type>16th</type>
                <stem default-y="-40">down</stem>
                <beam number="1">begin</beam>
                <beam number="2">begin</beam>
            </note>
            <note default-x="152" release="-5" dynamics="86">
                <pitch>
                    <step>G</step>
                    <octave>5</octave>
                </pitch>
                <duration>120</duration>
                <type>16th</type>
                <stem default-y="-30">down</stem>
                <beam number="1">end</beam>
                <beam number="2">continue</beam>
            </note>
            <note default-x="171" release="-5" dynamics="86">
                <pitch>
                    <step>F</step>
                    <octave>5</octave>
                </pitch>
                <duration>120</duration>
                <type>16th</type>
                <stem default-y="-35">down</stem>
                <beam number="1">begin</beam>
                <beam number="2">begin</beam>
            </note>
            <note default-x="190" release="-5" dynamics="86">
                <pitch>
                    <step>E</step>
                    <octave>5</octave>
                </pitch>
                <duration>120</duration>
                <type>16th</type>
                <stem default-y="-40">down</stem>
                <beam number="1">end</beam>
                <beam number="2">continue</beam>
            </note>
            <note default-x="210" release="-5" dynamics="86">
                <pitch>
                    <step>F</step>
                    <octave>5</octave>
                </pitch>
                <duration>120</duration>
                <type>16th</type>
                <stem default-y="-35">down</stem>
                <beam number="1">end</beam>
                <beam number="2">continue</beam>
            </note>
            <note default-x="229" release="-5" dynamics="86">
                <pitch>
                    <step>D</step>
                    <octave>5</octave>
                </pitch>
                <duration>120</duration>
                <type>16th</type>
                <stem default-y="-45">down</stem>
                <beam number="1">end</beam>
                <beam number="2">continue</beam>
            </note>
        </measure>
        <measure width="140" number="30">
            <attributes>
                <staff-details print-object="yes"/>
            </attributes>
            <harmony default-y="25">
                <root>
                    <root-step>F</root-step>
                </root>
                <kind use-symbols="no" text=" "> </kind>
            </harmony>
            <note default-x="38" release="-5" dynamics="86">
                <pitch>
                    <step>D</step>
                    <octave>5</octave>
                </pitch>
                <duration>360</duration>
                <type>eighth</type>
                <dot/>
                <stem default-y="-45">down</stem>
                <beam number="1">begin</beam>
            </note>
            <note default-x="67" release="-5" dynamics="86">
                <pitch>
                    <step>C</step>
                    <octave>5</octave>
                </pitch>
                <duration>120</duration>
                <type>16th</type>
                <stem default-y="-50">down</stem>
                <beam number="1">end</beam>
                <beam number="2">continue</beam>
            </note>
            <note default-x="86" release="-5" dynamics="86">
                <pitch>
                    <step>F</step>
                    <octave>5</octave>
                </pitch>
                <duration>360</duration>
                <type>eighth</type>
                <dot/>
                <stem default-y="-35">down</stem>
                <beam number="1">begin</beam>
            </note>
            <note default-x="115" release="-5" dynamics="86">
                <pitch>
                    <step>A</step>
                    <octave>4</octave>
                </pitch>
                <duration>120</duration>
                <type>16th</type>
                <stem default-y="-60">down</stem>
                <beam number="1">end</beam>
                <beam number="2">continue</beam>
            </note>
        </measure>
        <measure width="147" number="31">
            <attributes>
                <staff-details print-object="yes"/>
            </attributes>
            <harmony default-y="25">
                <root>
                    <root-step>C</root-step>
                </root>
                <kind use-symbols="no" text="7">7</kind>
            </harmony>
            <note default-x="45" release="-5" dynamics="86">
                <pitch>
                    <step>A</step>
                    <octave>4</octave>
                </pitch>
                <duration>240</duration>
                <type>eighth</type>
                <stem default-y="10">up</stem>
                <beam number="1">begin</beam>
            </note>
            <note default-x="69" release="-5" dynamics="86">
                <pitch>
                    <step>B</step>
                    <alter>-1</alter>
                    <octave>4</octave>
                </pitch>
                <duration>240</duration>
                <type>eighth</type>
                <stem default-y="15">up</stem>
                <beam number="1">continue</beam>
            </note>
            <note default-x="93" release="-5" dynamics="86">
                <pitch>
                    <step>D</step>
                    <octave>5</octave>
                </pitch>
                <duration>360</duration>
                <type>eighth</type>
                <dot/>
                <stem default-y="25">up</stem>
                <beam number="1">begin</beam>
            </note>
            <note default-x="121" release="-5" dynamics="86">
                <pitch>
                    <step>E</step>
                    <octave>4</octave>
                </pitch>
                <duration>120</duration>
                <type>16th</type>
                <stem default-y="-5">up</stem>
                <beam number="1">end</beam>
                <beam number="2">continue</beam>
            </note>
        </measure>
        <measure width="80" number="32">
            <attributes>
                <staff-details print-object="yes"/>
            </attributes>
            <harmony default-y="25">
                <root>
                    <root-step>F</root-step>
                </root>
                <kind use-symbols="no" text=" "> </kind>
            </harmony>
            <note default-x="28" release="-120" dynamics="86">
                <pitch>
                    <step>F</step>
                    <octave>4</octave>
                </pitch>
                <duration>960</duration>
                <type>half</type>
                <stem default-y="0">up</stem>
            </note>
        </measure>
        <measure width="108" number="33">
            <attributes>
                <staff-details print-object="yes"/>
            </attributes>
            <harmony default-y="25">
                <root>
                    <root-step>B</root-step>
                    <root-alter>-1</root-alter>
                </root>
                <kind use-symbols="no" text=" "> </kind>
            </harmony>
            <note default-x="35">
                <rest/>
                <duration>480</duration>
                <type>quarter</type>
            </note>
            <note default-x="68" release="-80" dynamics="86">
                <pitch>
                    <step>B</step>
                    <alter>-1</alter>
                    <octave>4</octave>
                </pitch>
                <duration>480</duration>
                <type>quarter</type>
                <stem default-y="-50">down</stem>
            </note>
        </measure>
        <measure width="169" number="34">
            <attributes>
                <staff-details print-object="yes"/>
            </attributes>
            <harmony default-y="25">
                <root>
                    <root-step>D</root-step>
                </root>
                <kind use-symbols="no" text="7">7</kind>
            </harmony>
            <note default-x="34" release="-5" dynamics="86">
                <pitch>
                    <step>A</step>
                    <octave>4</octave>
                </pitch>
                <duration>240</duration>
                <type>eighth</type>
                <stem default-y="10">up</stem>
                <beam number="1">begin</beam>
            </note>
            <note default-x="70" release="-5" dynamics="86">
                <pitch>
                    <step>F</step>
                    <alter>1</alter>
                    <octave>4</octave>
                </pitch>
                <duration>120</duration>
                <type>16th</type>
                <accidental>sharp</accidental>
                <stem default-y="0">up</stem>
                <beam number="1">continue</beam>
                <beam number="2">begin</beam>
            </note>
            <harmony default-y="25">
                <root>
                    <root-step>G</root-step>
                </root>
                <kind use-symbols="no" text="min">min</kind>
            </harmony>
            <note default-x="90" release="-5" dynamics="86">
                <pitch>
                    <step>G</step>
                    <octave>4</octave>
                </pitch>
                <duration>120</duration>
                <type>16th</type>
                <stem default-y="5">up</stem>
                <beam number="1">end</beam>
                <beam number="2">continue</beam>
            </note>
            <note default-x="125" release="-80" dynamics="86">
                <pitch>
                    <step>D</step>
                    <octave>5</octave>
                </pitch>
                <duration>480</duration>
                <tie type="start"/>
                <type>quarter</type>
                <stem default-y="-45">down</stem>
                <notations>
                    <tied orientation="over" type="start"/>
                </notations>
            </note>
        </measure>
        <measure width="193" number="35">
            <print new-system="yes">
                <system-layout>
                    <system-margins>
                        <left-margin>11</left-margin>
                        <right-margin>0</right-margin>
                    </system-margins>
                    <system-distance>82</system-distance>
                </system-layout>
            </print>
            <attributes>
                <staff-details print-object="yes"/>
            </attributes>
            <harmony default-y="23">
                <root>
                    <root-step>C</root-step>
                </root>
                <kind use-symbols="no" text="7">7</kind>
            </harmony>
            <note default-x="93">
                <pitch>
                    <step>D</step>
                    <octave>5</octave>
                </pitch>
                <duration>480</duration>
                <tie type="stop"/>
                <type>quarter</type>
                <stem default-y="-45">down</stem>
                <notations>
                    <tied type="stop"/>
                </notations>
            </note>
            <note default-x="132" release="-5" dynamics="86">
                <pitch>
                    <step>C</step>
                    <octave>5</octave>
                </pitch>
                <duration>240</duration>
                <type>eighth</type>
                <stem default-y="-50">down</stem>
                <beam number="1">begin</beam>
            </note>
            <note default-x="159" release="-5" dynamics="86">
                <pitch>
                    <step>A</step>
                    <octave>4</octave>
                </pitch>
                <duration>240</duration>
                <type>eighth</type>
                <stem default-y="-60">down</stem>
                <beam number="1">continue</beam>
            </note>
        </measure>
        <measure width="134" number="36">
            <attributes>
                <staff-details print-object="yes"/>
            </attributes>
            <note default-x="19" release="-5" dynamics="86">
                <pitch>
                    <step>G</step>
                    <octave>4</octave>
                </pitch>
                <duration>240</duration>
                <type>eighth</type>
                <stem default-y="5">up</stem>
                <beam number="1">begin</beam>
            </note>
            <note default-x="46" release="-5" dynamics="86">
                <pitch>
                    <step>A</step>
                    <octave>4</octave>
                </pitch>
                <duration>120</duration>
                <type>16th</type>
                <stem default-y="10">up</stem>
                <beam number="1">continue</beam>
                <beam number="2">begin</beam>
            </note>
            <note default-x="68" release="-1" dynamics="86">
                <pitch>
                    <step>F</step>
                    <octave>4</octave>
                </pitch>
                <duration>120</duration>
                <type>16th</type>
                <stem default-y="0">up</stem>
                <beam number="1">end</beam>
                <beam number="2">continue</beam>
            </note>
            <harmony default-y="23">
                <root>
                    <root-step>F</root-step>
                </root>
                <kind use-symbols="no" text=" "> </kind>
            </harmony>
            <note default-x="90" release="-15" dynamics="86">
                <pitch>
                    <step>C</step>
                    <octave>4</octave>
                </pitch>
                <duration>480</duration>
                <type>quarter</type>
                <stem default-y="-15">up</stem>
            </note>
        </measure>
        <measure width="96" number="37">
            <attributes>
                <staff-details print-object="yes"/>
            </attributes>
            <note default-x="13">
                <rest/>
                <duration>480</duration>
                <type>quarter</type>
            </note>
            <harmony default-y="23">
                <root>
                    <root-step>B</root-step>
                    <root-alter>-1</root-alter>
                </root>
                <kind use-symbols="no" text=" "> </kind>
            </harmony>
            <note default-x="52" release="-80" dynamics="86">
                <pitch>
                    <step>B</step>
                    <alter>-1</alter>
                    <octave>4</octave>
                </pitch>
                <duration>480</duration>
                <type>quarter</type>
                <stem default-y="-50">down</stem>
            </note>
        </measure>
        <measure width="167" number="38">
            <attributes>
                <staff-details print-object="yes"/>
            </attributes>
            <harmony default-y="23">
                <root>
                    <root-step>G</root-step>
                    <root-alter>-1</root-alter>
                </root>
                <kind use-symbols="no" text="aug">aug</kind>
            </harmony>
            <note default-x="42" release="-5" dynamics="86">
                <pitch>
                    <step>A</step>
                    <octave>4</octave>
                </pitch>
                <duration>240</duration>
                <type>eighth</type>
                <stem default-y="10">up</stem>
                <beam number="1">begin</beam>
            </note>
            <note default-x="78" release="-5" dynamics="86">
                <pitch>
                    <step>F</step>
                    <alter>1</alter>
                    <octave>4</octave>
                </pitch>
                <duration>120</duration>
                <type>16th</type>
                <accidental>sharp</accidental>
                <stem default-y="0">up</stem>
                <beam number="1">continue</beam>
                <beam number="2">begin</beam>
            </note>
            <note default-x="100" release="-5" dynamics="86">
                <pitch>
                    <step>G</step>
                    <octave>4</octave>
                </pitch>
                <duration>120</duration>
                <type>16th</type>
                <stem default-y="5">up</stem>
                <beam number="1">end</beam>
                <beam number="2">continue</beam>
            </note>
            <note default-x="122" release="-80" dynamics="86">
                <pitch>
                    <step>B</step>
                    <alter>-1</alter>
                    <octave>4</octave>
                </pitch>
                <duration>480</duration>
                <type>quarter</type>
                <stem default-y="-50">down</stem>
            </note>
        </measure>
        <measure width="166" number="39">
            <attributes>
                <staff-details print-object="yes"/>
            </attributes>
            <harmony default-y="23">
                <root>
                    <root-step>A</root-step>
                </root>
                <kind use-symbols="no" text="min">min</kind>
            </harmony>
            <harmony relative-x="56" default-y="23">
                <root>
                    <root-step>C</root-step>
                </root>
                <kind use-symbols="no" text="7">7</kind>
            </harmony>
            <note default-x="48" release="-80" dynamics="86">
                <pitch>
                    <step>A</step>
                    <octave>4</octave>
                </pitch>
                <duration>720</duration>
                <type>quarter</type>
                <dot/>
                <stem default-y="10">up</stem>
            </note>
            <note default-x="127" release="-5" dynamics="86">
                <pitch>
                    <step>G</step>
                    <octave>4</octave>
                </pitch>
                <duration>240</duration>
                <type>eighth</type>
                <stem default-y="5">up</stem>
            </note>
        </measure>
        <measure width="141" number="40">
            <attributes>
                <staff-details print-object="yes"/>
            </attributes>
            <harmony default-y="23">
                <root>
                    <root-step>F</root-step>
                </root>
                <kind use-symbols="no" text=" "> </kind>
            </harmony>
            <note default-x="40" release="-5" dynamics="86">
                <pitch>
                    <step>B</step>
                    <alter>-1</alter>
                    <octave>4</octave>
                </pitch>
                <duration>360</duration>
                <type>eighth</type>
                <dot/>
                <stem default-y="15">up</stem>
                <beam number="1">begin</beam>
            </note>
            <note default-x="72" release="-5" dynamics="86">
                <pitch>
                    <step>A</step>
                    <octave>4</octave>
                </pitch>
                <duration>120</duration>
                <type>16th</type>
                <stem default-y="10">up</stem>
                <beam number="1">end</beam>
                <beam number="2">continue</beam>
            </note>
            <note default-x="94" release="-15" dynamics="86">
                <pitch>
                    <step>F</step>
                    <octave>4</octave>
                </pitch>
                <duration>480</duration>
                <tie type="start"/>
                <type>quarter</type>
                <stem default-y="0">up</stem>
                <notations>
                    <tied orientation="under" type="start"/>
                </notations>
            </note>
        </measure>
        <measure width="169" number="41">
            <print new-system="yes">
                <system-layout>
                    <system-margins>
                        <left-margin>11</left-margin>
                        <right-margin>0</right-margin>
                    </system-margins>
                    <system-distance>78</system-distance>
                </system-layout>
            </print>
            <attributes>
                <staff-details print-object="yes"/>
            </attributes>
            <harmony default-y="23">
                <root>
                    <root-step>C</root-step>
                </root>
                <kind use-symbols="no" text=" "> </kind>
            </harmony>
            <note default-x="81">
                <pitch>
                    <step>F</step>
                    <octave>4</octave>
                </pitch>
                <duration>480</duration>
                <tie type="stop"/>
                <type>quarter</type>
                <stem default-y="0">up</stem>
                <notations>
                    <tied type="stop"/>
                </notations>
            </note>
            <note default-x="115">
                <rest/>
                <duration>240</duration>
                <type>eighth</type>
            </note>
            <note default-x="139" release="-5" dynamics="86">
                <pitch>
                    <step>C</step>
                    <octave>4</octave>
                </pitch>
                <duration>240</duration>
                <type>eighth</type>
                <stem default-y="-15">up</stem>
            </note>
        </measure>
        <measure width="153" number="42">
            <attributes>
                <staff-details print-object="yes"/>
            </attributes>
            <harmony relative-x="33" default-y="23">
                <root>
                    <root-step>F</root-step>
                </root>
                <kind use-symbols="no" text=" "> </kind>
            </harmony>
            <note default-x="18" release="-80" dynamics="86">
                <pitch>
                    <step>E</step>
                    <octave>4</octave>
                </pitch>
                <duration>480</duration>
                <type>quarter</type>
                <stem default-y="-5">up</stem>
            </note>
            <note default-x="69" release="-5" dynamics="86">
                <pitch>
                    <step>F</step>
                    <octave>4</octave>
                </pitch>
                <duration>240</duration>
                <type>eighth</type>
                <stem default-y="0">up</stem>
                <beam number="1">begin</beam>
            </note>
            <note default-x="93" release="-5" dynamics="86">
                <pitch>
                    <step>A</step>
                    <octave>4</octave>
                </pitch>
                <duration>120</duration>
                <type>16th</type>
                <stem default-y="10">up</stem>
                <beam number="1">continue</beam>
                <beam number="2">begin</beam>
            </note>
            <harmony default-y="23">
                <root>
                    <root-step>A</root-step>
                </root>
                <kind use-symbols="no" text="min">min</kind>
            </harmony>
            <note default-x="113" release="-5" dynamics="86">
                <pitch>
                    <step>C</step>
                    <octave>5</octave>
                </pitch>
                <duration>120</duration>
                <type>16th</type>
                <stem default-y="20">up</stem>
                <beam number="1">end</beam>
                <beam number="2">continue</beam>
            </note>
        </measure>
        <measure width="112" number="43">
            <attributes>
                <staff-details print-object="yes"/>
            </attributes>
            <note default-x="24" release="-80" dynamics="86">
                <pitch>
                    <step>A</step>
                    <octave>5</octave>
                </pitch>
                <duration>480</duration>
                <type>quarter</type>
                <stem default-y="-25">down</stem>
            </note>
            <note default-x="57">
                <rest/>
                <duration>240</duration>
                <type>eighth</type>
            </note>
            <note default-x="81" release="-5" dynamics="86">
                <pitch>
                    <step>E</step>
                    <octave>5</octave>
                </pitch>
                <duration>240</duration>
                <type>eighth</type>
                <stem default-y="-40">down</stem>
            </note>
        </measure>
        <measure width="157" number="44">
            <attributes>
                <staff-details print-object="yes"/>
            </attributes>
            <harmony default-y="23">
                <root>
                    <root-step>E</root-step>
                </root>
                <kind use-symbols="no" text="dim">dim</kind>
            </harmony>
            <note default-x="40" release="-5" dynamics="86">
                <pitch>
                    <step>G</step>
                    <octave>5</octave>
                </pitch>
                <duration>360</duration>
                <type>eighth</type>
                <dot/>
                <stem default-y="-30">down</stem>
                <beam number="1">begin</beam>
            </note>
            <note default-x="69" release="-5" dynamics="86">
                <pitch>
                    <step>F</step>
                    <octave>5</octave>
                </pitch>
                <duration>120</duration>
                <type>16th</type>
                <stem default-y="-35">down</stem>
                <beam number="1">end</beam>
                <beam number="2">continue</beam>
            </note>
            <harmony default-y="23">
                <root>
                    <root-step>D</root-step>
                </root>
                <kind use-symbols="no" text="min">min</kind>
            </harmony>
            <note default-x="103" release="-80" dynamics="86">
                <pitch>
                    <step>G</step>
                    <octave>4</octave>
                </pitch>
                <duration>480</duration>
                <type>quarter</type>
                <stem default-y="5">up</stem>
            </note>
        </measure>
        <measure width="175" number="45">
            <attributes>
                <staff-details print-object="yes"/>
            </attributes>
            <harmony default-y="23">
                <root>
                    <root-step>C</root-step>
                </root>
                <kind use-symbols="no" text=" "> </kind>
            </harmony>
            <note default-x="29">
                <rest/>
                <duration>240</duration>
                <type>eighth</type>
            </note>
            <note default-x="53" release="-5" dynamics="86">
                <pitch>
                    <step>E</step>
                    <octave>5</octave>
                </pitch>
                <duration>120</duration>
                <type>16th</type>
                <stem default-y="-40">down</stem>
                <beam number="1">begin</beam>
                <beam number="2">begin</beam>
            </note>
            <note default-x="73" release="-5" dynamics="86">
                <pitch>
                    <step>G</step>
                    <octave>5</octave>
                </pitch>
                <duration>120</duration>
                <type>16th</type>
                <stem default-y="-30">down</stem>
                <beam number="1">end</beam>
                <beam number="2">continue</beam>
            </note>
            <note default-x="92" release="-5" dynamics="86">
                <pitch>
                    <step>F</step>
                    <octave>5</octave>
                </pitch>
                <duration>120</duration>
                <type>16th</type>
                <stem default-y="-35">down</stem>
                <beam number="1">begin</beam>
                <beam number="2">begin</beam>
            </note>
            <note default-x="112" release="-5" dynamics="86">
                <pitch>
                    <step>E</step>
                    <octave>5</octave>
                </pitch>
                <duration>120</duration>
                <type>16th</type>
                <stem default-y="-40">down</stem>
                <beam number="1">end</beam>
                <beam number="2">continue</beam>
            </note>
            <note default-x="131" release="-5" dynamics="86">
                <pitch>
                    <step>F</step>
                    <octave>5</octave>
                </pitch>
                <duration>120</duration>
                <type>16th</type>
                <stem default-y="-35">down</stem>
                <beam number="1">end</beam>
                <beam number="2">continue</beam>
            </note>
            <note default-x="150" release="-5" dynamics="86">
                <pitch>
                    <step>D</step>
                    <octave>5</octave>
                </pitch>
                <duration>120</duration>
                <type>16th</type>
                <stem default-y="-45">down</stem>
                <beam number="1">end</beam>
                <beam number="2">continue</beam>
            </note>
        </measure>
        <measure width="131" number="46">
            <attributes>
                <staff-details print-object="yes"/>
            </attributes>
            <harmony default-y="23">
                <root>
                    <root-step>F</root-step>
                </root>
                <kind use-symbols="no" text=" "> </kind>
            </harmony>
            <note default-x="28" release="-5" dynamics="86">
                <pitch>
                    <step>D</step>
                    <octave>5</octave>
                </pitch>
                <duration>360</duration>
                <type>eighth</type>
                <dot/>
                <stem default-y="-45">down</stem>
                <beam number="1">begin</beam>
            </note>
            <note default-x="57" release="-5" dynamics="86">
                <pitch>
                    <step>C</step>
                    <octave>5</octave>
                </pitch>
                <duration>120</duration>
                <type>16th</type>
                <stem default-y="-50">down</stem>
                <beam number="1">end</beam>
                <beam number="2">continue</beam>
            </note>
            <note default-x="76" release="-5" dynamics="86">
                <pitch>
                    <step>F</step>
                    <octave>5</octave>
                </pitch>
                <duration>360</duration>
                <type>eighth</type>
                <dot/>
                <stem default-y="-35">down</stem>
                <beam number="1">begin</beam>
            </note>
            <note default-x="105" release="-5" dynamics="86">
                <pitch>
                    <step>A</step>
                    <octave>4</octave>
                </pitch>
                <duration>120</duration>
                <type>16th</type>
                <stem default-y="-60">down</stem>
                <beam number="1">end</beam>
                <beam number="2">continue</beam>
            </note>
        </measure>
        <measure width="219" number="47">
            <print new-system="yes">
                <system-layout>
                    <system-margins>
                        <left-margin>11</left-margin>
                        <right-margin>0</right-margin>
                    </system-margins>
                    <system-distance>80</system-distance>
                </system-layout>
            </print>
            <attributes>
                <staff-details print-object="yes"/>
            </attributes>
            <harmony default-y="25">
                <root>
                    <root-step>C</root-step>
                </root>
                <kind use-symbols="no" text="7">7</kind>
            </harmony>
            <note default-x="87" release="-5" dynamics="86">
                <pitch>
                    <step>A</step>
                    <octave>4</octave>
                </pitch>
                <duration>240</duration>
                <type>eighth</type>
                <stem default-y="10">up</stem>
                <beam number="1">begin</beam>
            </note>
            <note default-x="119" release="-5" dynamics="86">
                <pitch>
                    <step>B</step>
                    <alter>-1</alter>
                    <octave>4</octave>
                </pitch>
                <duration>240</duration>
                <type>eighth</type>
                <stem default-y="15">up</stem>
                <beam number="1">continue</beam>
            </note>
            <note default-x="150" release="-5" dynamics="86">
                <pitch>
                    <step>D</step>
                    <octave>5</octave>
                </pitch>
                <duration>360</duration>
                <type>eighth</type>
                <dot/>
                <stem default-y="25">up</stem>
                <beam number="1">begin</beam>
            </note>
            <note default-x="187" release="-7" dynamics="75">
                <pitch>
                    <step>E</step>
                    <octave>4</octave>
                </pitch>
                <duration>120</duration>
                <type>16th</type>
                <stem default-y="-5">up</stem>
                <beam number="1">end</beam>
                <beam number="2">continue</beam>
            </note>
        </measure>
        <measure width="104" number="48">
            <attributes>
                <staff-details print-object="yes"/>
            </attributes>
            <harmony default-y="25">
                <root>
                    <root-step>F</root-step>
                </root>
                <kind use-symbols="no" text=" "> </kind>
            </harmony>
            <note default-x="39" release="-30" dynamics="75">
                <pitch>
                    <step>F</step>
                    <octave>4</octave>
                </pitch>
                <duration>960</duration>
                <tie type="start"/>
                <type>half</type>
                <stem default-y="0">up</stem>
                <notations>
                    <tied orientation="under" type="start"/>
                </notations>
            </note>
        </measure>
        <measure width="89" number="49">
            <attributes>
                <staff-details print-object="yes"/>
            </attributes>
            <barline location="right">
                <bar-style>light-heavy</bar-style>
            </barline>
            <note default-x="18">
                <pitch>
                    <step>F</step>
                    <octave>4</octave>
                </pitch>
                <duration>960</duration>
                <tie type="stop"/>
                <type>half</type>
                <stem default-y="0">up</stem>
                <notations>
                    <tied type="stop"/>
                </notations>
            </note>
        </measure>
    </part>
</score-partwise>
