<?xml version="1.0" encoding="UTF-8"?>
<!DOCTYPE score-partwise PUBLIC "-//Recordare//DTD MusicXML 2.0 Partwise//EN" "http://www.musicxml.org/dtds/partwise.dtd">
<score-partwise version="2.0">
    <work>
        <work-number></work-number>
        <work-title></work-title>
    </work>
    <movement-number></movement-number>
    <movement-title>Amazing Grace</movement-title>
    <identification>
        <creator type="composer">Newton</creator>
        <creator type="poet"></creator>
        <rights>All Rights Reserved</rights>
        <encoding>
            <software>Finale 2011 for Windows</software>
            <software>Dolet Light for Finale 2011</software>
            <encoding-date>2012-09-04</encoding-date>
            <supports value="yes" type="yes" element="print" attribute="new-system"/>
            <supports value="yes" type="yes" element="print" attribute="new-page"/>
            <software>ProxyMusic 2.0 c</software>
        </encoding>
        <source>http://wikifonia.org/node/17589/revisions/23330/view</source>
    </identification>
    <defaults>
        <scaling>
            <millimeters>6.5088</millimeters>
            <tenths>40</tenths>
        </scaling>
        <page-layout>
            <page-height>1717</page-height>
            <page-width>1327</page-width>
            <page-margins type="both">
                <left-margin>78</left-margin>
                <right-margin>78</right-margin>
                <top-margin>98</top-margin>
                <bottom-margin>98</bottom-margin>
            </page-margins>
        </page-layout>
        <system-layout>
            <system-margins>
                <left-margin>0</left-margin>
                <right-margin>0</right-margin>
            </system-margins>
            <system-distance>121</system-distance>
            <top-system-distance>70</top-system-distance>
        </system-layout>
        <appearance>
            <line-width type="stem">0.7487</line-width>
            <line-width type="beam">5</line-width>
            <line-width type="staff">0.7487</line-width>
            <line-width type="light barline">0.7487</line-width>
            <line-width type="heavy barline">5</line-width>
            <line-width type="leger">0.7487</line-width>
            <line-width type="ending">1.4583</line-width>
            <line-width type="wedge">1.4583</line-width>
            <line-width type="enclosure">0.7487</line-width>
            <line-width type="tuplet bracket">0.7487</line-width>
            <note-size type="grace">60</note-size>
            <note-size type="cue">60</note-size>
        </appearance>
        <music-font font-size="18.5" font-family="Maestro"/>
        <word-font font-size="9.2" font-family="Times New Roman"/>
    </defaults>
    <credit page="1">
        <credit-words font-size="21.6" default-y="1602" default-x="663" justify="center" valign="top">Amazing Grace</credit-words>
    </credit>
    <credit page="1">
        <credit-words font-size="10.8" default-y="1496" default-x="1249" justify="right" valign="top">Arr. TWJ</credit-words>
    </credit>
    <part-list>
        <score-part id="P1">
            <part-name print-object="no">MusicXML Part</part-name>
            <score-instrument id="P1-I1">
                <instrument-name>Grand Piano</instrument-name>
            </score-instrument>
            <midi-instrument id="P1-I1">
                <midi-channel>1</midi-channel>
                <midi-program>1</midi-program>
                <volume>80</volume>
                <pan>0</pan>
            </midi-instrument>
        </score-part>
    </part-list>
    <part id="P1">
        <measure width="303" number="1">
            <print>
                <system-layout>
                    <top-system-distance>288</top-system-distance>
                </system-layout>
                <measure-numbering>system</measure-numbering>
            </print>
            <attributes>
                <divisions>4</divisions>
                <key>
                    <fifths>0</fifths>
                    <mode>major</mode>
                </key>
                <time>
                    <beats>9</beats>
                    <beat-type>8</beat-type>
                </time>
                <clef>
                    <sign>G</sign>
                    <line>2</line>
                </clef>
            </attributes>
            <sound tempo="120"/>
            <note default-x="82">
                <rest/>
                <duration>6</duration>
                <voice>1</voice>
                <type>quarter</type>
                <dot/>
            </note>
            <note default-x="156">
                <rest/>
                <duration>6</duration>
                <voice>1</voice>
                <type>quarter</type>
                <dot/>
            </note>
            <harmony default-y="40">
                <root>
                    <root-step>G</root-step>
                </root>
                <kind halign="center" text="7">dominant</kind>
            </harmony>
            <note default-x="229">
                <pitch>
                    <step>G</step>
                    <octave>4</octave>
                </pitch>
                <duration>6</duration>
                <voice>1</voice>
                <type>quarter</type>
                <dot/>
                <stem default-y="5">up</stem>
            </note>
        </measure>
        <measure width="243" number="2">
            <harmony default-y="40">
                <root>
                    <root-step>C</root-step>
                </root>
                <kind halign="center" text="">major</kind>
            </harmony>
            <note default-x="14">
                <pitch>
                    <step>C</step>
                    <octave>5</octave>
                </pitch>
                <duration>12</duration>
                <voice>1</voice>
                <type>half</type>
                <dot/>
                <stem default-y="-50.5">down</stem>
            </note>
            <note default-x="137">
                <pitch>
                    <step>E</step>
                    <octave>5</octave>
                </pitch>
                <duration>3</duration>
                <voice>1</voice>
                <type>eighth</type>
                <dot/>
                <stem default-y="-45">down</stem>
                <beam number="1">begin</beam>
            </note>
            <note default-x="184">
                <pitch>
                    <step>D</step>
                    <octave>5</octave>
                </pitch>
                <duration>1</duration>
                <voice>1</voice>
                <type>16th</type>
                <stem default-y="-48">down</stem>
                <beam number="1">continue</beam>
                <beam number="2">backward hook</beam>
            </note>
            <note default-x="206">
                <pitch>
                    <step>C</step>
                    <octave>5</octave>
                </pitch>
                <duration>2</duration>
                <voice>1</voice>
                <type>eighth</type>
                <stem default-y="-50">down</stem>
                <beam number="1">end</beam>
            </note>
        </measure>
        <measure width="209" number="3">
            <harmony default-y="40">
                <root>
                    <root-step>C</root-step>
                </root>
                <kind halign="center" text="7">dominant</kind>
            </harmony>
            <note default-x="14">
                <pitch>
                    <step>E</step>
                    <octave>5</octave>
                </pitch>
                <duration>12</duration>
                <voice>1</voice>
                <type>half</type>
                <dot/>
                <stem default-y="-40">down</stem>
            </note>
            <note default-x="134">
                <pitch>
                    <step>D</step>
                    <octave>5</octave>
                </pitch>
                <duration>6</duration>
                <voice>1</voice>
                <type>quarter</type>
                <dot/>
                <stem default-y="-45.5">down</stem>
            </note>
        </measure>
        <measure width="209" number="4">
            <harmony default-y="40">
                <root>
                    <root-step>F</root-step>
                </root>
                <kind halign="center" text="7">dominant</kind>
            </harmony>
            <note default-x="14">
                <pitch>
                    <step>C</step>
                    <octave>5</octave>
                </pitch>
                <duration>12</duration>
                <voice>1</voice>
                <type>half</type>
                <dot/>
                <stem default-y="-50.5">down</stem>
            </note>
            <harmony default-y="40">
                <root>
                    <root-step>F</root-step>
                    <root-alter>1</root-alter>
                </root>
                <kind halign="center" text="dim7">diminished-seventh</kind>
            </harmony>
            <note default-x="134">
                <pitch>
                    <step>A</step>
                    <octave>4</octave>
                </pitch>
                <duration>6</duration>
                <voice>1</voice>
                <type>quarter</type>
                <dot/>
                <stem default-y="10">up</stem>
            </note>
        </measure>
        <measure width="208" number="5">
            <harmony default-y="40">
                <root>
                    <root-step>C</root-step>
                </root>
                <kind halign="center" text="">major</kind>
                <bass>
                    <bass-step>G</bass-step>
                </bass>
            </harmony>
            <note default-x="14">
                <pitch>
                    <step>G</step>
                    <octave>4</octave>
                </pitch>
                <duration>12</duration>
                <voice>1</voice>
                <type>half</type>
                <dot/>
                <stem default-y="5">up</stem>
            </note>
            <harmony default-y="40">
                <root>
                    <root-step>G</root-step>
                </root>
                <kind halign="center" text="7">dominant</kind>
            </harmony>
            <note default-x="133">
                <pitch>
                    <step>G</step>
                    <octave>4</octave>
                </pitch>
                <duration>6</duration>
                <voice>1</voice>
                <type>quarter</type>
                <dot/>
                <stem default-y="5">up</stem>
            </note>
        </measure>
        <measure width="246" number="6">
            <print new-system="yes">
                <system-layout>
                    <system-distance>114</system-distance>
                </system-layout>
            </print>
            <harmony default-y="40">
                <root>
                    <root-step>A</root-step>
                </root>
                <kind halign="center" text="m7">minor-seventh</kind>
            </harmony>
            <note default-x="52">
                <pitch>
                    <step>C</step>
                    <octave>5</octave>
                </pitch>
                <duration>12</duration>
                <voice>1</voice>
                <type>half</type>
                <dot/>
                <stem default-y="-50">down</stem>
            </note>
            <note default-x="157">
                <pitch>
                    <step>E</step>
                    <octave>5</octave>
                </pitch>
                <duration>3</duration>
                <voice>1</voice>
                <type>eighth</type>
                <dot/>
                <stem default-y="-45">down</stem>
                <beam number="1">begin</beam>
            </note>
            <note default-x="197">
                <pitch>
                    <step>D</step>
                    <octave>5</octave>
                </pitch>
                <duration>1</duration>
                <voice>1</voice>
                <type>16th</type>
                <stem default-y="-48.5">down</stem>
                <beam number="1">continue</beam>
                <beam number="2">backward hook</beam>
            </note>
            <note default-x="215">
                <pitch>
                    <step>C</step>
                    <octave>5</octave>
                </pitch>
                <duration>2</duration>
                <voice>1</voice>
                <type>eighth</type>
                <stem default-y="-50">down</stem>
                <beam number="1">end</beam>
            </note>
        </measure>
        <measure width="179" number="7">
            <harmony default-y="40">
                <root>
                    <root-step>D</root-step>
                </root>
                <kind halign="center" text="7">dominant</kind>
            </harmony>
            <note default-x="14">
                <pitch>
                    <step>E</step>
                    <octave>5</octave>
                </pitch>
                <duration>12</duration>
                <voice>1</voice>
                <type>half</type>
                <dot/>
                <stem default-y="-40">down</stem>
            </note>
            <note default-x="115">
                <pitch>
                    <step>D</step>
                    <octave>5</octave>
                </pitch>
                <duration>6</duration>
                <voice>1</voice>
                <type>quarter</type>
                <dot/>
                <stem default-y="-45">down</stem>
            </note>
        </measure>
        <measure width="179" number="8">
            <harmony default-y="40">
                <root>
                    <root-step>G</root-step>
                </root>
                <kind halign="center" text="7sus">suspended-fourth</kind>
                <degree print-object="no">
                    <degree-value>7</degree-value>
                    <degree-alter>0</degree-alter>
                    <degree-type>add</degree-type>
                </degree>
            </harmony>
            <note default-x="14">
                <pitch>
                    <step>G</step>
                    <octave>5</octave>
                </pitch>
                <duration>12</duration>
                <tie type="start"/>
                <voice>1</voice>
                <type>half</type>
                <dot/>
                <stem default-y="-30.5">down</stem>
                <notations>
                    <tied type="start"/>
                </notations>
            </note>
            <note default-x="116">
                <pitch>
                    <step>G</step>
                    <octave>5</octave>
                </pitch>
                <duration>6</duration>
                <tie type="stop"/>
                <voice>1</voice>
                <type>quarter</type>
                <dot/>
                <stem default-y="-30.5">down</stem>
                <notations>
                    <tied type="stop"/>
                </notations>
            </note>
        </measure>
        <measure width="180" number="9">
            <harmony default-y="40">
                <root>
                    <root-step>G</root-step>
                </root>
                <kind halign="center" text="7">dominant</kind>
            </harmony>
            <note default-x="13">
                <rest/>
                <duration>12</duration>
                <voice>1</voice>
                <type>half</type>
                <dot/>
            </note>
            <note default-x="117">
                <pitch>
                    <step>E</step>
                    <octave>5</octave>
                </pitch>
                <duration>6</duration>
                <voice>1</voice>
                <type>quarter</type>
                <dot/>
                <stem default-y="-40">down</stem>
            </note>
        </measure>
        <measure width="208" number="10">
            <harmony default-y="40">
                <root>
                    <root-step>C</root-step>
                </root>
                <kind halign="center" text="">major</kind>
            </harmony>
            <note default-x="14">
                <pitch>
                    <step>G</step>
                    <octave>5</octave>
                </pitch>
                <duration>12</duration>
                <voice>1</voice>
                <type>half</type>
                <dot/>
                <stem default-y="-30.5">down</stem>
            </note>
            <note default-x="118">
                <pitch>
                    <step>E</step>
                    <octave>5</octave>
                </pitch>
                <duration>3</duration>
                <voice>1</voice>
                <type>eighth</type>
                <dot/>
                <stem default-y="-45">down</stem>
                <beam number="1">begin</beam>
            </note>
            <note default-x="159">
                <pitch>
                    <step>D</step>
                    <octave>5</octave>
                </pitch>
                <duration>1</duration>
                <voice>1</voice>
                <type>16th</type>
                <stem default-y="-48.5">down</stem>
                <beam number="1">continue</beam>
                <beam number="2">backward hook</beam>
            </note>
            <note default-x="177">
                <pitch>
                    <step>C</step>
                    <octave>5</octave>
                </pitch>
                <duration>2</duration>
                <voice>1</voice>
                <type>eighth</type>
                <stem default-y="-50">down</stem>
                <beam number="1">end</beam>
            </note>
        </measure>
        <measure width="179" number="11">
            <harmony default-y="40">
                <root>
                    <root-step>C</root-step>
                </root>
                <kind halign="center" text="7">dominant</kind>
            </harmony>
            <note default-x="14">
                <pitch>
                    <step>E</step>
                    <octave>5</octave>
                </pitch>
                <duration>12</duration>
                <voice>1</voice>
                <type>half</type>
                <dot/>
                <stem default-y="-40">down</stem>
            </note>
            <note default-x="115">
                <pitch>
                    <step>D</step>
                    <octave>5</octave>
                </pitch>
                <duration>6</duration>
                <voice>1</voice>
                <type>quarter</type>
                <dot/>
                <stem default-y="-45">down</stem>
            </note>
        </measure>
        <measure width="217" number="12">
            <print new-system="yes">
                <system-layout>
                    <system-distance>114</system-distance>
                </system-layout>
            </print>
            <harmony default-y="40">
                <root>
                    <root-step>F</root-step>
                </root>
                <kind halign="center" text="6">major-sixth</kind>
            </harmony>
            <note default-x="52">
                <pitch>
                    <step>C</step>
                    <octave>5</octave>
                </pitch>
                <duration>12</duration>
                <voice>1</voice>
                <type>half</type>
                <dot/>
                <stem default-y="-50">down</stem>
            </note>
            <note default-x="153">
                <pitch>
                    <step>A</step>
                    <octave>4</octave>
                </pitch>
                <duration>6</duration>
                <voice>1</voice>
                <type>quarter</type>
                <dot/>
                <stem default-y="10.5">up</stem>
            </note>
        </measure>
        <measure width="179" number="13">
            <harmony default-y="40">
                <root>
                    <root-step>E</root-step>
                </root>
                <kind halign="center" text="m7">minor-seventh</kind>
            </harmony>
            <note default-x="14">
                <pitch>
                    <step>G</step>
                    <octave>4</octave>
                </pitch>
                <duration>12</duration>
                <voice>1</voice>
                <type>half</type>
                <dot/>
                <stem default-y="5.5">up</stem>
            </note>
            <note default-x="115">
                <pitch>
                    <step>G</step>
                    <octave>4</octave>
                </pitch>
                <duration>6</duration>
                <voice>1</voice>
                <type>quarter</type>
                <dot/>
                <stem default-y="5.5">up</stem>
            </note>
        </measure>
        <measure width="208" number="14">
            <harmony default-y="40">
                <root>
                    <root-step>A</root-step>
                </root>
                <kind halign="center" text="m7">minor-seventh</kind>
            </harmony>
            <note default-x="14">
                <pitch>
                    <step>C</step>
                    <octave>5</octave>
                </pitch>
                <duration>12</duration>
                <voice>1</voice>
                <type>half</type>
                <dot/>
                <stem default-y="-50">down</stem>
            </note>
            <note default-x="118">
                <pitch>
                    <step>E</step>
                    <octave>5</octave>
                </pitch>
                <duration>3</duration>
                <voice>1</voice>
                <type>eighth</type>
                <dot/>
                <stem default-y="-45">down</stem>
                <beam number="1">begin</beam>
            </note>
            <note default-x="159">
                <pitch>
                    <step>D</step>
                    <octave>5</octave>
                </pitch>
                <duration>1</duration>
                <voice>1</voice>
                <type>16th</type>
                <stem default-y="-48.5">down</stem>
                <beam number="1">continue</beam>
                <beam number="2">backward hook</beam>
            </note>
            <note default-x="177">
                <pitch>
                    <step>C</step>
                    <octave>5</octave>
                </pitch>
                <duration>2</duration>
                <voice>1</voice>
                <type>eighth</type>
                <stem default-y="-50">down</stem>
                <beam number="1">end</beam>
            </note>
        </measure>
        <measure width="179" number="15">
            <harmony default-y="40">
                <root>
                    <root-step>D</root-step>
                </root>
                <kind halign="center" text="7">dominant</kind>
            </harmony>
            <note default-x="14">
                <pitch>
                    <step>E</step>
                    <octave>5</octave>
                </pitch>
                <duration>12</duration>
                <voice>1</voice>
                <type>half</type>
                <dot/>
                <stem default-y="-40.5">down</stem>
            </note>
            <harmony default-y="40">
                <root>
                    <root-step>G</root-step>
                </root>
                <kind halign="center" text="7">dominant</kind>
            </harmony>
            <note default-x="115">
                <pitch>
                    <step>D</step>
                    <octave>5</octave>
                </pitch>
                <duration>6</duration>
                <voice>1</voice>
                <type>quarter</type>
                <dot/>
                <stem default-y="-45">down</stem>
            </note>
        </measure>
        <measure width="202" number="16">
            <harmony default-y="40">
                <root>
                    <root-step>F</root-step>
                </root>
                <kind halign="center" text="">major</kind>
            </harmony>
            <note default-x="14">
                <pitch>
                    <step>C</step>
                    <octave>5</octave>
                </pitch>
                <duration>6</duration>
                <tie type="start"/>
                <voice>1</voice>
                <type>quarter</type>
                <dot/>
                <stem default-y="-50">down</stem>
                <notations>
                    <tied type="start"/>
                </notations>
            </note>
            <harmony default-y="40">
                <root>
                    <root-step>C</root-step>
                </root>
                <kind halign="center" text="">major</kind>
                <bass>
                    <bass-step>E</bass-step>
                </bass>
            </harmony>
            <note default-x="76">
                <pitch>
                    <step>C</step>
                    <octave>5</octave>
                </pitch>
                <duration>6</duration>
                <tie type="stop"/>
                <tie type="start"/>
                <voice>1</voice>
                <type>quarter</type>
                <dot/>
                <stem default-y="-50">down</stem>
                <notations>
                    <tied type="stop"/>
                    <tied type="start"/>
                </notations>
            </note>
            <harmony default-y="40">
                <root>
                    <root-step>D</root-step>
                </root>
                <kind halign="center" text="m">minor</kind>
            </harmony>
            <note default-x="139">
                <pitch>
                    <step>C</step>
                    <octave>5</octave>
                </pitch>
                <duration>6</duration>
                <tie type="stop"/>
                <tie type="start"/>
                <voice>1</voice>
                <type>quarter</type>
                <dot/>
                <stem default-y="-50">down</stem>
                <notations>
                    <tied type="stop"/>
                    <tied type="start"/>
                </notations>
            </note>
        </measure>
        <measure width="185" number="17">
            <harmony default-y="40">
                <root>
                    <root-step>C</root-step>
                </root>
                <kind halign="center" text="">major</kind>
            </harmony>
            <note default-x="14">
                <pitch>
                    <step>C</step>
                    <octave>5</octave>
                </pitch>
                <duration>12</duration>
                <tie type="stop"/>
                <voice>1</voice>
                <type>half</type>
                <dot/>
                <stem default-y="-50">down</stem>
                <notations>
                    <tied type="stop"/>
                </notations>
            </note>
            <harmony default-y="40">
                <root>
                    <root-step>G</root-step>
                </root>
                <kind halign="center" text="7" parentheses-degrees="yes">dominant</kind>
                <degree>
                    <degree-value>5</degree-value>
                    <degree-alter>1</degree-alter>
                    <degree-type>alter</degree-type>
                </degree>
            </harmony>
            <note default-x="116">
                <pitch>
                    <step>G</step>
                    <octave>4</octave>
                </pitch>
                <duration>6</duration>
                <voice>1</voice>
                <type>quarter</type>
                <dot/>
                <stem default-y="5.5">up</stem>
            </note>
            <barline location="right">
                <bar-style>light-light</bar-style>
            </barline>
        </measure>
        <measure width="242" number="18">
            <print new-system="yes">
                <system-layout>
                    <system-distance>114</system-distance>
                </system-layout>
            </print>
            <harmony default-y="40">
                <root>
                    <root-step>C</root-step>
                </root>
                <kind halign="center" text="69">major-sixth</kind>
                <degree print-object="no">
                    <degree-value>9</degree-value>
                    <degree-alter>0</degree-alter>
                    <degree-type>add</degree-type>
                </degree>
            </harmony>
            <note default-x="52">
                <pitch>
                    <step>C</step>
                    <octave>5</octave>
                </pitch>
                <duration>12</duration>
                <voice>1</voice>
                <type>half</type>
                <dot/>
                <stem default-y="-50">down</stem>
            </note>
            <note default-x="154">
                <pitch>
                    <step>E</step>
                    <octave>5</octave>
                </pitch>
                <duration>3</duration>
                <voice>1</voice>
                <type>eighth</type>
                <dot/>
                <stem default-y="-45">down</stem>
                <beam number="1">begin</beam>
            </note>
            <note default-x="193">
                <pitch>
                    <step>D</step>
                    <octave>5</octave>
                </pitch>
                <duration>1</duration>
                <voice>1</voice>
                <type>16th</type>
                <stem default-y="-48">down</stem>
                <beam number="1">continue</beam>
                <beam number="2">backward hook</beam>
            </note>
            <note default-x="212">
                <pitch>
                    <step>C</step>
                    <octave>5</octave>
                </pitch>
                <duration>2</duration>
                <voice>1</voice>
                <type>eighth</type>
                <stem default-y="-50">down</stem>
                <beam number="1">end</beam>
            </note>
        </measure>
        <measure width="175" number="19">
            <harmony default-y="40">
                <root>
                    <root-step>E</root-step>
                </root>
                <kind halign="center" text="7#9" parentheses-degrees="yes">dominant</kind>
                <degree>
                    <degree-value>5</degree-value>
                    <degree-alter>1</degree-alter>
                    <degree-type>alter</degree-type>
                </degree>
                <degree>
                    <degree-value>9</degree-value>
                    <degree-alter>1</degree-alter>
                    <degree-type>add</degree-type>
                </degree>
            </harmony>
            <note default-x="14">
                <pitch>
                    <step>E</step>
                    <octave>5</octave>
                </pitch>
                <duration>12</duration>
                <voice>1</voice>
                <type>half</type>
                <dot/>
                <stem default-y="-40.5">down</stem>
            </note>
            <note default-x="113">
                <pitch>
                    <step>D</step>
                    <octave>5</octave>
                </pitch>
                <duration>6</duration>
                <voice>1</voice>
                <type>quarter</type>
                <dot/>
                <stem default-y="-45.5">down</stem>
            </note>
        </measure>
        <measure width="175" number="20">
            <harmony default-y="40">
                <root>
                    <root-step>F</root-step>
                </root>
                <kind halign="center" text="7">dominant</kind>
            </harmony>
            <note default-x="14">
                <pitch>
                    <step>C</step>
                    <octave>5</octave>
                </pitch>
                <duration>12</duration>
                <voice>1</voice>
                <type>half</type>
                <dot/>
                <stem default-y="-50">down</stem>
            </note>
            <harmony default-y="40">
                <root>
                    <root-step>F</root-step>
                </root>
                <kind halign="center" text="7" parentheses-degrees="yes">dominant</kind>
                <degree>
                    <degree-value>11</degree-value>
                    <degree-alter>1</degree-alter>
                    <degree-type>add</degree-type>
                </degree>
            </harmony>
            <note default-x="113">
                <pitch>
                    <step>A</step>
                    <octave>4</octave>
                </pitch>
                <duration>6</duration>
                <voice>1</voice>
                <type>quarter</type>
                <dot/>
                <stem default-y="10.5">up</stem>
            </note>
        </measure>
        <measure width="175" number="21">
            <harmony default-y="40">
                <root>
                    <root-step>C</root-step>
                </root>
                <kind halign="center" text="2">major</kind>
                <bass>
                    <bass-step>E</bass-step>
                </bass>
                <degree print-object="no">
                    <degree-value>2</degree-value>
                    <degree-alter>0</degree-alter>
                    <degree-type>add</degree-type>
                </degree>
            </harmony>
            <note default-x="13">
                <pitch>
                    <step>G</step>
                    <octave>4</octave>
                </pitch>
                <duration>12</duration>
                <voice>1</voice>
                <type>half</type>
                <dot/>
                <stem default-y="5.5">up</stem>
            </note>
            <harmony default-y="40">
                <root>
                    <root-step>E</root-step>
                </root>
                <kind halign="center" text="7#9" parentheses-degrees="yes">dominant</kind>
                <degree>
                    <degree-value>5</degree-value>
                    <degree-alter>1</degree-alter>
                    <degree-type>alter</degree-type>
                </degree>
                <degree>
                    <degree-value>9</degree-value>
                    <degree-alter>1</degree-alter>
                    <degree-type>add</degree-type>
                </degree>
            </harmony>
            <note default-x="113">
                <pitch>
                    <step>G</step>
                    <octave>4</octave>
                </pitch>
                <duration>6</duration>
                <voice>1</voice>
                <type>quarter</type>
                <dot/>
                <stem default-y="5.5">up</stem>
            </note>
        </measure>
        <measure width="227" number="22">
            <harmony default-y="40">
                <root>
                    <root-step>A</root-step>
                </root>
                <kind halign="center" text="m">minor</kind>
            </harmony>
            <note default-x="14">
                <pitch>
                    <step>C</step>
                    <octave>5</octave>
                </pitch>
                <duration>6</duration>
                <tie type="start"/>
                <voice>1</voice>
                <type>quarter</type>
                <dot/>
                <stem default-y="-50">down</stem>
                <notations>
                    <tied type="start"/>
                </notations>
            </note>
            <harmony default-y="40">
                <root>
                    <root-step>A</root-step>
                </root>
                <kind halign="center" text="m(maj7)">major-minor</kind>
            </harmony>
            <note default-x="77">
                <pitch>
                    <step>C</step>
                    <octave>5</octave>
                </pitch>
                <duration>6</duration>
                <tie type="stop"/>
                <voice>1</voice>
                <type>quarter</type>
                <dot/>
                <stem default-y="-50">down</stem>
                <notations>
                    <tied type="stop"/>
                </notations>
            </note>
            <harmony default-y="40">
                <root>
                    <root-step>A</root-step>
                </root>
                <kind halign="center" text="m7">minor-seventh</kind>
            </harmony>
            <note default-x="139">
                <pitch>
                    <step>E</step>
                    <octave>5</octave>
                </pitch>
                <duration>3</duration>
                <voice>1</voice>
                <type>eighth</type>
                <dot/>
                <stem default-y="-45">down</stem>
                <beam number="1">begin</beam>
            </note>
            <note default-x="178">
                <pitch>
                    <step>D</step>
                    <octave>5</octave>
                </pitch>
                <duration>1</duration>
                <voice>1</voice>
                <type>16th</type>
                <stem default-y="-48">down</stem>
                <beam number="1">continue</beam>
                <beam number="2">backward hook</beam>
            </note>
            <note default-x="196">
                <pitch>
                    <step>C</step>
                    <octave>5</octave>
                </pitch>
                <duration>2</duration>
                <voice>1</voice>
                <type>eighth</type>
                <stem default-y="-50">down</stem>
                <beam number="1">end</beam>
            </note>
        </measure>
        <measure width="176" number="23">
            <harmony default-y="40">
                <root>
                    <root-step>D</root-step>
                </root>
                <kind halign="center" text="9" parentheses-degrees="yes">dominant-ninth</kind>
                <degree>
                    <degree-value>11</degree-value>
                    <degree-alter>1</degree-alter>
                    <degree-type>add</degree-type>
                </degree>
            </harmony>
            <note default-x="14">
                <pitch>
                    <step>E</step>
                    <octave>5</octave>
                </pitch>
                <duration>12</duration>
                <voice>1</voice>
                <type>half</type>
                <dot/>
                <stem default-y="-40.5">down</stem>
            </note>
            <note default-x="114">
                <pitch>
                    <step>D</step>
                    <octave>5</octave>
                </pitch>
                <duration>6</duration>
                <voice>1</voice>
                <type>quarter</type>
                <dot/>
                <stem default-y="-45.5">down</stem>
            </note>
        </measure>
        <measure width="222" number="24">
            <print new-system="yes">
                <system-layout>
                    <system-distance>114</system-distance>
                </system-layout>
            </print>
            <harmony default-y="40">
                <root>
                    <root-step>D</root-step>
                </root>
                <kind halign="center" text="m11">minor-11th</kind>
            </harmony>
            <note default-x="52">
                <pitch>
                    <step>G</step>
                    <octave>5</octave>
                </pitch>
                <duration>12</duration>
                <tie type="start"/>
                <voice>1</voice>
                <type>half</type>
                <dot/>
                <stem default-y="-30.5">down</stem>
                <notations>
                    <tied type="start"/>
                </notations>
            </note>
            <note default-x="157">
                <pitch>
                    <step>G</step>
                    <octave>5</octave>
                </pitch>
                <duration>6</duration>
                <tie type="stop"/>
                <voice>1</voice>
                <type>quarter</type>
                <dot/>
                <stem default-y="-30.5">down</stem>
                <notations>
                    <tied type="stop"/>
                </notations>
            </note>
        </measure>
        <measure width="185" number="25">
            <harmony default-y="40">
                <root>
                    <root-step>G</root-step>
                </root>
                <kind halign="center" text="7" parentheses-degrees="yes">dominant</kind>
                <bass>
                    <bass-step>D</bass-step>
                    <bass-alter>-1</bass-alter>
                </bass>
                <degree>
                    <degree-value>5</degree-value>
                    <degree-alter>1</degree-alter>
                    <degree-type>alter</degree-type>
                </degree>
            </harmony>
            <note default-x="13">
                <rest/>
                <duration>12</duration>
                <voice>1</voice>
                <type>half</type>
                <dot/>
            </note>
            <note default-x="120">
                <pitch>
                    <step>E</step>
                    <octave>5</octave>
                </pitch>
                <duration>6</duration>
                <voice>1</voice>
                <type>quarter</type>
                <dot/>
                <stem default-y="-40">down</stem>
            </note>
        </measure>
        <measure width="213" number="26">
            <harmony default-y="40">
                <root>
                    <root-step>B</root-step>
                    <root-alter>-1</root-alter>
                </root>
                <kind halign="center" text="6">major-sixth</kind>
                <bass>
                    <bass-step>C</bass-step>
                </bass>
            </harmony>
            <note default-x="14">
                <pitch>
                    <step>G</step>
                    <octave>5</octave>
                </pitch>
                <duration>12</duration>
                <voice>1</voice>
                <type>half</type>
                <dot/>
                <stem default-y="-30.5">down</stem>
            </note>
            <note default-x="121">
                <pitch>
                    <step>E</step>
                    <octave>5</octave>
                </pitch>
                <duration>3</duration>
                <voice>1</voice>
                <type>eighth</type>
                <dot/>
                <stem default-y="-45">down</stem>
                <beam number="1">begin</beam>
            </note>
            <note default-x="162">
                <pitch>
                    <step>D</step>
                    <octave>5</octave>
                </pitch>
                <duration>1</duration>
                <voice>1</voice>
                <type>16th</type>
                <stem default-y="-48">down</stem>
                <beam number="1">continue</beam>
                <beam number="2">backward hook</beam>
            </note>
            <note default-x="182">
                <pitch>
                    <step>C</step>
                    <octave>5</octave>
                </pitch>
                <duration>2</duration>
                <voice>1</voice>
                <type>eighth</type>
                <stem default-y="-50">down</stem>
                <beam number="1">end</beam>
            </note>
        </measure>
        <measure width="184" number="27">
            <harmony default-y="40">
                <root>
                    <root-step>C</root-step>
                </root>
                <kind halign="center" text="9">dominant-ninth</kind>
            </harmony>
            <note default-x="14">
                <pitch>
                    <step>E</step>
                    <octave>5</octave>
                </pitch>
                <duration>12</duration>
                <voice>1</voice>
                <type>half</type>
                <dot/>
                <stem default-y="-40">down</stem>
            </note>
            <harmony default-y="40">
                <root>
                    <root-step>C</root-step>
                </root>
                <kind halign="center" text="7">dominant</kind>
                <bass>
                    <bass-step>F</bass-step>
                    <bass-alter>1</bass-alter>
                </bass>
            </harmony>
            <note default-x="119">
                <pitch>
                    <step>D</step>
                    <octave>5</octave>
                </pitch>
                <duration>6</duration>
                <voice>1</voice>
                <type>quarter</type>
                <dot/>
                <stem default-y="-45">down</stem>
            </note>
        </measure>
        <measure width="184" number="28">
            <harmony default-y="40">
                <root>
                    <root-step>F</root-step>
                </root>
                <kind halign="center" text="9">dominant-ninth</kind>
            </harmony>
            <note default-x="14">
                <pitch>
                    <step>C</step>
                    <octave>5</octave>
                </pitch>
                <duration>12</duration>
                <voice>1</voice>
                <type>half</type>
                <dot/>
                <stem default-y="-50.5">down</stem>
            </note>
            <harmony default-y="40">
                <root>
                    <root-step>F</root-step>
                </root>
                <kind halign="center" text="9" parentheses-degrees="yes">dominant-ninth</kind>
                <degree>
                    <degree-value>11</degree-value>
                    <degree-alter>1</degree-alter>
                    <degree-type>add</degree-type>
                </degree>
            </harmony>
            <note default-x="119">
                <pitch>
                    <step>A</step>
                    <octave>4</octave>
                </pitch>
                <duration>6</duration>
                <voice>1</voice>
                <type>quarter</type>
                <dot/>
                <stem default-y="10">up</stem>
            </note>
        </measure>
        <measure width="183" number="29">
            <harmony default-y="40">
                <root>
                    <root-step>E</root-step>
                </root>
                <kind halign="center" text="m7">minor-seventh</kind>
            </harmony>
            <note default-x="13">
                <pitch>
                    <step>G</step>
                    <octave>4</octave>
                </pitch>
                <duration>12</duration>
                <voice>1</voice>
                <type>half</type>
                <dot/>
                <stem default-y="5">up</stem>
            </note>
            <harmony default-y="40">
                <root>
                    <root-step>E</root-step>
                </root>
                <kind halign="center" text="7#9" parentheses-degrees="yes">dominant</kind>
                <degree>
                    <degree-value>5</degree-value>
                    <degree-alter>1</degree-alter>
                    <degree-type>alter</degree-type>
                </degree>
                <degree>
                    <degree-value>9</degree-value>
                    <degree-alter>1</degree-alter>
                    <degree-type>add</degree-type>
                </degree>
            </harmony>
            <note default-x="117">
                <pitch>
                    <step>G</step>
                    <octave>4</octave>
                </pitch>
                <duration>6</duration>
                <voice>1</voice>
                <type>quarter</type>
                <dot/>
                <stem default-y="5">up</stem>
            </note>
        </measure>
        <measure width="285" number="30">
            <print new-system="yes">
                <system-layout>
                    <system-distance>114</system-distance>
                </system-layout>
            </print>
            <harmony default-y="40">
                <root>
                    <root-step>A</root-step>
                </root>
                <kind halign="center" text="m7">minor-seventh</kind>
            </harmony>
            <note default-x="52">
                <pitch>
                    <step>C</step>
                    <octave>5</octave>
                </pitch>
                <duration>12</duration>
                <voice>1</voice>
                <type>half</type>
                <dot/>
                <stem default-y="-50">down</stem>
            </note>
            <harmony default-y="40">
                <root>
                    <root-step>D</root-step>
                </root>
                <kind halign="center" text="m7" parentheses-degrees="yes">minor-seventh</kind>
                <degree>
                    <degree-value>5</degree-value>
                    <degree-alter>-1</degree-alter>
                    <degree-type>alter</degree-type>
                </degree>
            </harmony>
            <note default-x="177">
                <pitch>
                    <step>E</step>
                    <octave>5</octave>
                </pitch>
                <duration>3</duration>
                <voice>1</voice>
                <type>eighth</type>
                <dot/>
                <stem default-y="-45">down</stem>
                <beam number="1">begin</beam>
            </note>
            <note default-x="225">
                <pitch>
                    <step>D</step>
                    <octave>5</octave>
                </pitch>
                <duration>1</duration>
                <voice>1</voice>
                <type>16th</type>
                <stem default-y="-48.5">down</stem>
                <beam number="1">continue</beam>
                <beam number="2">backward hook</beam>
            </note>
            <note default-x="248">
                <pitch>
                    <step>C</step>
                    <octave>5</octave>
                </pitch>
                <duration>2</duration>
                <voice>1</voice>
                <type>eighth</type>
                <stem default-y="-50">down</stem>
                <beam number="1">end</beam>
            </note>
        </measure>
        <measure width="212" number="31">
            <harmony default-y="40">
                <root>
                    <root-step>C</root-step>
                </root>
                <kind halign="center" text="69">major-sixth</kind>
                <bass>
                    <bass-step>G</bass-step>
                </bass>
                <degree print-object="no">
                    <degree-value>9</degree-value>
                    <degree-alter>0</degree-alter>
                    <degree-type>add</degree-type>
                </degree>
            </harmony>
            <note default-x="14">
                <pitch>
                    <step>E</step>
                    <octave>5</octave>
                </pitch>
                <duration>12</duration>
                <voice>1</voice>
                <type>half</type>
                <dot/>
                <stem default-y="-40">down</stem>
            </note>
            <harmony default-y="40">
                <root>
                    <root-step>G</root-step>
                </root>
                <kind halign="center" text="13">dominant-13th</kind>
            </harmony>
            <note default-x="136">
                <pitch>
                    <step>D</step>
                    <octave>5</octave>
                </pitch>
                <duration>6</duration>
                <voice>1</voice>
                <type>quarter</type>
                <dot/>
                <stem default-y="-45">down</stem>
            </note>
        </measure>
        <measure width="240" number="32">
            <harmony default-y="40">
                <root>
                    <root-step>F</root-step>
                </root>
                <kind halign="center" text="m7">minor-seventh</kind>
            </harmony>
            <note default-x="14">
                <pitch>
                    <step>C</step>
                    <octave>5</octave>
                </pitch>
                <duration>6</duration>
                <tie type="start"/>
                <voice>1</voice>
                <type>quarter</type>
                <dot/>
                <stem default-y="-50">down</stem>
                <notations>
                    <tied type="start"/>
                </notations>
            </note>
            <note default-x="89">
                <pitch>
                    <step>C</step>
                    <octave>5</octave>
                </pitch>
                <duration>6</duration>
                <tie type="stop"/>
                <tie type="start"/>
                <voice>1</voice>
                <type>quarter</type>
                <dot/>
                <stem default-y="-50">down</stem>
                <notations>
                    <tied type="stop"/>
                    <tied type="start"/>
                </notations>
            </note>
            <note default-x="164">
                <pitch>
                    <step>C</step>
                    <octave>5</octave>
                </pitch>
                <duration>6</duration>
                <tie type="stop"/>
                <tie type="start"/>
                <voice>1</voice>
                <type>quarter</type>
                <dot/>
                <stem default-y="-50">down</stem>
                <notations>
                    <tied type="stop"/>
                    <tied type="start"/>
                </notations>
            </note>
        </measure>
        <measure width="218" number="33">
            <harmony default-y="40">
                <root>
                    <root-step>B</root-step>
                    <root-alter>-1</root-alter>
                </root>
                <kind halign="center" text="13">dominant-13th</kind>
            </harmony>
            <note default-x="14">
                <pitch>
                    <step>C</step>
                    <octave>5</octave>
                </pitch>
                <duration>12</duration>
                <tie type="stop"/>
                <tie type="start"/>
                <voice>1</voice>
                <type>half</type>
                <dot/>
                <stem default-y="-50">down</stem>
                <notations>
                    <tied type="stop"/>
                    <tied type="start"/>
                </notations>
            </note>
            <note default-x="136">
                <pitch>
                    <step>C</step>
                    <octave>5</octave>
                </pitch>
                <duration>6</duration>
                <tie type="stop"/>
                <tie type="start"/>
                <voice>1</voice>
                <type>quarter</type>
                <dot/>
                <stem default-y="-50">down</stem>
                <notations>
                    <tied type="stop"/>
                    <tied type="start"/>
                </notations>
            </note>
            <barline location="right">
                <bar-style>light-light</bar-style>
            </barline>
        </measure>
        <measure width="216" number="34">
            <harmony default-y="40">
                <root>
                    <root-step>C</root-step>
                </root>
                <kind halign="center" text="69">major-sixth</kind>
                <degree print-object="no">
                    <degree-value>9</degree-value>
                    <degree-alter>0</degree-alter>
                    <degree-type>add</degree-type>
                </degree>
            </harmony>
            <note default-x="16">
                <pitch>
                    <step>C</step>
                    <octave>5</octave>
                </pitch>
                <duration>12</duration>
                <tie type="stop"/>
                <tie type="start"/>
                <voice>1</voice>
                <type>half</type>
                <dot/>
                <stem default-y="-50">down</stem>
                <notations>
                    <tied type="stop"/>
                    <tied type="start"/>
                </notations>
            </note>
            <note default-x="134">
                <pitch>
                    <step>C</step>
                    <octave>5</octave>
                </pitch>
                <duration>6</duration>
                <tie type="stop"/>
                <voice>1</voice>
                <type>quarter</type>
                <dot/>
                <stem default-y="-50">down</stem>
                <notations>
                    <tied type="stop"/>
                </notations>
            </note>
            <barline location="right">
                <bar-style>light-heavy</bar-style>
            </barline>
        </measure>
    </part>
</score-partwise>
