<?xml version="1.0" encoding="UTF-8"?>
<!DOCTYPE score-partwise PUBLIC "-//Recordare//DTD MusicXML 2.0 Partwise//EN" "http://www.musicxml.org/dtds/partwise.dtd">
<score-partwise version="2.0">
    <work>
        <work-number></work-number>
        <work-title></work-title>
    </work>
    <movement-number></movement-number>
    <movement-title>Windy Bill</movement-title>
    <identification>
        <creator type="composer">old cowboy song</creator>
        <creator type="poet"></creator>
        <rights>Public Domain</rights>
        <encoding>
            <software>MuseScore 1.2</software>
            <encoding-date>2013-02-09</encoding-date>
            <software>ProxyMusic 2.0 c</software>
        </encoding>
        <source>http://wikifonia.org/node/20590/revisions/27218/view</source>
    </identification>
    <defaults>
        <scaling>
            <millimeters>7.056</millimeters>
            <tenths>40</tenths>
        </scaling>
        <page-layout>
            <page-height>1683.67</page-height>
            <page-width>1190.48</page-width>
            <page-margins type="even">
                <left-margin>56.6893</left-margin>
                <right-margin>56.6893</right-margin>
                <top-margin>56.6893</top-margin>
                <bottom-margin>113.379</bottom-margin>
            </page-margins>
            <page-margins type="odd">
                <left-margin>56.6893</left-margin>
                <right-margin>56.6893</right-margin>
                <top-margin>56.6893</top-margin>
                <bottom-margin>113.379</bottom-margin>
            </page-margins>
        </page-layout>
    </defaults>
    <credit page="1">
        <credit-words font-size="24" default-y="1626.98" default-x="595.238" justify="center" valign="top">Windy Bill</credit-words>
    </credit>
    <credit page="1">
        <credit-words font-size="12" default-y="1559.98" default-x="1133.79" justify="right" valign="top">Old Cowboy Song</credit-words>
    </credit>
    <credit page="1">
        <credit-words font-size="8" default-y="113.379" default-x="595.238" justify="center" valign="bottom">Unknown</credit-words>
    </credit>
    <part-list>
        <part-group type="start" number="1">
            <group-symbol>brace</group-symbol>
        </part-group>
        <score-part id="P1">
            <part-name></part-name>
            <score-instrument id="P1-I3">
                <instrument-name></instrument-name>
            </score-instrument>
            <midi-instrument id="P1-I3">
                <midi-channel>1</midi-channel>
                <midi-program>1</midi-program>
                <volume>78.7402</volume>
                <pan>0</pan>
            </midi-instrument>
        </score-part>
    </part-list>
    <part id="P1">
        <measure width="262.38" number="0" implicit="yes">
            <print>
                <system-layout>
                    <system-margins>
                        <left-margin>18.50</left-margin>
                        <right-margin>0.00</right-margin>
                    </system-margins>
                    <top-system-distance>238.54</top-system-distance>
                </system-layout>
            </print>
            <attributes>
                <divisions>12</divisions>
                <key>
                    <fifths>0</fifths>
                    <mode>major</mode>
                </key>
                <time>
                    <beats>4</beats>
                    <beat-type>4</beat-type>
                </time>
                <clef>
                    <sign>G</sign>
                    <line>2</line>
                </clef>
            </attributes>
            <note default-y="-30.00" default-x="110.06">
                <pitch>
                    <step>G</step>
                    <octave>4</octave>
                </pitch>
                <duration>6</duration>
                <tie type="start"/>
                <voice>1</voice>
                <type>eighth</type>
                <stem>up</stem>
                <beam number="1">begin</beam>
                <notations>
                    <tied type="start"/>
                </notations>
                <lyric number="1">
                    <syllabic>single</syllabic>
                    <text>1. Ol'</text>
                </lyric>
                <lyric number="2">
                    <syllabic>single</syllabic>
                    <text>2.This </text>
                </lyric>
                <lyric number="3">
                    <syllabic>single</syllabic>
                    <text>3. With</text>
                </lyric>
                <lyric number="4">
                    <syllabic>single</syllabic>
                    <text>4. The</text>
                </lyric>
                <lyric number="5">
                    <syllabic>single</syllabic>
                    <text>5. Ol' </text>
                </lyric>
                <lyric number="6">
                    <syllabic>single</syllabic>
                    <text>6. Now</text>
                </lyric>
            </note>
            <note default-y="-30.00" default-x="185.42">
                <pitch>
                    <step>G</step>
                    <octave>4</octave>
                </pitch>
                <duration>6</duration>
                <tie type="stop"/>
                <voice>1</voice>
                <type>eighth</type>
                <stem>up</stem>
                <beam number="1">end</beam>
                <notations>
                    <tied type="stop"/>
                </notations>
                <lyric number="3">
                    <syllabic>single</syllabic>
                    <text>his</text>
                </lyric>
            </note>
        </measure>
        <measure width="796.22" number="1">
            <harmony print-frame="no">
                <root>
                    <root-step>C</root-step>
                </root>
                <kind text="">major</kind>
            </harmony>
            <note default-y="-50.00" default-x="34.66">
                <pitch>
                    <step>C</step>
                    <octave>4</octave>
                </pitch>
                <duration>9</duration>
                <voice>1</voice>
                <type>eighth</type>
                <dot/>
                <stem>up</stem>
                <beam number="1">begin</beam>
                <lyric number="1">
                    <syllabic>begin</syllabic>
                    <text>Win</text>
                </lyric>
                <lyric number="2">
                    <syllabic>single</syllabic>
                    <text>old</text>
                </lyric>
                <lyric number="3">
                    <syllabic>begin</syllabic>
                    <text>Bra</text>
                </lyric>
                <lyric number="4">
                    <syllabic>single</syllabic>
                    <text>ol'</text>
                </lyric>
                <lyric number="5">
                    <syllabic>single</syllabic>
                    <text>Bill,</text>
                </lyric>
                <lyric number="6">
                    <syllabic>single</syllabic>
                    <text>there's</text>
                </lyric>
            </note>
            <note default-y="-50.00" default-x="151.52">
                <pitch>
                    <step>C</step>
                    <octave>4</octave>
                </pitch>
                <duration>3</duration>
                <voice>1</voice>
                <type>16th</type>
                <stem>up</stem>
                <beam number="1">end</beam>
                <beam number="2">backward hook</beam>
                <lyric number="1">
                    <syllabic>end</syllabic>
                    <text>dy</text>
                </lyric>
                <lyric number="2">
                    <syllabic>single</syllabic>
                    <text>black</text>
                </lyric>
                <lyric number="3">
                    <syllabic>end</syllabic>
                    <text>zos</text>
                </lyric>
                <lyric number="4">
                    <syllabic>single</syllabic>
                    <text>gray</text>
                </lyric>
                <lyric number="5">
                    <syllabic>single</syllabic>
                    <text>he</text>
                </lyric>
                <lyric number="6">
                    <syllabic>single</syllabic>
                    <text>a</text>
                </lyric>
            </note>
            <note default-y="-50.00" default-x="211.41">
                <pitch>
                    <step>C</step>
                    <octave>4</octave>
                </pitch>
                <duration>4</duration>
                <voice>1</voice>
                <type>eighth</type>
                <time-modification>
                    <actual-notes>3</actual-notes>
                    <normal-notes>2</normal-notes>
                </time-modification>
                <stem>up</stem>
                <beam number="1">begin</beam>
                <notations>
                    <tuplet type="start" bracket="no"/>
                </notations>
                <lyric number="1">
                    <syllabic>single</syllabic>
                    <text>Bill</text>
                </lyric>
                <lyric number="2">
                    <syllabic>single</syllabic>
                    <text>steer</text>
                </lyric>
                <lyric number="3">
                    <syllabic>single</syllabic>
                    <text>bit</text>
                </lyric>
                <lyric number="4">
                    <syllabic>single</syllabic>
                    <text>plug</text>
                </lyric>
                <lyric number="5">
                    <syllabic>single</syllabic>
                    <text>lit</text>
                </lyric>
                <lyric number="6">
                    <syllabic>begin</syllabic>
                    <text>mor</text>
                </lyric>
            </note>
            <note default-y="-50.00" default-x="286.22">
                <pitch>
                    <step>C</step>
                    <octave>4</octave>
                </pitch>
                <duration>4</duration>
                <voice>1</voice>
                <type>eighth</type>
                <time-modification>
                    <actual-notes>3</actual-notes>
                    <normal-notes>2</normal-notes>
                </time-modification>
                <stem>up</stem>
                <beam number="1">continue</beam>
                <lyric number="1">
                    <syllabic>single</syllabic>
                    <text>was</text>
                </lyric>
                <lyric number="3">
                    <syllabic>single</syllabic>
                    <text>and</text>
                </lyric>
                <lyric number="5">
                    <syllabic>single</syllabic>
                    <text>in</text>
                </lyric>
            </note>
            <note default-y="-45.00" default-x="361.03">
                <pitch>
                    <step>D</step>
                    <octave>4</octave>
                </pitch>
                <duration>4</duration>
                <voice>1</voice>
                <type>eighth</type>
                <time-modification>
                    <actual-notes>3</actual-notes>
                    <normal-notes>2</normal-notes>
                </time-modification>
                <stem>up</stem>
                <beam number="1">end</beam>
                <notations>
                    <tuplet type="stop"/>
                </notations>
                <lyric number="1">
                    <syllabic>single</syllabic>
                    <text>a</text>
                </lyric>
                <lyric number="2">
                    <syllabic>single</syllabic>
                    <text>had</text>
                </lyric>
                <lyric number="3">
                    <syllabic>single</syllabic>
                    <text>his</text>
                </lyric>
                <lyric number="4">
                    <syllabic>single</syllabic>
                    <text>flew</text>
                </lyric>
                <lyric number="5">
                    <syllabic>single</syllabic>
                    <text>a</text>
                </lyric>
                <lyric number="6">
                    <syllabic>end</syllabic>
                    <text>al</text>
                </lyric>
            </note>
            <note default-y="-40.00" default-x="435.84">
                <pitch>
                    <step>E</step>
                    <octave>4</octave>
                </pitch>
                <duration>9</duration>
                <voice>1</voice>
                <type>eighth</type>
                <dot/>
                <stem>up</stem>
                <beam number="1">begin</beam>
                <lyric number="1">
                    <syllabic>begin</syllabic>
                    <text>Tex</text>
                </lyric>
                <lyric number="2">
                    <syllabic>single</syllabic>
                    <text>stood</text>
                </lyric>
                <lyric number="3">
                    <syllabic>single</syllabic>
                    <text>Sam</text>
                </lyric>
                <lyric number="4">
                    <syllabic>begin</syllabic>
                    <text>af</text>
                </lyric>
                <lyric number="5">
                    <syllabic>single</syllabic>
                    <text>flint</text>
                </lyric>
                <lyric number="6">
                    <syllabic>single</syllabic>
                    <text>to</text>
                </lyric>
            </note>
            <note default-y="-40.00" default-x="552.70">
                <pitch>
                    <step>E</step>
                    <octave>4</octave>
                </pitch>
                <duration>3</duration>
                <voice>1</voice>
                <type>16th</type>
                <stem>up</stem>
                <beam number="1">continue</beam>
                <beam number="2">forward hook</beam>
                <lyric number="1">
                    <syllabic>end</syllabic>
                    <text>as</text>
                </lyric>
                <lyric number="2">
                    <syllabic>single</syllabic>
                    <text>his</text>
                </lyric>
                <lyric number="3">
                    <syllabic>single</syllabic>
                    <text>Stack</text>
                </lyric>
                <lyric number="4">
                    <syllabic>end</syllabic>
                    <text>ter</text>
                </lyric>
                <lyric number="5">
                    <syllabic>single</syllabic>
                    <text>rock</text>
                </lyric>
                <lyric number="6">
                    <syllabic>single</syllabic>
                    <text>this</text>
                </lyric>
            </note>
            <note default-y="-40.00" default-x="617.87">
                <pitch>
                    <step>E</step>
                    <octave>4</octave>
                </pitch>
                <duration>9</duration>
                <voice>1</voice>
                <type>eighth</type>
                <dot/>
                <stem>up</stem>
                <beam number="1">continue</beam>
                <lyric number="1">
                    <syllabic>single</syllabic>
                    <text>boy</text>
                </lyric>
                <lyric number="2">
                    <syllabic>single</syllabic>
                    <text>ground</text>
                </lyric>
                <lyric number="3">
                    <syllabic>single</syllabic>
                    <text>tree,</text>
                </lyric>
                <lyric number="4">
                    <syllabic>single</syllabic>
                    <text>him</text>
                </lyric>
                <lyric number="5">
                    <syllabic>single</syllabic>
                    <text>pile,</text>
                </lyric>
                <lyric number="6">
                    <syllabic>single</syllabic>
                    <text>tale,</text>
                </lyric>
            </note>
            <note default-y="-50.00" default-x="734.72">
                <pitch>
                    <step>C</step>
                    <octave>4</octave>
                </pitch>
                <duration>3</duration>
                <voice>1</voice>
                <type>16th</type>
                <stem>up</stem>
                <beam number="1">end</beam>
                <beam number="2">backward hook</beam>
                <lyric number="1">
                    <syllabic>single</syllabic>
                    <text>and</text>
                </lyric>
                <lyric number="2">
                    <syllabic>single</syllabic>
                    <text>with</text>
                </lyric>
                <lyric number="3">
                    <syllabic>single</syllabic>
                    <text>and</text>
                </lyric>
                <lyric number="4">
                    <syllabic>single</syllabic>
                    <text>like</text>
                </lyric>
                <lyric number="5">
                    <syllabic>single</syllabic>
                    <text>his</text>
                </lyric>
                <lyric number="6">
                    <syllabic>single</syllabic>
                    <text>as</text>
                </lyric>
            </note>
        </measure>
        <measure width="1058.60" number="2">
            <print new-system="yes">
                <system-layout>
                    <system-margins>
                        <left-margin>18.50</left-margin>
                        <right-margin>0.00</right-margin>
                    </system-margins>
                    <system-distance>299.03</system-distance>
                </system-layout>
            </print>
            <harmony print-frame="no">
                <root>
                    <root-step>G</root-step>
                </root>
                <kind text="7">dominant</kind>
            </harmony>
            <note default-y="-45.00" default-x="82.77">
                <pitch>
                    <step>D</step>
                    <octave>4</octave>
                </pitch>
                <duration>4</duration>
                <tie type="start"/>
                <voice>1</voice>
                <type>eighth</type>
                <time-modification>
                    <actual-notes>3</actual-notes>
                    <normal-notes>2</normal-notes>
                </time-modification>
                <stem>up</stem>
                <beam number="1">begin</beam>
                <notations>
                    <tied type="start"/>
                    <tuplet type="start" bracket="no"/>
                </notations>
                <lyric number="1">
                    <syllabic>single</syllabic>
                    <text>he</text>
                </lyric>
                <lyric number="2">
                    <syllabic>begin</syllabic>
                    <text>punch</text>
                </lyric>
                <lyric number="3">
                    <syllabic>single</syllabic>
                    <text>chaps</text>
                </lyric>
                <lyric number="4">
                    <syllabic>single</syllabic>
                    <text>he'd</text>
                </lyric>
                <lyric number="5">
                    <syllabic>single</syllabic>
                    <text>face</text>
                </lyric>
                <lyric number="6">
                    <syllabic>single</syllabic>
                    <text>you</text>
                </lyric>
            </note>
            <note default-y="-45.00" default-x="190.95">
                <pitch>
                    <step>D</step>
                    <octave>4</octave>
                </pitch>
                <duration>4</duration>
                <tie type="stop"/>
                <voice>1</voice>
                <type>eighth</type>
                <time-modification>
                    <actual-notes>3</actual-notes>
                    <normal-notes>2</normal-notes>
                </time-modification>
                <stem>up</stem>
                <beam number="1">continue</beam>
                <notations>
                    <tied type="stop"/>
                </notations>
                <lyric number="2">
                    <syllabic>end</syllabic>
                    <text>ers</text>
                </lyric>
            </note>
            <note default-y="-45.00" default-x="299.12">
                <pitch>
                    <step>D</step>
                    <octave>4</octave>
                </pitch>
                <duration>4</duration>
                <voice>1</voice>
                <type>eighth</type>
                <time-modification>
                    <actual-notes>3</actual-notes>
                    <normal-notes>2</normal-notes>
                </time-modification>
                <stem>up</stem>
                <beam number="1">end</beam>
                <notations>
                    <tuplet type="stop"/>
                </notations>
                <lyric number="1">
                    <syllabic>single</syllabic>
                    <text>could</text>
                </lyric>
                <lyric number="2">
                    <syllabic>single</syllabic>
                    <text>from</text>
                </lyric>
                <lyric number="3">
                    <syllabic>single</syllabic>
                    <text>and</text>
                </lyric>
                <lyric number="4">
                    <syllabic>single</syllabic>
                    <text>been</text>
                </lyric>
                <lyric number="5">
                    <syllabic>single</syllabic>
                    <text>and</text>
                </lyric>
                <lyric number="6">
                    <syllabic>single</syllabic>
                    <text>can</text>
                </lyric>
            </note>
            <note default-y="-50.00" default-x="407.29">
                <pitch>
                    <step>C</step>
                    <octave>4</octave>
                </pitch>
                <duration>9</duration>
                <voice>1</voice>
                <type>eighth</type>
                <dot/>
                <stem>up</stem>
                <beam number="1">begin</beam>
                <lyric number="1">
                    <syllabic>single</syllabic>
                    <text>rope,</text>
                </lyric>
                <lyric number="2">
                    <syllabic>begin</syllabic>
                    <text>ev</text>
                </lyric>
                <lyric number="3">
                    <syllabic>single</syllabic>
                    <text>spurs</text>
                </lyric>
                <lyric number="4">
                    <syllabic>begin</syllabic>
                    <text>eat</text>
                </lyric>
                <lyric number="5">
                    <syllabic>single</syllabic>
                    <text>hands</text>
                </lyric>
                <lyric number="6">
                    <syllabic>begin</syllabic>
                    <text>plain</text>
                </lyric>
            </note>
            <note default-y="-55.00" default-x="576.25">
                <pitch>
                    <step>B</step>
                    <octave>3</octave>
                </pitch>
                <duration>3</duration>
                <voice>1</voice>
                <type>16th</type>
                <stem>up</stem>
                <beam number="1">end</beam>
                <beam number="2">backward hook</beam>
                <lyric number="1">
                    <syllabic>single</syllabic>
                    <text>you</text>
                </lyric>
                <lyric number="2">
                    <syllabic>end</syllabic>
                    <text>'ry</text>
                </lyric>
                <lyric number="3">
                    <syllabic>single</syllabic>
                    <text>to</text>
                </lyric>
                <lyric number="4">
                    <syllabic>end</syllabic>
                    <text>in'</text>
                </lyric>
                <lyric number="5">
                    <syllabic>single</syllabic>
                    <text>were</text>
                </lyric>
                <lyric number="6">
                    <syllabic>end</syllabic>
                    <text>ly</text>
                </lyric>
            </note>
            <harmony print-frame="no">
                <root>
                    <root-step>C</root-step>
                </root>
                <kind text="">major</kind>
            </harmony>
            <note default-y="-50.00" default-x="662.86">
                <pitch>
                    <step>C</step>
                    <octave>4</octave>
                </pitch>
                <duration>18</duration>
                <voice>1</voice>
                <type>quarter</type>
                <dot/>
                <stem>up</stem>
                <lyric number="1">
                    <syllabic>single</syllabic>
                    <text>bet.</text>
                </lyric>
                <lyric number="2">
                    <syllabic>single</syllabic>
                    <text>where.</text>
                </lyric>
                <lyric number="3">
                    <syllabic>single</syllabic>
                    <text>boot,</text>
                </lyric>
                <lyric number="4">
                    <syllabic>single</syllabic>
                    <text>corn,</text>
                </lyric>
                <lyric number="5">
                    <syllabic>single</syllabic>
                    <text>scratched.</text>
                </lyric>
                <lyric number="6">
                    <syllabic>single</syllabic>
                    <text>see.</text>
                </lyric>
            </note>
            <note default-y="-50.00" default-x="883.79">
                <pitch>
                    <step>C</step>
                    <octave>4</octave>
                </pitch>
                <duration>3</duration>
                <tie type="start"/>
                <voice>1</voice>
                <type>16th</type>
                <stem>up</stem>
                <beam number="1">begin</beam>
                <beam number="2">begin</beam>
                <notations>
                    <tied type="start"/>
                </notations>
                <lyric number="1">
                    <syllabic>single</syllabic>
                    <text>He</text>
                </lyric>
                <lyric number="2">
                    <syllabic>single</syllabic>
                    <text>So</text>
                </lyric>
                <lyric number="3">
                    <syllabic>single</syllabic>
                    <text>And</text>
                </lyric>
                <lyric number="4">
                    <syllabic>single</syllabic>
                    <text>And</text>
                </lyric>
                <lyric number="5">
                    <syllabic>single</syllabic>
                    <text>He</text>
                </lyric>
                <lyric number="6">
                    <syllabic>begin</syllabic>
                    <text>When</text>
                </lyric>
            </note>
            <note default-y="-50.00" default-x="970.39">
                <pitch>
                    <step>C</step>
                    <octave>4</octave>
                </pitch>
                <duration>3</duration>
                <tie type="stop"/>
                <voice>1</voice>
                <type>16th</type>
                <stem>up</stem>
                <beam number="1">end</beam>
                <beam number="2">end</beam>
                <notations>
                    <tied type="stop"/>
                </notations>
                <lyric number="2">
                    <syllabic>single</syllabic>
                    <text>they</text>
                </lyric>
                <lyric number="3">
                    <syllabic>single</syllabic>
                    <text>his</text>
                </lyric>
            </note>
        </measure>
        <measure width="1058.60" number="3">
            <print new-system="yes">
                <system-layout>
                    <system-margins>
                        <left-margin>18.50</left-margin>
                        <right-margin>0.00</right-margin>
                    </system-margins>
                    <system-distance>299.03</system-distance>
                </system-layout>
            </print>
            <note default-y="-40.00" default-x="82.14">
                <pitch>
                    <step>E</step>
                    <octave>4</octave>
                </pitch>
                <duration>4</duration>
                <tie type="start"/>
                <voice>1</voice>
                <type>eighth</type>
                <time-modification>
                    <actual-notes>3</actual-notes>
                    <normal-notes>2</normal-notes>
                </time-modification>
                <stem>up</stem>
                <beam number="1">begin</beam>
                <notations>
                    <tied type="start"/>
                    <tuplet type="start" bracket="no"/>
                </notations>
                <lyric number="1">
                    <syllabic>single</syllabic>
                    <text>swore</text>
                </lyric>
                <lyric number="2">
                    <syllabic>single</syllabic>
                    <text>bet</text>
                </lyric>
                <lyric number="3">
                    <syllabic>single</syllabic>
                    <text>old</text>
                </lyric>
                <lyric number="4">
                    <syllabic>single</syllabic>
                    <text>Bill,</text>
                </lyric>
                <lyric number="5">
                    <syllabic>single</syllabic>
                    <text>said</text>
                </lyric>
                <lyric number="6">
                    <syllabic>begin</syllabic>
                    <text>ev</text>
                </lyric>
            </note>
            <note default-y="-40.00" default-x="167.94">
                <pitch>
                    <step>E</step>
                    <octave>4</octave>
                </pitch>
                <duration>4</duration>
                <tie type="stop"/>
                <voice>1</voice>
                <type>eighth</type>
                <time-modification>
                    <actual-notes>3</actual-notes>
                    <normal-notes>2</normal-notes>
                </time-modification>
                <stem>up</stem>
                <beam number="1">continue</beam>
                <notations>
                    <tied type="stop"/>
                </notations>
                <lyric number="6">
                    <syllabic>end</syllabic>
                    <text>er</text>
                </lyric>
            </note>
            <note default-y="-40.00" default-x="253.73">
                <pitch>
                    <step>E</step>
                    <octave>4</octave>
                </pitch>
                <duration>4</duration>
                <voice>1</voice>
                <type>eighth</type>
                <time-modification>
                    <actual-notes>3</actual-notes>
                    <normal-notes>2</normal-notes>
                </time-modification>
                <stem>up</stem>
                <beam number="1">end</beam>
                <notations>
                    <tuplet type="stop"/>
                </notations>
                <lyric number="1">
                    <syllabic>single</syllabic>
                    <text>the</text>
                </lyric>
                <lyric number="2">
                    <syllabic>single</syllabic>
                    <text>ol'</text>
                </lyric>
                <lyric number="3">
                    <syllabic>begin</syllabic>
                    <text>ma</text>
                </lyric>
                <lyric number="4">
                    <syllabic>single</syllabic>
                    <text>he</text>
                </lyric>
                <lyric number="5">
                    <syllabic>single</syllabic>
                    <text>he</text>
                </lyric>
                <lyric number="6">
                    <syllabic>single</syllabic>
                    <text>you</text>
                </lyric>
            </note>
            <note default-y="-40.00" default-x="339.53">
                <pitch>
                    <step>E</step>
                    <octave>4</octave>
                </pitch>
                <duration>4</duration>
                <tie type="start"/>
                <voice>1</voice>
                <type>eighth</type>
                <time-modification>
                    <actual-notes>3</actual-notes>
                    <normal-notes>2</normal-notes>
                </time-modification>
                <stem>up</stem>
                <beam number="1">begin</beam>
                <notations>
                    <tied type="start"/>
                    <tuplet type="start" bracket="no"/>
                </notations>
                <lyric number="1">
                    <syllabic>single</syllabic>
                    <text>steer</text>
                </lyric>
                <lyric number="2">
                    <syllabic>single</syllabic>
                    <text>Bill</text>
                </lyric>
                <lyric number="3">
                    <syllabic>end</syllabic>
                    <text>guey</text>
                </lyric>
                <lyric number="4">
                    <syllabic>single</syllabic>
                    <text>piled</text>
                </lyric>
                <lyric number="5">
                    <syllabic>single</syllabic>
                    <text>thought</text>
                </lyric>
                <lyric number="6">
                    <syllabic>single</syllabic>
                    <text>try</text>
                </lyric>
            </note>
            <note default-y="-40.00" default-x="425.32">
                <pitch>
                    <step>E</step>
                    <octave>4</octave>
                </pitch>
                <duration>4</duration>
                <tie type="stop"/>
                <voice>1</voice>
                <type>eighth</type>
                <time-modification>
                    <actual-notes>3</actual-notes>
                    <normal-notes>2</normal-notes>
                </time-modification>
                <stem>up</stem>
                <beam number="1">continue</beam>
                <notations>
                    <tied type="stop"/>
                </notations>
                <lyric number="5">
                    <syllabic>single</syllabic>
                    <text>he</text>
                </lyric>
            </note>
            <note default-y="-35.00" default-x="511.12">
                <pitch>
                    <step>F</step>
                    <octave>4</octave>
                </pitch>
                <duration>4</duration>
                <voice>1</voice>
                <type>eighth</type>
                <time-modification>
                    <actual-notes>3</actual-notes>
                    <normal-notes>2</normal-notes>
                </time-modification>
                <stem>up</stem>
                <beam number="1">end</beam>
                <notations>
                    <tuplet type="stop"/>
                </notations>
                <lyric number="1">
                    <syllabic>single</syllabic>
                    <text>he</text>
                </lyric>
                <lyric number="2">
                    <syllabic>single</syllabic>
                    <text>at</text>
                </lyric>
                <lyric number="3">
                    <syllabic>single</syllabic>
                    <text>tied</text>
                </lyric>
                <lyric number="4">
                    <syllabic>single</syllabic>
                    <text>that</text>
                </lyric>
                <lyric number="5">
                    <syllabic>single</syllabic>
                    <text>could</text>
                </lyric>
                <lyric number="6">
                    <syllabic>single</syllabic>
                    <text>to</text>
                </lyric>
            </note>
            <note default-y="-30.00" default-x="596.91">
                <pitch>
                    <step>G</step>
                    <octave>4</octave>
                </pitch>
                <duration>9</duration>
                <voice>1</voice>
                <type>eighth</type>
                <dot/>
                <stem>up</stem>
                <beam number="1">begin</beam>
                <lyric number="1">
                    <syllabic>begin</syllabic>
                    <text>could</text>
                </lyric>
                <lyric number="2">
                    <syllabic>single</syllabic>
                    <text>two</text>
                </lyric>
                <lyric number="3">
                    <syllabic>single</syllabic>
                    <text>hard</text>
                </lyric>
                <lyric number="4">
                    <syllabic>single</syllabic>
                    <text>old</text>
                </lyric>
                <lyric number="5">
                    <syllabic>single</syllabic>
                    <text>rope</text>
                </lyric>
                <lyric number="6">
                    <syllabic>single</syllabic>
                    <text>rope</text>
                </lyric>
            </note>
            <note default-y="-30.00" default-x="730.92">
                <pitch>
                    <step>G</step>
                    <octave>4</octave>
                </pitch>
                <duration>3</duration>
                <voice>1</voice>
                <type>16th</type>
                <stem>up</stem>
                <beam number="1">end</beam>
                <beam number="2">backward hook</beam>
                <lyric number="1">
                    <syllabic>end</syllabic>
                    <text>n't</text>
                </lyric>
                <lyric number="2">
                    <syllabic>single</syllabic>
                    <text>to</text>
                </lyric>
                <lyric number="3">
                    <syllabic>single</syllabic>
                    <text>and</text>
                </lyric>
                <lyric number="4">
                    <syllabic>begin</syllabic>
                    <text>ma</text>
                </lyric>
                <lyric number="5">
                    <syllabic>single</syllabic>
                    <text>a</text>
                </lyric>
                <lyric number="6">
                    <syllabic>single</syllabic>
                    <text>a</text>
                </lyric>
            </note>
            <note default-y="-30.00" default-x="799.61">
                <pitch>
                    <step>G</step>
                    <octave>4</octave>
                </pitch>
                <duration>4</duration>
                <tie type="start"/>
                <voice>1</voice>
                <type>eighth</type>
                <time-modification>
                    <actual-notes>3</actual-notes>
                    <normal-notes>2</normal-notes>
                </time-modification>
                <stem>up</stem>
                <beam number="1">begin</beam>
                <notations>
                    <tied type="start"/>
                    <tuplet type="start" bracket="no"/>
                </notations>
                <lyric number="1">
                    <syllabic>single</syllabic>
                    <text>tie,</text>
                </lyric>
                <lyric number="2">
                    <syllabic>single</syllabic>
                    <text>one</text>
                </lyric>
                <lyric number="3">
                    <syllabic>single</syllabic>
                    <text>fast</text>
                </lyric>
                <lyric number="4">
                    <syllabic>end</syllabic>
                    <text>guey</text>
                </lyric>
                <lyric number="5">
                    <syllabic>single</syllabic>
                    <text>snake</text>
                </lyric>
                <lyric number="6">
                    <syllabic>single</syllabic>
                    <text>steer,</text>
                </lyric>
            </note>
            <note default-y="-30.00" default-x="885.41">
                <pitch>
                    <step>G</step>
                    <octave>4</octave>
                </pitch>
                <duration>4</duration>
                <tie type="stop"/>
                <voice>1</voice>
                <type>eighth</type>
                <time-modification>
                    <actual-notes>3</actual-notes>
                    <normal-notes>2</normal-notes>
                </time-modification>
                <stem>up</stem>
                <beam number="1">continue</beam>
                <notations>
                    <tied type="stop"/>
                </notations>
                <lyric number="5">
                    <syllabic>single</syllabic>
                    <text>but</text>
                </lyric>
            </note>
            <note default-y="-25.00" default-x="971.20">
                <pitch>
                    <step>A</step>
                    <octave>4</octave>
                </pitch>
                <duration>4</duration>
                <voice>1</voice>
                <type>eighth</type>
                <time-modification>
                    <actual-notes>3</actual-notes>
                    <normal-notes>2</normal-notes>
                </time-modification>
                <stem>up</stem>
                <beam number="1">end</beam>
                <notations>
                    <tuplet type="stop"/>
                </notations>
                <lyric number="1">
                    <syllabic>single</syllabic>
                    <text>he</text>
                </lyric>
                <lyric number="2">
                    <syllabic>single</syllabic>
                    <text>he</text>
                </lyric>
                <lyric number="3">
                    <syllabic>single</syllabic>
                    <text>he</text>
                </lyric>
                <lyric number="4">
                    <syllabic>single</syllabic>
                    <text>right</text>
                </lyric>
                <lyric number="5">
                    <syllabic>single</syllabic>
                    <text>he</text>
                </lyric>
                <lyric number="6">
                    <syllabic>single</syllabic>
                    <text>don't</text>
                </lyric>
            </note>
        </measure>
        <measure width="1058.60" number="4">
            <print new-system="yes">
                <system-layout>
                    <system-margins>
                        <left-margin>18.50</left-margin>
                        <right-margin>0.00</right-margin>
                    </system-margins>
                    <system-distance>299.03</system-distance>
                </system-layout>
            </print>
            <harmony print-frame="no">
                <root>
                    <root-step>G</root-step>
                </root>
                <kind text="">major</kind>
            </harmony>
            <note default-y="-30.00" default-x="91.10">
                <pitch>
                    <step>G</step>
                    <octave>4</octave>
                </pitch>
                <duration>9</duration>
                <voice>1</voice>
                <type>eighth</type>
                <dot/>
                <stem>up</stem>
                <beam number="1">begin</beam>
                <lyric number="1">
                    <syllabic>begin</syllabic>
                    <text>had</text>
                </lyric>
                <lyric number="2">
                    <syllabic>begin</syllabic>
                    <text>could</text>
                </lyric>
                <lyric number="3">
                    <syllabic>single</syllabic>
                    <text>swore</text>
                </lyric>
                <lyric number="4">
                    <syllabic>single</syllabic>
                    <text>round</text>
                </lyric>
                <lyric number="5">
                    <syllabic>single</syllabic>
                    <text>guessed</text>
                </lyric>
                <lyric number="6">
                    <syllabic>single</syllabic>
                    <text>tie</text>
                </lyric>
            </note>
            <note default-y="-45.00" default-x="271.38">
                <pitch>
                    <step>D</step>
                    <octave>4</octave>
                </pitch>
                <duration>3</duration>
                <voice>1</voice>
                <type>16th</type>
                <stem>up</stem>
                <beam number="1">continue</beam>
                <beam number="2">forward hook</beam>
                <lyric number="1">
                    <syllabic>end</syllabic>
                    <text>n't</text>
                </lyric>
                <lyric number="2">
                    <syllabic>end</syllabic>
                    <text>n't</text>
                </lyric>
                <lyric number="3">
                    <syllabic>single</syllabic>
                    <text>he'd</text>
                </lyric>
                <lyric number="4">
                    <syllabic>single</syllabic>
                    <text>ol'</text>
                </lyric>
                <lyric number="5">
                    <syllabic>single</syllabic>
                    <text>he'd</text>
                </lyric>
                <lyric number="6">
                    <syllabic>single</syllabic>
                    <text>him</text>
                </lyric>
            </note>
            <note default-y="-45.00" default-x="363.79">
                <pitch>
                    <step>D</step>
                    <octave>4</octave>
                </pitch>
                <duration>9</duration>
                <voice>1</voice>
                <type>eighth</type>
                <dot/>
                <stem>up</stem>
                <beam number="1">continue</beam>
                <lyric number="1">
                    <syllabic>single</syllabic>
                    <text>met</text>
                </lyric>
                <lyric number="2">
                    <syllabic>single</syllabic>
                    <text>quite</text>
                </lyric>
                <lyric number="3">
                    <syllabic>single</syllabic>
                    <text>get</text>
                </lyric>
                <lyric number="4">
                    <syllabic>begin</syllabic>
                    <text>Black</text>
                </lyric>
                <lyric number="5">
                    <syllabic>single</syllabic>
                    <text>met</text>
                </lyric>
                <lyric number="6">
                    <syllabic>single</syllabic>
                    <text>to</text>
                </lyric>
            </note>
            <note default-y="-40.00" default-x="544.07">
                <pitch>
                    <step>E</step>
                    <octave>4</octave>
                </pitch>
                <duration>3</duration>
                <voice>1</voice>
                <type>16th</type>
                <stem>up</stem>
                <beam number="1">end</beam>
                <beam number="2">backward hook</beam>
                <lyric number="1">
                    <syllabic>single</syllabic>
                    <text>with</text>
                </lyric>
                <lyric number="2">
                    <syllabic>single</syllabic>
                    <text>get</text>
                </lyric>
                <lyric number="3">
                    <syllabic>single</syllabic>
                    <text>that</text>
                </lyric>
                <lyric number="4">
                    <syllabic>end</syllabic>
                    <text>ie's</text>
                </lyric>
                <lyric number="5">
                    <syllabic>single</syllabic>
                    <text>his</text>
                </lyric>
                <lyric number="6">
                    <syllabic>single</syllabic>
                    <text>the</text>
                </lyric>
            </note>
            <note default-y="-45.00" default-x="636.47">
                <pitch>
                    <step>D</step>
                    <octave>4</octave>
                </pitch>
                <duration>18</duration>
                <voice>1</voice>
                <type>quarter</type>
                <dot/>
                <stem>up</stem>
                <lyric number="1">
                    <syllabic>single</syllabic>
                    <text>yet.</text>
                </lyric>
                <lyric number="2">
                    <syllabic>single</syllabic>
                    <text>there.</text>
                </lyric>
                <lyric number="3">
                    <syllabic>single</syllabic>
                    <text>brute.</text>
                </lyric>
                <lyric number="4">
                    <syllabic>single</syllabic>
                    <text>horn.</text>
                </lyric>
                <lyric number="5">
                    <syllabic>single</syllabic>
                    <text>match.</text>
                </lyric>
                <lyric number="6">
                    <syllabic>single</syllabic>
                    <text>tree.</text>
                </lyric>
            </note>
            <note default-y="-30.00" default-x="872.19">
                <pitch>
                    <step>G</step>
                    <octave>4</octave>
                </pitch>
                <duration>3</duration>
                <voice>1</voice>
                <type>16th</type>
                <stem>up</stem>
                <beam number="1">begin</beam>
                <beam number="2">begin</beam>
                <lyric number="1">
                    <syllabic>single</syllabic>
                    <text>But</text>
                </lyric>
                <lyric number="2">
                    <syllabic>single</syllabic>
                    <text>So</text>
                </lyric>
                <lyric number="3">
                    <syllabic>single</syllabic>
                    <text>Now'</text>
                </lyric>
                <lyric number="4">
                    <syllabic>single</syllabic>
                    <text>The</text>
                </lyric>
                <lyric number="5">
                    <syllabic>single</syllabic>
                    <text>He</text>
                </lyric>
                <lyric number="6">
                    <syllabic>single</syllabic>
                    <text>But</text>
                </lyric>
            </note>
            <note default-y="-30.00" default-x="964.59">
                <pitch>
                    <step>G</step>
                    <octave>4</octave>
                </pitch>
                <duration>3</duration>
                <voice>1</voice>
                <type>16th</type>
                <stem>up</stem>
                <beam number="1">end</beam>
                <beam number="2">end</beam>
                <lyric number="1">
                    <syllabic>single</syllabic>
                    <text>the</text>
                </lyric>
            </note>
        </measure>
        <measure width="1058.60" number="5">
            <print new-page="yes">
                <system-layout>
                    <system-margins>
                        <left-margin>18.50</left-margin>
                        <right-margin>0.00</right-margin>
                    </system-margins>
                    <top-system-distance>70.00</top-system-distance>
                </system-layout>
            </print>
            <harmony print-frame="no">
                <root>
                    <root-step>F</root-step>
                </root>
                <kind text="">major</kind>
            </harmony>
            <note default-y="-25.00" default-x="79.27">
                <pitch>
                    <step>A</step>
                    <octave>4</octave>
                </pitch>
                <duration>9</duration>
                <voice>1</voice>
                <type>eighth</type>
                <dot/>
                <stem>up</stem>
                <beam number="1">begin</beam>
                <lyric number="1">
                    <syllabic>single</syllabic>
                    <text>boys,</text>
                </lyric>
                <lyric number="2">
                    <syllabic>single</syllabic>
                    <text>Bill</text>
                </lyric>
                <lyric number="3">
                    <syllabic>single</syllabic>
                    <text>Bill,</text>
                </lyric>
                <lyric number="4">
                    <syllabic>single</syllabic>
                    <text>old</text>
                </lyric>
                <lyric number="5">
                    <syllabic>single</syllabic>
                    <text>paid</text>
                </lyric>
                <lyric number="6">
                    <syllabic>single</syllabic>
                    <text>take</text>
                </lyric>
            </note>
            <note default-y="-25.00" default-x="230.66">
                <pitch>
                    <step>A</step>
                    <octave>4</octave>
                </pitch>
                <duration>3</duration>
                <voice>1</voice>
                <type>16th</type>
                <stem>up</stem>
                <beam number="1">end</beam>
                <beam number="2">backward hook</beam>
                <lyric number="1">
                    <syllabic>single</syllabic>
                    <text>they</text>
                </lyric>
                <lyric number="2">
                    <syllabic>begin</syllabic>
                    <text>sad</text>
                </lyric>
                <lyric number="3">
                    <syllabic>single</syllabic>
                    <text>first</text>
                </lyric>
                <lyric number="4">
                    <syllabic>single</syllabic>
                    <text>gray</text>
                </lyric>
                <lyric number="5">
                    <syllabic>single</syllabic>
                    <text>his</text>
                </lyric>
                <lyric number="6">
                    <syllabic>single</syllabic>
                    <text>your</text>
                </lyric>
            </note>
            <note default-y="-25.00" default-x="308.26">
                <pitch>
                    <step>A</step>
                    <octave>4</octave>
                </pitch>
                <duration>4</duration>
                <voice>1</voice>
                <type>eighth</type>
                <time-modification>
                    <actual-notes>3</actual-notes>
                    <normal-notes>2</normal-notes>
                </time-modification>
                <stem>up</stem>
                <beam number="1">begin</beam>
                <notations>
                    <tuplet type="start" bracket="no"/>
                </notations>
                <lyric number="1">
                    <syllabic>single</syllabic>
                    <text>knew</text>
                </lyric>
                <lyric number="2">
                    <syllabic>end</syllabic>
                    <text>dled</text>
                </lyric>
                <lyric number="3">
                    <syllabic>single</syllabic>
                    <text>sort</text>
                </lyric>
                <lyric number="4">
                    <syllabic>single</syllabic>
                    <text>horse,</text>
                </lyric>
                <lyric number="5">
                    <syllabic>single</syllabic>
                    <text>debts</text>
                </lyric>
                <lyric number="6">
                    <syllabic>begin</syllabic>
                    <text>dol</text>
                </lyric>
            </note>
            <note default-y="-25.00" default-x="405.18">
                <pitch>
                    <step>A</step>
                    <octave>4</octave>
                </pitch>
                <duration>4</duration>
                <voice>1</voice>
                <type>eighth</type>
                <time-modification>
                    <actual-notes>3</actual-notes>
                    <normal-notes>2</normal-notes>
                </time-modification>
                <stem>up</stem>
                <beam number="1">continue</beam>
                <lyric number="1">
                    <syllabic>single</syllabic>
                    <text>of</text>
                </lyric>
                <lyric number="2">
                    <syllabic>single</syllabic>
                    <text>up</text>
                </lyric>
                <lyric number="5">
                    <syllabic>single</syllabic>
                    <text>like</text>
                </lyric>
            </note>
            <note default-y="-35.00" default-x="502.10">
                <pitch>
                    <step>F</step>
                    <octave>4</octave>
                </pitch>
                <duration>4</duration>
                <voice>1</voice>
                <type>eighth</type>
                <time-modification>
                    <actual-notes>3</actual-notes>
                    <normal-notes>2</normal-notes>
                </time-modification>
                <stem>up</stem>
                <beam number="1">end</beam>
                <notations>
                    <tuplet type="stop"/>
                </notations>
                <lyric number="1">
                    <syllabic>single</syllabic>
                    <text>an</text>
                </lyric>
                <lyric number="2">
                    <syllabic>single</syllabic>
                    <text>his</text>
                </lyric>
                <lyric number="3">
                    <syllabic>single</syllabic>
                    <text>of</text>
                </lyric>
                <lyric number="4">
                    <syllabic>single</syllabic>
                    <text>he</text>
                </lyric>
                <lyric number="5">
                    <syllabic>single</syllabic>
                    <text>a</text>
                </lyric>
                <lyric number="6">
                    <syllabic>end</syllabic>
                    <text>ly</text>
                </lyric>
            </note>
            <harmony print-frame="no">
                <root>
                    <root-step>C</root-step>
                </root>
                <kind text="">major</kind>
            </harmony>
            <note default-y="-30.00" default-x="599.02">
                <pitch>
                    <step>G</step>
                    <octave>4</octave>
                </pitch>
                <duration>9</duration>
                <voice>1</voice>
                <type>eighth</type>
                <dot/>
                <stem>up</stem>
                <beam number="1">begin</beam>
                <lyric number="1">
                    <syllabic>single</syllabic>
                    <text>old</text>
                </lyric>
                <lyric number="2">
                    <syllabic>single</syllabic>
                    <text>old</text>
                </lyric>
                <lyric number="3">
                    <syllabic>begin</syllabic>
                    <text>saunt</text>
                </lyric>
                <lyric number="4">
                    <syllabic>single</syllabic>
                    <text>stopped</text>
                </lyric>
                <lyric number="5">
                    <syllabic>begin</syllabic>
                    <text>gent</text>
                </lyric>
                <lyric number="6">
                    <syllabic>begin</syllabic>
                    <text>wel</text>
                </lyric>
            </note>
            <note default-y="-30.00" default-x="750.41">
                <pitch>
                    <step>G</step>
                    <octave>4</octave>
                </pitch>
                <duration>3</duration>
                <voice>1</voice>
                <type>16th</type>
                <stem>up</stem>
                <beam number="1">continue</beam>
                <beam number="2">forward hook</beam>
                <lyric number="1">
                    <syllabic>single</syllabic>
                    <text>black</text>
                </lyric>
                <lyric number="2">
                    <syllabic>single</syllabic>
                    <text>gray</text>
                </lyric>
                <lyric number="3">
                    <syllabic>end</syllabic>
                    <text>ered</text>
                </lyric>
                <lyric number="4">
                    <syllabic>single</syllabic>
                    <text>right</text>
                </lyric>
                <lyric number="5">
                    <syllabic>middle</syllabic>
                    <text>le</text>
                </lyric>
                <lyric number="6">
                    <syllabic>end</syllabic>
                    <text>ters,</text>
                </lyric>
            </note>
            <note default-y="-30.00" default-x="828.01">
                <pitch>
                    <step>G</step>
                    <octave>4</octave>
                </pitch>
                <duration>9</duration>
                <voice>1</voice>
                <type>eighth</type>
                <dot/>
                <stem>up</stem>
                <beam number="1">continue</beam>
                <lyric number="1">
                    <syllabic>single</syllabic>
                    <text>steer,</text>
                </lyric>
                <lyric number="2">
                    <syllabic>single</syllabic>
                    <text>hoss,</text>
                </lyric>
                <lyric number="3">
                    <syllabic>single</syllabic>
                    <text>round,</text>
                </lyric>
                <lyric number="4">
                    <syllabic>single</syllabic>
                    <text>still,</text>
                </lyric>
                <lyric number="5">
                    <syllabic>end</syllabic>
                    <text>man</text>
                </lyric>
            </note>
            <note default-y="-30.00" default-x="979.40">
                <pitch>
                    <step>G</step>
                    <octave>4</octave>
                </pitch>
                <duration>3</duration>
                <voice>1</voice>
                <type>16th</type>
                <stem>up</stem>
                <beam number="1">end</beam>
                <beam number="2">backward hook</beam>
                <lyric number="1">
                    <syllabic>single</syllabic>
                    <text>a</text>
                </lyric>
                <lyric number="2">
                    <syllabic>single</syllabic>
                    <text>his</text>
                </lyric>
                <lyric number="3">
                    <syllabic>single</syllabic>
                    <text>ol'</text>
                </lyric>
                <lyric number="4">
                    <syllabic>single</syllabic>
                    <text>the</text>
                </lyric>
                <lyric number="5">
                    <syllabic>begin</syllabic>
                    <text>with</text>
                </lyric>
                <lyric number="6">
                    <syllabic>single</syllabic>
                    <text>with</text>
                </lyric>
            </note>
        </measure>
        <measure width="1058.60" number="6">
            <print new-system="yes">
                <system-layout>
                    <system-margins>
                        <left-margin>18.50</left-margin>
                        <right-margin>0.00</right-margin>
                    </system-margins>
                    <system-distance>355.21</system-distance>
                </system-layout>
            </print>
            <note default-y="-40.00" default-x="81.50">
                <pitch>
                    <step>E</step>
                    <octave>4</octave>
                </pitch>
                <duration>4</duration>
                <voice>1</voice>
                <type>eighth</type>
                <time-modification>
                    <actual-notes>3</actual-notes>
                    <normal-notes>2</normal-notes>
                </time-modification>
                <stem>up</stem>
                <beam number="1">begin</beam>
                <notations>
                    <tuplet type="start" bracket="no"/>
                </notations>
                <lyric number="1">
                    <syllabic>single</syllabic>
                    <text>sort</text>
                </lyric>
                <lyric number="2">
                    <syllabic>begin</syllabic>
                    <text>wi</text>
                </lyric>
                <lyric number="3">
                    <syllabic>begin</syllabic>
                    <text>Black</text>
                </lyric>
                <lyric number="4">
                    <syllabic>begin</syllabic>
                    <text>cinch</text>
                </lyric>
                <lyric number="5">
                    <syllabic>end</syllabic>
                    <text>out</text>
                </lyric>
                <lyric number="6">
                    <syllabic>begin</syllabic>
                    <text>ne</text>
                </lyric>
            </note>
            <note default-y="-40.00" default-x="189.81">
                <pitch>
                    <step>E</step>
                    <octave>4</octave>
                </pitch>
                <duration>4</duration>
                <voice>1</voice>
                <type>eighth</type>
                <time-modification>
                    <actual-notes>3</actual-notes>
                    <normal-notes>2</normal-notes>
                </time-modification>
                <stem>up</stem>
                <beam number="1">continue</beam>
                <lyric number="1">
                    <syllabic>single</syllabic>
                    <text>of</text>
                </lyric>
                <lyric number="2">
                    <syllabic>end</syllabic>
                    <text>thers</text>
                </lyric>
                <lyric number="3">
                    <syllabic>end</syllabic>
                    <text>ie</text>
                </lyric>
                <lyric number="4">
                    <syllabic>end</syllabic>
                    <text>es,</text>
                </lyric>
                <lyric number="6">
                    <syllabic>end</syllabic>
                    <text>ver</text>
                </lyric>
            </note>
            <note default-y="-40.00" default-x="298.12">
                <pitch>
                    <step>E</step>
                    <octave>4</octave>
                </pitch>
                <duration>4</duration>
                <voice>1</voice>
                <type>eighth</type>
                <time-modification>
                    <actual-notes>3</actual-notes>
                    <normal-notes>2</normal-notes>
                </time-modification>
                <stem>up</stem>
                <beam number="1">end</beam>
                <notations>
                    <tuplet type="stop"/>
                </notations>
                <lyric number="1">
                    <syllabic>single</syllabic>
                    <text>an</text>
                </lyric>
                <lyric number="2">
                    <syllabic>single</syllabic>
                    <text>and</text>
                </lyric>
                <lyric number="3">
                    <syllabic>begin</syllabic>
                    <text>be</text>
                </lyric>
                <lyric number="4">
                    <syllabic>single</syllabic>
                    <text>they</text>
                </lyric>
                <lyric number="5">
                    <syllabic>single</syllabic>
                    <text>a</text>
                </lyric>
                <lyric number="6">
                    <syllabic>single</syllabic>
                    <text>a</text>
                </lyric>
            </note>
            <note default-y="-45.00" default-x="406.44">
                <pitch>
                    <step>D</step>
                    <octave>4</octave>
                </pitch>
                <duration>9</duration>
                <voice>1</voice>
                <type>eighth</type>
                <dot/>
                <stem>up</stem>
                <beam number="1">begin</beam>
                <lyric number="1">
                    <syllabic>single</syllabic>
                    <text>old</text>
                </lyric>
                <lyric number="2">
                    <syllabic>single</syllabic>
                    <text>back</text>
                </lyric>
                <lyric number="3">
                    <syllabic>end</syllabic>
                    <text>gan</text>
                </lyric>
                <lyric number="4">
                    <syllabic>single</syllabic>
                    <text>broke</text>
                </lyric>
                <lyric number="5">
                    <syllabic>single</syllabic>
                    <text>bit</text>
                </lyric>
                <lyric number="6">
                    <syllabic>single</syllabic>
                    <text>sign</text>
                </lyric>
            </note>
            <note default-y="-50.00" default-x="575.62">
                <pitch>
                    <step>C</step>
                    <octave>4</octave>
                </pitch>
                <duration>3</duration>
                <voice>1</voice>
                <type>16th</type>
                <stem>up</stem>
                <beam number="1">end</beam>
                <beam number="2">backward hook</beam>
                <lyric number="1">
                    <syllabic>begin</syllabic>
                    <text>out</text>
                </lyric>
                <lyric number="2">
                    <syllabic>single</syllabic>
                    <text>were</text>
                </lyric>
                <lyric number="3">
                    <syllabic>single</syllabic>
                    <text>to</text>
                </lyric>
                <lyric number="4">
                    <syllabic>single</syllabic>
                    <text>like</text>
                </lyric>
                <lyric number="5">
                    <syllabic>single</syllabic>
                    <text>of</text>
                </lyric>
                <lyric number="6">
                    <syllabic>single</syllabic>
                    <text>of</text>
                </lyric>
            </note>
            <note default-y="-30.00" default-x="662.34">
                <pitch>
                    <step>G</step>
                    <octave>4</octave>
                </pitch>
                <duration>18</duration>
                <voice>1</voice>
                <type>quarter</type>
                <dot/>
                <stem>up</stem>
                <lyric number="1">
                    <syllabic>end</syllabic>
                    <text>law</text>
                </lyric>
                <lyric number="2">
                    <syllabic>single</syllabic>
                    <text>raw</text>
                </lyric>
                <lyric number="3">
                    <syllabic>single</syllabic>
                    <text>paw,</text>
                </lyric>
                <lyric number="4">
                    <syllabic>single</syllabic>
                    <text>straw,</text>
                </lyric>
                <lyric number="5">
                    <syllabic>single</syllabic>
                    <text>jaw,</text>
                </lyric>
                <lyric number="6">
                    <syllabic>single</syllabic>
                    <text>flaw,</text>
                </lyric>
            </note>
            <note default-y="-30.00" default-x="883.56">
                <pitch>
                    <step>G</step>
                    <octave>4</octave>
                </pitch>
                <duration>3</duration>
                <tie type="start"/>
                <voice>1</voice>
                <type>16th</type>
                <stem>up</stem>
                <beam number="1">begin</beam>
                <beam number="2">begin</beam>
                <notations>
                    <tied type="start"/>
                </notations>
                <lyric number="1">
                    <syllabic>single</syllabic>
                    <text>That</text>
                </lyric>
                <lyric number="2">
                    <syllabic>single</syllabic>
                    <text>And</text>
                </lyric>
                <lyric number="3">
                    <syllabic>single</syllabic>
                    <text>And</text>
                </lyric>
                <lyric number="4">
                    <syllabic>single</syllabic>
                    <text>And</text>
                </lyric>
                <lyric number="5">
                    <syllabic>single</syllabic>
                    <text>And</text>
                </lyric>
                <lyric number="6">
                    <syllabic>single</syllabic>
                    <text>Or</text>
                </lyric>
            </note>
            <note default-y="-30.00" default-x="970.28">
                <pitch>
                    <step>G</step>
                    <octave>4</octave>
                </pitch>
                <duration>3</duration>
                <tie type="stop"/>
                <voice>1</voice>
                <type>16th</type>
                <stem>up</stem>
                <beam number="1">end</beam>
                <beam number="2">end</beam>
                <notations>
                    <tied type="stop"/>
                </notations>
                <lyric number="2">
                    <syllabic>begin</syllabic>
                    <text>pre</text>
                </lyric>
                <lyric number="4">
                    <syllabic>single</syllabic>
                    <text>the</text>
                </lyric>
                <lyric number="6">
                    <syllabic>single</syllabic>
                    <text>you'll</text>
                </lyric>
            </note>
        </measure>
        <measure width="1058.60" number="7">
            <print new-system="yes">
                <system-layout>
                    <system-margins>
                        <left-margin>18.50</left-margin>
                        <right-margin>0.00</right-margin>
                    </system-margins>
                    <system-distance>355.21</system-distance>
                </system-layout>
            </print>
            <note default-y="-50.00" default-x="88.05">
                <pitch>
                    <step>C</step>
                    <octave>4</octave>
                </pitch>
                <duration>9</duration>
                <voice>1</voice>
                <type>eighth</type>
                <dot/>
                <stem>up</stem>
                <beam number="1">begin</beam>
                <lyric number="1">
                    <syllabic>single</syllabic>
                    <text>ran</text>
                </lyric>
                <lyric number="2">
                    <syllabic>end</syllabic>
                    <text>pared</text>
                </lyric>
                <lyric number="3">
                    <syllabic>single</syllabic>
                    <text>threw</text>
                </lyric>
                <lyric number="4">
                    <syllabic>single</syllabic>
                    <text>old</text>
                </lyric>
                <lyric number="5">
                    <syllabic>single</syllabic>
                    <text>'llowed</text>
                </lyric>
                <lyric number="6">
                    <syllabic>single</syllabic>
                    <text>land</text>
                </lyric>
            </note>
            <note default-y="-50.00" default-x="229.16">
                <pitch>
                    <step>C</step>
                    <octave>4</octave>
                </pitch>
                <duration>3</duration>
                <voice>1</voice>
                <type>16th</type>
                <stem>up</stem>
                <beam number="1">end</beam>
                <beam number="2">backward hook</beam>
                <lyric number="1">
                    <syllabic>single</syllabic>
                    <text>down</text>
                </lyric>
                <lyric number="2">
                    <syllabic>single</syllabic>
                    <text>to</text>
                </lyric>
                <lyric number="3">
                    <syllabic>single</syllabic>
                    <text>his</text>
                </lyric>
                <lyric number="4">
                    <syllabic>begin</syllabic>
                    <text>ma</text>
                </lyric>
                <lyric number="5">
                    <syllabic>single</syllabic>
                    <text>ol'</text>
                </lyric>
                <lyric number="6">
                    <syllabic>single</syllabic>
                    <text>your</text>
                </lyric>
            </note>
            <note default-y="-50.00" default-x="301.49">
                <pitch>
                    <step>C</step>
                    <octave>4</octave>
                </pitch>
                <duration>4</duration>
                <voice>1</voice>
                <type>eighth</type>
                <time-modification>
                    <actual-notes>3</actual-notes>
                    <normal-notes>2</normal-notes>
                </time-modification>
                <stem>up</stem>
                <beam number="1">begin</beam>
                <notations>
                    <tuplet type="start" bracket="no"/>
                </notations>
                <lyric number="1">
                    <syllabic>single</syllabic>
                    <text>in</text>
                </lyric>
                <lyric number="2">
                    <syllabic>begin</syllabic>
                    <text>tac</text>
                </lyric>
                <lyric number="3">
                    <syllabic>single</syllabic>
                    <text>tail</text>
                </lyric>
                <lyric number="4">
                    <syllabic>end</syllabic>
                    <text>guey</text>
                </lyric>
                <lyric number="5">
                    <syllabic>begin</syllabic>
                    <text>Jack</text>
                </lyric>
                <lyric number="6">
                    <syllabic>single</syllabic>
                    <text>head</text>
                </lyric>
            </note>
            <note default-y="-50.00" default-x="391.84">
                <pitch>
                    <step>C</step>
                    <octave>4</octave>
                </pitch>
                <duration>4</duration>
                <voice>1</voice>
                <type>eighth</type>
                <time-modification>
                    <actual-notes>3</actual-notes>
                    <normal-notes>2</normal-notes>
                </time-modification>
                <stem>up</stem>
                <beam number="1">continue</beam>
                <lyric number="2">
                    <syllabic>end</syllabic>
                    <text>kle</text>
                </lyric>
                <lyric number="3">
                    <syllabic>single</syllabic>
                    <text>straight</text>
                </lyric>
                <lyric number="4">
                    <syllabic>single</syllabic>
                    <text>and</text>
                </lyric>
                <lyric number="6">
                    <syllabic>single</syllabic>
                    <text>in</text>
                </lyric>
            </note>
            <note default-y="-45.00" default-x="482.18">
                <pitch>
                    <step>D</step>
                    <octave>4</octave>
                </pitch>
                <duration>4</duration>
                <voice>1</voice>
                <type>eighth</type>
                <time-modification>
                    <actual-notes>3</actual-notes>
                    <normal-notes>2</normal-notes>
                </time-modification>
                <stem>up</stem>
                <beam number="1">end</beam>
                <notations>
                    <tuplet type="stop"/>
                </notations>
                <lyric number="1">
                    <syllabic>single</syllabic>
                    <text>the</text>
                </lyric>
                <lyric number="2">
                    <syllabic>single</syllabic>
                    <text>that</text>
                </lyric>
                <lyric number="3">
                    <syllabic>single</syllabic>
                    <text>up</text>
                </lyric>
                <lyric number="4">
                    <syllabic>single</syllabic>
                    <text>the</text>
                </lyric>
                <lyric number="5">
                    <syllabic>end</syllabic>
                    <text>ie</text>
                </lyric>
                <lyric number="6">
                    <syllabic>single</syllabic>
                    <text>a</text>
                </lyric>
            </note>
            <note default-y="-40.00" default-x="572.52">
                <pitch>
                    <step>E</step>
                    <octave>4</octave>
                </pitch>
                <duration>9</duration>
                <voice>1</voice>
                <type>eighth</type>
                <dot/>
                <stem>up</stem>
                <beam number="1">begin</beam>
                <lyric number="1">
                    <syllabic>begin</syllabic>
                    <text>mal</text>
                </lyric>
                <lyric number="2">
                    <syllabic>single</syllabic>
                    <text>big</text>
                </lyric>
                <lyric number="3">
                    <syllabic>single</syllabic>
                    <text>in</text>
                </lyric>
                <lyric number="4">
                    <syllabic>single</syllabic>
                    <text>Sam</text>
                </lyric>
                <lyric number="5">
                    <syllabic>single</syllabic>
                    <text>was</text>
                </lyric>
                <lyric number="6">
                    <syllabic>begin</syllabic>
                    <text>cac</text>
                </lyric>
            </note>
            <note default-y="-40.00" default-x="713.64">
                <pitch>
                    <step>E</step>
                    <octave>4</octave>
                </pitch>
                <duration>3</duration>
                <voice>1</voice>
                <type>16th</type>
                <stem>up</stem>
                <beam number="1">end</beam>
                <beam number="2">backward hook</beam>
                <lyric number="1">
                    <syllabic>end</syllabic>
                    <text>pais</text>
                </lyric>
                <lyric number="2">
                    <syllabic>single</syllabic>
                    <text>black</text>
                </lyric>
                <lyric number="3">
                    <syllabic>single</syllabic>
                    <text>the</text>
                </lyric>
                <lyric number="4">
                    <syllabic>single</syllabic>
                    <text>Stack</text>
                </lyric>
                <lyric number="5">
                    <syllabic>single</syllabic>
                    <text>the</text>
                </lyric>
                <lyric number="6">
                    <syllabic>end</syllabic>
                    <text>tus</text>
                </lyric>
            </note>
            <note default-y="-40.00" default-x="785.97">
                <pitch>
                    <step>E</step>
                    <octave>4</octave>
                </pitch>
                <duration>4</duration>
                <tie type="start"/>
                <voice>1</voice>
                <type>eighth</type>
                <time-modification>
                    <actual-notes>3</actual-notes>
                    <normal-notes>2</normal-notes>
                </time-modification>
                <stem>up</stem>
                <beam number="1">begin</beam>
                <notations>
                    <tied type="start"/>
                    <tuplet type="start" bracket="no"/>
                </notations>
                <lyric number="1">
                    <syllabic>single</syllabic>
                    <text>at</text>
                </lyric>
                <lyric number="2">
                    <syllabic>single</syllabic>
                    <text>brute</text>
                </lyric>
                <lyric number="3">
                    <syllabic>single</syllabic>
                    <text>air</text>
                </lyric>
                <lyric number="4">
                    <syllabic>single</syllabic>
                    <text>tree</text>
                </lyric>
                <lyric number="5">
                    <syllabic>single</syllabic>
                    <text>boss</text>
                </lyric>
                <lyric number="6">
                    <syllabic>single</syllabic>
                    <text>bed</text>
                </lyric>
            </note>
            <note default-y="-40.00" default-x="876.31">
                <pitch>
                    <step>E</step>
                    <octave>4</octave>
                </pitch>
                <duration>4</duration>
                <tie type="stop"/>
                <voice>1</voice>
                <type>eighth</type>
                <time-modification>
                    <actual-notes>3</actual-notes>
                    <normal-notes>2</normal-notes>
                </time-modification>
                <stem>up</stem>
                <beam number="1">continue</beam>
                <notations>
                    <tied type="stop"/>
                </notations>
                <lyric number="3">
                    <syllabic>single</syllabic>
                    <text>and</text>
                </lyric>
                <lyric number="6">
                    <syllabic>single</syllabic>
                    <text>and</text>
                </lyric>
            </note>
            <note default-y="-50.00" default-x="966.65">
                <pitch>
                    <step>C</step>
                    <octave>4</octave>
                </pitch>
                <duration>4</duration>
                <voice>1</voice>
                <type>eighth</type>
                <time-modification>
                    <actual-notes>3</actual-notes>
                    <normal-notes>2</normal-notes>
                </time-modification>
                <stem>up</stem>
                <beam number="1">end</beam>
                <notations>
                    <tuplet type="stop"/>
                </notations>
                <lyric number="1">
                    <syllabic>single</syllabic>
                    <text>the</text>
                </lyric>
                <lyric number="2">
                    <syllabic>single</syllabic>
                    <text>that</text>
                </lyric>
                <lyric number="3">
                    <syllabic>single</syllabic>
                    <text>went</text>
                </lyric>
                <lyric number="4">
                    <syllabic>single</syllabic>
                    <text>went</text>
                </lyric>
                <lyric number="5">
                    <syllabic>single</syllabic>
                    <text>of</text>
                </lyric>
                <lyric number="6">
                    <syllabic>single</syllabic>
                    <text>go</text>
                </lyric>
            </note>
        </measure>
        <measure width="1058.60" number="8">
            <print new-system="yes">
                <system-layout>
                    <system-margins>
                        <left-margin>18.50</left-margin>
                        <right-margin>0.00</right-margin>
                    </system-margins>
                    <system-distance>355.21</system-distance>
                </system-layout>
            </print>
            <harmony print-frame="no">
                <root>
                    <root-step>G</root-step>
                </root>
                <kind text="">major</kind>
            </harmony>
            <note default-y="-45.00" default-x="74.47">
                <pitch>
                    <step>D</step>
                    <octave>4</octave>
                </pitch>
                <duration>4</duration>
                <voice>1</voice>
                <type>eighth</type>
                <time-modification>
                    <actual-notes>3</actual-notes>
                    <normal-notes>2</normal-notes>
                </time-modification>
                <stem>up</stem>
                <beam number="1">begin</beam>
                <notations>
                    <tuplet type="start" bracket="no"/>
                </notations>
                <lyric number="1">
                    <syllabic>single</syllabic>
                    <text>foot</text>
                </lyric>
                <lyric number="2">
                    <syllabic>single</syllabic>
                    <text>ran</text>
                </lyric>
                <lyric number="3">
                    <syllabic>begin</syllabic>
                    <text>drift</text>
                </lyric>
                <lyric number="4">
                    <syllabic>single</syllabic>
                    <text>drift</text>
                </lyric>
                <lyric number="5">
                    <syllabic>begin</syllabic>
                    <text>an</text>
                </lyric>
                <lyric number="6">
                    <syllabic>begin</syllabic>
                    <text>drift</text>
                </lyric>
            </note>
            <note default-y="-45.00" default-x="211.54">
                <pitch>
                    <step>D</step>
                    <octave>4</octave>
                </pitch>
                <duration>4</duration>
                <voice>1</voice>
                <type>eighth</type>
                <time-modification>
                    <actual-notes>3</actual-notes>
                    <normal-notes>2</normal-notes>
                </time-modification>
                <stem>up</stem>
                <beam number="1">continue</beam>
                <lyric number="1">
                    <syllabic>single</syllabic>
                    <text>of</text>
                </lyric>
                <lyric number="5">
                    <syllabic>middle</syllabic>
                    <text>y</text>
                </lyric>
            </note>
            <note default-y="-45.00" default-x="348.62">
                <pitch>
                    <step>D</step>
                    <octave>4</octave>
                </pitch>
                <duration>4</duration>
                <voice>1</voice>
                <type>eighth</type>
                <time-modification>
                    <actual-notes>3</actual-notes>
                    <normal-notes>2</normal-notes>
                </time-modification>
                <stem>up</stem>
                <beam number="1">end</beam>
                <notations>
                    <tuplet type="stop"/>
                </notations>
                <lyric number="1">
                    <syllabic>single</syllabic>
                    <text>a</text>
                </lyric>
                <lyric number="2">
                    <syllabic>single</syllabic>
                    <text>down</text>
                </lyric>
                <lyric number="3">
                    <syllabic>end</syllabic>
                    <text>in'</text>
                </lyric>
                <lyric number="4">
                    <syllabic>single</syllabic>
                    <text>in'</text>
                </lyric>
                <lyric number="5">
                    <syllabic>end</syllabic>
                    <text>thing</text>
                </lyric>
                <lyric number="6">
                    <syllabic>end</syllabic>
                    <text>in'</text>
                </lyric>
            </note>
            <note default-y="-50.00" default-x="485.69">
                <pitch>
                    <step>C</step>
                    <octave>4</octave>
                </pitch>
                <duration>9</duration>
                <voice>1</voice>
                <type>eighth</type>
                <dot/>
                <stem>up</stem>
                <beam number="1">begin</beam>
                <lyric number="1">
                    <syllabic>begin</syllabic>
                    <text>rock</text>
                </lyric>
                <lyric number="2">
                    <syllabic>single</syllabic>
                    <text>in</text>
                </lyric>
                <lyric number="3">
                    <syllabic>single</syllabic>
                    <text>down</text>
                </lyric>
                <lyric number="4">
                    <syllabic>single</syllabic>
                    <text>down</text>
                </lyric>
                <lyric number="5">
                    <syllabic>single</syllabic>
                    <text>in</text>
                </lyric>
                <lyric number="6">
                    <syllabic>single</syllabic>
                    <text>down</text>
                </lyric>
            </note>
            <note default-y="-55.00" default-x="699.81">
                <pitch>
                    <step>B</step>
                    <octave>3</octave>
                </pitch>
                <duration>3</duration>
                <voice>1</voice>
                <type>16th</type>
                <stem>up</stem>
                <beam number="1">end</beam>
                <beam number="2">backward hook</beam>
                <lyric number="1">
                    <syllabic>end</syllabic>
                    <text>y</text>
                </lyric>
                <lyric number="2">
                    <syllabic>single</syllabic>
                    <text>the</text>
                </lyric>
                <lyric number="3">
                    <syllabic>single</syllabic>
                    <text>the</text>
                </lyric>
                <lyric number="4">
                    <syllabic>single</syllabic>
                    <text>the</text>
                </lyric>
                <lyric number="5">
                    <syllabic>single</syllabic>
                    <text>the</text>
                </lyric>
                <lyric number="6">
                    <syllabic>single</syllabic>
                    <text>the</text>
                </lyric>
            </note>
            <note default-y="-50.00" default-x="809.55">
                <pitch>
                    <step>C</step>
                    <octave>4</octave>
                </pitch>
                <duration>12</duration>
                <voice>1</voice>
                <type>quarter</type>
                <stem>up</stem>
                <lyric number="1">
                    <syllabic>single</syllabic>
                    <text>draw.</text>
                </lyric>
                <lyric number="2">
                    <syllabic>single</syllabic>
                    <text>draw.</text>
                </lyric>
                <lyric number="3">
                    <syllabic>single</syllabic>
                    <text>draw.</text>
                </lyric>
                <lyric number="4">
                    <syllabic>single</syllabic>
                    <text>draw.</text>
                </lyric>
                <lyric number="5">
                    <syllabic>single</syllabic>
                    <text>draw.</text>
                </lyric>
                <lyric number="6">
                    <syllabic>single</syllabic>
                    <text>draw.</text>
                </lyric>
            </note>
            <barline location="right">
                <bar-style>light-heavy</bar-style>
            </barline>
        </measure>
    </part>
</score-partwise>
