<?xml version="1.0" encoding="UTF-8"?>
<!DOCTYPE score-partwise PUBLIC "-//Recordare//DTD MusicXML 2.0 Partwise//EN" "http://www.musicxml.org/dtds/partwise.dtd">
<score-partwise version="2.0">
    <work>
        <work-number></work-number>
        <work-title></work-title>
    </work>
    <movement-number></movement-number>
    <movement-title>All Hail the Power of Jesus' Name</movement-title>
    <identification>
        <creator type="composer">Oliver Holden</creator>
        <creator type="poet">Edward Perronet</creator>
        <rights>All Rights Reserved</rights>
        <encoding>
            <software>MuseScore 1.2</software>
            <encoding-date>2013-01-31</encoding-date>
            <software>ProxyMusic 2.0 c</software>
        </encoding>
        <source>http://wikifonia.org/node/20424/revisions/26983/view</source>
    </identification>
    <defaults>
        <scaling>
            <millimeters>7.056</millimeters>
            <tenths>40</tenths>
        </scaling>
        <page-layout>
            <page-height>1683.67</page-height>
            <page-width>1190.48</page-width>
            <page-margins type="even">
                <left-margin>56.6893</left-margin>
                <right-margin>56.6893</right-margin>
                <top-margin>56.6893</top-margin>
                <bottom-margin>113.379</bottom-margin>
            </page-margins>
            <page-margins type="odd">
                <left-margin>56.6893</left-margin>
                <right-margin>56.6893</right-margin>
                <top-margin>56.6893</top-margin>
                <bottom-margin>113.379</bottom-margin>
            </page-margins>
        </page-layout>
    </defaults>
    <credit page="1">
        <credit-words font-size="24" default-y="1626.98" default-x="595.238" justify="center" valign="top">All Hail the Power of Jesus' Name</credit-words>
    </credit>
    <credit page="1">
        <credit-words font-size="14" default-y="1570.29" default-x="595.238" justify="center" valign="top">Coronation</credit-words>
    </credit>
    <credit page="1">
        <credit-words font-size="12" default-y="1559.98" default-x="1133.79" justify="right" valign="top">Oliver Holden</credit-words>
    </credit>
    <credit page="1">
        <credit-words font-size="12" default-y="1559.98" default-x="56.6893" justify="left" valign="top">Edward Perronet</credit-words>
    </credit>
    <credit page="1">
        <credit-words font-size="8" default-y="113.379" default-x="595.238" justify="center" valign="bottom">Public Domain</credit-words>
    </credit>
    <part-list>
        <part-group type="start" number="1">
            <group-symbol>brace</group-symbol>
        </part-group>
        <score-part id="P1">
            <part-name></part-name>
            <score-instrument id="P1-I3">
                <instrument-name></instrument-name>
            </score-instrument>
            <midi-instrument id="P1-I3">
                <midi-channel>1</midi-channel>
                <midi-program>1</midi-program>
                <volume>78.7402</volume>
                <pan>0</pan>
            </midi-instrument>
        </score-part>
    </part-list>
    <part id="P1">
        <measure width="177.91" number="0" implicit="yes">
            <print>
                <system-layout>
                    <system-margins>
                        <left-margin>18.50</left-margin>
                        <right-margin>0.00</right-margin>
                    </system-margins>
                    <top-system-distance>292.53</top-system-distance>
                </system-layout>
            </print>
            <attributes>
                <divisions>2</divisions>
                <key>
                    <fifths>1</fifths>
                    <mode>major</mode>
                </key>
                <time>
                    <beats>4</beats>
                    <beat-type>4</beat-type>
                </time>
                <clef>
                    <sign>G</sign>
                    <line>2</line>
                </clef>
            </attributes>
            <harmony print-frame="no">
                <root>
                    <root-step>D</root-step>
                </root>
                <kind text="7">dominant</kind>
            </harmony>
            <direction placement="above">
                <direction-type>
                    <words>100</words>
                </direction-type>
                <sound tempo="100"/>
            </direction>
            <note default-y="-45.00" default-x="115.58">
                <pitch>
                    <step>D</step>
                    <octave>4</octave>
                </pitch>
                <duration>2</duration>
                <voice>1</voice>
                <type>quarter</type>
                <stem>up</stem>
                <lyric number="1">
                    <syllabic>single</syllabic>
                    <text>1. All</text>
                </lyric>
                <lyric number="2">
                    <syllabic>single</syllabic>
                    <text>2. Ye</text>
                </lyric>
                <lyric number="3">
                    <syllabic>single</syllabic>
                    <text>3. Let</text>
                </lyric>
                <lyric number="4">
                    <syllabic>single</syllabic>
                    <text>4. Oh,</text>
                </lyric>
            </note>
        </measure>
        <measure width="295.93" number="1">
            <harmony print-frame="no">
                <root>
                    <root-step>G</root-step>
                </root>
                <kind text="">major</kind>
            </harmony>
            <note default-y="-30.00" default-x="22.36">
                <pitch>
                    <step>G</step>
                    <octave>4</octave>
                </pitch>
                <duration>2</duration>
                <voice>1</voice>
                <type>quarter</type>
                <stem>up</stem>
                <lyric number="1">
                    <syllabic>single</syllabic>
                    <text>hail</text>
                </lyric>
                <lyric number="2">
                    <syllabic>begin</syllabic>
                    <text>cho</text>
                </lyric>
                <lyric number="3">
                    <syllabic>begin</syllabic>
                    <text>ev</text>
                </lyric>
                <lyric number="4">
                    <syllabic>single</syllabic>
                    <text>that</text>
                </lyric>
            </note>
            <note default-y="-30.00" default-x="90.35">
                <pitch>
                    <step>G</step>
                    <octave>4</octave>
                </pitch>
                <duration>2</duration>
                <voice>1</voice>
                <type>quarter</type>
                <stem>up</stem>
                <lyric number="1">
                    <syllabic>single</syllabic>
                    <text>the</text>
                </lyric>
                <lyric number="2">
                    <syllabic>end</syllabic>
                    <text>sen</text>
                </lyric>
                <lyric number="3">
                    <syllabic>end</syllabic>
                    <text>'ry</text>
                </lyric>
                <lyric number="4">
                    <syllabic>single</syllabic>
                    <text>with</text>
                </lyric>
            </note>
            <note default-y="-20.00" default-x="158.35">
                <pitch>
                    <step>B</step>
                    <octave>4</octave>
                </pitch>
                <duration>2</duration>
                <voice>1</voice>
                <type>quarter</type>
                <stem>down</stem>
                <lyric number="1">
                    <syllabic>single</syllabic>
                    <text>pow'r</text>
                </lyric>
                <lyric number="2">
                    <syllabic>single</syllabic>
                    <text>seed</text>
                </lyric>
                <lyric number="3">
                    <syllabic>begin</syllabic>
                    <text>kin</text>
                </lyric>
                <lyric number="4">
                    <syllabic>begin</syllabic>
                    <text>yon</text>
                </lyric>
            </note>
            <note default-y="-20.00" default-x="226.34">
                <pitch>
                    <step>B</step>
                    <octave>4</octave>
                </pitch>
                <duration>2</duration>
                <voice>1</voice>
                <type>quarter</type>
                <stem>down</stem>
                <lyric number="1">
                    <syllabic>single</syllabic>
                    <text>of</text>
                </lyric>
                <lyric number="2">
                    <syllabic>single</syllabic>
                    <text>of</text>
                </lyric>
                <lyric number="3">
                    <syllabic>end</syllabic>
                    <text>dred,</text>
                </lyric>
                <lyric number="4">
                    <syllabic>end</syllabic>
                    <text>der</text>
                </lyric>
            </note>
        </measure>
        <measure width="283.32" number="2">
            <harmony print-frame="no">
                <root>
                    <root-step>D</root-step>
                </root>
                <kind text="7">dominant</kind>
            </harmony>
            <note default-y="-25.00" default-x="15.96">
                <pitch>
                    <step>A</step>
                    <octave>4</octave>
                </pitch>
                <duration>2</duration>
                <voice>1</voice>
                <type>quarter</type>
                <stem>up</stem>
                <lyric number="1">
                    <syllabic>begin</syllabic>
                    <text>Je</text>
                </lyric>
                <lyric number="2">
                    <syllabic>begin</syllabic>
                    <text>Is</text>
                </lyric>
                <lyric number="3">
                    <syllabic>begin</syllabic>
                    <text>ev</text>
                </lyric>
                <lyric number="4">
                    <syllabic>begin</syllabic>
                    <text>sa</text>
                </lyric>
            </note>
            <note default-y="-30.00" default-x="82.40">
                <pitch>
                    <step>G</step>
                    <octave>4</octave>
                </pitch>
                <duration>2</duration>
                <voice>1</voice>
                <type>quarter</type>
                <stem>up</stem>
                <lyric number="1">
                    <syllabic>end</syllabic>
                    <text>sus'</text>
                </lyric>
                <lyric number="2">
                    <syllabic>end</syllabic>
                    <text>rael's</text>
                </lyric>
                <lyric number="3">
                    <syllabic>end</syllabic>
                    <text>'ry</text>
                </lyric>
                <lyric number="4">
                    <syllabic>end</syllabic>
                    <text>cred</text>
                </lyric>
            </note>
            <note default-y="-25.00" default-x="148.84">
                <pitch>
                    <step>A</step>
                    <octave>4</octave>
                </pitch>
                <duration>2</duration>
                <voice>1</voice>
                <type>quarter</type>
                <stem>up</stem>
                <lyric number="1">
                    <syllabic>single</syllabic>
                    <text>name!</text>
                </lyric>
                <lyric number="2">
                    <syllabic>single</syllabic>
                    <text>race,</text>
                </lyric>
                <lyric number="3">
                    <syllabic>single</syllabic>
                    <text>tribe</text>
                </lyric>
                <lyric number="4">
                    <syllabic>single</syllabic>
                    <text>throng</text>
                </lyric>
            </note>
            <note default-y="-20.00" default-x="215.28">
                <pitch>
                    <step>B</step>
                    <octave>4</octave>
                </pitch>
                <duration>2</duration>
                <voice>1</voice>
                <type>quarter</type>
                <stem>down</stem>
                <lyric number="1">
                    <syllabic>single</syllabic>
                    <text>Let</text>
                </lyric>
                <lyric number="2">
                    <syllabic>single</syllabic>
                    <text>Ye</text>
                </lyric>
                <lyric number="3">
                    <syllabic>single</syllabic>
                    <text>On</text>
                </lyric>
                <lyric number="4">
                    <syllabic>single</syllabic>
                    <text>We</text>
                </lyric>
            </note>
        </measure>
        <measure width="301.44" number="3">
            <note default-y="-25.00" default-x="21.74">
                <pitch>
                    <step>A</step>
                    <octave>4</octave>
                </pitch>
                <duration>2</duration>
                <voice>1</voice>
                <type>quarter</type>
                <stem>up</stem>
                <lyric number="1">
                    <syllabic>begin</syllabic>
                    <text>an</text>
                </lyric>
                <lyric number="2">
                    <syllabic>begin</syllabic>
                    <text>ran</text>
                </lyric>
                <lyric number="3">
                    <syllabic>single</syllabic>
                    <text>this</text>
                </lyric>
                <lyric number="4">
                    <syllabic>single</syllabic>
                    <text>at</text>
                </lyric>
            </note>
            <note default-y="-30.00" default-x="91.26">
                <pitch>
                    <step>G</step>
                    <octave>4</octave>
                </pitch>
                <duration>2</duration>
                <voice>1</voice>
                <type>quarter</type>
                <stem>up</stem>
                <lyric number="1">
                    <syllabic>end</syllabic>
                    <text>gels</text>
                </lyric>
                <lyric number="2">
                    <syllabic>end</syllabic>
                    <text>somed</text>
                </lyric>
                <lyric number="3">
                    <syllabic>begin</syllabic>
                    <text>ter</text>
                </lyric>
                <lyric number="4">
                    <syllabic>single</syllabic>
                    <text>His</text>
                </lyric>
            </note>
            <note default-y="-20.00" default-x="160.79">
                <pitch>
                    <step>B</step>
                    <octave>4</octave>
                </pitch>
                <duration>2</duration>
                <voice>1</voice>
                <type>quarter</type>
                <stem>down</stem>
                <lyric number="1">
                    <syllabic>begin</syllabic>
                    <text>pros</text>
                </lyric>
                <lyric number="2">
                    <syllabic>single</syllabic>
                    <text>from</text>
                </lyric>
                <lyric number="3">
                    <syllabic>middle</syllabic>
                    <text>res</text>
                </lyric>
                <lyric number="4">
                    <syllabic>single</syllabic>
                    <text>feet</text>
                </lyric>
            </note>
            <note default-y="-25.00" default-x="230.31">
                <pitch>
                    <step>A</step>
                    <octave>4</octave>
                </pitch>
                <duration>2</duration>
                <voice>1</voice>
                <type>quarter</type>
                <stem>up</stem>
                <lyric number="1">
                    <syllabic>end</syllabic>
                    <text>trate</text>
                </lyric>
                <lyric number="2">
                    <syllabic>single</syllabic>
                    <text>the</text>
                </lyric>
                <lyric number="3">
                    <syllabic>end</syllabic>
                    <text>trial</text>
                </lyric>
                <lyric number="4">
                    <syllabic>single</syllabic>
                    <text>may</text>
                </lyric>
            </note>
        </measure>
        <measure width="246.90" number="4">
            <print new-system="yes">
                <system-layout>
                    <system-margins>
                        <left-margin>18.50</left-margin>
                        <right-margin>0.00</right-margin>
                    </system-margins>
                    <system-distance>299.03</system-distance>
                </system-layout>
            </print>
            <harmony print-frame="no">
                <root>
                    <root-step>G</root-step>
                </root>
                <kind text="">major</kind>
            </harmony>
            <note default-y="-30.00" default-x="86.43">
                <pitch>
                    <step>G</step>
                    <octave>4</octave>
                </pitch>
                <duration>6</duration>
                <voice>1</voice>
                <type>half</type>
                <dot/>
                <stem>up</stem>
                <lyric number="1">
                    <syllabic>single</syllabic>
                    <text>fall.</text>
                </lyric>
                <lyric number="2">
                    <syllabic>single</syllabic>
                    <text>Fall.</text>
                </lyric>
                <lyric number="3">
                    <syllabic>single</syllabic>
                    <text>ball,</text>
                </lyric>
                <lyric number="4">
                    <syllabic>single</syllabic>
                    <text>fall.</text>
                </lyric>
            </note>
            <note default-y="-25.00" default-x="191.46">
                <pitch>
                    <step>A</step>
                    <octave>4</octave>
                </pitch>
                <duration>2</duration>
                <voice>1</voice>
                <type>quarter</type>
                <stem>up</stem>
                <lyric number="1">
                    <syllabic>single</syllabic>
                    <text>Bring</text>
                </lyric>
                <lyric number="2">
                    <syllabic>single</syllabic>
                    <text>Hail</text>
                </lyric>
                <lyric number="3">
                    <syllabic>single</syllabic>
                    <text>To</text>
                </lyric>
                <lyric number="4">
                    <syllabic>single</syllabic>
                    <text>We'll</text>
                </lyric>
            </note>
        </measure>
        <measure width="288.94" number="5">
            <note default-y="-20.00" default-x="41.37">
                <pitch>
                    <step>B</step>
                    <octave>4</octave>
                </pitch>
                <duration>2</duration>
                <voice>1</voice>
                <type>quarter</type>
                <stem>down</stem>
                <lyric number="1">
                    <syllabic>single</syllabic>
                    <text>forth</text>
                </lyric>
                <lyric number="2">
                    <syllabic>single</syllabic>
                    <text>Him</text>
                </lyric>
                <lyric number="3">
                    <syllabic>single</syllabic>
                    <text>Him</text>
                </lyric>
                <lyric number="4">
                    <syllabic>single</syllabic>
                    <text>join</text>
                </lyric>
            </note>
            <note default-y="-25.00" default-x="102.86">
                <pitch>
                    <step>A</step>
                    <octave>4</octave>
                </pitch>
                <duration>2</duration>
                <voice>1</voice>
                <type>quarter</type>
                <stem>up</stem>
                <lyric number="1">
                    <syllabic>single</syllabic>
                    <text>the</text>
                </lyric>
                <lyric number="2">
                    <syllabic>single</syllabic>
                    <text>who</text>
                </lyric>
                <lyric number="3">
                    <syllabic>single</syllabic>
                    <text>al</text>
                </lyric>
                <lyric number="4">
                    <syllabic>single</syllabic>
                    <text>the</text>
                </lyric>
            </note>
            <note default-y="-30.00" default-x="164.35">
                <pitch>
                    <step>G</step>
                    <octave>4</octave>
                </pitch>
                <duration>2</duration>
                <voice>1</voice>
                <type>quarter</type>
                <stem>up</stem>
                <lyric number="1">
                    <syllabic>begin</syllabic>
                    <text>roy</text>
                </lyric>
                <lyric number="2">
                    <syllabic>single</syllabic>
                    <text>saves</text>
                </lyric>
                <lyric number="3">
                    <syllabic>begin</syllabic>
                    <text>maj</text>
                </lyric>
                <lyric number="4">
                    <syllabic>begin</syllabic>
                    <text>ev</text>
                </lyric>
            </note>
            <note default-y="-20.00" default-x="225.85">
                <pitch>
                    <step>B</step>
                    <octave>4</octave>
                </pitch>
                <duration>2</duration>
                <voice>1</voice>
                <type>quarter</type>
                <stem>down</stem>
                <lyric number="1">
                    <syllabic>end</syllabic>
                    <text>al</text>
                </lyric>
                <lyric number="2">
                    <syllabic>single</syllabic>
                    <text>you</text>
                </lyric>
                <lyric number="3">
                    <syllabic>middle</syllabic>
                    <text>es</text>
                </lyric>
                <lyric number="4">
                    <syllabic>middle</syllabic>
                    <text>er</text>
                </lyric>
            </note>
        </measure>
        <measure width="318.17" number="6">
            <note default-y="-10.00" default-x="34.99">
                <pitch>
                    <step>D</step>
                    <octave>5</octave>
                </pitch>
                <duration>1</duration>
                <voice>1</voice>
                <type>eighth</type>
                <stem>down</stem>
                <beam number="1">begin</beam>
                <notations>
                    <slur type="start" number="1"/>
                </notations>
                <lyric number="1">
                    <syllabic>begin</syllabic>
                    <text>di</text>
                </lyric>
                <lyric number="2">
                    <syllabic>single</syllabic>
                    <text>by</text>
                </lyric>
                <lyric number="3">
                    <syllabic>end</syllabic>
                    <text>ty</text>
                </lyric>
                <lyric number="4">
                    <syllabic>middle</syllabic>
                    <text>last</text>
                </lyric>
            </note>
            <note default-y="-15.00" default-x="72.56">
                <pitch>
                    <step>C</step>
                    <octave>5</octave>
                </pitch>
                <duration>1</duration>
                <voice>1</voice>
                <type>eighth</type>
                <stem>down</stem>
                <beam number="1">continue</beam>
                <notations>
                    <slur type="stop" number="1"/>
                </notations>
            </note>
            <note default-y="-20.00" default-x="110.12">
                <pitch>
                    <step>B</step>
                    <octave>4</octave>
                </pitch>
                <duration>1</duration>
                <voice>1</voice>
                <type>eighth</type>
                <stem>down</stem>
                <beam number="1">continue</beam>
                <notations>
                    <slur type="start" number="1"/>
                </notations>
                <lyric number="1">
                    <syllabic>middle</syllabic>
                    <text>a</text>
                </lyric>
                <lyric number="2">
                    <syllabic>single</syllabic>
                    <text>His</text>
                </lyric>
                <lyric number="3">
                    <syllabic>begin</syllabic>
                    <text>as</text>
                </lyric>
                <lyric number="4">
                    <syllabic>end</syllabic>
                    <text>ing</text>
                </lyric>
            </note>
            <note default-y="-25.00" default-x="147.68">
                <pitch>
                    <step>A</step>
                    <octave>4</octave>
                </pitch>
                <duration>1</duration>
                <voice>1</voice>
                <type>eighth</type>
                <stem>down</stem>
                <beam number="1">end</beam>
                <notations>
                    <slur type="stop" number="1"/>
                </notations>
            </note>
            <note default-y="-20.00" default-x="196.38">
                <pitch>
                    <step>B</step>
                    <octave>4</octave>
                </pitch>
                <duration>2</duration>
                <voice>1</voice>
                <type>quarter</type>
                <stem>down</stem>
                <lyric number="1">
                    <syllabic>end</syllabic>
                    <text>dem</text>
                </lyric>
                <lyric number="2">
                    <syllabic>single</syllabic>
                    <text>grace</text>
                </lyric>
                <lyric number="3">
                    <syllabic>end</syllabic>
                    <text>cribe</text>
                </lyric>
                <lyric number="4">
                    <syllabic>single</syllabic>
                    <text>throng</text>
                </lyric>
            </note>
            <note default-y="-10.00" default-x="256.48">
                <pitch>
                    <step>D</step>
                    <octave>5</octave>
                </pitch>
                <duration>2</duration>
                <voice>1</voice>
                <type>quarter</type>
                <stem>down</stem>
                <lyric number="1">
                    <syllabic>single</syllabic>
                    <text>And</text>
                </lyric>
                <lyric number="2">
                    <syllabic>single</syllabic>
                    <text>And</text>
                </lyric>
                <lyric number="3">
                    <syllabic>single</syllabic>
                    <text>And</text>
                </lyric>
                <lyric number="4">
                    <syllabic>single</syllabic>
                    <text>And</text>
                </lyric>
            </note>
        </measure>
        <measure width="204.58" number="7">
            <note default-y="-10.00" default-x="47.76">
                <pitch>
                    <step>D</step>
                    <octave>5</octave>
                </pitch>
                <duration>4</duration>
                <voice>1</voice>
                <type>half</type>
                <stem>down</stem>
                <lyric number="1">
                    <syllabic>single</syllabic>
                    <text>crown</text>
                </lyric>
                <lyric number="2">
                    <syllabic>single</syllabic>
                    <text>crown</text>
                </lyric>
                <lyric number="3">
                    <syllabic>single</syllabic>
                    <text>crown</text>
                </lyric>
                <lyric number="4">
                    <syllabic>single</syllabic>
                    <text>crown</text>
                </lyric>
            </note>
            <harmony print-frame="no">
                <root>
                    <root-step>D</root-step>
                </root>
                <kind text="">major</kind>
            </harmony>
            <note default-y="-10.00" default-x="125.37">
                <pitch>
                    <step>D</step>
                    <octave>5</octave>
                </pitch>
                <duration>4</duration>
                <voice>1</voice>
                <type>half</type>
                <stem>down</stem>
                <lyric number="1">
                    <syllabic>single</syllabic>
                    <text>Him</text>
                </lyric>
                <lyric number="2">
                    <syllabic>single</syllabic>
                    <text>Him</text>
                </lyric>
                <lyric number="3">
                    <syllabic>single</syllabic>
                    <text>Him</text>
                </lyric>
                <lyric number="4">
                    <syllabic>single</syllabic>
                    <text>Him</text>
                </lyric>
            </note>
        </measure>
        <measure width="244.56" number="8">
            <print new-system="yes">
                <system-layout>
                    <system-margins>
                        <left-margin>18.50</left-margin>
                        <right-margin>0.00</right-margin>
                    </system-margins>
                    <system-distance>299.03</system-distance>
                </system-layout>
            </print>
            <harmony print-frame="no">
                <root>
                    <root-step>A</root-step>
                </root>
                <kind text="7">dominant</kind>
            </harmony>
            <note default-y="-5.00" default-x="88.02">
                <pitch>
                    <step>E</step>
                    <octave>5</octave>
                </pitch>
                <duration>4</duration>
                <voice>1</voice>
                <type>half</type>
                <stem>down</stem>
                <notations>
                    <slur type="start" number="1"/>
                </notations>
                <lyric number="1">
                    <syllabic>single</syllabic>
                    <text>Lord</text>
                </lyric>
                <lyric number="2">
                    <syllabic>single</syllabic>
                    <text>Lord</text>
                </lyric>
                <lyric number="3">
                    <syllabic>single</syllabic>
                    <text>Lord</text>
                </lyric>
                <lyric number="4">
                    <syllabic>single</syllabic>
                    <text>Lord</text>
                </lyric>
            </note>
            <note default-y="-10.00" default-x="156.88">
                <pitch>
                    <step>D</step>
                    <octave>5</octave>
                </pitch>
                <duration>2</duration>
                <voice>1</voice>
                <type>quarter</type>
                <stem>down</stem>
                <notations>
                    <slur type="stop" number="1"/>
                </notations>
            </note>
            <note default-y="-15.00" default-x="199.92">
                <pitch>
                    <step>C</step>
                    <alter>1</alter>
                    <octave>5</octave>
                </pitch>
                <duration>2</duration>
                <voice>1</voice>
                <type>quarter</type>
                <accidental>sharp</accidental>
                <stem>down</stem>
                <lyric number="1">
                    <syllabic>single</syllabic>
                    <text>of</text>
                </lyric>
                <lyric number="2">
                    <syllabic>single</syllabic>
                    <text>of</text>
                </lyric>
                <lyric number="3">
                    <syllabic>single</syllabic>
                    <text>of</text>
                </lyric>
                <lyric number="4">
                    <syllabic>single</syllabic>
                    <text>of</text>
                </lyric>
            </note>
        </measure>
        <measure width="200.35" number="9">
            <harmony print-frame="no">
                <root>
                    <root-step>D</root-step>
                </root>
                <kind text="">major</kind>
            </harmony>
            <note default-y="-10.00" default-x="33.38">
                <pitch>
                    <step>D</step>
                    <octave>5</octave>
                </pitch>
                <duration>6</duration>
                <voice>1</voice>
                <type>half</type>
                <dot/>
                <stem>down</stem>
                <lyric number="1">
                    <syllabic>single</syllabic>
                    <text>all.</text>
                </lyric>
                <lyric number="2">
                    <syllabic>single</syllabic>
                    <text>all.</text>
                </lyric>
                <lyric number="3">
                    <syllabic>single</syllabic>
                    <text>all.</text>
                </lyric>
                <lyric number="4">
                    <syllabic>single</syllabic>
                    <text>all.</text>
                </lyric>
            </note>
            <note default-y="-20.00" default-x="142.71">
                <pitch>
                    <step>B</step>
                    <octave>4</octave>
                </pitch>
                <duration>2</duration>
                <voice>1</voice>
                <type>quarter</type>
                <stem>down</stem>
                <lyric number="1">
                    <syllabic>single</syllabic>
                    <text>Bring</text>
                </lyric>
                <lyric number="2">
                    <syllabic>single</syllabic>
                    <text>Hail</text>
                </lyric>
                <lyric number="3">
                    <syllabic>single</syllabic>
                    <text>To</text>
                </lyric>
                <lyric number="4">
                    <syllabic>single</syllabic>
                    <text>We'll</text>
                </lyric>
            </note>
        </measure>
        <measure width="295.43" number="10">
            <harmony print-frame="no">
                <root>
                    <root-step>G</root-step>
                </root>
                <kind text="">major</kind>
            </harmony>
            <note default-y="-10.00" default-x="41.37">
                <pitch>
                    <step>D</step>
                    <octave>5</octave>
                </pitch>
                <duration>2</duration>
                <voice>1</voice>
                <type>quarter</type>
                <stem>down</stem>
                <lyric number="1">
                    <syllabic>single</syllabic>
                    <text>forth</text>
                </lyric>
                <lyric number="2">
                    <syllabic>single</syllabic>
                    <text>Him</text>
                </lyric>
                <lyric number="3">
                    <syllabic>single</syllabic>
                    <text>Him</text>
                </lyric>
                <lyric number="4">
                    <syllabic>single</syllabic>
                    <text>join</text>
                </lyric>
            </note>
            <note default-y="-20.00" default-x="104.48">
                <pitch>
                    <step>B</step>
                    <octave>4</octave>
                </pitch>
                <duration>2</duration>
                <voice>1</voice>
                <type>quarter</type>
                <stem>down</stem>
                <lyric number="1">
                    <syllabic>single</syllabic>
                    <text>the</text>
                </lyric>
                <lyric number="2">
                    <syllabic>single</syllabic>
                    <text>who</text>
                </lyric>
                <lyric number="3">
                    <syllabic>single</syllabic>
                    <text>all</text>
                </lyric>
                <lyric number="4">
                    <syllabic>single</syllabic>
                    <text>the</text>
                </lyric>
            </note>
            <note default-y="-35.00" default-x="167.60">
                <pitch>
                    <step>F</step>
                    <alter>1</alter>
                    <octave>4</octave>
                </pitch>
                <duration>2</duration>
                <voice>1</voice>
                <type>quarter</type>
                <stem>up</stem>
                <lyric number="1">
                    <syllabic>begin</syllabic>
                    <text>roy</text>
                </lyric>
                <lyric number="2">
                    <syllabic>single</syllabic>
                    <text>saves</text>
                </lyric>
                <lyric number="3">
                    <syllabic>begin</syllabic>
                    <text>maj</text>
                </lyric>
                <lyric number="4">
                    <syllabic>begin</syllabic>
                    <text>ev</text>
                </lyric>
            </note>
            <note default-y="-20.00" default-x="230.71">
                <pitch>
                    <step>B</step>
                    <octave>4</octave>
                </pitch>
                <duration>2</duration>
                <voice>1</voice>
                <type>quarter</type>
                <stem>down</stem>
                <lyric number="1">
                    <syllabic>end</syllabic>
                    <text>al</text>
                </lyric>
                <lyric number="2">
                    <syllabic>single</syllabic>
                    <text>you</text>
                </lyric>
                <lyric number="3">
                    <syllabic>middle</syllabic>
                    <text>es</text>
                </lyric>
                <lyric number="4">
                    <syllabic>middle</syllabic>
                    <text>er</text>
                </lyric>
            </note>
        </measure>
        <measure width="318.27" number="11">
            <harmony print-frame="no">
                <root>
                    <root-step>D</root-step>
                </root>
                <kind text="">major</kind>
            </harmony>
            <note default-y="-25.00" default-x="34.99">
                <pitch>
                    <step>A</step>
                    <octave>4</octave>
                </pitch>
                <duration>1</duration>
                <voice>1</voice>
                <type>eighth</type>
                <stem>up</stem>
                <beam number="1">begin</beam>
                <notations>
                    <slur type="start" number="1"/>
                </notations>
                <lyric number="1">
                    <syllabic>begin</syllabic>
                    <text>di</text>
                </lyric>
                <lyric number="2">
                    <syllabic>single</syllabic>
                    <text>by</text>
                </lyric>
                <lyric number="3">
                    <syllabic>end</syllabic>
                    <text>ty</text>
                </lyric>
                <lyric number="4">
                    <syllabic>middle</syllabic>
                    <text>last</text>
                </lyric>
            </note>
            <note default-y="-30.00" default-x="72.57">
                <pitch>
                    <step>G</step>
                    <octave>4</octave>
                </pitch>
                <duration>1</duration>
                <voice>1</voice>
                <type>eighth</type>
                <stem>up</stem>
                <beam number="1">continue</beam>
                <notations>
                    <slur type="stop" number="1"/>
                </notations>
            </note>
            <note default-y="-25.00" default-x="110.15">
                <pitch>
                    <step>A</step>
                    <octave>4</octave>
                </pitch>
                <duration>1</duration>
                <voice>1</voice>
                <type>eighth</type>
                <stem>up</stem>
                <beam number="1">continue</beam>
                <notations>
                    <slur type="start" number="1"/>
                </notations>
                <lyric number="1">
                    <syllabic>middle</syllabic>
                    <text>a</text>
                </lyric>
                <lyric number="2">
                    <syllabic>single</syllabic>
                    <text>His</text>
                </lyric>
                <lyric number="3">
                    <syllabic>begin</syllabic>
                    <text>as</text>
                </lyric>
                <lyric number="4">
                    <syllabic>end</syllabic>
                    <text>ing</text>
                </lyric>
            </note>
            <note default-y="-20.00" default-x="147.72">
                <pitch>
                    <step>B</step>
                    <octave>4</octave>
                </pitch>
                <duration>1</duration>
                <voice>1</voice>
                <type>eighth</type>
                <stem>up</stem>
                <beam number="1">end</beam>
                <notations>
                    <slur type="stop" number="1"/>
                </notations>
            </note>
            <note default-y="-25.00" default-x="196.43">
                <pitch>
                    <step>A</step>
                    <octave>4</octave>
                </pitch>
                <duration>2</duration>
                <voice>1</voice>
                <type>quarter</type>
                <stem>up</stem>
                <lyric number="1">
                    <syllabic>end</syllabic>
                    <text>dem</text>
                </lyric>
                <lyric number="2">
                    <syllabic>single</syllabic>
                    <text>grace</text>
                </lyric>
                <lyric number="3">
                    <syllabic>end</syllabic>
                    <text>cribe</text>
                </lyric>
                <lyric number="4">
                    <syllabic>single</syllabic>
                    <text>throng</text>
                </lyric>
            </note>
            <note default-y="-30.00" default-x="256.55">
                <pitch>
                    <step>G</step>
                    <octave>4</octave>
                </pitch>
                <duration>2</duration>
                <voice>1</voice>
                <type>quarter</type>
                <stem>up</stem>
                <lyric number="1">
                    <syllabic>single</syllabic>
                    <text>and</text>
                </lyric>
                <lyric number="2">
                    <syllabic>single</syllabic>
                    <text>and</text>
                </lyric>
                <lyric number="3">
                    <syllabic>single</syllabic>
                    <text>and</text>
                </lyric>
                <lyric number="4">
                    <syllabic>single</syllabic>
                    <text>and</text>
                </lyric>
            </note>
        </measure>
        <measure width="424.50" number="12">
            <print new-system="yes">
                <system-layout>
                    <system-margins>
                        <left-margin>18.50</left-margin>
                        <right-margin>0.00</right-margin>
                    </system-margins>
                    <system-distance>299.03</system-distance>
                </system-layout>
            </print>
            <harmony print-frame="no">
                <root>
                    <root-step>G</root-step>
                </root>
                <kind text="">major</kind>
            </harmony>
            <note default-y="-10.00" default-x="94.41">
                <pitch>
                    <step>D</step>
                    <octave>5</octave>
                </pitch>
                <duration>4</duration>
                <voice>1</voice>
                <type>half</type>
                <stem>down</stem>
                <lyric number="1">
                    <syllabic>single</syllabic>
                    <text>crown</text>
                </lyric>
                <lyric number="2">
                    <syllabic>single</syllabic>
                    <text>crown</text>
                </lyric>
                <lyric number="3">
                    <syllabic>single</syllabic>
                    <text>crown</text>
                </lyric>
                <lyric number="4">
                    <syllabic>single</syllabic>
                    <text>crown</text>
                </lyric>
            </note>
            <harmony print-frame="no">
                <root>
                    <root-step>C</root-step>
                </root>
                <kind text="">major</kind>
            </harmony>
            <note default-y="-15.00" default-x="258.65">
                <pitch>
                    <step>C</step>
                    <octave>5</octave>
                </pitch>
                <duration>4</duration>
                <voice>1</voice>
                <type>half</type>
                <stem>down</stem>
                <lyric number="1">
                    <syllabic>single</syllabic>
                    <text>Him</text>
                </lyric>
                <lyric number="2">
                    <syllabic>single</syllabic>
                    <text>Him</text>
                </lyric>
                <lyric number="3">
                    <syllabic>single</syllabic>
                    <text>Him</text>
                </lyric>
                <lyric number="4">
                    <syllabic>single</syllabic>
                    <text>Him</text>
                </lyric>
            </note>
        </measure>
        <measure width="380.48" number="13">
            <harmony print-frame="no">
                <root>
                    <root-step>G</root-step>
                </root>
                <kind text="">major</kind>
            </harmony>
            <note default-y="-20.00" default-x="41.37">
                <pitch>
                    <step>B</step>
                    <octave>4</octave>
                </pitch>
                <duration>3</duration>
                <voice>1</voice>
                <type>quarter</type>
                <dot/>
                <stem>down</stem>
                <notations>
                    <slur type="start" number="1"/>
                </notations>
                <lyric number="1">
                    <syllabic>begin</syllabic>
                    <text>Lord</text>
                </lyric>
                <lyric number="2">
                    <syllabic>single</syllabic>
                    <text>Lord</text>
                </lyric>
                <lyric number="3">
                    <syllabic>single</syllabic>
                    <text>Lord</text>
                </lyric>
                <lyric number="4">
                    <syllabic>single</syllabic>
                    <text>Lord</text>
                </lyric>
            </note>
            <note default-y="-15.00" default-x="148.42">
                <pitch>
                    <step>C</step>
                    <octave>5</octave>
                </pitch>
                <duration>1</duration>
                <voice>1</voice>
                <type>eighth</type>
                <stem>down</stem>
            </note>
            <harmony print-frame="no">
                <root>
                    <root-step>D</root-step>
                </root>
                <kind text="">major</kind>
            </harmony>
            <note default-y="-25.00" default-x="203.29">
                <pitch>
                    <step>A</step>
                    <octave>4</octave>
                </pitch>
                <duration>2</duration>
                <voice>1</voice>
                <type>quarter</type>
                <stem>up</stem>
                <notations>
                    <slur type="stop" number="1"/>
                </notations>
            </note>
            <note default-y="-25.00" default-x="291.09">
                <pitch>
                    <step>A</step>
                    <octave>4</octave>
                </pitch>
                <duration>2</duration>
                <voice>1</voice>
                <type>quarter</type>
                <stem>up</stem>
                <lyric number="1">
                    <syllabic>end</syllabic>
                    <text>of</text>
                </lyric>
                <lyric number="2">
                    <syllabic>single</syllabic>
                    <text>of</text>
                </lyric>
                <lyric number="3">
                    <syllabic>single</syllabic>
                    <text>of</text>
                </lyric>
                <lyric number="4">
                    <syllabic>single</syllabic>
                    <text>of</text>
                </lyric>
            </note>
        </measure>
        <measure width="253.62" number="14">
            <harmony print-frame="no">
                <root>
                    <root-step>G</root-step>
                </root>
                <kind text="">major</kind>
            </harmony>
            <note default-y="-30.00" default-x="33.38">
                <pitch>
                    <step>G</step>
                    <octave>4</octave>
                </pitch>
                <duration>6</duration>
                <voice>1</voice>
                <type>half</type>
                <dot/>
                <stem>up</stem>
                <lyric number="1">
                    <syllabic>single</syllabic>
                    <text>all.</text>
                </lyric>
                <lyric number="2">
                    <syllabic>single</syllabic>
                    <text>all.</text>
                </lyric>
                <lyric number="3">
                    <syllabic>single</syllabic>
                    <text>all.</text>
                </lyric>
                <lyric number="4">
                    <syllabic>single</syllabic>
                    <text>all.</text>
                </lyric>
            </note>
            <barline location="right">
                <bar-style>light-heavy</bar-style>
            </barline>
        </measure>
    </part>
</score-partwise>
