<?xml version="1.0" encoding="UTF-8"?>
<!DOCTYPE score-partwise PUBLIC "-//Recordare//DTD MusicXML 2.0 Partwise//EN" "http://www.musicxml.org/dtds/partwise.dtd">
<score-partwise version="2.0">
    <work>
        <work-number></work-number>
        <work-title></work-title>
    </work>
    <movement-number></movement-number>
    <movement-title>The Corner Grocery Store</movement-title>
    <identification>
        <creator type="composer">Raffi</creator>
        <creator type="poet"></creator>
        <rights>All Rights Reserved</rights>
        <encoding>
            <software>Finale 2011 for Mac</software>
            <software>Dolet 6.2 for Finale</software>
            <encoding-date>2013-03-20</encoding-date>
            <supports value="yes" type="yes" element="print" attribute="new-system"/>
            <supports value="yes" type="yes" element="print" attribute="new-page"/>
            <software>ProxyMusic 2.0 c</software>
        </encoding>
        <source>http://wikifonia.org/node/21432/revisions/28286/view</source>
    </identification>
    <defaults>
        <scaling>
            <millimeters>6.0113</millimeters>
            <tenths>40</tenths>
        </scaling>
        <page-layout>
            <page-height>1859</page-height>
            <page-width>1437</page-width>
            <page-margins type="both">
                <left-margin>85</left-margin>
                <right-margin>85</right-margin>
                <top-margin>85</top-margin>
                <bottom-margin>85</bottom-margin>
            </page-margins>
        </page-layout>
        <system-layout>
            <system-margins>
                <left-margin>0</left-margin>
                <right-margin>0</right-margin>
            </system-margins>
            <system-distance>159</system-distance>
            <top-system-distance>115</top-system-distance>
        </system-layout>
        <appearance>
            <line-width type="stem">0.7487</line-width>
            <line-width type="beam">5</line-width>
            <line-width type="staff">0.7487</line-width>
            <line-width type="light barline">0.7487</line-width>
            <line-width type="heavy barline">5</line-width>
            <line-width type="leger">0.7487</line-width>
            <line-width type="ending">1.4583</line-width>
            <line-width type="wedge">1.4583</line-width>
            <line-width type="enclosure">0.7487</line-width>
            <line-width type="tuplet bracket">0.7487</line-width>
            <note-size type="grace">60</note-size>
            <note-size type="cue">60</note-size>
        </appearance>
        <music-font font-size="17" font-family="Maestro,engraved"/>
        <word-font font-size="8.5" font-family="Times New Roman"/>
        <lyric-font font-size="8.5" font-family="Times New Roman"/>
    </defaults>
    <credit page="1">
        <credit-words font-weight="bold" font-size="24" default-y="1775" default-x="718" justify="center" valign="top">The Corner Grocery Store</credit-words>
    </credit>
    <part-list>
        <score-part id="P1">
            <part-name print-object="no">Flute</part-name>
            <part-abbreviation print-object="no">Flu</part-abbreviation>
            <score-instrument id="P1-I1">
                <instrument-name>Flute</instrument-name>
            </score-instrument>
            <midi-instrument id="P1-I1">
                <midi-channel>1</midi-channel>
                <midi-program>74</midi-program>
                <volume>78</volume>
                <pan>0</pan>
            </midi-instrument>
        </score-part>
    </part-list>
    <part id="P1">
        <measure width="310" number="0" implicit="yes">
            <print>
                <system-layout>
                    <top-system-distance>182</top-system-distance>
                </system-layout>
                <measure-numbering>system</measure-numbering>
            </print>
            <attributes>
                <divisions>2</divisions>
                <key>
                    <fifths>-1</fifths>
                    <mode>major</mode>
                </key>
                <time>
                    <beats>4</beats>
                    <beat-type>4</beat-type>
                </time>
                <clef>
                    <sign>G</sign>
                    <line>2</line>
                </clef>
                <staff-details>
                    <staff-size>108</staff-size>
                </staff-details>
            </attributes>
            <sound tempo="120"/>
            <harmony default-y="7">
                <root>
                    <root-step>F</root-step>
                </root>
                <kind halign="center" text="">major</kind>
            </harmony>
            <note default-x="113">
                <pitch>
                    <step>F</step>
                    <octave>4</octave>
                </pitch>
                <duration>1</duration>
                <voice>1</voice>
                <type>eighth</type>
                <stem default-y="0">up</stem>
                <beam number="1">begin</beam>
                <lyric relative-x="3" default-y="-86" number="1">
                    <syllabic>single</syllabic>
                    <text font-size="9.2">There</text>
                </lyric>
                <lyric relative-x="3" default-y="-115" number="2">
                    <syllabic>single</syllabic>
                    <text font-size="9.2">There</text>
                </lyric>
            </note>
            <note default-x="208">
                <pitch>
                    <step>G</step>
                    <octave>4</octave>
                </pitch>
                <duration>1</duration>
                <voice>1</voice>
                <type>eighth</type>
                <stem default-y="5.5">up</stem>
                <beam number="1">end</beam>
                <lyric default-y="-86" number="1">
                    <syllabic>single</syllabic>
                    <text font-size="9.2">was</text>
                </lyric>
                <lyric default-y="-115" number="2">
                    <syllabic>single</syllabic>
                    <text font-size="9.2">wer</text>
                </lyric>
            </note>
            <barline location="right">
                <bar-style>light-light</bar-style>
            </barline>
        </measure>
        <measure width="323" number="1">
            <print new-system="no"/>
            <note default-x="13">
                <pitch>
                    <step>A</step>
                    <octave>4</octave>
                </pitch>
                <duration>2</duration>
                <voice>1</voice>
                <type>quarter</type>
                <stem default-y="11">up</stem>
                <lyric relative-x="7" default-y="-86" number="1">
                    <syllabic>single</syllabic>
                    <text font-size="9.2">cheese,</text>
                </lyric>
                <lyric relative-x="5" default-y="-115" number="2">
                    <syllabic>single</syllabic>
                    <text font-size="9.2">plums,</text>
                </lyric>
            </note>
            <note default-x="90">
                <rest/>
                <duration>2</duration>
                <voice>1</voice>
                <type>quarter</type>
            </note>
            <note default-x="168">
                <pitch>
                    <step>A</step>
                    <octave>4</octave>
                </pitch>
                <duration>2</duration>
                <voice>1</voice>
                <type>quarter</type>
                <stem default-y="11">up</stem>
                <lyric default-y="-86" number="1">
                    <syllabic>single</syllabic>
                    <text font-size="9.2">cheese,</text>
                </lyric>
                <lyric default-y="-115" number="2">
                    <syllabic>single</syllabic>
                    <text font-size="9.2">plums,</text>
                </lyric>
            </note>
            <note default-x="246">
                <rest/>
                <duration>2</duration>
                <voice>1</voice>
                <type>quarter</type>
            </note>
        </measure>
        <measure width="634" number="2">
            <print new-system="no"/>
            <note default-x="13">
                <pitch>
                    <step>A</step>
                    <octave>4</octave>
                </pitch>
                <duration>1</duration>
                <voice>1</voice>
                <type>eighth</type>
                <stem default-y="11">up</stem>
                <beam number="1">begin</beam>
                <lyric default-y="-86" number="1">
                    <syllabic>begin</syllabic>
                    <text font-size="9.2">walk</text>
                </lyric>
                <lyric default-y="-115" number="2">
                    <syllabic>begin</syllabic>
                    <text font-size="9.2">twid</text>
                </lyric>
            </note>
            <note default-x="95">
                <pitch>
                    <step>G</step>
                    <octave>4</octave>
                </pitch>
                <duration>1</duration>
                <voice>1</voice>
                <type>eighth</type>
                <stem default-y="5.5">up</stem>
                <beam number="1">end</beam>
                <lyric default-y="-86" number="1">
                    <syllabic>end</syllabic>
                    <text font-size="9.2">in'</text>
                </lyric>
                <lyric default-y="-115" number="2">
                    <syllabic>end</syllabic>
                    <text font-size="9.2">d–</text>
                </lyric>
            </note>
            <note default-x="177">
                <pitch>
                    <step>F</step>
                    <octave>4</octave>
                </pitch>
                <duration>1</duration>
                <voice>1</voice>
                <type>eighth</type>
                <stem default-y="0">up</stem>
                <beam number="1">begin</beam>
                <lyric default-y="-86" number="1">
                    <syllabic>single</syllabic>
                    <text font-size="9.2">on</text>
                </lyric>
                <lyric default-y="-115" number="2">
                    <syllabic>single</syllabic>
                    <text font-size="9.2">ling</text>
                </lyric>
            </note>
            <note default-x="258">
                <pitch>
                    <step>D</step>
                    <octave>4</octave>
                </pitch>
                <duration>1</duration>
                <voice>1</voice>
                <type>eighth</type>
                <stem default-y="-5">up</stem>
                <beam number="1">end</beam>
                <lyric default-y="-86" number="1">
                    <syllabic>single</syllabic>
                    <text font-size="9.2">its</text>
                </lyric>
                <lyric default-y="-115" number="2">
                    <syllabic>single</syllabic>
                    <text font-size="9.2">their</text>
                </lyric>
            </note>
            <note default-x="339">
                <pitch>
                    <step>C</step>
                    <octave>4</octave>
                </pitch>
                <duration>2</duration>
                <voice>1</voice>
                <type>quarter</type>
                <stem default-y="-16">up</stem>
                <lyric default-y="-86" number="1">
                    <syllabic>single</syllabic>
                    <text font-size="9.2">knees,</text>
                </lyric>
                <lyric default-y="-115" number="2">
                    <syllabic>single</syllabic>
                    <text font-size="9.2">humbs,</text>
                </lyric>
            </note>
            <note default-x="471">
                <pitch>
                    <step>E</step>
                    <octave>4</octave>
                </pitch>
                <duration>1</duration>
                <voice>1</voice>
                <type>eighth</type>
                <stem default-y="-5">up</stem>
                <lyric default-y="-86" number="1">
                    <syllabic>single</syllabic>
                    <text font-size="9.2">In</text>
                </lyric>
                <lyric default-y="-115" number="2">
                    <syllabic>single</syllabic>
                    <text font-size="9.2">In</text>
                </lyric>
            </note>
            <note default-x="552">
                <pitch>
                    <step>F</step>
                    <octave>4</octave>
                </pitch>
                <duration>1</duration>
                <voice>1</voice>
                <type>eighth</type>
                <stem default-y="1">up</stem>
                <lyric default-y="-86" number="1">
                    <syllabic>single</syllabic>
                    <text font-size="9.2">the</text>
                </lyric>
                <lyric default-y="-115" number="2">
                    <syllabic>single</syllabic>
                    <text font-size="9.2">the</text>
                </lyric>
            </note>
        </measure>
        <measure width="444" number="3">
            <print new-system="yes">
                <system-layout>
                    <system-distance>156</system-distance>
                </system-layout>
            </print>
            <attributes>
                <staff-details>
                    <staff-size>113</staff-size>
                </staff-details>
            </attributes>
            <harmony default-y="11">
                <root>
                    <root-step>C</root-step>
                </root>
                <kind halign="center" text="">major</kind>
            </harmony>
            <note default-x="82">
                <pitch>
                    <step>G</step>
                    <octave>4</octave>
                </pitch>
                <duration>4</duration>
                <voice>1</voice>
                <type>half</type>
                <stem default-y="6">up</stem>
                <lyric default-y="-90" number="1">
                    <syllabic>single</syllabic>
                    <text font-size="9.6">store,</text>
                </lyric>
                <lyric default-y="-121" number="2">
                    <syllabic>single</syllabic>
                    <text font-size="9.6">store,</text>
                </lyric>
            </note>
            <note default-x="234">
                <rest/>
                <duration>2</duration>
                <voice>1</voice>
                <type>quarter</type>
            </note>
            <note default-x="327">
                <pitch>
                    <step>F</step>
                    <octave>4</octave>
                </pitch>
                <duration>1</duration>
                <voice>1</voice>
                <type>eighth</type>
                <stem default-y="0">up</stem>
                <beam number="1">begin</beam>
                <lyric default-y="-90" number="1">
                    <syllabic>single</syllabic>
                    <text font-size="9.6">in</text>
                </lyric>
                <lyric default-y="-121" number="2">
                    <syllabic>single</syllabic>
                    <text font-size="9.6">in</text>
                </lyric>
            </note>
            <note default-x="385">
                <pitch>
                    <step>G</step>
                    <octave>4</octave>
                </pitch>
                <duration>1</duration>
                <voice>1</voice>
                <type>eighth</type>
                <stem default-y="6">up</stem>
                <beam number="1">end</beam>
                <lyric default-y="-90" number="1">
                    <syllabic>single</syllabic>
                    <text font-size="9.6">the</text>
                </lyric>
                <lyric default-y="-121" number="2">
                    <syllabic>single</syllabic>
                    <text font-size="9.6">the</text>
                </lyric>
            </note>
        </measure>
        <measure width="453" number="4">
            <print new-system="no"/>
            <harmony default-y="11">
                <root>
                    <root-step>F</root-step>
                </root>
                <kind halign="center" text="">major</kind>
            </harmony>
            <note default-x="13">
                <pitch>
                    <step>A</step>
                    <octave>4</octave>
                </pitch>
                <duration>4</duration>
                <voice>1</voice>
                <type>half</type>
                <stem default-y="12">up</stem>
                <lyric default-y="-90" number="1">
                    <syllabic>single</syllabic>
                    <text font-size="9.6">store.</text>
                </lyric>
                <lyric default-y="-121" number="2">
                    <syllabic>single</syllabic>
                    <text font-size="9.6">store.</text>
                </lyric>
            </note>
            <note default-x="198">
                <rest/>
                <duration>2</duration>
                <voice>1</voice>
                <type>quarter</type>
            </note>
            <note default-x="312">
                <pitch>
                    <step>F</step>
                    <octave>4</octave>
                </pitch>
                <duration>1</duration>
                <voice>1</voice>
                <type>eighth</type>
                <stem default-y="0">up</stem>
                <beam number="1">begin</beam>
                <lyric default-y="-90" number="1">
                    <syllabic>single</syllabic>
                    <text font-size="9.6">There</text>
                </lyric>
                <lyric default-y="-121" number="2">
                    <syllabic>single</syllabic>
                    <text font-size="9.6">There</text>
                </lyric>
            </note>
            <note default-x="381">
                <pitch>
                    <step>G</step>
                    <octave>4</octave>
                </pitch>
                <duration>1</duration>
                <voice>1</voice>
                <type>eighth</type>
                <stem default-y="6">up</stem>
                <beam number="1">end</beam>
                <lyric default-y="-90" number="1">
                    <syllabic>single</syllabic>
                    <text font-size="9.6">was</text>
                </lyric>
                <lyric default-y="-121" number="2">
                    <syllabic>single</syllabic>
                    <text font-size="9.6">were</text>
                </lyric>
            </note>
        </measure>
        <measure width="371" number="5">
            <print new-system="no"/>
            <note default-x="13">
                <pitch>
                    <step>A</step>
                    <octave>4</octave>
                </pitch>
                <duration>2</duration>
                <voice>1</voice>
                <type>quarter</type>
                <stem default-y="12">up</stem>
                <lyric relative-x="8" default-y="-90" number="1">
                    <syllabic>single</syllabic>
                    <text font-size="9.6">cheese,</text>
                </lyric>
                <lyric relative-x="6" default-y="-121" number="2">
                    <syllabic>single</syllabic>
                    <text font-size="9.6">plums,</text>
                </lyric>
            </note>
            <note default-x="103">
                <rest/>
                <duration>2</duration>
                <voice>1</voice>
                <type>quarter</type>
            </note>
            <note default-x="192">
                <pitch>
                    <step>A</step>
                    <octave>4</octave>
                </pitch>
                <duration>2</duration>
                <voice>1</voice>
                <type>quarter</type>
                <stem default-y="12">up</stem>
                <lyric default-y="-90" number="1">
                    <syllabic>single</syllabic>
                    <text font-size="9.6">cheese,</text>
                </lyric>
                <lyric default-y="-121" number="2">
                    <syllabic>single</syllabic>
                    <text font-size="9.6">plums,</text>
                </lyric>
            </note>
            <note default-x="282">
                <rest/>
                <duration>2</duration>
                <voice>1</voice>
                <type>quarter</type>
            </note>
        </measure>
        <measure width="642" number="6">
            <print new-system="yes">
                <system-layout>
                    <system-distance>154</system-distance>
                </system-layout>
            </print>
            <attributes>
                <staff-details>
                    <staff-size>108</staff-size>
                </staff-details>
            </attributes>
            <harmony default-y="17">
                <root>
                    <root-step>F</root-step>
                </root>
                <kind halign="center" text="">major</kind>
            </harmony>
            <note default-x="80">
                <pitch>
                    <step>A</step>
                    <octave>4</octave>
                </pitch>
                <duration>1</duration>
                <voice>1</voice>
                <type>eighth</type>
                <stem default-y="11">up</stem>
                <beam number="1">begin</beam>
                <lyric default-y="-86" number="1">
                    <syllabic>begin</syllabic>
                    <text font-size="9.2">Walk</text>
                </lyric>
                <lyric default-y="-115" number="2">
                    <syllabic>begin</syllabic>
                    <text font-size="9.2">twid</text>
                </lyric>
            </note>
            <note default-x="154">
                <pitch>
                    <step>G</step>
                    <octave>4</octave>
                </pitch>
                <duration>1</duration>
                <voice>1</voice>
                <type>eighth</type>
                <stem default-y="5.5">up</stem>
                <beam number="1">end</beam>
                <lyric default-y="-86" number="1">
                    <syllabic>end</syllabic>
                    <text font-size="9.2">in'</text>
                </lyric>
                <lyric default-y="-115" number="2">
                    <syllabic>middle</syllabic>
                    <text font-size="9.2">dl</text>
                </lyric>
            </note>
            <note default-x="227">
                <pitch>
                    <step>F</step>
                    <octave>4</octave>
                </pitch>
                <duration>1</duration>
                <voice>1</voice>
                <type>eighth</type>
                <stem default-y="0">up</stem>
                <beam number="1">begin</beam>
                <lyric default-y="-86" number="1">
                    <syllabic>single</syllabic>
                    <text font-size="9.2">on</text>
                </lyric>
                <lyric default-y="-115" number="2">
                    <syllabic>end</syllabic>
                    <text font-size="9.2">ing</text>
                </lyric>
            </note>
            <note default-x="301">
                <pitch>
                    <step>D</step>
                    <octave>4</octave>
                </pitch>
                <duration>1</duration>
                <voice>1</voice>
                <type>eighth</type>
                <stem default-y="-5">up</stem>
                <beam number="1">end</beam>
                <lyric default-y="-86" number="1">
                    <syllabic>single</syllabic>
                    <text font-size="9.2">its</text>
                </lyric>
                <lyric default-y="-115" number="2">
                    <syllabic>single</syllabic>
                    <text font-size="9.2">their</text>
                </lyric>
            </note>
            <note default-x="374">
                <pitch>
                    <step>C</step>
                    <octave>4</octave>
                </pitch>
                <duration>2</duration>
                <voice>1</voice>
                <type>quarter</type>
                <stem default-y="-16">up</stem>
                <lyric default-y="-86" number="1">
                    <syllabic>single</syllabic>
                    <text font-size="9.2">knees,</text>
                </lyric>
                <lyric default-y="-115" number="2">
                    <syllabic>single</syllabic>
                    <text font-size="9.2">thumbs,</text>
                </lyric>
            </note>
            <note default-x="494">
                <pitch>
                    <step>E</step>
                    <octave>4</octave>
                </pitch>
                <duration>1</duration>
                <voice>1</voice>
                <type>eighth</type>
                <stem default-y="-5">up</stem>
                <beam number="1">begin</beam>
                <lyric default-y="-86" number="1">
                    <syllabic>single</syllabic>
                    <text font-size="9.2">In</text>
                </lyric>
                <lyric default-y="-115" number="2">
                    <syllabic>single</syllabic>
                    <text font-size="9.2">In</text>
                </lyric>
            </note>
            <note default-x="567">
                <pitch>
                    <step>F</step>
                    <octave>4</octave>
                </pitch>
                <duration>1</duration>
                <voice>1</voice>
                <type>eighth</type>
                <stem default-y="0">up</stem>
                <beam number="1">end</beam>
                <lyric default-y="-86" number="1">
                    <syllabic>single</syllabic>
                    <text font-size="9.2">the</text>
                </lyric>
                <lyric default-y="-115" number="2">
                    <syllabic>single</syllabic>
                    <text font-size="9.2">the</text>
                </lyric>
            </note>
        </measure>
        <measure width="363" number="7">
            <print new-system="no"/>
            <harmony default-y="15">
                <root>
                    <root-step>C</root-step>
                </root>
                <kind halign="center" text="7">dominant</kind>
            </harmony>
            <note default-x="14">
                <pitch>
                    <step>G</step>
                    <octave>4</octave>
                </pitch>
                <duration>2</duration>
                <voice>1</voice>
                <type>quarter</type>
                <stem default-y="6">up</stem>
                <lyric default-y="-86" number="1">
                    <syllabic>begin</syllabic>
                    <text font-size="9.2">Cor</text>
                </lyric>
                <lyric default-y="-115" number="2">
                    <syllabic>begin</syllabic>
                    <text font-size="9.2">Cor</text>
                </lyric>
            </note>
            <note default-x="96">
                <pitch>
                    <step>B</step>
                    <alter>-1</alter>
                    <octave>4</octave>
                </pitch>
                <duration>2</duration>
                <voice>1</voice>
                <type>quarter</type>
                <stem default-y="-60">down</stem>
                <lyric default-y="-86" number="1">
                    <syllabic>end</syllabic>
                    <text font-size="9.2">ner</text>
                </lyric>
                <lyric default-y="-115" number="2">
                    <syllabic>end</syllabic>
                    <text font-size="9.2">ner</text>
                </lyric>
            </note>
            <note default-x="178">
                <pitch>
                    <step>A</step>
                    <octave>4</octave>
                </pitch>
                <duration>1</duration>
                <voice>1</voice>
                <type>eighth</type>
                <stem default-y="11">up</stem>
                <beam number="1">begin</beam>
                <lyric default-y="-86" number="1">
                    <syllabic>begin</syllabic>
                    <text font-size="9.2">Gro</text>
                </lyric>
                <lyric default-y="-115" number="2">
                    <syllabic>begin</syllabic>
                    <text font-size="9.2">Gro</text>
                </lyric>
            </note>
            <note default-x="229">
                <pitch>
                    <step>A</step>
                    <octave>4</octave>
                </pitch>
                <duration>1</duration>
                <voice>1</voice>
                <type>eighth</type>
                <stem default-y="11">up</stem>
                <beam number="1">end</beam>
                <lyric default-y="-86" number="1">
                    <syllabic>end</syllabic>
                    <text font-size="9.2">cer</text>
                </lyric>
                <lyric default-y="-115" number="2">
                    <syllabic>middle</syllabic>
                    <text font-size="9.2">cer</text>
                </lyric>
            </note>
            <note default-x="280">
                <pitch>
                    <step>G</step>
                    <octave>4</octave>
                </pitch>
                <duration>2</duration>
                <voice>1</voice>
                <type>quarter</type>
                <stem default-y="6">up</stem>
                <lyric default-y="-86" number="1">
                    <syllabic>single</syllabic>
                    <text font-size="9.2">y</text>
                </lyric>
                <lyric default-y="-115" number="2">
                    <syllabic>end</syllabic>
                    <text font-size="9.2">y</text>
                </lyric>
            </note>
        </measure>
        <measure width="263" number="8">
            <print new-system="no"/>
            <barline location="left">
                <ending font-size="7.1" default-y="40" type="start" number="1, 2, 4" end-length="30">1, 2, 4</ending>
            </barline>
            <harmony default-y="15">
                <root>
                    <root-step>F</root-step>
                </root>
                <kind halign="center" text="">major</kind>
            </harmony>
            <note default-x="14">
                <pitch>
                    <step>F</step>
                    <octave>4</octave>
                </pitch>
                <duration>4</duration>
                <voice>1</voice>
                <type>half</type>
                <stem default-y="1">up</stem>
                <lyric default-y="-86" number="1">
                    <syllabic>single</syllabic>
                    <text font-size="9.2">Store.</text>
                </lyric>
                <lyric default-y="-115" number="2">
                    <syllabic>single</syllabic>
                    <text font-size="9.2">Store.</text>
                </lyric>
            </note>
            <note default-x="123">
                <rest/>
                <duration>2</duration>
                <voice>1</voice>
                <type>quarter</type>
            </note>
            <note default-x="190">
                <pitch>
                    <step>C</step>
                    <octave>4</octave>
                </pitch>
                <duration>2</duration>
                <voice>1</voice>
                <type>quarter</type>
                <stem default-y="-16">up</stem>
                <lyric default-y="-86" number="1">
                    <syllabic>single</syllabic>
                    <text font-size="9.2">My</text>
                </lyric>
            </note>
            <barline location="right">
                <bar-style>light-light</bar-style>
                <ending type="stop" number="1, 2, 4"></ending>
            </barline>
        </measure>
        <measure width="545" number="9">
            <print new-system="yes">
                <system-layout>
                    <system-distance>156</system-distance>
                </system-layout>
            </print>
            <barline location="left">
                <ending font-size="7.1" default-y="40" type="start" number="3" end-length="30">3</ending>
            </barline>
            <attributes>
                <staff-details>
                    <staff-size>113</staff-size>
                </staff-details>
            </attributes>
            <harmony relative-x="18" default-y="14">
                <root>
                    <root-step>F</root-step>
                </root>
                <kind halign="center" text="">major</kind>
            </harmony>
            <note default-x="82">
                <pitch>
                    <step>F</step>
                    <octave>4</octave>
                </pitch>
                <duration>4</duration>
                <voice>1</voice>
                <type>half</type>
                <stem default-y="1">up</stem>
                <lyric default-y="-90" number="1">
                    <syllabic>single</syllabic>
                    <text font-size="9.6">store.</text>
                </lyric>
            </note>
            <note default-x="265">
                <rest/>
                <duration>2</duration>
                <voice>1</voice>
                <type>quarter</type>
            </note>
            <note default-x="379">
                <pitch>
                    <step>F</step>
                    <octave>4</octave>
                </pitch>
                <duration>1</duration>
                <voice>1</voice>
                <type>eighth</type>
                <stem default-y="0">up</stem>
                <beam number="1">begin</beam>
                <lyric default-y="-90" number="1">
                    <syllabic>single</syllabic>
                    <text font-size="9.6">There</text>
                </lyric>
            </note>
            <direction placement="above">
                <direction-type>
                    <words font-weight="bold" font-size="11.2" default-y="18" default-x="500" justify="right">D.S. to Verse 4</words>
                </direction-type>
            </direction>
            <note default-x="448">
                <pitch>
                    <step>G</step>
                    <octave>4</octave>
                </pitch>
                <duration>1</duration>
                <voice>1</voice>
                <type>eighth</type>
                <stem default-y="6">up</stem>
                <beam number="1">end</beam>
                <lyric default-y="-90" number="1">
                    <syllabic>single</syllabic>
                    <text font-size="9.6">were</text>
                </lyric>
            </note>
            <barline location="right">
                <bar-style>light-heavy</bar-style>
                <ending type="stop" number="3"></ending>
                <repeat direction="backward"/>
            </barline>
        </measure>
        <measure width="297" number="10">
            <print new-system="no"/>
            <barline location="left">
                <ending font-size="7.1" default-y="40" type="start" number="" end-length="30">Fine</ending>
            </barline>
            <harmony default-y="13">
                <root>
                    <root-step>F</root-step>
                </root>
                <kind halign="center" text="">major</kind>
            </harmony>
            <note default-x="7">
                <pitch>
                    <step>F</step>
                    <octave>4</octave>
                </pitch>
                <duration>6</duration>
                <voice>1</voice>
                <type>half</type>
                <dot/>
                <stem default-y="1">up</stem>
                <lyric default-y="-90" number="1">
                    <syllabic>single</syllabic>
                    <text font-size="9.6">store</text>
                </lyric>
            </note>
            <note default-x="184">
                <rest/>
                <duration>2</duration>
                <voice>1</voice>
                <type>quarter</type>
            </note>
            <barline location="right">
                <bar-style>light-heavy</bar-style>
                <ending type="stop" number=""></ending>
                <repeat direction="backward"/>
            </barline>
        </measure>
        <measure width="425" number="11">
            <print new-system="no"/>
            <harmony default-y="11">
                <root>
                    <root-step>F</root-step>
                </root>
                <kind halign="center" text="">major</kind>
            </harmony>
            <direction placement="above">
                <direction-type>
                    <words font-family="Times" relative-x="8" default-y="34">Chorus</words>
                </direction-type>
            </direction>
            <note default-x="3">
                <pitch>
                    <step>F</step>
                    <octave>4</octave>
                </pitch>
                <duration>2</duration>
                <voice>1</voice>
                <type>quarter</type>
                <stem default-y="1">up</stem>
                <lyric default-y="-90" number="1">
                    <syllabic>single</syllabic>
                    <text font-size="9.6">eyes</text>
                </lyric>
            </note>
            <note default-x="102">
                <pitch>
                    <step>A</step>
                    <octave>4</octave>
                </pitch>
                <duration>1</duration>
                <tie type="start"/>
                <voice>1</voice>
                <type>eighth</type>
                <stem default-y="11">up</stem>
                <beam number="1">begin</beam>
                <notations>
                    <tied type="start"/>
                </notations>
                <lyric default-y="-90" number="1">
                    <syllabic>single</syllabic>
                    <text font-size="9.6">are</text>
                </lyric>
            </note>
            <note default-x="164">
                <pitch>
                    <step>G</step>
                    <octave>4</octave>
                </pitch>
                <duration>1</duration>
                <voice>1</voice>
                <type>eighth</type>
                <stem default-y="6">up</stem>
                <beam number="1">end</beam>
            </note>
            <note default-x="225">
                <pitch>
                    <step>F</step>
                    <octave>4</octave>
                </pitch>
                <duration>2</duration>
                <voice>1</voice>
                <type>quarter</type>
                <stem default-y="1">up</stem>
                <lyric default-y="-90" number="1">
                    <syllabic>single</syllabic>
                    <text font-size="9.6">dim,</text>
                </lyric>
            </note>
            <note default-x="325">
                <pitch>
                    <step>E</step>
                    <octave>4</octave>
                </pitch>
                <duration>2</duration>
                <voice>1</voice>
                <type>quarter</type>
                <stem default-y="-5">up</stem>
                <lyric default-y="-90" number="1">
                    <syllabic>single</syllabic>
                    <text font-size="9.6">I</text>
                </lyric>
            </note>
        </measure>
        <measure width="403" number="12">
            <print new-system="yes">
                <system-layout>
                    <system-distance>154</system-distance>
                </system-layout>
            </print>
            <attributes>
                <staff-details>
                    <staff-size>108</staff-size>
                </staff-details>
            </attributes>
            <harmony default-y="23">
                <root>
                    <root-step>B</root-step>
                    <root-alter>-1</root-alter>
                </root>
                <kind halign="center" text="">major</kind>
            </harmony>
            <note default-x="80">
                <pitch>
                    <step>D</step>
                    <octave>4</octave>
                </pitch>
                <duration>2</duration>
                <voice>1</voice>
                <type>quarter</type>
                <stem default-y="-10.5">up</stem>
                <lyric default-y="-86" number="1">
                    <syllabic>begin</syllabic>
                    <text font-size="9.2">Can</text>
                </lyric>
            </note>
            <note default-x="160">
                <pitch>
                    <step>D</step>
                    <octave>4</octave>
                </pitch>
                <duration>2</duration>
                <voice>1</voice>
                <type>quarter</type>
                <stem default-y="-10.5">up</stem>
                <lyric default-y="-86" number="1">
                    <syllabic>end</syllabic>
                    <text font-size="9.2">not</text>
                </lyric>
            </note>
            <note default-x="241">
                <pitch>
                    <step>D</step>
                    <octave>4</octave>
                </pitch>
                <duration>2</duration>
                <voice>1</voice>
                <type>quarter</type>
                <stem default-y="-10.5">up</stem>
                <lyric default-y="-86" number="1">
                    <syllabic>single</syllabic>
                    <text font-size="9.2">see</text>
                </lyric>
            </note>
            <note default-x="322">
                <pitch>
                    <step>D</step>
                    <octave>4</octave>
                </pitch>
                <duration>2</duration>
                <voice>1</voice>
                <type>quarter</type>
                <stem default-y="-10.5">up</stem>
                <lyric default-y="-86" number="1">
                    <syllabic>single</syllabic>
                    <text font-size="9.2">I</text>
                </lyric>
            </note>
        </measure>
        <measure width="490" number="13">
            <print new-system="no"/>
            <harmony default-y="23">
                <root>
                    <root-step>G</root-step>
                </root>
                <kind halign="center" text="">major</kind>
            </harmony>
            <note default-x="13">
                <pitch>
                    <step>G</step>
                    <octave>4</octave>
                </pitch>
                <duration>2</duration>
                <voice>1</voice>
                <type>quarter</type>
                <stem default-y="6">up</stem>
                <lyric default-y="-86" number="1">
                    <syllabic>single</syllabic>
                    <text font-size="9.2">have</text>
                </lyric>
            </note>
            <note default-x="125">
                <pitch>
                    <step>B</step>
                    <octave>4</octave>
                </pitch>
                <duration>1</duration>
                <tie type="start"/>
                <voice>1</voice>
                <type>eighth</type>
                <accidental>natural</accidental>
                <stem default-y="16.5">up</stem>
                <beam number="1">begin</beam>
                <notations>
                    <tied type="start"/>
                </notations>
                <lyric default-y="-86" number="1">
                    <syllabic>single</syllabic>
                    <text font-size="9.2">not</text>
                </lyric>
            </note>
            <note default-x="195">
                <pitch>
                    <step>A</step>
                    <octave>4</octave>
                </pitch>
                <duration>1</duration>
                <voice>1</voice>
                <type>eighth</type>
                <stem default-y="11">up</stem>
                <beam number="1">end</beam>
            </note>
            <note default-x="264">
                <pitch>
                    <step>G</step>
                    <octave>4</octave>
                </pitch>
                <duration>2</duration>
                <voice>1</voice>
                <type>quarter</type>
                <stem default-y="6">up</stem>
                <lyric default-y="-86" number="1">
                    <syllabic>single</syllabic>
                    <text font-size="9.2">brought</text>
                </lyric>
            </note>
            <note default-x="376">
                <pitch>
                    <step>F</step>
                    <octave>4</octave>
                </pitch>
                <duration>2</duration>
                <voice>1</voice>
                <type>quarter</type>
                <stem default-y="1">up</stem>
                <lyric default-y="-86" number="1">
                    <syllabic>single</syllabic>
                    <text font-size="9.2">my</text>
                </lyric>
            </note>
        </measure>
        <measure width="375" number="14">
            <print new-system="no"/>
            <harmony default-y="23">
                <root>
                    <root-step>C</root-step>
                </root>
                <kind halign="center" text="">major</kind>
            </harmony>
            <note default-x="14">
                <pitch>
                    <step>E</step>
                    <octave>4</octave>
                </pitch>
                <duration>2</duration>
                <voice>1</voice>
                <type>quarter</type>
                <stem default-y="-5">up</stem>
                <lyric default-y="-86" number="1">
                    <syllabic>single</syllabic>
                    <text font-size="9.2">specs</text>
                </lyric>
            </note>
            <note default-x="104">
                <pitch>
                    <step>G</step>
                    <octave>4</octave>
                </pitch>
                <duration>2</duration>
                <voice>1</voice>
                <type>quarter</type>
                <stem default-y="6">up</stem>
                <lyric default-y="-86" number="1">
                    <syllabic>single</syllabic>
                    <text font-size="9.2">with</text>
                </lyric>
            </note>
            <note default-x="194">
                <pitch>
                    <step>C</step>
                    <octave>5</octave>
                </pitch>
                <duration>2</duration>
                <voice>1</voice>
                <type>quarter</type>
                <stem default-y="-54.5">down</stem>
                <lyric default-y="-86" number="1">
                    <syllabic>single</syllabic>
                    <text font-size="9.2">me,</text>
                </lyric>
            </note>
            <note default-x="284">
                <pitch>
                    <step>C</step>
                    <octave>4</octave>
                </pitch>
                <duration>2</duration>
                <voice>1</voice>
                <type>quarter</type>
                <stem default-y="-16">up</stem>
                <lyric default-y="-86" number="1">
                    <syllabic>single</syllabic>
                    <text font-size="9.2">I</text>
                </lyric>
            </note>
        </measure>
        <measure width="319" number="15">
            <print new-system="yes">
                <system-layout>
                    <system-distance>156</system-distance>
                </system-layout>
            </print>
            <attributes>
                <staff-details>
                    <staff-size>113</staff-size>
                </staff-details>
            </attributes>
            <harmony default-y="23">
                <root>
                    <root-step>F</root-step>
                </root>
                <kind halign="center" text="">major</kind>
            </harmony>
            <note default-x="82">
                <pitch>
                    <step>F</step>
                    <octave>4</octave>
                </pitch>
                <duration>2</duration>
                <voice>1</voice>
                <type>quarter</type>
                <stem default-y="0">up</stem>
                <lyric default-y="-90" number="1">
                    <syllabic>single</syllabic>
                    <text font-size="9.6">have</text>
                </lyric>
            </note>
            <note default-x="141">
                <rest/>
                <duration>2</duration>
                <voice>1</voice>
                <type>quarter</type>
            </note>
            <note default-x="200">
                <pitch>
                    <step>A</step>
                    <octave>4</octave>
                </pitch>
                <duration>2</duration>
                <tie type="start"/>
                <voice>1</voice>
                <type>quarter</type>
                <stem default-y="12">up</stem>
                <notations>
                    <tied type="start"/>
                </notations>
                <lyric default-y="-90" number="1">
                    <syllabic>single</syllabic>
                    <text font-size="9.6">not</text>
                </lyric>
            </note>
            <note default-x="259">
                <pitch>
                    <step>F</step>
                    <octave>4</octave>
                </pitch>
                <duration>2</duration>
                <voice>1</voice>
                <type>quarter</type>
                <stem default-y="0">up</stem>
            </note>
        </measure>
        <measure width="259" number="16">
            <print new-system="no"/>
            <harmony default-y="23">
                <root>
                    <root-step>B</root-step>
                    <root-alter>-1</root-alter>
                </root>
                <kind halign="center" text="">major</kind>
            </harmony>
            <note default-x="14">
                <pitch>
                    <step>D</step>
                    <octave>4</octave>
                </pitch>
                <duration>2</duration>
                <voice>1</voice>
                <type>quarter</type>
                <stem default-y="-11">up</stem>
                <lyric relative-x="9" default-y="-90" number="1">
                    <syllabic>single</syllabic>
                    <text font-size="9.6">bought</text>
                </lyric>
            </note>
            <note default-x="75">
                <rest/>
                <duration>2</duration>
                <voice>1</voice>
                <type>quarter</type>
            </note>
            <harmony default-y="24">
                <root>
                    <root-step>G</root-step>
                </root>
                <kind halign="center" text="m">minor</kind>
            </harmony>
            <note default-x="136">
                <pitch>
                    <step>B</step>
                    <alter>-1</alter>
                    <octave>4</octave>
                </pitch>
                <duration>2</duration>
                <tie type="start"/>
                <voice>1</voice>
                <type>quarter</type>
                <stem default-y="-62.5">down</stem>
                <notations>
                    <tied type="start"/>
                </notations>
                <lyric default-y="-90" number="1">
                    <syllabic>begin</syllabic>
                    <text font-size="9.6">my</text>
                </lyric>
            </note>
            <note default-x="197">
                <pitch>
                    <step>G</step>
                    <octave>4</octave>
                </pitch>
                <duration>2</duration>
                <voice>1</voice>
                <type>quarter</type>
                <stem default-y="6">up</stem>
            </note>
        </measure>
        <measure width="248" number="17">
            <print new-system="no"/>
            <harmony default-y="23">
                <root>
                    <root-step>C</root-step>
                </root>
                <kind halign="center" text="7">dominant</kind>
            </harmony>
            <note default-x="14">
                <pitch>
                    <step>C</step>
                    <octave>5</octave>
                </pitch>
                <duration>2</duration>
                <voice>1</voice>
                <type>quarter</type>
                <stem default-y="-57">down</stem>
                <lyric default-y="-90" number="1">
                    <syllabic>end</syllabic>
                    <text font-size="9.6">specs</text>
                </lyric>
            </note>
            <note default-x="72">
                <rest/>
                <duration>2</duration>
                <voice>1</voice>
                <type>quarter</type>
            </note>
            <note default-x="130">
                <pitch>
                    <step>C</step>
                    <octave>4</octave>
                </pitch>
                <duration>2</duration>
                <voice>1</voice>
                <type>quarter</type>
                <stem default-y="-16">up</stem>
                <lyric relative-x="4" default-y="-90" number="1">
                    <syllabic>single</syllabic>
                    <text font-size="9.6">with</text>
                </lyric>
            </note>
            <note default-x="189">
                <rest/>
                <duration>2</duration>
                <voice>1</voice>
                <type>quarter</type>
            </note>
        </measure>
        <measure width="442" number="18">
            <print new-system="no"/>
            <harmony default-y="23">
                <root>
                    <root-step>F</root-step>
                </root>
                <kind halign="center" text="">major</kind>
            </harmony>
            <note default-x="13">
                <pitch>
                    <step>F</step>
                    <octave>4</octave>
                </pitch>
                <duration>4</duration>
                <voice>1</voice>
                <type>half</type>
                <stem default-y="0">up</stem>
                <lyric default-y="-90" number="1">
                    <syllabic>single</syllabic>
                    <text font-size="9.6">me.</text>
                </lyric>
            </note>
            <note default-x="167">
                <rest/>
                <duration>2</duration>
                <voice>1</voice>
                <type>quarter</type>
            </note>
            <note default-x="277">
                <pitch>
                    <step>F</step>
                    <octave>4</octave>
                </pitch>
                <duration>1</duration>
                <voice>1</voice>
                <type>eighth</type>
                <stem default-y="0">up</stem>
                <beam number="1">begin</beam>
                <lyric default-y="-90" number="1">
                    <syllabic>single</syllabic>
                    <text font-size="9.6">2.</text>
                    <elision> </elision>
                    <syllabic>single</syllabic>
                    <text font-size="9.6">4.</text>
                    <elision> </elision>
                    <syllabic>single</syllabic>
                    <text font-size="9.6">5.</text>
                    <elision> </elision>
                    <syllabic>single</syllabic>
                    <text font-size="9.6">There</text>
                </lyric>
            </note>
            <note default-x="369">
                <pitch>
                    <step>G</step>
                    <octave>4</octave>
                </pitch>
                <duration>1</duration>
                <voice>1</voice>
                <type>eighth</type>
                <stem default-y="5.5">up</stem>
                <beam number="1">end</beam>
                <lyric default-y="-90" number="1">
                    <syllabic>single</syllabic>
                    <text font-size="9.6">were</text>
                </lyric>
            </note>
            <barline location="right">
                <bar-style>light-light</bar-style>
            </barline>
        </measure>
    </part>
</score-partwise>
