<?xml version="1.0" encoding="UTF-8"?>
<!DOCTYPE score-partwise PUBLIC "-//Recordare//DTD MusicXML 2.0 Partwise//EN" "http://www.musicxml.org/dtds/partwise.dtd">
<score-partwise version="2.0">
    <work>
        <work-number></work-number>
        <work-title></work-title>
    </work>
    <movement-number></movement-number>
    <movement-title>Could This Be Magic</movement-title>
    <identification>
        <creator type="composer">Richard Blandon</creator>
        <creator type="poet">Richard Blandon</creator>
        <rights>All Rights Reserved</rights>
        <encoding>
            <software>Notation Composer 2, 6, 3, 0</software>
            <software>ProxyMusic 2.0 c</software>
        </encoding>
        <source>http://wikifonia.org/node/17341/revisions/22984/view</source>
    </identification>
    <defaults>
        <scaling>
            <millimeters>7.24</millimeters>
            <tenths>40</tenths>
        </scaling>
        <page-layout>
            <page-height>1543</page-height>
            <page-width>1192</page-width>
            <page-margins type="both">
                <left-margin>70</left-margin>
                <right-margin>70</right-margin>
                <top-margin>70</top-margin>
                <bottom-margin>70</bottom-margin>
            </page-margins>
        </page-layout>
        <music-font font-size="10" font-family="Harmony"/>
        <word-font font-size="10" font-family="Times New Roman"/>
        <lyric-font font-size="10" font-family="Arial"/>
    </defaults>
    <credit>
        <credit-words font-weight="bold" font-size="24" font-family="Times New Roman" default-y="1495" default-x="392" valign="top">Could This Be Magic</credit-words>
    </credit>
    <part-list>
        <part-group type="start" number="1">
            <group-symbol></group-symbol>
            <group-barline></group-barline>
        </part-group>
        <score-part id="T69187536">
            <part-name>Melody</part-name>
            <part-abbreviation>Choir</part-abbreviation>
            <score-instrument id="IT69187536">
                <instrument-name>Melody</instrument-name>
            </score-instrument>
            <midi-instrument id="IT69187536">
                <midi-channel>1</midi-channel>
                <midi-bank>0</midi-bank>
                <midi-program>54</midi-program>
            </midi-instrument>
        </score-part>
        <part-group type="stop" number="1"/>
    </part-list>
    <part id="T69187536">
        <measure width="239" number="1">
            <print>
                <system-layout>
                    <system-margins>
                        <left-margin>12</left-margin>
                        <right-margin>0</right-margin>
                    </system-margins>
                    <top-system-distance>193</top-system-distance>
                </system-layout>
            </print>
            <attributes>
                <divisions>480</divisions>
                <key>
                    <fifths>0</fifths>
                </key>
                <time>
                    <beats>4</beats>
                    <beat-type>4</beat-type>
                </time>
                <clef>
                    <sign>G</sign>
                    <line>2</line>
                </clef>
                <staff-details print-object="yes"/>
            </attributes>
            <harmony default-y="14">
                <root>
                    <root-step>G</root-step>
                </root>
                <kind use-symbols="no" text=" "> </kind>
            </harmony>
            <note default-x="88">
                <rest/>
                <duration>480</duration>
                <type>quarter</type>
            </note>
            <note default-x="120" release="-7" dynamics="75">
                <pitch>
                    <step>E</step>
                    <octave>5</octave>
                </pitch>
                <duration>480</duration>
                <type>quarter</type>
                <stem default-y="-40">down</stem>
                <lyric number="1">
                    <syllabic>single</syllabic>
                    <text>Could</text>
                </lyric>
            </note>
            <harmony default-y="14">
                <root>
                    <root-step>G</root-step>
                </root>
                <kind use-symbols="no" text="7">7</kind>
            </harmony>
            <note default-x="168" release="-7" dynamics="75">
                <pitch>
                    <step>B</step>
                    <octave>4</octave>
                </pitch>
                <duration>480</duration>
                <type>quarter</type>
                <stem default-y="-50">down</stem>
                <lyric number="1">
                    <syllabic>single</syllabic>
                    <text>this</text>
                </lyric>
            </note>
            <note default-x="200" release="-7" dynamics="75">
                <pitch>
                    <step>D</step>
                    <octave>5</octave>
                </pitch>
                <duration>480</duration>
                <type>quarter</type>
                <stem default-y="-45">down</stem>
                <lyric number="1">
                    <syllabic>single</syllabic>
                    <text>be</text>
                </lyric>
            </note>
        </measure>
        <measure width="149" number="2">
            <attributes>
                <staff-details print-object="yes"/>
            </attributes>
            <harmony default-y="14">
                <root>
                    <root-step>C</root-step>
                </root>
                <kind use-symbols="no" text=" "> </kind>
            </harmony>
            <note default-x="30" release="-7" dynamics="75">
                <pitch>
                    <step>D</step>
                    <octave>5</octave>
                </pitch>
                <duration>480</duration>
                <type>quarter</type>
                <stem default-y="-45">down</stem>
                <lyric number="1">
                    <syllabic>begin</syllabic>
                    <text>ma</text>
                </lyric>
            </note>
            <note default-x="66" release="-7" dynamics="75">
                <pitch>
                    <step>C</step>
                    <octave>5</octave>
                </pitch>
                <duration>960</duration>
                <type>half</type>
                <stem default-y="-50">down</stem>
                <lyric number="1">
                    <syllabic>single</syllabic>
                    <text>gic</text>
                </lyric>
            </note>
            <note default-x="110" release="-7" dynamics="75">
                <pitch>
                    <step>D</step>
                    <octave>5</octave>
                </pitch>
                <duration>480</duration>
                <type>quarter</type>
                <stem default-y="-45">down</stem>
                <lyric number="1">
                    <syllabic>single</syllabic>
                    <text>my</text>
                </lyric>
            </note>
        </measure>
        <measure width="249" number="3">
            <attributes>
                <staff-details print-object="yes"/>
            </attributes>
            <harmony default-y="14">
                <root>
                    <root-step>C</root-step>
                </root>
                <kind use-symbols="no" text=" "> </kind>
            </harmony>
            <note default-x="34" release="-7" dynamics="75">
                <pitch>
                    <step>C</step>
                    <octave>5</octave>
                </pitch>
                <duration>480</duration>
                <type>quarter</type>
                <stem default-y="-50">down</stem>
                <lyric number="1">
                    <syllabic>single</syllabic>
                    <text>dear</text>
                </lyric>
            </note>
            <note default-x="66">
                <rest/>
                <duration>240</duration>
                <type>eighth</type>
            </note>
            <note default-x="89" release="-7" dynamics="75">
                <pitch>
                    <step>A</step>
                    <octave>4</octave>
                </pitch>
                <duration>240</duration>
                <type>eighth</type>
                <stem default-y="10">up</stem>
                <lyric number="1">
                    <syllabic>single</syllabic>
                    <text>my</text>
                </lyric>
            </note>
            <note default-x="138" release="-7" dynamics="75">
                <pitch>
                    <step>C</step>
                    <octave>5</octave>
                </pitch>
                <duration>240</duration>
                <type>eighth</type>
                <stem default-y="-50">down</stem>
                <beam number="1">begin</beam>
                <lyric number="1">
                    <syllabic>single</syllabic>
                    <text>heart's</text>
                </lyric>
            </note>
            <note default-x="185" release="-7" dynamics="75">
                <pitch>
                    <step>A</step>
                    <octave>4</octave>
                </pitch>
                <duration>240</duration>
                <type>eighth</type>
                <stem default-y="-60">down</stem>
                <beam number="1">continue</beam>
                <lyric number="1">
                    <syllabic>single</syllabic>
                    <text>all</text>
                </lyric>
            </note>
            <note default-x="210" release="-7" dynamics="75">
                <pitch>
                    <step>G</step>
                    <octave>4</octave>
                </pitch>
                <duration>480</duration>
                <type>quarter</type>
                <stem default-y="5">up</stem>
                <lyric number="1">
                    <syllabic>single</syllabic>
                    <text>a-</text>
                </lyric>
            </note>
        </measure>
        <measure width="119" number="4">
            <attributes>
                <staff-details print-object="yes"/>
            </attributes>
            <harmony default-y="14">
                <root>
                    <root-step>E</root-step>
                </root>
                <kind use-symbols="no" text="min">min</kind>
            </harmony>
            <note default-x="45" release="-7" dynamics="75">
                <pitch>
                    <step>B</step>
                    <octave>4</octave>
                </pitch>
                <duration>1920</duration>
                <type>whole</type>
                <lyric number="1">
                    <syllabic>single</syllabic>
                    <text>glow.</text>
                </lyric>
            </note>
        </measure>
        <measure width="180" number="5">
            <attributes>
                <staff-details print-object="yes"/>
            </attributes>
            <harmony default-y="14">
                <root>
                    <root-step>A</root-step>
                </root>
                <kind use-symbols="no" text=" "> </kind>
            </harmony>
            <note default-x="29">
                <rest/>
                <duration>480</duration>
                <type>quarter</type>
            </note>
            <note default-x="62" release="-7" dynamics="75">
                <pitch>
                    <step>F</step>
                    <octave>5</octave>
                </pitch>
                <duration>480</duration>
                <type>quarter</type>
                <stem default-y="-35">down</stem>
                <lyric number="1">
                    <syllabic>single</syllabic>
                    <text>Could</text>
                </lyric>
            </note>
            <note default-x="109" release="-7" dynamics="75">
                <pitch>
                    <step>C</step>
                    <alter>1</alter>
                    <octave>5</octave>
                </pitch>
                <duration>480</duration>
                <type>quarter</type>
                <accidental>sharp</accidental>
                <stem default-y="-50">down</stem>
                <lyric number="1">
                    <syllabic>single</syllabic>
                    <text>this</text>
                </lyric>
            </note>
            <note default-x="142" release="-7" dynamics="75">
                <pitch>
                    <step>E</step>
                    <octave>5</octave>
                </pitch>
                <duration>480</duration>
                <type>quarter</type>
                <stem default-y="-40">down</stem>
                <lyric number="1">
                    <syllabic>single</syllabic>
                    <text>be</text>
                </lyric>
            </note>
        </measure>
        <measure width="133" number="6">
            <attributes>
                <staff-details print-object="yes"/>
            </attributes>
            <harmony default-y="14">
                <root>
                    <root-step>D</root-step>
                </root>
                <kind use-symbols="no" text="7">7</kind>
            </harmony>
            <note default-x="35" release="-7" dynamics="75">
                <pitch>
                    <step>E</step>
                    <octave>5</octave>
                </pitch>
                <duration>480</duration>
                <type>quarter</type>
                <stem default-y="-40">down</stem>
                <lyric number="1">
                    <syllabic>begin</syllabic>
                    <text>ma</text>
                </lyric>
            </note>
            <note default-x="71" release="-7" dynamics="75">
                <pitch>
                    <step>D</step>
                    <octave>5</octave>
                </pitch>
                <duration>1440</duration>
                <type>half</type>
                <dot/>
                <stem default-y="-45">down</stem>
                <lyric number="1">
                    <syllabic>single</syllabic>
                    <text>gic</text>
                </lyric>
            </note>
        </measure>
        <measure width="226" number="7">
            <print new-system="yes">
                <system-layout>
                    <system-margins>
                        <left-margin>12</left-margin>
                        <right-margin>0</right-margin>
                    </system-margins>
                    <system-distance>148</system-distance>
                </system-layout>
            </print>
            <attributes>
                <staff-details print-object="yes"/>
            </attributes>
            <harmony default-y="14">
                <root>
                    <root-step>F</root-step>
                </root>
                <kind use-symbols="no" text=" "> </kind>
            </harmony>
            <note default-x="74">
                <rest/>
                <duration>480</duration>
                <type>quarter</type>
            </note>
            <note default-x="106" release="-7" dynamics="75">
                <pitch>
                    <step>C</step>
                    <octave>5</octave>
                </pitch>
                <duration>480</duration>
                <type>quarter</type>
                <stem default-y="-50">down</stem>
                <lyric number="1">
                    <syllabic>begin</syllabic>
                    <text>lo</text>
                </lyric>
            </note>
            <harmony default-y="14">
                <root>
                    <root-step>G</root-step>
                </root>
                <kind use-symbols="no" text="7">7</kind>
            </harmony>
            <note default-x="142" release="-7" dynamics="75">
                <pitch>
                    <step>B</step>
                    <octave>4</octave>
                </pitch>
                <duration>480</duration>
                <tie type="start"/>
                <type>quarter</type>
                <stem default-y="-50">down</stem>
                <notations>
                    <tied orientation="over" type="start"/>
                </notations>
                <lyric number="1">
                    <syllabic>single</syllabic>
                    <text>ving</text>
                </lyric>
            </note>
            <note default-x="174">
                <pitch>
                    <step>B</step>
                    <octave>4</octave>
                </pitch>
                <duration>240</duration>
                <tie type="stop"/>
                <type>eighth</type>
                <stem default-y="-55">down</stem>
                <beam number="1">begin</beam>
                <notations>
                    <tied type="stop"/>
                </notations>
            </note>
            <note default-x="197" release="-7" dynamics="75">
                <pitch>
                    <step>C</step>
                    <octave>5</octave>
                </pitch>
                <duration>240</duration>
                <type>eighth</type>
                <stem default-y="-50">down</stem>
                <beam number="1">continue</beam>
                <lyric number="1">
                    <syllabic>single</syllabic>
                    <text>you</text>
                </lyric>
            </note>
        </measure>
        <measure width="141" number="8">
            <attributes>
                <staff-details print-object="yes"/>
            </attributes>
            <harmony default-y="14">
                <root>
                    <root-step>C</root-step>
                </root>
                <kind use-symbols="no" text=" "> </kind>
            </harmony>
            <note default-x="29" release="-7" dynamics="75">
                <pitch>
                    <step>C</step>
                    <octave>5</octave>
                </pitch>
                <duration>240</duration>
                <type>eighth</type>
                <stem default-y="-50">down</stem>
                <beam number="1">begin</beam>
                <lyric number="1">
                    <syllabic>begin</syllabic>
                    <text>so</text>
                </lyric>
            </note>
            <note default-x="56" release="-7" dynamics="75">
                <pitch>
                    <step>A</step>
                    <octave>4</octave>
                </pitch>
                <duration>240</duration>
                <type>eighth</type>
                <stem default-y="-60">down</stem>
                <beam number="1">continue</beam>
                <lyric number="1">
                    <syllabic>single</syllabic>
                    <text>o-</text>
                </lyric>
            </note>
            <note default-x="79" release="-7" dynamics="75">
                <pitch>
                    <step>G</step>
                    <octave>4</octave>
                </pitch>
                <duration>1440</duration>
                <type>half</type>
                <dot/>
                <stem default-y="5">up</stem>
                <lyric number="1">
                    <syllabic>single</syllabic>
                    <text>o.</text>
                </lyric>
            </note>
        </measure>
        <measure width="180" number="9">
            <attributes>
                <staff-details print-object="yes"/>
            </attributes>
            <harmony default-y="14">
                <root>
                    <root-step>G</root-step>
                </root>
                <kind use-symbols="no" text=" "> </kind>
            </harmony>
            <note default-x="30">
                <rest/>
                <duration>480</duration>
                <type>quarter</type>
            </note>
            <note default-x="62" release="-7" dynamics="75">
                <pitch>
                    <step>E</step>
                    <octave>5</octave>
                </pitch>
                <duration>480</duration>
                <type>quarter</type>
                <stem default-y="-40">down</stem>
                <lyric number="1">
                    <syllabic>single</syllabic>
                    <text>Could</text>
                </lyric>
            </note>
            <harmony default-y="14">
                <root>
                    <root-step>G</root-step>
                </root>
                <kind use-symbols="no" text="7">7</kind>
            </harmony>
            <note default-x="110" release="-7" dynamics="75">
                <pitch>
                    <step>B</step>
                    <octave>4</octave>
                </pitch>
                <duration>480</duration>
                <type>quarter</type>
                <stem default-y="-50">down</stem>
                <lyric number="1">
                    <syllabic>single</syllabic>
                    <text>this</text>
                </lyric>
            </note>
            <note default-x="142" release="-7" dynamics="75">
                <pitch>
                    <step>D</step>
                    <octave>5</octave>
                </pitch>
                <duration>480</duration>
                <type>quarter</type>
                <stem default-y="-45">down</stem>
                <lyric number="1">
                    <syllabic>single</syllabic>
                    <text>be</text>
                </lyric>
            </note>
        </measure>
        <measure width="158" number="10">
            <attributes>
                <staff-details print-object="yes"/>
            </attributes>
            <harmony default-y="14">
                <root>
                    <root-step>C</root-step>
                </root>
                <kind use-symbols="no" text=" "> </kind>
            </harmony>
            <note default-x="40" release="-7" dynamics="75">
                <pitch>
                    <step>D</step>
                    <octave>5</octave>
                </pitch>
                <duration>480</duration>
                <type>quarter</type>
                <stem default-y="-45">down</stem>
                <lyric number="1">
                    <syllabic>begin</syllabic>
                    <text>ma</text>
                </lyric>
            </note>
            <note default-x="76" release="-7" dynamics="75">
                <pitch>
                    <step>C</step>
                    <octave>5</octave>
                </pitch>
                <duration>960</duration>
                <type>half</type>
                <stem default-y="-50">down</stem>
                <lyric number="1">
                    <syllabic>single</syllabic>
                    <text>gic</text>
                </lyric>
            </note>
            <note default-x="120" release="-7" dynamics="75">
                <pitch>
                    <step>D</step>
                    <octave>5</octave>
                </pitch>
                <duration>480</duration>
                <type>quarter</type>
                <stem default-y="-45">down</stem>
                <lyric number="1">
                    <syllabic>single</syllabic>
                    <text>my</text>
                </lyric>
            </note>
        </measure>
        <measure width="244" number="11">
            <attributes>
                <staff-details print-object="yes"/>
            </attributes>
            <harmony default-y="14">
                <root>
                    <root-step>C</root-step>
                </root>
                <kind use-symbols="no" text=" "> </kind>
            </harmony>
            <note default-x="34" release="-7" dynamics="75">
                <pitch>
                    <step>C</step>
                    <octave>5</octave>
                </pitch>
                <duration>480</duration>
                <type>quarter</type>
                <stem default-y="-50">down</stem>
                <lyric number="1">
                    <syllabic>single</syllabic>
                    <text>dear</text>
                </lyric>
            </note>
            <note default-x="66">
                <rest/>
                <duration>240</duration>
                <type>eighth</type>
            </note>
            <note default-x="89" release="-7" dynamics="75">
                <pitch>
                    <step>A</step>
                    <octave>4</octave>
                </pitch>
                <duration>240</duration>
                <type>eighth</type>
                <stem default-y="10">up</stem>
                <lyric number="1">
                    <syllabic>begin</syllabic>
                    <text>ha</text>
                </lyric>
            </note>
            <note default-x="128" release="-7" dynamics="75">
                <pitch>
                    <step>C</step>
                    <octave>5</octave>
                </pitch>
                <duration>240</duration>
                <type>eighth</type>
                <stem default-y="-50">down</stem>
                <beam number="1">begin</beam>
                <lyric number="1">
                    <syllabic>single</syllabic>
                    <text>ving</text>
                </lyric>
            </note>
            <note default-x="172" release="-7" dynamics="75">
                <pitch>
                    <step>A</step>
                    <octave>4</octave>
                </pitch>
                <duration>240</duration>
                <type>eighth</type>
                <stem default-y="-60">down</stem>
                <beam number="1">continue</beam>
                <lyric number="1">
                    <syllabic>begin</syllabic>
                    <text>you</text>
                </lyric>
            </note>
            <note default-x="206" release="-7" dynamics="75">
                <pitch>
                    <step>G</step>
                    <octave>4</octave>
                </pitch>
                <duration>480</duration>
                <type>quarter</type>
                <stem default-y="5">up</stem>
                <lyric number="1">
                    <syllabic>single</syllabic>
                    <text>re</text>
                </lyric>
            </note>
        </measure>
        <measure width="119" number="12">
            <attributes>
                <staff-details print-object="yes"/>
            </attributes>
            <harmony default-y="14">
                <root>
                    <root-step>E</root-step>
                </root>
                <kind use-symbols="no" text="min">min</kind>
            </harmony>
            <note default-x="45" release="-7" dynamics="75">
                <pitch>
                    <step>B</step>
                    <octave>4</octave>
                </pitch>
                <duration>1920</duration>
                <type>whole</type>
                <lyric number="1">
                    <syllabic>single</syllabic>
                    <text>love.</text>
                </lyric>
            </note>
        </measure>
        <measure width="267" number="13">
            <print new-system="yes">
                <system-layout>
                    <system-margins>
                        <left-margin>12</left-margin>
                        <right-margin>0</right-margin>
                    </system-margins>
                    <system-distance>148</system-distance>
                </system-layout>
            </print>
            <attributes>
                <staff-details print-object="yes"/>
            </attributes>
            <harmony default-y="14">
                <root>
                    <root-step>A</root-step>
                </root>
                <kind use-symbols="no" text=" "> </kind>
            </harmony>
            <note default-x="76">
                <rest/>
                <duration>480</duration>
                <type>quarter</type>
            </note>
            <note default-x="110" release="-7" dynamics="75">
                <pitch>
                    <step>F</step>
                    <octave>5</octave>
                </pitch>
                <duration>480</duration>
                <type>quarter</type>
                <stem default-y="-35">down</stem>
                <lyric number="1">
                    <syllabic>single</syllabic>
                    <text>My</text>
                </lyric>
            </note>
            <note default-x="163" release="-7" dynamics="75">
                <pitch>
                    <step>C</step>
                    <alter>1</alter>
                    <octave>5</octave>
                </pitch>
                <duration>480</duration>
                <type>quarter</type>
                <accidental>sharp</accidental>
                <stem default-y="-50">down</stem>
                <lyric number="1">
                    <syllabic>single</syllabic>
                    <text>prayers</text>
                </lyric>
            </note>
            <note default-x="226" release="-7" dynamics="75">
                <pitch>
                    <step>E</step>
                    <octave>5</octave>
                </pitch>
                <duration>480</duration>
                <type>quarter</type>
                <stem default-y="-40">down</stem>
                <lyric number="1">
                    <syllabic>single</syllabic>
                    <text>were</text>
                </lyric>
            </note>
        </measure>
        <measure width="154" number="14">
            <attributes>
                <staff-details print-object="yes"/>
            </attributes>
            <harmony default-y="14">
                <root>
                    <root-step>D</root-step>
                </root>
                <kind use-symbols="no" text="7">7</kind>
            </harmony>
            <note default-x="35" release="-7" dynamics="75">
                <pitch>
                    <step>E</step>
                    <octave>5</octave>
                </pitch>
                <duration>480</duration>
                <type>quarter</type>
                <stem default-y="-40">down</stem>
                <lyric number="1">
                    <syllabic>begin</syllabic>
                    <text>an</text>
                </lyric>
            </note>
            <note default-x="88" release="-7" dynamics="75">
                <pitch>
                    <step>D</step>
                    <octave>5</octave>
                </pitch>
                <duration>1440</duration>
                <type>half</type>
                <dot/>
                <stem default-y="-45">down</stem>
                <lyric number="1">
                    <syllabic>single</syllabic>
                    <text>swered</text>
                </lyric>
            </note>
        </measure>
        <measure width="218" number="15">
            <attributes>
                <staff-details print-object="yes"/>
            </attributes>
            <harmony default-y="14">
                <root>
                    <root-step>F</root-step>
                </root>
                <kind use-symbols="no" text=" "> </kind>
            </harmony>
            <note default-x="29">
                <rest/>
                <duration>480</duration>
                <type>quarter</type>
            </note>
            <note default-x="63" release="-7" dynamics="75">
                <pitch>
                    <step>C</step>
                    <octave>5</octave>
                </pitch>
                <duration>480</duration>
                <type>quarter</type>
                <stem default-y="-50">down</stem>
                <lyric number="1">
                    <syllabic>single</syllabic>
                    <text>so</text>
                </lyric>
            </note>
            <harmony default-y="14">
                <root>
                    <root-step>G</root-step>
                </root>
                <kind use-symbols="no" text="7">7</kind>
            </harmony>
            <note default-x="98" release="-7" dynamics="75">
                <pitch>
                    <step>B</step>
                    <octave>4</octave>
                </pitch>
                <duration>480</duration>
                <tie type="start"/>
                <type>quarter</type>
                <stem default-y="-50">down</stem>
                <notations>
                    <tied orientation="over" type="start"/>
                </notations>
                <lyric number="1">
                    <syllabic>single</syllabic>
                    <text>far</text>
                </lyric>
            </note>
            <note default-x="132">
                <pitch>
                    <step>B</step>
                    <octave>4</octave>
                </pitch>
                <duration>240</duration>
                <tie type="stop"/>
                <type>eighth</type>
                <stem default-y="-55">down</stem>
                <beam number="1">begin</beam>
                <notations>
                    <tied type="stop"/>
                </notations>
            </note>
            <note default-x="157" release="-7" dynamics="75">
                <pitch>
                    <step>C</step>
                    <octave>5</octave>
                </pitch>
                <duration>120</duration>
                <type>16th</type>
                <stem default-y="-50">down</stem>
                <beam number="1">continue</beam>
                <beam number="2">begin</beam>
                <lyric number="1">
                    <syllabic>single</syllabic>
                    <text>from</text>
                </lyric>
            </note>
            <note default-x="192" release="-7" dynamics="75">
                <pitch>
                    <step>D</step>
                    <octave>5</octave>
                </pitch>
                <duration>120</duration>
                <type>16th</type>
                <stem default-y="-45">down</stem>
                <beam number="1">end</beam>
                <beam number="2">continue</beam>
                <lyric number="1">
                    <syllabic>single</syllabic>
                    <text>a-</text>
                </lyric>
            </note>
        </measure>
        <measure width="152" number="16">
            <attributes>
                <staff-details print-object="yes"/>
            </attributes>
            <harmony default-y="14">
                <root>
                    <root-step>C</root-step>
                </root>
                <kind use-symbols="no" text=" "> </kind>
            </harmony>
            <note default-x="30" release="-7" dynamics="75">
                <pitch>
                    <step>E</step>
                    <octave>5</octave>
                </pitch>
                <duration>240</duration>
                <type>eighth</type>
                <stem default-y="-40">down</stem>
                <beam number="1">begin</beam>
                <lyric number="1">
                    <syllabic>begin</syllabic>
                    <text>bo</text>
                </lyric>
            </note>
            <note default-x="59" release="-7" dynamics="75">
                <pitch>
                    <step>D</step>
                    <octave>5</octave>
                </pitch>
                <duration>240</duration>
                <type>eighth</type>
                <stem default-y="-45">down</stem>
                <beam number="1">continue</beam>
                <lyric number="1">
                    <syllabic>single</syllabic>
                    <text>o-</text>
                </lyric>
            </note>
            <note default-x="86" release="-7" dynamics="75">
                <pitch>
                    <step>C</step>
                    <octave>5</octave>
                </pitch>
                <duration>1440</duration>
                <type>half</type>
                <dot/>
                <stem default-y="-50">down</stem>
                <lyric number="1">
                    <syllabic>single</syllabic>
                    <text>ve.</text>
                </lyric>
            </note>
        </measure>
        <measure width="280" number="17">
            <attributes>
                <staff-details print-object="yes"/>
            </attributes>
            <harmony default-y="14">
                <root>
                    <root-step>C</root-step>
                </root>
                <kind use-symbols="no" text="7">7</kind>
            </harmony>
            <note default-x="35">
                <rest/>
                <duration>480</duration>
                <type>quarter</type>
            </note>
            <note default-x="69" release="-7" dynamics="75">
                <pitch>
                    <step>C</step>
                    <octave>5</octave>
                </pitch>
                <duration>480</duration>
                <type>quarter</type>
                <stem default-y="-50">down</stem>
                <lyric number="1">
                    <syllabic>single</syllabic>
                    <text>I</text>
                </lyric>
            </note>
            <note default-x="113" release="-7" dynamics="75">
                <pitch>
                    <step>D</step>
                    <octave>5</octave>
                </pitch>
                <duration>240</duration>
                <type>eighth</type>
                <stem default-y="-45">down</stem>
                <beam number="1">begin</beam>
                <lyric number="1">
                    <syllabic>single</syllabic>
                    <text>thought</text>
                </lyric>
            </note>
            <note default-x="170" release="-7" dynamics="75">
                <pitch>
                    <step>C</step>
                    <octave>5</octave>
                </pitch>
                <duration>240</duration>
                <type>eighth</type>
                <stem default-y="-50">down</stem>
                <beam number="1">continue</beam>
                <lyric number="1">
                    <syllabic>single</syllabic>
                    <text>that</text>
                </lyric>
            </note>
            <note default-x="199" release="-7" dynamics="75">
                <pitch>
                    <step>D</step>
                    <octave>5</octave>
                </pitch>
                <duration>240</duration>
                <type>eighth</type>
                <stem default-y="-45">down</stem>
                <beam number="1">begin</beam>
                <lyric number="1">
                    <syllabic>single</syllabic>
                    <text>it</text>
                </lyric>
            </note>
            <note default-x="239" release="-7" dynamics="75">
                <pitch>
                    <step>C</step>
                    <octave>5</octave>
                </pitch>
                <duration>240</duration>
                <type>eighth</type>
                <stem default-y="-50">down</stem>
                <beam number="1">continue</beam>
                <lyric number="1">
                    <syllabic>single</syllabic>
                    <text>would</text>
                </lyric>
            </note>
        </measure>
        <measure width="258" number="18">
            <print new-system="yes">
                <system-layout>
                    <system-margins>
                        <left-margin>12</left-margin>
                        <right-margin>0</right-margin>
                    </system-margins>
                    <system-distance>145</system-distance>
                </system-layout>
            </print>
            <attributes>
                <staff-details print-object="yes"/>
            </attributes>
            <harmony default-y="15">
                <root>
                    <root-step>F</root-step>
                </root>
                <kind use-symbols="no" text=" "> </kind>
            </harmony>
            <note default-x="88" release="-7" dynamics="75">
                <pitch>
                    <step>F</step>
                    <octave>5</octave>
                </pitch>
                <duration>960</duration>
                <type>half</type>
                <stem default-y="-35">down</stem>
                <lyric number="1">
                    <syllabic>single</syllabic>
                    <text>be</text>
                </lyric>
            </note>
            <note default-x="133" release="-7" dynamics="75">
                <pitch>
                    <step>F</step>
                    <octave>5</octave>
                </pitch>
                <duration>240</duration>
                <type>eighth</type>
                <stem default-y="-35">down</stem>
                <beam number="1">begin</beam>
                <lyric number="1">
                    <syllabic>single</syllabic>
                    <text>just</text>
                </lyric>
            </note>
            <note default-x="160" release="-7" dynamics="75">
                <pitch>
                    <step>C</step>
                    <octave>5</octave>
                </pitch>
                <duration>240</duration>
                <type>eighth</type>
                <stem default-y="-50">down</stem>
                <beam number="1">continue</beam>
                <lyric number="1">
                    <syllabic>single</syllabic>
                    <text>a</text>
                </lyric>
            </note>
            <note default-x="188" release="-7" dynamics="75">
                <pitch>
                    <step>D</step>
                    <octave>5</octave>
                </pitch>
                <duration>240</duration>
                <type>eighth</type>
                <stem default-y="-45">down</stem>
                <beam number="1">begin</beam>
                <lyric number="1">
                    <syllabic>begin</syllabic>
                    <text>me</text>
                </lyric>
            </note>
            <note default-x="228" release="-7" dynamics="75">
                <pitch>
                    <step>C</step>
                    <octave>5</octave>
                </pitch>
                <duration>240</duration>
                <type>eighth</type>
                <stem default-y="-50">down</stem>
                <beam number="1">continue</beam>
                <lyric number="1">
                    <syllabic>begin</syllabic>
                    <text>mo</text>
                </lyric>
            </note>
        </measure>
        <measure width="190" number="19">
            <attributes>
                <staff-details print-object="yes"/>
            </attributes>
            <harmony default-y="15">
                <root>
                    <root-step>F</root-step>
                </root>
                <kind use-symbols="no" text=" "> </kind>
            </harmony>
            <note default-x="29" release="-7" dynamics="75">
                <pitch>
                    <step>F</step>
                    <octave>5</octave>
                </pitch>
                <duration>960</duration>
                <type>half</type>
                <stem default-y="-35">down</stem>
                <lyric number="1">
                    <syllabic>single</syllabic>
                    <text>ry</text>
                </lyric>
            </note>
            <note default-x="74">
                <rest/>
                <duration>240</duration>
                <type>eighth</type>
            </note>
            <note default-x="97" release="-7" dynamics="75">
                <pitch>
                    <step>C</step>
                    <octave>5</octave>
                </pitch>
                <duration>240</duration>
                <type>eighth</type>
                <stem default-y="-50">down</stem>
                <lyric number="1">
                    <syllabic>single</syllabic>
                    <text>to</text>
                </lyric>
            </note>
            <note default-x="126" release="-7" dynamics="75">
                <pitch>
                    <step>D</step>
                    <octave>5</octave>
                </pitch>
                <duration>240</duration>
                <type>eighth</type>
                <stem default-y="-45">down</stem>
                <beam number="1">begin</beam>
                <lyric number="1">
                    <syllabic>begin</syllabic>
                    <text>lin</text>
                </lyric>
            </note>
            <note default-x="161" release="-7" dynamics="75">
                <pitch>
                    <step>C</step>
                    <octave>5</octave>
                </pitch>
                <duration>240</duration>
                <type>eighth</type>
                <stem default-y="-50">down</stem>
                <beam number="1">continue</beam>
                <lyric number="1">
                    <syllabic>single</syllabic>
                    <text>ger</text>
                </lyric>
            </note>
        </measure>
        <measure width="231" number="20">
            <attributes>
                <staff-details print-object="yes"/>
            </attributes>
            <harmony default-y="15">
                <root>
                    <root-step>C</root-step>
                </root>
                <kind use-symbols="no" text=" "> </kind>
            </harmony>
            <note default-x="30" release="-7" dynamics="75">
                <pitch>
                    <step>E</step>
                    <octave>5</octave>
                </pitch>
                <duration>240</duration>
                <type>eighth</type>
                <stem default-y="-40">down</stem>
                <beam number="1">begin</beam>
                <lyric number="1">
                    <syllabic>single</syllabic>
                    <text>in</text>
                </lyric>
            </note>
            <note default-x="60" release="-7" dynamics="75">
                <pitch>
                    <step>E</step>
                    <octave>5</octave>
                </pitch>
                <duration>240</duration>
                <tie type="start"/>
                <type>eighth</type>
                <stem default-y="-40">down</stem>
                <beam number="1">continue</beam>
                <notations>
                    <tied orientation="over" type="start"/>
                </notations>
                <lyric number="1">
                    <syllabic>begin</syllabic>
                    <text>my</text>
                </lyric>
            </note>
            <note default-x="86">
                <pitch>
                    <step>E</step>
                    <octave>5</octave>
                </pitch>
                <duration>240</duration>
                <tie type="stop"/>
                <type>eighth</type>
                <stem default-y="-40">down</stem>
                <beam number="1">begin</beam>
                <notations>
                    <tied type="stop"/>
                </notations>
            </note>
            <note default-x="110" release="-7" dynamics="75">
                <pitch>
                    <step>C</step>
                    <octave>5</octave>
                </pitch>
                <duration>240</duration>
                <type>eighth</type>
                <stem default-y="-50">down</stem>
                <beam number="1">continue</beam>
                <lyric number="1">
                    <syllabic>single</syllabic>
                    <text>y</text>
                </lyric>
            </note>
            <note default-x="144" release="-7" dynamics="75">
                <pitch>
                    <step>E</step>
                    <octave>5</octave>
                </pitch>
                <duration>480</duration>
                <type>quarter</type>
                <stem default-y="-40">down</stem>
                <lyric number="1">
                    <syllabic>single</syllabic>
                    <text>heart</text>
                </lyric>
            </note>
            <note default-x="192" release="-7" dynamics="75">
                <pitch>
                    <step>D</step>
                    <octave>5</octave>
                </pitch>
                <duration>480</duration>
                <type>quarter</type>
                <stem default-y="-45">down</stem>
                <lyric number="1">
                    <syllabic>single</syllabic>
                    <text>with</text>
                </lyric>
            </note>
        </measure>
        <measure width="153" number="21">
            <attributes>
                <staff-details print-object="yes"/>
            </attributes>
            <harmony default-y="15">
                <root>
                    <root-step>C</root-step>
                </root>
                <kind use-symbols="no" text="7">7</kind>
            </harmony>
            <note default-x="36" release="-7" dynamics="75">
                <pitch>
                    <step>C</step>
                    <octave>5</octave>
                </pitch>
                <duration>960</duration>
                <type>half</type>
                <stem default-y="-50">down</stem>
                <lyric number="1">
                    <syllabic>single</syllabic>
                    <text>pain.</text>
                </lyric>
            </note>
            <note default-x="81">
                <rest/>
                <duration>480</duration>
                <type>quarter</type>
            </note>
            <note default-x="114" release="-7" dynamics="75">
                <pitch>
                    <step>C</step>
                    <octave>5</octave>
                </pitch>
                <duration>480</duration>
                <type>quarter</type>
                <stem default-y="-50">down</stem>
                <lyric number="1">
                    <syllabic>single</syllabic>
                    <text>But</text>
                </lyric>
            </note>
        </measure>
        <measure width="237" number="22">
            <attributes>
                <staff-details print-object="yes"/>
            </attributes>
            <harmony default-y="15">
                <root>
                    <root-step>F</root-step>
                </root>
                <kind use-symbols="no" text=" "> </kind>
            </harmony>
            <note default-x="29" release="-7" dynamics="75">
                <pitch>
                    <step>F</step>
                    <octave>5</octave>
                </pitch>
                <duration>240</duration>
                <type>eighth</type>
                <stem default-y="-35">down</stem>
                <beam number="1">begin</beam>
                <lyric number="1">
                    <syllabic>single</syllabic>
                    <text>to</text>
                </lyric>
            </note>
            <note default-x="56" release="-7" dynamics="75">
                <pitch>
                    <step>F</step>
                    <octave>5</octave>
                </pitch>
                <duration>240</duration>
                <tie type="start"/>
                <type>eighth</type>
                <stem default-y="-35">down</stem>
                <beam number="1">continue</beam>
                <notations>
                    <tied orientation="over" type="start"/>
                </notations>
                <lyric number="1">
                    <syllabic>single</syllabic>
                    <text>my</text>
                </lyric>
            </note>
            <note default-x="82">
                <pitch>
                    <step>F</step>
                    <octave>5</octave>
                </pitch>
                <duration>240</duration>
                <tie type="stop"/>
                <type>eighth</type>
                <stem default-y="-35">down</stem>
                <beam number="1">begin</beam>
                <notations>
                    <tied type="stop"/>
                </notations>
            </note>
            <note default-x="106" release="-7" dynamics="75">
                <pitch>
                    <step>C</step>
                    <octave>5</octave>
                </pitch>
                <duration>240</duration>
                <type>eighth</type>
                <stem default-y="-50">down</stem>
                <beam number="1">continue</beam>
                <lyric number="1">
                    <syllabic>begin</syllabic>
                    <text>sur</text>
                </lyric>
            </note>
            <note default-x="150" release="-7" dynamics="75">
                <pitch>
                    <step>F</step>
                    <octave>5</octave>
                </pitch>
                <duration>480</duration>
                <tie type="start"/>
                <type>quarter</type>
                <stem default-y="-35">down</stem>
                <notations>
                    <tied orientation="over" type="start"/>
                </notations>
                <lyric number="1">
                    <syllabic>single</syllabic>
                    <text>prise</text>
                </lyric>
            </note>
            <note default-x="183">
                <pitch>
                    <step>F</step>
                    <octave>5</octave>
                </pitch>
                <duration>240</duration>
                <tie type="stop"/>
                <type>eighth</type>
                <stem default-y="-35">down</stem>
                <beam number="1">begin</beam>
                <notations>
                    <tied type="stop"/>
                </notations>
            </note>
            <note default-x="207" release="-7" dynamics="75">
                <pitch>
                    <step>C</step>
                    <octave>5</octave>
                </pitch>
                <duration>240</duration>
                <type>eighth</type>
                <stem default-y="-50">down</stem>
                <beam number="1">continue</beam>
                <lyric number="1">
                    <syllabic>single</syllabic>
                    <text>I</text>
                </lyric>
            </note>
        </measure>
        <measure width="368" number="23">
            <print new-system="yes">
                <system-layout>
                    <system-margins>
                        <left-margin>12</left-margin>
                        <right-margin>0</right-margin>
                    </system-margins>
                    <system-distance>143</system-distance>
                </system-layout>
            </print>
            <attributes>
                <staff-details print-object="yes"/>
            </attributes>
            <harmony default-y="15">
                <root>
                    <root-step>F</root-step>
                </root>
                <kind use-symbols="no" text=" "> </kind>
            </harmony>
            <note default-x="77" release="-7" dynamics="75">
                <pitch>
                    <step>F</step>
                    <octave>5</octave>
                </pitch>
                <duration>240</duration>
                <type>eighth</type>
                <stem default-y="-35">down</stem>
                <beam number="1">begin</beam>
                <lyric number="1">
                    <syllabic>single</syllabic>
                    <text>o-</text>
                </lyric>
            </note>
            <note default-x="121" release="-7" dynamics="75">
                <pitch>
                    <step>F</step>
                    <octave>5</octave>
                </pitch>
                <duration>240</duration>
                <type>eighth</type>
                <stem default-y="-35">down</stem>
                <beam number="1">continue</beam>
                <lyric number="1">
                    <syllabic>single</syllabic>
                    <text>pened</text>
                </lyric>
            </note>
            <note default-x="168" release="-7" dynamics="75">
                <pitch>
                    <step>F</step>
                    <octave>5</octave>
                </pitch>
                <duration>240</duration>
                <type>eighth</type>
                <stem default-y="-35">down</stem>
                <beam number="1">begin</beam>
                <lyric number="1">
                    <syllabic>single</syllabic>
                    <text>up</text>
                </lyric>
            </note>
            <note default-x="199" release="-7" dynamics="75">
                <pitch>
                    <step>C</step>
                    <octave>5</octave>
                </pitch>
                <duration>240</duration>
                <type>eighth</type>
                <stem default-y="-50">down</stem>
                <beam number="1">continue</beam>
                <lyric number="1">
                    <syllabic>single</syllabic>
                    <text>my</text>
                </lyric>
            </note>
            <note default-x="240" release="-7" dynamics="75">
                <pitch>
                    <step>F</step>
                    <octave>5</octave>
                </pitch>
                <duration>480</duration>
                <tie type="start"/>
                <type>quarter</type>
                <stem default-y="-35">down</stem>
                <notations>
                    <tied orientation="over" type="start"/>
                </notations>
                <lyric number="1">
                    <syllabic>single</syllabic>
                    <text>eyes</text>
                </lyric>
            </note>
            <note default-x="277">
                <pitch>
                    <step>F</step>
                    <octave>5</octave>
                </pitch>
                <duration>240</duration>
                <tie type="stop"/>
                <type>eighth</type>
                <stem default-y="-35">down</stem>
                <beam number="1">begin</beam>
                <notations>
                    <tied type="stop"/>
                </notations>
            </note>
            <note default-x="303" release="-7" dynamics="75">
                <pitch>
                    <step>C</step>
                    <octave>5</octave>
                </pitch>
                <duration>120</duration>
                <type>16th</type>
                <stem default-y="-50">down</stem>
                <beam number="1">continue</beam>
                <beam number="2">begin</beam>
                <lyric number="1">
                    <syllabic>single</syllabic>
                    <text>and</text>
                </lyric>
            </note>
            <note default-x="340" release="-7" dynamics="75">
                <pitch>
                    <step>D</step>
                    <octave>5</octave>
                </pitch>
                <duration>120</duration>
                <type>16th</type>
                <stem default-y="-45">down</stem>
                <beam number="1">end</beam>
                <beam number="2">continue</beam>
                <lyric number="1">
                    <syllabic>single</syllabic>
                    <text>I'm</text>
                </lyric>
            </note>
        </measure>
        <measure width="313" number="24">
            <attributes>
                <staff-details print-object="yes"/>
            </attributes>
            <harmony default-y="15">
                <root>
                    <root-step>D</root-step>
                </root>
                <kind use-symbols="no" text="7">7</kind>
            </harmony>
            <note default-x="36" release="-7" dynamics="75">
                <pitch>
                    <step>E</step>
                    <octave>5</octave>
                </pitch>
                <duration>240</duration>
                <type>eighth</type>
                <stem default-y="-40">down</stem>
                <beam number="1">begin</beam>
                <lyric number="1">
                    <syllabic>single</syllabic>
                    <text>with</text>
                </lyric>
            </note>
            <note default-x="78" release="-7" dynamics="75">
                <pitch>
                    <step>D</step>
                    <octave>5</octave>
                </pitch>
                <duration>240</duration>
                <tie type="start"/>
                <type>eighth</type>
                <stem default-y="-45">down</stem>
                <beam number="1">continue</beam>
                <notations>
                    <tied orientation="over" type="start"/>
                </notations>
                <lyric number="1">
                    <syllabic>single</syllabic>
                    <text>you</text>
                </lyric>
            </note>
            <note default-x="106">
                <pitch>
                    <step>D</step>
                    <octave>5</octave>
                </pitch>
                <duration>240</duration>
                <tie type="stop"/>
                <type>eighth</type>
                <stem default-y="-45">down</stem>
                <beam number="1">begin</beam>
                <notations>
                    <tied type="stop"/>
                </notations>
            </note>
            <note default-x="132" release="-7" dynamics="75">
                <pitch>
                    <step>C</step>
                    <octave>5</octave>
                </pitch>
                <duration>240</duration>
                <type>eighth</type>
                <stem default-y="-50">down</stem>
                <beam number="1">continue</beam>
                <lyric number="1">
                    <syllabic>single</syllabic>
                    <text>dear</text>
                </lyric>
            </note>
            <note default-x="168" release="-7" dynamics="75">
                <pitch>
                    <step>E</step>
                    <octave>5</octave>
                </pitch>
                <duration>240</duration>
                <type>eighth</type>
                <stem default-y="-40">down</stem>
                <beam number="1">begin</beam>
                <lyric number="1">
                    <syllabic>single</syllabic>
                    <text>o-</text>
                </lyric>
            </note>
            <note default-x="194" release="-7" dynamics="75">
                <pitch>
                    <step>E</step>
                    <octave>5</octave>
                </pitch>
                <duration>240</duration>
                <type>eighth</type>
                <stem default-y="-40">down</stem>
                <beam number="1">continue</beam>
                <lyric number="1">
                    <syllabic>single</syllabic>
                    <text>o-</text>
                </lyric>
            </note>
            <note default-x="220" release="-7" dynamics="75">
                <pitch>
                    <step>E</step>
                    <octave>5</octave>
                </pitch>
                <duration>160</duration>
                <type>eighth</type>
                <time-modification>
                    <actual-notes>3</actual-notes>
                    <normal-notes>2</normal-notes>
                </time-modification>
                <stem default-y="-40">down</stem>
                <beam number="1">begin</beam>
                <notations>
                    <tuplet placement="below" line-shape="straight" type="start" show-number="actual" number="1" bracket="yes"/>
                </notations>
                <lyric number="1">
                    <syllabic>single</syllabic>
                    <text>o-</text>
                </lyric>
            </note>
            <note default-x="252" release="-7" dynamics="75">
                <pitch>
                    <step>D</step>
                    <octave>5</octave>
                </pitch>
                <duration>160</duration>
                <type>eighth</type>
                <time-modification>
                    <actual-notes>3</actual-notes>
                    <normal-notes>2</normal-notes>
                </time-modification>
                <stem default-y="-45">down</stem>
                <beam number="1">continue</beam>
                <lyric number="1">
                    <syllabic>single</syllabic>
                    <text>nce</text>
                </lyric>
            </note>
            <note default-x="283" release="-7" dynamics="75">
                <pitch>
                    <step>C</step>
                    <octave>5</octave>
                </pitch>
                <duration>160</duration>
                <type>eighth</type>
                <time-modification>
                    <actual-notes>3</actual-notes>
                    <normal-notes>2</normal-notes>
                </time-modification>
                <stem default-y="-50">down</stem>
                <beam number="1">continue</beam>
                <notations>
                    <tuplet type="stop" number="1"/>
                </notations>
                <lyric number="1">
                    <syllabic>single</syllabic>
                    <text>a-</text>
                </lyric>
            </note>
        </measure>
        <measure width="225" number="25">
            <attributes>
                <staff-details print-object="yes"/>
            </attributes>
            <harmony default-y="15">
                <root>
                    <root-step>G</root-step>
                </root>
                <kind use-symbols="no" text=" "> </kind>
            </harmony>
            <note default-x="48" release="-7" dynamics="75">
                <pitch>
                    <step>D</step>
                    <octave>5</octave>
                </pitch>
                <duration>960</duration>
                <type>half</type>
                <stem default-y="-45">down</stem>
                <lyric number="1">
                    <syllabic>single</syllabic>
                    <text>gain.</text>
                </lyric>
            </note>
            <harmony default-y="15">
                <root>
                    <root-step>G</root-step>
                </root>
                <kind use-symbols="no" text="7">7</kind>
            </harmony>
            <note default-x="105" release="-7" dynamics="75">
                <pitch>
                    <step>E</step>
                    <octave>5</octave>
                </pitch>
                <duration>320</duration>
                <type>quarter</type>
                <time-modification>
                    <actual-notes>3</actual-notes>
                    <normal-notes>2</normal-notes>
                </time-modification>
                <stem default-y="-40">down</stem>
                <notations>
                    <tuplet placement="below" line-shape="straight" type="start" show-number="actual" number="1" bracket="yes"/>
                </notations>
                <lyric number="1">
                    <syllabic>single</syllabic>
                    <text>Could</text>
                </lyric>
            </note>
            <note default-x="154" release="-7" dynamics="75">
                <pitch>
                    <step>B</step>
                    <octave>4</octave>
                </pitch>
                <duration>320</duration>
                <type>quarter</type>
                <time-modification>
                    <actual-notes>3</actual-notes>
                    <normal-notes>2</normal-notes>
                </time-modification>
                <stem default-y="-50">down</stem>
                <lyric number="1">
                    <syllabic>single</syllabic>
                    <text>this</text>
                </lyric>
            </note>
            <note default-x="188" release="-7" dynamics="75">
                <pitch>
                    <step>D</step>
                    <octave>5</octave>
                </pitch>
                <duration>320</duration>
                <type>quarter</type>
                <time-modification>
                    <actual-notes>3</actual-notes>
                    <normal-notes>2</normal-notes>
                </time-modification>
                <stem default-y="-45">down</stem>
                <notations>
                    <tuplet type="stop" number="1"/>
                </notations>
                <lyric number="1">
                    <syllabic>single</syllabic>
                    <text>be</text>
                </lyric>
            </note>
        </measure>
        <measure width="164" number="26">
            <attributes>
                <staff-details print-object="yes"/>
            </attributes>
            <harmony default-y="15">
                <root>
                    <root-step>C</root-step>
                </root>
                <kind use-symbols="no" text=" "> </kind>
            </harmony>
            <note default-x="31" release="-7" dynamics="75">
                <pitch>
                    <step>D</step>
                    <octave>5</octave>
                </pitch>
                <duration>480</duration>
                <type>quarter</type>
                <stem default-y="-45">down</stem>
                <lyric number="1">
                    <syllabic>begin</syllabic>
                    <text>ma</text>
                </lyric>
            </note>
            <note default-x="69" release="-7" dynamics="75">
                <pitch>
                    <step>C</step>
                    <octave>5</octave>
                </pitch>
                <duration>960</duration>
                <type>half</type>
                <stem default-y="-50">down</stem>
                <lyric number="1">
                    <syllabic>single</syllabic>
                    <text>gic</text>
                </lyric>
            </note>
            <note default-x="118" release="-7" dynamics="75">
                <pitch>
                    <step>D</step>
                    <octave>5</octave>
                </pitch>
                <duration>480</duration>
                <type>quarter</type>
                <stem default-y="-45">down</stem>
                <lyric number="1">
                    <syllabic>single</syllabic>
                    <text>my</text>
                </lyric>
            </note>
        </measure>
        <measure width="282" number="27">
            <print new-system="yes">
                <system-layout>
                    <system-margins>
                        <left-margin>12</left-margin>
                        <right-margin>0</right-margin>
                    </system-margins>
                    <system-distance>157</system-distance>
                </system-layout>
            </print>
            <attributes>
                <staff-details print-object="yes"/>
            </attributes>
            <harmony default-y="14">
                <root>
                    <root-step>C</root-step>
                </root>
                <kind use-symbols="no" text=" "> </kind>
            </harmony>
            <note default-x="81" release="-7" dynamics="75">
                <pitch>
                    <step>C</step>
                    <octave>5</octave>
                </pitch>
                <duration>480</duration>
                <type>quarter</type>
                <stem default-y="-50">down</stem>
                <lyric number="1">
                    <syllabic>single</syllabic>
                    <text>dear</text>
                </lyric>
            </note>
            <note default-x="117">
                <rest/>
                <duration>240</duration>
                <type>eighth</type>
            </note>
            <note default-x="143" release="-7" dynamics="75">
                <pitch>
                    <step>A</step>
                    <octave>4</octave>
                </pitch>
                <duration>240</duration>
                <type>eighth</type>
                <stem default-y="10">up</stem>
                <lyric number="1">
                    <syllabic>begin</syllabic>
                    <text>ha</text>
                </lyric>
            </note>
            <note default-x="174" release="-7" dynamics="75">
                <pitch>
                    <step>C</step>
                    <octave>5</octave>
                </pitch>
                <duration>240</duration>
                <type>eighth</type>
                <stem default-y="-50">down</stem>
                <beam number="1">begin</beam>
                <lyric number="1">
                    <syllabic>begin</syllabic>
                    <text>vi</text>
                </lyric>
            </note>
            <note default-x="202" release="-7" dynamics="75">
                <pitch>
                    <step>A</step>
                    <octave>4</octave>
                </pitch>
                <duration>240</duration>
                <type>eighth</type>
                <stem default-y="-60">down</stem>
                <beam number="1">continue</beam>
                <lyric number="1">
                    <syllabic>single</syllabic>
                    <text>ng</text>
                </lyric>
            </note>
            <note default-x="240" release="-7" dynamics="75">
                <pitch>
                    <step>G</step>
                    <octave>4</octave>
                </pitch>
                <duration>480</duration>
                <type>quarter</type>
                <stem default-y="5">up</stem>
                <lyric number="1">
                    <syllabic>single</syllabic>
                    <text>your</text>
                </lyric>
            </note>
        </measure>
        <measure width="128" number="28">
            <attributes>
                <staff-details print-object="yes"/>
            </attributes>
            <harmony default-y="14">
                <root>
                    <root-step>E</root-step>
                </root>
                <kind use-symbols="no" text="min">min</kind>
            </harmony>
            <note default-x="46" release="-7" dynamics="75">
                <pitch>
                    <step>B</step>
                    <octave>4</octave>
                </pitch>
                <duration>1920</duration>
                <type>whole</type>
                <lyric number="1">
                    <syllabic>single</syllabic>
                    <text>love.</text>
                </lyric>
            </note>
        </measure>
        <measure width="182" number="29">
            <attributes>
                <staff-details print-object="yes"/>
            </attributes>
            <harmony default-y="14">
                <root>
                    <root-step>A</root-step>
                </root>
                <kind use-symbols="no" text=" "> </kind>
            </harmony>
            <note default-x="30">
                <rest/>
                <duration>480</duration>
                <type>quarter</type>
            </note>
            <note default-x="66" release="-7" dynamics="75">
                <pitch>
                    <step>F</step>
                    <octave>5</octave>
                </pitch>
                <duration>480</duration>
                <type>quarter</type>
                <stem default-y="-35">down</stem>
                <lyric number="1">
                    <syllabic>single</syllabic>
                    <text>If</text>
                </lyric>
            </note>
            <note default-x="103" release="-7" dynamics="75">
                <pitch>
                    <step>C</step>
                    <alter>1</alter>
                    <octave>5</octave>
                </pitch>
                <duration>480</duration>
                <type>quarter</type>
                <accidental>sharp</accidental>
                <stem default-y="-50">down</stem>
                <lyric number="1">
                    <syllabic>single</syllabic>
                    <text>this</text>
                </lyric>
            </note>
            <note default-x="139" release="-7" dynamics="75">
                <pitch>
                    <step>E</step>
                    <octave>5</octave>
                </pitch>
                <duration>480</duration>
                <type>quarter</type>
                <stem default-y="-40">down</stem>
                <lyric number="1">
                    <syllabic>single</syllabic>
                    <text>is</text>
                </lyric>
            </note>
        </measure>
        <measure width="141" number="30">
            <attributes>
                <staff-details print-object="yes"/>
            </attributes>
            <harmony default-y="14">
                <root>
                    <root-step>D</root-step>
                </root>
                <kind use-symbols="no" text="7">7</kind>
            </harmony>
            <note default-x="35" release="-7" dynamics="75">
                <pitch>
                    <step>E</step>
                    <octave>5</octave>
                </pitch>
                <duration>480</duration>
                <type>quarter</type>
                <stem default-y="-40">down</stem>
                <lyric number="1">
                    <syllabic>begin</syllabic>
                    <text>ma</text>
                </lyric>
            </note>
            <note default-x="72" release="-7" dynamics="75">
                <pitch>
                    <step>D</step>
                    <octave>5</octave>
                </pitch>
                <duration>1440</duration>
                <type>half</type>
                <dot/>
                <stem default-y="-45">down</stem>
                <lyric number="1">
                    <syllabic>single</syllabic>
                    <text>gic</text>
                </lyric>
            </note>
        </measure>
        <measure width="214" number="31">
            <attributes>
                <staff-details print-object="yes"/>
            </attributes>
            <harmony default-y="14">
                <root>
                    <root-step>F</root-step>
                </root>
                <kind use-symbols="no" text=" "> </kind>
            </harmony>
            <note default-x="29">
                <rest/>
                <duration>480</duration>
                <type>quarter</type>
            </note>
            <note default-x="65" release="-7" dynamics="75">
                <pitch>
                    <step>C</step>
                    <octave>5</octave>
                </pitch>
                <duration>480</duration>
                <type>quarter</type>
                <stem default-y="-50">down</stem>
                <lyric number="1">
                    <syllabic>single</syllabic>
                    <text>then</text>
                </lyric>
            </note>
            <note default-x="109" release="-7" dynamics="75">
                <pitch>
                    <step>B</step>
                    <octave>4</octave>
                </pitch>
                <duration>320</duration>
                <type>quarter</type>
                <time-modification>
                    <actual-notes>3</actual-notes>
                    <normal-notes>2</normal-notes>
                </time-modification>
                <stem default-y="-50">down</stem>
                <notations>
                    <tuplet placement="below" line-shape="straight" type="start" show-number="actual" number="1" bracket="yes"/>
                </notations>
                <lyric number="1">
                    <syllabic>begin</syllabic>
                    <text>ma</text>
                </lyric>
            </note>
            <harmony default-y="14">
                <root>
                    <root-step>G</root-step>
                </root>
                <kind use-symbols="no" text="7">7</kind>
            </harmony>
            <note default-x="146" release="-7" dynamics="75">
                <pitch>
                    <step>C</step>
                    <octave>5</octave>
                </pitch>
                <duration>320</duration>
                <type>quarter</type>
                <time-modification>
                    <actual-notes>3</actual-notes>
                    <normal-notes>2</normal-notes>
                </time-modification>
                <stem default-y="-50">down</stem>
                <lyric number="1">
                    <syllabic>single</syllabic>
                    <text>gic</text>
                </lyric>
            </note>
            <note default-x="177" release="-7" dynamics="75">
                <pitch>
                    <step>D</step>
                    <octave>5</octave>
                </pitch>
                <duration>320</duration>
                <type>quarter</type>
                <time-modification>
                    <actual-notes>3</actual-notes>
                    <normal-notes>2</normal-notes>
                </time-modification>
                <stem default-y="-45">down</stem>
                <notations>
                    <tuplet type="stop" number="1"/>
                </notations>
                <lyric number="1">
                    <syllabic>single</syllabic>
                    <text>is</text>
                </lyric>
            </note>
        </measure>
        <measure width="122" number="32">
            <attributes>
                <staff-details print-object="yes"/>
            </attributes>
            <harmony default-y="14">
                <root>
                    <root-step>C</root-step>
                </root>
                <kind use-symbols="no" text=" "> </kind>
            </harmony>
            <note default-x="40" release="-7" dynamics="75">
                <pitch>
                    <step>E</step>
                    <octave>5</octave>
                </pitch>
                <duration>1920</duration>
                <type>whole</type>
                <lyric number="1">
                    <syllabic>single</syllabic>
                    <text>mine.</text>
                </lyric>
            </note>
        </measure>
        <measure width="268" number="33">
            <print new-system="yes">
                <system-layout>
                    <system-margins>
                        <left-margin>12</left-margin>
                        <right-margin>0</right-margin>
                    </system-margins>
                    <system-distance>177</system-distance>
                </system-layout>
            </print>
            <attributes>
                <staff-details print-object="yes"/>
            </attributes>
            <harmony default-y="35">
                <root>
                    <root-step>D</root-step>
                </root>
                <kind use-symbols="no" text="min">min</kind>
            </harmony>
            <note default-x="95">
                <rest/>
                <duration>960</duration>
                <type>half</type>
            </note>
            <note default-x="153" release="-7" dynamics="75">
                <pitch>
                    <step>F</step>
                    <octave>5</octave>
                </pitch>
                <duration>320</duration>
                <type>quarter</type>
                <time-modification>
                    <actual-notes>3</actual-notes>
                    <normal-notes>2</normal-notes>
                </time-modification>
                <stem default-y="-35">down</stem>
                <notations>
                    <tuplet placement="below" line-shape="straight" type="start" show-number="actual" number="1" bracket="yes"/>
                </notations>
                <lyric number="1">
                    <syllabic>single</syllabic>
                    <text>If</text>
                </lyric>
            </note>
            <note default-x="189" release="-7" dynamics="75">
                <pitch>
                    <step>E</step>
                    <octave>5</octave>
                </pitch>
                <duration>320</duration>
                <type>quarter</type>
                <time-modification>
                    <actual-notes>3</actual-notes>
                    <normal-notes>2</normal-notes>
                </time-modification>
                <stem default-y="-40">down</stem>
                <lyric number="1">
                    <syllabic>single</syllabic>
                    <text>this</text>
                </lyric>
            </note>
            <note default-x="226" release="-7" dynamics="75">
                <pitch>
                    <step>D</step>
                    <octave>5</octave>
                </pitch>
                <duration>320</duration>
                <type>quarter</type>
                <time-modification>
                    <actual-notes>3</actual-notes>
                    <normal-notes>2</normal-notes>
                </time-modification>
                <stem default-y="-45">down</stem>
                <notations>
                    <tuplet type="stop" number="1"/>
                </notations>
                <lyric number="1">
                    <syllabic>single</syllabic>
                    <text>is</text>
                </lyric>
            </note>
        </measure>
        <measure width="192" number="34">
            <attributes>
                <staff-details print-object="yes"/>
            </attributes>
            <harmony default-y="35">
                <root>
                    <root-step>F</root-step>
                </root>
                <kind use-symbols="no" text=" "> </kind>
            </harmony>
            <note default-x="42" release="-7" dynamics="75">
                <pitch>
                    <step>F</step>
                    <octave>5</octave>
                </pitch>
                <duration>240</duration>
                <type>eighth</type>
                <stem default-y="-35">down</stem>
                <beam number="1">begin</beam>
                <lyric number="1">
                    <syllabic>begin</syllabic>
                    <text>ma</text>
                </lyric>
            </note>
            <note default-x="80" release="-7" dynamics="75">
                <pitch>
                    <step>F</step>
                    <octave>5</octave>
                </pitch>
                <duration>240</duration>
                <tie type="start"/>
                <type>eighth</type>
                <stem default-y="-35">down</stem>
                <beam number="1">continue</beam>
                <notations>
                    <tied orientation="over" type="start"/>
                </notations>
                <lyric number="1">
                    <syllabic>single</syllabic>
                    <text>gic</text>
                </lyric>
            </note>
            <note default-x="110">
                <pitch>
                    <step>F</step>
                    <octave>5</octave>
                </pitch>
                <duration>1440</duration>
                <tie type="stop"/>
                <type>half</type>
                <dot/>
                <stem default-y="-35">down</stem>
                <notations>
                    <tied type="stop"/>
                </notations>
            </note>
        </measure>
        <measure width="252" number="35">
            <attributes>
                <staff-details print-object="yes"/>
            </attributes>
            <harmony default-y="35">
                <root>
                    <root-step>F</root-step>
                </root>
                <kind use-symbols="no" text=" "> </kind>
            </harmony>
            <note default-x="30">
                <rest/>
                <duration>480</duration>
                <type>quarter</type>
            </note>
            <note default-x="72" release="-7" dynamics="75">
                <pitch>
                    <step>C</step>
                    <octave>5</octave>
                </pitch>
                <duration>480</duration>
                <type>quarter</type>
                <stem default-y="-50">down</stem>
                <lyric number="1">
                    <syllabic>single</syllabic>
                    <text>then</text>
                </lyric>
            </note>
            <note default-x="117" release="-7" dynamics="75">
                <pitch>
                    <step>B</step>
                    <octave>4</octave>
                </pitch>
                <duration>240</duration>
                <type>eighth</type>
                <stem default-y="-55">down</stem>
                <beam number="1">begin</beam>
                <lyric number="1">
                    <syllabic>begin</syllabic>
                    <text>ma</text>
                </lyric>
            </note>
            <harmony default-y="35">
                <root>
                    <root-step>G</root-step>
                </root>
                <kind use-symbols="no" text="7">7</kind>
            </harmony>
            <note default-x="154" release="-7" dynamics="75">
                <pitch>
                    <step>G</step>
                    <octave>5</octave>
                </pitch>
                <duration>240</duration>
                <tie type="start"/>
                <type>eighth</type>
                <stem default-y="-30">down</stem>
                <beam number="1">continue</beam>
                <notations>
                    <tied orientation="over" type="start"/>
                </notations>
                <lyric number="1">
                    <syllabic>single</syllabic>
                    <text>gic</text>
                </lyric>
            </note>
            <note default-x="185">
                <pitch>
                    <step>G</step>
                    <octave>5</octave>
                </pitch>
                <duration>240</duration>
                <tie type="stop"/>
                <type>eighth</type>
                <stem default-y="-30">down</stem>
                <beam number="1">begin</beam>
                <notations>
                    <tied type="stop"/>
                </notations>
            </note>
            <note default-x="215" release="-7" dynamics="75">
                <pitch>
                    <step>F</step>
                    <octave>5</octave>
                </pitch>
                <duration>240</duration>
                <type>eighth</type>
                <stem default-y="-35">down</stem>
                <beam number="1">continue</beam>
                <lyric number="1">
                    <syllabic>single</syllabic>
                    <text>is</text>
                </lyric>
            </note>
        </measure>
        <measure width="222" number="36">
            <attributes>
                <staff-details print-object="yes"/>
            </attributes>
            <harmony default-y="35">
                <root>
                    <root-step>C</root-step>
                </root>
                <kind use-symbols="no" text=" "> </kind>
            </harmony>
            <note default-x="31" release="-7" dynamics="75">
                <pitch>
                    <step>G</step>
                    <octave>5</octave>
                </pitch>
                <duration>960</duration>
                <type>half</type>
                <stem default-y="-30">down</stem>
                <lyric number="1">
                    <syllabic>begin</syllabic>
                    <text>mi</text>
                </lyric>
            </note>
            <harmony default-y="35">
                <root>
                    <root-step>F</root-step>
                </root>
                <kind use-symbols="no" text=" "> </kind>
            </harmony>
            <note default-x="88" release="-7" dynamics="75">
                <pitch>
                    <step>D</step>
                    <octave>6</octave>
                </pitch>
                <duration>240</duration>
                <type>eighth</type>
                <stem default-y="-20">down</stem>
                <beam number="1">begin</beam>
                <lyric number="1">
                    <syllabic>single</syllabic>
                    <text>i</text>
                </lyric>
            </note>
            <note default-x="119" release="-7" dynamics="75">
                <pitch>
                    <step>C</step>
                    <octave>6</octave>
                </pitch>
                <duration>240</duration>
                <tie type="start"/>
                <type>eighth</type>
                <stem default-y="-20">down</stem>
                <beam number="1">continue</beam>
                <notations>
                    <tied orientation="over" type="start"/>
                </notations>
            </note>
            <note default-x="155">
                <pitch>
                    <step>C</step>
                    <octave>6</octave>
                </pitch>
                <duration>240</duration>
                <tie type="stop"/>
                <type>eighth</type>
                <stem default-y="-20">down</stem>
                <beam number="1">begin</beam>
                <notations>
                    <tied type="stop"/>
                </notations>
            </note>
            <note default-x="185" release="-7" dynamics="75">
                <pitch>
                    <step>A</step>
                    <octave>5</octave>
                </pitch>
                <duration>240</duration>
                <type>eighth</type>
                <stem default-y="-25">down</stem>
                <beam number="1">continue</beam>
            </note>
        </measure>
        <measure width="135" number="37">
            <attributes>
                <staff-details print-object="yes"/>
            </attributes>
            <barline location="right">
                <bar-style>light-heavy</bar-style>
            </barline>
            <harmony default-y="35">
                <root>
                    <root-step>C</root-step>
                </root>
                <kind use-symbols="no" text=" "> </kind>
            </harmony>
            <note default-x="31" release="-7" dynamics="75">
                <pitch>
                    <step>G</step>
                    <octave>5</octave>
                </pitch>
                <duration>1920</duration>
                <type>whole</type>
                <lyric number="1">
                    <syllabic>single</syllabic>
                    <text>ine.</text>
                </lyric>
            </note>
        </measure>
    </part>
</score-partwise>
