<?xml version="1.0" encoding="UTF-8"?>
<!DOCTYPE score-partwise PUBLIC "-//Recordare//DTD MusicXML 2.0 Partwise//EN" "http://www.musicxml.org/dtds/partwise.dtd">
<score-partwise version="2.0">
    <work>
        <work-number></work-number>
        <work-title></work-title>
    </work>
    <movement-number></movement-number>
    <movement-title>Jibnotable</movement-title>
    <identification>
        <creator type="composer">Ron Linnebach</creator>
        <creator type="poet"></creator>
        <rights>All Rights Reserved</rights>
        <encoding>
            <software>MuseScore 1.1</software>
            <encoding-date>2012-11-09</encoding-date>
            <software>ProxyMusic 2.0 c</software>
        </encoding>
        <source>http://wikifonia.org/node/18768/revisions/24886/view</source>
    </identification>
    <defaults>
        <scaling>
            <millimeters>7.05556</millimeters>
            <tenths>40</tenths>
        </scaling>
        <page-layout>
            <page-height>1683.78</page-height>
            <page-width>1190.55</page-width>
            <page-margins type="even">
                <left-margin>56.6929</left-margin>
                <right-margin>56.6929</right-margin>
                <top-margin>56.6929</top-margin>
                <bottom-margin>113.386</bottom-margin>
            </page-margins>
            <page-margins type="odd">
                <left-margin>56.6929</left-margin>
                <right-margin>56.6929</right-margin>
                <top-margin>56.6929</top-margin>
                <bottom-margin>113.386</bottom-margin>
            </page-margins>
        </page-layout>
    </defaults>
    <part-list>
        <score-part id="P1">
            <part-name></part-name>
            <score-instrument id="P1-I3">
                <instrument-name></instrument-name>
            </score-instrument>
            <midi-instrument id="P1-I3">
                <midi-channel>1</midi-channel>
                <midi-program>1</midi-program>
            </midi-instrument>
        </score-part>
    </part-list>
    <part id="P1">
        <measure width="187.45" number="1">
            <print>
                <system-layout>
                    <system-margins>
                        <left-margin>0.00</left-margin>
                        <right-margin>0.00</right-margin>
                    </system-margins>
                    <top-system-distance>70.00</top-system-distance>
                </system-layout>
            </print>
            <attributes>
                <divisions>2</divisions>
                <key>
                    <fifths>-1</fifths>
                    <mode>major</mode>
                </key>
                <time>
                    <beats>3</beats>
                    <beat-type>4</beat-type>
                </time>
                <clef>
                    <sign>G</sign>
                    <line>2</line>
                </clef>
            </attributes>
            <harmony print-frame="no">
                <root>
                    <root-step>F</root-step>
                </root>
                <kind text="Maj7">major-seventh</kind>
            </harmony>
            <note default-y="-55.00" default-x="93.02">
                <pitch>
                    <step>B</step>
                    <octave>3</octave>
                </pitch>
                <duration>2</duration>
                <voice>1</voice>
                <type>quarter</type>
                <accidental>natural</accidental>
                <stem>up</stem>
            </note>
            <note default-y="-50.00" default-x="123.96">
                <pitch>
                    <step>C</step>
                    <octave>4</octave>
                </pitch>
                <duration>2</duration>
                <voice>1</voice>
                <type>quarter</type>
                <stem>up</stem>
            </note>
            <note default-y="-25.00" default-x="154.91">
                <pitch>
                    <step>A</step>
                    <octave>4</octave>
                </pitch>
                <duration>2</duration>
                <voice>1</voice>
                <type>quarter</type>
                <stem>up</stem>
            </note>
        </measure>
        <measure width="135.00" number="2">
            <harmony print-frame="no">
                <root>
                    <root-step>E</root-step>
                    <root-alter>-1</root-alter>
                </root>
                <kind text="9">dominant-ninth</kind>
            </harmony>
            <note default-y="-30.00" default-x="12.00">
                <pitch>
                    <step>G</step>
                    <octave>4</octave>
                </pitch>
                <duration>2</duration>
                <voice>1</voice>
                <type>quarter</type>
                <stem>up</stem>
            </note>
            <note default-y="-35.00" default-x="49.35">
                <pitch>
                    <step>F</step>
                    <octave>4</octave>
                </pitch>
                <duration>2</duration>
                <voice>1</voice>
                <type>quarter</type>
                <stem>up</stem>
            </note>
            <note default-y="-45.00" default-x="86.71">
                <pitch>
                    <step>D</step>
                    <alter>-1</alter>
                    <octave>4</octave>
                </pitch>
                <duration>1</duration>
                <voice>1</voice>
                <type>eighth</type>
                <accidental>flat</accidental>
                <stem>up</stem>
                <beam number="1">begin</beam>
            </note>
            <note default-y="-55.00" default-x="110.05">
                <pitch>
                    <step>B</step>
                    <alter>-1</alter>
                    <octave>3</octave>
                </pitch>
                <duration>1</duration>
                <voice>1</voice>
                <type>eighth</type>
                <stem>up</stem>
                <beam number="1">end</beam>
            </note>
        </measure>
        <measure width="106.90" number="3">
            <harmony print-frame="no">
                <root>
                    <root-step>F</root-step>
                </root>
                <kind text="Maj7">major-seventh</kind>
            </harmony>
            <note default-y="-55.00" default-x="12.47">
                <pitch>
                    <step>B</step>
                    <octave>3</octave>
                </pitch>
                <duration>2</duration>
                <voice>1</voice>
                <type>quarter</type>
                <accidental>natural</accidental>
                <stem>up</stem>
            </note>
            <note default-y="-50.00" default-x="43.41">
                <pitch>
                    <step>C</step>
                    <octave>4</octave>
                </pitch>
                <duration>2</duration>
                <voice>1</voice>
                <type>quarter</type>
                <stem>up</stem>
            </note>
            <note default-y="-25.00" default-x="74.36">
                <pitch>
                    <step>A</step>
                    <octave>4</octave>
                </pitch>
                <duration>2</duration>
                <voice>1</voice>
                <type>quarter</type>
                <stem>up</stem>
            </note>
        </measure>
        <measure width="81.35" number="4">
            <harmony print-frame="no">
                <root>
                    <root-step>E</root-step>
                    <root-alter>-1</root-alter>
                </root>
                <kind text="9">dominant-ninth</kind>
            </harmony>
            <note default-y="-30.00" default-x="12.00">
                <pitch>
                    <step>G</step>
                    <octave>4</octave>
                </pitch>
                <duration>6</duration>
                <voice>1</voice>
                <type>half</type>
                <dot/>
                <stem>up</stem>
            </note>
        </measure>
        <measure width="106.90" number="5">
            <harmony print-frame="no">
                <root>
                    <root-step>F</root-step>
                </root>
                <kind text="Maj7">major-seventh</kind>
            </harmony>
            <note default-y="-55.00" default-x="12.47">
                <pitch>
                    <step>B</step>
                    <octave>3</octave>
                </pitch>
                <duration>2</duration>
                <voice>1</voice>
                <type>quarter</type>
                <accidental>natural</accidental>
                <stem>up</stem>
            </note>
            <note default-y="-50.00" default-x="43.41">
                <pitch>
                    <step>C</step>
                    <octave>4</octave>
                </pitch>
                <duration>2</duration>
                <voice>1</voice>
                <type>quarter</type>
                <stem>up</stem>
            </note>
            <note default-y="-25.00" default-x="74.36">
                <pitch>
                    <step>A</step>
                    <octave>4</octave>
                </pitch>
                <duration>2</duration>
                <voice>1</voice>
                <type>quarter</type>
                <stem>up</stem>
            </note>
        </measure>
        <measure width="106.43" number="6">
            <harmony print-frame="no">
                <root>
                    <root-step>E</root-step>
                    <root-alter>-1</root-alter>
                </root>
                <kind text="9">dominant-ninth</kind>
            </harmony>
            <note default-y="-30.00" default-x="12.00">
                <pitch>
                    <step>G</step>
                    <octave>4</octave>
                </pitch>
                <duration>2</duration>
                <voice>1</voice>
                <type>quarter</type>
                <stem>up</stem>
            </note>
            <note default-y="-25.00" default-x="42.94">
                <pitch>
                    <step>A</step>
                    <octave>4</octave>
                </pitch>
                <duration>2</duration>
                <voice>1</voice>
                <type>quarter</type>
                <stem>up</stem>
            </note>
            <note default-y="-15.00" default-x="73.89">
                <pitch>
                    <step>C</step>
                    <octave>5</octave>
                </pitch>
                <duration>2</duration>
                <voice>1</voice>
                <type>quarter</type>
                <stem>down</stem>
            </note>
        </measure>
        <measure width="119.63" number="7">
            <direction>
                <direction-type>
                    <words default-y="100">D+7b9</words>
                </direction-type>
            </direction>
            <note default-y="-20.00" default-x="12.00">
                <pitch>
                    <step>B</step>
                    <alter>-1</alter>
                    <octave>4</octave>
                </pitch>
                <duration>2</duration>
                <voice>1</voice>
                <type>quarter</type>
                <stem>down</stem>
            </note>
            <note default-y="-25.00" default-x="47.34">
                <pitch>
                    <step>A</step>
                    <octave>4</octave>
                </pitch>
                <duration>2</duration>
                <voice>1</voice>
                <type>quarter</type>
                <stem>up</stem>
            </note>
            <note default-y="-35.00" default-x="82.69">
                <pitch>
                    <step>F</step>
                    <alter>1</alter>
                    <octave>4</octave>
                </pitch>
                <duration>2</duration>
                <voice>1</voice>
                <type>quarter</type>
                <accidental>sharp</accidental>
                <stem>up</stem>
            </note>
        </measure>
        <measure width="126.60" number="8">
            <note default-y="-40.00" default-x="15.00">
                <pitch>
                    <step>E</step>
                    <alter>-1</alter>
                    <octave>4</octave>
                </pitch>
                <duration>2</duration>
                <voice>1</voice>
                <type>quarter</type>
                <accidental>flat</accidental>
                <stem>up</stem>
            </note>
            <note default-y="-45.00" default-x="48.08">
                <pitch>
                    <step>D</step>
                    <octave>4</octave>
                </pitch>
                <duration>2</duration>
                <voice>1</voice>
                <type>quarter</type>
                <stem>up</stem>
            </note>
            <note default-y="-50.00" default-x="81.16">
                <pitch>
                    <step>C</step>
                    <octave>4</octave>
                </pitch>
                <duration>1</duration>
                <voice>1</voice>
                <type>eighth</type>
                <stem>up</stem>
                <beam number="1">begin</beam>
            </note>
            <note default-y="-60.00" default-x="101.83">
                <pitch>
                    <step>A</step>
                    <octave>3</octave>
                </pitch>
                <duration>1</duration>
                <voice>1</voice>
                <type>eighth</type>
                <stem>up</stem>
                <beam number="1">end</beam>
            </note>
        </measure>
        <measure width="106.90" number="9">
            <harmony print-frame="no">
                <root>
                    <root-step>G</root-step>
                </root>
                <kind text="7">dominant</kind>
                <bass>
                    <bass-step>B</bass-step>
                </bass>
            </harmony>
            <note default-y="-55.00" default-x="12.47">
                <pitch>
                    <step>B</step>
                    <octave>3</octave>
                </pitch>
                <duration>2</duration>
                <voice>1</voice>
                <type>quarter</type>
                <accidental>natural</accidental>
                <stem>up</stem>
            </note>
            <note default-y="-50.00" default-x="43.41">
                <pitch>
                    <step>C</step>
                    <octave>4</octave>
                </pitch>
                <duration>2</duration>
                <voice>1</voice>
                <type>quarter</type>
                <stem>up</stem>
            </note>
            <note default-y="-25.00" default-x="74.36">
                <pitch>
                    <step>A</step>
                    <octave>4</octave>
                </pitch>
                <duration>2</duration>
                <voice>1</voice>
                <type>quarter</type>
                <stem>up</stem>
            </note>
        </measure>
        <measure width="190.14" number="10">
            <print new-system="yes">
                <system-layout>
                    <system-margins>
                        <left-margin>0.00</left-margin>
                        <right-margin>0.00</right-margin>
                    </system-margins>
                    <system-distance>92.50</system-distance>
                </system-layout>
            </print>
            <harmony print-frame="no">
                <root>
                    <root-step>B</root-step>
                    <root-alter>-1</root-alter>
                </root>
                <kind text="m6">minor-sixth</kind>
            </harmony>
            <note default-y="-30.00" default-x="62.35">
                <pitch>
                    <step>G</step>
                    <octave>4</octave>
                </pitch>
                <duration>2</duration>
                <voice>1</voice>
                <type>quarter</type>
                <stem>up</stem>
            </note>
            <note default-y="-35.00" default-x="101.18">
                <pitch>
                    <step>F</step>
                    <octave>4</octave>
                </pitch>
                <duration>2</duration>
                <voice>1</voice>
                <type>quarter</type>
                <stem>up</stem>
            </note>
            <note default-y="-45.00" default-x="140.00">
                <pitch>
                    <step>D</step>
                    <alter>-1</alter>
                    <octave>4</octave>
                </pitch>
                <duration>1</duration>
                <voice>1</voice>
                <type>eighth</type>
                <accidental>flat</accidental>
                <stem>up</stem>
                <beam number="1">begin</beam>
            </note>
            <note default-y="-55.00" default-x="164.27">
                <pitch>
                    <step>B</step>
                    <alter>-1</alter>
                    <octave>3</octave>
                </pitch>
                <duration>1</duration>
                <voice>1</voice>
                <type>eighth</type>
                <stem>up</stem>
                <beam number="1">end</beam>
            </note>
        </measure>
        <measure width="111.69" number="11">
            <harmony print-frame="no">
                <root>
                    <root-step>A</root-step>
                </root>
                <kind text="m7">minor-seventh</kind>
            </harmony>
            <note default-y="-55.00" default-x="12.47">
                <pitch>
                    <step>B</step>
                    <octave>3</octave>
                </pitch>
                <duration>2</duration>
                <voice>1</voice>
                <type>quarter</type>
                <accidental>natural</accidental>
                <stem>up</stem>
            </note>
            <note default-y="-50.00" default-x="45.01">
                <pitch>
                    <step>C</step>
                    <octave>4</octave>
                </pitch>
                <duration>2</duration>
                <voice>1</voice>
                <type>quarter</type>
                <stem>up</stem>
            </note>
            <note default-y="-25.00" default-x="77.55">
                <pitch>
                    <step>A</step>
                    <octave>4</octave>
                </pitch>
                <duration>2</duration>
                <voice>1</voice>
                <type>quarter</type>
                <stem>up</stem>
            </note>
        </measure>
        <measure width="86.14" number="12">
            <direction>
                <direction-type>
                    <words default-y="100">D+7b9</words>
                </direction-type>
            </direction>
            <note default-y="-20.00" default-x="12.00">
                <pitch>
                    <step>B</step>
                    <alter>-1</alter>
                    <octave>4</octave>
                </pitch>
                <duration>6</duration>
                <voice>1</voice>
                <type>half</type>
                <dot/>
                <stem>down</stem>
            </note>
        </measure>
        <measure width="111.23" number="13">
            <harmony print-frame="no">
                <root>
                    <root-step>G</root-step>
                </root>
                <kind text="m7">minor-seventh</kind>
            </harmony>
            <note default-y="-35.00" default-x="12.00">
                <pitch>
                    <step>F</step>
                    <octave>4</octave>
                </pitch>
                <duration>2</duration>
                <voice>1</voice>
                <type>quarter</type>
                <stem>up</stem>
            </note>
            <note default-y="-30.00" default-x="44.54">
                <pitch>
                    <step>G</step>
                    <octave>4</octave>
                </pitch>
                <duration>2</duration>
                <voice>1</voice>
                <type>quarter</type>
                <stem>up</stem>
            </note>
            <note default-y="-25.00" default-x="77.08">
                <pitch>
                    <step>A</step>
                    <octave>4</octave>
                </pitch>
                <duration>2</duration>
                <voice>1</voice>
                <type>quarter</type>
                <stem>up</stem>
            </note>
        </measure>
        <measure width="133.19" number="14">
            <harmony print-frame="no">
                <root>
                    <root-step>C</root-step>
                </root>
                <kind text="13b5">dominant-13th</kind>
                <degree>
                    <degree-value>5</degree-value>
                    <degree-alter>-1</degree-alter>
                    <degree-type>alter</degree-type>
                </degree>
            </harmony>
            <note default-y="-35.00" default-x="16.80">
                <pitch>
                    <step>F</step>
                    <alter>1</alter>
                    <octave>4</octave>
                </pitch>
                <duration>1</duration>
                <voice>1</voice>
                <type>eighth</type>
                <accidental>sharp</accidental>
                <stem>up</stem>
                <beam number="1">begin</beam>
            </note>
            <note default-y="-30.00" default-x="38.87">
                <pitch>
                    <step>G</step>
                    <octave>4</octave>
                </pitch>
                <duration>1</duration>
                <voice>1</voice>
                <type>eighth</type>
                <stem>up</stem>
                <beam number="1">end</beam>
            </note>
            <note default-y="-25.00" default-x="60.95">
                <pitch>
                    <step>A</step>
                    <octave>4</octave>
                </pitch>
                <duration>2</duration>
                <voice>1</voice>
                <type>quarter</type>
                <stem>up</stem>
            </note>
            <note default-y="-20.00" default-x="96.27">
                <pitch>
                    <step>B</step>
                    <alter>-1</alter>
                    <octave>4</octave>
                </pitch>
                <duration>2</duration>
                <voice>1</voice>
                <type>quarter</type>
                <stem>down</stem>
            </note>
        </measure>
        <measure width="111.23" number="15">
            <harmony print-frame="no">
                <root>
                    <root-step>A</root-step>
                </root>
                <kind text="m7">minor-seventh</kind>
            </harmony>
            <note default-y="-15.00" default-x="12.00">
                <pitch>
                    <step>C</step>
                    <octave>5</octave>
                </pitch>
                <duration>2</duration>
                <voice>1</voice>
                <type>quarter</type>
                <stem>down</stem>
            </note>
            <note default-y="-25.00" default-x="44.54">
                <pitch>
                    <step>A</step>
                    <octave>4</octave>
                </pitch>
                <duration>2</duration>
                <voice>1</voice>
                <type>quarter</type>
                <stem>up</stem>
            </note>
            <note default-y="-15.00" default-x="77.08">
                <pitch>
                    <step>C</step>
                    <octave>5</octave>
                </pitch>
                <duration>2</duration>
                <voice>1</voice>
                <type>quarter</type>
                <stem>down</stem>
            </note>
        </measure>
        <measure width="89.14" number="16">
            <harmony print-frame="no">
                <root>
                    <root-step>D</root-step>
                </root>
                <kind text="7b9">dominant</kind>
                <degree>
                    <degree-value>9</degree-value>
                    <degree-alter>-1</degree-alter>
                    <degree-type>add</degree-type>
                </degree>
            </harmony>
            <note default-y="-5.00" default-x="15.00">
                <pitch>
                    <step>E</step>
                    <alter>-1</alter>
                    <octave>5</octave>
                </pitch>
                <duration>6</duration>
                <voice>1</voice>
                <type>half</type>
                <dot/>
                <accidental>flat</accidental>
                <stem>down</stem>
            </note>
        </measure>
        <measure width="111.23" number="17">
            <harmony print-frame="no">
                <root>
                    <root-step>G</root-step>
                </root>
                <kind text="m7">minor-seventh</kind>
            </harmony>
            <note default-y="-35.00" default-x="12.00">
                <pitch>
                    <step>F</step>
                    <octave>4</octave>
                </pitch>
                <duration>2</duration>
                <voice>1</voice>
                <type>quarter</type>
                <stem>up</stem>
            </note>
            <note default-y="-30.00" default-x="44.54">
                <pitch>
                    <step>G</step>
                    <octave>4</octave>
                </pitch>
                <duration>2</duration>
                <voice>1</voice>
                <type>quarter</type>
                <stem>up</stem>
            </note>
            <note default-y="-25.00" default-x="77.08">
                <pitch>
                    <step>A</step>
                    <octave>4</octave>
                </pitch>
                <duration>2</duration>
                <voice>1</voice>
                <type>quarter</type>
                <stem>up</stem>
            </note>
        </measure>
        <measure width="133.19" number="18">
            <harmony print-frame="no">
                <root>
                    <root-step>C</root-step>
                </root>
                <kind text="13b5">dominant-13th</kind>
                <degree>
                    <degree-value>5</degree-value>
                    <degree-alter>-1</degree-alter>
                    <degree-type>alter</degree-type>
                </degree>
            </harmony>
            <note default-y="-35.00" default-x="16.80">
                <pitch>
                    <step>F</step>
                    <alter>1</alter>
                    <octave>4</octave>
                </pitch>
                <duration>1</duration>
                <voice>1</voice>
                <type>eighth</type>
                <accidental>sharp</accidental>
                <stem>up</stem>
                <beam number="1">begin</beam>
            </note>
            <note default-y="-30.00" default-x="38.87">
                <pitch>
                    <step>G</step>
                    <octave>4</octave>
                </pitch>
                <duration>1</duration>
                <voice>1</voice>
                <type>eighth</type>
                <stem>up</stem>
                <beam number="1">end</beam>
            </note>
            <note default-y="-25.00" default-x="60.95">
                <pitch>
                    <step>A</step>
                    <octave>4</octave>
                </pitch>
                <duration>2</duration>
                <voice>1</voice>
                <type>quarter</type>
                <stem>up</stem>
            </note>
            <note default-y="-15.00" default-x="96.27">
                <pitch>
                    <step>C</step>
                    <octave>5</octave>
                </pitch>
                <duration>2</duration>
                <voice>1</voice>
                <type>quarter</type>
                <stem>down</stem>
            </note>
        </measure>
        <measure width="132.83" number="19">
            <print new-system="yes">
                <system-layout>
                    <system-margins>
                        <left-margin>0.00</left-margin>
                        <right-margin>0.00</right-margin>
                    </system-margins>
                    <system-distance>92.50</system-distance>
                </system-layout>
            </print>
            <harmony print-frame="no">
                <root>
                    <root-step>F</root-step>
                </root>
                <kind text="Maj7">major-seventh</kind>
            </harmony>
            <note default-y="-35.00" default-x="62.35">
                <pitch>
                    <step>F</step>
                    <octave>4</octave>
                </pitch>
                <duration>6</duration>
                <voice>1</voice>
                <type>half</type>
                <dot/>
                <stem>up</stem>
            </note>
        </measure>
        <measure width="82.48" number="20">
            <harmony print-frame="no">
                <root>
                    <root-step>E</root-step>
                    <root-alter>-1</root-alter>
                </root>
                <kind text="9">dominant-ninth</kind>
            </harmony>
            <note default-y="-30.00" default-x="12.00">
                <pitch>
                    <step>G</step>
                    <octave>4</octave>
                </pitch>
                <duration>6</duration>
                <voice>1</voice>
                <type>half</type>
                <dot/>
                <stem>up</stem>
            </note>
        </measure>
        <measure width="82.48" number="21">
            <harmony print-frame="no">
                <root>
                    <root-step>F</root-step>
                </root>
                <kind text="Maj7">major-seventh</kind>
            </harmony>
            <note default-y="-25.00" default-x="12.00">
                <pitch>
                    <step>A</step>
                    <octave>4</octave>
                </pitch>
                <duration>6</duration>
                <voice>1</voice>
                <type>half</type>
                <dot/>
                <stem>up</stem>
            </note>
        </measure>
        <measure width="82.48" number="22">
            <harmony print-frame="no">
                <root>
                    <root-step>E</root-step>
                    <root-alter>-1</root-alter>
                </root>
                <kind text="9">dominant-ninth</kind>
            </harmony>
            <note default-y="-20.00" default-x="12.00">
                <pitch>
                    <step>B</step>
                    <alter>-1</alter>
                    <octave>4</octave>
                </pitch>
                <duration>6</duration>
                <voice>1</voice>
                <type>half</type>
                <dot/>
                <stem>down</stem>
            </note>
        </measure>
        <measure width="82.48" number="23">
            <harmony print-frame="no">
                <root>
                    <root-step>F</root-step>
                </root>
                <kind text="Maj7">major-seventh</kind>
            </harmony>
            <note default-y="-15.00" default-x="12.00">
                <pitch>
                    <step>C</step>
                    <octave>5</octave>
                </pitch>
                <duration>6</duration>
                <voice>1</voice>
                <type>half</type>
                <dot/>
                <stem>down</stem>
            </note>
        </measure>
        <measure width="147.89" number="24">
            <harmony print-frame="no">
                <root>
                    <root-step>E</root-step>
                    <root-alter>-1</root-alter>
                </root>
                <kind text="9">dominant-ninth</kind>
            </harmony>
            <note default-y="-15.00" default-x="12.00">
                <pitch>
                    <step>C</step>
                    <octave>5</octave>
                </pitch>
                <duration>2</duration>
                <tie type="start"/>
                <voice>1</voice>
                <type>quarter</type>
                <stem>down</stem>
                <notations>
                    <tied type="start"/>
                </notations>
            </note>
            <note default-y="-15.00" default-x="48.57">
                <pitch>
                    <step>C</step>
                    <octave>5</octave>
                </pitch>
                <duration>1</duration>
                <tie type="stop"/>
                <voice>1</voice>
                <type>eighth</type>
                <stem>down</stem>
                <beam number="1">begin</beam>
                <notations>
                    <tied type="stop"/>
                </notations>
            </note>
            <note default-y="-20.00" default-x="71.42">
                <pitch>
                    <step>B</step>
                    <alter>-1</alter>
                    <octave>4</octave>
                </pitch>
                <duration>1</duration>
                <voice>1</voice>
                <type>eighth</type>
                <stem>down</stem>
                <beam number="1">end</beam>
            </note>
            <note default-y="-30.00" default-x="94.27">
                <pitch>
                    <step>G</step>
                    <octave>4</octave>
                </pitch>
                <duration>1</duration>
                <voice>1</voice>
                <type>eighth</type>
                <stem>up</stem>
                <beam number="1">begin</beam>
            </note>
            <direction placement="above">
                <direction-type>
                    <words>To Coda</words>
                </direction-type>
            </direction>
            <note default-y="-35.00" default-x="117.13">
                <pitch>
                    <step>F</step>
                    <octave>4</octave>
                </pitch>
                <duration>1</duration>
                <voice>1</voice>
                <type>eighth</type>
                <stem>up</stem>
                <beam number="1">end</beam>
            </note>
            <barline location="right">
                <bar-style>light-heavy</bar-style>
            </barline>
        </measure>
        <measure width="94.14" number="25">
            <harmony print-frame="no">
                <root>
                    <root-step>A</root-step>
                    <root-alter>-1</root-alter>
                </root>
                <kind text="Maj7">major-seventh</kind>
            </harmony>
            <note default-y="-40.00" default-x="15.00">
                <pitch>
                    <step>E</step>
                    <alter>-1</alter>
                    <octave>4</octave>
                </pitch>
                <duration>4</duration>
                <voice>1</voice>
                <type>half</type>
                <accidental>flat</accidental>
                <stem>up</stem>
            </note>
            <note default-y="-50.00" default-x="62.72">
                <pitch>
                    <step>C</step>
                    <octave>4</octave>
                </pitch>
                <duration>2</duration>
                <voice>1</voice>
                <type>quarter</type>
                <stem>up</stem>
            </note>
        </measure>
        <measure width="91.14" number="26">
            <direction>
                <direction-type>
                    <words default-y="100">G+7</words>
                </direction-type>
            </direction>
            <note default-y="-30.00" default-x="12.00">
                <pitch>
                    <step>G</step>
                    <octave>4</octave>
                </pitch>
                <duration>4</duration>
                <voice>1</voice>
                <type>half</type>
                <stem>up</stem>
            </note>
            <note default-y="-35.00" default-x="59.72">
                <pitch>
                    <step>F</step>
                    <octave>4</octave>
                </pitch>
                <duration>2</duration>
                <voice>1</voice>
                <type>quarter</type>
                <stem>up</stem>
            </note>
        </measure>
        <measure width="94.14" number="27">
            <harmony print-frame="no">
                <root>
                    <root-step>C</root-step>
                </root>
                <kind text="m7">minor-seventh</kind>
            </harmony>
            <note default-y="-40.00" default-x="15.00">
                <pitch>
                    <step>E</step>
                    <alter>-1</alter>
                    <octave>4</octave>
                </pitch>
                <duration>4</duration>
                <voice>1</voice>
                <type>half</type>
                <accidental>flat</accidental>
                <stem>up</stem>
            </note>
            <note default-y="-50.00" default-x="62.72">
                <pitch>
                    <step>C</step>
                    <octave>4</octave>
                </pitch>
                <duration>2</duration>
                <voice>1</voice>
                <type>quarter</type>
                <stem>up</stem>
            </note>
        </measure>
        <measure width="91.14" number="28">
            <harmony print-frame="no">
                <root>
                    <root-step>F</root-step>
                </root>
                <kind text="m7">minor-seventh</kind>
            </harmony>
            <note default-y="-30.00" default-x="12.00">
                <pitch>
                    <step>G</step>
                    <octave>4</octave>
                </pitch>
                <duration>4</duration>
                <voice>1</voice>
                <type>half</type>
                <stem>up</stem>
            </note>
            <note default-y="-35.00" default-x="59.72">
                <pitch>
                    <step>F</step>
                    <octave>4</octave>
                </pitch>
                <duration>2</duration>
                <voice>1</voice>
                <type>quarter</type>
                <stem>up</stem>
            </note>
        </measure>
        <measure width="95.94" number="29">
            <harmony print-frame="no">
                <root>
                    <root-step>E</root-step>
                </root>
                <kind text="9b5">dominant-ninth</kind>
                <degree>
                    <degree-value>5</degree-value>
                    <degree-alter>-1</degree-alter>
                    <degree-type>alter</degree-type>
                </degree>
            </harmony>
            <note default-y="-35.00" default-x="16.80">
                <pitch>
                    <step>F</step>
                    <alter>1</alter>
                    <octave>4</octave>
                </pitch>
                <duration>4</duration>
                <voice>1</voice>
                <type>half</type>
                <accidental>sharp</accidental>
                <stem>up</stem>
            </note>
            <note default-y="-20.00" default-x="64.52">
                <pitch>
                    <step>B</step>
                    <alter>-1</alter>
                    <octave>4</octave>
                </pitch>
                <duration>2</duration>
                <voice>1</voice>
                <type>quarter</type>
                <stem>down</stem>
            </note>
        </measure>
        <measure width="196.18" number="30">
            <print new-system="yes">
                <system-layout>
                    <system-margins>
                        <left-margin>0.00</left-margin>
                        <right-margin>-0.00</right-margin>
                    </system-margins>
                    <system-distance>92.50</system-distance>
                </system-layout>
            </print>
            <note default-y="-10.00" default-x="62.35">
                <pitch>
                    <step>D</step>
                    <octave>5</octave>
                </pitch>
                <duration>4</duration>
                <voice>1</voice>
                <type>half</type>
                <stem>down</stem>
            </note>
            <note default-y="-20.00" default-x="143.72">
                <pitch>
                    <step>B</step>
                    <alter>-1</alter>
                    <octave>4</octave>
                </pitch>
                <duration>2</duration>
                <voice>1</voice>
                <type>quarter</type>
                <stem>down</stem>
            </note>
        </measure>
        <measure width="145.83" number="31">
            <harmony print-frame="no">
                <root>
                    <root-step>E</root-step>
                    <root-alter>-1</root-alter>
                </root>
                <kind text="13">dominant-13th</kind>
            </harmony>
            <note default-y="-15.00" default-x="12.00">
                <pitch>
                    <step>C</step>
                    <octave>5</octave>
                </pitch>
                <duration>4</duration>
                <voice>1</voice>
                <type>half</type>
                <stem>down</stem>
            </note>
            <note default-y="-20.00" default-x="93.37">
                <pitch>
                    <step>B</step>
                    <alter>-1</alter>
                    <octave>4</octave>
                </pitch>
                <duration>2</duration>
                <voice>1</voice>
                <type>quarter</type>
                <stem>down</stem>
            </note>
        </measure>
        <measure width="145.83" number="32">
            <note default-y="-30.00" default-x="12.00">
                <pitch>
                    <step>G</step>
                    <octave>4</octave>
                </pitch>
                <duration>4</duration>
                <voice>1</voice>
                <type>half</type>
                <stem>up</stem>
            </note>
            <note default-y="-35.00" default-x="93.37">
                <pitch>
                    <step>F</step>
                    <octave>4</octave>
                </pitch>
                <duration>2</duration>
                <voice>1</voice>
                <type>quarter</type>
                <stem>up</stem>
            </note>
        </measure>
        <measure width="148.83" number="33">
            <harmony print-frame="no">
                <root>
                    <root-step>A</root-step>
                    <root-alter>-1</root-alter>
                </root>
                <kind text="Maj7">major-seventh</kind>
            </harmony>
            <note default-y="-40.00" default-x="15.00">
                <pitch>
                    <step>E</step>
                    <alter>-1</alter>
                    <octave>4</octave>
                </pitch>
                <duration>4</duration>
                <voice>1</voice>
                <type>half</type>
                <accidental>flat</accidental>
                <stem>up</stem>
            </note>
            <note default-y="-50.00" default-x="96.37">
                <pitch>
                    <step>C</step>
                    <octave>4</octave>
                </pitch>
                <duration>2</duration>
                <voice>1</voice>
                <type>quarter</type>
                <stem>up</stem>
            </note>
        </measure>
        <measure width="145.83" number="34">
            <direction>
                <direction-type>
                    <words default-y="100">G+7</words>
                </direction-type>
            </direction>
            <note default-y="-30.00" default-x="12.00">
                <pitch>
                    <step>G</step>
                    <octave>4</octave>
                </pitch>
                <duration>4</duration>
                <voice>1</voice>
                <type>half</type>
                <stem>up</stem>
            </note>
            <note default-y="-35.00" default-x="93.37">
                <pitch>
                    <step>F</step>
                    <octave>4</octave>
                </pitch>
                <duration>2</duration>
                <voice>1</voice>
                <type>quarter</type>
                <stem>up</stem>
            </note>
        </measure>
        <measure width="148.83" number="35">
            <harmony print-frame="no">
                <root>
                    <root-step>C</root-step>
                </root>
                <kind text="m7">minor-seventh</kind>
            </harmony>
            <note default-y="-40.00" default-x="15.00">
                <pitch>
                    <step>E</step>
                    <alter>-1</alter>
                    <octave>4</octave>
                </pitch>
                <duration>4</duration>
                <voice>1</voice>
                <type>half</type>
                <accidental>flat</accidental>
                <stem>up</stem>
            </note>
            <note default-y="-50.00" default-x="96.37">
                <pitch>
                    <step>C</step>
                    <octave>4</octave>
                </pitch>
                <duration>2</duration>
                <voice>1</voice>
                <type>quarter</type>
                <stem>up</stem>
            </note>
        </measure>
        <measure width="145.83" number="36">
            <harmony print-frame="no">
                <root>
                    <root-step>F</root-step>
                </root>
                <kind text="m7">minor-seventh</kind>
            </harmony>
            <note default-y="-30.00" default-x="12.00">
                <pitch>
                    <step>G</step>
                    <octave>4</octave>
                </pitch>
                <duration>4</duration>
                <voice>1</voice>
                <type>half</type>
                <stem>up</stem>
            </note>
            <note default-y="-35.00" default-x="93.37">
                <pitch>
                    <step>F</step>
                    <octave>4</octave>
                </pitch>
                <duration>2</duration>
                <voice>1</voice>
                <type>quarter</type>
                <stem>up</stem>
            </note>
        </measure>
        <measure width="224.75" number="37">
            <print new-system="yes">
                <system-layout>
                    <system-margins>
                        <left-margin>0.00</left-margin>
                        <right-margin>0.00</right-margin>
                    </system-margins>
                    <system-distance>92.50</system-distance>
                </system-layout>
            </print>
            <harmony print-frame="no">
                <root>
                    <root-step>E</root-step>
                </root>
                <kind text="9b5">dominant-ninth</kind>
                <degree>
                    <degree-value>5</degree-value>
                    <degree-alter>-1</degree-alter>
                    <degree-type>alter</degree-type>
                </degree>
            </harmony>
            <note default-y="-35.00" default-x="75.55">
                <pitch>
                    <step>F</step>
                    <alter>1</alter>
                    <octave>4</octave>
                </pitch>
                <duration>4</duration>
                <voice>1</voice>
                <type>half</type>
                <accidental>sharp</accidental>
                <stem>up</stem>
            </note>
            <note default-y="-20.00" default-x="166.38">
                <pitch>
                    <step>B</step>
                    <alter>-1</alter>
                    <octave>4</octave>
                </pitch>
                <duration>2</duration>
                <voice>1</voice>
                <type>quarter</type>
                <stem>down</stem>
            </note>
        </measure>
        <measure width="161.20" number="38">
            <note default-y="-10.00" default-x="12.00">
                <pitch>
                    <step>D</step>
                    <octave>5</octave>
                </pitch>
                <duration>4</duration>
                <voice>1</voice>
                <type>half</type>
                <stem>down</stem>
            </note>
            <note default-y="-20.00" default-x="102.83">
                <pitch>
                    <step>B</step>
                    <alter>-1</alter>
                    <octave>4</octave>
                </pitch>
                <duration>2</duration>
                <voice>1</voice>
                <type>quarter</type>
                <stem>down</stem>
            </note>
        </measure>
        <measure width="177.62" number="39">
            <harmony print-frame="no">
                <root>
                    <root-step>E</root-step>
                    <root-alter>-1</root-alter>
                </root>
                <kind text="9b5">dominant-ninth</kind>
                <degree>
                    <degree-value>5</degree-value>
                    <degree-alter>-1</degree-alter>
                    <degree-type>alter</degree-type>
                </degree>
            </harmony>
            <note default-y="-30.00" default-x="12.00">
                <pitch>
                    <step>G</step>
                    <octave>4</octave>
                </pitch>
                <duration>2</duration>
                <voice>1</voice>
                <type>quarter</type>
                <stem>up</stem>
            </note>
            <note default-y="-25.00" default-x="66.67">
                <pitch>
                    <step>A</step>
                    <octave>4</octave>
                </pitch>
                <duration>2</duration>
                <voice>1</voice>
                <type>quarter</type>
                <stem>up</stem>
            </note>
            <note default-y="-15.00" default-x="121.35">
                <pitch>
                    <step>C</step>
                    <octave>5</octave>
                </pitch>
                <duration>2</duration>
                <voice>1</voice>
                <type>quarter</type>
                <stem>down</stem>
            </note>
        </measure>
        <measure width="202.52" number="40">
            <note default-y="-30.00" default-x="12.00">
                <pitch>
                    <step>G</step>
                    <octave>4</octave>
                </pitch>
                <duration>2</duration>
                <voice>1</voice>
                <type>quarter</type>
                <stem>up</stem>
            </note>
            <note default-y="-35.00" default-x="70.47">
                <pitch>
                    <step>F</step>
                    <octave>4</octave>
                </pitch>
                <duration>2</duration>
                <voice>1</voice>
                <type>quarter</type>
                <stem>up</stem>
            </note>
            <note default-y="-40.00" default-x="128.95">
                <pitch>
                    <step>E</step>
                    <alter>-1</alter>
                    <octave>4</octave>
                </pitch>
                <duration>2</duration>
                <voice>1</voice>
                <type>quarter</type>
                <accidental>flat</accidental>
                <stem>up</stem>
            </note>
            <barline location="right">
                <bar-style>light-heavy</bar-style>
                <repeat direction="backward"/>
            </barline>
        </measure>
        <measure width="152.54" number="41">
            <direction placement="above">
                <direction-type>
                    <words>Coda</words>
                </direction-type>
            </direction>
            <note default-y="-15.00" default-x="12.00">
                <pitch>
                    <step>C</step>
                    <octave>5</octave>
                </pitch>
                <duration>6</duration>
                <voice>1</voice>
                <type>half</type>
                <dot/>
                <stem>down</stem>
            </note>
        </measure>
        <measure width="158.54" number="42">
            <note default-y="5.00" default-x="12.00">
                <pitch>
                    <step>G</step>
                    <octave>5</octave>
                </pitch>
                <duration>6</duration>
                <voice>1</voice>
                <type>half</type>
                <dot/>
                <stem>down</stem>
            </note>
            <barline location="right">
                <bar-style>light-heavy</bar-style>
            </barline>
        </measure>
    </part>
</score-partwise>
