<?xml version="1.0" encoding="UTF-8"?>
<!DOCTYPE score-partwise PUBLIC "-//Recordare//DTD MusicXML 2.0 Partwise//EN" "http://www.musicxml.org/dtds/partwise.dtd">
<score-partwise version="2.0">
    <work>
        <work-number></work-number>
        <work-title></work-title>
    </work>
    <movement-number></movement-number>
    <movement-title>Anna var i Anders kær</movement-title>
    <identification>
        <creator type="composer">Saxtorph-Mikkelsen J. 1906</creator>
        <creator type="poet">Aakjær, Jeppe 1906</creator>
        <rights>All Rights Reserved</rights>
        <encoding>
            <encoding-date>2013-05-01</encoding-date>
            <encoder>ERLAND THOMSEN</encoder>
            <software>Sibelius 7.1.3</software>
            <software>Direct export, not from Dolet</software>
            <encoding-description>Sibelius / MusicXML 3.0</encoding-description>
            <supports value="yes" type="yes" element="print" attribute="new-system"/>
            <supports value="yes" type="yes" element="print" attribute="new-page"/>
            <supports type="yes" element="accidental"/>
            <supports type="yes" element="beam"/>
            <supports type="yes" element="stem"/>
            <software>ProxyMusic 2.0 c</software>
        </encoding>
        <source>http://wikifonia.org/node/22180/revisions/29258/view</source>
    </identification>
    <defaults>
        <scaling>
            <millimeters>210</millimeters>
            <tenths>1217</tenths>
        </scaling>
        <page-layout>
            <page-height>1721</page-height>
            <page-width>1217</page-width>
            <page-margins type="both">
                <left-margin>73</left-margin>
                <right-margin>73</right-margin>
                <top-margin>73</top-margin>
                <bottom-margin>73</bottom-margin>
            </page-margins>
        </page-layout>
        <system-layout>
            <system-margins>
                <left-margin>22</left-margin>
                <right-margin>0</right-margin>
            </system-margins>
            <system-distance>122</system-distance>
        </system-layout>
        <appearance>
            <line-width type="stem">0.9375</line-width>
            <line-width type="beam">5</line-width>
            <line-width type="staff">0.9375</line-width>
            <line-width type="light barline">1.5625</line-width>
            <line-width type="heavy barline">5</line-width>
            <line-width type="leger">1.5625</line-width>
            <line-width type="ending">1.5625</line-width>
            <line-width type="wedge">1.25</line-width>
            <line-width type="enclosure">0.9375</line-width>
            <line-width type="tuplet bracket">1.25</line-width>
            <line-width type="bracket">5</line-width>
            <line-width type="dashes">1.5625</line-width>
            <line-width type="extend">0.9375</line-width>
            <line-width type="octave shift">1.5625</line-width>
            <line-width type="pedal">1.5625</line-width>
            <line-width type="slur middle">1.5625</line-width>
            <line-width type="slur tip">0.625</line-width>
            <line-width type="tie middle">1.5625</line-width>
            <line-width type="tie tip">0.625</line-width>
            <note-size type="cue">75</note-size>
            <note-size type="grace">60</note-size>
        </appearance>
        <music-font font-size="19.5591" font-family="Opus Std"/>
        <lyric-font font-size="11.3076" font-family="Plantin MT Std"/>
        <lyric-language/>
    </defaults>
    <credit page="1">
        <credit-words font-weight="normal" font-style="normal" font-size="21.6983" font-family="Plantin MT Std" default-y="155" default-x="608" justify="center" valign="middle">Anna var i Anders kær</credit-words>
    </credit>
    <credit page="1">
        <credit-words font-weight="normal" font-style="normal" font-size="9.9323" font-family="Plantin MT Std" default-y="73" default-x="608" justify="center" valign="middle">Copyright © E. Thomsen</credit-words>
    </credit>
    <part-list>
        <score-part id="P1">
            <part-name> </part-name>
            <part-name-display>
                <display-text> </display-text>
            </part-name-display>
            <part-abbreviation> </part-abbreviation>
            <part-abbreviation-display>
                <display-text> </display-text>
            </part-abbreviation-display>
            <score-instrument id="P1-I1">
                <instrument-name> </instrument-name>
            </score-instrument>
        </score-part>
    </part-list>
    <part id="P1">
        <measure width="254" number="1">
            <print new-page="yes">
                <system-layout>
                    <system-margins>
                        <left-margin>22</left-margin>
                        <right-margin>0</right-margin>
                    </system-margins>
                    <top-system-distance>206</top-system-distance>
                </system-layout>
            </print>
            <attributes>
                <divisions>256</divisions>
                <key color="#000000">
                    <fifths>2</fifths>
                    <mode>major</mode>
                </key>
                <time color="#000000">
                    <beats>2</beats>
                    <beat-type>4</beat-type>
                </time>
                <staves>1</staves>
                <clef color="#000000" number="1">
                    <sign>G</sign>
                    <line>2</line>
                </clef>
                <staff-details print-object="yes" number="1"/>
            </attributes>
            <harmony default-y="25" color="#000000">
                <root>
                    <root-step>D</root-step>
                </root>
                <kind>major</kind>
                <staff>1</staff>
            </harmony>
            <note default-y="-10" default-x="101" color="#000000">
                <pitch>
                    <step>D</step>
                    <octave>4</octave>
                </pitch>
                <duration>192</duration>
                <instrument id="P1-I1"/>
                <voice>1</voice>
                <type>eighth</type>
                <dot/>
                <stem>up</stem>
                <staff>1</staff>
                <beam number="1">begin</beam>
            </note>
            <note default-y="-10" default-x="147" color="#000000">
                <pitch>
                    <step>D</step>
                    <octave>4</octave>
                </pitch>
                <duration>64</duration>
                <instrument id="P1-I1"/>
                <voice>1</voice>
                <type>16th</type>
                <stem>up</stem>
                <staff>1</staff>
                <beam number="1">end</beam>
                <beam number="2">backward hook</beam>
            </note>
            <note default-y="-20" default-x="177" color="#000000">
                <pitch>
                    <step>A</step>
                    <octave>3</octave>
                </pitch>
                <duration>192</duration>
                <instrument id="P1-I1"/>
                <voice>1</voice>
                <type>eighth</type>
                <dot/>
                <stem>up</stem>
                <staff>1</staff>
                <beam number="1">begin</beam>
            </note>
            <note default-y="-20" default-x="224" color="#000000">
                <pitch>
                    <step>A</step>
                    <octave>3</octave>
                </pitch>
                <duration>64</duration>
                <instrument id="P1-I1"/>
                <voice>1</voice>
                <type>16th</type>
                <stem>up</stem>
                <staff>1</staff>
                <beam number="1">end</beam>
                <beam number="2">backward hook</beam>
            </note>
        </measure>
        <measure width="167" number="2">
            <note default-y="-10" default-x="15" color="#000000">
                <pitch>
                    <step>D</step>
                    <octave>4</octave>
                </pitch>
                <duration>192</duration>
                <instrument id="P1-I1"/>
                <voice>1</voice>
                <type>eighth</type>
                <dot/>
                <stem>up</stem>
                <staff>1</staff>
                <beam number="1">begin</beam>
            </note>
            <note default-y="-10" default-x="61" color="#000000">
                <pitch>
                    <step>D</step>
                    <octave>4</octave>
                </pitch>
                <duration>64</duration>
                <instrument id="P1-I1"/>
                <voice>1</voice>
                <type>16th</type>
                <stem>up</stem>
                <staff>1</staff>
                <beam number="1">end</beam>
                <beam number="2">backward hook</beam>
            </note>
            <note default-x="91" color="#000000">
                <pitch>
                    <step>F</step>
                    <alter>1</alter>
                    <octave>4</octave>
                </pitch>
                <duration>192</duration>
                <instrument id="P1-I1"/>
                <voice>1</voice>
                <type>eighth</type>
                <dot/>
                <stem>up</stem>
                <staff>1</staff>
                <beam number="1">begin</beam>
            </note>
            <note default-x="137" color="#000000">
                <pitch>
                    <step>F</step>
                    <alter>1</alter>
                    <octave>4</octave>
                </pitch>
                <duration>64</duration>
                <instrument id="P1-I1"/>
                <voice>1</voice>
                <type>16th</type>
                <stem>up</stem>
                <staff>1</staff>
                <beam number="1">end</beam>
                <beam number="2">backward hook</beam>
            </note>
        </measure>
        <measure width="167" number="3">
            <harmony default-y="25" color="#000000">
                <root>
                    <root-step>G</root-step>
                </root>
                <kind>major</kind>
                <staff>1</staff>
            </harmony>
            <note default-y="-7" default-x="15" color="#000000">
                <pitch>
                    <step>E</step>
                    <octave>4</octave>
                </pitch>
                <duration>192</duration>
                <instrument id="P1-I1"/>
                <voice>1</voice>
                <type>eighth</type>
                <dot/>
                <stem>up</stem>
                <staff>1</staff>
                <beam number="1">begin</beam>
            </note>
            <note default-y="-7" default-x="61" color="#000000">
                <pitch>
                    <step>E</step>
                    <octave>4</octave>
                </pitch>
                <duration>64</duration>
                <instrument id="P1-I1"/>
                <voice>1</voice>
                <type>16th</type>
                <stem>up</stem>
                <staff>1</staff>
                <beam number="1">end</beam>
                <beam number="2">backward hook</beam>
            </note>
            <note default-y="-20" default-x="91" color="#000000">
                <pitch>
                    <step>B</step>
                    <octave>3</octave>
                </pitch>
                <duration>192</duration>
                <instrument id="P1-I1"/>
                <voice>1</voice>
                <type>eighth</type>
                <dot/>
                <stem>up</stem>
                <staff>1</staff>
                <beam number="1">begin</beam>
            </note>
            <note default-y="-20" default-x="137" color="#000000">
                <pitch>
                    <step>B</step>
                    <octave>3</octave>
                </pitch>
                <duration>64</duration>
                <instrument id="P1-I1"/>
                <voice>1</voice>
                <type>16th</type>
                <stem>up</stem>
                <staff>1</staff>
                <beam number="1">end</beam>
                <beam number="2">backward hook</beam>
            </note>
        </measure>
        <measure width="123" number="4">
            <harmony default-y="25" color="#000000">
                <root>
                    <root-step>E</root-step>
                </root>
                <kind>minor</kind>
                <staff>1</staff>
            </harmony>
            <note default-y="-20" default-x="15" color="#000000">
                <pitch>
                    <step>B</step>
                    <octave>3</octave>
                </pitch>
                <duration>256</duration>
                <instrument id="P1-I1"/>
                <voice>1</voice>
                <type>quarter</type>
                <stem>up</stem>
                <staff>1</staff>
            </note>
            <note default-x="69">
                <rest/>
                <duration>256</duration>
                <instrument id="P1-I1"/>
                <voice>1</voice>
                <type>quarter</type>
                <staff>1</staff>
            </note>
        </measure>
        <measure width="167" number="5">
            <harmony default-y="25" color="#000000">
                <root>
                    <root-step>A</root-step>
                </root>
                <kind>dominant</kind>
                <staff>1</staff>
            </harmony>
            <note default-y="-17" default-x="15" color="#000000">
                <pitch>
                    <step>C</step>
                    <alter>1</alter>
                    <octave>4</octave>
                </pitch>
                <duration>192</duration>
                <instrument id="P1-I1"/>
                <voice>1</voice>
                <type>eighth</type>
                <dot/>
                <stem>up</stem>
                <staff>1</staff>
                <beam number="1">begin</beam>
            </note>
            <note default-y="-17" default-x="61" color="#000000">
                <pitch>
                    <step>C</step>
                    <alter>1</alter>
                    <octave>4</octave>
                </pitch>
                <duration>64</duration>
                <instrument id="P1-I1"/>
                <voice>1</voice>
                <type>16th</type>
                <stem>up</stem>
                <staff>1</staff>
                <beam number="1">end</beam>
                <beam number="2">backward hook</beam>
            </note>
            <note default-y="-10" default-x="91" color="#000000">
                <pitch>
                    <step>C</step>
                    <alter>1</alter>
                    <octave>4</octave>
                </pitch>
                <duration>192</duration>
                <instrument id="P1-I1"/>
                <voice>1</voice>
                <type>eighth</type>
                <dot/>
                <stem>up</stem>
                <staff>1</staff>
                <beam number="1">begin</beam>
            </note>
            <note default-y="-10" default-x="137" color="#000000">
                <pitch>
                    <step>D</step>
                    <octave>4</octave>
                </pitch>
                <duration>64</duration>
                <instrument id="P1-I1"/>
                <voice>1</voice>
                <type>16th</type>
                <stem>up</stem>
                <staff>1</staff>
                <beam number="1">end</beam>
                <beam number="2">backward hook</beam>
            </note>
        </measure>
        <measure width="167" number="6">
            <note default-y="-7" default-x="15" color="#000000">
                <pitch>
                    <step>E</step>
                    <octave>4</octave>
                </pitch>
                <duration>192</duration>
                <instrument id="P1-I1"/>
                <voice>1</voice>
                <type>eighth</type>
                <dot/>
                <stem>up</stem>
                <staff>1</staff>
                <beam number="1">begin</beam>
            </note>
            <note default-y="-7" default-x="61" color="#000000">
                <pitch>
                    <step>E</step>
                    <octave>4</octave>
                </pitch>
                <duration>64</duration>
                <instrument id="P1-I1"/>
                <voice>1</voice>
                <type>16th</type>
                <stem>up</stem>
                <staff>1</staff>
                <beam number="1">end</beam>
                <beam number="2">backward hook</beam>
            </note>
            <note default-y="-5" default-x="91" color="#000000">
                <pitch>
                    <step>F</step>
                    <alter>1</alter>
                    <octave>4</octave>
                </pitch>
                <duration>192</duration>
                <instrument id="P1-I1"/>
                <voice>1</voice>
                <type>eighth</type>
                <dot/>
                <stem>up</stem>
                <staff>1</staff>
                <beam number="1">begin</beam>
            </note>
            <note default-y="-5" default-x="137" color="#000000">
                <pitch>
                    <step>E</step>
                    <octave>4</octave>
                </pitch>
                <duration>64</duration>
                <instrument id="P1-I1"/>
                <voice>1</voice>
                <type>16th</type>
                <stem>up</stem>
                <staff>1</staff>
                <beam number="1">end</beam>
                <beam number="2">backward hook</beam>
            </note>
        </measure>
        <measure width="246" number="7">
            <print new-system="yes">
                <system-layout>
                    <system-margins>
                        <left-margin>22</left-margin>
                        <right-margin>0</right-margin>
                    </system-margins>
                    <system-distance>110</system-distance>
                </system-layout>
            </print>
            <attributes>
                <staff-details print-object="yes" number="1"/>
            </attributes>
            <harmony default-y="25" color="#000000">
                <root>
                    <root-step>D</root-step>
                </root>
                <kind>major</kind>
                <staff>1</staff>
            </harmony>
            <note default-y="-10" default-x="82" color="#000000">
                <pitch>
                    <step>D</step>
                    <octave>4</octave>
                </pitch>
                <duration>192</duration>
                <instrument id="P1-I1"/>
                <voice>1</voice>
                <type>eighth</type>
                <dot/>
                <stem>up</stem>
                <staff>1</staff>
                <beam number="1">begin</beam>
            </note>
            <note default-y="-10" default-x="132" color="#000000">
                <pitch>
                    <step>D</step>
                    <octave>4</octave>
                </pitch>
                <duration>64</duration>
                <instrument id="P1-I1"/>
                <voice>1</voice>
                <type>16th</type>
                <stem>up</stem>
                <staff>1</staff>
                <beam number="1">end</beam>
                <beam number="2">backward hook</beam>
            </note>
            <harmony default-y="25" color="#000000">
                <root>
                    <root-step>G</root-step>
                </root>
                <kind>major</kind>
                <staff>1</staff>
            </harmony>
            <note default-y="-10" default-x="164" color="#000000">
                <pitch>
                    <step>D</step>
                    <octave>4</octave>
                </pitch>
                <duration>192</duration>
                <instrument id="P1-I1"/>
                <voice>1</voice>
                <type>eighth</type>
                <dot/>
                <stem>up</stem>
                <staff>1</staff>
                <beam number="1">begin</beam>
            </note>
            <note default-y="-10" default-x="214" color="#000000">
                <pitch>
                    <step>D</step>
                    <octave>4</octave>
                </pitch>
                <duration>64</duration>
                <instrument id="P1-I1"/>
                <voice>1</voice>
                <type>16th</type>
                <stem>up</stem>
                <staff>1</staff>
                <beam number="1">end</beam>
                <beam number="2">backward hook</beam>
            </note>
        </measure>
        <measure width="131" number="8">
            <harmony default-y="25" color="#000000">
                <root>
                    <root-step>D</root-step>
                </root>
                <kind>major</kind>
                <staff>1</staff>
            </harmony>
            <note default-y="-10" default-x="15" color="#000000">
                <pitch>
                    <step>D</step>
                    <octave>4</octave>
                </pitch>
                <duration>256</duration>
                <instrument id="P1-I1"/>
                <voice>1</voice>
                <type>quarter</type>
                <stem>up</stem>
                <staff>1</staff>
            </note>
            <note default-x="73">
                <rest/>
                <duration>256</duration>
                <instrument id="P1-I1"/>
                <voice>1</voice>
                <type>quarter</type>
                <staff>1</staff>
            </note>
        </measure>
        <measure width="179" number="9">
            <harmony default-y="25" color="#000000">
                <root>
                    <root-step>D</root-step>
                </root>
                <kind>major</kind>
                <staff>1</staff>
            </harmony>
            <note default-x="15" color="#000000">
                <pitch>
                    <step>F</step>
                    <alter>1</alter>
                    <octave>4</octave>
                </pitch>
                <duration>192</duration>
                <instrument id="P1-I1"/>
                <voice>1</voice>
                <type>eighth</type>
                <dot/>
                <stem>up</stem>
                <staff>1</staff>
                <beam number="1">begin</beam>
            </note>
            <note default-x="64" color="#000000">
                <pitch>
                    <step>F</step>
                    <alter>1</alter>
                    <octave>4</octave>
                </pitch>
                <duration>64</duration>
                <instrument id="P1-I1"/>
                <voice>1</voice>
                <type>16th</type>
                <stem>up</stem>
                <staff>1</staff>
                <beam number="1">end</beam>
                <beam number="2">backward hook</beam>
            </note>
            <note default-x="97" color="#000000">
                <pitch>
                    <step>F</step>
                    <alter>1</alter>
                    <octave>4</octave>
                </pitch>
                <duration>192</duration>
                <instrument id="P1-I1"/>
                <voice>1</voice>
                <type>eighth</type>
                <dot/>
                <stem>up</stem>
                <staff>1</staff>
                <beam number="1">begin</beam>
            </note>
            <note default-x="146" color="#000000">
                <pitch>
                    <step>G</step>
                    <octave>4</octave>
                </pitch>
                <duration>64</duration>
                <instrument id="P1-I1"/>
                <voice>1</voice>
                <type>16th</type>
                <stem>up</stem>
                <staff>1</staff>
                <beam number="1">end</beam>
                <beam number="2">backward hook</beam>
            </note>
        </measure>
        <measure width="179" number="10">
            <note default-y="9" default-x="15" color="#000000">
                <pitch>
                    <step>A</step>
                    <octave>4</octave>
                </pitch>
                <duration>192</duration>
                <instrument id="P1-I1"/>
                <voice>1</voice>
                <type>eighth</type>
                <dot/>
                <stem>up</stem>
                <staff>1</staff>
                <beam number="1">begin</beam>
            </note>
            <note default-y="9" default-x="64" color="#000000">
                <pitch>
                    <step>A</step>
                    <octave>4</octave>
                </pitch>
                <duration>64</duration>
                <instrument id="P1-I1"/>
                <voice>1</voice>
                <type>16th</type>
                <stem>up</stem>
                <staff>1</staff>
                <beam number="1">end</beam>
                <beam number="2">backward hook</beam>
            </note>
            <note default-y="-10" default-x="96" color="#000000">
                <pitch>
                    <step>D</step>
                    <octave>4</octave>
                </pitch>
                <duration>192</duration>
                <instrument id="P1-I1"/>
                <voice>1</voice>
                <type>eighth</type>
                <dot/>
                <stem>up</stem>
                <staff>1</staff>
                <beam number="1">begin</beam>
            </note>
            <note default-y="-10" default-x="146" color="#000000">
                <pitch>
                    <step>D</step>
                    <octave>4</octave>
                </pitch>
                <duration>64</duration>
                <instrument id="P1-I1"/>
                <voice>1</voice>
                <type>16th</type>
                <stem>up</stem>
                <staff>1</staff>
                <beam number="1">end</beam>
                <beam number="2">backward hook</beam>
            </note>
        </measure>
        <measure width="179" number="11">
            <harmony default-y="25" color="#000000">
                <root>
                    <root-step>G</root-step>
                </root>
                <kind>major</kind>
                <staff>1</staff>
            </harmony>
            <note default-y="-52" default-x="15" color="#000000">
                <pitch>
                    <step>B</step>
                    <octave>4</octave>
                </pitch>
                <duration>192</duration>
                <instrument id="P1-I1"/>
                <voice>1</voice>
                <type>eighth</type>
                <dot/>
                <stem>down</stem>
                <staff>1</staff>
                <beam number="1">begin</beam>
            </note>
            <note default-y="-52" default-x="65" color="#000000">
                <pitch>
                    <step>B</step>
                    <octave>4</octave>
                </pitch>
                <duration>64</duration>
                <instrument id="P1-I1"/>
                <voice>1</voice>
                <type>16th</type>
                <stem>down</stem>
                <staff>1</staff>
                <beam number="1">end</beam>
                <beam number="2">backward hook</beam>
            </note>
            <harmony default-y="25" color="#000000">
                <root>
                    <root-step>A</root-step>
                </root>
                <kind>major</kind>
                <staff>1</staff>
            </harmony>
            <note default-y="4" default-x="97" color="#000000">
                <pitch>
                    <step>A</step>
                    <octave>4</octave>
                </pitch>
                <duration>192</duration>
                <instrument id="P1-I1"/>
                <voice>1</voice>
                <type>eighth</type>
                <dot/>
                <stem>up</stem>
                <staff>1</staff>
                <beam number="1">begin</beam>
            </note>
            <note default-y="4" default-x="147" color="#000000">
                <pitch>
                    <step>G</step>
                    <octave>4</octave>
                </pitch>
                <duration>64</duration>
                <instrument id="P1-I1"/>
                <voice>1</voice>
                <type>16th</type>
                <stem>up</stem>
                <staff>1</staff>
                <beam number="1">end</beam>
                <beam number="2">backward hook</beam>
            </note>
        </measure>
        <measure width="131" number="12">
            <harmony default-y="25" color="#000000">
                <root>
                    <root-step>B</root-step>
                </root>
                <kind>minor</kind>
                <staff>1</staff>
            </harmony>
            <note default-x="15" color="#000000">
                <pitch>
                    <step>F</step>
                    <alter>1</alter>
                    <octave>4</octave>
                </pitch>
                <duration>256</duration>
                <instrument id="P1-I1"/>
                <voice>1</voice>
                <type>quarter</type>
                <stem>up</stem>
                <staff>1</staff>
            </note>
            <note default-x="73">
                <rest/>
                <duration>256</duration>
                <instrument id="P1-I1"/>
                <voice>1</voice>
                <type>quarter</type>
                <staff>1</staff>
            </note>
        </measure>
        <measure width="245" number="13">
            <print new-system="yes">
                <system-layout>
                    <system-margins>
                        <left-margin>22</left-margin>
                        <right-margin>0</right-margin>
                    </system-margins>
                    <system-distance>122</system-distance>
                </system-layout>
            </print>
            <attributes>
                <staff-details print-object="yes" number="1"/>
            </attributes>
            <harmony default-y="25" color="#000000">
                <root>
                    <root-step>E</root-step>
                </root>
                <kind>minor</kind>
                <staff>1</staff>
            </harmony>
            <note default-y="-7" default-x="82" color="#000000">
                <pitch>
                    <step>E</step>
                    <octave>4</octave>
                </pitch>
                <duration>192</duration>
                <instrument id="P1-I1"/>
                <voice>1</voice>
                <type>eighth</type>
                <dot/>
                <stem>up</stem>
                <staff>1</staff>
                <beam number="1">begin</beam>
            </note>
            <note default-y="-7" default-x="132" color="#000000">
                <pitch>
                    <step>E</step>
                    <octave>4</octave>
                </pitch>
                <duration>64</duration>
                <instrument id="P1-I1"/>
                <voice>1</voice>
                <type>16th</type>
                <stem>up</stem>
                <staff>1</staff>
                <beam number="1">end</beam>
                <beam number="2">backward hook</beam>
            </note>
            <note default-x="164" color="#000000">
                <pitch>
                    <step>E</step>
                    <octave>4</octave>
                </pitch>
                <duration>192</duration>
                <instrument id="P1-I1"/>
                <voice>1</voice>
                <type>eighth</type>
                <dot/>
                <stem>up</stem>
                <staff>1</staff>
                <beam number="1">begin</beam>
            </note>
            <note default-x="213" color="#000000">
                <pitch>
                    <step>F</step>
                    <alter>1</alter>
                    <octave>4</octave>
                </pitch>
                <duration>64</duration>
                <instrument id="P1-I1"/>
                <voice>1</voice>
                <type>16th</type>
                <stem>up</stem>
                <staff>1</staff>
                <beam number="1">end</beam>
                <beam number="2">backward hook</beam>
            </note>
        </measure>
        <measure width="178" number="14">
            <note default-y="2" default-x="15" color="#000000">
                <pitch>
                    <step>G</step>
                    <octave>4</octave>
                </pitch>
                <duration>192</duration>
                <instrument id="P1-I1"/>
                <voice>1</voice>
                <type>eighth</type>
                <dot/>
                <stem>up</stem>
                <staff>1</staff>
                <beam number="1">begin</beam>
            </note>
            <note default-y="2" default-x="64" color="#000000">
                <pitch>
                    <step>G</step>
                    <octave>4</octave>
                </pitch>
                <duration>64</duration>
                <instrument id="P1-I1"/>
                <voice>1</voice>
                <type>16th</type>
                <stem>up</stem>
                <staff>1</staff>
                <beam number="1">end</beam>
                <beam number="2">backward hook</beam>
            </note>
            <harmony default-y="25" color="#000000">
                <root>
                    <root-step>A</root-step>
                </root>
                <kind>major</kind>
                <staff>1</staff>
            </harmony>
            <note default-y="-7" default-x="96" color="#000000">
                <pitch>
                    <step>E</step>
                    <octave>4</octave>
                </pitch>
                <duration>192</duration>
                <instrument id="P1-I1"/>
                <voice>1</voice>
                <type>eighth</type>
                <dot/>
                <stem>up</stem>
                <staff>1</staff>
                <beam number="1">begin</beam>
            </note>
            <note default-y="-7" default-x="146" color="#000000">
                <pitch>
                    <step>C</step>
                    <alter>1</alter>
                    <octave>4</octave>
                </pitch>
                <duration>64</duration>
                <instrument id="P1-I1"/>
                <voice>1</voice>
                <type>16th</type>
                <stem>up</stem>
                <staff>1</staff>
                <beam number="1">end</beam>
                <beam number="2">backward hook</beam>
            </note>
        </measure>
        <measure width="178" number="15">
            <harmony default-y="25" color="#000000">
                <root>
                    <root-step>D</root-step>
                </root>
                <kind>major</kind>
                <staff>1</staff>
            </harmony>
            <note default-y="-10" default-x="15" color="#000000">
                <pitch>
                    <step>D</step>
                    <octave>4</octave>
                </pitch>
                <duration>192</duration>
                <instrument id="P1-I1"/>
                <voice>1</voice>
                <type>eighth</type>
                <dot/>
                <stem>up</stem>
                <staff>1</staff>
                <beam number="1">begin</beam>
            </note>
            <note default-y="-10" default-x="64" color="#000000">
                <pitch>
                    <step>D</step>
                    <octave>4</octave>
                </pitch>
                <duration>64</duration>
                <instrument id="P1-I1"/>
                <voice>1</voice>
                <type>16th</type>
                <stem>up</stem>
                <staff>1</staff>
                <beam number="1">end</beam>
                <beam number="2">backward hook</beam>
            </note>
            <harmony default-y="25" color="#000000">
                <root>
                    <root-step>G</root-step>
                </root>
                <kind>major</kind>
                <staff>1</staff>
            </harmony>
            <note default-y="-10" default-x="96" color="#000000">
                <pitch>
                    <step>D</step>
                    <octave>4</octave>
                </pitch>
                <duration>192</duration>
                <instrument id="P1-I1"/>
                <voice>1</voice>
                <type>eighth</type>
                <dot/>
                <stem>up</stem>
                <staff>1</staff>
                <beam number="1">begin</beam>
            </note>
            <note default-y="-10" default-x="146" color="#000000">
                <pitch>
                    <step>D</step>
                    <octave>4</octave>
                </pitch>
                <duration>64</duration>
                <instrument id="P1-I1"/>
                <voice>1</voice>
                <type>16th</type>
                <stem>up</stem>
                <staff>1</staff>
                <beam number="1">end</beam>
                <beam number="2">backward hook</beam>
            </note>
        </measure>
        <measure width="130" number="16">
            <harmony default-y="25" color="#000000">
                <root>
                    <root-step>D</root-step>
                </root>
                <kind>major</kind>
                <staff>1</staff>
            </harmony>
            <note default-y="-10" default-x="15" color="#000000">
                <pitch>
                    <step>D</step>
                    <octave>4</octave>
                </pitch>
                <duration>256</duration>
                <instrument id="P1-I1"/>
                <voice>1</voice>
                <type>quarter</type>
                <stem>up</stem>
                <staff>1</staff>
            </note>
            <note default-x="73">
                <rest/>
                <duration>256</duration>
                <instrument id="P1-I1"/>
                <voice>1</voice>
                <type>quarter</type>
                <staff>1</staff>
            </note>
        </measure>
        <measure width="201" number="17">
            <harmony default-y="25" color="#000000">
                <root>
                    <root-step>D</root-step>
                </root>
                <kind>major</kind>
                <staff>1</staff>
            </harmony>
            <note default-y="-10" default-x="15" color="#000000">
                <pitch>
                    <step>D</step>
                    <octave>4</octave>
                </pitch>
                <duration>256</duration>
                <tie type="start"/>
                <instrument id="P1-I1"/>
                <voice>1</voice>
                <type>quarter</type>
                <stem>up</stem>
                <staff>1</staff>
                <notations>
                    <tied type="start"/>
                </notations>
            </note>
            <note default-y="-10" default-x="72" color="#000000">
                <pitch>
                    <step>D</step>
                    <octave>4</octave>
                </pitch>
                <duration>64</duration>
                <tie type="stop"/>
                <instrument id="P1-I1"/>
                <voice>1</voice>
                <type>16th</type>
                <stem>up</stem>
                <staff>1</staff>
                <beam number="1">begin</beam>
                <beam number="2">begin</beam>
                <notations>
                    <tied type="stop"/>
                </notations>
            </note>
            <note default-y="-10" default-x="105" color="#000000">
                <pitch>
                    <step>C</step>
                    <alter>1</alter>
                    <octave>4</octave>
                </pitch>
                <duration>64</duration>
                <instrument id="P1-I1"/>
                <voice>1</voice>
                <type>16th</type>
                <stem>up</stem>
                <staff>1</staff>
                <beam number="1">continue</beam>
                <beam number="2">continue</beam>
            </note>
            <note default-y="-10" default-x="136" color="#000000">
                <pitch>
                    <step>D</step>
                    <octave>4</octave>
                </pitch>
                <duration>64</duration>
                <instrument id="P1-I1"/>
                <voice>1</voice>
                <type>16th</type>
                <stem>up</stem>
                <staff>1</staff>
                <beam number="1">continue</beam>
                <beam number="2">continue</beam>
            </note>
            <note default-y="-10" default-x="169" color="#000000">
                <pitch>
                    <step>E</step>
                    <octave>4</octave>
                </pitch>
                <duration>64</duration>
                <instrument id="P1-I1"/>
                <voice>1</voice>
                <type>16th</type>
                <stem>up</stem>
                <staff>1</staff>
                <beam number="1">end</beam>
                <beam number="2">end</beam>
            </note>
        </measure>
        <measure width="113" number="18">
            <note default-x="15" color="#000000">
                <pitch>
                    <step>F</step>
                    <alter>1</alter>
                    <octave>4</octave>
                </pitch>
                <duration>512</duration>
                <instrument id="P1-I1"/>
                <voice>1</voice>
                <type>half</type>
                <stem>up</stem>
                <staff>1</staff>
            </note>
        </measure>
        <measure width="247" number="19">
            <print new-system="yes">
                <system-layout>
                    <system-margins>
                        <left-margin>22</left-margin>
                        <right-margin>0</right-margin>
                    </system-margins>
                    <system-distance>122</system-distance>
                </system-layout>
            </print>
            <attributes>
                <staff-details print-object="yes" number="1"/>
            </attributes>
            <harmony default-y="25" color="#000000">
                <root>
                    <root-step>A</root-step>
                </root>
                <kind>dominant</kind>
                <staff>1</staff>
            </harmony>
            <note default-y="2" default-x="82" color="#000000">
                <pitch>
                    <step>G</step>
                    <octave>4</octave>
                </pitch>
                <duration>192</duration>
                <instrument id="P1-I1"/>
                <voice>1</voice>
                <type>eighth</type>
                <dot/>
                <stem>up</stem>
                <staff>1</staff>
                <beam number="1">begin</beam>
            </note>
            <note default-y="2" default-x="132" color="#000000">
                <pitch>
                    <step>F</step>
                    <alter>1</alter>
                    <octave>4</octave>
                </pitch>
                <duration>64</duration>
                <instrument id="P1-I1"/>
                <voice>1</voice>
                <type>16th</type>
                <stem>up</stem>
                <staff>1</staff>
                <beam number="1">end</beam>
                <beam number="2">backward hook</beam>
            </note>
            <note default-x="165" color="#000000">
                <pitch>
                    <step>E</step>
                    <octave>4</octave>
                </pitch>
                <duration>192</duration>
                <instrument id="P1-I1"/>
                <voice>1</voice>
                <type>eighth</type>
                <dot/>
                <stem>up</stem>
                <staff>1</staff>
                <beam number="1">begin</beam>
            </note>
            <note default-x="215" color="#000000">
                <pitch>
                    <step>F</step>
                    <alter>1</alter>
                    <octave>4</octave>
                </pitch>
                <duration>64</duration>
                <instrument id="P1-I1"/>
                <voice>1</voice>
                <type>16th</type>
                <stem>up</stem>
                <staff>1</staff>
                <beam number="1">end</beam>
                <beam number="2">backward hook</beam>
            </note>
        </measure>
        <measure width="114" number="20">
            <harmony default-y="25" color="#000000">
                <root>
                    <root-step>D</root-step>
                </root>
                <kind>major</kind>
                <staff>1</staff>
            </harmony>
            <note default-y="-10" default-x="15" color="#000000">
                <pitch>
                    <step>D</step>
                    <octave>4</octave>
                </pitch>
                <duration>512</duration>
                <instrument id="P1-I1"/>
                <voice>1</voice>
                <type>half</type>
                <stem>up</stem>
                <staff>1</staff>
            </note>
        </measure>
        <measure width="180" number="21">
            <harmony default-y="25" color="#000000">
                <root>
                    <root-step>E</root-step>
                </root>
                <kind>minor</kind>
                <staff>1</staff>
            </harmony>
            <note default-y="2" default-x="15" color="#000000">
                <pitch>
                    <step>G</step>
                    <octave>4</octave>
                </pitch>
                <duration>192</duration>
                <instrument id="P1-I1"/>
                <voice>1</voice>
                <type>eighth</type>
                <dot/>
                <stem>up</stem>
                <staff>1</staff>
                <beam number="1">begin</beam>
            </note>
            <note default-y="2" default-x="65" color="#000000">
                <pitch>
                    <step>G</step>
                    <octave>4</octave>
                </pitch>
                <duration>64</duration>
                <instrument id="P1-I1"/>
                <voice>1</voice>
                <type>16th</type>
                <stem>up</stem>
                <staff>1</staff>
                <beam number="1">end</beam>
                <beam number="2">backward hook</beam>
            </note>
            <harmony default-y="25" color="#000000">
                <root>
                    <root-step>A</root-step>
                </root>
                <kind>dominant</kind>
                <staff>1</staff>
            </harmony>
            <note default-y="-7" default-x="97" color="#000000">
                <pitch>
                    <step>E</step>
                    <octave>4</octave>
                </pitch>
                <duration>192</duration>
                <instrument id="P1-I1"/>
                <voice>1</voice>
                <type>eighth</type>
                <dot/>
                <stem>up</stem>
                <staff>1</staff>
                <beam number="1">begin</beam>
            </note>
            <note default-y="-7" default-x="147" color="#000000">
                <pitch>
                    <step>E</step>
                    <octave>4</octave>
                </pitch>
                <duration>64</duration>
                <instrument id="P1-I1"/>
                <voice>1</voice>
                <type>16th</type>
                <stem>up</stem>
                <staff>1</staff>
                <beam number="1">end</beam>
                <beam number="2">backward hook</beam>
            </note>
        </measure>
        <measure width="179" number="22">
            <harmony default-y="25" color="#000000">
                <root>
                    <root-step>D</root-step>
                </root>
                <kind>major</kind>
                <staff>1</staff>
            </harmony>
            <note default-y="9" default-x="15" color="#000000">
                <pitch>
                    <step>A</step>
                    <octave>4</octave>
                </pitch>
                <duration>192</duration>
                <instrument id="P1-I1"/>
                <voice>1</voice>
                <type>eighth</type>
                <dot/>
                <stem>up</stem>
                <staff>1</staff>
                <beam number="1">begin</beam>
            </note>
            <note default-y="9" default-x="65" color="#000000">
                <pitch>
                    <step>A</step>
                    <octave>4</octave>
                </pitch>
                <duration>64</duration>
                <instrument id="P1-I1"/>
                <voice>1</voice>
                <type>16th</type>
                <stem>up</stem>
                <staff>1</staff>
                <beam number="1">end</beam>
                <beam number="2">backward hook</beam>
            </note>
            <harmony default-y="25" color="#000000">
                <root>
                    <root-step>B</root-step>
                </root>
                <kind>minor</kind>
                <staff>1</staff>
            </harmony>
            <note default-y="-42" default-x="97" color="#000000">
                <pitch>
                    <step>D</step>
                    <octave>5</octave>
                </pitch>
                <duration>192</duration>
                <instrument id="P1-I1"/>
                <voice>1</voice>
                <type>eighth</type>
                <dot/>
                <stem>down</stem>
                <staff>1</staff>
                <beam number="1">begin</beam>
            </note>
            <note default-y="-42" default-x="147" color="#000000">
                <pitch>
                    <step>D</step>
                    <octave>5</octave>
                </pitch>
                <duration>64</duration>
                <instrument id="P1-I1"/>
                <voice>1</voice>
                <type>16th</type>
                <stem>down</stem>
                <staff>1</staff>
                <beam number="1">end</beam>
                <beam number="2">backward hook</beam>
            </note>
        </measure>
        <measure width="179" number="23">
            <harmony default-y="25" color="#000000">
                <root>
                    <root-step>A</root-step>
                </root>
                <kind>dominant</kind>
                <staff>1</staff>
            </harmony>
            <note default-x="15" color="#000000">
                <pitch>
                    <step>F</step>
                    <alter>1</alter>
                    <octave>4</octave>
                </pitch>
                <duration>192</duration>
                <instrument id="P1-I1"/>
                <voice>1</voice>
                <type>eighth</type>
                <dot/>
                <stem>up</stem>
                <staff>1</staff>
                <beam number="1">begin</beam>
            </note>
            <note default-x="65" color="#000000">
                <pitch>
                    <step>F</step>
                    <alter>1</alter>
                    <octave>4</octave>
                </pitch>
                <duration>64</duration>
                <instrument id="P1-I1"/>
                <voice>1</voice>
                <type>16th</type>
                <stem>up</stem>
                <staff>1</staff>
                <beam number="1">end</beam>
                <beam number="2">backward hook</beam>
            </note>
            <note default-y="-7" default-x="97" color="#000000">
                <pitch>
                    <step>E</step>
                    <octave>4</octave>
                </pitch>
                <duration>192</duration>
                <instrument id="P1-I1"/>
                <voice>1</voice>
                <type>eighth</type>
                <dot/>
                <stem>up</stem>
                <staff>1</staff>
                <beam number="1">begin</beam>
            </note>
            <note default-y="-7" default-x="147" color="#000000">
                <pitch>
                    <step>E</step>
                    <octave>4</octave>
                </pitch>
                <duration>64</duration>
                <instrument id="P1-I1"/>
                <voice>1</voice>
                <type>16th</type>
                <stem>up</stem>
                <staff>1</staff>
                <beam number="1">end</beam>
                <beam number="2">backward hook</beam>
            </note>
        </measure>
        <measure width="147" number="24">
            <harmony default-y="25" color="#000000">
                <root>
                    <root-step>D</root-step>
                </root>
                <kind>major</kind>
                <staff>1</staff>
            </harmony>
            <note default-y="-10" default-x="15" color="#000000">
                <pitch>
                    <step>D</step>
                    <octave>4</octave>
                </pitch>
                <duration>256</duration>
                <instrument id="P1-I1"/>
                <voice>1</voice>
                <type>quarter</type>
                <stem>up</stem>
                <staff>1</staff>
            </note>
            <note default-x="73">
                <rest/>
                <duration>256</duration>
                <instrument id="P1-I1"/>
                <voice>1</voice>
                <type>quarter</type>
                <staff>1</staff>
            </note>
            <barline location="right">
                <bar-style>light-heavy</bar-style>
            </barline>
        </measure>
    </part>
</score-partwise>
