<?xml version="1.0" encoding="UTF-8"?>
<!DOCTYPE score-partwise PUBLIC "-//Recordare//DTD MusicXML 2.0 Partwise//EN" "http://www.musicxml.org/dtds/partwise.dtd">
<score-partwise version="2.0">
    <work>
        <work-number></work-number>
        <work-title></work-title>
    </work>
    <movement-number></movement-number>
    <movement-title>American Funk</movement-title>
    <identification>
        <creator type="composer">Sean Barrett Jr</creator>
        <creator type="poet"></creator>
        <rights>All Rights Reserved</rights>
        <encoding>
            <software>Noteflight version 0.3.1</software>
            <encoding-date>2011-08-07</encoding-date>
            <supports value="no" type="no" element="print" attribute="new-system"/>
            <supports value="no" type="no" element="print" attribute="new-page"/>
            <software>ProxyMusic 2.0 c</software>
        </encoding>
        <source>http://wikifonia.org/node/12054/revisions/16323/view</source>
    </identification>
    <defaults>
        <scaling>
            <millimeters>2.1166666679999997</millimeters>
            <tenths>10</tenths>
        </scaling>
        <page-layout>
            <page-height>1320</page-height>
            <page-width>1020</page-width>
            <page-margins type="both">
                <left-margin>59.583333333333336</left-margin>
                <right-margin>56.66666666666667</right-margin>
                <top-margin>96.66666666666667</top-margin>
                <bottom-margin>80</bottom-margin>
            </page-margins>
        </page-layout>
        <system-layout>
            <system-margins>
                <left-margin>59.583333333333336</left-margin>
                <right-margin>26.666666666666668</right-margin>
            </system-margins>
            <system-distance>92.5</system-distance>
            <top-system-distance>145.83333333333334</top-system-distance>
        </system-layout>
        <staff-layout>
            <staff-distance>55</staff-distance>
        </staff-layout>
    </defaults>
    <credit page="1">
        <credit-words font-size="24" default-y="1260" default-x="510" justify="center" valign="top">American Funk</credit-words>
    </credit>
    <credit page="1">
        <credit-words font-size="12" default-y="1210" default-x="918" justify="right" valign="top">Sean Barrett Jr</credit-words>
    </credit>
    <part-list>
        <score-part id="P1">
            <part-name>Flute</part-name>
            <part-abbreviation>Fl</part-abbreviation>
            <score-instrument id="P1I1">
                <instrument-name>Flute</instrument-name>
            </score-instrument>
            <midi-instrument id="P1I1">
                <midi-channel>1</midi-channel>
                <midi-program>74</midi-program>
            </midi-instrument>
        </score-part>
    </part-list>
    <part id="P1">
        <measure number="1">
            <attributes>
                <divisions>64</divisions>
                <key>
                    <fifths>0</fifths>
                    <mode>major</mode>
                </key>
                <time>
                    <beats>4</beats>
                    <beat-type>4</beat-type>
                </time>
                <clef number="1">
                    <sign>G</sign>
                    <line>2</line>
                </clef>
            </attributes>
            <direction placement="above">
                <direction-type>
                    <metronome>
                        <beat-unit>quarter</beat-unit>
                        <per-minute>95</per-minute>
                    </metronome>
                </direction-type>
                <sound tempo="95"/>
            </direction>
            <direction placement="above">
                <direction-type>
                    <metronome>
                        <beat-unit>quarter</beat-unit>
                        <per-minute>95</per-minute>
                    </metronome>
                </direction-type>
                <sound tempo="95"/>
            </direction>
            <note>
                <pitch>
                    <step>F</step>
                    <octave>4</octave>
                </pitch>
                <duration>96</duration>
                <voice>1</voice>
                <type>quarter</type>
                <dot/>
                <notehead>normal</notehead>
            </note>
            <note>
                <pitch>
                    <step>E</step>
                    <alter>-1</alter>
                    <octave>4</octave>
                </pitch>
                <duration>32</duration>
                <voice>1</voice>
                <type>eighth</type>
                <accidental>flat</accidental>
                <notehead>normal</notehead>
            </note>
            <note>
                <pitch>
                    <step>F</step>
                    <octave>4</octave>
                </pitch>
                <duration>16</duration>
                <voice>1</voice>
                <type>16th</type>
                <notehead>normal</notehead>
                <beam number="1">begin</beam>
            </note>
            <note>
                <pitch>
                    <step>E</step>
                    <alter>-1</alter>
                    <octave>4</octave>
                </pitch>
                <duration>16</duration>
                <voice>1</voice>
                <type>16th</type>
                <notehead>normal</notehead>
                <beam number="1">continue</beam>
            </note>
            <note>
                <pitch>
                    <step>F</step>
                    <octave>4</octave>
                </pitch>
                <duration>32</duration>
                <voice>1</voice>
                <type>eighth</type>
                <notehead>normal</notehead>
                <beam number="1">continue</beam>
            </note>
            <note>
                <pitch>
                    <step>A</step>
                    <alter>-1</alter>
                    <octave>4</octave>
                </pitch>
                <duration>32</duration>
                <voice>1</voice>
                <type>eighth</type>
                <accidental>flat</accidental>
                <notehead>normal</notehead>
                <beam number="1">continue</beam>
            </note>
            <note>
                <pitch>
                    <step>F</step>
                    <octave>4</octave>
                </pitch>
                <duration>32</duration>
                <tie type="start"/>
                <voice>1</voice>
                <type>eighth</type>
                <notehead>normal</notehead>
                <beam number="1">end</beam>
                <notations>
                    <tied type="start"/>
                </notations>
            </note>
        </measure>
        <measure number="2">
            <attributes/>
            <note>
                <pitch>
                    <step>F</step>
                    <octave>4</octave>
                </pitch>
                <duration>32</duration>
                <tie type="stop"/>
                <voice>1</voice>
                <type>eighth</type>
                <notehead>normal</notehead>
                <notations>
                    <tied type="stop"/>
                </notations>
            </note>
            <note>
                <rest/>
                <duration>32</duration>
                <voice>1</voice>
                <type>eighth</type>
            </note>
            <note>
                <rest/>
                <duration>64</duration>
                <voice>1</voice>
                <type>quarter</type>
            </note>
            <note>
                <pitch>
                    <step>F</step>
                    <octave>5</octave>
                </pitch>
                <duration>32</duration>
                <voice>1</voice>
                <type>eighth</type>
                <notehead>normal</notehead>
                <beam number="1">begin</beam>
            </note>
            <note>
                <pitch>
                    <step>F</step>
                    <octave>5</octave>
                </pitch>
                <duration>32</duration>
                <voice>1</voice>
                <type>eighth</type>
                <notehead>normal</notehead>
                <beam number="1">continue</beam>
            </note>
            <note>
                <pitch>
                    <step>C</step>
                    <octave>5</octave>
                </pitch>
                <duration>32</duration>
                <voice>1</voice>
                <type>eighth</type>
                <notehead>normal</notehead>
                <beam number="1">continue</beam>
            </note>
            <note>
                <pitch>
                    <step>B</step>
                    <octave>4</octave>
                </pitch>
                <duration>32</duration>
                <voice>1</voice>
                <type>eighth</type>
                <notehead>normal</notehead>
                <beam number="1">end</beam>
            </note>
        </measure>
        <measure number="3">
            <attributes/>
            <note>
                <pitch>
                    <step>B</step>
                    <alter>-1</alter>
                    <octave>4</octave>
                </pitch>
                <duration>16</duration>
                <voice>1</voice>
                <type>16th</type>
                <accidental>flat</accidental>
                <notehead>normal</notehead>
                <beam number="1">begin</beam>
            </note>
            <note>
                <pitch>
                    <step>B</step>
                    <alter>-1</alter>
                    <octave>4</octave>
                </pitch>
                <duration>32</duration>
                <voice>1</voice>
                <type>eighth</type>
                <notehead>normal</notehead>
                <beam number="1">continue</beam>
            </note>
            <note>
                <pitch>
                    <step>A</step>
                    <alter>-1</alter>
                    <octave>4</octave>
                </pitch>
                <duration>32</duration>
                <tie type="start"/>
                <voice>1</voice>
                <type>eighth</type>
                <accidental>flat</accidental>
                <notehead>normal</notehead>
                <beam number="1">continue</beam>
                <notations>
                    <tied type="start"/>
                </notations>
            </note>
            <note>
                <pitch>
                    <step>A</step>
                    <alter>-1</alter>
                    <octave>4</octave>
                </pitch>
                <duration>16</duration>
                <tie type="stop"/>
                <voice>1</voice>
                <type>16th</type>
                <notehead>normal</notehead>
                <beam number="1">continue</beam>
                <notations>
                    <tied type="stop"/>
                </notations>
            </note>
            <note>
                <pitch>
                    <step>G</step>
                    <octave>4</octave>
                </pitch>
                <duration>16</duration>
                <voice>1</voice>
                <type>16th</type>
                <notehead>normal</notehead>
                <beam number="1">continue</beam>
            </note>
            <note>
                <pitch>
                    <step>F</step>
                    <octave>4</octave>
                </pitch>
                <duration>32</duration>
                <voice>1</voice>
                <type>eighth</type>
                <notehead>normal</notehead>
                <beam number="1">end</beam>
            </note>
            <note>
                <rest/>
                <duration>16</duration>
                <voice>1</voice>
                <type>16th</type>
            </note>
            <note>
                <rest/>
                <duration>32</duration>
                <voice>1</voice>
                <type>eighth</type>
            </note>
            <note>
                <rest/>
                <duration>64</duration>
                <voice>1</voice>
                <type>quarter</type>
            </note>
        </measure>
        <measure number="4">
            <attributes/>
            <note>
                <pitch>
                    <step>D</step>
                    <octave>5</octave>
                </pitch>
                <duration>32</duration>
                <voice>1</voice>
                <type>eighth</type>
                <notehead>normal</notehead>
                <beam number="1">begin</beam>
            </note>
            <note>
                <pitch>
                    <step>C</step>
                    <octave>5</octave>
                </pitch>
                <duration>16</duration>
                <voice>1</voice>
                <type>16th</type>
                <notehead>normal</notehead>
                <beam number="1">continue</beam>
            </note>
            <note>
                <pitch>
                    <step>B</step>
                    <octave>4</octave>
                </pitch>
                <duration>16</duration>
                <voice>1</voice>
                <type>16th</type>
                <notehead>normal</notehead>
                <beam number="1">end</beam>
            </note>
            <note>
                <pitch>
                    <step>B</step>
                    <octave>4</octave>
                </pitch>
                <duration>16</duration>
                <voice>1</voice>
                <type>16th</type>
                <notehead>normal</notehead>
            </note>
            <note>
                <rest/>
                <duration>16</duration>
                <voice>1</voice>
                <type>16th</type>
            </note>
            <note>
                <rest/>
                <duration>32</duration>
                <voice>1</voice>
                <type>eighth</type>
            </note>
            <note>
                <pitch>
                    <step>E</step>
                    <alter>-1</alter>
                    <octave>4</octave>
                </pitch>
                <duration>32</duration>
                <voice>1</voice>
                <type>eighth</type>
                <accidental>flat</accidental>
                <notehead>normal</notehead>
                <beam number="1">begin</beam>
            </note>
            <note>
                <pitch>
                    <step>F</step>
                    <octave>4</octave>
                </pitch>
                <duration>16</duration>
                <voice>1</voice>
                <type>16th</type>
                <notehead>normal</notehead>
                <beam number="1">continue</beam>
            </note>
            <note>
                <pitch>
                    <step>F</step>
                    <octave>4</octave>
                </pitch>
                <duration>16</duration>
                <voice>1</voice>
                <type>16th</type>
                <notehead>normal</notehead>
                <beam number="1">end</beam>
            </note>
            <note>
                <rest/>
                <duration>64</duration>
                <voice>1</voice>
                <type>quarter</type>
            </note>
        </measure>
        <measure number="5">
            <attributes/>
            <note>
                <pitch>
                    <step>A</step>
                    <alter>-1</alter>
                    <octave>4</octave>
                </pitch>
                <duration>32</duration>
                <voice>1</voice>
                <type>eighth</type>
                <accidental>flat</accidental>
                <notehead>normal</notehead>
                <beam number="1">begin</beam>
            </note>
            <note>
                <pitch>
                    <step>A</step>
                    <alter>-1</alter>
                    <octave>4</octave>
                </pitch>
                <duration>32</duration>
                <voice>1</voice>
                <type>eighth</type>
                <notehead>normal</notehead>
                <beam number="1">end</beam>
            </note>
            <note>
                <rest/>
                <duration>16</duration>
                <voice>1</voice>
                <type>16th</type>
            </note>
            <note>
                <pitch>
                    <step>C</step>
                    <octave>5</octave>
                </pitch>
                <duration>16</duration>
                <voice>1</voice>
                <type>16th</type>
                <notehead>normal</notehead>
                <beam number="1">begin</beam>
            </note>
            <note>
                <pitch>
                    <step>E</step>
                    <alter>-1</alter>
                    <octave>5</octave>
                </pitch>
                <duration>16</duration>
                <voice>1</voice>
                <type>16th</type>
                <accidental>flat</accidental>
                <notehead>normal</notehead>
                <beam number="1">continue</beam>
            </note>
            <note>
                <pitch>
                    <step>F</step>
                    <octave>5</octave>
                </pitch>
                <duration>32</duration>
                <tie type="start"/>
                <voice>1</voice>
                <type>eighth</type>
                <notehead>normal</notehead>
                <beam number="1">continue</beam>
                <notations>
                    <tied type="start"/>
                </notations>
            </note>
            <note>
                <pitch>
                    <step>F</step>
                    <octave>5</octave>
                </pitch>
                <duration>16</duration>
                <tie type="stop"/>
                <voice>1</voice>
                <type>16th</type>
                <notehead>normal</notehead>
                <beam number="1">continue</beam>
                <notations>
                    <tied type="stop"/>
                </notations>
            </note>
            <note>
                <pitch>
                    <step>A</step>
                    <alter>-1</alter>
                    <octave>5</octave>
                </pitch>
                <duration>32</duration>
                <voice>1</voice>
                <type>eighth</type>
                <accidental>flat</accidental>
                <notehead>normal</notehead>
                <beam number="1">end</beam>
            </note>
            <note>
                <pitch>
                    <step>A</step>
                    <alter>-1</alter>
                    <octave>5</octave>
                </pitch>
                <duration>64</duration>
                <tie type="start"/>
                <voice>1</voice>
                <type>quarter</type>
                <notehead>normal</notehead>
                <notations>
                    <tied type="start"/>
                </notations>
            </note>
        </measure>
        <measure number="6">
            <attributes/>
            <note>
                <pitch>
                    <step>A</step>
                    <alter>-1</alter>
                    <octave>5</octave>
                </pitch>
                <duration>64</duration>
                <tie type="stop"/>
                <voice>1</voice>
                <type>quarter</type>
                <notehead>normal</notehead>
                <notations>
                    <tied type="stop"/>
                </notations>
            </note>
            <note>
                <rest/>
                <duration>64</duration>
                <voice>1</voice>
                <type>quarter</type>
            </note>
            <note>
                <rest/>
                <duration>128</duration>
                <voice>1</voice>
                <type>half</type>
            </note>
        </measure>
        <measure number="7">
            <attributes/>
            <note>
                <pitch>
                    <step>F</step>
                    <octave>4</octave>
                </pitch>
                <duration>16</duration>
                <voice>1</voice>
                <type>16th</type>
                <notehead>normal</notehead>
                <beam number="1">begin</beam>
            </note>
            <note>
                <pitch>
                    <step>E</step>
                    <alter>-1</alter>
                    <octave>4</octave>
                </pitch>
                <duration>16</duration>
                <voice>1</voice>
                <type>16th</type>
                <accidental>flat</accidental>
                <notehead>normal</notehead>
                <beam number="1">continue</beam>
            </note>
            <note>
                <pitch>
                    <step>F</step>
                    <octave>4</octave>
                </pitch>
                <duration>32</duration>
                <voice>1</voice>
                <type>eighth</type>
                <notehead>normal</notehead>
                <beam number="1">end</beam>
            </note>
            <note>
                <rest/>
                <duration>64</duration>
                <voice>1</voice>
                <type>quarter</type>
            </note>
            <note>
                <pitch>
                    <step>B</step>
                    <alter>-1</alter>
                    <octave>4</octave>
                </pitch>
                <duration>16</duration>
                <voice>1</voice>
                <type>16th</type>
                <accidental>flat</accidental>
                <notehead>normal</notehead>
                <beam number="1">begin</beam>
            </note>
            <note>
                <pitch>
                    <step>A</step>
                    <alter>-1</alter>
                    <octave>4</octave>
                </pitch>
                <duration>16</duration>
                <voice>1</voice>
                <type>16th</type>
                <accidental>flat</accidental>
                <notehead>normal</notehead>
                <beam number="1">continue</beam>
            </note>
            <note>
                <pitch>
                    <step>B</step>
                    <alter>-1</alter>
                    <octave>4</octave>
                </pitch>
                <duration>32</duration>
                <voice>1</voice>
                <type>eighth</type>
                <notehead>normal</notehead>
                <beam number="1">end</beam>
            </note>
            <note>
                <rest/>
                <duration>64</duration>
                <voice>1</voice>
                <type>quarter</type>
            </note>
        </measure>
        <measure number="8">
            <attributes/>
            <note>
                <pitch>
                    <step>F</step>
                    <octave>4</octave>
                </pitch>
                <duration>16</duration>
                <voice>1</voice>
                <type>16th</type>
                <notehead>normal</notehead>
                <beam number="1">begin</beam>
            </note>
            <note>
                <pitch>
                    <step>E</step>
                    <alter>-1</alter>
                    <octave>4</octave>
                </pitch>
                <duration>16</duration>
                <voice>1</voice>
                <type>16th</type>
                <accidental>flat</accidental>
                <notehead>normal</notehead>
                <beam number="1">continue</beam>
            </note>
            <note>
                <pitch>
                    <step>F</step>
                    <octave>4</octave>
                </pitch>
                <duration>32</duration>
                <voice>1</voice>
                <type>eighth</type>
                <notehead>normal</notehead>
                <beam number="1">end</beam>
            </note>
            <note>
                <rest/>
                <duration>64</duration>
                <voice>1</voice>
                <type>quarter</type>
            </note>
            <note>
                <pitch>
                    <step>B</step>
                    <alter>-1</alter>
                    <octave>4</octave>
                </pitch>
                <duration>16</duration>
                <voice>1</voice>
                <type>16th</type>
                <accidental>flat</accidental>
                <notehead>normal</notehead>
                <beam number="1">begin</beam>
            </note>
            <note>
                <pitch>
                    <step>A</step>
                    <alter>-1</alter>
                    <octave>4</octave>
                </pitch>
                <duration>16</duration>
                <voice>1</voice>
                <type>16th</type>
                <accidental>flat</accidental>
                <notehead>normal</notehead>
                <beam number="1">continue</beam>
            </note>
            <note>
                <pitch>
                    <step>B</step>
                    <alter>-1</alter>
                    <octave>4</octave>
                </pitch>
                <duration>32</duration>
                <voice>1</voice>
                <type>eighth</type>
                <notehead>normal</notehead>
                <beam number="1">end</beam>
            </note>
            <note>
                <rest/>
                <duration>64</duration>
                <voice>1</voice>
                <type>quarter</type>
            </note>
        </measure>
        <measure number="9">
            <attributes/>
            <note>
                <pitch>
                    <step>B</step>
                    <octave>4</octave>
                </pitch>
                <duration>16</duration>
                <voice>1</voice>
                <type>16th</type>
                <notehead>normal</notehead>
                <beam number="1">begin</beam>
            </note>
            <note>
                <pitch>
                    <step>B</step>
                    <alter>-1</alter>
                    <octave>4</octave>
                </pitch>
                <duration>16</duration>
                <voice>1</voice>
                <type>16th</type>
                <accidental>flat</accidental>
                <notehead>normal</notehead>
                <beam number="1">continue</beam>
            </note>
            <note>
                <pitch>
                    <step>A</step>
                    <alter>-1</alter>
                    <octave>4</octave>
                </pitch>
                <duration>32</duration>
                <voice>1</voice>
                <type>eighth</type>
                <accidental>flat</accidental>
                <notehead>normal</notehead>
                <beam number="1">continue</beam>
            </note>
            <note>
                <pitch>
                    <step>G</step>
                    <octave>4</octave>
                </pitch>
                <duration>16</duration>
                <voice>1</voice>
                <type>16th</type>
                <notehead>normal</notehead>
                <beam number="1">continue</beam>
            </note>
            <note>
                <pitch>
                    <step>F</step>
                    <octave>4</octave>
                </pitch>
                <duration>16</duration>
                <voice>1</voice>
                <type>16th</type>
                <notehead>normal</notehead>
                <beam number="1">continue</beam>
            </note>
            <note>
                <pitch>
                    <step>E</step>
                    <alter>-1</alter>
                    <octave>4</octave>
                </pitch>
                <duration>32</duration>
                <voice>1</voice>
                <type>eighth</type>
                <accidental>flat</accidental>
                <notehead>normal</notehead>
                <beam number="1">end</beam>
            </note>
            <note>
                <pitch>
                    <step>F</step>
                    <octave>4</octave>
                </pitch>
                <duration>128</duration>
                <voice>1</voice>
                <type>half</type>
                <notehead>normal</notehead>
            </note>
        </measure>
        <measure number="10">
            <attributes/>
            <note>
                <rest/>
                <duration>64</duration>
                <voice>1</voice>
                <type>quarter</type>
            </note>
            <note>
                <pitch>
                    <step>C</step>
                    <octave>5</octave>
                </pitch>
                <duration>32</duration>
                <voice>1</voice>
                <type>eighth</type>
                <notehead>normal</notehead>
                <beam number="1">begin</beam>
            </note>
            <note>
                <pitch>
                    <step>E</step>
                    <alter>-1</alter>
                    <octave>5</octave>
                </pitch>
                <duration>16</duration>
                <tie type="start"/>
                <voice>1</voice>
                <type>16th</type>
                <accidental>flat</accidental>
                <notehead>normal</notehead>
                <beam number="1">continue</beam>
                <notations>
                    <tied type="start"/>
                </notations>
            </note>
            <note>
                <pitch>
                    <step>E</step>
                    <alter>-1</alter>
                    <octave>5</octave>
                </pitch>
                <duration>16</duration>
                <tie type="stop"/>
                <voice>1</voice>
                <type>16th</type>
                <notehead>normal</notehead>
                <beam number="1">end</beam>
                <notations>
                    <tied type="stop"/>
                </notations>
            </note>
            <note>
                <rest/>
                <duration>32</duration>
                <voice>1</voice>
                <type>eighth</type>
            </note>
            <note>
                <pitch>
                    <step>E</step>
                    <octave>4</octave>
                </pitch>
                <duration>32</duration>
                <voice>1</voice>
                <type>eighth</type>
                <notehead>normal</notehead>
                <beam number="1">begin</beam>
            </note>
            <note>
                <pitch>
                    <step>F</step>
                    <octave>4</octave>
                </pitch>
                <duration>32</duration>
                <voice>1</voice>
                <type>eighth</type>
                <notehead>normal</notehead>
                <beam number="1">continue</beam>
            </note>
            <note>
                <pitch>
                    <step>F</step>
                    <octave>4</octave>
                </pitch>
                <duration>32</duration>
                <voice>1</voice>
                <type>eighth</type>
                <notehead>normal</notehead>
                <beam number="1">end</beam>
            </note>
        </measure>
        <measure number="11">
            <attributes/>
            <note>
                <rest/>
                <duration>256</duration>
                <voice>1</voice>
                <type>whole</type>
            </note>
            <barline location="right">
                <bar-style>light-heavy</bar-style>
            </barline>
        </measure>
    </part>
</score-partwise>
