<?xml version="1.0" encoding="UTF-8"?>
<!DOCTYPE score-partwise PUBLIC "-//Recordare//DTD MusicXML 2.0 Partwise//EN" "http://www.musicxml.org/dtds/partwise.dtd">
<score-partwise version="2.0">
    <work>
        <work-number></work-number>
        <work-title></work-title>
    </work>
    <movement-number></movement-number>
    <movement-title>Pasodoble (Quick step dance) Just A Sketch</movement-title>
    <identification>
        <creator type="composer">Sean Barrett Jr</creator>
        <creator type="poet"></creator>
        <rights>All Rights Reserved</rights>
        <encoding>
            <software>Noteflight version 0.3.1</software>
            <encoding-date>2011-12-18</encoding-date>
            <supports value="no" type="no" element="print" attribute="new-system"/>
            <supports value="no" type="no" element="print" attribute="new-page"/>
            <software>ProxyMusic 2.0 c</software>
        </encoding>
        <source>http://wikifonia.org/node/13844/revisions/18561/view</source>
    </identification>
    <defaults>
        <scaling>
            <millimeters>2.1166666679999997</millimeters>
            <tenths>10</tenths>
        </scaling>
        <page-layout>
            <page-height>1320</page-height>
            <page-width>1020</page-width>
            <page-margins type="both">
                <left-margin>59.583333333333336</left-margin>
                <right-margin>56.66666666666667</right-margin>
                <top-margin>96.66666666666667</top-margin>
                <bottom-margin>80</bottom-margin>
            </page-margins>
        </page-layout>
        <system-layout>
            <system-margins>
                <left-margin>59.583333333333336</left-margin>
                <right-margin>26.666666666666668</right-margin>
            </system-margins>
            <system-distance>92.5</system-distance>
            <top-system-distance>145.83333333333334</top-system-distance>
        </system-layout>
        <staff-layout>
            <staff-distance>55</staff-distance>
        </staff-layout>
    </defaults>
    <credit page="1">
        <credit-words font-size="24" default-y="1260" default-x="510" justify="center" valign="top">Latin Pasodoble</credit-words>
    </credit>
    <credit page="1">
        <credit-words font-size="12" default-y="1210" default-x="918" justify="right" valign="top">Sean Barrett Jr</credit-words>
    </credit>
    <part-list>
        <score-part id="P1">
            <part-name>Piano</part-name>
            <part-abbreviation>Pno</part-abbreviation>
            <score-instrument id="P1I1">
                <instrument-name>Piano</instrument-name>
            </score-instrument>
            <midi-instrument id="P1I1">
                <midi-channel>1</midi-channel>
                <midi-program>1</midi-program>
            </midi-instrument>
        </score-part>
    </part-list>
    <part id="P1">
        <measure number="1">
            <attributes>
                <divisions>192</divisions>
                <key>
                    <fifths>0</fifths>
                    <mode>major</mode>
                </key>
                <time>
                    <beats>4</beats>
                    <beat-type>4</beat-type>
                </time>
                <staves>2</staves>
                <clef number="1">
                    <sign>G</sign>
                    <line>2</line>
                </clef>
            </attributes>
            <direction placement="above">
                <direction-type>
                    <metronome>
                        <beat-unit>quarter</beat-unit>
                        <per-minute>120</per-minute>
                    </metronome>
                </direction-type>
                <sound tempo="120"/>
            </direction>
            <direction placement="above">
                <direction-type>
                    <metronome>
                        <beat-unit>quarter</beat-unit>
                        <per-minute>120</per-minute>
                    </metronome>
                </direction-type>
                <sound tempo="120"/>
            </direction>
            <note>
                <pitch>
                    <step>A</step>
                    <octave>4</octave>
                </pitch>
                <duration>192</duration>
                <voice>1</voice>
                <type>quarter</type>
                <notehead>normal</notehead>
                <staff>1</staff>
            </note>
            <note>
                <pitch>
                    <step>A</step>
                    <octave>4</octave>
                </pitch>
                <duration>192</duration>
                <voice>1</voice>
                <type>quarter</type>
                <notehead>normal</notehead>
                <staff>1</staff>
            </note>
            <note>
                <pitch>
                    <step>C</step>
                    <octave>5</octave>
                </pitch>
                <duration>96</duration>
                <tie type="start"/>
                <voice>1</voice>
                <type>eighth</type>
                <notehead>normal</notehead>
                <staff>1</staff>
                <beam number="1">begin</beam>
                <notations>
                    <tied type="start"/>
                </notations>
            </note>
            <note>
                <pitch>
                    <step>C</step>
                    <octave>5</octave>
                </pitch>
                <duration>48</duration>
                <tie type="stop"/>
                <voice>1</voice>
                <type>16th</type>
                <notehead>normal</notehead>
                <staff>1</staff>
                <beam number="1">continue</beam>
                <notations>
                    <tied type="stop"/>
                </notations>
            </note>
            <note>
                <pitch>
                    <step>A</step>
                    <octave>4</octave>
                </pitch>
                <duration>48</duration>
                <tie type="start"/>
                <voice>1</voice>
                <type>16th</type>
                <notehead>normal</notehead>
                <staff>1</staff>
                <beam number="1">end</beam>
                <notations>
                    <tied type="start"/>
                </notations>
            </note>
            <note>
                <pitch>
                    <step>A</step>
                    <octave>4</octave>
                </pitch>
                <duration>48</duration>
                <tie type="stop"/>
                <voice>1</voice>
                <type>16th</type>
                <notehead>normal</notehead>
                <staff>1</staff>
                <beam number="1">begin</beam>
                <notations>
                    <tied type="stop"/>
                </notations>
            </note>
            <note>
                <pitch>
                    <step>D</step>
                    <octave>5</octave>
                </pitch>
                <duration>96</duration>
                <voice>1</voice>
                <type>eighth</type>
                <notehead>normal</notehead>
                <staff>1</staff>
                <beam number="1">continue</beam>
            </note>
            <note>
                <pitch>
                    <step>D</step>
                    <octave>5</octave>
                </pitch>
                <duration>48</duration>
                <voice>1</voice>
                <type>16th</type>
                <notehead>normal</notehead>
                <staff>1</staff>
                <beam number="1">end</beam>
            </note>
            <backup>
                <duration>768</duration>
            </backup>
            <attributes>
                <clef number="2">
                    <sign>F</sign>
                    <line>4</line>
                </clef>
            </attributes>
            <direction placement="below">
                <direction-type>
                    <words>mezzo forte</words>
                </direction-type>
            </direction>
            <note>
                <pitch>
                    <step>A</step>
                    <octave>2</octave>
                </pitch>
                <duration>192</duration>
                <voice>3</voice>
                <type>quarter</type>
                <notehead>normal</notehead>
                <staff>2</staff>
            </note>
            <note>
                <pitch>
                    <step>A</step>
                    <octave>2</octave>
                </pitch>
                <duration>192</duration>
                <voice>3</voice>
                <type>quarter</type>
                <notehead>normal</notehead>
                <staff>2</staff>
            </note>
            <note>
                <pitch>
                    <step>C</step>
                    <octave>3</octave>
                </pitch>
                <duration>144</duration>
                <voice>3</voice>
                <type>eighth</type>
                <dot/>
                <notehead>normal</notehead>
                <staff>2</staff>
                <beam number="1">begin</beam>
            </note>
            <note>
                <pitch>
                    <step>A</step>
                    <octave>2</octave>
                </pitch>
                <duration>96</duration>
                <voice>3</voice>
                <type>eighth</type>
                <notehead>normal</notehead>
                <staff>2</staff>
                <beam number="1">continue</beam>
            </note>
            <note>
                <pitch>
                    <step>D</step>
                    <octave>3</octave>
                </pitch>
                <duration>144</duration>
                <voice>3</voice>
                <type>eighth</type>
                <dot/>
                <notehead>normal</notehead>
                <staff>2</staff>
                <beam number="1">end</beam>
            </note>
        </measure>
        <measure number="2">
            <attributes/>
            <note>
                <pitch>
                    <step>D</step>
                    <octave>5</octave>
                </pitch>
                <duration>192</duration>
                <voice>1</voice>
                <type>quarter</type>
                <notehead>normal</notehead>
                <staff>1</staff>
            </note>
            <note>
                <rest/>
                <duration>192</duration>
                <voice>1</voice>
                <type>quarter</type>
                <staff>1</staff>
            </note>
            <note>
                <pitch>
                    <step>D</step>
                    <octave>5</octave>
                </pitch>
                <duration>144</duration>
                <voice>1</voice>
                <type>eighth</type>
                <dot/>
                <notehead>normal</notehead>
                <staff>1</staff>
                <beam number="1">begin</beam>
            </note>
            <note>
                <pitch>
                    <step>C</step>
                    <octave>5</octave>
                </pitch>
                <duration>48</duration>
                <tie type="start"/>
                <voice>1</voice>
                <type>16th</type>
                <notehead>normal</notehead>
                <staff>1</staff>
                <beam number="1">end</beam>
                <notations>
                    <tied type="start"/>
                </notations>
            </note>
            <note>
                <pitch>
                    <step>C</step>
                    <octave>5</octave>
                </pitch>
                <duration>96</duration>
                <tie type="stop"/>
                <voice>1</voice>
                <type>eighth</type>
                <notehead>normal</notehead>
                <staff>1</staff>
                <beam number="1">begin</beam>
                <notations>
                    <tied type="stop"/>
                </notations>
            </note>
            <note>
                <pitch>
                    <step>A</step>
                    <octave>4</octave>
                </pitch>
                <duration>96</duration>
                <voice>1</voice>
                <type>eighth</type>
                <notehead>normal</notehead>
                <staff>1</staff>
                <beam number="1">end</beam>
            </note>
            <backup>
                <duration>768</duration>
            </backup>
            <attributes/>
            <direction placement="below">
                <direction-type>
                    <words>crescendo</words>
                </direction-type>
            </direction>
            <note>
                <pitch>
                    <step>A</step>
                    <octave>2</octave>
                </pitch>
                <duration>192</duration>
                <voice>3</voice>
                <type>quarter</type>
                <notehead>normal</notehead>
                <staff>2</staff>
            </note>
            <note>
                <pitch>
                    <step>A</step>
                    <octave>2</octave>
                </pitch>
                <duration>192</duration>
                <voice>3</voice>
                <type>quarter</type>
                <notehead>normal</notehead>
                <staff>2</staff>
            </note>
            <note>
                <pitch>
                    <step>A</step>
                    <octave>2</octave>
                </pitch>
                <duration>192</duration>
                <voice>3</voice>
                <type>quarter</type>
                <notehead>normal</notehead>
                <staff>2</staff>
            </note>
            <note>
                <pitch>
                    <step>A</step>
                    <octave>2</octave>
                </pitch>
                <duration>192</duration>
                <voice>3</voice>
                <type>quarter</type>
                <notehead>normal</notehead>
                <staff>2</staff>
            </note>
        </measure>
        <measure number="3">
            <attributes/>
            <note>
                <pitch>
                    <step>G</step>
                    <octave>4</octave>
                </pitch>
                <duration>96</duration>
                <voice>1</voice>
                <type>eighth</type>
                <notehead>normal</notehead>
                <staff>1</staff>
                <beam number="1">begin</beam>
            </note>
            <note>
                <pitch>
                    <step>A</step>
                    <octave>4</octave>
                </pitch>
                <duration>96</duration>
                <voice>1</voice>
                <type>eighth</type>
                <notehead>normal</notehead>
                <staff>1</staff>
                <beam number="1">end</beam>
            </note>
            <note>
                <rest/>
                <duration>192</duration>
                <voice>1</voice>
                <type>quarter</type>
                <staff>1</staff>
            </note>
            <note>
                <rest/>
                <duration>384</duration>
                <voice>1</voice>
                <type>half</type>
                <staff>1</staff>
            </note>
            <backup>
                <duration>768</duration>
            </backup>
            <attributes/>
            <note>
                <pitch>
                    <step>A</step>
                    <octave>2</octave>
                </pitch>
                <duration>192</duration>
                <voice>3</voice>
                <type>quarter</type>
                <notehead>normal</notehead>
                <staff>2</staff>
            </note>
            <note>
                <pitch>
                    <step>A</step>
                    <octave>2</octave>
                </pitch>
                <duration>192</duration>
                <voice>3</voice>
                <type>quarter</type>
                <notehead>normal</notehead>
                <staff>2</staff>
            </note>
            <note>
                <pitch>
                    <step>E</step>
                    <octave>2</octave>
                </pitch>
                <duration>192</duration>
                <voice>3</voice>
                <type>quarter</type>
                <notehead>normal</notehead>
                <staff>2</staff>
            </note>
            <note>
                <pitch>
                    <step>E</step>
                    <octave>2</octave>
                </pitch>
                <duration>192</duration>
                <voice>3</voice>
                <type>quarter</type>
                <notehead>normal</notehead>
                <staff>2</staff>
            </note>
        </measure>
        <measure number="4">
            <attributes/>
            <note>
                <pitch>
                    <step>A</step>
                    <octave>4</octave>
                </pitch>
                <duration>192</duration>
                <voice>1</voice>
                <type>quarter</type>
                <notehead>normal</notehead>
                <staff>1</staff>
            </note>
            <note>
                <pitch>
                    <step>A</step>
                    <octave>4</octave>
                </pitch>
                <duration>96</duration>
                <voice>1</voice>
                <type>eighth</type>
                <notehead>normal</notehead>
                <staff>1</staff>
                <beam number="1">begin</beam>
            </note>
            <note>
                <pitch>
                    <step>A</step>
                    <octave>4</octave>
                </pitch>
                <duration>96</duration>
                <voice>1</voice>
                <type>eighth</type>
                <notehead>normal</notehead>
                <staff>1</staff>
                <beam number="1">end</beam>
            </note>
            <note>
                <pitch>
                    <step>A</step>
                    <octave>4</octave>
                </pitch>
                <duration>192</duration>
                <voice>1</voice>
                <type>quarter</type>
                <notehead>normal</notehead>
                <staff>1</staff>
            </note>
            <note>
                <pitch>
                    <step>A</step>
                    <octave>4</octave>
                </pitch>
                <duration>96</duration>
                <voice>1</voice>
                <type>eighth</type>
                <notehead>normal</notehead>
                <staff>1</staff>
                <beam number="1">begin</beam>
            </note>
            <note>
                <pitch>
                    <step>A</step>
                    <octave>4</octave>
                </pitch>
                <duration>96</duration>
                <voice>1</voice>
                <type>eighth</type>
                <notehead>normal</notehead>
                <staff>1</staff>
                <beam number="1">end</beam>
            </note>
            <backup>
                <duration>768</duration>
            </backup>
            <attributes/>
            <direction placement="below">
                <direction-type>
                    <words>fore</words>
                </direction-type>
            </direction>
            <note>
                <pitch>
                    <step>A</step>
                    <octave>2</octave>
                </pitch>
                <duration>192</duration>
                <voice>3</voice>
                <type>quarter</type>
                <notehead>normal</notehead>
                <staff>2</staff>
            </note>
            <note>
                <pitch>
                    <step>A</step>
                    <octave>2</octave>
                </pitch>
                <duration>192</duration>
                <voice>3</voice>
                <type>quarter</type>
                <notehead>normal</notehead>
                <staff>2</staff>
            </note>
            <note>
                <pitch>
                    <step>B</step>
                    <octave>2</octave>
                </pitch>
                <duration>192</duration>
                <voice>3</voice>
                <type>quarter</type>
                <notehead>normal</notehead>
                <staff>2</staff>
            </note>
            <note>
                <pitch>
                    <step>B</step>
                    <octave>2</octave>
                </pitch>
                <duration>192</duration>
                <voice>3</voice>
                <type>quarter</type>
                <notehead>normal</notehead>
                <staff>2</staff>
            </note>
        </measure>
        <measure number="5">
            <attributes/>
            <note>
                <pitch>
                    <step>B</step>
                    <alter>-1</alter>
                    <octave>4</octave>
                </pitch>
                <duration>192</duration>
                <voice>1</voice>
                <type>quarter</type>
                <accidental>flat</accidental>
                <notehead>normal</notehead>
                <staff>1</staff>
            </note>
            <note>
                <pitch>
                    <step>B</step>
                    <alter>-1</alter>
                    <octave>4</octave>
                </pitch>
                <duration>96</duration>
                <voice>1</voice>
                <type>eighth</type>
                <notehead>normal</notehead>
                <staff>1</staff>
                <beam number="1">begin</beam>
            </note>
            <note>
                <pitch>
                    <step>B</step>
                    <alter>-1</alter>
                    <octave>4</octave>
                </pitch>
                <duration>96</duration>
                <voice>1</voice>
                <type>eighth</type>
                <notehead>normal</notehead>
                <staff>1</staff>
                <beam number="1">end</beam>
            </note>
            <note>
                <pitch>
                    <step>B</step>
                    <alter>-1</alter>
                    <octave>4</octave>
                </pitch>
                <duration>192</duration>
                <voice>1</voice>
                <type>quarter</type>
                <notehead>normal</notehead>
                <staff>1</staff>
            </note>
            <note>
                <pitch>
                    <step>C</step>
                    <octave>5</octave>
                </pitch>
                <duration>96</duration>
                <voice>1</voice>
                <type>eighth</type>
                <notehead>normal</notehead>
                <staff>1</staff>
                <beam number="1">begin</beam>
            </note>
            <note>
                <pitch>
                    <step>B</step>
                    <alter>-1</alter>
                    <octave>4</octave>
                </pitch>
                <duration>96</duration>
                <voice>1</voice>
                <type>eighth</type>
                <notehead>normal</notehead>
                <staff>1</staff>
                <beam number="1">end</beam>
            </note>
            <backup>
                <duration>768</duration>
            </backup>
            <attributes/>
            <direction placement="below">
                <direction-type>
                    <words>descrescendo</words>
                </direction-type>
            </direction>
            <note>
                <pitch>
                    <step>D</step>
                    <octave>3</octave>
                </pitch>
                <duration>192</duration>
                <voice>3</voice>
                <type>quarter</type>
                <notehead>normal</notehead>
                <staff>2</staff>
            </note>
            <note>
                <pitch>
                    <step>C</step>
                    <octave>3</octave>
                </pitch>
                <duration>192</duration>
                <voice>3</voice>
                <type>quarter</type>
                <notehead>normal</notehead>
                <staff>2</staff>
            </note>
            <note>
                <pitch>
                    <step>C</step>
                    <octave>3</octave>
                </pitch>
                <duration>384</duration>
                <voice>3</voice>
                <type>half</type>
                <notehead>normal</notehead>
                <staff>2</staff>
            </note>
        </measure>
        <measure number="6">
            <attributes/>
            <note>
                <pitch>
                    <step>A</step>
                    <octave>4</octave>
                </pitch>
                <duration>192</duration>
                <tie type="start"/>
                <voice>1</voice>
                <type>quarter</type>
                <notehead>normal</notehead>
                <staff>1</staff>
                <notations>
                    <tied type="start"/>
                </notations>
            </note>
            <note>
                <pitch>
                    <step>A</step>
                    <octave>4</octave>
                </pitch>
                <duration>96</duration>
                <tie type="stop"/>
                <voice>1</voice>
                <type>eighth</type>
                <notehead>normal</notehead>
                <staff>1</staff>
                <beam number="1">begin</beam>
                <notations>
                    <tied type="stop"/>
                </notations>
            </note>
            <note>
                <pitch>
                    <step>G</step>
                    <octave>4</octave>
                </pitch>
                <duration>96</duration>
                <voice>1</voice>
                <type>eighth</type>
                <notehead>normal</notehead>
                <staff>1</staff>
                <beam number="1">end</beam>
            </note>
            <note>
                <pitch>
                    <step>A</step>
                    <octave>4</octave>
                </pitch>
                <duration>32</duration>
                <voice>1</voice>
                <type>16th</type>
                <time-modification>
                    <actual-notes>3</actual-notes>
                    <normal-notes>2</normal-notes>
                    <normal-type>16th</normal-type>
                </time-modification>
                <notehead>normal</notehead>
                <staff>1</staff>
                <beam number="1">begin</beam>
                <notations>
                    <tuplet type="start" number="1">
                        <tuplet-actual>
                            <tuplet-number>3</tuplet-number>
                            <tuplet-type>16th</tuplet-type>
                        </tuplet-actual>
                        <tuplet-normal>
                            <tuplet-number>2</tuplet-number>
                            <tuplet-type>16th</tuplet-type>
                        </tuplet-normal>
                    </tuplet>
                </notations>
            </note>
            <note>
                <pitch>
                    <step>B</step>
                    <octave>4</octave>
                </pitch>
                <duration>32</duration>
                <voice>1</voice>
                <type>16th</type>
                <time-modification>
                    <actual-notes>3</actual-notes>
                    <normal-notes>2</normal-notes>
                    <normal-type>16th</normal-type>
                </time-modification>
                <notehead>normal</notehead>
                <staff>1</staff>
                <beam number="1">continue</beam>
            </note>
            <note>
                <pitch>
                    <step>A</step>
                    <octave>4</octave>
                </pitch>
                <duration>32</duration>
                <voice>1</voice>
                <type>16th</type>
                <time-modification>
                    <actual-notes>3</actual-notes>
                    <normal-notes>2</normal-notes>
                    <normal-type>16th</normal-type>
                </time-modification>
                <notehead>normal</notehead>
                <staff>1</staff>
                <beam number="1">end</beam>
                <notations>
                    <tuplet type="stop" number="1"/>
                </notations>
            </note>
            <note>
                <pitch>
                    <step>G</step>
                    <octave>4</octave>
                </pitch>
                <duration>96</duration>
                <voice>1</voice>
                <type>eighth</type>
                <notehead>normal</notehead>
                <staff>1</staff>
            </note>
            <note>
                <pitch>
                    <step>A</step>
                    <octave>4</octave>
                </pitch>
                <duration>192</duration>
                <voice>1</voice>
                <type>quarter</type>
                <notehead>normal</notehead>
                <staff>1</staff>
            </note>
            <backup>
                <duration>768</duration>
            </backup>
            <attributes/>
            <note>
                <pitch>
                    <step>A</step>
                    <octave>2</octave>
                </pitch>
                <duration>384</duration>
                <voice>3</voice>
                <type>half</type>
                <notehead>normal</notehead>
                <staff>2</staff>
            </note>
            <note>
                <pitch>
                    <step>C</step>
                    <octave>3</octave>
                </pitch>
                <duration>384</duration>
                <voice>3</voice>
                <type>half</type>
                <notehead>normal</notehead>
                <staff>2</staff>
            </note>
        </measure>
        <measure number="7">
            <attributes/>
            <note>
                <rest/>
                <duration>768</duration>
                <voice>1</voice>
                <type>whole</type>
                <staff>1</staff>
            </note>
            <backup>
                <duration>768</duration>
            </backup>
            <attributes/>
            <direction placement="below">
                <direction-type>
                    <words>fine</words>
                </direction-type>
            </direction>
            <note>
                <pitch>
                    <step>C</step>
                    <octave>3</octave>
                </pitch>
                <duration>192</duration>
                <voice>3</voice>
                <type>quarter</type>
                <notehead>normal</notehead>
                <staff>2</staff>
            </note>
            <note>
                <pitch>
                    <step>D</step>
                    <octave>3</octave>
                </pitch>
                <duration>192</duration>
                <voice>3</voice>
                <type>quarter</type>
                <notehead>normal</notehead>
                <staff>2</staff>
            </note>
            <note>
                <pitch>
                    <step>G</step>
                    <octave>3</octave>
                </pitch>
                <duration>192</duration>
                <voice>3</voice>
                <type>quarter</type>
                <notehead>normal</notehead>
                <staff>2</staff>
            </note>
            <note>
                <pitch>
                    <step>A</step>
                    <octave>3</octave>
                </pitch>
                <duration>192</duration>
                <voice>3</voice>
                <type>quarter</type>
                <notehead>normal</notehead>
                <staff>2</staff>
            </note>
        </measure>
        <measure number="8">
            <attributes/>
            <note>
                <rest/>
                <duration>768</duration>
                <voice>1</voice>
                <type>whole</type>
                <staff>1</staff>
            </note>
            <backup>
                <duration>768</duration>
            </backup>
            <attributes/>
            <note>
                <rest/>
                <duration>768</duration>
                <voice>3</voice>
                <type>whole</type>
                <staff>2</staff>
            </note>
            <barline location="right">
                <bar-style>light-heavy</bar-style>
            </barline>
        </measure>
    </part>
</score-partwise>
