<?xml version="1.0" encoding="UTF-8"?>
<!DOCTYPE score-partwise PUBLIC "-//Recordare//DTD MusicXML 2.0 Partwise//EN" "http://www.musicxml.org/dtds/partwise.dtd">
<score-partwise version="2.0">
    <work>
        <work-number></work-number>
        <work-title></work-title>
    </work>
    <movement-number></movement-number>
    <movement-title>I'm Getting Nuttin' For Christmas</movement-title>
    <identification>
        <creator type="composer">Sid Tepper &amp; Roy C Bennett</creator>
        <creator type="poet"></creator>
        <rights>All Rights Reserved</rights>
        <encoding>
            <software>Finale SongWriter for Windows</software>
            <software>Dolet Light for Finale SongWriter 2007</software>
            <encoding-date>2012-09-04</encoding-date>
            <software>ProxyMusic 2.0 c</software>
        </encoding>
        <source>http://wikifonia.org/node/17594/revisions/23335/view</source>
    </identification>
    <part-list>
        <score-part id="P1">
            <part-name>MusicXML Part</part-name>
            <score-instrument id="P1-I1">
                <instrument-name>Instrument 1</instrument-name>
            </score-instrument>
            <midi-instrument id="P1-I1">
                <midi-channel>1</midi-channel>
                <midi-program>1</midi-program>
            </midi-instrument>
        </score-part>
    </part-list>
    <part id="P1">
        <measure number="1">
            <attributes>
                <divisions>2</divisions>
                <key>
                    <fifths>1</fifths>
                    <mode>major</mode>
                </key>
                <time symbol="common">
                    <beats>4</beats>
                    <beat-type>4</beat-type>
                </time>
                <clef>
                    <sign>G</sign>
                    <line>2</line>
                </clef>
            </attributes>
            <sound tempo="120"/>
            <harmony default-y="40">
                <root>
                    <root-step>G</root-step>
                </root>
                <kind>major</kind>
            </harmony>
            <note>
                <rest/>
                <duration>2</duration>
                <voice>1</voice>
                <type>quarter</type>
            </note>
            <note>
                <pitch>
                    <step>D</step>
                    <octave>5</octave>
                </pitch>
                <duration>1</duration>
                <voice>1</voice>
                <type>eighth</type>
                <stem>down</stem>
                <beam number="1">begin</beam>
            </note>
            <note>
                <pitch>
                    <step>D</step>
                    <octave>5</octave>
                </pitch>
                <duration>1</duration>
                <voice>1</voice>
                <type>eighth</type>
                <stem>down</stem>
                <beam number="1">end</beam>
            </note>
            <note>
                <pitch>
                    <step>D</step>
                    <octave>5</octave>
                </pitch>
                <duration>1</duration>
                <voice>1</voice>
                <type>eighth</type>
                <stem>down</stem>
                <beam number="1">begin</beam>
            </note>
            <note>
                <pitch>
                    <step>E</step>
                    <octave>5</octave>
                </pitch>
                <duration>1</duration>
                <voice>1</voice>
                <type>eighth</type>
                <stem>down</stem>
                <beam number="1">end</beam>
            </note>
            <note>
                <pitch>
                    <step>D</step>
                    <octave>5</octave>
                </pitch>
                <duration>2</duration>
                <voice>1</voice>
                <type>quarter</type>
                <stem>down</stem>
            </note>
        </measure>
        <measure number="2">
            <harmony default-y="40">
                <root>
                    <root-step>E</root-step>
                </root>
                <kind>dominant</kind>
                <bass>
                    <bass-step>G</bass-step>
                    <bass-alter>1</bass-alter>
                </bass>
            </harmony>
            <note>
                <rest/>
                <duration>2</duration>
                <voice>1</voice>
                <type>quarter</type>
            </note>
            <note>
                <pitch>
                    <step>D</step>
                    <octave>5</octave>
                </pitch>
                <duration>1</duration>
                <voice>1</voice>
                <type>eighth</type>
                <stem>down</stem>
                <beam number="1">begin</beam>
            </note>
            <note>
                <pitch>
                    <step>D</step>
                    <octave>5</octave>
                </pitch>
                <duration>1</duration>
                <voice>1</voice>
                <type>eighth</type>
                <stem>down</stem>
                <beam number="1">end</beam>
            </note>
            <note>
                <pitch>
                    <step>D</step>
                    <octave>5</octave>
                </pitch>
                <duration>1</duration>
                <voice>1</voice>
                <type>eighth</type>
                <stem>down</stem>
                <beam number="1">begin</beam>
            </note>
            <note>
                <pitch>
                    <step>E</step>
                    <octave>5</octave>
                </pitch>
                <duration>1</duration>
                <voice>1</voice>
                <type>eighth</type>
                <stem>down</stem>
                <beam number="1">end</beam>
            </note>
            <note>
                <pitch>
                    <step>D</step>
                    <octave>5</octave>
                </pitch>
                <duration>2</duration>
                <voice>1</voice>
                <type>quarter</type>
                <stem>down</stem>
            </note>
        </measure>
        <measure number="3">
            <harmony default-y="40">
                <root>
                    <root-step>D</root-step>
                </root>
                <kind>major</kind>
                <bass>
                    <bass-step>A</bass-step>
                </bass>
            </harmony>
            <note>
                <rest/>
                <duration>2</duration>
                <voice>1</voice>
                <type>quarter</type>
            </note>
            <note>
                <pitch>
                    <step>D</step>
                    <octave>5</octave>
                </pitch>
                <duration>1</duration>
                <voice>1</voice>
                <type>eighth</type>
                <stem>down</stem>
                <beam number="1">begin</beam>
            </note>
            <note>
                <pitch>
                    <step>D</step>
                    <octave>5</octave>
                </pitch>
                <duration>1</duration>
                <voice>1</voice>
                <type>eighth</type>
                <stem>down</stem>
                <beam number="1">end</beam>
            </note>
            <note>
                <pitch>
                    <step>D</step>
                    <octave>5</octave>
                </pitch>
                <duration>1</duration>
                <voice>1</voice>
                <type>eighth</type>
                <stem>down</stem>
                <beam number="1">begin</beam>
            </note>
            <note>
                <pitch>
                    <step>E</step>
                    <octave>5</octave>
                </pitch>
                <duration>1</duration>
                <voice>1</voice>
                <type>eighth</type>
                <stem>down</stem>
                <beam number="1">end</beam>
            </note>
            <note>
                <pitch>
                    <step>D</step>
                    <octave>5</octave>
                </pitch>
                <duration>2</duration>
                <voice>1</voice>
                <type>quarter</type>
                <stem>down</stem>
            </note>
        </measure>
        <measure number="4">
            <harmony default-y="40">
                <root>
                    <root-step>D</root-step>
                </root>
                <kind>dominant</kind>
            </harmony>
            <note>
                <rest/>
                <duration>2</duration>
                <voice>1</voice>
                <type>quarter</type>
            </note>
            <note>
                <pitch>
                    <step>A</step>
                    <octave>5</octave>
                </pitch>
                <duration>1</duration>
                <voice>1</voice>
                <type>eighth</type>
                <stem>down</stem>
            </note>
            <note>
                <rest/>
                <duration>1</duration>
                <voice>1</voice>
                <type>eighth</type>
            </note>
            <note>
                <pitch>
                    <step>D</step>
                    <octave>6</octave>
                </pitch>
                <duration>1</duration>
                <voice>1</voice>
                <type>eighth</type>
                <stem>down</stem>
            </note>
            <note>
                <rest/>
                <duration>1</duration>
                <voice>1</voice>
                <type>eighth</type>
                <lyric number="1">
                    <syllabic>single</syllabic>
                    <text font-weight="bold" font-style="italic">1.</text>
                </lyric>
                <lyric number="2">
                    <syllabic>single</syllabic>
                    <text font-weight="bold" font-style="italic">2.</text>
                </lyric>
                <lyric number="3">
                    <syllabic>single</syllabic>
                    <text font-weight="bold" font-style="italic">3.</text>
                </lyric>
            </note>
            <note>
                <pitch>
                    <step>D</step>
                    <octave>4</octave>
                </pitch>
                <duration>2</duration>
                <voice>1</voice>
                <type>quarter</type>
                <stem>up</stem>
                <lyric number="1">
                    <syllabic>single</syllabic>
                    <text font-weight="bold" font-style="italic">I</text>
                </lyric>
                <lyric number="2">
                    <syllabic>single</syllabic>
                    <text font-weight="bold" font-style="italic">I</text>
                </lyric>
                <lyric number="3">
                    <syllabic>single</syllabic>
                    <text font-weight="bold" font-style="italic">I</text>
                </lyric>
            </note>
        </measure>
        <measure number="5">
            <print new-system="yes"/>
            <barline location="left">
                <bar-style>heavy-light</bar-style>
                <repeat direction="forward"/>
            </barline>
            <harmony default-y="40">
                <root>
                    <root-step>G</root-step>
                </root>
                <kind>major</kind>
            </harmony>
            <note>
                <pitch>
                    <step>G</step>
                    <octave>4</octave>
                </pitch>
                <duration>2</duration>
                <voice>1</voice>
                <type>quarter</type>
                <stem>up</stem>
                <lyric number="1">
                    <syllabic>single</syllabic>
                    <text font-weight="bold" font-style="italic">broke</text>
                </lyric>
                <lyric number="2">
                    <syllabic>single</syllabic>
                    <text font-weight="bold" font-style="italic">put</text>
                </lyric>
                <lyric number="3">
                    <syllabic>single</syllabic>
                    <text font-weight="bold" font-style="italic">won't</text>
                </lyric>
            </note>
            <note>
                <pitch>
                    <step>G</step>
                    <octave>4</octave>
                </pitch>
                <duration>2</duration>
                <voice>1</voice>
                <type>quarter</type>
                <stem>up</stem>
                <lyric number="1">
                    <syllabic>single</syllabic>
                    <text font-weight="bold" font-style="italic">my</text>
                </lyric>
                <lyric number="2">
                    <syllabic>single</syllabic>
                    <text font-weight="bold" font-style="italic">a</text>
                </lyric>
                <lyric number="3">
                    <syllabic>single</syllabic>
                    <text font-weight="bold" font-style="italic">be</text>
                </lyric>
            </note>
            <note>
                <pitch>
                    <step>G</step>
                    <octave>4</octave>
                </pitch>
                <duration>2</duration>
                <voice>1</voice>
                <type>quarter</type>
                <stem>up</stem>
                <lyric number="1">
                    <syllabic>single</syllabic>
                    <text font-weight="bold" font-style="italic">bat</text>
                </lyric>
                <lyric number="2">
                    <syllabic>single</syllabic>
                    <text font-weight="bold" font-style="italic">tack</text>
                </lyric>
                <lyric number="3">
                    <syllabic>single</syllabic>
                    <text font-weight="bold" font-style="italic">see</text>
                </lyric>
            </note>
            <note>
                <pitch>
                    <step>D</step>
                    <octave>4</octave>
                </pitch>
                <duration>2</duration>
                <voice>1</voice>
                <type>quarter</type>
                <stem>up</stem>
                <lyric number="1">
                    <syllabic>single</syllabic>
                    <text font-weight="bold" font-style="italic">on</text>
                </lyric>
                <lyric number="2">
                    <syllabic>single</syllabic>
                    <text font-weight="bold" font-style="italic">on</text>
                </lyric>
                <lyric number="3">
                    <syllabic>single</syllabic>
                    <text font-weight="bold" font-style="italic">ing</text>
                </lyric>
            </note>
        </measure>
        <measure number="6">
            <harmony default-y="40">
                <root>
                    <root-step>C</root-step>
                </root>
                <kind>major</kind>
            </harmony>
            <note>
                <pitch>
                    <step>E</step>
                    <octave>4</octave>
                </pitch>
                <duration>2</duration>
                <voice>1</voice>
                <type>quarter</type>
                <stem>up</stem>
                <lyric number="1">
                    <syllabic>single</syllabic>
                    <text font-weight="bold" font-style="italic">John</text>
                </lyric>
                <lyric number="2">
                    <syllabic>single</syllabic>
                    <text font-weight="bold" font-style="italic">teach</text>
                </lyric>
                <lyric number="3">
                    <syllabic>single</syllabic>
                    <text font-weight="bold" font-style="italic">San</text>
                </lyric>
            </note>
            <note>
                <pitch>
                    <step>G</step>
                    <octave>4</octave>
                </pitch>
                <duration>2</duration>
                <voice>1</voice>
                <type>quarter</type>
                <stem>up</stem>
                <lyric number="1">
                    <syllabic>single</syllabic>
                    <text font-weight="bold" font-style="italic">ny's</text>
                </lyric>
                <lyric number="2">
                    <syllabic>single</syllabic>
                    <text font-weight="bold" font-style="italic">er's</text>
                </lyric>
                <lyric number="3">
                    <syllabic>single</syllabic>
                    <text font-weight="bold" font-style="italic">ta</text>
                </lyric>
            </note>
            <harmony default-y="40">
                <root>
                    <root-step>G</root-step>
                </root>
                <kind>major</kind>
            </harmony>
            <note>
                <pitch>
                    <step>D</step>
                    <octave>4</octave>
                </pitch>
                <duration>2</duration>
                <voice>1</voice>
                <type>quarter</type>
                <stem>up</stem>
                <lyric number="1">
                    <syllabic>single</syllabic>
                    <text font-weight="bold" font-style="italic">head</text>
                </lyric>
                <lyric number="2">
                    <syllabic>single</syllabic>
                    <text font-weight="bold" font-style="italic">chair</text>
                </lyric>
                <lyric number="3">
                    <syllabic>single</syllabic>
                    <text font-weight="bold" font-style="italic">Claus</text>
                </lyric>
            </note>
            <note>
                <rest/>
                <duration>2</duration>
                <voice>1</voice>
                <type>quarter</type>
            </note>
        </measure>
        <measure number="7">
            <harmony default-y="40">
                <root>
                    <root-step>A</root-step>
                </root>
                <kind>major</kind>
            </harmony>
            <note>
                <pitch>
                    <step>G</step>
                    <octave>4</octave>
                </pitch>
                <duration>2</duration>
                <voice>1</voice>
                <type>quarter</type>
                <stem>up</stem>
                <lyric number="2">
                    <syllabic>single</syllabic>
                    <text font-weight="bold" font-style="italic">SOME</text>
                </lyric>
            </note>
            <note>
                <pitch>
                    <step>G</step>
                    <octave>4</octave>
                </pitch>
                <duration>1</duration>
                <voice>1</voice>
                <type>eighth</type>
                <stem>up</stem>
                <beam number="1">begin</beam>
                <lyric number="2">
                    <syllabic>single</syllabic>
                    <text font-weight="bold" font-style="italic">BOD</text>
                </lyric>
            </note>
            <note>
                <pitch>
                    <step>G</step>
                    <octave>4</octave>
                </pitch>
                <duration>1</duration>
                <voice>1</voice>
                <type>eighth</type>
                <stem>up</stem>
                <beam number="1">end</beam>
                <lyric number="2">
                    <syllabic>single</syllabic>
                    <text font-weight="bold" font-style="italic">Y</text>
                </lyric>
            </note>
            <harmony default-y="40">
                <root>
                    <root-step>D</root-step>
                </root>
                <kind>dominant</kind>
            </harmony>
            <note>
                <pitch>
                    <step>A</step>
                    <octave>4</octave>
                </pitch>
                <duration>2</duration>
                <voice>1</voice>
                <type>quarter</type>
                <stem>up</stem>
                <lyric number="2">
                    <syllabic>single</syllabic>
                    <text font-weight="bold" font-style="italic">SNITHCHED</text>
                </lyric>
            </note>
            <note>
                <pitch>
                    <step>F</step>
                    <alter>1</alter>
                    <octave>4</octave>
                </pitch>
                <duration>2</duration>
                <voice>1</voice>
                <type>quarter</type>
                <stem>up</stem>
                <lyric number="2">
                    <syllabic>single</syllabic>
                    <text font-weight="bold" font-style="italic">ON</text>
                </lyric>
            </note>
        </measure>
        <measure number="8">
            <harmony default-y="40">
                <root>
                    <root-step>G</root-step>
                </root>
                <kind>major</kind>
            </harmony>
            <note>
                <pitch>
                    <step>G</step>
                    <octave>4</octave>
                </pitch>
                <duration>4</duration>
                <voice>1</voice>
                <type>half</type>
                <stem>up</stem>
                <lyric number="2">
                    <syllabic>single</syllabic>
                    <text font-weight="bold" font-style="italic">ME!</text>
                </lyric>
            </note>
            <note>
                <rest/>
                <duration>2</duration>
                <voice>1</voice>
                <type>quarter</type>
            </note>
            <note>
                <pitch>
                    <step>G</step>
                    <octave>4</octave>
                </pitch>
                <duration>2</duration>
                <voice>1</voice>
                <type>quarter</type>
                <stem>up</stem>
                <lyric number="1">
                    <syllabic>single</syllabic>
                    <text font-weight="bold" font-style="italic">I</text>
                </lyric>
                <lyric number="2">
                    <syllabic>single</syllabic>
                    <text font-weight="bold" font-style="italic">I</text>
                </lyric>
                <lyric number="3">
                    <syllabic>single</syllabic>
                    <text font-weight="bold" font-style="italic">He</text>
                </lyric>
            </note>
        </measure>
        <measure number="9">
            <print new-system="yes"/>
            <harmony default-y="40">
                <root>
                    <root-step>G</root-step>
                </root>
                <kind>major</kind>
            </harmony>
            <note>
                <pitch>
                    <step>G</step>
                    <octave>4</octave>
                </pitch>
                <duration>2</duration>
                <voice>1</voice>
                <type>quarter</type>
                <stem>up</stem>
                <lyric number="1">
                    <syllabic>single</syllabic>
                    <text font-weight="bold" font-style="italic">hid</text>
                </lyric>
                <lyric number="2">
                    <syllabic>single</syllabic>
                    <text font-weight="bold" font-style="italic">tied</text>
                </lyric>
                <lyric number="3">
                    <syllabic>single</syllabic>
                    <text font-weight="bold" font-style="italic">won't</text>
                </lyric>
            </note>
            <note>
                <pitch>
                    <step>G</step>
                    <octave>4</octave>
                </pitch>
                <duration>2</duration>
                <voice>1</voice>
                <type>quarter</type>
                <stem>up</stem>
                <lyric number="1">
                    <syllabic>single</syllabic>
                    <text font-weight="bold" font-style="italic">a</text>
                </lyric>
                <lyric number="2">
                    <syllabic>single</syllabic>
                    <text font-weight="bold" font-style="italic">a</text>
                </lyric>
                <lyric number="3">
                    <syllabic>single</syllabic>
                    <text font-weight="bold" font-style="italic">come</text>
                </lyric>
            </note>
            <note>
                <pitch>
                    <step>G</step>
                    <octave>4</octave>
                </pitch>
                <duration>2</duration>
                <voice>1</voice>
                <type>quarter</type>
                <stem>up</stem>
                <lyric number="1">
                    <syllabic>single</syllabic>
                    <text font-weight="bold" font-style="italic">frog</text>
                </lyric>
                <lyric number="2">
                    <syllabic>single</syllabic>
                    <text font-weight="bold" font-style="italic">knot</text>
                </lyric>
                <lyric number="3">
                    <syllabic>single</syllabic>
                    <text font-weight="bold" font-style="italic">vis</text>
                </lyric>
            </note>
            <note>
                <pitch>
                    <step>D</step>
                    <octave>4</octave>
                </pitch>
                <duration>2</duration>
                <voice>1</voice>
                <type>quarter</type>
                <stem>up</stem>
                <lyric number="1">
                    <syllabic>single</syllabic>
                    <text font-weight="bold" font-style="italic">in</text>
                </lyric>
                <lyric number="2">
                    <syllabic>single</syllabic>
                    <text font-weight="bold" font-style="italic">in</text>
                </lyric>
                <lyric number="3">
                    <syllabic>single</syllabic>
                    <text font-weight="bold" font-style="italic">it</text>
                </lyric>
            </note>
        </measure>
        <measure number="10">
            <harmony default-y="40">
                <root>
                    <root-step>C</root-step>
                </root>
                <kind>major</kind>
            </harmony>
            <note>
                <pitch>
                    <step>E</step>
                    <octave>4</octave>
                </pitch>
                <duration>2</duration>
                <voice>1</voice>
                <type>quarter</type>
                <stem>up</stem>
                <lyric number="1">
                    <syllabic>single</syllabic>
                    <text font-weight="bold" font-style="italic">sis</text>
                </lyric>
                <lyric number="2">
                    <syllabic>single</syllabic>
                    <text font-weight="bold" font-style="italic">Suz</text>
                </lyric>
                <lyric number="3">
                    <syllabic>single</syllabic>
                    <text font-weight="bold" font-style="italic">me</text>
                </lyric>
            </note>
            <note>
                <pitch>
                    <step>G</step>
                    <octave>4</octave>
                </pitch>
                <duration>2</duration>
                <voice>1</voice>
                <type>quarter</type>
                <stem>up</stem>
                <lyric number="1">
                    <syllabic>single</syllabic>
                    <text font-weight="bold" font-style="italic">ter's</text>
                </lyric>
                <lyric number="2">
                    <syllabic>single</syllabic>
                    <text font-weight="bold" font-style="italic">ie's</text>
                </lyric>
                <lyric number="3">
                    <syllabic>single</syllabic>
                    <text font-weight="bold" font-style="italic">be</text>
                </lyric>
            </note>
            <harmony default-y="40">
                <root>
                    <root-step>G</root-step>
                </root>
                <kind>major</kind>
            </harmony>
            <note>
                <pitch>
                    <step>D</step>
                    <octave>4</octave>
                </pitch>
                <duration>2</duration>
                <voice>1</voice>
                <type>quarter</type>
                <stem>up</stem>
                <lyric number="1">
                    <syllabic>single</syllabic>
                    <text font-weight="bold" font-style="italic">bed</text>
                </lyric>
                <lyric number="2">
                    <syllabic>single</syllabic>
                    <text font-weight="bold" font-style="italic">hair</text>
                </lyric>
                <lyric number="3">
                    <syllabic>single</syllabic>
                    <text font-weight="bold" font-style="italic">cause</text>
                </lyric>
            </note>
            <note>
                <rest/>
                <duration>2</duration>
                <voice>1</voice>
                <type>quarter</type>
            </note>
        </measure>
        <measure number="11">
            <harmony default-y="40">
                <root>
                    <root-step>A</root-step>
                </root>
                <kind>major</kind>
            </harmony>
            <note>
                <pitch>
                    <step>G</step>
                    <octave>4</octave>
                </pitch>
                <duration>2</duration>
                <voice>1</voice>
                <type>quarter</type>
                <stem>up</stem>
                <lyric number="2">
                    <syllabic>single</syllabic>
                    <text font-weight="bold" font-style="italic">SOME</text>
                </lyric>
            </note>
            <note>
                <pitch>
                    <step>G</step>
                    <octave>4</octave>
                </pitch>
                <duration>1</duration>
                <voice>1</voice>
                <type>eighth</type>
                <stem>up</stem>
                <beam number="1">begin</beam>
                <lyric number="2">
                    <syllabic>single</syllabic>
                    <text font-weight="bold" font-style="italic">BOD</text>
                </lyric>
            </note>
            <note>
                <pitch>
                    <step>G</step>
                    <octave>4</octave>
                </pitch>
                <duration>1</duration>
                <voice>1</voice>
                <type>eighth</type>
                <stem>up</stem>
                <beam number="1">end</beam>
                <lyric number="2">
                    <syllabic>single</syllabic>
                    <text font-weight="bold" font-style="italic">Y</text>
                </lyric>
            </note>
            <harmony default-y="40">
                <root>
                    <root-step>D</root-step>
                </root>
                <kind>dominant</kind>
            </harmony>
            <note>
                <pitch>
                    <step>A</step>
                    <octave>4</octave>
                </pitch>
                <duration>2</duration>
                <voice>1</voice>
                <type>quarter</type>
                <stem>up</stem>
                <lyric number="2">
                    <syllabic>single</syllabic>
                    <text font-weight="bold" font-style="italic">SNITHCHED</text>
                </lyric>
            </note>
            <note>
                <pitch>
                    <step>F</step>
                    <alter>1</alter>
                    <octave>4</octave>
                </pitch>
                <duration>2</duration>
                <voice>1</voice>
                <type>quarter</type>
                <stem>up</stem>
                <lyric number="2">
                    <syllabic>single</syllabic>
                    <text font-weight="bold" font-style="italic">ON</text>
                </lyric>
            </note>
        </measure>
        <measure number="12">
            <harmony default-y="40">
                <root>
                    <root-step>G</root-step>
                </root>
                <kind>major</kind>
            </harmony>
            <note>
                <pitch>
                    <step>G</step>
                    <octave>4</octave>
                </pitch>
                <duration>4</duration>
                <voice>1</voice>
                <type>half</type>
                <stem>up</stem>
                <lyric number="2">
                    <syllabic>single</syllabic>
                    <text font-weight="bold" font-style="italic">ME!</text>
                </lyric>
            </note>
            <note>
                <rest/>
                <duration>2</duration>
                <voice>1</voice>
                <type>quarter</type>
            </note>
            <note>
                <pitch>
                    <step>G</step>
                    <octave>4</octave>
                </pitch>
                <duration>2</duration>
                <voice>1</voice>
                <type>quarter</type>
                <stem>up</stem>
                <lyric number="1">
                    <syllabic>single</syllabic>
                    <text font-weight="bold" font-style="italic">I</text>
                </lyric>
                <lyric number="2">
                    <syllabic>single</syllabic>
                    <text font-weight="bold" font-style="italic">I</text>
                </lyric>
            </note>
        </measure>
        <measure number="13">
            <print new-system="yes"/>
            <harmony default-y="40">
                <root>
                    <root-step>G</root-step>
                </root>
                <kind>dominant</kind>
            </harmony>
            <note>
                <pitch>
                    <step>B</step>
                    <octave>4</octave>
                </pitch>
                <duration>2</duration>
                <voice>1</voice>
                <type>quarter</type>
                <stem>down</stem>
                <lyric number="1">
                    <syllabic>single</syllabic>
                    <text font-weight="bold" font-style="italic">spilled</text>
                </lyric>
                <lyric number="2">
                    <syllabic>single</syllabic>
                    <text font-weight="bold" font-style="italic">did</text>
                </lyric>
                <lyric number="3">
                    <syllabic>single</syllabic>
                    <text font-weight="bold" font-style="italic">Next</text>
                </lyric>
            </note>
            <note>
                <pitch>
                    <step>B</step>
                    <octave>4</octave>
                </pitch>
                <duration>2</duration>
                <voice>1</voice>
                <type>quarter</type>
                <stem>down</stem>
                <lyric number="1">
                    <syllabic>single</syllabic>
                    <text font-weight="bold" font-style="italic">some</text>
                </lyric>
                <lyric number="2">
                    <syllabic>single</syllabic>
                    <text font-weight="bold" font-style="italic">a</text>
                </lyric>
                <lyric number="3">
                    <syllabic>single</syllabic>
                    <text font-weight="bold" font-style="italic">year</text>
                </lyric>
            </note>
            <note>
                <pitch>
                    <step>B</step>
                    <octave>4</octave>
                </pitch>
                <duration>2</duration>
                <voice>1</voice>
                <type>quarter</type>
                <stem>down</stem>
                <lyric number="1">
                    <syllabic>single</syllabic>
                    <text font-weight="bold" font-style="italic">ink</text>
                </lyric>
                <lyric number="2">
                    <syllabic>single</syllabic>
                    <text font-weight="bold" font-style="italic">dance</text>
                </lyric>
                <lyric number="3">
                    <syllabic>single</syllabic>
                    <text font-weight="bold" font-style="italic">I'll</text>
                </lyric>
            </note>
            <note>
                <pitch>
                    <step>B</step>
                    <octave>4</octave>
                </pitch>
                <duration>2</duration>
                <voice>1</voice>
                <type>quarter</type>
                <stem>down</stem>
                <lyric number="1">
                    <syllabic>single</syllabic>
                    <text font-weight="bold" font-style="italic">on</text>
                </lyric>
                <lyric number="2">
                    <syllabic>single</syllabic>
                    <text font-weight="bold" font-style="italic">on</text>
                </lyric>
                <lyric number="3">
                    <syllabic>single</syllabic>
                    <text font-weight="bold" font-style="italic">be</text>
                </lyric>
            </note>
        </measure>
        <measure number="14">
            <harmony default-y="40">
                <root>
                    <root-step>C</root-step>
                </root>
                <kind>major</kind>
            </harmony>
            <note>
                <pitch>
                    <step>C</step>
                    <octave>5</octave>
                </pitch>
                <duration>2</duration>
                <voice>1</voice>
                <type>quarter</type>
                <stem>down</stem>
                <lyric number="1">
                    <syllabic>single</syllabic>
                    <text font-weight="bold" font-style="italic">Mom</text>
                </lyric>
                <lyric number="2">
                    <syllabic>single</syllabic>
                    <text font-weight="bold" font-style="italic">Mom</text>
                </lyric>
                <lyric number="3">
                    <syllabic>single</syllabic>
                    <text font-weight="bold" font-style="italic">go</text>
                </lyric>
            </note>
            <note>
                <pitch>
                    <step>C</step>
                    <octave>5</octave>
                </pitch>
                <duration>2</duration>
                <voice>1</voice>
                <type>quarter</type>
                <stem>down</stem>
                <lyric number="1">
                    <syllabic>single</syllabic>
                    <text font-weight="bold" font-style="italic">my's</text>
                </lyric>
                <lyric number="2">
                    <syllabic>single</syllabic>
                    <text font-weight="bold" font-style="italic">my's</text>
                </lyric>
                <lyric number="3">
                    <syllabic>single</syllabic>
                    <text font-weight="bold" font-style="italic">ing</text>
                </lyric>
            </note>
            <note>
                <pitch>
                    <step>C</step>
                    <octave>5</octave>
                </pitch>
                <duration>2</duration>
                <voice>1</voice>
                <type>quarter</type>
                <stem>down</stem>
                <lyric number="1">
                    <syllabic>single</syllabic>
                    <text font-weight="bold" font-style="italic">rug</text>
                </lyric>
                <lyric number="2">
                    <syllabic>single</syllabic>
                    <text font-weight="bold" font-style="italic">plants</text>
                </lyric>
                <lyric number="3">
                    <syllabic>single</syllabic>
                    <text font-weight="bold" font-style="italic">straight</text>
                </lyric>
            </note>
            <note>
                <rest/>
                <duration>2</duration>
                <voice>1</voice>
                <type>quarter</type>
            </note>
        </measure>
        <measure number="15">
            <harmony default-y="40">
                <root>
                    <root-step>D</root-step>
                </root>
                <kind>major</kind>
            </harmony>
            <note>
                <pitch>
                    <step>A</step>
                    <octave>4</octave>
                </pitch>
                <duration>2</duration>
                <voice>1</voice>
                <type>quarter</type>
                <stem>up</stem>
                <lyric number="1">
                    <syllabic>single</syllabic>
                    <text font-weight="bold" font-style="italic">I</text>
                </lyric>
                <lyric number="2">
                    <syllabic>single</syllabic>
                    <text font-weight="bold" font-style="italic">Climbed</text>
                </lyric>
                <lyric number="3">
                    <syllabic>single</syllabic>
                    <text font-weight="bold" font-style="italic">Next</text>
                </lyric>
            </note>
            <note>
                <pitch>
                    <step>A</step>
                    <octave>4</octave>
                </pitch>
                <duration>2</duration>
                <voice>1</voice>
                <type>quarter</type>
                <stem>up</stem>
                <lyric number="1">
                    <syllabic>single</syllabic>
                    <text font-weight="bold" font-style="italic">made</text>
                </lyric>
                <lyric number="2">
                    <syllabic>single</syllabic>
                    <text font-weight="bold" font-style="italic">a</text>
                </lyric>
                <lyric number="3">
                    <syllabic>single</syllabic>
                    <text font-weight="bold" font-style="italic">year</text>
                </lyric>
            </note>
            <note>
                <pitch>
                    <step>A</step>
                    <octave>4</octave>
                </pitch>
                <duration>2</duration>
                <voice>1</voice>
                <type>quarter</type>
                <stem>up</stem>
                <lyric number="1">
                    <syllabic>single</syllabic>
                    <text font-weight="bold" font-style="italic">Tom</text>
                </lyric>
                <lyric number="2">
                    <syllabic>single</syllabic>
                    <text font-weight="bold" font-style="italic">tree</text>
                </lyric>
                <lyric number="3">
                    <syllabic>single</syllabic>
                    <text font-weight="bold" font-style="italic">I'll</text>
                </lyric>
            </note>
            <note>
                <pitch>
                    <step>A</step>
                    <octave>4</octave>
                </pitch>
                <duration>2</duration>
                <voice>1</voice>
                <type>quarter</type>
                <stem>up</stem>
                <lyric number="1">
                    <syllabic>single</syllabic>
                    <text font-weight="bold" font-style="italic">my</text>
                </lyric>
                <lyric number="2">
                    <syllabic>single</syllabic>
                    <text font-weight="bold" font-style="italic">and</text>
                </lyric>
                <lyric number="3">
                    <syllabic>single</syllabic>
                    <text font-weight="bold" font-style="italic">be</text>
                </lyric>
            </note>
        </measure>
        <measure number="16">
            <harmony default-y="40">
                <root>
                    <root-step>G</root-step>
                </root>
                <kind>major</kind>
            </harmony>
            <note>
                <pitch>
                    <step>B</step>
                    <octave>4</octave>
                </pitch>
                <duration>2</duration>
                <voice>1</voice>
                <type>quarter</type>
                <stem>down</stem>
                <lyric number="1">
                    <syllabic>single</syllabic>
                    <text font-weight="bold" font-style="italic">eat</text>
                </lyric>
                <lyric number="2">
                    <syllabic>single</syllabic>
                    <text font-weight="bold" font-style="italic">tore</text>
                </lyric>
                <lyric number="3">
                    <syllabic>single</syllabic>
                    <text font-weight="bold" font-style="italic">good,</text>
                </lyric>
            </note>
            <note>
                <pitch>
                    <step>B</step>
                    <octave>4</octave>
                </pitch>
                <duration>2</duration>
                <voice>1</voice>
                <type>quarter</type>
                <stem>down</stem>
                <lyric number="1">
                    <syllabic>single</syllabic>
                    <text font-weight="bold" font-style="italic">a</text>
                </lyric>
                <lyric number="2">
                    <syllabic>single</syllabic>
                    <text font-weight="bold" font-style="italic">my</text>
                </lyric>
                <lyric number="3">
                    <syllabic>single</syllabic>
                    <text font-weight="bold" font-style="italic">just</text>
                </lyric>
            </note>
            <note>
                <pitch>
                    <step>B</step>
                    <octave>4</octave>
                </pitch>
                <duration>2</duration>
                <voice>1</voice>
                <type>quarter</type>
                <stem>down</stem>
                <lyric number="1">
                    <syllabic>single</syllabic>
                    <text font-weight="bold" font-style="italic">bug</text>
                </lyric>
                <lyric number="2">
                    <syllabic>single</syllabic>
                    <text font-weight="bold" font-style="italic">pants</text>
                </lyric>
                <lyric number="3">
                    <syllabic>single</syllabic>
                    <text font-weight="bold" font-style="italic">wait</text>
                </lyric>
            </note>
            <note>
                <rest/>
                <duration>2</duration>
                <voice>1</voice>
                <type>quarter</type>
            </note>
        </measure>
        <measure number="17">
            <print new-system="yes"/>
            <harmony default-y="40">
                <root>
                    <root-step>E</root-step>
                </root>
                <kind>minor</kind>
            </harmony>
            <note>
                <pitch>
                    <step>G</step>
                    <octave>4</octave>
                </pitch>
                <duration>2</duration>
                <voice>1</voice>
                <type>quarter</type>
                <stem>up</stem>
                <lyric number="1">
                    <syllabic>single</syllabic>
                    <text font-weight="bold" font-style="italic">Bought</text>
                </lyric>
                <lyric number="2">
                    <syllabic>single</syllabic>
                    <text font-weight="bold" font-style="italic">Filled</text>
                </lyric>
                <lyric number="3">
                    <syllabic>single</syllabic>
                    <text font-weight="bold" font-style="italic">I'd</text>
                </lyric>
            </note>
            <note>
                <pitch>
                    <step>G</step>
                    <octave>4</octave>
                </pitch>
                <duration>2</duration>
                <voice>1</voice>
                <type>quarter</type>
                <stem>up</stem>
                <lyric number="1">
                    <syllabic>single</syllabic>
                    <text font-weight="bold" font-style="italic">some</text>
                </lyric>
                <lyric number="2">
                    <syllabic>single</syllabic>
                    <text font-weight="bold" font-style="italic">the</text>
                </lyric>
                <lyric number="3">
                    <syllabic>single</syllabic>
                    <text font-weight="bold" font-style="italic">start</text>
                </lyric>
            </note>
            <note>
                <pitch>
                    <step>G</step>
                    <octave>4</octave>
                </pitch>
                <duration>2</duration>
                <voice>1</voice>
                <type>quarter</type>
                <stem>up</stem>
                <lyric number="1">
                    <syllabic>single</syllabic>
                    <text font-weight="bold" font-style="italic">gum</text>
                </lyric>
                <lyric number="2">
                    <syllabic>single</syllabic>
                    <text font-weight="bold" font-style="italic">sug</text>
                </lyric>
                <lyric number="3">
                    <syllabic>single</syllabic>
                    <text font-weight="bold" font-style="italic">now</text>
                </lyric>
            </note>
            <note>
                <pitch>
                    <step>G</step>
                    <octave>4</octave>
                </pitch>
                <duration>1</duration>
                <voice>1</voice>
                <type>eighth</type>
                <stem>up</stem>
                <beam number="1">begin</beam>
                <lyric number="1">
                    <syllabic>single</syllabic>
                    <text font-weight="bold" font-style="italic">with</text>
                </lyric>
                <lyric number="2">
                    <syllabic>single</syllabic>
                    <text font-weight="bold" font-style="italic">ar</text>
                    <extend/>
                </lyric>
                <lyric number="3">
                    <syllabic>single</syllabic>
                    <text font-weight="bold" font-style="italic">nut</text>
                    <extend/>
                </lyric>
            </note>
            <note>
                <pitch>
                    <step>G</step>
                    <octave>4</octave>
                </pitch>
                <duration>1</duration>
                <voice>1</voice>
                <type>eighth</type>
                <stem>up</stem>
                <beam number="1">end</beam>
                <lyric number="1">
                    <syllabic>single</syllabic>
                    <text font-weight="bold" font-style="italic">a</text>
                </lyric>
            </note>
        </measure>
        <measure number="18">
            <harmony default-y="40">
                <root>
                    <root-step>A</root-step>
                </root>
                <kind>dominant</kind>
            </harmony>
            <note>
                <pitch>
                    <step>A</step>
                    <octave>4</octave>
                </pitch>
                <duration>2</duration>
                <voice>1</voice>
                <type>quarter</type>
                <stem>up</stem>
                <lyric number="1">
                    <syllabic>single</syllabic>
                    <text font-weight="bold" font-style="italic">pen</text>
                </lyric>
                <lyric number="2">
                    <syllabic>single</syllabic>
                    <text font-weight="bold" font-style="italic">bowl</text>
                </lyric>
                <lyric number="3">
                    <syllabic>single</syllabic>
                    <text font-weight="bold" font-style="italic">it's</text>
                </lyric>
            </note>
            <note>
                <pitch>
                    <step>A</step>
                    <octave>4</octave>
                </pitch>
                <duration>2</duration>
                <voice>1</voice>
                <type>quarter</type>
                <stem>up</stem>
                <lyric number="1">
                    <syllabic>single</syllabic>
                    <text font-weight="bold" font-style="italic">ny</text>
                </lyric>
                <lyric number="2">
                    <syllabic>single</syllabic>
                    <text font-weight="bold" font-style="italic">with</text>
                </lyric>
                <lyric number="3">
                    <syllabic>single</syllabic>
                    <text font-weight="bold" font-style="italic">too</text>
                </lyric>
            </note>
            <note>
                <pitch>
                    <step>A</step>
                    <octave>4</octave>
                </pitch>
                <duration>2</duration>
                <voice>1</voice>
                <type>quarter</type>
                <stem>up</stem>
                <lyric number="1">
                    <syllabic>single</syllabic>
                    <text font-weight="bold" font-style="italic">slug</text>
                </lyric>
                <lyric number="2">
                    <syllabic>single</syllabic>
                    <text font-weight="bold" font-style="italic">ants</text>
                </lyric>
                <lyric number="3">
                    <syllabic>single</syllabic>
                    <text font-weight="bold" font-style="italic">late</text>
                </lyric>
            </note>
            <note>
                <rest/>
                <duration>2</duration>
                <voice>1</voice>
                <type>quarter</type>
            </note>
        </measure>
        <measure number="19">
            <harmony default-y="40">
                <root>
                    <root-step>D</root-step>
                </root>
                <kind>major</kind>
            </harmony>
            <note>
                <pitch>
                    <step>F</step>
                    <alter>1</alter>
                    <octave>4</octave>
                </pitch>
                <duration>2</duration>
                <voice>1</voice>
                <type>quarter</type>
                <stem>up</stem>
                <lyric number="2">
                    <syllabic>single</syllabic>
                    <text font-weight="bold" font-style="italic">SOME</text>
                </lyric>
            </note>
            <note>
                <pitch>
                    <step>F</step>
                    <alter>1</alter>
                    <octave>4</octave>
                </pitch>
                <duration>1</duration>
                <voice>1</voice>
                <type>eighth</type>
                <stem>up</stem>
                <beam number="1">begin</beam>
                <lyric number="2">
                    <syllabic>single</syllabic>
                    <text font-weight="bold" font-style="italic">BOD</text>
                </lyric>
            </note>
            <note>
                <pitch>
                    <step>F</step>
                    <alter>1</alter>
                    <octave>4</octave>
                </pitch>
                <duration>1</duration>
                <voice>1</voice>
                <type>eighth</type>
                <stem>up</stem>
                <beam number="1">end</beam>
                <lyric number="2">
                    <syllabic>single</syllabic>
                    <text font-weight="bold" font-style="italic">Y</text>
                </lyric>
            </note>
            <note>
                <pitch>
                    <step>E</step>
                    <octave>4</octave>
                </pitch>
                <duration>2</duration>
                <voice>1</voice>
                <type>quarter</type>
                <stem>up</stem>
                <lyric number="2">
                    <syllabic>single</syllabic>
                    <text font-weight="bold" font-style="italic">SNITCHED</text>
                </lyric>
            </note>
            <note>
                <pitch>
                    <step>F</step>
                    <alter>1</alter>
                    <octave>4</octave>
                </pitch>
                <duration>2</duration>
                <voice>1</voice>
                <type>quarter</type>
                <stem>up</stem>
                <lyric number="2">
                    <syllabic>single</syllabic>
                    <text font-weight="bold" font-style="italic">ON</text>
                </lyric>
            </note>
        </measure>
        <measure number="20">
            <harmony default-y="40">
                <root>
                    <root-step>G</root-step>
                </root>
                <kind>major</kind>
            </harmony>
            <note>
                <pitch>
                    <step>G</step>
                    <octave>4</octave>
                </pitch>
                <duration>8</duration>
                <voice>1</voice>
                <type>whole</type>
                <lyric number="2">
                    <syllabic>single</syllabic>
                    <text font-weight="bold" font-style="italic">ME!</text>
                </lyric>
            </note>
        </measure>
        <measure number="21">
            <print new-system="yes"/>
            <note>
                <rest/>
                <duration>4</duration>
                <voice>1</voice>
                <type>half</type>
            </note>
            <harmony default-y="40">
                <root>
                    <root-step>D</root-step>
                </root>
                <kind>dominant</kind>
            </harmony>
            <note>
                <pitch>
                    <step>D</step>
                    <octave>5</octave>
                </pitch>
                <duration>4</duration>
                <voice>1</voice>
                <type>half</type>
                <stem>down</stem>
                <lyric number="2">
                    <syllabic>single</syllabic>
                    <text font-weight="bold" font-style="italic">OH!</text>
                </lyric>
            </note>
        </measure>
        <measure number="22">
            <harmony default-y="40">
                <root>
                    <root-step>G</root-step>
                </root>
                <kind>major-sixth</kind>
            </harmony>
            <note>
                <pitch>
                    <step>D</step>
                    <octave>5</octave>
                </pitch>
                <duration>4</duration>
                <voice>1</voice>
                <type>half</type>
                <stem>down</stem>
                <lyric number="2">
                    <syllabic>single</syllabic>
                    <text font-weight="bold" font-style="italic">I'm</text>
                </lyric>
            </note>
            <note>
                <pitch>
                    <step>B</step>
                    <octave>4</octave>
                </pitch>
                <duration>2</duration>
                <voice>1</voice>
                <type>quarter</type>
                <stem>down</stem>
                <lyric number="2">
                    <syllabic>single</syllabic>
                    <text font-weight="bold" font-style="italic">get</text>
                </lyric>
            </note>
            <note>
                <pitch>
                    <step>E</step>
                    <octave>5</octave>
                </pitch>
                <duration>2</duration>
                <voice>1</voice>
                <type>quarter</type>
                <stem>down</stem>
                <lyric number="2">
                    <syllabic>single</syllabic>
                    <text font-weight="bold" font-style="italic">tin'</text>
                </lyric>
            </note>
        </measure>
        <measure number="23">
            <note>
                <pitch>
                    <step>D</step>
                    <octave>5</octave>
                </pitch>
                <duration>2</duration>
                <voice>1</voice>
                <type>quarter</type>
                <stem>down</stem>
                <lyric number="2">
                    <syllabic>single</syllabic>
                    <text font-weight="bold" font-style="italic">Nut</text>
                </lyric>
            </note>
            <note>
                <pitch>
                    <step>B</step>
                    <octave>4</octave>
                </pitch>
                <duration>2</duration>
                <voice>1</voice>
                <type>quarter</type>
                <stem>down</stem>
                <lyric number="2">
                    <syllabic>single</syllabic>
                    <text font-weight="bold" font-style="italic">tin'</text>
                </lyric>
            </note>
            <note>
                <rest/>
                <duration>2</duration>
                <voice>1</voice>
                <type>quarter</type>
            </note>
            <note>
                <pitch>
                    <step>E</step>
                    <octave>5</octave>
                </pitch>
                <duration>2</duration>
                <voice>1</voice>
                <type>quarter</type>
                <stem>down</stem>
                <lyric number="2">
                    <syllabic>single</syllabic>
                    <text font-weight="bold" font-style="italic">for</text>
                </lyric>
            </note>
        </measure>
        <measure number="24">
            <note>
                <pitch>
                    <step>D</step>
                    <octave>5</octave>
                </pitch>
                <duration>2</duration>
                <voice>1</voice>
                <type>quarter</type>
                <stem>down</stem>
                <lyric number="2">
                    <syllabic>single</syllabic>
                    <text font-weight="bold" font-style="italic">Christ</text>
                </lyric>
            </note>
            <note>
                <pitch>
                    <step>B</step>
                    <octave>4</octave>
                </pitch>
                <duration>6</duration>
                <voice>1</voice>
                <type>half</type>
                <dot/>
                <stem>down</stem>
                <lyric number="2">
                    <syllabic>single</syllabic>
                    <text font-weight="bold" font-style="italic">mas</text>
                </lyric>
            </note>
        </measure>
        <measure number="25">
            <print new-system="yes"/>
            <note>
                <rest/>
                <duration>8</duration>
                <voice>1</voice>
            </note>
        </measure>
        <measure number="26">
            <harmony default-y="40">
                <root>
                    <root-step>D</root-step>
                </root>
                <kind>dominant</kind>
            </harmony>
            <note>
                <pitch>
                    <step>C</step>
                    <octave>5</octave>
                </pitch>
                <duration>4</duration>
                <voice>1</voice>
                <type>half</type>
                <stem>down</stem>
                <lyric number="2">
                    <syllabic>single</syllabic>
                    <text font-weight="bold" font-style="italic">Mom</text>
                </lyric>
            </note>
            <note>
                <pitch>
                    <step>A</step>
                    <octave>4</octave>
                </pitch>
                <duration>2</duration>
                <voice>1</voice>
                <type>quarter</type>
                <stem>up</stem>
                <lyric number="2">
                    <syllabic>single</syllabic>
                    <text font-weight="bold" font-style="italic">my</text>
                </lyric>
            </note>
            <note>
                <pitch>
                    <step>D</step>
                    <octave>5</octave>
                </pitch>
                <duration>2</duration>
                <voice>1</voice>
                <type>quarter</type>
                <stem>down</stem>
                <lyric number="2">
                    <syllabic>single</syllabic>
                    <text font-weight="bold" font-style="italic">and</text>
                </lyric>
            </note>
        </measure>
        <measure number="27">
            <note>
                <pitch>
                    <step>C</step>
                    <octave>5</octave>
                </pitch>
                <duration>2</duration>
                <voice>1</voice>
                <type>quarter</type>
                <stem>down</stem>
                <lyric number="2">
                    <syllabic>single</syllabic>
                    <text font-weight="bold" font-style="italic">Dad</text>
                </lyric>
            </note>
            <note>
                <pitch>
                    <step>A</step>
                    <octave>4</octave>
                </pitch>
                <duration>2</duration>
                <voice>1</voice>
                <type>quarter</type>
                <stem>up</stem>
                <lyric number="2">
                    <syllabic>single</syllabic>
                    <text font-weight="bold" font-style="italic">dy</text>
                </lyric>
            </note>
            <note>
                <rest/>
                <duration>2</duration>
                <voice>1</voice>
                <type>quarter</type>
            </note>
            <note>
                <pitch>
                    <step>D</step>
                    <octave>5</octave>
                </pitch>
                <duration>2</duration>
                <voice>1</voice>
                <type>quarter</type>
                <stem>down</stem>
                <lyric number="2">
                    <syllabic>single</syllabic>
                    <text font-weight="bold" font-style="italic">are</text>
                </lyric>
            </note>
        </measure>
        <measure number="28">
            <note>
                <pitch>
                    <step>C</step>
                    <octave>5</octave>
                </pitch>
                <duration>8</duration>
                <voice>1</voice>
                <type>whole</type>
                <lyric number="2">
                    <syllabic>single</syllabic>
                    <text font-weight="bold" font-style="italic">mad</text>
                </lyric>
            </note>
        </measure>
        <measure number="29">
            <print new-page="yes"/>
            <note>
                <rest/>
                <duration>8</duration>
                <voice>1</voice>
            </note>
        </measure>
        <measure number="30">
            <harmony default-y="40">
                <root>
                    <root-step>G</root-step>
                </root>
                <kind>major-sixth</kind>
            </harmony>
            <note>
                <pitch>
                    <step>D</step>
                    <octave>5</octave>
                </pitch>
                <duration>4</duration>
                <voice>1</voice>
                <type>half</type>
                <stem>down</stem>
                <lyric number="2">
                    <syllabic>single</syllabic>
                    <text font-weight="bold" font-style="italic">I'm</text>
                </lyric>
            </note>
            <note>
                <pitch>
                    <step>B</step>
                    <octave>4</octave>
                </pitch>
                <duration>2</duration>
                <voice>1</voice>
                <type>quarter</type>
                <stem>down</stem>
                <lyric number="2">
                    <syllabic>single</syllabic>
                    <text font-weight="bold" font-style="italic">get</text>
                </lyric>
            </note>
            <note>
                <pitch>
                    <step>E</step>
                    <octave>5</octave>
                </pitch>
                <duration>2</duration>
                <voice>1</voice>
                <type>quarter</type>
                <stem>down</stem>
                <lyric number="2">
                    <syllabic>single</syllabic>
                    <text font-weight="bold" font-style="italic">tin'</text>
                </lyric>
            </note>
        </measure>
        <measure number="31">
            <note>
                <pitch>
                    <step>D</step>
                    <octave>5</octave>
                </pitch>
                <duration>2</duration>
                <voice>1</voice>
                <type>quarter</type>
                <stem>down</stem>
                <lyric number="2">
                    <syllabic>single</syllabic>
                    <text font-weight="bold" font-style="italic">Nut</text>
                </lyric>
            </note>
            <note>
                <pitch>
                    <step>B</step>
                    <octave>4</octave>
                </pitch>
                <duration>2</duration>
                <voice>1</voice>
                <type>quarter</type>
                <stem>down</stem>
                <lyric number="2">
                    <syllabic>single</syllabic>
                    <text font-weight="bold" font-style="italic">tin'</text>
                </lyric>
            </note>
            <note>
                <rest/>
                <duration>2</duration>
                <voice>1</voice>
                <type>quarter</type>
            </note>
            <note>
                <pitch>
                    <step>E</step>
                    <octave>5</octave>
                </pitch>
                <duration>2</duration>
                <voice>1</voice>
                <type>quarter</type>
                <stem>down</stem>
                <lyric number="2">
                    <syllabic>single</syllabic>
                    <text font-weight="bold" font-style="italic">for</text>
                </lyric>
            </note>
        </measure>
        <measure number="32">
            <note>
                <pitch>
                    <step>D</step>
                    <octave>5</octave>
                </pitch>
                <duration>2</duration>
                <voice>1</voice>
                <type>quarter</type>
                <stem>down</stem>
                <lyric number="2">
                    <syllabic>single</syllabic>
                    <text font-weight="bold" font-style="italic">Christ</text>
                </lyric>
            </note>
            <note>
                <pitch>
                    <step>B</step>
                    <octave>4</octave>
                </pitch>
                <duration>6</duration>
                <voice>1</voice>
                <type>half</type>
                <dot/>
                <stem>down</stem>
                <lyric number="2">
                    <syllabic>single</syllabic>
                    <text font-weight="bold" font-style="italic">mas</text>
                </lyric>
            </note>
        </measure>
        <measure number="33">
            <print new-system="yes"/>
            <note>
                <rest/>
                <duration>4</duration>
                <voice>1</voice>
                <type>half</type>
            </note>
            <note>
                <rest/>
                <duration>2</duration>
                <voice>1</voice>
                <type>quarter</type>
            </note>
            <note>
                <pitch>
                    <step>G</step>
                    <octave>4</octave>
                </pitch>
                <duration>2</duration>
                <voice>1</voice>
                <type>quarter</type>
                <stem>up</stem>
                <lyric number="2">
                    <syllabic>single</syllabic>
                    <text font-weight="bold" font-style="italic">cuz</text>
                </lyric>
            </note>
        </measure>
        <measure number="34">
            <harmony default-y="40">
                <root>
                    <root-step>D</root-step>
                </root>
                <kind>dominant</kind>
            </harmony>
            <note>
                <pitch>
                    <step>A</step>
                    <octave>4</octave>
                </pitch>
                <duration>4</duration>
                <voice>1</voice>
                <type>half</type>
                <stem>up</stem>
                <lyric number="2">
                    <syllabic>single</syllabic>
                    <text font-weight="bold" font-style="italic">I</text>
                </lyric>
            </note>
            <note>
                <pitch>
                    <step>B</step>
                    <octave>4</octave>
                </pitch>
                <duration>2</duration>
                <voice>1</voice>
                <type>quarter</type>
                <stem>down</stem>
                <lyric number="2">
                    <syllabic>single</syllabic>
                    <text font-weight="bold" font-style="italic">ain't</text>
                </lyric>
            </note>
            <note>
                <pitch>
                    <step>C</step>
                    <octave>5</octave>
                </pitch>
                <duration>2</duration>
                <voice>1</voice>
                <type>quarter</type>
                <stem>down</stem>
                <lyric number="2">
                    <syllabic>single</syllabic>
                    <text font-weight="bold" font-style="italic">been</text>
                </lyric>
            </note>
        </measure>
        <measure number="35">
            <note>
                <pitch>
                    <step>B</step>
                    <octave>4</octave>
                </pitch>
                <duration>2</duration>
                <voice>1</voice>
                <type>quarter</type>
                <stem>down</stem>
                <lyric number="2">
                    <syllabic>single</syllabic>
                    <text font-weight="bold" font-style="italic">Nut</text>
                </lyric>
            </note>
            <note>
                <pitch>
                    <step>B</step>
                    <octave>4</octave>
                </pitch>
                <duration>2</duration>
                <voice>1</voice>
                <type>quarter</type>
                <stem>down</stem>
                <lyric number="2">
                    <syllabic>single</syllabic>
                    <text font-weight="bold" font-style="italic">tin'</text>
                </lyric>
            </note>
            <note>
                <rest/>
                <duration>2</duration>
                <voice>1</voice>
                <type>quarter</type>
            </note>
            <note>
                <pitch>
                    <step>A</step>
                    <octave>4</octave>
                </pitch>
                <duration>2</duration>
                <voice>1</voice>
                <type>quarter</type>
                <stem>up</stem>
                <lyric number="2">
                    <syllabic>single</syllabic>
                    <text font-weight="bold" font-style="italic">but</text>
                </lyric>
            </note>
        </measure>
        <measure number="36">
            <note>
                <pitch>
                    <step>G</step>
                    <octave>4</octave>
                </pitch>
                <duration>8</duration>
                <voice>1</voice>
                <type>whole</type>
                <lyric number="2">
                    <syllabic>single</syllabic>
                    <text font-weight="bold" font-style="italic">bad</text>
                </lyric>
            </note>
            <barline location="right">
                <bar-style>light-heavy</bar-style>
                <repeat direction="backward"/>
            </barline>
        </measure>
        <measure number="37">
            <print new-system="yes"/>
            <note>
                <rest/>
                <duration>4</duration>
                <voice>1</voice>
                <type>half</type>
            </note>
            <note>
                <rest/>
                <duration>2</duration>
                <voice>1</voice>
                <type>quarter</type>
            </note>
            <note>
                <pitch>
                    <step>G</step>
                    <octave>4</octave>
                </pitch>
                <duration>1</duration>
                <voice>1</voice>
                <type>eighth</type>
                <stem>up</stem>
                <beam number="1">begin</beam>
                <lyric number="2">
                    <syllabic>single</syllabic>
                    <text font-weight="bold" font-style="italic">so</text>
                </lyric>
            </note>
            <note>
                <pitch>
                    <step>G</step>
                    <octave>4</octave>
                </pitch>
                <duration>1</duration>
                <voice>1</voice>
                <type>eighth</type>
                <stem>up</stem>
                <beam number="1">end</beam>
                <lyric number="2">
                    <syllabic>single</syllabic>
                    <text font-weight="bold" font-style="italic">you</text>
                </lyric>
            </note>
        </measure>
        <measure number="38">
            <harmony default-y="40">
                <root>
                    <root-step>A</root-step>
                </root>
                <kind>minor</kind>
            </harmony>
            <note>
                <pitch>
                    <step>A</step>
                    <octave>4</octave>
                </pitch>
                <duration>1</duration>
                <voice>1</voice>
                <type>eighth</type>
                <stem>up</stem>
                <beam number="1">begin</beam>
                <lyric number="2">
                    <syllabic>single</syllabic>
                    <text font-weight="bold" font-style="italic">bet</text>
                </lyric>
            </note>
            <note>
                <pitch>
                    <step>A</step>
                    <octave>4</octave>
                </pitch>
                <duration>1</duration>
                <voice>1</voice>
                <type>eighth</type>
                <stem>up</stem>
                <beam number="1">end</beam>
                <lyric number="2">
                    <syllabic>single</syllabic>
                    <text font-weight="bold" font-style="italic">ter</text>
                </lyric>
            </note>
            <note>
                <pitch>
                    <step>A</step>
                    <octave>4</octave>
                </pitch>
                <duration>2</duration>
                <voice>1</voice>
                <type>quarter</type>
                <stem>up</stem>
                <lyric number="2">
                    <syllabic>single</syllabic>
                    <text font-weight="bold" font-style="italic">be</text>
                </lyric>
            </note>
            <note>
                <pitch>
                    <step>A</step>
                    <octave>4</octave>
                </pitch>
                <duration>2</duration>
                <voice>1</voice>
                <type>quarter</type>
                <stem>up</stem>
                <lyric number="2">
                    <syllabic>single</syllabic>
                    <text font-weight="bold" font-style="italic">good</text>
                </lyric>
            </note>
            <note>
                <rest/>
                <duration>1</duration>
                <voice>1</voice>
                <type>eighth</type>
            </note>
            <note>
                <pitch>
                    <step>A</step>
                    <octave>4</octave>
                </pitch>
                <duration>1</duration>
                <voice>1</voice>
                <type>eighth</type>
                <stem>up</stem>
                <lyric number="2">
                    <syllabic>single</syllabic>
                    <text font-weight="bold" font-style="italic">what</text>
                </lyric>
            </note>
        </measure>
        <measure number="39">
            <harmony default-y="40">
                <root>
                    <root-step>E</root-step>
                </root>
                <kind>dominant</kind>
            </harmony>
            <note>
                <pitch>
                    <step>B</step>
                    <octave>4</octave>
                </pitch>
                <duration>1</duration>
                <voice>1</voice>
                <type>eighth</type>
                <stem>down</stem>
                <beam number="1">begin</beam>
                <lyric number="2">
                    <syllabic>single</syllabic>
                    <text font-weight="bold" font-style="italic">ev</text>
                </lyric>
            </note>
            <note>
                <pitch>
                    <step>B</step>
                    <octave>4</octave>
                </pitch>
                <duration>1</duration>
                <voice>1</voice>
                <type>eighth</type>
                <stem>down</stem>
                <beam number="1">end</beam>
                <lyric number="2">
                    <syllabic>single</syllabic>
                    <text font-weight="bold" font-style="italic">er</text>
                </lyric>
            </note>
            <note>
                <pitch>
                    <step>B</step>
                    <octave>4</octave>
                </pitch>
                <duration>2</duration>
                <voice>1</voice>
                <type>quarter</type>
                <stem>down</stem>
                <lyric number="2">
                    <syllabic>single</syllabic>
                    <text font-weight="bold" font-style="italic">you</text>
                </lyric>
            </note>
            <note>
                <pitch>
                    <step>B</step>
                    <octave>4</octave>
                </pitch>
                <duration>2</duration>
                <voice>1</voice>
                <type>quarter</type>
                <stem>down</stem>
                <lyric number="2">
                    <syllabic>single</syllabic>
                    <text font-weight="bold" font-style="italic">do</text>
                </lyric>
            </note>
            <note>
                <rest/>
                <duration>1</duration>
                <voice>1</voice>
                <type>eighth</type>
            </note>
            <note>
                <pitch>
                    <step>B</step>
                    <octave>4</octave>
                </pitch>
                <duration>1</duration>
                <voice>1</voice>
                <type>eighth</type>
                <stem>down</stem>
                <lyric number="2">
                    <syllabic>single</syllabic>
                    <text font-weight="bold" font-style="italic">cuz'</text>
                </lyric>
            </note>
        </measure>
        <measure number="40">
            <harmony default-y="40">
                <root>
                    <root-step>A</root-step>
                </root>
                <kind>minor</kind>
            </harmony>
            <note>
                <pitch>
                    <step>C</step>
                    <octave>5</octave>
                </pitch>
                <duration>2</duration>
                <voice>1</voice>
                <type>quarter</type>
                <stem>down</stem>
                <lyric number="2">
                    <syllabic>single</syllabic>
                    <text font-weight="bold" font-style="italic">if</text>
                </lyric>
            </note>
            <note>
                <pitch>
                    <step>C</step>
                    <octave>5</octave>
                </pitch>
                <duration>2</duration>
                <voice>1</voice>
                <type>quarter</type>
                <stem>down</stem>
                <lyric number="2">
                    <syllabic>single</syllabic>
                    <text font-weight="bold" font-style="italic">you're</text>
                </lyric>
            </note>
            <note>
                <pitch>
                    <step>C</step>
                    <octave>5</octave>
                </pitch>
                <duration>2</duration>
                <voice>1</voice>
                <type>quarter</type>
                <stem>down</stem>
                <lyric number="2">
                    <syllabic>single</syllabic>
                    <text font-weight="bold" font-style="italic">bad</text>
                </lyric>
            </note>
            <note>
                <pitch>
                    <step>C</step>
                    <octave>5</octave>
                </pitch>
                <duration>2</duration>
                <voice>1</voice>
                <type>quarter</type>
                <stem>down</stem>
                <lyric number="2">
                    <syllabic>single</syllabic>
                    <text font-weight="bold" font-style="italic">I'm</text>
                </lyric>
            </note>
        </measure>
        <measure number="41">
            <print new-system="yes"/>
            <harmony default-y="40">
                <root>
                    <root-step>B</root-step>
                </root>
                <kind>diminished</kind>
            </harmony>
            <note>
                <pitch>
                    <step>D</step>
                    <octave>5</octave>
                </pitch>
                <duration>2</duration>
                <voice>1</voice>
                <type>quarter</type>
                <stem>down</stem>
                <lyric number="2">
                    <syllabic>single</syllabic>
                    <text font-weight="bold" font-style="italic">warn</text>
                </lyric>
            </note>
            <note>
                <pitch>
                    <step>D</step>
                    <octave>5</octave>
                </pitch>
                <duration>2</duration>
                <voice>1</voice>
                <type>quarter</type>
                <stem>down</stem>
                <lyric number="2">
                    <syllabic>single</syllabic>
                    <text font-weight="bold" font-style="italic">ing</text>
                </lyric>
            </note>
            <note>
                <pitch>
                    <step>D</step>
                    <octave>5</octave>
                </pitch>
                <duration>2</duration>
                <voice>1</voice>
                <type>quarter</type>
                <stem>down</stem>
                <lyric number="2">
                    <syllabic>single</syllabic>
                    <text font-weight="bold" font-style="italic">you</text>
                </lyric>
            </note>
            <note>
                <rest/>
                <duration>2</duration>
                <voice>1</voice>
                <type>quarter</type>
            </note>
        </measure>
        <measure number="42">
            <harmony default-y="40">
                <root>
                    <root-step>A</root-step>
                </root>
                <kind>minor</kind>
            </harmony>
            <note>
                <pitch>
                    <step>C</step>
                    <octave>5</octave>
                </pitch>
                <duration>4</duration>
                <voice>1</voice>
                <type>half</type>
                <stem>down</stem>
                <lyric number="2">
                    <syllabic>single</syllabic>
                    <text font-weight="bold" font-style="italic">You'll</text>
                </lyric>
            </note>
            <note>
                <pitch>
                    <step>A</step>
                    <octave>4</octave>
                </pitch>
                <duration>4</duration>
                <voice>1</voice>
                <type>half</type>
                <stem>up</stem>
                <lyric number="2">
                    <syllabic>single</syllabic>
                    <text font-weight="bold" font-style="italic">get</text>
                </lyric>
            </note>
        </measure>
        <measure number="43">
            <harmony default-y="40">
                <root>
                    <root-step>D</root-step>
                </root>
                <kind>dominant</kind>
            </harmony>
            <note>
                <pitch>
                    <step>E</step>
                    <octave>5</octave>
                </pitch>
                <duration>2</duration>
                <voice>1</voice>
                <type>quarter</type>
                <stem>down</stem>
                <lyric number="2">
                    <syllabic>single</syllabic>
                    <text font-weight="bold" font-style="italic">Nut</text>
                </lyric>
            </note>
            <note>
                <pitch>
                    <step>D</step>
                    <octave>5</octave>
                </pitch>
                <duration>2</duration>
                <voice>1</voice>
                <type>quarter</type>
                <stem>down</stem>
                <lyric number="2">
                    <syllabic>single</syllabic>
                    <text font-weight="bold" font-style="italic">tin'</text>
                </lyric>
            </note>
            <note>
                <rest/>
                <duration>2</duration>
                <voice>1</voice>
                <type>quarter</type>
            </note>
            <note>
                <pitch>
                    <step>F</step>
                    <alter>1</alter>
                    <octave>4</octave>
                </pitch>
                <duration>2</duration>
                <voice>1</voice>
                <type>quarter</type>
                <stem>up</stem>
                <lyric number="2">
                    <syllabic>single</syllabic>
                    <text font-weight="bold" font-style="italic">for</text>
                </lyric>
            </note>
        </measure>
        <measure number="44">
            <harmony default-y="40">
                <root>
                    <root-step>G</root-step>
                </root>
                <kind>major</kind>
            </harmony>
            <note>
                <pitch>
                    <step>A</step>
                    <octave>4</octave>
                </pitch>
                <duration>2</duration>
                <voice>1</voice>
                <type>quarter</type>
                <stem>up</stem>
                <lyric number="2">
                    <syllabic>single</syllabic>
                    <text font-weight="bold" font-style="italic">Christ</text>
                </lyric>
            </note>
            <note>
                <pitch>
                    <step>G</step>
                    <octave>4</octave>
                </pitch>
                <duration>6</duration>
                <voice>1</voice>
                <type>half</type>
                <dot/>
                <stem>up</stem>
                <lyric number="2">
                    <syllabic>single</syllabic>
                    <text font-weight="bold" font-style="italic">mas!</text>
                </lyric>
            </note>
        </measure>
        <measure number="45">
            <note>
                <rest/>
                <duration>4</duration>
                <voice>1</voice>
                <type>half</type>
            </note>
            <note>
                <pitch>
                    <step>G</step>
                    <octave>5</octave>
                </pitch>
                <duration>2</duration>
                <voice>1</voice>
                <type>quarter</type>
                <stem>down</stem>
            </note>
            <note>
                <rest/>
                <duration>2</duration>
                <voice>1</voice>
                <type>quarter</type>
            </note>
            <barline location="right">
                <bar-style>light-heavy</bar-style>
            </barline>
        </measure>
    </part>
</score-partwise>
