<?xml version="1.0" encoding="UTF-8"?>
<!DOCTYPE score-partwise PUBLIC "-//Recordare//DTD MusicXML 2.0 Partwise//EN" "http://www.musicxml.org/dtds/partwise.dtd">
<score-partwise version="2.0">
    <work>
        <work-number></work-number>
        <work-title></work-title>
    </work>
    <movement-number></movement-number>
    <movement-title>Es ist ein Ros entsprungen</movement-title>
    <identification>
        <creator type="composer">Speyerer Gesangbuch</creator>
        <creator type="poet">Mainz</creator>
        <rights>All Rights Reserved</rights>
        <encoding>
            <software>MuseScore 1.2</software>
            <encoding-date>2012-12-18</encoding-date>
            <software>ProxyMusic 2.0 c</software>
        </encoding>
        <source>http://wikifonia.org/node/19581/revisions/25853/view</source>
    </identification>
    <defaults>
        <scaling>
            <millimeters>7.056</millimeters>
            <tenths>40</tenths>
        </scaling>
        <page-layout>
            <page-height>1683.67</page-height>
            <page-width>1190.48</page-width>
            <page-margins type="even">
                <left-margin>56.6893</left-margin>
                <right-margin>56.6893</right-margin>
                <top-margin>56.6893</top-margin>
                <bottom-margin>113.379</bottom-margin>
            </page-margins>
            <page-margins type="odd">
                <left-margin>56.6893</left-margin>
                <right-margin>56.6893</right-margin>
                <top-margin>56.6893</top-margin>
                <bottom-margin>113.379</bottom-margin>
            </page-margins>
        </page-layout>
    </defaults>
    <credit page="1">
        <credit-words font-size="24" default-y="1626.98" default-x="595.238" justify="center" valign="top">Es ist ein Ros entsprungen</credit-words>
    </credit>
    <credit page="1">
        <credit-words font-size="12" default-y="1559.98" default-x="1133.79" justify="right" valign="top">Speyerer Gesangbuch</credit-words>
    </credit>
    <part-list>
        <score-part id="P1">
            <part-name></part-name>
            <score-instrument id="P1-I3">
                <instrument-name></instrument-name>
            </score-instrument>
            <midi-instrument id="P1-I3">
                <midi-channel>1</midi-channel>
                <midi-program>1</midi-program>
                <volume>78.7402</volume>
                <pan>0</pan>
            </midi-instrument>
        </score-part>
    </part-list>
    <part id="P1">
        <measure width="188.56" number="0" implicit="yes">
            <print>
                <system-layout>
                    <system-margins>
                        <left-margin>18.00</left-margin>
                        <right-margin>-0.00</right-margin>
                    </system-margins>
                    <top-system-distance>189.91</top-system-distance>
                </system-layout>
                <staff-layout number="2">
                    <staff-distance>159.49</staff-distance>
                </staff-layout>
            </print>
            <attributes>
                <divisions>2</divisions>
                <key>
                    <fifths>2</fifths>
                    <mode>major</mode>
                </key>
                <time>
                    <beats>4</beats>
                    <beat-type>4</beat-type>
                </time>
                <staves>2</staves>
                <clef number="1">
                    <sign>G</sign>
                    <line>2</line>
                </clef>
            </attributes>
            <harmony print-frame="no">
                <root>
                    <root-step>D</root-step>
                </root>
                <kind text="">major</kind>
                <staff>1</staff>
            </harmony>
            <note default-y="-25.00" default-x="115.05" dynamics="88.89">
                <pitch>
                    <step>A</step>
                    <octave>4</octave>
                </pitch>
                <duration>4</duration>
                <voice>1</voice>
                <type>half</type>
                <stem>up</stem>
                <staff>1</staff>
                <lyric number="1">
                    <syllabic>single</syllabic>
                    <text>Es</text>
                </lyric>
                <lyric number="2">
                    <syllabic>single</syllabic>
                    <text>Das</text>
                </lyric>
                <lyric number="3">
                    <syllabic>single</syllabic>
                    <text>Das</text>
                </lyric>
            </note>
            <backup>
                <duration>4</duration>
            </backup>
            <note default-y="-234.49" default-x="115.05" dynamics="71.11">
                <pitch>
                    <step>F</step>
                    <alter>1</alter>
                    <octave>4</octave>
                </pitch>
                <duration>4</duration>
                <voice>5</voice>
                <type>half</type>
                <stem>up</stem>
                <staff>2</staff>
            </note>
        </measure>
        <measure width="255.94" number="1">
            <note default-y="-25.00" default-x="21.73" dynamics="71.11">
                <pitch>
                    <step>A</step>
                    <octave>4</octave>
                </pitch>
                <duration>2</duration>
                <voice>1</voice>
                <type>quarter</type>
                <stem>up</stem>
                <staff>1</staff>
                <lyric number="1">
                    <syllabic>single</syllabic>
                    <text>ist</text>
                </lyric>
                <lyric number="2">
                    <syllabic>begin</syllabic>
                    <text>Röl</text>
                </lyric>
                <lyric number="3">
                    <syllabic>begin</syllabic>
                    <text>Blü</text>
                </lyric>
            </note>
            <note default-y="-25.00" default-x="79.88" dynamics="71.11">
                <pitch>
                    <step>A</step>
                    <octave>4</octave>
                </pitch>
                <duration>2</duration>
                <voice>1</voice>
                <type>quarter</type>
                <stem>up</stem>
                <staff>1</staff>
                <lyric number="1">
                    <syllabic>single</syllabic>
                    <text>ein</text>
                </lyric>
                <lyric number="2">
                    <syllabic>end</syllabic>
                    <text>lein</text>
                </lyric>
                <lyric number="3">
                    <syllabic>middle</syllabic>
                    <text>me</text>
                </lyric>
            </note>
            <harmony print-frame="no">
                <root>
                    <root-step>G</root-step>
                </root>
                <kind text="">major</kind>
                <staff>1</staff>
            </harmony>
            <note default-y="-20.00" default-x="138.03" dynamics="71.11">
                <pitch>
                    <step>B</step>
                    <octave>4</octave>
                </pitch>
                <duration>2</duration>
                <voice>1</voice>
                <type>quarter</type>
                <stem>down</stem>
                <staff>1</staff>
                <lyric number="1">
                    <syllabic>single</syllabic>
                    <text>Ros</text>
                </lyric>
                <lyric number="2">
                    <syllabic>single</syllabic>
                    <text>das</text>
                </lyric>
                <lyric number="3">
                    <syllabic>end</syllabic>
                    <text>lein</text>
                </lyric>
            </note>
            <harmony print-frame="no">
                <root>
                    <root-step>D</root-step>
                </root>
                <kind text="">major</kind>
                <staff>1</staff>
            </harmony>
            <note default-y="-25.00" default-x="196.19" dynamics="71.11">
                <pitch>
                    <step>A</step>
                    <octave>4</octave>
                </pitch>
                <duration>2</duration>
                <voice>1</voice>
                <type>quarter</type>
                <stem>up</stem>
                <staff>1</staff>
                <lyric number="1">
                    <syllabic>begin</syllabic>
                    <text>ent</text>
                </lyric>
                <lyric number="2">
                    <syllabic>single</syllabic>
                    <text>ich</text>
                </lyric>
                <lyric number="3">
                    <syllabic>single</syllabic>
                    <text>so</text>
                </lyric>
            </note>
            <backup>
                <duration>8</duration>
            </backup>
            <note default-y="-234.49" default-x="21.73" dynamics="71.11">
                <pitch>
                    <step>F</step>
                    <alter>1</alter>
                    <octave>4</octave>
                </pitch>
                <duration>2</duration>
                <voice>5</voice>
                <type>quarter</type>
                <stem>up</stem>
                <staff>2</staff>
            </note>
            <note default-y="-244.49" default-x="79.88" dynamics="71.11">
                <pitch>
                    <step>D</step>
                    <octave>4</octave>
                </pitch>
                <duration>2</duration>
                <voice>5</voice>
                <type>quarter</type>
                <stem>up</stem>
                <staff>2</staff>
            </note>
            <note default-y="-229.49" default-x="138.03" dynamics="71.11">
                <pitch>
                    <step>G</step>
                    <octave>4</octave>
                </pitch>
                <duration>2</duration>
                <voice>5</voice>
                <type>quarter</type>
                <stem>up</stem>
                <staff>2</staff>
            </note>
            <note default-y="-234.49" default-x="196.19" dynamics="71.11">
                <pitch>
                    <step>F</step>
                    <alter>1</alter>
                    <octave>4</octave>
                </pitch>
                <duration>2</duration>
                <voice>5</voice>
                <type>quarter</type>
                <stem>up</stem>
                <staff>2</staff>
            </note>
        </measure>
        <measure width="194.60" number="2">
            <harmony print-frame="no">
                <root>
                    <root-step>A</root-step>
                </root>
                <kind text="">major</kind>
                <staff>1</staff>
            </harmony>
            <note default-y="-25.00" default-x="30.68" dynamics="71.11">
                <pitch>
                    <step>A</step>
                    <octave>4</octave>
                </pitch>
                <duration>4</duration>
                <voice>1</voice>
                <type>half</type>
                <stem>up</stem>
                <staff>1</staff>
                <lyric number="1">
                    <syllabic>middle</syllabic>
                    <text>sprun</text>
                </lyric>
                <lyric number="2">
                    <syllabic>begin</syllabic>
                    <text>mei</text>
                </lyric>
                <lyric number="3">
                    <syllabic>begin</syllabic>
                    <text>klei</text>
                </lyric>
            </note>
            <harmony print-frame="no">
                <root>
                    <root-step>B</root-step>
                </root>
                <kind text="m">minor</kind>
                <staff>1</staff>
            </harmony>
            <note default-y="-35.00" default-x="111.84" dynamics="71.11">
                <pitch>
                    <step>F</step>
                    <alter>1</alter>
                    <octave>4</octave>
                </pitch>
                <duration>4</duration>
                <voice>1</voice>
                <type>half</type>
                <stem>up</stem>
                <staff>1</staff>
                <lyric number="1">
                    <syllabic>end</syllabic>
                    <text>gen</text>
                </lyric>
                <lyric number="2">
                    <syllabic>end</syllabic>
                    <text>ne</text>
                </lyric>
                <lyric number="3">
                    <syllabic>end</syllabic>
                    <text>ne</text>
                </lyric>
            </note>
            <backup>
                <duration>8</duration>
            </backup>
            <note default-y="-239.49" default-x="30.68" dynamics="71.11">
                <pitch>
                    <step>E</step>
                    <octave>4</octave>
                </pitch>
                <duration>4</duration>
                <voice>5</voice>
                <type>half</type>
                <stem>up</stem>
                <staff>2</staff>
            </note>
            <note default-y="-244.49" default-x="111.84" dynamics="71.11">
                <pitch>
                    <step>D</step>
                    <octave>4</octave>
                </pitch>
                <duration>4</duration>
                <voice>5</voice>
                <type>half</type>
                <stem>up</stem>
                <staff>2</staff>
            </note>
        </measure>
        <measure width="211.82" number="3">
            <harmony print-frame="no">
                <root>
                    <root-step>E</root-step>
                </root>
                <kind text="m">minor</kind>
                <staff>1</staff>
            </harmony>
            <note default-y="-30.00" default-x="20.45" dynamics="71.11">
                <pitch>
                    <step>G</step>
                    <octave>4</octave>
                </pitch>
                <duration>4</duration>
                <voice>1</voice>
                <type>half</type>
                <stem>up</stem>
                <staff>1</staff>
                <lyric number="1">
                    <syllabic>single</syllabic>
                    <text>aus</text>
                </lyric>
                <lyric number="2">
                    <syllabic>begin</syllabic>
                    <text>da</text>
                </lyric>
                <lyric number="3">
                    <syllabic>single</syllabic>
                    <text>das</text>
                </lyric>
            </note>
            <harmony print-frame="no">
                <root>
                    <root-step>D</root-step>
                </root>
                <kind text="">major</kind>
                <staff>1</staff>
            </harmony>
            <note default-y="-35.00" default-x="104.79" dynamics="71.11">
                <pitch>
                    <step>F</step>
                    <alter>1</alter>
                    <octave>4</octave>
                </pitch>
                <duration>2</duration>
                <voice>1</voice>
                <type>quarter</type>
                <stem>up</stem>
                <staff>1</staff>
                <lyric number="1">
                    <syllabic>begin</syllabic>
                    <text>ei</text>
                </lyric>
                <lyric number="2">
                    <syllabic>end</syllabic>
                    <text>von</text>
                </lyric>
                <lyric number="3">
                    <syllabic>begin</syllabic>
                    <text>duf</text>
                </lyric>
            </note>
            <harmony print-frame="no">
                <root>
                    <root-step>A</root-step>
                </root>
                <kind text="">major</kind>
                <staff>1</staff>
            </harmony>
            <note default-y="-40.00" default-x="157.50" dynamics="71.11">
                <pitch>
                    <step>E</step>
                    <octave>4</octave>
                </pitch>
                <duration>2</duration>
                <tie type="start"/>
                <voice>1</voice>
                <type>quarter</type>
                <stem>up</stem>
                <staff>1</staff>
                <notations>
                    <tied type="start"/>
                </notations>
                <lyric number="1">
                    <syllabic>end</syllabic>
                    <text>ner</text>
                </lyric>
                <lyric number="2">
                    <syllabic>begin</syllabic>
                    <text>I</text>
                </lyric>
                <lyric number="3">
                    <syllabic>end</syllabic>
                    <text>tet</text>
                </lyric>
            </note>
            <backup>
                <duration>8</duration>
            </backup>
            <note default-y="-254.49" default-x="20.45" dynamics="71.11">
                <pitch>
                    <step>B</step>
                    <octave>3</octave>
                </pitch>
                <duration>4</duration>
                <voice>5</voice>
                <type>half</type>
                <stem>up</stem>
                <staff>2</staff>
            </note>
            <note default-y="-259.49" default-x="104.79" dynamics="71.11">
                <pitch>
                    <step>A</step>
                    <octave>3</octave>
                </pitch>
                <duration>2</duration>
                <voice>5</voice>
                <type>quarter</type>
                <stem>up</stem>
                <staff>2</staff>
            </note>
            <note default-y="-259.49" default-x="157.50" dynamics="71.11">
                <pitch>
                    <step>A</step>
                    <octave>3</octave>
                </pitch>
                <duration>2</duration>
                <voice>5</voice>
                <type>quarter</type>
                <stem>up</stem>
                <staff>2</staff>
            </note>
        </measure>
        <measure width="208.18" number="4">
            <note default-y="-40.00" default-x="17.50" dynamics="71.11">
                <pitch>
                    <step>E</step>
                    <octave>4</octave>
                </pitch>
                <duration>2</duration>
                <tie type="stop"/>
                <voice>1</voice>
                <type>quarter</type>
                <stem>up</stem>
                <staff>1</staff>
                <notations>
                    <tied type="stop"/>
                </notations>
            </note>
            <harmony print-frame="no">
                <root>
                    <root-step>B</root-step>
                </root>
                <kind text="m">minor</kind>
                <staff>1</staff>
            </harmony>
            <note default-y="-45.00" default-x="64.77" dynamics="71.11">
                <pitch>
                    <step>D</step>
                    <octave>4</octave>
                </pitch>
                <duration>4</duration>
                <voice>1</voice>
                <type>half</type>
                <stem>up</stem>
                <staff>1</staff>
                <lyric number="1">
                    <syllabic>begin</syllabic>
                    <text>Wur</text>
                </lyric>
                <lyric number="2">
                    <syllabic>begin</syllabic>
                    <text>sai</text>
                </lyric>
                <lyric number="3">
                    <syllabic>single</syllabic>
                    <text>uns</text>
                </lyric>
            </note>
            <harmony print-frame="no">
                <root>
                    <root-step>A</root-step>
                </root>
                <kind text="">major</kind>
                <staff>1</staff>
            </harmony>
            <note default-y="-50.00" default-x="159.31">
                <pitch>
                    <step>C</step>
                    <alter>1</alter>
                    <octave>4</octave>
                </pitch>
                <duration>2</duration>
                <voice>1</voice>
                <type>quarter</type>
                <stem>up</stem>
                <staff>1</staff>
                <lyric number="1">
                    <syllabic>end</syllabic>
                    <text>zel</text>
                </lyric>
                <lyric number="2">
                    <syllabic>end</syllabic>
                    <text>as</text>
                </lyric>
                <lyric number="3">
                    <syllabic>single</syllabic>
                    <text>so</text>
                </lyric>
            </note>
            <backup>
                <duration>8</duration>
            </backup>
            <note default-y="-259.49" default-x="17.50" dynamics="71.11">
                <pitch>
                    <step>A</step>
                    <octave>3</octave>
                </pitch>
                <duration>4</duration>
                <voice>5</voice>
                <type>half</type>
                <stem>up</stem>
                <staff>2</staff>
            </note>
            <note default-y="-259.49" default-x="112.04" dynamics="71.11">
                <pitch>
                    <step>A</step>
                    <octave>3</octave>
                </pitch>
                <duration>4</duration>
                <voice>5</voice>
                <type>half</type>
                <stem>up</stem>
                <staff>2</staff>
            </note>
        </measure>
        <measure width="245.25" number="5">
            <print new-system="yes">
                <system-layout>
                    <system-margins>
                        <left-margin>18.00</left-margin>
                        <right-margin>-0.00</right-margin>
                    </system-margins>
                    <system-distance>121.91</system-distance>
                </system-layout>
                <staff-layout number="2">
                    <staff-distance>159.49</staff-distance>
                </staff-layout>
            </print>
            <harmony print-frame="no">
                <root>
                    <root-step>D</root-step>
                </root>
                <kind text="">major</kind>
                <staff>1</staff>
            </harmony>
            <note default-y="-45.00" default-x="97.40" dynamics="71.11">
                <pitch>
                    <step>D</step>
                    <octave>4</octave>
                </pitch>
                <duration>4</duration>
                <voice>1</voice>
                <type>half</type>
                <stem>up</stem>
                <staff>1</staff>
                <notations>
                    <articulations>
                        <breath-mark/>
                    </articulations>
                </notations>
                <lyric number="1">
                    <syllabic>single</syllabic>
                    <text>zart.</text>
                </lyric>
                <lyric number="2">
                    <syllabic>single</syllabic>
                    <text>sagt:</text>
                </lyric>
                <lyric number="3">
                    <syllabic>single</syllabic>
                    <text>süß.</text>
                </lyric>
            </note>
            <note default-y="-25.00" default-x="190.16" dynamics="71.11">
                <pitch>
                    <step>A</step>
                    <octave>4</octave>
                </pitch>
                <duration>4</duration>
                <voice>1</voice>
                <type>half</type>
                <stem>up</stem>
                <staff>1</staff>
                <lyric number="1">
                    <syllabic>single</syllabic>
                    <text>Wie</text>
                </lyric>
                <lyric number="2">
                    <syllabic>begin</syllabic>
                    <text>Ma</text>
                </lyric>
                <lyric number="3">
                    <syllabic>single</syllabic>
                    <text>mit</text>
                </lyric>
            </note>
            <backup>
                <duration>8</duration>
            </backup>
            <note default-y="-259.49" default-x="97.40" dynamics="71.11">
                <pitch>
                    <step>A</step>
                    <octave>3</octave>
                </pitch>
                <duration>4</duration>
                <voice>5</voice>
                <type>half</type>
                <stem>up</stem>
                <staff>2</staff>
            </note>
            <note default-y="-244.49" default-x="190.16" dynamics="71.11">
                <pitch>
                    <step>D</step>
                    <octave>4</octave>
                </pitch>
                <duration>4</duration>
                <voice>5</voice>
                <type>half</type>
                <stem>up</stem>
                <staff>2</staff>
            </note>
        </measure>
        <measure width="230.84" number="6">
            <note default-y="-25.00" default-x="21.09" dynamics="71.11">
                <pitch>
                    <step>A</step>
                    <octave>4</octave>
                </pitch>
                <duration>2</duration>
                <voice>1</voice>
                <type>quarter</type>
                <stem>up</stem>
                <staff>1</staff>
                <lyric number="1">
                    <syllabic>single</syllabic>
                    <text>uns</text>
                </lyric>
                <lyric number="2">
                    <syllabic>middle</syllabic>
                    <text>ri</text>
                </lyric>
                <lyric number="3">
                    <syllabic>begin</syllabic>
                    <text>sei</text>
                </lyric>
            </note>
            <note default-y="-25.00" default-x="73.13" dynamics="71.11">
                <pitch>
                    <step>A</step>
                    <octave>4</octave>
                </pitch>
                <duration>2</duration>
                <voice>1</voice>
                <type>quarter</type>
                <stem>up</stem>
                <staff>1</staff>
                <lyric number="1">
                    <syllabic>single</syllabic>
                    <text>die</text>
                </lyric>
                <lyric number="2">
                    <syllabic>end</syllabic>
                    <text>a</text>
                </lyric>
                <lyric number="3">
                    <syllabic>end</syllabic>
                    <text>nem</text>
                </lyric>
            </note>
            <harmony print-frame="no">
                <root>
                    <root-step>G</root-step>
                </root>
                <kind text="">major</kind>
                <staff>1</staff>
            </harmony>
            <note default-y="-20.00" default-x="125.17" dynamics="71.11">
                <pitch>
                    <step>B</step>
                    <octave>4</octave>
                </pitch>
                <duration>2</duration>
                <voice>1</voice>
                <type>quarter</type>
                <stem>down</stem>
                <staff>1</staff>
                <lyric number="1">
                    <syllabic>begin</syllabic>
                    <text>Al</text>
                </lyric>
                <lyric number="2">
                    <syllabic>single</syllabic>
                    <text>ist´s</text>
                </lyric>
                <lyric number="3">
                    <syllabic>begin</syllabic>
                    <text>hel</text>
                </lyric>
            </note>
            <harmony print-frame="no">
                <root>
                    <root-step>D</root-step>
                </root>
                <kind text="">major</kind>
                <staff>1</staff>
            </harmony>
            <note default-y="-25.00" default-x="177.20" dynamics="71.11">
                <pitch>
                    <step>A</step>
                    <octave>4</octave>
                </pitch>
                <duration>2</duration>
                <voice>1</voice>
                <type>quarter</type>
                <stem>up</stem>
                <staff>1</staff>
                <lyric number="1">
                    <syllabic>end</syllabic>
                    <text>ten</text>
                </lyric>
                <lyric number="2">
                    <syllabic>single</syllabic>
                    <text>die</text>
                </lyric>
                <lyric number="3">
                    <syllabic>end</syllabic>
                    <text>len</text>
                </lyric>
            </note>
            <backup>
                <duration>8</duration>
            </backup>
            <note default-y="-234.49" default-x="21.09" dynamics="71.11">
                <pitch>
                    <step>F</step>
                    <alter>1</alter>
                    <octave>4</octave>
                </pitch>
                <duration>2</duration>
                <voice>5</voice>
                <type>quarter</type>
                <stem>up</stem>
                <staff>2</staff>
            </note>
            <note default-y="-244.49" default-x="73.13" dynamics="71.11">
                <pitch>
                    <step>D</step>
                    <octave>4</octave>
                </pitch>
                <duration>2</duration>
                <voice>5</voice>
                <type>quarter</type>
                <stem>up</stem>
                <staff>2</staff>
            </note>
            <note default-y="-229.49" default-x="125.17" dynamics="71.11">
                <pitch>
                    <step>G</step>
                    <octave>4</octave>
                </pitch>
                <duration>2</duration>
                <voice>5</voice>
                <type>quarter</type>
                <stem>up</stem>
                <staff>2</staff>
            </note>
            <note default-y="-234.49" default-x="177.20" dynamics="71.11">
                <pitch>
                    <step>F</step>
                    <alter>1</alter>
                    <octave>4</octave>
                </pitch>
                <duration>2</duration>
                <voice>5</voice>
                <type>quarter</type>
                <stem>up</stem>
                <staff>2</staff>
            </note>
        </measure>
        <measure width="163.05" number="7">
            <harmony print-frame="no">
                <root>
                    <root-step>A</root-step>
                </root>
                <kind text="">major</kind>
                <staff>1</staff>
            </harmony>
            <note default-y="-25.00" default-x="30.67" dynamics="71.11">
                <pitch>
                    <step>A</step>
                    <octave>4</octave>
                </pitch>
                <duration>4</duration>
                <voice>1</voice>
                <type>half</type>
                <stem>up</stem>
                <staff>1</staff>
                <lyric number="1">
                    <syllabic>begin</syllabic>
                    <text>sun</text>
                </lyric>
                <lyric number="2">
                    <syllabic>begin</syllabic>
                    <text>Rei</text>
                </lyric>
                <lyric number="3">
                    <syllabic>begin</syllabic>
                    <text>Schei</text>
                </lyric>
            </note>
            <harmony print-frame="no">
                <root>
                    <root-step>B</root-step>
                </root>
                <kind text="m">minor</kind>
                <staff>1</staff>
            </harmony>
            <note default-y="-35.00" default-x="96.06" dynamics="71.11">
                <pitch>
                    <step>F</step>
                    <alter>1</alter>
                    <octave>4</octave>
                </pitch>
                <duration>4</duration>
                <voice>1</voice>
                <type>half</type>
                <stem>up</stem>
                <staff>1</staff>
                <lyric number="1">
                    <syllabic>end</syllabic>
                    <text>gen</text>
                </lyric>
                <lyric number="2">
                    <syllabic>end</syllabic>
                    <text>ne</text>
                </lyric>
                <lyric number="3">
                    <syllabic>end</syllabic>
                    <text>ne</text>
                </lyric>
            </note>
            <backup>
                <duration>8</duration>
            </backup>
            <note default-y="-239.49" default-x="30.67" dynamics="71.11">
                <pitch>
                    <step>E</step>
                    <octave>4</octave>
                </pitch>
                <duration>4</duration>
                <voice>5</voice>
                <type>half</type>
                <stem>up</stem>
                <staff>2</staff>
            </note>
            <note default-y="-244.49" default-x="96.06" dynamics="71.11">
                <pitch>
                    <step>D</step>
                    <octave>4</octave>
                </pitch>
                <duration>4</duration>
                <voice>5</voice>
                <type>half</type>
                <stem>up</stem>
                <staff>2</staff>
            </note>
        </measure>
        <measure width="230.03" number="8">
            <harmony print-frame="no">
                <root>
                    <root-step>E</root-step>
                </root>
                <kind text="m">minor</kind>
                <staff>1</staff>
            </harmony>
            <note default-y="-30.00" default-x="36.26" dynamics="71.11">
                <pitch>
                    <step>G</step>
                    <octave>4</octave>
                </pitch>
                <duration>4</duration>
                <voice>1</voice>
                <type>half</type>
                <stem>up</stem>
                <staff>1</staff>
                <lyric number="1">
                    <syllabic>single</syllabic>
                    <text>von</text>
                </lyric>
                <lyric number="2">
                    <syllabic>single</syllabic>
                    <text>di</text>
                </lyric>
                <lyric number="3">
                    <syllabic>begin</syllabic>
                    <text>ver</text>
                </lyric>
            </note>
            <harmony print-frame="no">
                <root>
                    <root-step>D</root-step>
                </root>
                <kind text="">major</kind>
                <staff>1</staff>
            </harmony>
            <note default-y="-35.00" default-x="120.69" dynamics="71.11">
                <pitch>
                    <step>F</step>
                    <alter>1</alter>
                    <octave>4</octave>
                </pitch>
                <duration>2</duration>
                <voice>1</voice>
                <type>quarter</type>
                <stem>up</stem>
                <staff>1</staff>
                <lyric number="1">
                    <syllabic>begin</syllabic>
                    <text>Jes</text>
                </lyric>
                <lyric number="2">
                    <syllabic>single</syllabic>
                    <text>uns</text>
                </lyric>
                <lyric number="3">
                    <syllabic>end</syllabic>
                    <text>treibt`s</text>
                </lyric>
            </note>
            <harmony print-frame="no">
                <root>
                    <root-step>A</root-step>
                </root>
                <kind text="">major</kind>
                <staff>1</staff>
            </harmony>
            <note default-y="-40.00" default-x="175.66" dynamics="71.11">
                <pitch>
                    <step>E</step>
                    <octave>4</octave>
                </pitch>
                <duration>2</duration>
                <tie type="start"/>
                <voice>1</voice>
                <type>quarter</type>
                <stem>up</stem>
                <staff>1</staff>
                <notations>
                    <tied type="start"/>
                </notations>
                <lyric number="1">
                    <syllabic>end</syllabic>
                    <text>se</text>
                </lyric>
                <lyric number="2">
                    <syllabic>single</syllabic>
                    <text>das</text>
                </lyric>
                <lyric number="3">
                    <syllabic>single</syllabic>
                    <text>die</text>
                </lyric>
            </note>
            <backup>
                <duration>8</duration>
            </backup>
            <note default-y="-254.49" default-x="36.26" dynamics="71.11">
                <pitch>
                    <step>B</step>
                    <octave>3</octave>
                </pitch>
                <duration>4</duration>
                <voice>5</voice>
                <type>half</type>
                <stem>up</stem>
                <staff>2</staff>
            </note>
            <note default-y="-244.49" default-x="120.69" dynamics="71.11">
                <pitch>
                    <step>D</step>
                    <octave>4</octave>
                </pitch>
                <duration>2</duration>
                <voice>5</voice>
                <type>quarter</type>
                <stem>up</stem>
                <staff>2</staff>
            </note>
            <note default-y="-249.49" default-x="175.66" dynamics="71.11">
                <pitch>
                    <step>C</step>
                    <alter>1</alter>
                    <octave>4</octave>
                </pitch>
                <duration>2</duration>
                <voice>5</voice>
                <type>quarter</type>
                <stem>up</stem>
                <staff>2</staff>
            </note>
        </measure>
        <measure width="189.93" number="9">
            <note default-y="-40.00" default-x="12.00" dynamics="71.11">
                <pitch>
                    <step>E</step>
                    <octave>4</octave>
                </pitch>
                <duration>2</duration>
                <tie type="stop"/>
                <voice>1</voice>
                <type>quarter</type>
                <stem>up</stem>
                <staff>1</staff>
                <notations>
                    <tied type="stop"/>
                </notations>
            </note>
            <harmony print-frame="no">
                <root>
                    <root-step>B</root-step>
                </root>
                <kind text="m">minor</kind>
                <staff>1</staff>
            </harmony>
            <note default-y="-45.00" default-x="56.24" dynamics="71.11">
                <pitch>
                    <step>D</step>
                    <octave>4</octave>
                </pitch>
                <duration>4</duration>
                <voice>1</voice>
                <type>half</type>
                <stem>up</stem>
                <staff>1</staff>
                <lyric number="1">
                    <syllabic>single</syllabic>
                    <text>kam</text>
                </lyric>
                <lyric number="2">
                    <syllabic>begin</syllabic>
                    <text>Blüm</text>
                </lyric>
                <lyric number="3">
                    <syllabic>begin</syllabic>
                    <text>Fins</text>
                </lyric>
            </note>
            <harmony print-frame="no">
                <root>
                    <root-step>A</root-step>
                </root>
                <kind text="">major</kind>
                <staff>1</staff>
            </harmony>
            <note default-y="-50.00" default-x="144.30" dynamics="71.11">
                <pitch>
                    <step>C</step>
                    <alter>1</alter>
                    <octave>4</octave>
                </pitch>
                <duration>2</duration>
                <voice>1</voice>
                <type>quarter</type>
                <stem>up</stem>
                <staff>1</staff>
                <lyric number="1">
                    <syllabic>single</syllabic>
                    <text>die</text>
                </lyric>
                <lyric number="2">
                    <syllabic>end</syllabic>
                    <text>lein</text>
                </lyric>
                <lyric number="3">
                    <syllabic>middle</syllabic>
                    <text>ter</text>
                </lyric>
            </note>
            <backup>
                <duration>8</duration>
            </backup>
            <note default-y="-249.49" default-x="12.00" dynamics="71.11">
                <pitch>
                    <step>C</step>
                    <alter>1</alter>
                    <octave>4</octave>
                </pitch>
                <duration>2</duration>
                <voice>5</voice>
                <type>quarter</type>
                <stem>up</stem>
                <staff>2</staff>
            </note>
            <note default-y="-254.49" default-x="56.24" dynamics="71.11">
                <pitch>
                    <step>B</step>
                    <octave>3</octave>
                </pitch>
                <duration>2</duration>
                <voice>5</voice>
                <type>quarter</type>
                <stem>up</stem>
                <staff>2</staff>
            </note>
            <note default-y="-259.49" default-x="100.27" dynamics="71.11">
                <pitch>
                    <step>A</step>
                    <octave>3</octave>
                </pitch>
                <duration>4</duration>
                <voice>5</voice>
                <type>half</type>
                <stem>up</stem>
                <staff>2</staff>
            </note>
        </measure>
        <measure width="284.85" number="10">
            <print new-system="yes">
                <system-layout>
                    <system-margins>
                        <left-margin>18.00</left-margin>
                        <right-margin>0.00</right-margin>
                    </system-margins>
                    <system-distance>121.91</system-distance>
                </system-layout>
                <staff-layout number="2">
                    <staff-distance>159.49</staff-distance>
                </staff-layout>
            </print>
            <harmony print-frame="no">
                <root>
                    <root-step>D</root-step>
                </root>
                <kind text="">major</kind>
                <staff>1</staff>
            </harmony>
            <note default-y="-45.00" default-x="107.28">
                <pitch>
                    <step>D</step>
                    <octave>4</octave>
                </pitch>
                <duration>4</duration>
                <voice>1</voice>
                <type>half</type>
                <stem>up</stem>
                <staff>1</staff>
                <lyric number="1">
                    <syllabic>single</syllabic>
                    <text>Art.</text>
                </lyric>
                <lyric number="2">
                    <syllabic>single</syllabic>
                    <text>bracht.</text>
                </lyric>
                <lyric number="3">
                    <syllabic>end</syllabic>
                    <text>nis.</text>
                </lyric>
            </note>
            <note>
                <rest/>
                <duration>2</duration>
                <voice>1</voice>
                <type>quarter</type>
                <staff>1</staff>
            </note>
            <harmony print-frame="no">
                <root>
                    <root-step>D</root-step>
                </root>
                <kind text="">major</kind>
                <staff>1</staff>
            </harmony>
            <note default-y="-35.00" default-x="234.37">
                <pitch>
                    <step>F</step>
                    <alter>1</alter>
                    <octave>4</octave>
                </pitch>
                <duration>2</duration>
                <voice>1</voice>
                <type>quarter</type>
                <stem>up</stem>
                <staff>1</staff>
                <lyric number="1">
                    <syllabic>single</syllabic>
                    <text>Und</text>
                </lyric>
                <lyric number="2">
                    <syllabic>single</syllabic>
                    <text>Aus</text>
                </lyric>
                <lyric number="3">
                    <syllabic>single</syllabic>
                    <text>Wahr</text>
                </lyric>
            </note>
            <backup>
                <duration>8</duration>
            </backup>
            <note default-y="-259.49" default-x="107.28" dynamics="71.11">
                <pitch>
                    <step>A</step>
                    <octave>3</octave>
                </pitch>
                <duration>4</duration>
                <voice>5</voice>
                <type>half</type>
                <stem>up</stem>
                <staff>2</staff>
            </note>
            <note>
                <rest/>
                <duration>2</duration>
                <voice>5</voice>
                <type>quarter</type>
                <staff>2</staff>
            </note>
            <note default-y="-244.49" default-x="234.37" dynamics="71.11">
                <pitch>
                    <step>D</step>
                    <octave>4</octave>
                </pitch>
                <duration>2</duration>
                <voice>5</voice>
                <type>quarter</type>
                <stem>up</stem>
                <staff>2</staff>
            </note>
        </measure>
        <measure width="300.30" number="11">
            <harmony print-frame="no">
                <root>
                    <root-step>A</root-step>
                </root>
                <kind text="">major</kind>
                <staff>1</staff>
            </harmony>
            <note default-y="-40.00" default-x="41.54" dynamics="71.11">
                <pitch>
                    <step>E</step>
                    <octave>4</octave>
                </pitch>
                <duration>2</duration>
                <voice>1</voice>
                <type>quarter</type>
                <stem>up</stem>
                <staff>1</staff>
                <lyric number="1">
                    <syllabic>single</syllabic>
                    <text>hat</text>
                </lyric>
                <lyric number="2">
                    <syllabic>begin</syllabic>
                    <text>Got</text>
                </lyric>
                <lyric number="3">
                    <syllabic>single</syllabic>
                    <text>Mensch</text>
                </lyric>
            </note>
            <note default-y="-50.00" default-x="105.83" dynamics="71.11">
                <pitch>
                    <step>C</step>
                    <alter>1</alter>
                    <octave>4</octave>
                </pitch>
                <duration>2</duration>
                <voice>1</voice>
                <type>quarter</type>
                <stem>up</stem>
                <staff>1</staff>
                <lyric number="1">
                    <syllabic>single</syllabic>
                    <text>ein</text>
                </lyric>
                <lyric number="2">
                    <syllabic>end</syllabic>
                    <text>tes</text>
                </lyric>
                <lyric number="3">
                    <syllabic>single</syllabic>
                    <text>und</text>
                </lyric>
            </note>
            <harmony print-frame="no">
                <root>
                    <root-step>B</root-step>
                </root>
                <kind text="m">minor</kind>
                <staff>1</staff>
            </harmony>
            <note default-y="-45.00" default-x="170.12" dynamics="71.11">
                <pitch>
                    <step>D</step>
                    <octave>4</octave>
                </pitch>
                <duration>2</duration>
                <voice>1</voice>
                <type>quarter</type>
                <stem>up</stem>
                <staff>1</staff>
                <lyric number="1">
                    <syllabic>begin</syllabic>
                    <text>Blüm</text>
                </lyric>
                <lyric number="2">
                    <syllabic>begin</syllabic>
                    <text>ew</text>
                </lyric>
                <lyric number="3">
                    <syllabic>begin</syllabic>
                    <text>wah</text>
                </lyric>
            </note>
            <harmony print-frame="no">
                <root>
                    <root-step>E</root-step>
                </root>
                <kind text="">major</kind>
                <staff>1</staff>
            </harmony>
            <note default-y="-55.00" default-x="234.41">
                <pitch>
                    <step>B</step>
                    <octave>3</octave>
                </pitch>
                <duration>2</duration>
                <voice>1</voice>
                <type>quarter</type>
                <stem>up</stem>
                <staff>1</staff>
                <lyric number="1">
                    <syllabic>end</syllabic>
                    <text>lein</text>
                </lyric>
                <lyric number="2">
                    <syllabic>end</syllabic>
                    <text>gem</text>
                </lyric>
                <lyric number="3">
                    <syllabic>end</syllabic>
                    <text>rer</text>
                </lyric>
            </note>
            <backup>
                <duration>8</duration>
            </backup>
            <note default-y="-249.49" default-x="41.54" dynamics="71.11">
                <pitch>
                    <step>C</step>
                    <alter>1</alter>
                    <octave>4</octave>
                </pitch>
                <duration>2</duration>
                <voice>5</voice>
                <type>quarter</type>
                <stem>up</stem>
                <staff>2</staff>
            </note>
            <note default-y="-259.49" default-x="105.83" dynamics="71.11">
                <pitch>
                    <step>A</step>
                    <octave>3</octave>
                </pitch>
                <duration>2</duration>
                <voice>5</voice>
                <type>quarter</type>
                <stem>up</stem>
                <staff>2</staff>
            </note>
            <note default-y="-254.49" default-x="170.12" dynamics="71.11">
                <pitch>
                    <step>B</step>
                    <octave>3</octave>
                </pitch>
                <duration>2</duration>
                <voice>5</voice>
                <type>quarter</type>
                <stem>up</stem>
                <staff>2</staff>
            </note>
            <note default-y="-254.49" default-x="234.41">
                <pitch>
                    <step>B</step>
                    <octave>3</octave>
                </pitch>
                <duration>2</duration>
                <voice>5</voice>
                <type>quarter</type>
                <stem>up</stem>
                <staff>2</staff>
            </note>
        </measure>
        <measure width="228.61" number="12">
            <harmony print-frame="no">
                <root>
                    <root-step>A</root-step>
                </root>
                <kind text="">major</kind>
                <staff>1</staff>
            </harmony>
            <note default-y="-60.00" default-x="47.76">
                <pitch>
                    <step>A</step>
                    <octave>3</octave>
                </pitch>
                <duration>4</duration>
                <voice>1</voice>
                <type>half</type>
                <stem>up</stem>
                <staff>1</staff>
                <lyric number="1">
                    <syllabic>single</syllabic>
                    <text>bracht</text>
                </lyric>
                <lyric number="2">
                    <syllabic>single</syllabic>
                    <text>Rat</text>
                </lyric>
                <lyric number="3">
                    <syllabic>single</syllabic>
                    <text>Gott</text>
                </lyric>
            </note>
            <note>
                <rest/>
                <duration>2</duration>
                <voice>1</voice>
                <type>quarter</type>
                <staff>1</staff>
            </note>
            <harmony print-frame="no">
                <root>
                    <root-step>D</root-step>
                </root>
                <kind text="">major</kind>
                <staff>1</staff>
            </harmony>
            <note default-y="-25.00" default-x="184.83" dynamics="71.11">
                <pitch>
                    <step>A</step>
                    <octave>4</octave>
                </pitch>
                <duration>2</duration>
                <voice>1</voice>
                <type>quarter</type>
                <stem>up</stem>
                <staff>1</staff>
                <lyric number="1">
                    <syllabic>begin</syllabic>
                    <text>Mit</text>
                </lyric>
                <lyric number="2">
                    <syllabic>single</syllabic>
                    <text>hat</text>
                </lyric>
                <lyric number="3">
                    <syllabic>single</syllabic>
                    <text>hilft</text>
                </lyric>
            </note>
            <backup>
                <duration>8</duration>
            </backup>
            <note default-y="-259.49" default-x="47.76" dynamics="88.89">
                <pitch>
                    <step>A</step>
                    <octave>3</octave>
                </pitch>
                <duration>1</duration>
                <voice>5</voice>
                <type>eighth</type>
                <stem>up</stem>
                <staff>2</staff>
                <beam number="1">begin</beam>
            </note>
            <note default-y="-254.49" default-x="74.12">
                <pitch>
                    <step>B</step>
                    <octave>3</octave>
                </pitch>
                <duration>1</duration>
                <voice>5</voice>
                <type>eighth</type>
                <stem>up</stem>
                <staff>2</staff>
                <beam number="1">end</beam>
            </note>
            <note default-y="-249.49" default-x="100.48">
                <pitch>
                    <step>C</step>
                    <alter>1</alter>
                    <octave>4</octave>
                </pitch>
                <duration>2</duration>
                <voice>5</voice>
                <type>quarter</type>
                <stem>up</stem>
                <staff>2</staff>
            </note>
            <note>
                <rest/>
                <duration>2</duration>
                <voice>5</voice>
                <type>quarter</type>
                <staff>2</staff>
            </note>
            <note default-y="-244.49" default-x="184.83" dynamics="88.89">
                <pitch>
                    <step>D</step>
                    <octave>4</octave>
                </pitch>
                <duration>2</duration>
                <voice>5</voice>
                <type>quarter</type>
                <stem>up</stem>
                <staff>2</staff>
            </note>
        </measure>
        <measure width="245.34" number="13">
            <note default-y="-25.00" default-x="21.09" dynamics="71.11">
                <pitch>
                    <step>A</step>
                    <octave>4</octave>
                </pitch>
                <duration>2</duration>
                <voice>1</voice>
                <type>quarter</type>
                <stem>up</stem>
                <staff>1</staff>
                <lyric number="1">
                    <syllabic>end</syllabic>
                    <text>ten</text>
                </lyric>
                <lyric number="2">
                    <syllabic>single</syllabic>
                    <text>sie</text>
                </lyric>
                <lyric number="3">
                    <syllabic>single</syllabic>
                    <text>uns</text>
                </lyric>
            </note>
            <note default-y="-25.00" default-x="76.76" dynamics="71.11">
                <pitch>
                    <step>A</step>
                    <octave>4</octave>
                </pitch>
                <duration>2</duration>
                <voice>1</voice>
                <type>quarter</type>
                <stem>up</stem>
                <staff>1</staff>
                <lyric number="1">
                    <syllabic>single</syllabic>
                    <text>im</text>
                </lyric>
                <lyric number="2">
                    <syllabic>single</syllabic>
                    <text>das</text>
                </lyric>
                <lyric number="3">
                    <syllabic>single</syllabic>
                    <text>aus</text>
                </lyric>
            </note>
            <harmony print-frame="no">
                <root>
                    <root-step>G</root-step>
                </root>
                <kind text="">major</kind>
                <staff>1</staff>
            </harmony>
            <note default-y="-20.00" default-x="132.42" dynamics="71.11">
                <pitch>
                    <step>B</step>
                    <octave>4</octave>
                </pitch>
                <duration>2</duration>
                <voice>1</voice>
                <type>quarter</type>
                <stem>down</stem>
                <staff>1</staff>
                <lyric number="1">
                    <syllabic>begin</syllabic>
                    <text>kal</text>
                </lyric>
                <lyric number="2">
                    <syllabic>single</syllabic>
                    <text>Kind</text>
                </lyric>
                <lyric number="3">
                    <syllabic>begin</syllabic>
                    <text>al</text>
                </lyric>
            </note>
            <harmony print-frame="no">
                <root>
                    <root-step>D</root-step>
                </root>
                <kind text="">major</kind>
                <staff>1</staff>
            </harmony>
            <note default-y="-25.00" default-x="188.08" dynamics="71.11">
                <pitch>
                    <step>A</step>
                    <octave>4</octave>
                </pitch>
                <duration>2</duration>
                <voice>1</voice>
                <type>quarter</type>
                <stem>up</stem>
                <staff>1</staff>
                <lyric number="1">
                    <syllabic>end</syllabic>
                    <text>ten</text>
                </lyric>
                <lyric number="2">
                    <syllabic>begin</syllabic>
                    <text>ge</text>
                </lyric>
                <lyric number="3">
                    <syllabic>end</syllabic>
                    <text>lem</text>
                </lyric>
            </note>
            <backup>
                <duration>8</duration>
            </backup>
            <note default-y="-234.49" default-x="21.09" dynamics="71.11">
                <pitch>
                    <step>F</step>
                    <alter>1</alter>
                    <octave>4</octave>
                </pitch>
                <duration>2</duration>
                <voice>5</voice>
                <type>quarter</type>
                <stem>up</stem>
                <staff>2</staff>
            </note>
            <note default-y="-244.49" default-x="76.76" dynamics="71.11">
                <pitch>
                    <step>D</step>
                    <octave>4</octave>
                </pitch>
                <duration>2</duration>
                <voice>5</voice>
                <type>quarter</type>
                <stem>up</stem>
                <staff>2</staff>
            </note>
            <note default-y="-229.49" default-x="132.42" dynamics="71.11">
                <pitch>
                    <step>G</step>
                    <octave>4</octave>
                </pitch>
                <duration>2</duration>
                <voice>5</voice>
                <type>quarter</type>
                <stem>up</stem>
                <staff>2</staff>
            </note>
            <note default-y="-234.49" default-x="188.08" dynamics="71.11">
                <pitch>
                    <step>F</step>
                    <alter>1</alter>
                    <octave>4</octave>
                </pitch>
                <duration>2</duration>
                <voice>5</voice>
                <type>quarter</type>
                <stem>up</stem>
                <staff>2</staff>
            </note>
        </measure>
        <measure width="278.04" number="14">
            <print new-system="yes">
                <system-layout>
                    <system-margins>
                        <left-margin>18.00</left-margin>
                        <right-margin>0.00</right-margin>
                    </system-margins>
                    <system-distance>121.91</system-distance>
                </system-layout>
                <staff-layout number="2">
                    <staff-distance>159.49</staff-distance>
                </staff-layout>
            </print>
            <harmony print-frame="no">
                <root>
                    <root-step>A</root-step>
                </root>
                <kind text="">major</kind>
                <staff>1</staff>
            </harmony>
            <note default-y="-25.00" default-x="95.06" dynamics="71.11">
                <pitch>
                    <step>A</step>
                    <octave>4</octave>
                </pitch>
                <duration>4</duration>
                <voice>1</voice>
                <type>half</type>
                <stem>up</stem>
                <staff>1</staff>
                <lyric number="1">
                    <syllabic>begin</syllabic>
                    <text>Win</text>
                </lyric>
                <lyric number="2">
                    <syllabic>middle</syllabic>
                    <text>bo</text>
                </lyric>
                <lyric number="3">
                    <syllabic>begin</syllabic>
                    <text>Lei</text>
                </lyric>
            </note>
            <harmony print-frame="no">
                <root>
                    <root-step>B</root-step>
                </root>
                <kind text="7">dominant</kind>
                <staff>1</staff>
            </harmony>
            <note default-y="-35.00" default-x="185.75" dynamics="71.11">
                <pitch>
                    <step>F</step>
                    <alter>1</alter>
                    <octave>4</octave>
                </pitch>
                <duration>4</duration>
                <voice>1</voice>
                <type>half</type>
                <stem>up</stem>
                <staff>1</staff>
                <lyric number="1">
                    <syllabic>end</syllabic>
                    <text>ter</text>
                </lyric>
                <lyric number="2">
                    <syllabic>end</syllabic>
                    <text>ren</text>
                </lyric>
                <lyric number="3">
                    <syllabic>end</syllabic>
                    <text>de</text>
                </lyric>
            </note>
            <backup>
                <duration>8</duration>
            </backup>
            <note default-y="-239.49" default-x="95.06" dynamics="71.11">
                <pitch>
                    <step>E</step>
                    <octave>4</octave>
                </pitch>
                <duration>4</duration>
                <voice>5</voice>
                <type>half</type>
                <stem>up</stem>
                <staff>2</staff>
            </note>
            <note default-y="-244.49" default-x="185.75" dynamics="71.11">
                <pitch>
                    <step>D</step>
                    <alter>1</alter>
                    <octave>4</octave>
                </pitch>
                <duration>4</duration>
                <voice>5</voice>
                <type>half</type>
                <accidental>sharp</accidental>
                <stem>up</stem>
                <staff>2</staff>
            </note>
        </measure>
        <measure width="296.98" number="15">
            <harmony print-frame="no">
                <root>
                    <root-step>E</root-step>
                </root>
                <kind text="m">minor</kind>
                <staff>1</staff>
            </harmony>
            <note default-y="-30.00" default-x="42.01" dynamics="71.11">
                <pitch>
                    <step>G</step>
                    <octave>4</octave>
                </pitch>
                <duration>4</duration>
                <voice>1</voice>
                <type>half</type>
                <stem>up</stem>
                <staff>1</staff>
                <lyric number="1">
                    <syllabic>single</syllabic>
                    <text>wohl</text>
                </lyric>
                <lyric number="2">
                    <syllabic>single</syllabic>
                    <text>und</text>
                </lyric>
                <lyric number="3">
                    <syllabic>begin</syllabic>
                    <text>ret</text>
                </lyric>
            </note>
            <harmony print-frame="no">
                <root>
                    <root-step>D</root-step>
                </root>
                <kind text="">major</kind>
                <staff>1</staff>
            </harmony>
            <note default-y="-35.00" default-x="154.62" dynamics="71.11">
                <pitch>
                    <step>F</step>
                    <alter>1</alter>
                    <octave>4</octave>
                </pitch>
                <duration>2</duration>
                <voice>1</voice>
                <type>quarter</type>
                <stem>up</stem>
                <staff>1</staff>
                <lyric number="1">
                    <syllabic>single</syllabic>
                    <text>zu</text>
                </lyric>
                <lyric number="2">
                    <syllabic>single</syllabic>
                    <text>blieb</text>
                </lyric>
                <lyric number="3">
                    <syllabic>end</syllabic>
                    <text>tet</text>
                </lyric>
            </note>
            <harmony print-frame="no">
                <root>
                    <root-step>A</root-step>
                </root>
                <kind text="">major</kind>
                <staff>1</staff>
            </harmony>
            <note default-y="-40.00" default-x="225.00" dynamics="71.11">
                <pitch>
                    <step>E</step>
                    <octave>4</octave>
                </pitch>
                <duration>2</duration>
                <tie type="start"/>
                <voice>1</voice>
                <type>quarter</type>
                <stem>up</stem>
                <staff>1</staff>
                <notations>
                    <tied type="start"/>
                </notations>
                <lyric number="1">
                    <syllabic>single</syllabic>
                    <text>der</text>
                </lyric>
                <lyric number="2">
                    <syllabic>single</syllabic>
                    <text>doch</text>
                </lyric>
                <lyric number="3">
                    <syllabic>single</syllabic>
                    <text>von</text>
                </lyric>
            </note>
            <backup>
                <duration>8</duration>
            </backup>
            <note default-y="-254.49" default-x="42.01" dynamics="71.11">
                <pitch>
                    <step>B</step>
                    <octave>3</octave>
                </pitch>
                <duration>4</duration>
                <voice>5</voice>
                <type>half</type>
                <stem>up</stem>
                <staff>2</staff>
            </note>
            <note default-y="-259.49" default-x="154.62" dynamics="71.11">
                <pitch>
                    <step>A</step>
                    <octave>3</octave>
                </pitch>
                <duration>4</duration>
                <voice>5</voice>
                <type>half</type>
                <stem>up</stem>
                <staff>2</staff>
            </note>
        </measure>
        <measure width="252.19" number="16">
            <note default-y="-40.00" default-x="17.50" dynamics="71.11">
                <pitch>
                    <step>E</step>
                    <octave>4</octave>
                </pitch>
                <duration>2</duration>
                <tie type="stop"/>
                <voice>1</voice>
                <type>quarter</type>
                <stem>up</stem>
                <staff>1</staff>
                <notations>
                    <tied type="stop"/>
                </notations>
            </note>
            <harmony print-frame="no">
                <root>
                    <root-step>B</root-step>
                </root>
                <kind text="m">minor</kind>
                <staff>1</staff>
            </harmony>
            <note default-y="-45.00" default-x="75.77" dynamics="71.11">
                <pitch>
                    <step>D</step>
                    <octave>4</octave>
                </pitch>
                <duration>4</duration>
                <voice>1</voice>
                <type>half</type>
                <stem>up</stem>
                <staff>1</staff>
                <lyric number="1">
                    <syllabic>begin</syllabic>
                    <text>hal</text>
                </lyric>
                <lyric number="2">
                    <syllabic>begin</syllabic>
                    <text>rei</text>
                </lyric>
                <lyric number="3">
                    <syllabic>single</syllabic>
                    <text>Sünd</text>
                </lyric>
            </note>
            <harmony print-frame="no">
                <root>
                    <root-step>A</root-step>
                </root>
                <kind text="">major</kind>
                <staff>1</staff>
            </harmony>
            <note default-y="-50.00" default-x="192.32">
                <pitch>
                    <step>C</step>
                    <alter>1</alter>
                    <octave>4</octave>
                </pitch>
                <duration>2</duration>
                <voice>1</voice>
                <type>quarter</type>
                <stem>up</stem>
                <staff>1</staff>
                <lyric number="1">
                    <syllabic>end</syllabic>
                    <text>ben</text>
                </lyric>
                <lyric number="2">
                    <syllabic>end</syllabic>
                    <text>ne</text>
                </lyric>
                <lyric number="3">
                    <syllabic>single</syllabic>
                    <text>und</text>
                </lyric>
            </note>
            <backup>
                <duration>8</duration>
            </backup>
            <note default-y="-259.49" default-x="17.50" dynamics="71.11">
                <pitch>
                    <step>A</step>
                    <octave>3</octave>
                </pitch>
                <duration>4</duration>
                <voice>5</voice>
                <type>half</type>
                <stem>up</stem>
                <staff>2</staff>
            </note>
            <note default-y="-259.49" default-x="134.04" dynamics="71.11">
                <pitch>
                    <step>A</step>
                    <octave>3</octave>
                </pitch>
                <duration>4</duration>
                <voice>5</voice>
                <type>half</type>
                <stem>up</stem>
                <staff>2</staff>
            </note>
        </measure>
        <measure width="231.89" number="17">
            <harmony print-frame="no">
                <root>
                    <root-step>D</root-step>
                </root>
                <kind text="">major</kind>
                <staff>1</staff>
            </harmony>
            <note default-y="-45.00" default-x="49.35" dynamics="71.11">
                <pitch>
                    <step>D</step>
                    <octave>4</octave>
                </pitch>
                <duration>4</duration>
                <voice>1</voice>
                <type>half</type>
                <stem>up</stem>
                <staff>1</staff>
                <lyric number="1">
                    <syllabic>single</syllabic>
                    <text>Nacht.</text>
                </lyric>
                <lyric number="2">
                    <syllabic>single</syllabic>
                    <text>Magd.</text>
                </lyric>
                <lyric number="3">
                    <syllabic>single</syllabic>
                    <text>Tod</text>
                </lyric>
            </note>
            <note>
                <rest/>
                <duration>4</duration>
                <voice>1</voice>
                <type>half</type>
                <staff>1</staff>
            </note>
            <backup>
                <duration>8</duration>
            </backup>
            <note default-y="-259.49" default-x="49.35" dynamics="88.89">
                <pitch>
                    <step>A</step>
                    <octave>3</octave>
                </pitch>
                <duration>4</duration>
                <voice>5</voice>
                <type>half</type>
                <stem>up</stem>
                <staff>2</staff>
            </note>
            <note>
                <rest/>
                <duration>4</duration>
                <voice>5</voice>
                <type>half</type>
                <staff>2</staff>
            </note>
            <barline location="right">
                <bar-style>light-heavy</bar-style>
            </barline>
        </measure>
    </part>
</score-partwise>
