<?xml version="1.0" encoding="UTF-8"?>
<!DOCTYPE score-partwise PUBLIC "-//Recordare//DTD MusicXML 2.0 Partwise//EN" "http://www.musicxml.org/dtds/partwise.dtd">
<score-partwise version="2.0">
    <work>
        <work-number></work-number>
        <work-title></work-title>
    </work>
    <movement-number></movement-number>
    <movement-title>All That Thrills My Soul Is Jesus</movement-title>
    <identification>
        <creator type="composer">Thoro Harris</creator>
        <creator type="poet">Thoro Harris</creator>
        <rights>All Rights Reserved</rights>
        <encoding>
            <software>MuseScore 1.2</software>
            <encoding-date>2013-02-10</encoding-date>
            <software>ProxyMusic 2.0 c</software>
        </encoding>
        <source>http://wikifonia.org/node/20606/revisions/27243/view</source>
    </identification>
    <defaults>
        <scaling>
            <millimeters>7.056</millimeters>
            <tenths>40</tenths>
        </scaling>
        <page-layout>
            <page-height>1683.67</page-height>
            <page-width>1190.48</page-width>
            <page-margins type="even">
                <left-margin>56.6893</left-margin>
                <right-margin>56.6893</right-margin>
                <top-margin>56.6893</top-margin>
                <bottom-margin>113.379</bottom-margin>
            </page-margins>
            <page-margins type="odd">
                <left-margin>56.6893</left-margin>
                <right-margin>56.6893</right-margin>
                <top-margin>56.6893</top-margin>
                <bottom-margin>113.379</bottom-margin>
            </page-margins>
        </page-layout>
    </defaults>
    <credit page="1">
        <credit-words font-size="24" default-y="1626.98" default-x="595.238" justify="center" valign="top">All That Thrills My Soul Is Jesus</credit-words>
    </credit>
    <credit page="1">
        <credit-words font-size="12" default-y="1559.98" default-x="1133.79" justify="right" valign="top">Thoro Harris</credit-words>
    </credit>
    <credit page="1">
        <credit-words font-size="12" default-y="1559.98" default-x="56.6893" justify="left" valign="top">Thoro Harris</credit-words>
    </credit>
    <credit page="1">
        <credit-words font-size="8" default-y="113.379" default-x="595.238" justify="center" valign="bottom">All Rights Reserved</credit-words>
    </credit>
    <part-list>
        <part-group type="start" number="1">
            <group-symbol>brace</group-symbol>
        </part-group>
        <score-part id="P1">
            <part-name>Piano</part-name>
            <part-abbreviation>Pno.</part-abbreviation>
            <score-instrument id="P1-I3">
                <instrument-name>Piano</instrument-name>
            </score-instrument>
            <midi-instrument id="P1-I3">
                <midi-channel>1</midi-channel>
                <midi-program>1</midi-program>
                <volume>78.7402</volume>
                <pan>0</pan>
            </midi-instrument>
        </score-part>
    </part-list>
    <part id="P1">
        <measure width="661.05" number="1">
            <print>
                <system-layout>
                    <system-margins>
                        <left-margin>90.11</left-margin>
                        <right-margin>0.00</right-margin>
                    </system-margins>
                    <top-system-distance>257.13</top-system-distance>
                </system-layout>
            </print>
            <attributes>
                <divisions>2</divisions>
                <key>
                    <fifths>-2</fifths>
                    <mode>major</mode>
                </key>
                <time>
                    <beats>4</beats>
                    <beat-type>4</beat-type>
                </time>
                <clef>
                    <sign>G</sign>
                    <line>2</line>
                </clef>
            </attributes>
            <harmony print-frame="no">
                <root>
                    <root-step>B</root-step>
                    <root-alter>-1</root-alter>
                </root>
                <kind text="">major</kind>
            </harmony>
            <note default-y="-35.00" default-x="130.49">
                <pitch>
                    <step>F</step>
                    <octave>4</octave>
                </pitch>
                <duration>3</duration>
                <voice>1</voice>
                <type>quarter</type>
                <dot/>
                <stem>up</stem>
                <lyric number="1">
                    <syllabic>single</syllabic>
                    <text>1. Who</text>
                </lyric>
                <lyric number="2">
                    <syllabic>single</syllabic>
                    <text>2. Love</text>
                </lyric>
                <lyric number="3">
                    <syllabic>begin</syllabic>
                    <text>3. Ev</text>
                </lyric>
                <lyric number="4">
                    <syllabic>single</syllabic>
                    <text>4. By</text>
                </lyric>
            </note>
            <note default-y="-35.00" default-x="278.96">
                <pitch>
                    <step>F</step>
                    <octave>4</octave>
                </pitch>
                <duration>1</duration>
                <voice>1</voice>
                <type>eighth</type>
                <stem>up</stem>
                <lyric number="1">
                    <syllabic>single</syllabic>
                    <text>can</text>
                </lyric>
                <lyric number="2">
                    <syllabic>single</syllabic>
                    <text>of</text>
                </lyric>
                <lyric number="3">
                    <syllabic>end</syllabic>
                    <text>'ry</text>
                </lyric>
                <lyric number="4">
                    <syllabic>single</syllabic>
                    <text>the</text>
                </lyric>
            </note>
            <harmony print-frame="no">
                <root>
                    <root-step>E</root-step>
                    <root-alter>-1</root-alter>
                </root>
                <kind text="">major</kind>
            </harmony>
            <note default-y="-30.00" default-x="355.06">
                <pitch>
                    <step>G</step>
                    <octave>4</octave>
                </pitch>
                <duration>1</duration>
                <voice>1</voice>
                <type>eighth</type>
                <stem>up</stem>
                <beam number="1">begin</beam>
                <lyric number="1">
                    <syllabic>single</syllabic>
                    <text>thrill</text>
                </lyric>
                <lyric number="2">
                    <syllabic>single</syllabic>
                    <text>Christ,</text>
                </lyric>
                <lyric number="3">
                    <syllabic>single</syllabic>
                    <text>need</text>
                </lyric>
                <lyric number="4">
                    <syllabic>begin</syllabic>
                    <text>crys</text>
                </lyric>
            </note>
            <note default-y="-35.00" default-x="431.15">
                <pitch>
                    <step>F</step>
                    <octave>4</octave>
                </pitch>
                <duration>1</duration>
                <voice>1</voice>
                <type>eighth</type>
                <stem>up</stem>
                <beam number="1">continue</beam>
                <lyric number="1">
                    <syllabic>single</syllabic>
                    <text>the</text>
                </lyric>
                <lyric number="2">
                    <syllabic>single</syllabic>
                    <text>so</text>
                </lyric>
                <lyric number="3">
                    <syllabic>single</syllabic>
                    <text>His</text>
                </lyric>
                <lyric number="4">
                    <syllabic>end</syllabic>
                    <text>tal,</text>
                </lyric>
            </note>
            <harmony print-frame="no">
                <root>
                    <root-step>B</root-step>
                    <root-alter>-1</root-alter>
                </root>
                <kind text="">major</kind>
            </harmony>
            <note default-y="-45.00" default-x="507.25">
                <pitch>
                    <step>D</step>
                    <octave>4</octave>
                </pitch>
                <duration>1</duration>
                <voice>1</voice>
                <type>eighth</type>
                <stem>up</stem>
                <beam number="1">continue</beam>
                <lyric number="1">
                    <syllabic>single</syllabic>
                    <text>heart</text>
                </lyric>
                <lyric number="2">
                    <syllabic>begin</syllabic>
                    <text>free</text>
                </lyric>
                <lyric number="3">
                    <syllabic>single</syllabic>
                    <text>hand</text>
                </lyric>
                <lyric number="4">
                    <syllabic>begin</syllabic>
                    <text>flow</text>
                </lyric>
            </note>
            <note default-y="-35.00" default-x="583.35">
                <pitch>
                    <step>F</step>
                    <octave>4</octave>
                </pitch>
                <duration>1</duration>
                <voice>1</voice>
                <type>eighth</type>
                <stem>up</stem>
                <beam number="1">end</beam>
                <lyric number="1">
                    <syllabic>single</syllabic>
                    <text>like</text>
                </lyric>
                <lyric number="2">
                    <syllabic>end</syllabic>
                    <text>ly</text>
                </lyric>
                <lyric number="3">
                    <syllabic>begin</syllabic>
                    <text>sup</text>
                </lyric>
                <lyric number="4">
                    <syllabic>end</syllabic>
                    <text>ing</text>
                </lyric>
            </note>
        </measure>
        <measure width="325.93" number="2">
            <harmony print-frame="no">
                <root>
                    <root-step>E</root-step>
                    <root-alter>-1</root-alter>
                </root>
                <kind text="">major</kind>
            </harmony>
            <note default-y="-30.00" default-x="19.81">
                <pitch>
                    <step>G</step>
                    <octave>4</octave>
                </pitch>
                <duration>4</duration>
                <voice>1</voice>
                <type>half</type>
                <stem>up</stem>
                <lyric number="1">
                    <syllabic>begin</syllabic>
                    <text>Je</text>
                </lyric>
                <lyric number="2">
                    <syllabic>begin</syllabic>
                    <text>giv</text>
                </lyric>
                <lyric number="3">
                    <syllabic>middle</syllabic>
                    <text>ply</text>
                </lyric>
                <lyric number="4">
                    <syllabic>begin</syllabic>
                    <text>riv</text>
                </lyric>
            </note>
            <note default-y="-20.00" default-x="172.07">
                <pitch>
                    <step>B</step>
                    <alter>-1</alter>
                    <octave>4</octave>
                </pitch>
                <duration>4</duration>
                <voice>1</voice>
                <type>half</type>
                <stem>down</stem>
                <lyric number="1">
                    <syllabic>end</syllabic>
                    <text>sus,</text>
                </lyric>
                <lyric number="2">
                    <syllabic>end</syllabic>
                    <text>en,</text>
                </lyric>
                <lyric number="3">
                    <syllabic>end</syllabic>
                    <text>ing,</text>
                </lyric>
                <lyric number="4">
                    <syllabic>end</syllabic>
                    <text>er</text>
                </lyric>
            </note>
        </measure>
        <measure width="459.01" number="3">
            <print new-system="yes">
                <system-layout>
                    <system-margins>
                        <left-margin>77.95</left-margin>
                        <right-margin>0.00</right-margin>
                    </system-margins>
                    <system-distance>263.62</system-distance>
                </system-layout>
            </print>
            <harmony print-frame="no">
                <root>
                    <root-step>F</root-step>
                </root>
                <kind text="">major</kind>
            </harmony>
            <note default-y="-25.00" default-x="101.32">
                <pitch>
                    <step>A</step>
                    <octave>4</octave>
                </pitch>
                <duration>3</duration>
                <voice>1</voice>
                <type>quarter</type>
                <dot/>
                <stem>up</stem>
                <lyric number="1">
                    <syllabic>single</syllabic>
                    <text>By</text>
                </lyric>
                <lyric number="2">
                    <syllabic>single</syllabic>
                    <text>Grace</text>
                </lyric>
                <lyric number="3">
                    <syllabic>begin</syllabic>
                    <text>Ev</text>
                </lyric>
                <lyric number="4">
                    <syllabic>single</syllabic>
                    <text>With</text>
                </lyric>
            </note>
            <note default-y="-30.00" default-x="192.12">
                <pitch>
                    <step>G</step>
                    <octave>4</octave>
                </pitch>
                <duration>1</duration>
                <voice>1</voice>
                <type>eighth</type>
                <stem>up</stem>
                <lyric number="1">
                    <syllabic>single</syllabic>
                    <text>His</text>
                </lyric>
                <lyric number="2">
                    <syllabic>single</syllabic>
                    <text>of</text>
                </lyric>
                <lyric number="3">
                    <syllabic>end</syllabic>
                    <text>'ry</text>
                </lyric>
                <lyric number="4">
                    <syllabic>single</syllabic>
                    <text>the</text>
                </lyric>
            </note>
            <note default-y="-35.00" default-x="242.81">
                <pitch>
                    <step>F</step>
                    <octave>4</octave>
                </pitch>
                <duration>1</duration>
                <voice>1</voice>
                <type>eighth</type>
                <stem>up</stem>
                <beam number="1">begin</beam>
                <lyric number="1">
                    <syllabic>begin</syllabic>
                    <text>pres</text>
                </lyric>
                <lyric number="2">
                    <syllabic>single</syllabic>
                    <text>God</text>
                </lyric>
                <lyric number="3">
                    <syllabic>single</syllabic>
                    <text>good</text>
                </lyric>
                <lyric number="4">
                    <syllabic>begin</syllabic>
                    <text>ran</text>
                </lyric>
            </note>
            <note default-y="-30.00" default-x="302.88">
                <pitch>
                    <step>G</step>
                    <octave>4</octave>
                </pitch>
                <duration>1</duration>
                <voice>1</voice>
                <type>eighth</type>
                <stem>up</stem>
                <beam number="1">continue</beam>
                <lyric number="1">
                    <syllabic>end</syllabic>
                    <text>ence</text>
                </lyric>
                <lyric number="2">
                    <syllabic>begin</syllabic>
                    <text>be</text>
                </lyric>
                <lyric number="3">
                    <syllabic>single</syllabic>
                    <text>in</text>
                </lyric>
                <lyric number="4">
                    <syllabic>end</syllabic>
                    <text>somed</text>
                </lyric>
            </note>
            <note default-y="-25.00" default-x="362.95">
                <pitch>
                    <step>A</step>
                    <octave>4</octave>
                </pitch>
                <duration>1</duration>
                <voice>1</voice>
                <type>eighth</type>
                <stem>up</stem>
                <beam number="1">continue</beam>
                <lyric number="1">
                    <syllabic>single</syllabic>
                    <text>all</text>
                </lyric>
                <lyric number="2">
                    <syllabic>end</syllabic>
                    <text>yond</text>
                </lyric>
                <lyric number="3">
                    <syllabic>single</syllabic>
                    <text>Him</text>
                </lyric>
                <lyric number="4">
                    <syllabic>single</syllabic>
                    <text>I</text>
                </lyric>
            </note>
            <note default-y="-15.00" default-x="410.87">
                <pitch>
                    <step>C</step>
                    <octave>5</octave>
                </pitch>
                <duration>1</duration>
                <voice>1</voice>
                <type>eighth</type>
                <stem>up</stem>
                <beam number="1">end</beam>
                <lyric number="1">
                    <syllabic>begin</syllabic>
                    <text>di</text>
                </lyric>
                <lyric number="2">
                    <syllabic>begin</syllabic>
                    <text>de</text>
                </lyric>
                <lyric number="3">
                    <syllabic>single</syllabic>
                    <text>I</text>
                </lyric>
                <lyric number="4">
                    <syllabic>single</syllabic>
                    <text>will</text>
                </lyric>
            </note>
        </measure>
        <measure width="152.93" number="4">
            <harmony print-frame="no">
                <root>
                    <root-step>B</root-step>
                    <root-alter>-1</root-alter>
                </root>
                <kind text="">major</kind>
            </harmony>
            <note default-y="-20.00" default-x="43.92">
                <pitch>
                    <step>B</step>
                    <alter>-1</alter>
                    <octave>4</octave>
                </pitch>
                <duration>6</duration>
                <voice>1</voice>
                <type>half</type>
                <dot/>
                <stem>down</stem>
                <lyric number="1">
                    <syllabic>end</syllabic>
                    <text>vine?</text>
                </lyric>
                <lyric number="2">
                    <syllabic>end</syllabic>
                    <text>gree,</text>
                </lyric>
                <lyric number="3">
                    <syllabic>single</syllabic>
                    <text>see.</text>
                </lyric>
                <lyric number="4">
                    <syllabic>single</syllabic>
                    <text>sing,</text>
                </lyric>
            </note>
            <note>
                <rest/>
                <duration>2</duration>
                <voice>1</voice>
                <type>quarter</type>
            </note>
        </measure>
        <measure width="387.21" number="5">
            <harmony print-frame="no">
                <root>
                    <root-step>B</root-step>
                    <root-alter>-1</root-alter>
                </root>
                <kind text="">major</kind>
            </harmony>
            <note default-y="-35.00" default-x="40.36">
                <pitch>
                    <step>F</step>
                    <octave>4</octave>
                </pitch>
                <duration>3</duration>
                <voice>1</voice>
                <type>quarter</type>
                <dot/>
                <stem>up</stem>
                <lyric number="1">
                    <syllabic>single</syllabic>
                    <text>True</text>
                </lyric>
                <lyric number="2">
                    <syllabic>begin</syllabic>
                    <text>Mer</text>
                </lyric>
                <lyric number="3">
                    <syllabic>single</syllabic>
                    <text>On</text>
                </lyric>
                <lyric number="4">
                    <syllabic>single</syllabic>
                    <text>And</text>
                </lyric>
            </note>
            <note default-y="-35.00" default-x="126.60">
                <pitch>
                    <step>F</step>
                    <octave>4</octave>
                </pitch>
                <duration>1</duration>
                <voice>1</voice>
                <type>eighth</type>
                <stem>up</stem>
                <lyric number="1">
                    <syllabic>single</syllabic>
                    <text>and</text>
                </lyric>
                <lyric number="2">
                    <syllabic>end</syllabic>
                    <text>cy</text>
                </lyric>
                <lyric number="3">
                    <syllabic>single</syllabic>
                    <text>His</text>
                </lyric>
                <lyric number="4">
                    <syllabic>begin</syllabic>
                    <text>for</text>
                </lyric>
            </note>
            <harmony print-frame="no">
                <root>
                    <root-step>E</root-step>
                    <root-alter>-1</root-alter>
                </root>
                <kind text="">major</kind>
            </harmony>
            <note default-y="-30.00" default-x="191.36">
                <pitch>
                    <step>G</step>
                    <octave>4</octave>
                </pitch>
                <duration>1</duration>
                <voice>1</voice>
                <type>eighth</type>
                <stem>up</stem>
                <beam number="1">begin</beam>
                <lyric number="1">
                    <syllabic>begin</syllabic>
                    <text>ten</text>
                </lyric>
                <lyric number="2">
                    <syllabic>begin</syllabic>
                    <text>high</text>
                </lyric>
                <lyric number="3">
                    <syllabic>single</syllabic>
                    <text>strength</text>
                </lyric>
                <lyric number="4">
                    <syllabic>middle</syllabic>
                    <text>ev</text>
                </lyric>
            </note>
            <note default-y="-35.00" default-x="252.60">
                <pitch>
                    <step>F</step>
                    <octave>4</octave>
                </pitch>
                <duration>1</duration>
                <voice>1</voice>
                <type>eighth</type>
                <stem>up</stem>
                <beam number="1">continue</beam>
                <lyric number="1">
                    <syllabic>end</syllabic>
                    <text>der,</text>
                </lyric>
                <lyric number="2">
                    <syllabic>end</syllabic>
                    <text>er</text>
                </lyric>
                <lyric number="3">
                    <syllabic>begin</syllabic>
                    <text>di</text>
                </lyric>
                <lyric number="4">
                    <syllabic>end</syllabic>
                    <text>er</text>
                </lyric>
            </note>
            <harmony print-frame="no">
                <root>
                    <root-step>B</root-step>
                    <root-alter>-1</root-alter>
                </root>
                <kind text="">major</kind>
            </harmony>
            <note default-y="-45.00" default-x="297.20">
                <pitch>
                    <step>D</step>
                    <octave>4</octave>
                </pitch>
                <duration>1</duration>
                <voice>1</voice>
                <type>eighth</type>
                <stem>up</stem>
                <beam number="1">continue</beam>
                <lyric number="1">
                    <syllabic>single</syllabic>
                    <text>pure</text>
                </lyric>
                <lyric number="2">
                    <syllabic>single</syllabic>
                    <text>than</text>
                </lyric>
                <lyric number="3">
                    <syllabic>end</syllabic>
                    <text>vine</text>
                </lyric>
                <lyric number="4">
                    <syllabic>single</syllabic>
                    <text>and</text>
                </lyric>
            </note>
            <note default-y="-35.00" default-x="341.40">
                <pitch>
                    <step>F</step>
                    <octave>4</octave>
                </pitch>
                <duration>1</duration>
                <voice>1</voice>
                <type>eighth</type>
                <stem>up</stem>
                <beam number="1">end</beam>
                <lyric number="1">
                    <syllabic>single</syllabic>
                    <text>and</text>
                </lyric>
                <lyric number="2">
                    <syllabic>single</syllabic>
                    <text>the</text>
                </lyric>
                <lyric number="3">
                    <syllabic>begin</syllabic>
                    <text>re</text>
                </lyric>
                <lyric number="4">
                    <syllabic>begin</syllabic>
                    <text>for</text>
                </lyric>
            </note>
        </measure>
        <measure width="316.07" number="6">
            <print new-system="yes">
                <system-layout>
                    <system-margins>
                        <left-margin>77.95</left-margin>
                        <right-margin>0.00</right-margin>
                    </system-margins>
                    <system-distance>263.62</system-distance>
                </system-layout>
            </print>
            <harmony print-frame="no">
                <root>
                    <root-step>E</root-step>
                    <root-alter>-1</root-alter>
                </root>
                <kind text="">major</kind>
            </harmony>
            <note default-y="-30.00" default-x="95.58">
                <pitch>
                    <step>G</step>
                    <octave>4</octave>
                </pitch>
                <duration>4</duration>
                <voice>1</voice>
                <type>half</type>
                <stem>up</stem>
                <lyric number="1">
                    <syllabic>begin</syllabic>
                    <text>pre</text>
                </lyric>
                <lyric number="2">
                    <syllabic>begin</syllabic>
                    <text>heav</text>
                </lyric>
                <lyric number="3">
                    <syllabic>middle</syllabic>
                    <text>ly</text>
                </lyric>
                <lyric number="4">
                    <syllabic>middle</syllabic>
                    <text>ev</text>
                </lyric>
            </note>
            <note default-y="-20.00" default-x="205.02">
                <pitch>
                    <step>B</step>
                    <alter>-1</alter>
                    <octave>4</octave>
                </pitch>
                <duration>4</duration>
                <voice>1</voice>
                <type>half</type>
                <stem>down</stem>
                <lyric number="1">
                    <syllabic>end</syllabic>
                    <text>cious,</text>
                </lyric>
                <lyric number="2">
                    <syllabic>end</syllabic>
                    <text>en,</text>
                </lyric>
                <lyric number="3">
                    <syllabic>end</syllabic>
                    <text>ing,</text>
                </lyric>
                <lyric number="4">
                    <syllabic>end</syllabic>
                    <text>er</text>
                </lyric>
            </note>
        </measure>
        <measure width="459.47" number="7">
            <harmony print-frame="no">
                <root>
                    <root-step>F</root-step>
                </root>
                <kind text="">major</kind>
            </harmony>
            <note default-y="-25.00" default-x="47.13">
                <pitch>
                    <step>A</step>
                    <octave>4</octave>
                </pitch>
                <duration>3</duration>
                <voice>1</voice>
                <type>quarter</type>
                <dot/>
                <stem>up</stem>
                <lyric number="1">
                    <syllabic>single</syllabic>
                    <text>Oh,</text>
                </lyric>
                <lyric number="2">
                    <syllabic>begin</syllabic>
                    <text>Deep</text>
                </lyric>
                <lyric number="3">
                    <syllabic>single</syllabic>
                    <text>He</text>
                </lyric>
                <lyric number="4">
                    <syllabic>single</syllabic>
                    <text>Praise</text>
                </lyric>
            </note>
            <note default-y="-30.00" default-x="162.42">
                <pitch>
                    <step>G</step>
                    <octave>4</octave>
                </pitch>
                <duration>1</duration>
                <voice>1</voice>
                <type>eighth</type>
                <stem>up</stem>
                <lyric number="1">
                    <syllabic>single</syllabic>
                    <text>how</text>
                </lyric>
                <lyric number="2">
                    <syllabic>end</syllabic>
                    <text>er</text>
                </lyric>
                <lyric number="3">
                    <syllabic>single</syllabic>
                    <text>is</text>
                </lyric>
                <lyric number="4">
                    <syllabic>single</syllabic>
                    <text>and</text>
                </lyric>
            </note>
            <note default-y="-35.00" default-x="221.51">
                <pitch>
                    <step>F</step>
                    <octave>4</octave>
                </pitch>
                <duration>1</duration>
                <voice>1</voice>
                <type>eighth</type>
                <stem>up</stem>
                <beam number="1">begin</beam>
                <lyric number="1">
                    <syllabic>single</syllabic>
                    <text>blest</text>
                </lyric>
                <lyric number="2">
                    <syllabic>single</syllabic>
                    <text>than</text>
                </lyric>
                <lyric number="3">
                    <syllabic>single</syllabic>
                    <text>more</text>
                </lyric>
                <lyric number="4">
                    <syllabic>begin</syllabic>
                    <text>glo</text>
                </lyric>
            </note>
            <note default-y="-30.00" default-x="280.60">
                <pitch>
                    <step>G</step>
                    <octave>4</octave>
                </pitch>
                <duration>1</duration>
                <voice>1</voice>
                <type>eighth</type>
                <stem>up</stem>
                <beam number="1">continue</beam>
                <lyric number="1">
                    <syllabic>single</syllabic>
                    <text>to</text>
                </lyric>
                <lyric number="2">
                    <syllabic>single</syllabic>
                    <text>the</text>
                </lyric>
                <lyric number="3">
                    <syllabic>single</syllabic>
                    <text>than</text>
                </lyric>
                <lyric number="4">
                    <syllabic>middle</syllabic>
                    <text>ri</text>
                </lyric>
            </note>
            <note default-y="-25.00" default-x="339.69">
                <pitch>
                    <step>A</step>
                    <octave>4</octave>
                </pitch>
                <duration>1</duration>
                <voice>1</voice>
                <type>eighth</type>
                <stem>up</stem>
                <beam number="1">continue</beam>
                <lyric number="1">
                    <syllabic>single</syllabic>
                    <text>call</text>
                </lyric>
                <lyric number="2">
                    <syllabic>begin</syllabic>
                    <text>deep</text>
                </lyric>
                <lyric number="3">
                    <syllabic>single</syllabic>
                    <text>life</text>
                </lyric>
                <lyric number="4">
                    <syllabic>end</syllabic>
                    <text>fy</text>
                </lyric>
            </note>
            <note default-y="-15.00" default-x="398.78">
                <pitch>
                    <step>C</step>
                    <octave>5</octave>
                </pitch>
                <duration>1</duration>
                <voice>1</voice>
                <type>eighth</type>
                <stem>up</stem>
                <beam number="1">end</beam>
                <lyric number="1">
                    <syllabic>single</syllabic>
                    <text>Him</text>
                </lyric>
                <lyric number="2">
                    <syllabic>end</syllabic>
                    <text>est</text>
                </lyric>
                <lyric number="3">
                    <syllabic>single</syllabic>
                    <text>to</text>
                </lyric>
                <lyric number="4">
                    <syllabic>single</syllabic>
                    <text>the</text>
                </lyric>
            </note>
        </measure>
        <measure width="223.61" number="8">
            <harmony print-frame="no">
                <root>
                    <root-step>B</root-step>
                    <root-alter>-1</root-alter>
                </root>
                <kind text="">major</kind>
            </harmony>
            <note default-y="-20.00" default-x="45.85">
                <pitch>
                    <step>B</step>
                    <alter>-1</alter>
                    <octave>4</octave>
                </pitch>
                <duration>6</duration>
                <voice>1</voice>
                <type>half</type>
                <dot/>
                <stem>down</stem>
                <lyric number="1">
                    <syllabic>single</syllabic>
                    <text>mine!</text>
                </lyric>
                <lyric number="2">
                    <syllabic>single</syllabic>
                    <text>sea!</text>
                </lyric>
                <lyric number="3">
                    <syllabic>single</syllabic>
                    <text>me.</text>
                </lyric>
                <lyric number="4">
                    <syllabic>single</syllabic>
                    <text>King.</text>
                </lyric>
            </note>
            <note>
                <rest/>
                <duration>2</duration>
                <voice>1</voice>
                <type>quarter</type>
            </note>
        </measure>
        <measure width="389.22" number="9">
            <print new-system="yes">
                <system-layout>
                    <system-margins>
                        <left-margin>77.95</left-margin>
                        <right-margin>0.00</right-margin>
                    </system-margins>
                    <system-distance>263.62</system-distance>
                </system-layout>
            </print>
            <harmony print-frame="no">
                <root>
                    <root-step>B</root-step>
                    <root-alter>-1</root-alter>
                </root>
                <kind text="">major</kind>
            </harmony>
            <direction placement="above">
                <direction-type>
                    <words>REFRAIN</words>
                </direction-type>
            </direction>
            <note default-y="-10.00" default-x="88.56">
                <pitch>
                    <step>D</step>
                    <octave>5</octave>
                </pitch>
                <duration>3</duration>
                <voice>1</voice>
                <type>quarter</type>
                <dot/>
                <stem>down</stem>
                <lyric number="1">
                    <syllabic>single</syllabic>
                    <text>All</text>
                </lyric>
            </note>
            <note default-y="-10.00" default-x="166.80">
                <pitch>
                    <step>D</step>
                    <octave>5</octave>
                </pitch>
                <duration>1</duration>
                <voice>1</voice>
                <type>eighth</type>
                <stem>down</stem>
                <lyric number="1">
                    <syllabic>single</syllabic>
                    <text>that</text>
                </lyric>
            </note>
            <harmony print-frame="no">
                <root>
                    <root-step>D</root-step>
                </root>
                <kind text="7">dominant</kind>
            </harmony>
            <note default-y="-15.00" default-x="217.93">
                <pitch>
                    <step>C</step>
                    <octave>5</octave>
                </pitch>
                <duration>1</duration>
                <voice>1</voice>
                <type>eighth</type>
                <stem>down</stem>
                <beam number="1">begin</beam>
                <lyric number="1">
                    <syllabic>single</syllabic>
                    <text>thrills</text>
                </lyric>
            </note>
            <note default-y="-15.00" default-x="266.51">
                <pitch>
                    <step>C</step>
                    <octave>5</octave>
                </pitch>
                <duration>1</duration>
                <voice>1</voice>
                <type>eighth</type>
                <stem>down</stem>
                <beam number="1">continue</beam>
                <lyric number="1">
                    <syllabic>single</syllabic>
                    <text>my</text>
                </lyric>
            </note>
            <harmony print-frame="no">
                <root>
                    <root-step>G</root-step>
                </root>
                <kind text="m">minor</kind>
            </harmony>
            <note default-y="-20.00" default-x="307.41">
                <pitch>
                    <step>B</step>
                    <alter>-1</alter>
                    <octave>4</octave>
                </pitch>
                <duration>1</duration>
                <voice>1</voice>
                <type>eighth</type>
                <stem>down</stem>
                <beam number="1">continue</beam>
                <lyric number="1">
                    <syllabic>single</syllabic>
                    <text>soul</text>
                </lyric>
            </note>
            <note default-y="-20.00" default-x="347.51">
                <pitch>
                    <step>B</step>
                    <alter>-1</alter>
                    <octave>4</octave>
                </pitch>
                <duration>1</duration>
                <voice>1</voice>
                <type>eighth</type>
                <stem>down</stem>
                <beam number="1">end</beam>
                <lyric number="1">
                    <syllabic>single</syllabic>
                    <text>is</text>
                </lyric>
            </note>
        </measure>
        <measure width="153.94" number="10">
            <harmony print-frame="no">
                <root>
                    <root-step>D</root-step>
                </root>
                <kind text="7">dominant</kind>
            </harmony>
            <note default-y="-25.00" default-x="28.60">
                <pitch>
                    <step>A</step>
                    <octave>4</octave>
                </pitch>
                <duration>4</duration>
                <voice>1</voice>
                <type>half</type>
                <stem>up</stem>
                <lyric number="1">
                    <syllabic>begin</syllabic>
                    <text>Je</text>
                </lyric>
            </note>
            <harmony print-frame="no">
                <root>
                    <root-step>E</root-step>
                    <root-alter>-1</root-alter>
                </root>
                <kind text="">major</kind>
            </harmony>
            <harmony print-frame="no">
                <root>
                    <root-step>D</root-step>
                </root>
                <kind text="dim">diminished</kind>
                <offset>2</offset>
            </harmony>
            <note default-y="-30.00" default-x="90.47">
                <pitch>
                    <step>G</step>
                    <octave>4</octave>
                </pitch>
                <duration>4</duration>
                <voice>1</voice>
                <type>half</type>
                <stem>up</stem>
                <lyric number="1">
                    <syllabic>end</syllabic>
                    <text>sus;</text>
                </lyric>
            </note>
        </measure>
        <measure width="315.23" number="11">
            <harmony print-frame="no">
                <root>
                    <root-step>C</root-step>
                </root>
                <kind text="7">dominant</kind>
            </harmony>
            <note default-y="-15.00" default-x="32.42">
                <pitch>
                    <step>C</step>
                    <octave>5</octave>
                </pitch>
                <duration>3</duration>
                <voice>1</voice>
                <type>quarter</type>
                <dot/>
                <stem>down</stem>
                <lyric number="1">
                    <syllabic>single</syllabic>
                    <text>He</text>
                </lyric>
            </note>
            <note default-y="-10.00" default-x="104.66">
                <pitch>
                    <step>D</step>
                    <octave>5</octave>
                </pitch>
                <duration>1</duration>
                <voice>1</voice>
                <type>eighth</type>
                <stem>down</stem>
                <lyric number="1">
                    <syllabic>single</syllabic>
                    <text>is</text>
                </lyric>
            </note>
            <note default-y="-15.00" default-x="146.96">
                <pitch>
                    <step>C</step>
                    <octave>5</octave>
                </pitch>
                <duration>1</duration>
                <voice>1</voice>
                <type>eighth</type>
                <stem>up</stem>
                <beam number="1">begin</beam>
                <lyric number="1">
                    <syllabic>single</syllabic>
                    <text>more</text>
                </lyric>
            </note>
            <note default-y="-20.00" default-x="197.43">
                <pitch>
                    <step>B</step>
                    <alter>-1</alter>
                    <octave>4</octave>
                </pitch>
                <duration>1</duration>
                <voice>1</voice>
                <type>eighth</type>
                <stem>up</stem>
                <beam number="1">continue</beam>
                <lyric number="1">
                    <syllabic>single</syllabic>
                    <text>than</text>
                </lyric>
            </note>
            <note default-y="-25.00" default-x="239.58">
                <pitch>
                    <step>A</step>
                    <octave>4</octave>
                </pitch>
                <duration>1</duration>
                <voice>1</voice>
                <type>eighth</type>
                <stem>up</stem>
                <beam number="1">continue</beam>
                <lyric number="1">
                    <syllabic>single</syllabic>
                    <text>life</text>
                </lyric>
            </note>
            <note default-y="-30.00" default-x="276.61">
                <pitch>
                    <step>G</step>
                    <octave>4</octave>
                </pitch>
                <duration>1</duration>
                <voice>1</voice>
                <type>eighth</type>
                <stem>up</stem>
                <beam number="1">end</beam>
                <lyric number="1">
                    <syllabic>single</syllabic>
                    <text>to</text>
                </lyric>
            </note>
        </measure>
        <measure width="140.75" number="12">
            <harmony print-frame="no">
                <root>
                    <root-step>F</root-step>
                </root>
                <kind text="">major</kind>
            </harmony>
            <harmony print-frame="no">
                <root>
                    <root-step>F</root-step>
                </root>
                <kind text="7">dominant</kind>
                <offset>4</offset>
            </harmony>
            <note default-y="-35.00" default-x="36.26">
                <pitch>
                    <step>F</step>
                    <octave>4</octave>
                </pitch>
                <duration>6</duration>
                <voice>1</voice>
                <type>half</type>
                <dot/>
                <stem>up</stem>
                <lyric number="1">
                    <syllabic>single</syllabic>
                    <text>me;</text>
                </lyric>
            </note>
            <note>
                <rest/>
                <duration>2</duration>
                <voice>1</voice>
                <type>quarter</type>
            </note>
        </measure>
        <measure width="359.68" number="13">
            <print new-system="yes">
                <system-layout>
                    <system-margins>
                        <left-margin>77.95</left-margin>
                        <right-margin>0.00</right-margin>
                    </system-margins>
                    <system-distance>182.62</system-distance>
                </system-layout>
            </print>
            <harmony print-frame="no">
                <root>
                    <root-step>B</root-step>
                    <root-alter>-1</root-alter>
                </root>
                <kind text="">major</kind>
            </harmony>
            <note default-y="-35.00" default-x="93.67">
                <pitch>
                    <step>F</step>
                    <octave>4</octave>
                </pitch>
                <duration>3</duration>
                <voice>1</voice>
                <type>quarter</type>
                <dot/>
                <stem>up</stem>
                <lyric number="1">
                    <syllabic>single</syllabic>
                    <text>And</text>
                </lyric>
            </note>
            <note default-y="-35.00" default-x="166.04">
                <pitch>
                    <step>F</step>
                    <octave>4</octave>
                </pitch>
                <duration>1</duration>
                <voice>1</voice>
                <type>eighth</type>
                <stem>up</stem>
                <lyric number="1">
                    <syllabic>single</syllabic>
                    <text>the</text>
                </lyric>
            </note>
            <harmony print-frame="no">
                <root>
                    <root-step>B</root-step>
                    <root-alter>-1</root-alter>
                </root>
                <kind text="7">dominant</kind>
            </harmony>
            <note default-y="-30.00" default-x="209.69">
                <pitch>
                    <step>G</step>
                    <octave>4</octave>
                </pitch>
                <duration>1</duration>
                <voice>1</voice>
                <type>eighth</type>
                <stem>up</stem>
                <beam number="1">begin</beam>
                <lyric number="1">
                    <syllabic>begin</syllabic>
                    <text>fair</text>
                </lyric>
            </note>
            <note default-y="-35.00" default-x="246.79">
                <pitch>
                    <step>F</step>
                    <octave>4</octave>
                </pitch>
                <duration>1</duration>
                <voice>1</voice>
                <type>eighth</type>
                <stem>up</stem>
                <beam number="1">continue</beam>
                <lyric number="1">
                    <syllabic>end</syllabic>
                    <text>est</text>
                </lyric>
            </note>
            <note default-y="-45.00" default-x="283.89">
                <pitch>
                    <step>D</step>
                    <octave>4</octave>
                </pitch>
                <duration>1</duration>
                <voice>1</voice>
                <type>eighth</type>
                <stem>up</stem>
                <beam number="1">continue</beam>
                <lyric number="1">
                    <syllabic>single</syllabic>
                    <text>of</text>
                </lyric>
            </note>
            <note default-y="-35.00" default-x="320.98">
                <pitch>
                    <step>F</step>
                    <octave>4</octave>
                </pitch>
                <duration>1</duration>
                <voice>1</voice>
                <type>eighth</type>
                <stem>up</stem>
                <beam number="1">end</beam>
                <lyric number="1">
                    <syllabic>single</syllabic>
                    <text>ten</text>
                </lyric>
            </note>
        </measure>
        <measure width="177.60" number="14">
            <harmony print-frame="no">
                <root>
                    <root-step>E</root-step>
                    <root-alter>-1</root-alter>
                </root>
                <kind text="">major</kind>
            </harmony>
            <note default-y="-30.00" default-x="39.46">
                <pitch>
                    <step>G</step>
                    <octave>4</octave>
                </pitch>
                <duration>4</duration>
                <voice>1</voice>
                <type>half</type>
                <stem>up</stem>
                <lyric number="1">
                    <syllabic>begin</syllabic>
                    <text>thou</text>
                </lyric>
            </note>
            <harmony print-frame="no">
                <root>
                    <root-step>C</root-step>
                </root>
                <kind text="m7">minor-seventh</kind>
            </harmony>
            <note default-y="-20.00" default-x="107.73">
                <pitch>
                    <step>B</step>
                    <alter>-1</alter>
                    <octave>4</octave>
                </pitch>
                <duration>4</duration>
                <voice>1</voice>
                <type>half</type>
                <stem>down</stem>
                <lyric number="1">
                    <syllabic>end</syllabic>
                    <text>sand</text>
                </lyric>
            </note>
        </measure>
        <measure width="316.42" number="15">
            <harmony print-frame="no">
                <root>
                    <root-step>F</root-step>
                </root>
                <kind text="">major</kind>
            </harmony>
            <note default-y="-25.00" default-x="28.59">
                <pitch>
                    <step>A</step>
                    <octave>4</octave>
                </pitch>
                <duration>3</duration>
                <voice>1</voice>
                <type>quarter</type>
                <dot/>
                <stem>up</stem>
                <lyric number="1">
                    <syllabic>single</syllabic>
                    <text>In</text>
                </lyric>
            </note>
            <note default-y="-30.00" default-x="104.43">
                <pitch>
                    <step>G</step>
                    <octave>4</octave>
                </pitch>
                <duration>1</duration>
                <voice>1</voice>
                <type>eighth</type>
                <stem>up</stem>
                <lyric number="1">
                    <syllabic>single</syllabic>
                    <text>my</text>
                </lyric>
            </note>
            <harmony print-frame="no">
                <root>
                    <root-step>F</root-step>
                </root>
                <kind text="7">dominant</kind>
            </harmony>
            <note default-y="-35.00" default-x="155.14">
                <pitch>
                    <step>F</step>
                    <octave>4</octave>
                </pitch>
                <duration>1</duration>
                <voice>1</voice>
                <type>eighth</type>
                <stem>up</stem>
                <beam number="1">begin</beam>
                <lyric number="1">
                    <syllabic>begin</syllabic>
                    <text>bless</text>
                </lyric>
            </note>
            <note default-y="-30.00" default-x="196.04">
                <pitch>
                    <step>G</step>
                    <octave>4</octave>
                </pitch>
                <duration>1</duration>
                <voice>1</voice>
                <type>eighth</type>
                <stem>up</stem>
                <beam number="1">continue</beam>
                <lyric number="1">
                    <syllabic>end</syllabic>
                    <text>ed</text>
                </lyric>
            </note>
            <note default-y="-25.00" default-x="237.07">
                <pitch>
                    <step>A</step>
                    <octave>4</octave>
                </pitch>
                <duration>1</duration>
                <voice>1</voice>
                <type>eighth</type>
                <stem>up</stem>
                <beam number="1">continue</beam>
                <lyric number="1">
                    <syllabic>single</syllabic>
                    <text>Lord</text>
                </lyric>
            </note>
            <note default-y="-15.00" default-x="275.95">
                <pitch>
                    <step>C</step>
                    <octave>5</octave>
                </pitch>
                <duration>1</duration>
                <voice>1</voice>
                <type>eighth</type>
                <stem>up</stem>
                <beam number="1">end</beam>
                <lyric number="1">
                    <syllabic>single</syllabic>
                    <text>I</text>
                </lyric>
            </note>
        </measure>
        <measure width="145.44" number="16">
            <harmony print-frame="no">
                <root>
                    <root-step>B</root-step>
                    <root-alter>-1</root-alter>
                </root>
                <kind text="">major</kind>
            </harmony>
            <note default-y="-20.00" default-x="36.58">
                <pitch>
                    <step>B</step>
                    <alter>-1</alter>
                    <octave>4</octave>
                </pitch>
                <duration>6</duration>
                <voice>1</voice>
                <type>half</type>
                <dot/>
                <stem>down</stem>
                <lyric number="1">
                    <syllabic>single</syllabic>
                    <text>see.</text>
                </lyric>
            </note>
            <note>
                <rest/>
                <duration>2</duration>
                <voice>1</voice>
                <type>quarter</type>
            </note>
            <barline location="right">
                <bar-style>light-heavy</bar-style>
            </barline>
        </measure>
    </part>
</score-partwise>
