<?xml version="1.0" encoding="UTF-8"?>
<!DOCTYPE score-partwise PUBLIC "-//Recordare//DTD MusicXML 2.0 Partwise//EN" "http://www.musicxml.org/dtds/partwise.dtd">
<score-partwise version="2.0">
    <work>
        <work-number></work-number>
        <work-title></work-title>
    </work>
    <movement-number></movement-number>
    <movement-title>Streets of Laredo (Cowboy's Lament)</movement-title>
    <identification>
        <creator type="composer">Traditional</creator>
        <creator type="poet">Traditional</creator>
        <rights>Public Domain</rights>
        <encoding>
            <software>MuseScore 1.3</software>
            <encoding-date>2013-06-13</encoding-date>
            <software>ProxyMusic 2.0 c</software>
        </encoding>
        <source>http://wikifonia.org/node/22848/revisions/30040/view</source>
    </identification>
    <defaults>
        <scaling>
            <millimeters>5.7</millimeters>
            <tenths>40</tenths>
        </scaling>
        <page-layout>
            <page-height>1960.7</page-height>
            <page-width>1515.09</page-width>
            <page-margins type="both">
                <left-margin>70.1754</left-margin>
                <right-margin>70.1754</right-margin>
                <top-margin>70.1754</top-margin>
                <bottom-margin>140.351</bottom-margin>
            </page-margins>
        </page-layout>
    </defaults>
    <credit page="1">
        <credit-words font-size="24" default-y="1890.53" default-x="757.544" justify="center" valign="top">The Streets of Laredo</credit-words>
    </credit>
    <part-list>
        <score-part id="P1">
            <part-name></part-name>
            <score-instrument id="P1-I3">
                <instrument-name></instrument-name>
            </score-instrument>
            <midi-instrument id="P1-I3">
                <midi-channel>1</midi-channel>
                <midi-program>41</midi-program>
                <volume>78.7402</volume>
                <pan>0</pan>
            </midi-instrument>
        </score-part>
    </part-list>
    <part id="P1">
        <measure width="214.59" number="0" implicit="yes">
            <print>
                <system-layout>
                    <system-margins>
                        <left-margin>3.00</left-margin>
                        <right-margin>0.00</right-margin>
                    </system-margins>
                    <top-system-distance>279.75</top-system-distance>
                </system-layout>
            </print>
            <attributes>
                <divisions>2</divisions>
                <key>
                    <fifths>2</fifths>
                    <mode>major</mode>
                </key>
                <time>
                    <beats>3</beats>
                    <beat-type>4</beat-type>
                </time>
                <clef>
                    <sign>G</sign>
                    <line>2</line>
                </clef>
            </attributes>
            <note default-y="-25.00" default-x="135.30">
                <pitch>
                    <step>A</step>
                    <octave>4</octave>
                </pitch>
                <duration>2</duration>
                <voice>1</voice>
                <type>quarter</type>
                <stem>up</stem>
                <lyric number="1">
                    <syllabic>single</syllabic>
                    <text>As</text>
                </lyric>
                <lyric number="2">
                    <syllabic>single</syllabic>
                    <text>&quot;I</text>
                </lyric>
                <lyric number="3">
                    <syllabic>single</syllabic>
                    <text>&quot;'Twas</text>
                </lyric>
                <lyric number="4">
                    <syllabic>single</syllabic>
                    <text>&quot;Get</text>
                </lyric>
                <lyric number="5">
                    <syllabic>single</syllabic>
                    <text>&quot;Then</text>
                </lyric>
                <lyric number="6">
                    <syllabic>single</syllabic>
                    <text>&quot;Go</text>
                </lyric>
            </note>
        </measure>
        <measure width="309.75" number="1">
            <harmony print-frame="no">
                <root>
                    <root-step>D</root-step>
                </root>
                <kind text="">major</kind>
            </harmony>
            <note default-y="-25.00" default-x="32.03">
                <pitch>
                    <step>A</step>
                    <octave>4</octave>
                </pitch>
                <duration>3</duration>
                <voice>1</voice>
                <type>quarter</type>
                <dot/>
                <stem>up</stem>
                <lyric number="1">
                    <syllabic>single</syllabic>
                    <text>I</text>
                </lyric>
                <lyric number="2">
                    <syllabic>single</syllabic>
                    <text>see</text>
                </lyric>
                <lyric number="3">
                    <syllabic>single</syllabic>
                    <text>once</text>
                </lyric>
                <lyric number="4">
                    <syllabic>single</syllabic>
                    <text>six</text>
                </lyric>
                <lyric number="5">
                    <syllabic>single</syllabic>
                    <text>go</text>
                </lyric>
                <lyric number="6">
                    <syllabic>single</syllabic>
                    <text>bring</text>
                </lyric>
            </note>
            <note default-y="-30.00" default-x="144.78">
                <pitch>
                    <step>G</step>
                    <octave>4</octave>
                </pitch>
                <duration>1</duration>
                <voice>1</voice>
                <type>eighth</type>
                <stem>up</stem>
                <lyric number="2">
                    <syllabic>single</syllabic>
                    <text>by</text>
                </lyric>
                <lyric number="3">
                    <syllabic>single</syllabic>
                    <text>in</text>
                </lyric>
                <lyric number="4">
                    <syllabic>begin</syllabic>
                    <text>jol</text>
                </lyric>
                <lyric number="5">
                    <syllabic>single</syllabic>
                    <text>write</text>
                </lyric>
                <lyric number="6">
                    <syllabic>single</syllabic>
                    <text>me</text>
                </lyric>
            </note>
            <note default-y="-35.00" default-x="215.68">
                <pitch>
                    <step>F</step>
                    <alter>1</alter>
                    <octave>4</octave>
                </pitch>
                <duration>2</duration>
                <voice>1</voice>
                <type>quarter</type>
                <stem>up</stem>
                <lyric number="1">
                    <syllabic>single</syllabic>
                    <text>walked</text>
                </lyric>
                <lyric number="2">
                    <syllabic>single</syllabic>
                    <text>your</text>
                </lyric>
                <lyric number="3">
                    <syllabic>single</syllabic>
                    <text>the</text>
                </lyric>
                <lyric number="4">
                    <syllabic>end</syllabic>
                    <text>ly</text>
                </lyric>
                <lyric number="5">
                    <syllabic>single</syllabic>
                    <text>a</text>
                </lyric>
                <lyric number="6">
                    <syllabic>single</syllabic>
                    <text>a</text>
                </lyric>
            </note>
        </measure>
        <measure width="260.20" number="2">
            <harmony print-frame="no">
                <root>
                    <root-step>G</root-step>
                </root>
                <kind text="">major</kind>
            </harmony>
            <note default-y="-30.00" default-x="26.78">
                <pitch>
                    <step>G</step>
                    <octave>4</octave>
                </pitch>
                <duration>2</duration>
                <voice>1</voice>
                <type>quarter</type>
                <stem>up</stem>
                <lyric number="1">
                    <syllabic>single</syllabic>
                    <text>out</text>
                </lyric>
                <lyric number="2">
                    <syllabic>begin</syllabic>
                    <text>out</text>
                </lyric>
                <lyric number="3">
                    <syllabic>begin</syllabic>
                    <text>sad</text>
                </lyric>
                <lyric number="4">
                    <syllabic>begin</syllabic>
                    <text>cow</text>
                </lyric>
                <lyric number="5">
                    <syllabic>begin</syllabic>
                    <text>let</text>
                </lyric>
                <lyric number="6">
                    <syllabic>single</syllabic>
                    <text>cup,</text>
                </lyric>
            </note>
            <note default-y="-25.00" default-x="104.05">
                <pitch>
                    <step>A</step>
                    <octave>4</octave>
                </pitch>
                <duration>2</duration>
                <voice>1</voice>
                <type>quarter</type>
                <stem>up</stem>
                <lyric number="1">
                    <syllabic>single</syllabic>
                    <text>in</text>
                </lyric>
                <lyric number="2">
                    <syllabic>end</syllabic>
                    <text>fit</text>
                </lyric>
                <lyric number="3">
                    <syllabic>end</syllabic>
                    <text>dle</text>
                </lyric>
                <lyric number="4">
                    <syllabic>end</syllabic>
                    <text>boys</text>
                </lyric>
                <lyric number="5">
                    <syllabic>end</syllabic>
                    <text>ter</text>
                </lyric>
            </note>
            <note default-y="-30.00" default-x="181.32">
                <pitch>
                    <step>G</step>
                    <octave>4</octave>
                </pitch>
                <duration>2</duration>
                <voice>1</voice>
                <type>quarter</type>
                <stem>up</stem>
                <lyric number="1">
                    <syllabic>single</syllabic>
                    <text>the</text>
                </lyric>
                <lyric number="2">
                    <syllabic>single</syllabic>
                    <text>that</text>
                </lyric>
                <lyric number="3">
                    <syllabic>single</syllabic>
                    <text>I</text>
                </lyric>
                <lyric number="4">
                    <syllabic>single</syllabic>
                    <text>to</text>
                </lyric>
                <lyric number="5">
                    <syllabic>single</syllabic>
                    <text>to</text>
                </lyric>
                <lyric number="6">
                    <syllabic>single</syllabic>
                    <text>a</text>
                </lyric>
            </note>
        </measure>
        <measure width="304.18" number="3">
            <harmony print-frame="no">
                <root>
                    <root-step>D</root-step>
                </root>
                <kind text="">major</kind>
            </harmony>
            <note default-y="-35.00" default-x="37.62">
                <pitch>
                    <step>F</step>
                    <alter>1</alter>
                    <octave>4</octave>
                </pitch>
                <duration>3</duration>
                <voice>1</voice>
                <type>quarter</type>
                <dot/>
                <stem>up</stem>
                <lyric number="1">
                    <syllabic>single</syllabic>
                    <text>streets</text>
                </lyric>
                <lyric number="2">
                    <syllabic>single</syllabic>
                    <text>you</text>
                </lyric>
                <lyric number="3">
                    <syllabic>single</syllabic>
                    <text>used</text>
                </lyric>
                <lyric number="4">
                    <syllabic>begin</syllabic>
                    <text>car</text>
                </lyric>
                <lyric number="5">
                    <syllabic>single</syllabic>
                    <text>my</text>
                </lyric>
                <lyric number="6">
                    <syllabic>single</syllabic>
                    <text>cup</text>
                </lyric>
            </note>
            <note default-y="-40.00" default-x="148.84">
                <pitch>
                    <step>E</step>
                    <octave>4</octave>
                </pitch>
                <duration>1</duration>
                <voice>1</voice>
                <type>eighth</type>
                <stem>up</stem>
                <lyric number="1">
                    <syllabic>single</syllabic>
                    <text>of</text>
                </lyric>
                <lyric number="2">
                    <syllabic>single</syllabic>
                    <text>are</text>
                </lyric>
                <lyric number="3">
                    <syllabic>single</syllabic>
                    <text>to</text>
                </lyric>
                <lyric number="4">
                    <syllabic>end</syllabic>
                    <text>ry</text>
                </lyric>
                <lyric number="5">
                    <syllabic>begin</syllabic>
                    <text>gray</text>
                </lyric>
                <lyric number="6">
                    <syllabic>single</syllabic>
                    <text>of</text>
                </lyric>
            </note>
            <note default-y="-45.00" default-x="211.36">
                <pitch>
                    <step>D</step>
                    <octave>4</octave>
                </pitch>
                <duration>2</duration>
                <voice>1</voice>
                <type>quarter</type>
                <stem>up</stem>
                <lyric number="1">
                    <syllabic>begin</syllabic>
                    <text>La</text>
                </lyric>
                <lyric number="2">
                    <syllabic>single</syllabic>
                    <text>a</text>
                </lyric>
                <lyric number="3">
                    <syllabic>single</syllabic>
                    <text>go</text>
                </lyric>
                <lyric number="4">
                    <syllabic>single</syllabic>
                    <text>my</text>
                </lyric>
                <lyric number="5">
                    <syllabic>end</syllabic>
                    <text>haired</text>
                </lyric>
                <lyric number="6">
                    <syllabic>single</syllabic>
                    <text>cold</text>
                </lyric>
            </note>
        </measure>
        <measure width="283.03" number="4">
            <harmony print-frame="no">
                <root>
                    <root-step>A</root-step>
                </root>
                <kind text="">major</kind>
            </harmony>
            <note default-y="-50.00" default-x="28.54">
                <pitch>
                    <step>C</step>
                    <alter>1</alter>
                    <octave>4</octave>
                </pitch>
                <duration>2</duration>
                <voice>1</voice>
                <type>quarter</type>
                <stem>up</stem>
                <lyric number="1">
                    <syllabic>middle</syllabic>
                    <text>re</text>
                </lyric>
                <lyric number="2">
                    <syllabic>begin</syllabic>
                    <text>cow</text>
                </lyric>
                <lyric number="3">
                    <syllabic>begin</syllabic>
                    <text>dash</text>
                </lyric>
                <lyric number="4">
                    <syllabic>begin</syllabic>
                    <text>cof</text>
                </lyric>
                <lyric number="5">
                    <syllabic>begin</syllabic>
                    <text>mo</text>
                </lyric>
                <lyric number="6">
                    <syllabic>begin</syllabic>
                    <text>wa</text>
                </lyric>
            </note>
            <note default-y="-60.00" default-x="117.45">
                <pitch>
                    <step>A</step>
                    <octave>3</octave>
                </pitch>
                <duration>3</duration>
                <voice>1</voice>
                <type>quarter</type>
                <dot/>
                <stem>up</stem>
                <lyric number="1">
                    <syllabic>end</syllabic>
                    <text>do,</text>
                </lyric>
                <lyric number="2">
                    <syllabic>end</syllabic>
                    <text>boy,</text>
                </lyric>
                <lyric number="3">
                    <syllabic>end</syllabic>
                    <text>ing,</text>
                </lyric>
                <lyric number="4">
                    <syllabic>end</syllabic>
                    <text>fin,</text>
                </lyric>
                <lyric number="5">
                    <syllabic>end</syllabic>
                    <text>ther,</text>
                </lyric>
                <lyric number="6">
                    <syllabic>end</syllabic>
                    <text>ter,</text>
                </lyric>
            </note>
            <note default-y="-60.00" default-x="225.86">
                <pitch>
                    <step>A</step>
                    <octave>3</octave>
                </pitch>
                <duration>1</duration>
                <voice>1</voice>
                <type>eighth</type>
                <stem>up</stem>
                <lyric number="1">
                    <syllabic>single</syllabic>
                    <text>As</text>
                </lyric>
                <lyric number="2">
                    <syllabic>single</syllabic>
                    <text>These</text>
                </lyric>
                <lyric number="3">
                    <syllabic>single</syllabic>
                    <text>'Twas</text>
                </lyric>
                <lyric number="4">
                    <syllabic>single</syllabic>
                    <text>Get</text>
                </lyric>
                <lyric number="5">
                    <syllabic>single</syllabic>
                    <text>And</text>
                </lyric>
                <lyric number="6">
                    <syllabic>single</syllabic>
                    <text>To</text>
                </lyric>
            </note>
        </measure>
        <measure width="372.81" number="5">
            <print new-system="yes">
                <system-layout>
                    <system-margins>
                        <left-margin>3.00</left-margin>
                        <right-margin>0.00</right-margin>
                    </system-margins>
                    <system-distance>296.14</system-distance>
                </system-layout>
            </print>
            <harmony print-frame="no">
                <root>
                    <root-step>B</root-step>
                </root>
                <kind text="m">minor</kind>
            </harmony>
            <note default-y="-45.00" default-x="36.22">
                <pitch>
                    <step>D</step>
                    <octave>4</octave>
                </pitch>
                <duration>2</duration>
                <tie type="start"/>
                <voice>1</voice>
                <type>quarter</type>
                <stem>up</stem>
                <notations>
                    <tied type="start"/>
                </notations>
                <lyric number="1">
                    <syllabic>single</syllabic>
                    <text>I</text>
                </lyric>
                <lyric number="2">
                    <syllabic>single</syllabic>
                    <text>words</text>
                </lyric>
                <lyric number="3">
                    <syllabic>single</syllabic>
                    <text>once</text>
                </lyric>
                <lyric number="4">
                    <syllabic>single</syllabic>
                    <text>six</text>
                </lyric>
                <lyric number="5">
                    <syllabic>single</syllabic>
                    <text>tell</text>
                </lyric>
                <lyric number="6">
                    <syllabic>single</syllabic>
                    <text>cool</text>
                </lyric>
            </note>
            <note default-y="-45.00" default-x="147.89">
                <pitch>
                    <step>D</step>
                    <octave>4</octave>
                </pitch>
                <duration>2</duration>
                <tie type="stop"/>
                <voice>1</voice>
                <type>quarter</type>
                <stem>up</stem>
                <notations>
                    <tied type="stop"/>
                </notations>
                <lyric number="2">
                    <syllabic>single</syllabic>
                    <text>he</text>
                </lyric>
                <lyric number="3">
                    <syllabic>single</syllabic>
                    <text>in</text>
                </lyric>
                <lyric number="4">
                    <syllabic>begin</syllabic>
                    <text>pret</text>
                </lyric>
                <lyric number="5">
                    <syllabic>single</syllabic>
                    <text>her</text>
                </lyric>
                <lyric number="6">
                    <syllabic>single</syllabic>
                    <text>my</text>
                </lyric>
            </note>
            <note default-y="-45.00" default-x="259.55">
                <pitch>
                    <step>D</step>
                    <octave>4</octave>
                </pitch>
                <duration>2</duration>
                <voice>1</voice>
                <type>quarter</type>
                <stem>up</stem>
                <lyric number="1">
                    <syllabic>single</syllabic>
                    <text>walked</text>
                </lyric>
                <lyric number="2">
                    <syllabic>single</syllabic>
                    <text>did</text>
                </lyric>
                <lyric number="3">
                    <syllabic>single</syllabic>
                    <text>the</text>
                </lyric>
                <lyric number="4">
                    <syllabic>end</syllabic>
                    <text>ty</text>
                </lyric>
                <lyric number="5">
                    <syllabic>single</syllabic>
                    <text>the</text>
                </lyric>
                <lyric number="6">
                    <syllabic>single</syllabic>
                    <text>parched</text>
                </lyric>
            </note>
        </measure>
        <measure width="320.94" number="6">
            <harmony print-frame="no">
                <root>
                    <root-step>A</root-step>
                </root>
                <kind text="">major</kind>
            </harmony>
            <note default-y="-40.00" default-x="31.93">
                <pitch>
                    <step>E</step>
                    <octave>4</octave>
                </pitch>
                <duration>2</duration>
                <voice>1</voice>
                <type>quarter</type>
                <stem>up</stem>
                <lyric number="1">
                    <syllabic>single</syllabic>
                    <text>out</text>
                </lyric>
                <lyric number="2">
                    <syllabic>single</syllabic>
                    <text>say</text>
                </lyric>
                <lyric number="3">
                    <syllabic>begin</syllabic>
                    <text>sad</text>
                </lyric>
                <lyric number="4">
                    <syllabic>begin</syllabic>
                    <text>maid</text>
                </lyric>
                <lyric number="5">
                    <syllabic>begin</syllabic>
                    <text>cow</text>
                </lyric>
                <lyric number="6">
                    <syllabic>single</syllabic>
                    <text>lips,&quot;</text>
                </lyric>
            </note>
            <note default-y="-35.00" default-x="127.73">
                <pitch>
                    <step>F</step>
                    <alter>1</alter>
                    <octave>4</octave>
                </pitch>
                <duration>2</duration>
                <voice>1</voice>
                <type>quarter</type>
                <stem>up</stem>
                <lyric number="1">
                    <syllabic>single</syllabic>
                    <text>in</text>
                </lyric>
                <lyric number="2">
                    <syllabic>single</syllabic>
                    <text>as</text>
                </lyric>
                <lyric number="3">
                    <syllabic>end</syllabic>
                    <text>dle</text>
                </lyric>
                <lyric number="4">
                    <syllabic>end</syllabic>
                    <text>ens</text>
                </lyric>
                <lyric number="5">
                    <syllabic>end</syllabic>
                    <text>boy</text>
                </lyric>
            </note>
            <note default-y="-30.00" default-x="223.54">
                <pitch>
                    <step>G</step>
                    <octave>4</octave>
                </pitch>
                <duration>2</duration>
                <voice>1</voice>
                <type>quarter</type>
                <stem>up</stem>
                <lyric number="1">
                    <syllabic>begin</syllabic>
                    <text>La</text>
                </lyric>
                <lyric number="2">
                    <syllabic>single</syllabic>
                    <text>I</text>
                </lyric>
                <lyric number="3">
                    <syllabic>single</syllabic>
                    <text>I</text>
                </lyric>
                <lyric number="4">
                    <syllabic>single</syllabic>
                    <text>to</text>
                </lyric>
                <lyric number="5">
                    <syllabic>single</syllabic>
                    <text>that</text>
                </lyric>
                <lyric number="6">
                    <syllabic>single</syllabic>
                    <text>the</text>
                </lyric>
            </note>
        </measure>
        <measure width="368.63" number="7">
            <harmony print-frame="no">
                <root>
                    <root-step>D</root-step>
                </root>
                <kind text="">major</kind>
            </harmony>
            <note default-y="-35.00" default-x="29.23">
                <pitch>
                    <step>F</step>
                    <alter>1</alter>
                    <octave>4</octave>
                </pitch>
                <duration>2</duration>
                <voice>1</voice>
                <type>quarter</type>
                <stem>up</stem>
                <lyric number="1">
                    <syllabic>middle</syllabic>
                    <text>re</text>
                </lyric>
                <lyric number="2">
                    <syllabic>begin</syllabic>
                    <text>slow</text>
                </lyric>
                <lyric number="3">
                    <syllabic>single</syllabic>
                    <text>used</text>
                </lyric>
                <lyric number="4">
                    <syllabic>single</syllabic>
                    <text>bear</text>
                </lyric>
                <lyric number="5">
                    <syllabic>single</syllabic>
                    <text>she</text>
                </lyric>
                <lyric number="6">
                    <syllabic>begin</syllabic>
                    <text>cow</text>
                </lyric>
            </note>
            <note default-y="-35.00" default-x="141.83">
                <pitch>
                    <step>F</step>
                    <alter>1</alter>
                    <octave>4</octave>
                </pitch>
                <duration>2</duration>
                <voice>1</voice>
                <type>quarter</type>
                <stem>up</stem>
                <lyric number="1">
                    <syllabic>end</syllabic>
                    <text>do</text>
                </lyric>
                <lyric number="2">
                    <syllabic>end</syllabic>
                    <text>ly</text>
                </lyric>
                <lyric number="3">
                    <syllabic>single</syllabic>
                    <text>to</text>
                </lyric>
                <lyric number="4">
                    <syllabic>single</syllabic>
                    <text>up</text>
                </lyric>
                <lyric number="5">
                    <syllabic>single</syllabic>
                    <text>loved</text>
                </lyric>
                <lyric number="6">
                    <syllabic>end</syllabic>
                    <text>boy</text>
                </lyric>
            </note>
            <note default-y="-45.00" default-x="254.43">
                <pitch>
                    <step>D</step>
                    <octave>4</octave>
                </pitch>
                <duration>2</duration>
                <voice>1</voice>
                <type>quarter</type>
                <stem>up</stem>
                <lyric number="1">
                    <syllabic>single</syllabic>
                    <text>one</text>
                </lyric>
                <lyric number="2">
                    <syllabic>single</syllabic>
                    <text>walked</text>
                </lyric>
                <lyric number="3">
                    <syllabic>single</syllabic>
                    <text>go</text>
                </lyric>
                <lyric number="4">
                    <syllabic>single</syllabic>
                    <text>my</text>
                </lyric>
                <lyric number="5">
                    <syllabic>single</syllabic>
                    <text>is</text>
                </lyric>
                <lyric number="6">
                    <syllabic>single</syllabic>
                    <text>then</text>
                </lyric>
            </note>
        </measure>
        <measure width="309.35" number="8">
            <harmony print-frame="no">
                <root>
                    <root-step>A</root-step>
                </root>
                <kind text="7">dominant</kind>
            </harmony>
            <note default-y="-40.00" default-x="33.08">
                <pitch>
                    <step>E</step>
                    <octave>4</octave>
                </pitch>
                <duration>4</duration>
                <voice>1</voice>
                <type>half</type>
                <stem>up</stem>
                <lyric number="1">
                    <syllabic>single</syllabic>
                    <text>day,</text>
                </lyric>
                <lyric number="2">
                    <syllabic>single</syllabic>
                    <text>by.</text>
                </lyric>
                <lyric number="3">
                    <syllabic>single</syllabic>
                    <text>gay.</text>
                </lyric>
                <lyric number="4">
                    <syllabic>single</syllabic>
                    <text>pall.</text>
                </lyric>
                <lyric number="5">
                    <syllabic>single</syllabic>
                    <text>gone.</text>
                </lyric>
                <lyric number="6">
                    <syllabic>single</syllabic>
                    <text>said.</text>
                </lyric>
            </note>
            <note default-y="-25.00" default-x="202.11">
                <pitch>
                    <step>A</step>
                    <octave>4</octave>
                </pitch>
                <duration>2</duration>
                <voice>1</voice>
                <type>quarter</type>
                <stem>up</stem>
                <lyric number="1">
                    <syllabic>single</syllabic>
                    <text>I</text>
                </lyric>
                <lyric number="2">
                    <syllabic>single</syllabic>
                    <text>&quot;Come</text>
                </lyric>
                <lyric number="4">
                    <syllabic>single</syllabic>
                    <text>Put</text>
                </lyric>
                <lyric number="5">
                    <syllabic>single</syllabic>
                    <text>But</text>
                </lyric>
                <lyric number="6">
                    <syllabic>begin</syllabic>
                    <text>Be</text>
                </lyric>
            </note>
        </measure>
        <measure width="346.45" number="9">
            <print new-system="yes">
                <system-layout>
                    <system-margins>
                        <left-margin>3.00</left-margin>
                        <right-margin>0.00</right-margin>
                    </system-margins>
                    <system-distance>296.14</system-distance>
                </system-layout>
            </print>
            <harmony print-frame="no">
                <root>
                    <root-step>D</root-step>
                </root>
                <kind text="">major</kind>
            </harmony>
            <note default-y="-25.00" default-x="36.91">
                <pitch>
                    <step>A</step>
                    <octave>4</octave>
                </pitch>
                <duration>3</duration>
                <voice>1</voice>
                <type>quarter</type>
                <dot/>
                <stem>up</stem>
                <lyric number="1">
                    <syllabic>single</syllabic>
                    <text>spied</text>
                </lyric>
                <lyric number="2">
                    <syllabic>single</syllabic>
                    <text>sit</text>
                </lyric>
                <lyric number="3">
                    <syllabic>single</syllabic>
                    <text>First</text>
                </lyric>
                <lyric number="4">
                    <syllabic>begin</syllabic>
                    <text>bunch</text>
                </lyric>
                <lyric number="5">
                    <syllabic>single</syllabic>
                    <text>please</text>
                </lyric>
                <lyric number="6">
                    <syllabic>end</syllabic>
                    <text>fore</text>
                </lyric>
            </note>
            <note default-y="-30.00" default-x="168.65">
                <pitch>
                    <step>G</step>
                    <octave>4</octave>
                </pitch>
                <duration>1</duration>
                <voice>1</voice>
                <type>eighth</type>
                <stem>up</stem>
                <lyric number="1">
                    <syllabic>single</syllabic>
                    <text>a</text>
                </lyric>
                <lyric number="2">
                    <syllabic>single</syllabic>
                    <text>down</text>
                </lyric>
                <lyric number="3">
                    <syllabic>single</syllabic>
                    <text>to</text>
                </lyric>
                <lyric number="4">
                    <syllabic>end</syllabic>
                    <text>es</text>
                </lyric>
                <lyric number="5">
                    <syllabic>single</syllabic>
                    <text>not</text>
                </lyric>
                <lyric number="6">
                    <syllabic>single</syllabic>
                    <text>I</text>
                </lyric>
            </note>
            <note default-y="-35.00" default-x="236.81">
                <pitch>
                    <step>F</step>
                    <alter>1</alter>
                    <octave>4</octave>
                </pitch>
                <duration>2</duration>
                <voice>1</voice>
                <type>quarter</type>
                <stem>up</stem>
                <lyric number="1">
                    <syllabic>single</syllabic>
                    <text>young</text>
                </lyric>
                <lyric number="2">
                    <syllabic>begin</syllabic>
                    <text>be</text>
                </lyric>
                <lyric number="3">
                    <syllabic>single</syllabic>
                    <text>the</text>
                </lyric>
                <lyric number="4">
                    <syllabic>single</syllabic>
                    <text>of</text>
                </lyric>
                <lyric number="5">
                    <syllabic>single</syllabic>
                    <text>one</text>
                </lyric>
                <lyric number="6">
                    <syllabic>begin</syllabic>
                    <text>re</text>
                </lyric>
            </note>
        </measure>
        <measure width="336.68" number="10">
            <harmony print-frame="no">
                <root>
                    <root-step>G</root-step>
                </root>
                <kind text="">major</kind>
            </harmony>
            <note default-y="-30.00" default-x="40.76">
                <pitch>
                    <step>G</step>
                    <octave>4</octave>
                </pitch>
                <duration>2</duration>
                <voice>1</voice>
                <type>quarter</type>
                <stem>up</stem>
                <lyric number="1">
                    <syllabic>begin</syllabic>
                    <text>cow</text>
                </lyric>
                <lyric number="2">
                    <syllabic>end</syllabic>
                    <text>side</text>
                </lyric>
                <lyric number="3">
                    <syllabic>begin</syllabic>
                    <text>card</text>
                </lyric>
                <lyric number="4">
                    <syllabic>begin</syllabic>
                    <text>ro</text>
                </lyric>
                <lyric number="5">
                    <syllabic>single</syllabic>
                    <text>word</text>
                </lyric>
                <lyric number="6">
                    <syllabic>end</syllabic>
                    <text>turned,</text>
                </lyric>
            </note>
            <note default-y="-25.00" default-x="138.87">
                <pitch>
                    <step>A</step>
                    <octave>4</octave>
                </pitch>
                <duration>2</duration>
                <voice>1</voice>
                <type>quarter</type>
                <stem>up</stem>
                <lyric number="1">
                    <syllabic>end</syllabic>
                    <text>boy</text>
                </lyric>
                <lyric number="2">
                    <syllabic>single</syllabic>
                    <text>me</text>
                </lyric>
                <lyric number="3">
                    <syllabic>end</syllabic>
                    <text>house,</text>
                </lyric>
                <lyric number="4">
                    <syllabic>end</syllabic>
                    <text>ses</text>
                </lyric>
                <lyric number="5">
                    <syllabic>single</syllabic>
                    <text>of</text>
                </lyric>
            </note>
            <note default-y="-30.00" default-x="236.97">
                <pitch>
                    <step>G</step>
                    <octave>4</octave>
                </pitch>
                <duration>2</duration>
                <voice>1</voice>
                <type>quarter</type>
                <stem>up</stem>
                <lyric number="1">
                    <syllabic>single</syllabic>
                    <text>all</text>
                </lyric>
                <lyric number="2">
                    <syllabic>single</syllabic>
                    <text>and</text>
                </lyric>
                <lyric number="3">
                    <syllabic>single</syllabic>
                    <text>and</text>
                </lyric>
                <lyric number="4">
                    <syllabic>single</syllabic>
                    <text>all</text>
                </lyric>
                <lyric number="5">
                    <syllabic>single</syllabic>
                    <text>the</text>
                </lyric>
                <lyric number="6">
                    <syllabic>single</syllabic>
                    <text>his</text>
                </lyric>
            </note>
        </measure>
        <measure width="363.16" number="11">
            <harmony print-frame="no">
                <root>
                    <root-step>D</root-step>
                </root>
                <kind text="">major</kind>
            </harmony>
            <note default-y="-35.00" default-x="48.79">
                <pitch>
                    <step>F</step>
                    <alter>1</alter>
                    <octave>4</octave>
                </pitch>
                <duration>3</duration>
                <voice>1</voice>
                <type>quarter</type>
                <dot/>
                <stem>up</stem>
                <lyric number="1">
                    <syllabic>single</syllabic>
                    <text>wrapped</text>
                </lyric>
                <lyric number="2">
                    <syllabic>single</syllabic>
                    <text>hear</text>
                </lyric>
                <lyric number="3">
                    <syllabic>single</syllabic>
                    <text>then</text>
                </lyric>
                <lyric number="4">
                    <syllabic>begin</syllabic>
                    <text>o</text>
                </lyric>
                <lyric number="5">
                    <syllabic>single</syllabic>
                    <text>man</text>
                </lyric>
                <lyric number="6">
                    <syllabic>single</syllabic>
                    <text>soul</text>
                </lyric>
            </note>
            <note default-y="-40.00" default-x="182.87">
                <pitch>
                    <step>E</step>
                    <octave>4</octave>
                </pitch>
                <duration>1</duration>
                <voice>1</voice>
                <type>eighth</type>
                <stem>up</stem>
                <lyric number="1">
                    <syllabic>single</syllabic>
                    <text>in</text>
                </lyric>
                <lyric number="2">
                    <syllabic>single</syllabic>
                    <text>my</text>
                </lyric>
                <lyric number="3">
                    <syllabic>single</syllabic>
                    <text>down</text>
                </lyric>
                <lyric number="4">
                    <syllabic>end</syllabic>
                    <text>ver</text>
                </lyric>
                <lyric number="5">
                    <syllabic>single</syllabic>
                    <text>who</text>
                </lyric>
                <lyric number="6">
                    <syllabic>single</syllabic>
                    <text>had</text>
                </lyric>
            </note>
            <note default-y="-45.00" default-x="251.60">
                <pitch>
                    <step>D</step>
                    <octave>4</octave>
                </pitch>
                <duration>2</duration>
                <voice>1</voice>
                <type>quarter</type>
                <stem>up</stem>
                <lyric number="1">
                    <syllabic>single</syllabic>
                    <text>white</text>
                </lyric>
                <lyric number="2">
                    <syllabic>single</syllabic>
                    <text>sad</text>
                </lyric>
                <lyric number="3">
                    <syllabic>single</syllabic>
                    <text>to</text>
                </lyric>
                <lyric number="4">
                    <syllabic>single</syllabic>
                    <text>my</text>
                </lyric>
                <lyric number="5">
                    <syllabic>single</syllabic>
                    <text>had</text>
                </lyric>
                <lyric number="6">
                    <syllabic>begin</syllabic>
                    <text>de</text>
                </lyric>
            </note>
        </measure>
        <measure width="325.45" number="12">
            <harmony print-frame="no">
                <root>
                    <root-step>A</root-step>
                </root>
                <kind text="">major</kind>
            </harmony>
            <note default-y="-50.00" default-x="34.12">
                <pitch>
                    <step>C</step>
                    <alter>1</alter>
                    <octave>4</octave>
                </pitch>
                <duration>2</duration>
                <voice>1</voice>
                <type>quarter</type>
                <stem>up</stem>
                <lyric number="1">
                    <syllabic>begin</syllabic>
                    <text>lin</text>
                </lyric>
                <lyric number="2">
                    <syllabic>begin</syllabic>
                    <text>sto</text>
                </lyric>
                <lyric number="3">
                    <syllabic>begin</syllabic>
                    <text>Ro</text>
                </lyric>
                <lyric number="4">
                    <syllabic>begin</syllabic>
                    <text>cof</text>
                </lyric>
                <lyric number="5">
                    <syllabic>single</syllabic>
                    <text>killed</text>
                </lyric>
                <lyric number="6">
                    <syllabic>middle</syllabic>
                    <text>part</text>
                </lyric>
            </note>
            <note default-y="-60.00" default-x="135.98">
                <pitch>
                    <step>A</step>
                    <octave>3</octave>
                </pitch>
                <duration>3</duration>
                <voice>1</voice>
                <type>quarter</type>
                <dot/>
                <stem>up</stem>
                <lyric number="1">
                    <syllabic>end</syllabic>
                    <text>en,</text>
                </lyric>
                <lyric number="2">
                    <syllabic>end</syllabic>
                    <text>ry,</text>
                </lyric>
                <lyric number="3">
                    <syllabic>end</syllabic>
                    <text>sie's,</text>
                </lyric>
                <lyric number="4">
                    <syllabic>end</syllabic>
                    <text>fin,</text>
                </lyric>
                <lyric number="5">
                    <syllabic>single</syllabic>
                    <text>me,</text>
                </lyric>
                <lyric number="6">
                    <syllabic>end</syllabic>
                    <text>ed,</text>
                </lyric>
            </note>
            <note default-y="-60.00" default-x="260.18">
                <pitch>
                    <step>A</step>
                    <octave>3</octave>
                </pitch>
                <duration>1</duration>
                <voice>1</voice>
                <type>eighth</type>
                <stem>up</stem>
                <lyric number="1">
                    <syllabic>single</syllabic>
                    <text>All</text>
                </lyric>
                <lyric number="2">
                    <syllabic>single</syllabic>
                    <text>I'm</text>
                </lyric>
                <lyric number="3">
                    <syllabic>single</syllabic>
                    <text>Got</text>
                </lyric>
                <lyric number="5">
                    <syllabic>single</syllabic>
                    <text>Don't</text>
                </lyric>
                <lyric number="6">
                    <syllabic>single</syllabic>
                    <text>And</text>
                </lyric>
            </note>
        </measure>
        <measure width="415.11" number="13">
            <print new-system="yes">
                <system-layout>
                    <system-margins>
                        <left-margin>3.00</left-margin>
                        <right-margin>0.00</right-margin>
                    </system-margins>
                    <system-distance>296.14</system-distance>
                </system-layout>
            </print>
            <harmony print-frame="no">
                <root>
                    <root-step>B</root-step>
                </root>
                <kind text="m">minor</kind>
            </harmony>
            <note default-y="-45.00" default-x="48.79">
                <pitch>
                    <step>D</step>
                    <octave>4</octave>
                </pitch>
                <duration>3</duration>
                <voice>1</voice>
                <type>quarter</type>
                <dot/>
                <stem>up</stem>
                <lyric number="1">
                    <syllabic>single</syllabic>
                    <text>wrapped</text>
                </lyric>
                <lyric number="2">
                    <syllabic>single</syllabic>
                    <text>shot</text>
                </lyric>
                <lyric number="3">
                    <syllabic>single</syllabic>
                    <text>shot</text>
                </lyric>
                <lyric number="4">
                    <syllabic>begin</syllabic>
                    <text>Ro</text>
                </lyric>
                <lyric number="5">
                    <syllabic>begin</syllabic>
                    <text>men</text>
                </lyric>
                <lyric number="6">
                    <syllabic>single</syllabic>
                    <text>gone</text>
                </lyric>
            </note>
            <note default-y="-45.00" default-x="205.14">
                <pitch>
                    <step>D</step>
                    <octave>4</octave>
                </pitch>
                <duration>1</duration>
                <voice>1</voice>
                <type>eighth</type>
                <stem>up</stem>
                <lyric number="1">
                    <syllabic>single</syllabic>
                    <text>in</text>
                </lyric>
                <lyric number="2">
                    <syllabic>single</syllabic>
                    <text>in</text>
                </lyric>
                <lyric number="3">
                    <syllabic>single</syllabic>
                    <text>in</text>
                </lyric>
                <lyric number="4">
                    <syllabic>end</syllabic>
                    <text>ses</text>
                </lyric>
                <lyric number="5">
                    <syllabic>end</syllabic>
                    <text>tion</text>
                </lyric>
                <lyric number="6">
                    <syllabic>single</syllabic>
                    <text>to</text>
                </lyric>
            </note>
            <note default-y="-45.00" default-x="285.28">
                <pitch>
                    <step>D</step>
                    <octave>4</octave>
                </pitch>
                <duration>2</duration>
                <voice>1</voice>
                <type>quarter</type>
                <stem>up</stem>
                <lyric number="1">
                    <syllabic>single</syllabic>
                    <text>white</text>
                </lyric>
                <lyric number="2">
                    <syllabic>single</syllabic>
                    <text>the</text>
                </lyric>
                <lyric number="3">
                    <syllabic>single</syllabic>
                    <text>the</text>
                </lyric>
                <lyric number="4">
                    <syllabic>single</syllabic>
                    <text>to</text>
                </lyric>
                <lyric number="5">
                    <syllabic>single</syllabic>
                    <text>his</text>
                </lyric>
                <lyric number="6">
                    <syllabic>single</syllabic>
                    <text>the</text>
                </lyric>
            </note>
        </measure>
        <measure width="371.76" number="14">
            <harmony print-frame="no">
                <root>
                    <root-step>A</root-step>
                </root>
                <kind text="">major</kind>
            </harmony>
            <note default-y="-40.00" default-x="38.66">
                <pitch>
                    <step>E</step>
                    <octave>4</octave>
                </pitch>
                <duration>2</duration>
                <voice>1</voice>
                <type>quarter</type>
                <stem>up</stem>
                <lyric number="1">
                    <syllabic>begin</syllabic>
                    <text>lin</text>
                </lyric>
                <lyric number="2">
                    <syllabic>single</syllabic>
                    <text>chest,</text>
                </lyric>
                <lyric number="3">
                    <syllabic>single</syllabic>
                    <text>breast,</text>
                </lyric>
                <lyric number="4">
                    <syllabic>begin</syllabic>
                    <text>dead</text>
                </lyric>
                <lyric number="5">
                    <syllabic>single</syllabic>
                    <text>name,</text>
                </lyric>
                <lyric number="6">
                    <syllabic>begin</syllabic>
                    <text>round</text>
                </lyric>
            </note>
            <note default-y="-35.00" default-x="149.16">
                <pitch>
                    <step>F</step>
                    <alter>1</alter>
                    <octave>4</octave>
                </pitch>
                <duration>2</duration>
                <voice>1</voice>
                <type>quarter</type>
                <stem>up</stem>
                <lyric number="1">
                    <syllabic>end</syllabic>
                    <text>en</text>
                </lyric>
                <lyric number="2">
                    <syllabic>single</syllabic>
                    <text>and</text>
                </lyric>
                <lyric number="3">
                    <syllabic>single</syllabic>
                    <text>and</text>
                </lyric>
                <lyric number="4">
                    <syllabic>end</syllabic>
                    <text>en</text>
                </lyric>
                <lyric number="5">
                    <syllabic>single</syllabic>
                    <text>and</text>
                </lyric>
                <lyric number="6">
                    <syllabic>end</syllabic>
                    <text>up,</text>
                </lyric>
            </note>
            <note default-y="-30.00" default-x="259.66">
                <pitch>
                    <step>G</step>
                    <octave>4</octave>
                </pitch>
                <duration>2</duration>
                <voice>1</voice>
                <type>quarter</type>
                <stem>up</stem>
                <lyric number="1">
                    <syllabic>single</syllabic>
                    <text>and</text>
                </lyric>
                <lyric number="2">
                    <syllabic>single</syllabic>
                    <text>I</text>
                </lyric>
                <lyric number="3">
                    <syllabic>single</syllabic>
                    <text>I'm</text>
                </lyric>
                <lyric number="4">
                    <syllabic>single</syllabic>
                    <text>the</text>
                </lyric>
                <lyric number="5">
                    <syllabic>single</syllabic>
                    <text>his</text>
                </lyric>
                <lyric number="6">
                    <syllabic>single</syllabic>
                    <text>the</text>
                </lyric>
            </note>
        </measure>
        <measure width="376.66" number="15">
            <harmony print-frame="no">
                <root>
                    <root-step>A</root-step>
                </root>
                <kind text="7">dominant</kind>
            </harmony>
            <note default-y="-35.00" default-x="33.42">
                <pitch>
                    <step>F</step>
                    <alter>1</alter>
                    <octave>4</octave>
                </pitch>
                <duration>2</duration>
                <voice>1</voice>
                <type>quarter</type>
                <stem>up</stem>
                <lyric number="1">
                    <syllabic>single</syllabic>
                    <text>cold</text>
                </lyric>
                <lyric number="2">
                    <syllabic>single</syllabic>
                    <text>know</text>
                </lyric>
                <lyric number="3">
                    <syllabic>begin</syllabic>
                    <text>dy</text>
                </lyric>
                <lyric number="4">
                    <syllabic>single</syllabic>
                    <text>clods</text>
                </lyric>
                <lyric number="5">
                    <syllabic>single</syllabic>
                    <text>name</text>
                </lyric>
                <lyric number="6">
                    <syllabic>begin</syllabic>
                    <text>cow</text>
                </lyric>
            </note>
            <note default-y="-50.00" default-x="147.30">
                <pitch>
                    <step>C</step>
                    <alter>1</alter>
                    <octave>4</octave>
                </pitch>
                <duration>2</duration>
                <voice>1</voice>
                <type>quarter</type>
                <stem>up</stem>
                <lyric number="1">
                    <syllabic>single</syllabic>
                    <text>as</text>
                </lyric>
                <lyric number="2">
                    <syllabic>single</syllabic>
                    <text>I</text>
                </lyric>
                <lyric number="3">
                    <syllabic>end</syllabic>
                    <text>ing</text>
                </lyric>
                <lyric number="4">
                    <syllabic>single</syllabic>
                    <text>as</text>
                </lyric>
                <lyric number="5">
                    <syllabic>single</syllabic>
                    <text>will</text>
                </lyric>
                <lyric number="6">
                    <syllabic>end</syllabic>
                    <text>boy</text>
                </lyric>
            </note>
            <note default-y="-50.00" default-x="261.18">
                <pitch>
                    <step>C</step>
                    <alter>1</alter>
                    <octave>4</octave>
                </pitch>
                <duration>2</duration>
                <voice>1</voice>
                <type>quarter</type>
                <stem>up</stem>
                <lyric number="1">
                    <syllabic>single</syllabic>
                    <text>the</text>
                </lyric>
                <lyric number="2">
                    <syllabic>single</syllabic>
                    <text>must</text>
                </lyric>
                <lyric number="3">
                    <syllabic>begin</syllabic>
                    <text>to</text>
                </lyric>
                <lyric number="4">
                    <syllabic>single</syllabic>
                    <text>they</text>
                </lyric>
                <lyric number="5">
                    <syllabic>single</syllabic>
                    <text>pass</text>
                </lyric>
                <lyric number="6">
                    <syllabic>single</syllabic>
                    <text>was</text>
                </lyric>
            </note>
        </measure>
        <measure width="208.20" number="16">
            <harmony print-frame="no">
                <root>
                    <root-step>D</root-step>
                </root>
                <kind text="">major</kind>
            </harmony>
            <note default-y="-45.00" default-x="32.36">
                <pitch>
                    <step>D</step>
                    <octave>4</octave>
                </pitch>
                <duration>4</duration>
                <voice>1</voice>
                <type>half</type>
                <stem>up</stem>
                <lyric number="1">
                    <syllabic>single</syllabic>
                    <text>clay.</text>
                </lyric>
                <lyric number="2">
                    <syllabic>single</syllabic>
                    <text>die.&quot;</text>
                </lyric>
                <lyric number="3">
                    <syllabic>end</syllabic>
                    <text>day.&quot;</text>
                </lyric>
                <lyric number="4">
                    <syllabic>single</syllabic>
                    <text>fall.&quot;</text>
                </lyric>
                <lyric number="5">
                    <syllabic>single</syllabic>
                    <text>on.&quot;</text>
                </lyric>
                <lyric number="6">
                    <syllabic>single</syllabic>
                    <text>dead.</text>
                </lyric>
            </note>
            <barline location="right">
                <bar-style>light-light</bar-style>
            </barline>
        </measure>
        <measure width="141.19" number="17">
            <print new-system="yes">
                <system-layout>
                    <system-margins>
                        <left-margin>3.00</left-margin>
                        <right-margin>0.00</right-margin>
                    </system-margins>
                    <system-distance>296.14</system-distance>
                </system-layout>
            </print>
            <note default-y="-25.00" default-x="36.44">
                <pitch>
                    <step>A</step>
                    <octave>4</octave>
                </pitch>
                <duration>2</duration>
                <voice>1</voice>
                <type>quarter</type>
                <stem>up</stem>
                <lyric number="1">
                    <syllabic>single</syllabic>
                    <text>&quot;Then</text>
                </lyric>
            </note>
        </measure>
        <measure width="348.00" number="18">
            <harmony print-frame="no">
                <root>
                    <root-step>D</root-step>
                </root>
                <kind text="">major</kind>
            </harmony>
            <note default-y="-45.00" default-x="26.42">
                <pitch>
                    <step>D</step>
                    <octave>4</octave>
                </pitch>
                <duration>3</duration>
                <voice>1</voice>
                <type>quarter</type>
                <dot/>
                <stem>up</stem>
                <lyric number="1">
                    <syllabic>single</syllabic>
                    <text>beat</text>
                </lyric>
            </note>
            <note default-y="-45.00" default-x="163.59">
                <pitch>
                    <step>D</step>
                    <octave>4</octave>
                </pitch>
                <duration>1</duration>
                <voice>1</voice>
                <type>eighth</type>
                <stem>up</stem>
                <lyric number="1">
                    <syllabic>single</syllabic>
                    <text>the</text>
                </lyric>
            </note>
            <note default-y="-45.00" default-x="233.90">
                <pitch>
                    <step>D</step>
                    <octave>4</octave>
                </pitch>
                <duration>2</duration>
                <voice>1</voice>
                <type>quarter</type>
                <stem>up</stem>
                <lyric number="1">
                    <syllabic>single</syllabic>
                    <text>drum</text>
                </lyric>
            </note>
        </measure>
        <measure width="280.56" number="19">
            <note default-y="-35.00" default-x="29.23">
                <pitch>
                    <step>F</step>
                    <alter>1</alter>
                    <octave>4</octave>
                </pitch>
                <duration>2</duration>
                <voice>1</voice>
                <type>quarter</type>
                <stem>up</stem>
                <lyric number="1">
                    <syllabic>begin</syllabic>
                    <text>slow</text>
                </lyric>
            </note>
            <note default-y="-25.00" default-x="125.28">
                <pitch>
                    <step>A</step>
                    <octave>4</octave>
                </pitch>
                <duration>4</duration>
                <voice>1</voice>
                <type>half</type>
                <stem>up</stem>
                <lyric number="1">
                    <syllabic>end</syllabic>
                    <text>ly,</text>
                </lyric>
            </note>
        </measure>
        <measure width="331.23" number="20">
            <harmony print-frame="no">
                <root>
                    <root-step>G</root-step>
                </root>
                <kind text="">major</kind>
            </harmony>
            <note default-y="-30.00" default-x="27.13">
                <pitch>
                    <step>G</step>
                    <octave>4</octave>
                </pitch>
                <duration>3</duration>
                <voice>1</voice>
                <type>quarter</type>
                <dot/>
                <stem>up</stem>
                <lyric number="1">
                    <syllabic>single</syllabic>
                    <text>play</text>
                </lyric>
            </note>
            <note default-y="-30.00" default-x="156.81">
                <pitch>
                    <step>G</step>
                    <octave>4</octave>
                </pitch>
                <duration>1</duration>
                <voice>1</voice>
                <type>eighth</type>
                <stem>up</stem>
                <lyric number="1">
                    <syllabic>single</syllabic>
                    <text>the</text>
                </lyric>
            </note>
            <note default-y="-30.00" default-x="223.28">
                <pitch>
                    <step>G</step>
                    <octave>4</octave>
                </pitch>
                <duration>2</duration>
                <voice>1</voice>
                <type>quarter</type>
                <stem>up</stem>
                <lyric number="1">
                    <syllabic>single</syllabic>
                    <text>fife</text>
                </lyric>
            </note>
        </measure>
        <measure width="270.75" number="21">
            <note default-y="-20.00" default-x="24.33">
                <pitch>
                    <step>B</step>
                    <octave>4</octave>
                </pitch>
                <duration>2</duration>
                <voice>1</voice>
                <type>quarter</type>
                <stem>down</stem>
                <lyric number="1">
                    <syllabic>begin</syllabic>
                    <text>low</text>
                </lyric>
            </note>
            <note default-y="-10.00" default-x="118.49">
                <pitch>
                    <step>D</step>
                    <octave>5</octave>
                </pitch>
                <duration>4</duration>
                <voice>1</voice>
                <type>half</type>
                <stem>down</stem>
                <lyric number="1">
                    <syllabic>end</syllabic>
                    <text>ly,</text>
                </lyric>
            </note>
        </measure>
        <measure width="348.27" number="22">
            <print new-page="yes">
                <system-layout>
                    <system-margins>
                        <left-margin>3.00</left-margin>
                        <right-margin>0.00</right-margin>
                    </system-margins>
                    <top-system-distance>70.00</top-system-distance>
                </system-layout>
            </print>
            <harmony print-frame="no">
                <root>
                    <root-step>D</root-step>
                </root>
                <kind text="">major</kind>
            </harmony>
            <note default-y="-25.00" default-x="27.82">
                <pitch>
                    <step>A</step>
                    <octave>4</octave>
                </pitch>
                <duration>3</duration>
                <voice>1</voice>
                <type>quarter</type>
                <dot/>
                <stem>up</stem>
                <lyric number="1">
                    <syllabic>single</syllabic>
                    <text>Play</text>
                </lyric>
            </note>
            <note default-y="-25.00" default-x="164.51">
                <pitch>
                    <step>A</step>
                    <octave>4</octave>
                </pitch>
                <duration>1</duration>
                <voice>1</voice>
                <type>eighth</type>
                <stem>up</stem>
                <lyric number="1">
                    <syllabic>single</syllabic>
                    <text>the</text>
                </lyric>
            </note>
            <note default-y="-25.00" default-x="234.57">
                <pitch>
                    <step>A</step>
                    <octave>4</octave>
                </pitch>
                <duration>2</duration>
                <voice>1</voice>
                <type>quarter</type>
                <stem>up</stem>
                <lyric number="1">
                    <syllabic>single</syllabic>
                    <text>dead</text>
                </lyric>
            </note>
        </measure>
        <measure width="342.76" number="23">
            <note default-y="-20.00" default-x="36.89">
                <pitch>
                    <step>B</step>
                    <octave>4</octave>
                </pitch>
                <duration>2</duration>
                <voice>1</voice>
                <type>quarter</type>
                <stem>down</stem>
                <lyric number="1">
                    <syllabic>single</syllabic>
                    <text>march</text>
                </lyric>
            </note>
            <note default-y="-25.00" default-x="138.31">
                <pitch>
                    <step>A</step>
                    <octave>4</octave>
                </pitch>
                <duration>2</duration>
                <voice>1</voice>
                <type>quarter</type>
                <stem>up</stem>
                <lyric number="1">
                    <syllabic>single</syllabic>
                    <text>as</text>
                </lyric>
            </note>
            <note default-y="-35.00" default-x="239.73">
                <pitch>
                    <step>F</step>
                    <alter>1</alter>
                    <octave>4</octave>
                </pitch>
                <duration>2</duration>
                <voice>1</voice>
                <type>quarter</type>
                <stem>up</stem>
                <lyric number="1">
                    <syllabic>single</syllabic>
                    <text>you</text>
                </lyric>
            </note>
        </measure>
        <measure width="329.17" number="24">
            <note default-y="-45.00" default-x="20.82">
                <pitch>
                    <step>D</step>
                    <octave>4</octave>
                </pitch>
                <duration>1</duration>
                <voice>1</voice>
                <type>eighth</type>
                <stem>up</stem>
                <beam number="1">begin</beam>
                <lyric number="1">
                    <syllabic>begin</syllabic>
                    <text>car</text>
                </lyric>
            </note>
            <note default-y="-45.00" default-x="79.81">
                <pitch>
                    <step>D</step>
                    <octave>4</octave>
                </pitch>
                <duration>1</duration>
                <voice>1</voice>
                <type>eighth</type>
                <stem>up</stem>
                <beam number="1">end</beam>
                <lyric number="1">
                    <syllabic>end</syllabic>
                    <text>ry</text>
                </lyric>
            </note>
            <note default-y="-40.00" default-x="138.80">
                <pitch>
                    <step>E</step>
                    <octave>4</octave>
                </pitch>
                <duration>2</duration>
                <voice>1</voice>
                <type>quarter</type>
                <stem>up</stem>
                <lyric number="1">
                    <syllabic>single</syllabic>
                    <text>me</text>
                </lyric>
            </note>
            <note default-y="-35.00" default-x="233.18">
                <pitch>
                    <step>F</step>
                    <alter>1</alter>
                    <octave>4</octave>
                </pitch>
                <duration>2</duration>
                <voice>1</voice>
                <type>quarter</type>
                <stem>up</stem>
                <lyric number="1">
                    <syllabic>begin</syllabic>
                    <text>a</text>
                </lyric>
            </note>
        </measure>
        <measure width="351.54" number="25">
            <harmony print-frame="no">
                <root>
                    <root-step>A</root-step>
                </root>
                <kind text="7">dominant</kind>
            </harmony>
            <note default-y="-40.00" default-x="31.33">
                <pitch>
                    <step>E</step>
                    <octave>4</octave>
                </pitch>
                <duration>4</duration>
                <voice>1</voice>
                <type>half</type>
                <stem>up</stem>
                <lyric number="1">
                    <syllabic>end</syllabic>
                    <text>long;</text>
                </lyric>
            </note>
            <note default-y="-25.00" default-x="198.22">
                <pitch>
                    <step>A</step>
                    <octave>4</octave>
                </pitch>
                <duration>1</duration>
                <voice>1</voice>
                <type>eighth</type>
                <stem>up</stem>
                <beam number="1">begin</beam>
                <lyric number="1">
                    <syllabic>single</syllabic>
                    <text>Take</text>
                </lyric>
            </note>
            <note default-y="-25.00" default-x="274.08">
                <pitch>
                    <step>A</step>
                    <octave>4</octave>
                </pitch>
                <duration>1</duration>
                <voice>1</voice>
                <type>eighth</type>
                <stem>up</stem>
                <beam number="1">end</beam>
                <lyric number="1">
                    <syllabic>single</syllabic>
                    <text>me</text>
                </lyric>
            </note>
        </measure>
        <measure width="376.70" number="26">
            <print new-system="yes">
                <system-layout>
                    <system-margins>
                        <left-margin>3.00</left-margin>
                        <right-margin>0.00</right-margin>
                    </system-margins>
                    <system-distance>107.85</system-distance>
                </system-layout>
            </print>
            <harmony print-frame="no">
                <root>
                    <root-step>D</root-step>
                </root>
                <kind text="">major</kind>
            </harmony>
            <note default-y="-45.00" default-x="15.25">
                <pitch>
                    <step>D</step>
                    <octave>4</octave>
                </pitch>
                <duration>3</duration>
                <voice>1</voice>
                <type>quarter</type>
                <dot/>
                <stem>up</stem>
                <lyric number="1">
                    <syllabic>single</syllabic>
                    <text>to</text>
                </lyric>
            </note>
            <note default-y="-45.00" default-x="169.52">
                <pitch>
                    <step>D</step>
                    <octave>4</octave>
                </pitch>
                <duration>1</duration>
                <voice>1</voice>
                <type>eighth</type>
                <stem>up</stem>
                <lyric number="1">
                    <syllabic>single</syllabic>
                    <text>the</text>
                </lyric>
            </note>
            <note default-y="-45.00" default-x="248.59">
                <pitch>
                    <step>D</step>
                    <octave>4</octave>
                </pitch>
                <duration>2</duration>
                <voice>1</voice>
                <type>quarter</type>
                <stem>up</stem>
                <lyric number="1">
                    <syllabic>single</syllabic>
                    <text>green</text>
                </lyric>
            </note>
        </measure>
        <measure width="313.18" number="27">
            <note default-y="-35.00" default-x="20.83">
                <pitch>
                    <step>F</step>
                    <alter>1</alter>
                    <octave>4</octave>
                </pitch>
                <duration>2</duration>
                <voice>1</voice>
                <type>quarter</type>
                <stem>up</stem>
                <lyric number="1">
                    <syllabic>begin</syllabic>
                    <text>val</text>
                </lyric>
            </note>
            <note default-y="-25.00" default-x="132.66">
                <pitch>
                    <step>A</step>
                    <octave>4</octave>
                </pitch>
                <duration>4</duration>
                <voice>1</voice>
                <type>half</type>
                <stem>up</stem>
                <lyric number="1">
                    <syllabic>end</syllabic>
                    <text>ley,</text>
                </lyric>
            </note>
        </measure>
        <measure width="361.37" number="28">
            <harmony print-frame="no">
                <root>
                    <root-step>G</root-step>
                </root>
                <kind text="">major</kind>
            </harmony>
            <note default-y="-30.00" default-x="20.83">
                <pitch>
                    <step>G</step>
                    <octave>4</octave>
                </pitch>
                <duration>3</duration>
                <voice>1</voice>
                <type>quarter</type>
                <dot/>
                <stem>up</stem>
                <lyric number="1">
                    <syllabic>single</syllabic>
                    <text>lay</text>
                </lyric>
            </note>
            <note default-y="-30.00" default-x="166.13">
                <pitch>
                    <step>G</step>
                    <octave>4</octave>
                </pitch>
                <duration>1</duration>
                <voice>1</voice>
                <type>eighth</type>
                <stem>up</stem>
                <lyric number="1">
                    <syllabic>single</syllabic>
                    <text>the</text>
                </lyric>
            </note>
            <note default-y="-30.00" default-x="240.61">
                <pitch>
                    <step>G</step>
                    <octave>4</octave>
                </pitch>
                <duration>2</duration>
                <voice>1</voice>
                <type>quarter</type>
                <stem>up</stem>
                <lyric number="1">
                    <syllabic>single</syllabic>
                    <text>sod</text>
                </lyric>
            </note>
        </measure>
        <measure width="320.49" number="29">
            <note default-y="-20.00" default-x="23.79">
                <pitch>
                    <step>B</step>
                    <octave>4</octave>
                </pitch>
                <duration>2</duration>
                <voice>1</voice>
                <type>quarter</type>
                <stem>down</stem>
                <lyric number="1">
                    <syllabic>single</syllabic>
                    <text>o'er</text>
                </lyric>
            </note>
            <note default-y="-10.00" default-x="137.29">
                <pitch>
                    <step>D</step>
                    <octave>5</octave>
                </pitch>
                <duration>4</duration>
                <voice>1</voice>
                <type>half</type>
                <stem>down</stem>
                <lyric number="1">
                    <syllabic>single</syllabic>
                    <text>me,</text>
                </lyric>
            </note>
        </measure>
        <measure width="368.64" number="30">
            <print new-system="yes">
                <system-layout>
                    <system-margins>
                        <left-margin>3.00</left-margin>
                        <right-margin>0.00</right-margin>
                    </system-margins>
                    <system-distance>107.85</system-distance>
                </system-layout>
            </print>
            <harmony print-frame="no">
                <root>
                    <root-step>D</root-step>
                </root>
                <kind text="">major</kind>
            </harmony>
            <note default-y="-25.00" default-x="21.69">
                <pitch>
                    <step>A</step>
                    <octave>4</octave>
                </pitch>
                <duration>3</duration>
                <voice>1</voice>
                <type>quarter</type>
                <dot/>
                <stem>up</stem>
                <lyric number="1">
                    <syllabic>single</syllabic>
                    <text>I'm</text>
                </lyric>
            </note>
            <note default-y="-25.00" default-x="169.74">
                <pitch>
                    <step>A</step>
                    <octave>4</octave>
                </pitch>
                <duration>1</duration>
                <voice>1</voice>
                <type>eighth</type>
                <stem>up</stem>
                <lyric number="1">
                    <syllabic>single</syllabic>
                    <text>a</text>
                </lyric>
            </note>
            <note default-y="-25.00" default-x="245.62">
                <pitch>
                    <step>A</step>
                    <octave>4</octave>
                </pitch>
                <duration>2</duration>
                <voice>1</voice>
                <type>quarter</type>
                <stem>up</stem>
                <lyric number="1">
                    <syllabic>single</syllabic>
                    <text>young</text>
                </lyric>
            </note>
        </measure>
        <measure width="384.00" number="31">
            <note default-y="-20.00" default-x="26.42">
                <pitch>
                    <step>B</step>
                    <octave>4</octave>
                </pitch>
                <duration>2</duration>
                <voice>1</voice>
                <type>quarter</type>
                <stem>down</stem>
                <lyric number="1">
                    <syllabic>begin</syllabic>
                    <text>cow</text>
                </lyric>
            </note>
            <note default-y="-25.00" default-x="135.95">
                <pitch>
                    <step>A</step>
                    <octave>4</octave>
                </pitch>
                <duration>2</duration>
                <voice>1</voice>
                <type>quarter</type>
                <stem>up</stem>
                <lyric number="1">
                    <syllabic>end</syllabic>
                    <text>boy</text>
                </lyric>
            </note>
            <note default-y="-35.00" default-x="245.49">
                <pitch>
                    <step>F</step>
                    <alter>1</alter>
                    <octave>4</octave>
                </pitch>
                <duration>1</duration>
                <voice>1</voice>
                <type>eighth</type>
                <stem>up</stem>
                <beam number="1">begin</beam>
                <lyric number="1">
                    <syllabic>single</syllabic>
                    <text>and</text>
                </lyric>
            </note>
            <note default-y="-35.00" default-x="313.95">
                <pitch>
                    <step>F</step>
                    <alter>1</alter>
                    <octave>4</octave>
                </pitch>
                <duration>1</duration>
                <voice>1</voice>
                <type>eighth</type>
                <stem>up</stem>
                <beam number="1">end</beam>
                <lyric number="1">
                    <syllabic>single</syllabic>
                    <text>I</text>
                </lyric>
            </note>
        </measure>
        <measure width="385.29" number="32">
            <harmony print-frame="no">
                <root>
                    <root-step>A</root-step>
                </root>
                <kind text="7">dominant</kind>
            </harmony>
            <note default-y="-40.00" default-x="33.42">
                <pitch>
                    <step>E</step>
                    <octave>4</octave>
                </pitch>
                <duration>2</duration>
                <voice>1</voice>
                <type>quarter</type>
                <stem>up</stem>
                <lyric number="1">
                    <syllabic>single</syllabic>
                    <text>know</text>
                </lyric>
            </note>
            <note default-y="-35.00" default-x="150.18">
                <pitch>
                    <step>F</step>
                    <alter>1</alter>
                    <octave>4</octave>
                </pitch>
                <duration>2</duration>
                <voice>1</voice>
                <type>quarter</type>
                <stem>up</stem>
                <lyric number="1">
                    <syllabic>single</syllabic>
                    <text>I've</text>
                </lyric>
            </note>
            <note default-y="-40.00" default-x="266.94">
                <pitch>
                    <step>E</step>
                    <octave>4</octave>
                </pitch>
                <duration>2</duration>
                <voice>1</voice>
                <type>quarter</type>
                <stem>up</stem>
                <lyric number="1">
                    <syllabic>single</syllabic>
                    <text>done</text>
                </lyric>
            </note>
        </measure>
        <measure width="233.80" number="33">
            <harmony print-frame="no">
                <root>
                    <root-step>D</root-step>
                </root>
                <kind text="">major</kind>
            </harmony>
            <note default-y="-45.00" default-x="40.76">
                <pitch>
                    <step>D</step>
                    <octave>4</octave>
                </pitch>
                <duration>4</duration>
                <voice>1</voice>
                <type>half</type>
                <stem>up</stem>
                <lyric number="1">
                    <syllabic>single</syllabic>
                    <text>wrong.</text>
                </lyric>
            </note>
            <barline location="right">
                <bar-style>light-heavy</bar-style>
            </barline>
        </measure>
    </part>
</score-partwise>
