<?xml version="1.0" encoding="UTF-8"?>
<!DOCTYPE score-partwise PUBLIC "-//Recordare//DTD MusicXML 2.0 Partwise//EN" "http://www.musicxml.org/dtds/partwise.dtd">
<score-partwise version="2.0">
    <work>
        <work-number></work-number>
        <work-title></work-title>
    </work>
    <movement-number></movement-number>
    <movement-title>On Top of Old Smoky</movement-title>
    <identification>
        <creator type="composer">tradtional American folk song</creator>
        <creator type="poet"></creator>
        <rights>All Rights Reserved</rights>
        <encoding>
            <software>MuseScore 1.2</software>
            <encoding-date>2012-09-16</encoding-date>
            <software>ProxyMusic 2.0 c</software>
        </encoding>
        <source>http://wikifonia.org/node/17821/revisions/23628/view</source>
    </identification>
    <defaults>
        <scaling>
            <millimeters>7.05556</millimeters>
            <tenths>40</tenths>
        </scaling>
        <page-layout>
            <page-height>1683.78</page-height>
            <page-width>1190.55</page-width>
            <page-margins type="even">
                <left-margin>56.6929</left-margin>
                <right-margin>56.6929</right-margin>
                <top-margin>56.6929</top-margin>
                <bottom-margin>113.386</bottom-margin>
            </page-margins>
            <page-margins type="odd">
                <left-margin>56.6929</left-margin>
                <right-margin>56.6929</right-margin>
                <top-margin>56.6929</top-margin>
                <bottom-margin>113.386</bottom-margin>
            </page-margins>
        </page-layout>
    </defaults>
    <credit page="1">
        <credit-words font-size="24" default-y="1627.09" default-x="595.275" justify="center" valign="top">On Top of Old Smoky</credit-words>
    </credit>
    <credit page="1">
        <credit-words font-size="12" default-y="1543.09" default-x="1133.86" justify="right" valign="top"> traditional</credit-words>
    </credit>
    <credit page="1">
        <credit-words font-size="12" default-y="1543.09" default-x="56.6929" justify="left" valign="top">arranged by Pete Seeger</credit-words>
    </credit>
    <credit page="1">
        <credit-words font-size="8" default-y="113.386" default-x="595.275" justify="center" valign="bottom">Dorsey Brothers Music Ltd. (1945)</credit-words>
    </credit>
    <part-list>
        <score-part id="P1">
            <part-name>Voice</part-name>
            <part-abbreviation>Vo.</part-abbreviation>
            <score-instrument id="P1-I3">
                <instrument-name>Voice</instrument-name>
            </score-instrument>
            <midi-instrument id="P1-I3">
                <midi-channel>1</midi-channel>
                <midi-program>53</midi-program>
                <volume>78.7402</volume>
                <pan>0</pan>
            </midi-instrument>
        </score-part>
    </part-list>
    <part id="P1">
        <measure width="247.91" number="0" implicit="yes">
            <print>
                <system-layout>
                    <system-margins>
                        <left-margin>69.16</left-margin>
                        <right-margin>0.00</right-margin>
                    </system-margins>
                    <top-system-distance>194.00</top-system-distance>
                </system-layout>
            </print>
            <barline location="left">
                <bar-style>heavy-light</bar-style>
                <repeat direction="forward"/>
            </barline>
            <attributes>
                <divisions>2</divisions>
                <key>
                    <fifths>0</fifths>
                    <mode>major</mode>
                </key>
                <time>
                    <beats>3</beats>
                    <beat-type>4</beat-type>
                </time>
                <clef>
                    <sign>G</sign>
                    <line>2</line>
                </clef>
            </attributes>
            <note default-y="-50.00" default-x="115.65">
                <pitch>
                    <step>C</step>
                    <octave>4</octave>
                </pitch>
                <duration>1</duration>
                <voice>1</voice>
                <type>eighth</type>
                <stem>up</stem>
                <beam number="1">begin</beam>
                <notations>
                    <slur type="start" number="1"/>
                </notations>
                <lyric number="1">
                    <syllabic>single</syllabic>
                    <text>1. On</text>
                </lyric>
                <lyric number="2">
                    <syllabic>begin</syllabic>
                    <text>2. A</text>
                </lyric>
                <lyric number="3">
                    <syllabic>single</syllabic>
                    <text>3. For</text>
                </lyric>
                <lyric number="4">
                    <syllabic>single</syllabic>
                    <text>4. And</text>
                </lyric>
                <lyric number="5">
                    <syllabic>single</syllabic>
                    <text>5. They</text>
                </lyric>
                <lyric number="6">
                    <syllabic>single</syllabic>
                    <text>6. So</text>
                </lyric>
                <lyric number="7">
                    <syllabic>single</syllabic>
                    <text>7. For </text>
                </lyric>
            </note>
            <note default-y="-50.00" default-x="180.98">
                <pitch>
                    <step>C</step>
                    <octave>4</octave>
                </pitch>
                <duration>1</duration>
                <voice>1</voice>
                <type>eighth</type>
                <stem>up</stem>
                <beam number="1">end</beam>
                <notations>
                    <slur type="stop" number="1"/>
                </notations>
                <lyric number="3">
                    <syllabic>single</syllabic>
                    <text>a</text>
                </lyric>
                <lyric number="4">
                    <syllabic>single</syllabic>
                    <text>the</text>
                </lyric>
                <lyric number="5">
                    <syllabic>single</syllabic>
                    <text>will</text>
                </lyric>
                <lyric number="6">
                    <syllabic>single</syllabic>
                    <text>come</text>
                </lyric>
                <lyric number="7">
                    <syllabic>single</syllabic>
                    <text>the</text>
                </lyric>
            </note>
        </measure>
        <measure width="272.41" number="1">
            <harmony print-frame="no">
                <root>
                    <root-step>C</root-step>
                </root>
                <kind text="">major</kind>
            </harmony>
            <note default-y="-50.00" default-x="32.83">
                <pitch>
                    <step>C</step>
                    <octave>4</octave>
                </pitch>
                <duration>2</duration>
                <voice>1</voice>
                <type>quarter</type>
                <stem>up</stem>
                <lyric number="1">
                    <syllabic>single</syllabic>
                    <text>top</text>
                </lyric>
                <lyric number="2">
                    <syllabic>middle</syllabic>
                    <text>cour</text>
                </lyric>
                <lyric number="3">
                    <syllabic>single</syllabic>
                    <text>thief</text>
                </lyric>
                <lyric number="4">
                    <syllabic>single</syllabic>
                    <text>grave</text>
                </lyric>
                <lyric number="5">
                    <syllabic>single</syllabic>
                    <text>hug</text>
                </lyric>
                <lyric number="6">
                    <syllabic>single</syllabic>
                    <text>all</text>
                </lyric>
                <lyric number="7">
                    <syllabic>single</syllabic>
                    <text>leaves</text>
                </lyric>
            </note>
            <note default-y="-40.00" default-x="112.16">
                <pitch>
                    <step>E</step>
                    <octave>4</octave>
                </pitch>
                <duration>2</duration>
                <voice>1</voice>
                <type>quarter</type>
                <stem>up</stem>
                <lyric number="1">
                    <syllabic>single</syllabic>
                    <text>of</text>
                </lyric>
                <lyric number="2">
                    <syllabic>end</syllabic>
                    <text>tin's</text>
                </lyric>
                <lyric number="3">
                    <syllabic>single</syllabic>
                    <text>he</text>
                </lyric>
                <lyric number="4">
                    <syllabic>single</syllabic>
                    <text>will</text>
                </lyric>
                <lyric number="5">
                    <syllabic>single</syllabic>
                    <text>you</text>
                </lyric>
                <lyric number="6">
                    <syllabic>single</syllabic>
                    <text>you</text>
                </lyric>
                <lyric number="7">
                    <syllabic>single</syllabic>
                    <text>they</text>
                </lyric>
            </note>
            <note default-y="-30.00" default-x="191.48">
                <pitch>
                    <step>G</step>
                    <octave>4</octave>
                </pitch>
                <duration>2</duration>
                <voice>1</voice>
                <type>quarter</type>
                <stem>up</stem>
                <lyric number="1">
                    <syllabic>single</syllabic>
                    <text>old</text>
                </lyric>
                <lyric number="2">
                    <syllabic>single</syllabic>
                    <text>a</text>
                </lyric>
                <lyric number="3">
                    <syllabic>single</syllabic>
                    <text>will</text>
                </lyric>
                <lyric number="4">
                    <syllabic>begin</syllabic>
                    <text>de</text>
                </lyric>
                <lyric number="5">
                    <syllabic>single</syllabic>
                    <text>and</text>
                </lyric>
                <lyric number="6">
                    <syllabic>single</syllabic>
                    <text>young</text>
                </lyric>
                <lyric number="7">
                    <syllabic>single</syllabic>
                    <text>will</text>
                </lyric>
            </note>
        </measure>
        <measure width="153.72" number="2">
            <harmony print-frame="no">
                <root>
                    <root-step>F</root-step>
                </root>
                <kind text="">major</kind>
            </harmony>
            <note default-y="-15.00" default-x="27.19">
                <pitch>
                    <step>C</step>
                    <octave>5</octave>
                </pitch>
                <duration>6</duration>
                <voice>1</voice>
                <type>half</type>
                <dot/>
                <stem>down</stem>
                <lyric number="1">
                    <syllabic>begin</syllabic>
                    <text>Smo</text>
                </lyric>
                <lyric number="2">
                    <syllabic>begin</syllabic>
                    <text>plea</text>
                </lyric>
                <lyric number="3">
                    <syllabic>single</syllabic>
                    <text>rob</text>
                </lyric>
                <lyric number="4">
                    <syllabic>end</syllabic>
                    <text>cay</text>
                </lyric>
                <lyric number="5">
                    <syllabic>single</syllabic>
                    <text>kiss</text>
                </lyric>
                <lyric number="6">
                    <syllabic>begin</syllabic>
                    <text>maid</text>
                </lyric>
                <lyric number="7">
                    <syllabic>begin</syllabic>
                    <text>with</text>
                </lyric>
            </note>
        </measure>
        <measure width="160.23" number="3">
            <note default-y="-25.00" default-x="12.00">
                <pitch>
                    <step>A</step>
                    <octave>4</octave>
                </pitch>
                <duration>6</duration>
                <voice>1</voice>
                <type>half</type>
                <dot/>
                <stem>up</stem>
                <notations>
                    <slur type="start" number="1"/>
                </notations>
                <lyric number="1">
                    <syllabic>end</syllabic>
                    <text>ky,</text>
                    <extend/>
                </lyric>
                <lyric number="2">
                    <syllabic>end</syllabic>
                    <text>sure,</text>
                    <extend/>
                </lyric>
                <lyric number="3">
                    <syllabic>single</syllabic>
                    <text>you,</text>
                    <extend/>
                </lyric>
                <lyric number="4">
                    <syllabic>single</syllabic>
                    <text>you,</text>
                    <extend/>
                </lyric>
                <lyric number="5">
                    <syllabic>single</syllabic>
                    <text>you,</text>
                    <extend/>
                </lyric>
                <lyric number="6">
                    <syllabic>end</syllabic>
                    <text>ens,</text>
                    <extend/>
                </lyric>
                <lyric number="7">
                    <syllabic>end</syllabic>
                    <text>er,</text>
                    <extend/>
                </lyric>
            </note>
        </measure>
        <measure width="173.74" number="4">
            <note default-y="-25.00" default-x="12.00">
                <pitch>
                    <step>A</step>
                    <octave>4</octave>
                </pitch>
                <duration>4</duration>
                <voice>1</voice>
                <type>half</type>
                <stem>up</stem>
                <notations>
                    <slur type="stop" number="1"/>
                </notations>
            </note>
            <note default-y="-25.00" default-x="110.55">
                <pitch>
                    <step>A</step>
                    <octave>4</octave>
                </pitch>
                <duration>2</duration>
                <voice>1</voice>
                <type>quarter</type>
                <stem>up</stem>
                <lyric number="1">
                    <syllabic>single</syllabic>
                    <text>All</text>
                </lyric>
                <lyric number="2">
                    <syllabic>begin</syllabic>
                    <text>A</text>
                </lyric>
                <lyric number="3">
                    <syllabic>single</syllabic>
                    <text>And</text>
                </lyric>
                <lyric number="4">
                    <syllabic>single</syllabic>
                    <text>And</text>
                </lyric>
                <lyric number="5">
                    <syllabic>single</syllabic>
                    <text>And</text>
                </lyric>
                <lyric number="6">
                    <syllabic>single</syllabic>
                    <text>And</text>
                </lyric>
                <lyric number="7">
                    <syllabic>single</syllabic>
                    <text>The</text>
                </lyric>
            </note>
        </measure>
        <measure width="252.60" number="5">
            <print new-system="yes">
                <system-layout>
                    <system-margins>
                        <left-margin>46.81</left-margin>
                        <right-margin>-0.00</right-margin>
                    </system-margins>
                    <system-distance>261.00</system-distance>
                </system-layout>
            </print>
            <note default-y="-35.00" default-x="76.74">
                <pitch>
                    <step>F</step>
                    <octave>4</octave>
                </pitch>
                <duration>2</duration>
                <voice>1</voice>
                <type>quarter</type>
                <stem>up</stem>
                <lyric number="1">
                    <syllabic>begin</syllabic>
                    <text>cov</text>
                </lyric>
                <lyric number="2">
                    <syllabic>middle</syllabic>
                    <text>flirt</text>
                </lyric>
                <lyric number="3">
                    <syllabic>single</syllabic>
                    <text>take</text>
                </lyric>
                <lyric number="4">
                    <syllabic>single</syllabic>
                    <text>turn</text>
                </lyric>
                <lyric number="5">
                    <syllabic>single</syllabic>
                    <text>tell</text>
                </lyric>
                <lyric number="6">
                    <syllabic>begin</syllabic>
                    <text>list</text>
                </lyric>
                <lyric number="7">
                    <syllabic>single</syllabic>
                    <text>roots</text>
                </lyric>
            </note>
            <note default-y="-30.00" default-x="134.83">
                <pitch>
                    <step>G</step>
                    <octave>4</octave>
                </pitch>
                <duration>2</duration>
                <voice>1</voice>
                <type>quarter</type>
                <stem>up</stem>
                <lyric number="1">
                    <syllabic>end</syllabic>
                    <text>ered</text>
                </lyric>
                <lyric number="2">
                    <syllabic>end</syllabic>
                    <text>in's</text>
                </lyric>
                <lyric number="3">
                    <syllabic>single</syllabic>
                    <text>what</text>
                </lyric>
                <lyric number="4">
                    <syllabic>single</syllabic>
                    <text>you</text>
                </lyric>
                <lyric number="5">
                    <syllabic>single</syllabic>
                    <text>you</text>
                </lyric>
                <lyric number="6">
                    <syllabic>end</syllabic>
                    <text>en</text>
                </lyric>
                <lyric number="7">
                    <syllabic>single</syllabic>
                    <text>they</text>
                </lyric>
            </note>
            <note default-y="-25.00" default-x="192.92">
                <pitch>
                    <step>A</step>
                    <octave>4</octave>
                </pitch>
                <duration>2</duration>
                <voice>1</voice>
                <type>quarter</type>
                <stem>up</stem>
                <lyric number="1">
                    <syllabic>single</syllabic>
                    <text>with</text>
                </lyric>
                <lyric number="2">
                    <syllabic>single</syllabic>
                    <text>a</text>
                </lyric>
                <lyric number="3">
                    <syllabic>single</syllabic>
                    <text>you</text>
                </lyric>
                <lyric number="4">
                    <syllabic>single</syllabic>
                    <text>to</text>
                </lyric>
                <lyric number="5">
                    <syllabic>single</syllabic>
                    <text>more</text>
                </lyric>
                <lyric number="6">
                    <syllabic>single</syllabic>
                    <text>to</text>
                </lyric>
                <lyric number="7">
                    <syllabic>single</syllabic>
                    <text>will</text>
                </lyric>
            </note>
        </measure>
        <measure width="115.86" number="6">
            <harmony print-frame="no">
                <root>
                    <root-step>C</root-step>
                </root>
                <kind text="">major</kind>
            </harmony>
            <note default-y="-30.00" default-x="12.00">
                <pitch>
                    <step>G</step>
                    <octave>4</octave>
                </pitch>
                <duration>6</duration>
                <voice>1</voice>
                <type>half</type>
                <dot/>
                <stem>up</stem>
                <notations>
                    <slur type="start" number="1"/>
                </notations>
                <lyric number="1">
                    <syllabic>single</syllabic>
                    <text>snow,</text>
                    <extend/>
                </lyric>
                <lyric number="2">
                    <syllabic>single</syllabic>
                    <text>grief,</text>
                    <extend/>
                </lyric>
                <lyric number="3">
                    <syllabic>single</syllabic>
                    <text>have,</text>
                    <extend/>
                </lyric>
                <lyric number="4">
                    <syllabic>single</syllabic>
                    <text>dust;</text>
                    <extend/>
                </lyric>
                <lyric number="5">
                    <syllabic>single</syllabic>
                    <text>lies</text>
                    <extend/>
                </lyric>
                <lyric number="6">
                    <syllabic>single</syllabic>
                    <text>me,</text>
                    <extend/>
                </lyric>
                <lyric number="7">
                    <syllabic>single</syllabic>
                    <text>die,</text>
                    <extend/>
                </lyric>
            </note>
        </measure>
        <measure width="84.35" number="7">
            <harmony print-frame="no">
                <root>
                    <root-step>G</root-step>
                </root>
                <kind text="7">dominant</kind>
            </harmony>
            <note default-y="-30.00" default-x="12.00">
                <pitch>
                    <step>G</step>
                    <octave>4</octave>
                </pitch>
                <duration>6</duration>
                <voice>1</voice>
                <type>half</type>
                <dot/>
                <stem>up</stem>
                <notations>
                    <slur type="stop" number="1"/>
                    <slur type="start" number="1"/>
                </notations>
            </note>
        </measure>
        <measure width="182.16" number="8">
            <harmony print-frame="no">
                <root>
                    <root-step>C</root-step>
                </root>
                <kind text="">major</kind>
            </harmony>
            <note default-y="-30.00" default-x="12.00">
                <pitch>
                    <step>G</step>
                    <octave>4</octave>
                </pitch>
                <duration>2</duration>
                <voice>1</voice>
                <type>quarter</type>
                <stem>up</stem>
                <notations>
                    <slur type="stop" number="1"/>
                </notations>
            </note>
            <note>
                <rest/>
                <duration>2</duration>
                <voice>1</voice>
                <type>quarter</type>
            </note>
            <note default-y="-50.00" default-x="104.79">
                <pitch>
                    <step>C</step>
                    <octave>4</octave>
                </pitch>
                <duration>1</duration>
                <voice>1</voice>
                <type>eighth</type>
                <stem>up</stem>
                <beam number="1">begin</beam>
                <lyric number="1">
                    <syllabic>single</syllabic>
                    <text>I</text>
                </lyric>
                <lyric number="2">
                    <syllabic>single</syllabic>
                    <text>And</text>
                </lyric>
                <lyric number="3">
                    <syllabic>single</syllabic>
                    <text>But</text>
                </lyric>
                <lyric number="4">
                    <syllabic>single</syllabic>
                    <text>Not</text>
                </lyric>
                <lyric number="5">
                    <syllabic>single</syllabic>
                    <text>Than</text>
                </lyric>
                <lyric number="6">
                    <syllabic>begin</syllabic>
                    <text>Ne</text>
                </lyric>
                <lyric number="7">
                    <syllabic>single</syllabic>
                    <text>You</text>
                </lyric>
            </note>
            <note default-y="-50.00" default-x="151.56">
                <pitch>
                    <step>C</step>
                    <octave>4</octave>
                </pitch>
                <duration>1</duration>
                <voice>1</voice>
                <type>eighth</type>
                <stem>up</stem>
                <beam number="1">end</beam>
                <lyric number="2">
                    <syllabic>single</syllabic>
                    <text>a</text>
                </lyric>
                <lyric number="3">
                    <syllabic>single</syllabic>
                    <text>a</text>
                </lyric>
                <lyric number="4">
                    <syllabic>single</syllabic>
                    <text>one</text>
                </lyric>
                <lyric number="5">
                    <syllabic>single</syllabic>
                    <text>the</text>
                </lyric>
                <lyric number="6">
                    <syllabic>end</syllabic>
                    <text>ver</text>
                </lyric>
                <lyric number="7">
                    <syllabic>single</syllabic>
                    <text>will</text>
                </lyric>
            </note>
        </measure>
        <measure width="191.75" number="9">
            <harmony print-frame="no">
                <root>
                    <root-step>C</root-step>
                </root>
                <kind text="">major</kind>
            </harmony>
            <note default-y="-50.00" default-x="28.44">
                <pitch>
                    <step>C</step>
                    <octave>4</octave>
                </pitch>
                <duration>2</duration>
                <voice>1</voice>
                <type>quarter</type>
                <stem>up</stem>
                <lyric number="1">
                    <syllabic>single</syllabic>
                    <text>lost</text>
                </lyric>
                <lyric number="2">
                    <syllabic>single</syllabic>
                    <text>false</text>
                </lyric>
                <lyric number="3">
                    <syllabic>single</syllabic>
                    <text>false</text>
                </lyric>
                <lyric number="4">
                    <syllabic>single</syllabic>
                    <text>boy</text>
                </lyric>
                <lyric number="5">
                    <syllabic>single</syllabic>
                    <text>ties</text>
                </lyric>
                <lyric number="6">
                    <syllabic>single</syllabic>
                    <text>place</text>
                </lyric>
                <lyric number="7">
                    <syllabic>single</syllabic>
                    <text>all</text>
                </lyric>
            </note>
            <note default-y="-40.00" default-x="82.34">
                <pitch>
                    <step>E</step>
                    <octave>4</octave>
                </pitch>
                <duration>2</duration>
                <voice>1</voice>
                <type>quarter</type>
                <stem>up</stem>
                <lyric number="1">
                    <syllabic>single</syllabic>
                    <text>my</text>
                </lyric>
                <lyric number="2">
                    <syllabic>begin</syllabic>
                    <text>hear</text>
                </lyric>
                <lyric number="3">
                    <syllabic>begin</syllabic>
                    <text>hear</text>
                </lyric>
                <lyric number="4">
                    <syllabic>single</syllabic>
                    <text>in</text>
                </lyric>
                <lyric number="5">
                    <syllabic>single</syllabic>
                    <text>on</text>
                </lyric>
                <lyric number="6">
                    <syllabic>single</syllabic>
                    <text>your</text>
                </lyric>
                <lyric number="7">
                    <syllabic>single</syllabic>
                    <text>be</text>
                </lyric>
            </note>
            <note default-y="-30.00" default-x="136.25">
                <pitch>
                    <step>G</step>
                    <octave>4</octave>
                </pitch>
                <duration>2</duration>
                <voice>1</voice>
                <type>quarter</type>
                <stem>up</stem>
                <lyric number="1">
                    <syllabic>single</syllabic>
                    <text>true</text>
                </lyric>
                <lyric number="2">
                    <syllabic>end</syllabic>
                    <text>ted</text>
                </lyric>
                <lyric number="3">
                    <syllabic>end</syllabic>
                    <text>ted</text>
                </lyric>
                <lyric number="4">
                    <syllabic>single</syllabic>
                    <text>a</text>
                </lyric>
                <lyric number="5">
                    <syllabic>single</syllabic>
                    <text>the</text>
                </lyric>
                <lyric number="6">
                    <syllabic>begin</syllabic>
                    <text>af</text>
                </lyric>
                <lyric number="7">
                    <syllabic>begin</syllabic>
                    <text>for</text>
                </lyric>
            </note>
        </measure>
        <measure width="93.90" number="10">
            <harmony print-frame="no">
                <root>
                    <root-step>G</root-step>
                </root>
                <kind text="7">dominant</kind>
            </harmony>
            <note default-y="-30.00" default-x="21.55">
                <pitch>
                    <step>G</step>
                    <octave>4</octave>
                </pitch>
                <duration>6</duration>
                <voice>1</voice>
                <type>half</type>
                <dot/>
                <stem>up</stem>
                <lyric number="1">
                    <syllabic>begin</syllabic>
                    <text>lo</text>
                </lyric>
                <lyric number="2">
                    <syllabic>begin</syllabic>
                    <text>lo</text>
                </lyric>
                <lyric number="3">
                    <syllabic>begin</syllabic>
                    <text>lo</text>
                </lyric>
                <lyric number="4">
                    <syllabic>begin</syllabic>
                    <text>hun</text>
                </lyric>
                <lyric number="5">
                    <syllabic>begin</syllabic>
                    <text>rail</text>
                </lyric>
                <lyric number="6">
                    <syllabic>middle</syllabic>
                    <text>fec</text>
                </lyric>
                <lyric number="7">
                    <syllabic>middle</syllabic>
                    <text>sa</text>
                </lyric>
            </note>
        </measure>
        <measure width="109.73" number="11">
            <note default-y="-45.00" default-x="12.00">
                <pitch>
                    <step>D</step>
                    <octave>4</octave>
                </pitch>
                <duration>6</duration>
                <voice>1</voice>
                <type>half</type>
                <dot/>
                <stem>up</stem>
                <notations>
                    <slur type="start" number="1"/>
                </notations>
                <lyric number="1">
                    <syllabic>end</syllabic>
                    <text>ver</text>
                    <extend/>
                </lyric>
                <lyric number="2">
                    <syllabic>end</syllabic>
                    <text>ver</text>
                    <extend/>
                </lyric>
                <lyric number="3">
                    <syllabic>end</syllabic>
                    <text>ver</text>
                    <extend/>
                </lyric>
                <lyric number="4">
                    <syllabic>end</syllabic>
                    <text>dred</text>
                    <extend/>
                </lyric>
                <lyric number="5">
                    <syllabic>end</syllabic>
                    <text>road,</text>
                    <extend/>
                </lyric>
                <lyric number="6">
                    <syllabic>end</syllabic>
                    <text>tions</text>
                    <extend/>
                </lyric>
                <lyric number="7">
                    <syllabic>end</syllabic>
                    <text>ken,</text>
                    <extend/>
                </lyric>
            </note>
        </measure>
        <measure width="254.72" number="12">
            <print new-system="yes">
                <system-layout>
                    <system-margins>
                        <left-margin>46.81</left-margin>
                        <right-margin>0.00</right-margin>
                    </system-margins>
                    <system-distance>261.00</system-distance>
                </system-layout>
            </print>
            <note default-y="-45.00" default-x="53.15">
                <pitch>
                    <step>D</step>
                    <octave>4</octave>
                </pitch>
                <duration>4</duration>
                <voice>1</voice>
                <type>half</type>
                <stem>up</stem>
                <notations>
                    <slur type="stop" number="1"/>
                </notations>
            </note>
            <note default-y="-40.00" default-x="176.21">
                <pitch>
                    <step>E</step>
                    <octave>4</octave>
                </pitch>
                <duration>2</duration>
                <voice>1</voice>
                <type>quarter</type>
                <stem>up</stem>
                <lyric number="1">
                    <syllabic>single</syllabic>
                    <text>For</text>
                </lyric>
                <lyric number="2">
                    <syllabic>single</syllabic>
                    <text>Is</text>
                </lyric>
                <lyric number="3">
                    <syllabic>single</syllabic>
                    <text>Sends</text>
                </lyric>
                <lyric number="4">
                    <syllabic>single</syllabic>
                    <text>A</text>
                </lyric>
                <lyric number="5">
                    <syllabic>single</syllabic>
                    <text>Or</text>
                </lyric>
                <lyric number="6">
                    <syllabic>single</syllabic>
                    <text>On a</text>
                </lyric>
                <lyric number="7">
                    <syllabic>single</syllabic>
                    <text>and</text>
                </lyric>
            </note>
        </measure>
        <measure width="288.34" number="13">
            <note default-y="-35.00" default-x="31.57">
                <pitch>
                    <step>F</step>
                    <octave>4</octave>
                </pitch>
                <duration>2</duration>
                <voice>1</voice>
                <type>quarter</type>
                <stem>up</stem>
                <lyric number="1">
                    <syllabic>begin</syllabic>
                    <text>cour</text>
                </lyric>
                <lyric number="2">
                    <syllabic>single</syllabic>
                    <text>worse</text>
                </lyric>
                <lyric number="3">
                    <syllabic>single</syllabic>
                    <text>you</text>
                </lyric>
                <lyric number="4">
                    <syllabic>single</syllabic>
                    <text>poor</text>
                </lyric>
                <lyric number="5">
                    <syllabic>single</syllabic>
                    <text>stars</text>
                </lyric>
                <lyric number="6">
                    <syllabic>single</syllabic>
                    <text>green</text>
                </lyric>
                <lyric number="7">
                    <syllabic>begin</syllabic>
                    <text>ne</text>
                </lyric>
            </note>
            <note default-y="-40.00" default-x="116.62">
                <pitch>
                    <step>E</step>
                    <octave>4</octave>
                </pitch>
                <duration>2</duration>
                <voice>1</voice>
                <type>quarter</type>
                <stem>up</stem>
                <lyric number="1">
                    <syllabic>end</syllabic>
                    <text>tin'</text>
                </lyric>
                <lyric number="2">
                    <syllabic>single</syllabic>
                    <text>than</text>
                </lyric>
                <lyric number="3">
                    <syllabic>single</syllabic>
                    <text>to</text>
                </lyric>
                <lyric number="4">
                    <syllabic>single</syllabic>
                    <text>girl</text>
                </lyric>
                <lyric number="5">
                    <syllabic>single</syllabic>
                    <text>in</text>
                </lyric>
                <lyric number="6">
                    <syllabic>begin</syllabic>
                    <text>wil</text>
                </lyric>
                <lyric number="7">
                    <syllabic>end</syllabic>
                    <text>ver</text>
                </lyric>
            </note>
            <note default-y="-45.00" default-x="201.68">
                <pitch>
                    <step>D</step>
                    <octave>4</octave>
                </pitch>
                <duration>2</duration>
                <voice>1</voice>
                <type>quarter</type>
                <stem>up</stem>
                <lyric number="1">
                    <syllabic>single</syllabic>
                    <text>too</text>
                </lyric>
                <lyric number="2">
                    <syllabic>single</syllabic>
                    <text>a</text>
                </lyric>
                <lyric number="3">
                    <syllabic>single</syllabic>
                    <text>your</text>
                </lyric>
                <lyric number="4">
                    <syllabic>single</syllabic>
                    <text>can</text>
                </lyric>
                <lyric number="5">
                    <syllabic>single</syllabic>
                    <text>the</text>
                </lyric>
                <lyric number="6">
                    <syllabic>end</syllabic>
                    <text>low</text>
                </lyric>
                <lyric number="7">
                    <syllabic>single</syllabic>
                    <text>know</text>
                </lyric>
            </note>
        </measure>
        <measure width="197.52" number="14">
            <harmony print-frame="no">
                <root>
                    <root-step>C</root-step>
                </root>
                <kind text="">major</kind>
            </harmony>
            <note default-y="-50.00" default-x="12.00">
                <pitch>
                    <step>C</step>
                    <octave>4</octave>
                </pitch>
                <duration>6</duration>
                <voice>1</voice>
                <type>half</type>
                <dot/>
                <stem>up</stem>
                <notations>
                    <slur type="start" number="1"/>
                </notations>
                <lyric number="1">
                    <syllabic>single</syllabic>
                    <text>slow.</text>
                    <extend/>
                </lyric>
                <lyric number="2">
                    <syllabic>single</syllabic>
                    <text>thief.</text>
                    <extend/>
                </lyric>
                <lyric number="3">
                    <syllabic>single</syllabic>
                    <text>grave.</text>
                    <extend/>
                </lyric>
                <lyric number="4">
                    <syllabic>single</syllabic>
                    <text>trust.</text>
                    <extend/>
                </lyric>
                <lyric number="5">
                    <syllabic>single</syllabic>
                    <text>skies.</text>
                    <extend/>
                </lyric>
                <lyric number="6">
                    <syllabic>single</syllabic>
                    <text>tree.</text>
                    <extend/>
                </lyric>
                <lyric number="7">
                    <syllabic>single</syllabic>
                    <text>why.</text>
                    <extend/>
                </lyric>
            </note>
        </measure>
        <measure width="162.11" number="15">
            <harmony print-frame="no">
                <root>
                    <root-step>F</root-step>
                </root>
                <kind text="">major</kind>
            </harmony>
            <note default-y="-50.00" default-x="12.00">
                <pitch>
                    <step>C</step>
                    <octave>4</octave>
                </pitch>
                <duration>6</duration>
                <voice>1</voice>
                <type>half</type>
                <dot/>
                <stem>up</stem>
                <notations>
                    <slur type="stop" number="1"/>
                    <slur type="start" number="1"/>
                </notations>
            </note>
        </measure>
        <measure width="127.67" number="16">
            <harmony print-frame="no">
                <root>
                    <root-step>C</root-step>
                </root>
                <kind text="">major</kind>
            </harmony>
            <note default-y="-50.00" default-x="12.00">
                <pitch>
                    <step>C</step>
                    <octave>4</octave>
                </pitch>
                <duration>2</duration>
                <voice>1</voice>
                <type>quarter</type>
                <stem>up</stem>
                <notations>
                    <slur type="stop" number="1"/>
                </notations>
            </note>
            <note>
                <rest/>
                <duration>2</duration>
                <voice>1</voice>
                <type>quarter</type>
            </note>
            <barline location="right">
                <bar-style>light-heavy</bar-style>
                <repeat direction="backward"/>
            </barline>
        </measure>
    </part>
</score-partwise>
