<?xml version="1.0" encoding="UTF-8"?>
<!DOCTYPE score-partwise PUBLIC "-//Recordare//DTD MusicXML 2.0 Partwise//EN" "http://www.musicxml.org/dtds/partwise.dtd">
<score-partwise version="2.0">
    <work>
        <work-number></work-number>
        <work-title></work-title>
    </work>
    <movement-number></movement-number>
    <movement-title>Hallelujah!  I'm a Bum</movement-title>
    <identification>
        <creator type="composer">traditional American hobo song</creator>
        <creator type="poet">origin uncertain, multiple versions</creator>
        <rights>All Rights Reserved</rights>
        <encoding>
            <software>MuseScore 1.2</software>
            <encoding-date>2012-09-15</encoding-date>
            <software>ProxyMusic 2.0 c</software>
        </encoding>
        <source>http://wikifonia.org/node/17806/revisions/23608/view</source>
    </identification>
    <defaults>
        <scaling>
            <millimeters>7.05556</millimeters>
            <tenths>40</tenths>
        </scaling>
        <page-layout>
            <page-height>1683.78</page-height>
            <page-width>1190.55</page-width>
            <page-margins type="even">
                <left-margin>56.6929</left-margin>
                <right-margin>56.6929</right-margin>
                <top-margin>56.6929</top-margin>
                <bottom-margin>113.386</bottom-margin>
            </page-margins>
            <page-margins type="odd">
                <left-margin>56.6929</left-margin>
                <right-margin>56.6929</right-margin>
                <top-margin>56.6929</top-margin>
                <bottom-margin>113.386</bottom-margin>
            </page-margins>
        </page-layout>
    </defaults>
    <credit page="1">
        <credit-words font-size="24" default-y="1627.09" default-x="595.275" justify="center" valign="top">Hallelujah -- I'm a Bum</credit-words>
    </credit>
    <credit page="1">
        <credit-words font-size="12" default-y="1557.09" default-x="1133.86" justify="right" valign="top">traditional American hobo song - origin uncertain </credit-words>
    </credit>
    <credit page="1">
        <credit-words font-size="8" default-y="113.386" default-x="595.275" justify="center" valign="bottom">Amsco Music Sales Co., N.Y.C. 1933</credit-words>
    </credit>
    <part-list>
        <score-part id="P1">
            <part-name>Voice</part-name>
            <part-abbreviation>Vo.</part-abbreviation>
            <score-instrument id="P1-I3">
                <instrument-name>Voice</instrument-name>
            </score-instrument>
            <midi-instrument id="P1-I3">
                <midi-channel>1</midi-channel>
                <midi-program>53</midi-program>
                <volume>78.7402</volume>
                <pan>0</pan>
            </midi-instrument>
        </score-part>
    </part-list>
    <part id="P1">
        <measure width="172.10" number="0" implicit="yes">
            <print>
                <system-layout>
                    <system-margins>
                        <left-margin>69.16</left-margin>
                        <right-margin>0.00</right-margin>
                    </system-margins>
                    <top-system-distance>170.00</top-system-distance>
                </system-layout>
            </print>
            <barline location="left">
                <bar-style>heavy-light</bar-style>
                <repeat direction="forward"/>
            </barline>
            <attributes>
                <divisions>12</divisions>
                <key>
                    <fifths>-1</fifths>
                    <mode>major</mode>
                </key>
                <time>
                    <beats>3</beats>
                    <beat-type>4</beat-type>
                </time>
                <clef>
                    <sign>G</sign>
                    <line>2</line>
                </clef>
            </attributes>
            <note default-y="-50.00" default-x="125.54">
                <pitch>
                    <step>C</step>
                    <octave>4</octave>
                </pitch>
                <duration>12</duration>
                <voice>1</voice>
                <type>quarter</type>
                <stem>up</stem>
                <lyric number="1">
                    <syllabic>begin</syllabic>
                    <text>1. Re</text>
                </lyric>
                <lyric number="2">
                    <syllabic>single</syllabic>
                    <text>2. The </text>
                </lyric>
                <lyric number="3">
                    <syllabic>single</syllabic>
                    <text>3. I </text>
                </lyric>
                <lyric number="4">
                    <syllabic>single</syllabic>
                    <text>4. I</text>
                </lyric>
                <lyric number="5">
                    <syllabic>single</syllabic>
                    <text>5. I</text>
                </lyric>
                <lyric number="6">
                    <syllabic>single</syllabic>
                    <text>6. Oh,</text>
                </lyric>
                <lyric number="7">
                    <syllabic>single</syllabic>
                    <text>7. So</text>
                </lyric>
                <lyric number="8">
                    <syllabic>single</syllabic>
                    <text>8. Well,</text>
                </lyric>
            </note>
        </measure>
        <measure width="198.49" number="1">
            <harmony print-frame="no">
                <root>
                    <root-step>F</root-step>
                </root>
                <kind text="">major</kind>
            </harmony>
            <note default-y="-35.00" default-x="32.84">
                <pitch>
                    <step>F</step>
                    <octave>4</octave>
                </pitch>
                <duration>12</duration>
                <voice>1</voice>
                <type>quarter</type>
                <stem>up</stem>
                <lyric number="1">
                    <syllabic>end</syllabic>
                    <text>joice</text>
                </lyric>
                <lyric number="2">
                    <syllabic>begin</syllabic>
                    <text>spring</text>
                </lyric>
                <lyric number="3">
                    <syllabic>single</syllabic>
                    <text>went</text>
                </lyric>
                <lyric number="4">
                    <syllabic>single</syllabic>
                    <text>like</text>
                    <extend/>
                </lyric>
                <lyric number="5">
                    <syllabic>single</syllabic>
                    <text>went</text>
                </lyric>
                <lyric number="6">
                    <syllabic>single</syllabic>
                    <text>why</text>
                </lyric>
                <lyric number="7">
                    <syllabic>single</syllabic>
                    <text>why</text>
                </lyric>
                <lyric number="8">
                    <syllabic>single</syllabic>
                    <text>I</text>
                </lyric>
            </note>
            <note default-y="-35.00" default-x="95.85">
                <pitch>
                    <step>F</step>
                    <octave>4</octave>
                </pitch>
                <duration>12</duration>
                <voice>1</voice>
                <type>quarter</type>
                <stem>up</stem>
                <lyric number="1">
                    <syllabic>single</syllabic>
                    <text>and</text>
                </lyric>
                <lyric number="2">
                    <syllabic>end</syllabic>
                    <text>time</text>
                </lyric>
                <lyric number="3">
                    <syllabic>single</syllabic>
                    <text>to</text>
                </lyric>
                <lyric number="5">
                    <syllabic>single</syllabic>
                    <text>to</text>
                </lyric>
                <lyric number="6">
                    <syllabic>single</syllabic>
                    <text>don't</text>
                </lyric>
                <lyric number="7">
                    <syllabic>single</syllabic>
                    <text>don't</text>
                </lyric>
                <lyric number="8">
                    <syllabic>single</syllabic>
                    <text>don't</text>
                </lyric>
            </note>
            <note default-y="-35.00" default-x="146.37">
                <pitch>
                    <step>F</step>
                    <octave>4</octave>
                </pitch>
                <duration>12</duration>
                <voice>1</voice>
                <type>quarter</type>
                <stem>up</stem>
                <lyric number="1">
                    <syllabic>single</syllabic>
                    <text>be</text>
                </lyric>
                <lyric number="2">
                    <syllabic>single</syllabic>
                    <text>has</text>
                </lyric>
                <lyric number="3">
                    <syllabic>single</syllabic>
                    <text>a</text>
                </lyric>
                <lyric number="4">
                    <syllabic>single</syllabic>
                    <text>Jim</text>
                </lyric>
                <lyric number="5">
                    <syllabic>single</syllabic>
                    <text>a</text>
                </lyric>
                <lyric number="6">
                    <syllabic>single</syllabic>
                    <text>you</text>
                </lyric>
                <lyric number="7">
                    <syllabic>single</syllabic>
                    <text>you</text>
                </lyric>
                <lyric number="8">
                    <syllabic>single</syllabic>
                    <text>like</text>
                </lyric>
            </note>
        </measure>
        <measure width="206.71" number="2">
            <note default-y="-35.00" default-x="33.78">
                <pitch>
                    <step>F</step>
                    <octave>4</octave>
                </pitch>
                <duration>24</duration>
                <voice>1</voice>
                <type>half</type>
                <stem>up</stem>
                <lyric number="1">
                    <syllabic>single</syllabic>
                    <text>glad,</text>
                </lyric>
                <lyric number="2">
                    <syllabic>single</syllabic>
                    <text>come,</text>
                </lyric>
                <lyric number="3">
                    <syllabic>single</syllabic>
                    <text>house,</text>
                </lyric>
                <lyric number="4">
                    <syllabic>single</syllabic>
                    <text>Hill,</text>
                </lyric>
                <lyric number="5">
                    <syllabic>single</syllabic>
                    <text>house,</text>
                </lyric>
                <lyric number="6">
                    <syllabic>single</syllabic>
                    <text>work,</text>
                </lyric>
                <lyric number="7">
                    <syllabic>single</syllabic>
                    <text>save</text>
                </lyric>
                <lyric number="8">
                    <syllabic>single</syllabic>
                    <text>work,</text>
                </lyric>
            </note>
            <note default-y="-30.00" default-x="108.29">
                <pitch>
                    <step>G</step>
                    <octave>4</octave>
                </pitch>
                <duration>6</duration>
                <voice>1</voice>
                <type>eighth</type>
                <stem>up</stem>
                <beam number="1">begin</beam>
                <lyric number="1">
                    <syllabic>single</syllabic>
                    <text>For</text>
                </lyric>
                <lyric number="2">
                    <syllabic>single</syllabic>
                    <text>And</text>
                </lyric>
                <lyric number="3">
                    <syllabic>single</syllabic>
                    <text>And</text>
                </lyric>
                <lyric number="4">
                    <syllabic>single</syllabic>
                    <text>He's</text>
                </lyric>
                <lyric number="5">
                    <syllabic>single</syllabic>
                    <text>And</text>
                </lyric>
                <lyric number="6">
                    <syllabic>single</syllabic>
                    <text>Like</text>
                    <extend/>
                </lyric>
                <lyric number="7">
                    <syllabic>single</syllabic>
                    <text>All</text>
                </lyric>
                <lyric number="8">
                    <syllabic>single</syllabic>
                    <text>And</text>
                    <extend/>
                </lyric>
            </note>
            <note default-y="-30.00" default-x="171.25">
                <pitch>
                    <step>G</step>
                    <octave>4</octave>
                </pitch>
                <duration>6</duration>
                <voice>1</voice>
                <type>eighth</type>
                <stem>up</stem>
                <beam number="1">end</beam>
                <lyric number="1">
                    <syllabic>single</syllabic>
                    <text>the</text>
                </lyric>
                <lyric number="2">
                    <syllabic>single</syllabic>
                    <text>I'm</text>
                </lyric>
                <lyric number="3">
                    <syllabic>single</syllabic>
                    <text>I</text>
                </lyric>
                <lyric number="4">
                    <syllabic>single</syllabic>
                    <text>a</text>
                </lyric>
                <lyric number="5">
                    <syllabic>single</syllabic>
                    <text>I</text>
                </lyric>
                <lyric number="7">
                    <syllabic>single</syllabic>
                    <text>the</text>
                </lyric>
            </note>
        </measure>
        <measure width="220.32" number="3">
            <note default-y="-25.00" default-x="35.33">
                <pitch>
                    <step>A</step>
                    <octave>4</octave>
                </pitch>
                <duration>12</duration>
                <voice>1</voice>
                <type>quarter</type>
                <stem>up</stem>
                <lyric number="1">
                    <syllabic>begin</syllabic>
                    <text>spring</text>
                </lyric>
                <lyric number="2">
                    <syllabic>single</syllabic>
                    <text>just</text>
                </lyric>
                <lyric number="3">
                    <syllabic>single</syllabic>
                    <text>rapped</text>
                </lyric>
                <lyric number="4">
                    <syllabic>single</syllabic>
                    <text>good</text>
                </lyric>
                <lyric number="5">
                    <syllabic>single</syllabic>
                    <text>asked</text>
                </lyric>
                <lyric number="6">
                    <syllabic>begin</syllabic>
                    <text>o</text>
                </lyric>
                <lyric number="7">
                    <syllabic>begin</syllabic>
                    <text>mo</text>
                </lyric>
                <lyric number="8">
                    <syllabic>single</syllabic>
                    <text>work</text>
                </lyric>
            </note>
            <note default-y="-25.00" default-x="99.04">
                <pitch>
                    <step>A</step>
                    <octave>4</octave>
                </pitch>
                <duration>12</duration>
                <voice>1</voice>
                <type>quarter</type>
                <stem>up</stem>
                <lyric number="1">
                    <syllabic>end</syllabic>
                    <text>time</text>
                </lyric>
                <lyric number="2">
                    <syllabic>single</syllabic>
                    <text>out</text>
                </lyric>
                <lyric number="3">
                    <syllabic>single</syllabic>
                    <text>on</text>
                </lyric>
                <lyric number="4">
                    <syllabic>single</syllabic>
                    <text>friend</text>
                </lyric>
                <lyric number="5">
                    <syllabic>single</syllabic>
                    <text>for</text>
                </lyric>
                <lyric number="6">
                    <syllabic>end</syllabic>
                    <text>ther</text>
                </lyric>
                <lyric number="7">
                    <syllabic>end</syllabic>
                    <text>ney</text>
                </lyric>
                <lyric number="8">
                    <syllabic>single</syllabic>
                    <text>don't</text>
                </lyric>
            </note>
            <note default-y="-25.00" default-x="158.88">
                <pitch>
                    <step>A</step>
                    <octave>4</octave>
                </pitch>
                <duration>12</duration>
                <voice>1</voice>
                <type>quarter</type>
                <stem>up</stem>
                <lyric number="1">
                    <syllabic>single</syllabic>
                    <text>has</text>
                </lyric>
                <lyric number="2">
                    <syllabic>single</syllabic>
                    <text>of</text>
                </lyric>
                <lyric number="3">
                    <syllabic>single</syllabic>
                    <text>the</text>
                </lyric>
                <lyric number="4">
                    <syllabic>single</syllabic>
                    <text>of</text>
                </lyric>
                <lyric number="5">
                    <syllabic>single</syllabic>
                    <text>some</text>
                </lyric>
                <lyric number="6">
                    <syllabic>single</syllabic>
                    <text>men</text>
                </lyric>
                <lyric number="7">
                    <syllabic>single</syllabic>
                    <text>you</text>
                </lyric>
                <lyric number="8">
                    <syllabic>single</syllabic>
                    <text>like</text>
                </lyric>
            </note>
        </measure>
        <measure width="210.39" number="4">
            <note default-y="-25.00" default-x="32.51">
                <pitch>
                    <step>A</step>
                    <octave>4</octave>
                </pitch>
                <duration>24</duration>
                <voice>1</voice>
                <type>half</type>
                <stem>up</stem>
                <lyric number="1">
                    <syllabic>single</syllabic>
                    <text>come.</text>
                </lyric>
                <lyric number="2">
                    <syllabic>single</syllabic>
                    <text>jail,</text>
                </lyric>
                <lyric number="3">
                    <syllabic>single</syllabic>
                    <text>door.</text>
                </lyric>
                <lyric number="4">
                    <syllabic>single</syllabic>
                    <text>mine,</text>
                </lyric>
                <lyric number="5">
                    <syllabic>single</syllabic>
                    <text>bread,</text>
                </lyric>
                <lyric number="6">
                    <syllabic>single</syllabic>
                    <text>do?</text>
                </lyric>
                <lyric number="7">
                    <syllabic>single</syllabic>
                    <text>earn?</text>
                </lyric>
                <lyric number="8">
                    <syllabic>single</syllabic>
                    <text>me.</text>
                </lyric>
            </note>
            <note default-y="-35.00" default-x="107.66">
                <pitch>
                    <step>F</step>
                    <octave>4</octave>
                </pitch>
                <duration>6</duration>
                <voice>1</voice>
                <type>eighth</type>
                <stem>up</stem>
                <beam number="1">begin</beam>
                <notations>
                    <slur type="start" number="1"/>
                </notations>
                <lyric number="1">
                    <syllabic>single</syllabic>
                    <text>We</text>
                    <extend/>
                </lyric>
                <lyric number="2">
                    <syllabic>single</syllabic>
                    <text>With</text>
                    <extend/>
                </lyric>
                <lyric number="3">
                    <syllabic>single</syllabic>
                    <text>And</text>
                </lyric>
                <lyric number="4">
                    <syllabic>single</syllabic>
                    <text>That</text>
                </lyric>
                <lyric number="5">
                    <syllabic>single</syllabic>
                    <text>And</text>
                </lyric>
                <lyric number="6">
                    <syllabic>single</syllabic>
                    <text>Now</text>
                    <extend/>
                </lyric>
                <lyric number="7">
                    <syllabic>single</syllabic>
                    <text>If</text>
                    <extend/>
                </lyric>
                <lyric number="8">
                    <syllabic>single</syllabic>
                    <text>And</text>
                    <extend/>
                </lyric>
            </note>
            <note default-y="-25.00" default-x="174.63">
                <pitch>
                    <step>A</step>
                    <octave>4</octave>
                </pitch>
                <duration>6</duration>
                <voice>1</voice>
                <type>eighth</type>
                <stem>up</stem>
                <beam number="1">end</beam>
                <notations>
                    <slur type="stop" number="1"/>
                </notations>
                <lyric number="1">
                    <syllabic>single</syllabic>
                    <text>can</text>
                </lyric>
                <lyric number="3">
                    <syllabic>single</syllabic>
                    <text>the</text>
                </lyric>
                <lyric number="4">
                    <syllabic>single</syllabic>
                    <text>is</text>
                </lyric>
                <lyric number="5">
                    <syllabic>single</syllabic>
                    <text>the</text>
                </lyric>
            </note>
        </measure>
        <measure width="332.06" number="5">
            <print new-system="yes">
                <system-layout>
                    <system-margins>
                        <left-margin>46.81</left-margin>
                        <right-margin>0.00</right-margin>
                    </system-margins>
                    <system-distance>287.00</system-distance>
                </system-layout>
            </print>
            <note default-y="-15.00" default-x="89.69">
                <pitch>
                    <step>C</step>
                    <octave>5</octave>
                </pitch>
                <duration>12</duration>
                <voice>1</voice>
                <type>quarter</type>
                <stem>down</stem>
                <lyric number="1">
                    <syllabic>single</syllabic>
                    <text>throw</text>
                </lyric>
                <lyric number="2">
                    <syllabic>single</syllabic>
                    <text>out</text>
                </lyric>
                <lyric number="3">
                    <syllabic>begin</syllabic>
                    <text>la</text>
                </lyric>
                <lyric number="4">
                    <syllabic>single</syllabic>
                    <text>why</text>
                </lyric>
                <lyric number="5">
                    <syllabic>begin</syllabic>
                    <text>la</text>
                </lyric>
                <lyric number="6">
                    <syllabic>single</syllabic>
                    <text>how</text>
                </lyric>
                <lyric number="7">
                    <syllabic>single</syllabic>
                    <text>I</text>
                </lyric>
                <lyric number="8">
                    <syllabic>single</syllabic>
                    <text>that</text>
                </lyric>
            </note>
            <note default-y="-15.00" default-x="169.95">
                <pitch>
                    <step>C</step>
                    <octave>5</octave>
                </pitch>
                <duration>12</duration>
                <voice>1</voice>
                <type>quarter</type>
                <stem>down</stem>
                <lyric number="1">
                    <syllabic>single</syllabic>
                    <text>down</text>
                </lyric>
                <lyric number="2">
                    <syllabic>begin</syllabic>
                    <text>a</text>
                </lyric>
                <lyric number="3">
                    <syllabic>end</syllabic>
                    <text>dy</text>
                </lyric>
                <lyric number="4">
                    <syllabic>single</syllabic>
                    <text>I</text>
                </lyric>
                <lyric number="5">
                    <syllabic>end</syllabic>
                    <text>dy</text>
                </lyric>
                <lyric number="6">
                    <syllabic>single</syllabic>
                    <text>can</text>
                </lyric>
                <lyric number="7">
                    <syllabic>begin</syllabic>
                    <text>did</text>
                </lyric>
                <lyric number="8">
                    <syllabic>single</syllabic>
                    <text>is</text>
                </lyric>
            </note>
            <note default-y="-15.00" default-x="250.20">
                <pitch>
                    <step>C</step>
                    <octave>5</octave>
                </pitch>
                <duration>12</duration>
                <voice>1</voice>
                <type>quarter</type>
                <stem>down</stem>
                <lyric number="1">
                    <syllabic>single</syllabic>
                    <text>our</text>
                </lyric>
                <lyric number="2">
                    <syllabic>end</syllabic>
                    <text>ny</text>
                </lyric>
                <lyric number="3">
                    <syllabic>single</syllabic>
                    <text>says,</text>
                </lyric>
                <lyric number="4">
                    <syllabic>single</syllabic>
                    <text>am</text>
                </lyric>
                <lyric number="5">
                    <syllabic>single</syllabic>
                    <text>says,</text>
                </lyric>
                <lyric number="6">
                    <syllabic>single</syllabic>
                    <text>I</text>
                </lyric>
                <lyric number="7">
                    <syllabic>end</syllabic>
                    <text>n't</text>
                </lyric>
                <lyric number="8">
                    <syllabic>single</syllabic>
                    <text>the</text>
                </lyric>
            </note>
        </measure>
        <measure width="292.84" number="6">
            <harmony print-frame="no">
                <root>
                    <root-step>B</root-step>
                    <root-alter>-1</root-alter>
                </root>
                <kind text="">major</kind>
            </harmony>
            <note default-y="-10.00" default-x="33.98">
                <pitch>
                    <step>D</step>
                    <octave>5</octave>
                </pitch>
                <duration>12</duration>
                <voice>1</voice>
                <type>quarter</type>
                <stem>down</stem>
                <lyric number="1">
                    <syllabic>begin</syllabic>
                    <text>shov</text>
                </lyric>
                <lyric number="2">
                    <syllabic>begin</syllabic>
                    <text>mon</text>
                </lyric>
                <lyric number="3">
                    <syllabic>single</syllabic>
                    <text>&quot;Bum,</text>
                </lyric>
                <lyric number="4">
                    <syllabic>begin</syllabic>
                    <text>hik</text>
                </lyric>
                <lyric number="5">
                    <syllabic>single</syllabic>
                    <text>&quot;Bum,</text>
                </lyric>
                <lyric number="6">
                    <syllabic>single</syllabic>
                    <text>work,</text>
                </lyric>
                <lyric number="7">
                    <syllabic>single</syllabic>
                    <text>eat</text>
                </lyric>
                <lyric number="8">
                    <syllabic>begin</syllabic>
                    <text>rea</text>
                </lyric>
            </note>
            <harmony print-frame="no">
                <root>
                    <root-step>F</root-step>
                </root>
                <kind text="">major</kind>
            </harmony>
            <note default-y="-15.00" default-x="119.73">
                <pitch>
                    <step>C</step>
                    <octave>5</octave>
                </pitch>
                <duration>12</duration>
                <voice>1</voice>
                <type>quarter</type>
                <stem>down</stem>
                <notations>
                    <slur type="start" number="1"/>
                </notations>
                <lyric number="1">
                    <syllabic>end</syllabic>
                    <text>els</text>
                </lyric>
                <lyric number="2">
                    <syllabic>end</syllabic>
                    <text>ey,</text>
                </lyric>
                <lyric number="3">
                    <syllabic>single</syllabic>
                    <text>bum,</text>
                </lyric>
                <lyric number="4">
                    <syllabic>end</syllabic>
                    <text>ing</text>
                </lyric>
                <lyric number="5">
                    <syllabic>single</syllabic>
                    <text>bum,</text>
                </lyric>
                <lyric number="6">
                    <syllabic>single</syllabic>
                    <text>when</text>
                </lyric>
                <lyric number="7">
                    <syllabic>single</syllabic>
                    <text>I'd</text>
                </lyric>
                <lyric number="8">
                    <syllabic>end</syllabic>
                    <text>son</text>
                </lyric>
            </note>
            <note default-y="-25.00" default-x="205.49">
                <pitch>
                    <step>A</step>
                    <octave>4</octave>
                </pitch>
                <duration>12</duration>
                <voice>1</voice>
                <type>quarter</type>
                <stem>up</stem>
                <notations>
                    <slur type="stop" number="1"/>
                </notations>
                <lyric number="1">
                    <syllabic>single</syllabic>
                    <text>and</text>
                </lyric>
                <lyric number="2">
                    <syllabic>begin</syllabic>
                    <text>with</text>
                </lyric>
                <lyric number="3">
                    <syllabic>single</syllabic>
                    <text>you've</text>
                </lyric>
                <lyric number="4">
                    <syllabic>single</syllabic>
                    <text>down</text>
                </lyric>
                <lyric number="5">
                    <syllabic>single</syllabic>
                    <text>the</text>
                </lyric>
                <lyric number="6">
                    <syllabic>single</syllabic>
                    <text>there's</text>
                </lyric>
                <lyric number="7">
                    <syllabic>single</syllabic>
                    <text>have</text>
                </lyric>
                <lyric number="8">
                    <syllabic>single</syllabic>
                    <text>I</text>
                </lyric>
            </note>
        </measure>
        <measure width="261.70" number="7">
            <harmony print-frame="no">
                <root>
                    <root-step>C</root-step>
                </root>
                <kind text="7">dominant</kind>
            </harmony>
            <note default-y="-30.00" default-x="25.93">
                <pitch>
                    <step>G</step>
                    <octave>4</octave>
                </pitch>
                <duration>12</duration>
                <voice>1</voice>
                <type>quarter</type>
                <stem>up</stem>
                <lyric number="1">
                    <syllabic>single</syllabic>
                    <text>go</text>
                </lyric>
                <lyric number="2">
                    <syllabic>end</syllabic>
                    <text>out</text>
                </lyric>
                <lyric number="3">
                    <syllabic>single</syllabic>
                    <text>been</text>
                </lyric>
                <lyric number="4">
                    <syllabic>single</syllabic>
                    <text>Jim</text>
                </lyric>
                <lyric number="5">
                    <syllabic>begin</syllabic>
                    <text>ba</text>
                </lyric>
                <lyric number="6">
                    <syllabic>single</syllabic>
                    <text>no</text>
                </lyric>
                <lyric number="7">
                    <syllabic>begin</syllabic>
                    <text>mo</text>
                </lyric>
                <lyric number="8">
                    <syllabic>single</syllabic>
                    <text>am</text>
                </lyric>
            </note>
            <note default-y="-30.00" default-x="103.98">
                <pitch>
                    <step>G</step>
                    <octave>4</octave>
                </pitch>
                <duration>12</duration>
                <voice>1</voice>
                <type>quarter</type>
                <stem>up</stem>
                <lyric number="1">
                    <syllabic>single</syllabic>
                    <text>on</text>
                </lyric>
                <lyric number="2">
                    <syllabic>begin</syllabic>
                    <text>a</text>
                </lyric>
                <lyric number="3">
                    <syllabic>single</syllabic>
                    <text>here</text>
                </lyric>
                <lyric number="4">
                    <syllabic>single</syllabic>
                    <text>Hill's</text>
                </lyric>
                <lyric number="5">
                    <syllabic>end</syllabic>
                    <text>ker</text>
                </lyric>
                <lyric number="6">
                    <syllabic>single</syllabic>
                    <text>work</text>
                </lyric>
                <lyric number="7">
                    <syllabic>end</syllabic>
                    <text>ney</text>
                </lyric>
                <lyric number="8">
                    <syllabic>single</syllabic>
                    <text>so</text>
                </lyric>
            </note>
            <note default-y="-30.00" default-x="182.04">
                <pitch>
                    <step>G</step>
                    <octave>4</octave>
                </pitch>
                <duration>12</duration>
                <voice>1</voice>
                <type>quarter</type>
                <stem>up</stem>
                <lyric number="1">
                    <syllabic>single</syllabic>
                    <text>the</text>
                </lyric>
                <lyric number="2">
                    <syllabic>end</syllabic>
                    <text>ny</text>
                </lyric>
                <lyric number="3">
                    <syllabic>begin</syllabic>
                    <text>be</text>
                </lyric>
                <lyric number="4">
                    <syllabic>single</syllabic>
                    <text>main</text>
                </lyric>
                <lyric number="5">
                    <syllabic>single</syllabic>
                    <text>is</text>
                </lyric>
                <lyric number="6">
                    <syllabic>single</syllabic>
                    <text>to</text>
                </lyric>
                <lyric number="7">
                    <syllabic>single</syllabic>
                    <text>to</text>
                </lyric>
                <lyric number="8">
                    <syllabic>begin</syllabic>
                    <text>hun</text>
                </lyric>
            </note>
        </measure>
        <measure width="143.76" number="8">
            <note default-y="-30.00" default-x="33.36">
                <pitch>
                    <step>G</step>
                    <octave>4</octave>
                </pitch>
                <duration>24</duration>
                <voice>1</voice>
                <type>half</type>
                <stem>up</stem>
                <lyric number="1">
                    <syllabic>single</syllabic>
                    <text>bum.</text>
                </lyric>
                <lyric number="2">
                    <syllabic>single</syllabic>
                    <text>bail.</text>
                </lyric>
                <lyric number="3">
                    <syllabic>end</syllabic>
                    <text>fore!&quot;</text>
                </lyric>
                <lyric number="4">
                    <syllabic>single</syllabic>
                    <text>line.</text>
                </lyric>
                <lyric number="5">
                    <syllabic>single</syllabic>
                    <text>dead.&quot;</text>
                </lyric>
                <lyric number="6">
                    <syllabic>single</syllabic>
                    <text>do?</text>
                </lyric>
                <lyric number="7">
                    <syllabic>single</syllabic>
                    <text>burn.</text>
                </lyric>
                <lyric number="8">
                    <syllabic>end</syllabic>
                    <text>gry.</text>
                </lyric>
            </note>
            <barline location="right">
                <bar-style>light-light</bar-style>
            </barline>
        </measure>
        <measure width="165.14" number="9">
            <print new-system="yes">
                <system-layout>
                    <system-margins>
                        <left-margin>46.81</left-margin>
                        <right-margin>0.00</right-margin>
                    </system-margins>
                    <system-distance>292.00</system-distance>
                </system-layout>
            </print>
            <direction placement="above">
                <direction-type>
                    <words>CHORUS: </words>
                </direction-type>
            </direction>
            <note default-y="-15.00" default-x="79.66">
                <pitch>
                    <step>C</step>
                    <octave>5</octave>
                </pitch>
                <duration>9</duration>
                <voice>1</voice>
                <type>eighth</type>
                <dot/>
                <stem>down</stem>
                <beam number="1">begin</beam>
                <lyric number="1">
                    <syllabic>begin</syllabic>
                    <text>Hal</text>
                </lyric>
            </note>
            <note default-y="-15.00" default-x="135.12">
                <pitch>
                    <step>C</step>
                    <octave>5</octave>
                </pitch>
                <duration>3</duration>
                <voice>1</voice>
                <type>16th</type>
                <stem>down</stem>
                <beam number="1">end</beam>
                <beam number="2">backward hook</beam>
                <lyric number="1">
                    <syllabic>middle</syllabic>
                    <text>le</text>
                </lyric>
            </note>
        </measure>
        <measure width="219.53" number="10">
            <harmony print-frame="no">
                <root>
                    <root-step>B</root-step>
                    <root-alter>-1</root-alter>
                </root>
                <kind text="">major</kind>
            </harmony>
            <note default-y="-10.00" default-x="13.39">
                <pitch>
                    <step>D</step>
                    <octave>5</octave>
                </pitch>
                <duration>12</duration>
                <voice>1</voice>
                <type>quarter</type>
                <stem>down</stem>
                <lyric number="1">
                    <syllabic>middle</syllabic>
                    <text>lu</text>
                </lyric>
            </note>
            <harmony print-frame="no">
                <root>
                    <root-step>F</root-step>
                </root>
                <kind text="">major</kind>
            </harmony>
            <note default-y="-15.00" default-x="74.61">
                <pitch>
                    <step>C</step>
                    <octave>5</octave>
                </pitch>
                <duration>12</duration>
                <voice>1</voice>
                <type>quarter</type>
                <stem>down</stem>
                <lyric number="1">
                    <syllabic>end</syllabic>
                    <text>jah,</text>
                </lyric>
            </note>
            <note default-y="-25.00" default-x="135.82">
                <pitch>
                    <step>A</step>
                    <octave>4</octave>
                </pitch>
                <duration>9</duration>
                <voice>1</voice>
                <type>eighth</type>
                <dot/>
                <stem>up</stem>
                <beam number="1">begin</beam>
                <lyric number="1">
                    <syllabic>single</syllabic>
                    <text>I'm</text>
                </lyric>
            </note>
            <note default-y="-30.00" default-x="190.11">
                <pitch>
                    <step>G</step>
                    <octave>4</octave>
                </pitch>
                <duration>3</duration>
                <voice>1</voice>
                <type>16th</type>
                <stem>up</stem>
                <beam number="1">end</beam>
                <beam number="2">backward hook</beam>
                <lyric number="1">
                    <syllabic>single</syllabic>
                    <text>a</text>
                </lyric>
            </note>
        </measure>
        <measure width="211.88" number="11">
            <note default-y="-35.00" default-x="28.44">
                <pitch>
                    <step>F</step>
                    <octave>4</octave>
                </pitch>
                <duration>24</duration>
                <voice>1</voice>
                <type>half</type>
                <stem>up</stem>
                <lyric number="1">
                    <syllabic>single</syllabic>
                    <text>bum!</text>
                </lyric>
            </note>
            <note default-y="-15.00" default-x="116.97">
                <pitch>
                    <step>C</step>
                    <octave>5</octave>
                </pitch>
                <duration>9</duration>
                <voice>1</voice>
                <type>eighth</type>
                <dot/>
                <stem>down</stem>
                <beam number="1">begin</beam>
                <lyric number="1">
                    <syllabic>begin</syllabic>
                    <text>Hal</text>
                </lyric>
            </note>
            <note default-y="-15.00" default-x="178.66">
                <pitch>
                    <step>C</step>
                    <octave>5</octave>
                </pitch>
                <duration>3</duration>
                <voice>1</voice>
                <type>16th</type>
                <stem>down</stem>
                <beam number="1">end</beam>
                <beam number="2">backward hook</beam>
                <lyric number="1">
                    <syllabic>middle</syllabic>
                    <text>le</text>
                </lyric>
            </note>
        </measure>
        <measure width="225.04" number="12">
            <harmony print-frame="no">
                <root>
                    <root-step>B</root-step>
                    <root-alter>-1</root-alter>
                </root>
                <kind text="">major</kind>
            </harmony>
            <note default-y="-10.00" default-x="13.39">
                <pitch>
                    <step>D</step>
                    <octave>5</octave>
                </pitch>
                <duration>12</duration>
                <voice>1</voice>
                <type>quarter</type>
                <stem>down</stem>
                <lyric number="1">
                    <syllabic>middle</syllabic>
                    <text>lu</text>
                </lyric>
            </note>
            <harmony print-frame="no">
                <root>
                    <root-step>F</root-step>
                </root>
                <kind text="">major</kind>
            </harmony>
            <note default-y="-15.00" default-x="76.25">
                <pitch>
                    <step>C</step>
                    <octave>5</octave>
                </pitch>
                <duration>12</duration>
                <voice>1</voice>
                <type>quarter</type>
                <stem>down</stem>
                <lyric number="1">
                    <syllabic>end</syllabic>
                    <text>jah,</text>
                </lyric>
            </note>
            <note default-y="-25.00" default-x="139.12">
                <pitch>
                    <step>A</step>
                    <octave>4</octave>
                </pitch>
                <duration>9</duration>
                <voice>1</voice>
                <type>eighth</type>
                <dot/>
                <stem>up</stem>
                <beam number="1">begin</beam>
                <lyric number="1">
                    <syllabic>single</syllabic>
                    <text>bum</text>
                </lyric>
            </note>
            <note default-y="-25.00" default-x="194.87">
                <pitch>
                    <step>A</step>
                    <octave>4</octave>
                </pitch>
                <duration>3</duration>
                <voice>1</voice>
                <type>16th</type>
                <stem>up</stem>
                <beam number="1">end</beam>
                <beam number="2">backward hook</beam>
                <lyric number="1">
                    <syllabic>begin</syllabic>
                    <text>a</text>
                </lyric>
            </note>
        </measure>
        <measure width="208.75" number="13">
            <harmony print-frame="no">
                <root>
                    <root-step>C</root-step>
                </root>
                <kind text="7">dominant</kind>
            </harmony>
            <note default-y="-30.00" default-x="26.87">
                <pitch>
                    <step>G</step>
                    <octave>4</octave>
                </pitch>
                <duration>24</duration>
                <voice>1</voice>
                <type>half</type>
                <stem>up</stem>
                <lyric number="1">
                    <syllabic>end</syllabic>
                    <text>gain.</text>
                </lyric>
            </note>
            <note default-y="-15.00" default-x="114.65">
                <pitch>
                    <step>C</step>
                    <octave>5</octave>
                </pitch>
                <duration>9</duration>
                <voice>1</voice>
                <type>eighth</type>
                <dot/>
                <stem>down</stem>
                <beam number="1">begin</beam>
                <lyric number="1">
                    <syllabic>begin</syllabic>
                    <text>Hal</text>
                </lyric>
            </note>
            <note default-y="-15.00" default-x="175.81">
                <pitch>
                    <step>C</step>
                    <octave>5</octave>
                </pitch>
                <duration>3</duration>
                <voice>1</voice>
                <type>16th</type>
                <stem>down</stem>
                <beam number="1">end</beam>
                <beam number="2">backward hook</beam>
                <lyric number="1">
                    <syllabic>middle</syllabic>
                    <text>le</text>
                </lyric>
            </note>
        </measure>
        <measure width="363.02" number="14">
            <print new-system="yes">
                <system-layout>
                    <system-margins>
                        <left-margin>46.81</left-margin>
                        <right-margin>0.00</right-margin>
                    </system-margins>
                    <system-distance>105.00</system-distance>
                </system-layout>
            </print>
            <harmony print-frame="no">
                <root>
                    <root-step>B</root-step>
                    <root-alter>-1</root-alter>
                </root>
                <kind text="">major</kind>
            </harmony>
            <note default-y="-10.00" default-x="72.14">
                <pitch>
                    <step>D</step>
                    <octave>5</octave>
                </pitch>
                <duration>12</duration>
                <voice>1</voice>
                <type>quarter</type>
                <stem>down</stem>
                <lyric number="1">
                    <syllabic>middle</syllabic>
                    <text>lu</text>
                </lyric>
            </note>
            <harmony print-frame="no">
                <root>
                    <root-step>F</root-step>
                </root>
                <kind text="">major</kind>
            </harmony>
            <note default-y="-15.00" default-x="153.91">
                <pitch>
                    <step>C</step>
                    <octave>5</octave>
                </pitch>
                <duration>12</duration>
                <voice>1</voice>
                <type>quarter</type>
                <stem>down</stem>
                <lyric number="1">
                    <syllabic>end</syllabic>
                    <text>jah,</text>
                </lyric>
            </note>
            <note default-y="-25.00" default-x="235.68">
                <pitch>
                    <step>A</step>
                    <octave>4</octave>
                </pitch>
                <duration>4</duration>
                <voice>1</voice>
                <type>eighth</type>
                <time-modification>
                    <actual-notes>3</actual-notes>
                    <normal-notes>2</normal-notes>
                </time-modification>
                <stem>up</stem>
                <beam number="1">begin</beam>
                <notations>
                    <tuplet type="start" bracket="no"/>
                </notations>
                <lyric number="1">
                    <syllabic>single</syllabic>
                    <text>give</text>
                </lyric>
            </note>
            <note default-y="-25.00" default-x="277.60">
                <pitch>
                    <step>A</step>
                    <octave>4</octave>
                </pitch>
                <duration>4</duration>
                <voice>1</voice>
                <type>eighth</type>
                <time-modification>
                    <actual-notes>3</actual-notes>
                    <normal-notes>2</normal-notes>
                </time-modification>
                <stem>up</stem>
                <beam number="1">continue</beam>
                <lyric number="1">
                    <syllabic>single</syllabic>
                    <text>us</text>
                </lyric>
            </note>
            <note default-y="-30.00" default-x="319.51">
                <pitch>
                    <step>G</step>
                    <octave>4</octave>
                </pitch>
                <duration>4</duration>
                <voice>1</voice>
                <type>eighth</type>
                <time-modification>
                    <actual-notes>3</actual-notes>
                    <normal-notes>2</normal-notes>
                </time-modification>
                <stem>up</stem>
                <beam number="1">end</beam>
                <notations>
                    <tuplet type="stop"/>
                </notations>
                <lyric number="1">
                    <syllabic>single</syllabic>
                    <text>a</text>
                </lyric>
            </note>
        </measure>
        <measure width="280.46" number="15">
            <note default-y="-35.00" default-x="26.56">
                <pitch>
                    <step>F</step>
                    <octave>4</octave>
                </pitch>
                <duration>12</duration>
                <voice>1</voice>
                <type>quarter</type>
                <stem>up</stem>
                <lyric number="1">
                    <syllabic>begin</syllabic>
                    <text>hand</text>
                </lyric>
            </note>
            <note default-y="-35.00" default-x="104.19">
                <pitch>
                    <step>F</step>
                    <octave>4</octave>
                </pitch>
                <duration>12</duration>
                <voice>1</voice>
                <type>quarter</type>
                <stem>up</stem>
                <lyric number="1">
                    <syllabic>end</syllabic>
                    <text>out</text>
                </lyric>
            </note>
            <note default-y="-25.00" default-x="181.82">
                <pitch>
                    <step>A</step>
                    <octave>4</octave>
                </pitch>
                <duration>6</duration>
                <voice>1</voice>
                <type>eighth</type>
                <stem>up</stem>
                <beam number="1">begin</beam>
                <lyric number="1">
                    <syllabic>single</syllabic>
                    <text>to</text>
                </lyric>
            </note>
            <note default-y="-25.00" default-x="230.34">
                <pitch>
                    <step>A</step>
                    <octave>4</octave>
                </pitch>
                <duration>6</duration>
                <voice>1</voice>
                <type>eighth</type>
                <stem>up</stem>
                <beam number="1">end</beam>
                <lyric number="1">
                    <syllabic>begin</syllabic>
                    <text>re</text>
                </lyric>
            </note>
        </measure>
        <measure width="238.07" number="16">
            <harmony print-frame="no">
                <root>
                    <root-step>C</root-step>
                </root>
                <kind text="7">dominant</kind>
            </harmony>
            <note default-y="-20.00" default-x="24.05">
                <pitch>
                    <step>B</step>
                    <alter>-1</alter>
                    <octave>4</octave>
                </pitch>
                <duration>12</duration>
                <voice>1</voice>
                <type>quarter</type>
                <stem>down</stem>
                <lyric number="1">
                    <syllabic>end</syllabic>
                    <text>vive</text>
                </lyric>
            </note>
            <note default-y="-25.00" default-x="94.86">
                <pitch>
                    <step>A</step>
                    <octave>4</octave>
                </pitch>
                <duration>12</duration>
                <voice>1</voice>
                <type>quarter</type>
                <stem>up</stem>
                <lyric number="1">
                    <syllabic>single</syllabic>
                    <text>us</text>
                </lyric>
            </note>
            <note default-y="-30.00" default-x="165.66">
                <pitch>
                    <step>G</step>
                    <octave>4</octave>
                </pitch>
                <duration>12</duration>
                <voice>1</voice>
                <type>quarter</type>
                <stem>up</stem>
                <lyric number="1">
                    <syllabic>begin</syllabic>
                    <text>a</text>
                </lyric>
            </note>
        </measure>
        <measure width="148.80" number="17">
            <harmony print-frame="no">
                <root>
                    <root-step>F</root-step>
                </root>
                <kind text="">major</kind>
            </harmony>
            <note default-y="-35.00" default-x="26.87">
                <pitch>
                    <step>F</step>
                    <octave>4</octave>
                </pitch>
                <duration>24</duration>
                <voice>1</voice>
                <type>half</type>
                <stem>up</stem>
                <notations>
                    <fermata type="upright"></fermata>
                </notations>
                <lyric number="1">
                    <syllabic>end</syllabic>
                    <text>gain.</text>
                </lyric>
            </note>
            <barline location="right">
                <bar-style>light-heavy</bar-style>
                <repeat direction="backward"/>
            </barline>
        </measure>
    </part>
</score-partwise>
