<?xml version="1.0" encoding="UTF-8"?>
<!DOCTYPE score-partwise PUBLIC "-//Recordare//DTD MusicXML 2.0 Partwise//EN" "http://www.musicxml.org/dtds/partwise.dtd">
<score-partwise version="2.0">
    <work>
        <work-number></work-number>
        <work-title></work-title>
    </work>
    <movement-number></movement-number>
    <movement-title>The Cruel War</movement-title>
    <identification>
        <creator type="composer">Traditional</creator>
        <creator type="poet">Traditional</creator>
        <rights>Public Domain</rights>
        <encoding>
            <software>MuseScore 1.2</software>
            <encoding-date>2013-02-07</encoding-date>
            <software>ProxyMusic 2.0 c</software>
        </encoding>
        <source>http://wikifonia.org/node/20557/revisions/27173/view</source>
    </identification>
    <defaults>
        <scaling>
            <millimeters>6</millimeters>
            <tenths>40</tenths>
        </scaling>
        <page-layout>
            <page-height>1862.67</page-height>
            <page-width>1439.33</page-width>
            <page-margins type="both">
                <left-margin>66.6667</left-margin>
                <right-margin>66.6667</right-margin>
                <top-margin>66.6667</top-margin>
                <bottom-margin>133.333</bottom-margin>
            </page-margins>
        </page-layout>
    </defaults>
    <credit page="1">
        <credit-words font-size="24" default-y="1796" default-x="719.667" justify="center" valign="top">The Cruel War</credit-words>
    </credit>
    <credit page="1">
        <credit-words font-size="12" default-y="1734.81" default-x="1372.67" justify="right" valign="top">Traditional</credit-words>
    </credit>
    <part-list>
        <score-part id="P1">
            <part-name></part-name>
            <score-instrument id="P1-I3">
                <instrument-name></instrument-name>
            </score-instrument>
            <midi-instrument id="P1-I3">
                <midi-channel>1</midi-channel>
                <midi-program>41</midi-program>
                <volume>78.7402</volume>
                <pan>0</pan>
            </midi-instrument>
        </score-part>
    </part-list>
    <part id="P1">
        <measure width="167.90" number="0" implicit="yes">
            <print>
                <system-layout>
                    <system-margins>
                        <left-margin>3.00</left-margin>
                        <right-margin>0.00</right-margin>
                    </system-margins>
                    <top-system-distance>240.00</top-system-distance>
                </system-layout>
            </print>
            <attributes>
                <divisions>2</divisions>
                <key>
                    <fifths>1</fifths>
                    <mode>major</mode>
                </key>
                <time>
                    <beats>4</beats>
                    <beat-type>4</beat-type>
                </time>
                <clef>
                    <sign>G</sign>
                    <line>2</line>
                </clef>
            </attributes>
            <note default-y="-45.00" default-x="108.89">
                <pitch>
                    <step>D</step>
                    <octave>4</octave>
                </pitch>
                <duration>2</duration>
                <voice>1</voice>
                <type>quarter</type>
                <stem>up</stem>
                <lyric number="1">
                    <syllabic>single</syllabic>
                    <text>The</text>
                </lyric>
                <lyric number="2">
                    <syllabic>begin</syllabic>
                    <text>To</text>
                </lyric>
                <lyric number="3">
                    <syllabic>single</syllabic>
                    <text>I'll</text>
                </lyric>
                <lyric number="4">
                    <syllabic>single</syllabic>
                    <text>Oh</text>
                </lyric>
            </note>
        </measure>
        <measure width="267.54" number="1">
            <harmony print-frame="no">
                <root>
                    <root-step>G</root-step>
                </root>
                <kind text="">major</kind>
            </harmony>
            <note default-y="-45.00" default-x="29.26">
                <pitch>
                    <step>D</step>
                    <octave>4</octave>
                </pitch>
                <duration>4</duration>
                <voice>1</voice>
                <type>half</type>
                <stem>up</stem>
                <lyric number="1">
                    <syllabic>single</syllabic>
                    <text>cruel</text>
                </lyric>
                <lyric number="2">
                    <syllabic>middle</syllabic>
                    <text>mor</text>
                </lyric>
                <lyric number="3">
                    <syllabic>single</syllabic>
                    <text>tie</text>
                </lyric>
                <lyric number="4">
                    <syllabic>begin</syllabic>
                    <text>John</text>
                </lyric>
            </note>
            <note default-y="-45.00" default-x="134.45">
                <pitch>
                    <step>D</step>
                    <octave>4</octave>
                </pitch>
                <duration>2</duration>
                <voice>1</voice>
                <type>quarter</type>
                <stem>up</stem>
                <lyric number="1">
                    <syllabic>single</syllabic>
                    <text>war</text>
                </lyric>
                <lyric number="2">
                    <syllabic>end</syllabic>
                    <text>row</text>
                </lyric>
                <lyric number="3">
                    <syllabic>single</syllabic>
                    <text>back</text>
                </lyric>
                <lyric number="4">
                    <syllabic>end</syllabic>
                    <text>ny,</text>
                </lyric>
            </note>
            <note default-y="-40.00" default-x="200.20">
                <pitch>
                    <step>E</step>
                    <octave>4</octave>
                </pitch>
                <duration>2</duration>
                <voice>1</voice>
                <type>quarter</type>
                <stem>up</stem>
                <lyric number="1">
                    <syllabic>single</syllabic>
                    <text>is</text>
                </lyric>
                <lyric number="2">
                    <syllabic>single</syllabic>
                    <text>is</text>
                </lyric>
                <lyric number="3">
                    <syllabic>single</syllabic>
                    <text>my</text>
                </lyric>
                <lyric number="4">
                    <syllabic>single</syllabic>
                    <text>oh</text>
                </lyric>
            </note>
        </measure>
        <measure width="283.20" number="2">
            <harmony print-frame="no">
                <root>
                    <root-step>E</root-step>
                </root>
                <kind text="m">minor</kind>
            </harmony>
            <note default-y="-30.00" default-x="27.96">
                <pitch>
                    <step>G</step>
                    <octave>4</octave>
                </pitch>
                <duration>2</duration>
                <voice>1</voice>
                <type>quarter</type>
                <stem>up</stem>
                <lyric number="1">
                    <syllabic>begin</syllabic>
                    <text>rag</text>
                </lyric>
                <lyric number="2">
                    <syllabic>begin</syllabic>
                    <text>Sun</text>
                </lyric>
                <lyric number="3">
                    <syllabic>single</syllabic>
                    <text>hair,</text>
                </lyric>
                <lyric number="4">
                    <syllabic>begin</syllabic>
                    <text>John</text>
                </lyric>
            </note>
            <note default-y="-30.00" default-x="98.42">
                <pitch>
                    <step>G</step>
                    <octave>4</octave>
                </pitch>
                <duration>4</duration>
                <voice>1</voice>
                <type>half</type>
                <stem>up</stem>
                <lyric number="1">
                    <syllabic>end</syllabic>
                    <text>ing,</text>
                </lyric>
                <lyric number="2">
                    <syllabic>end</syllabic>
                    <text>day,</text>
                </lyric>
                <lyric number="4">
                    <syllabic>end</syllabic>
                    <text>ny,</text>
                </lyric>
            </note>
            <note default-y="-30.00" default-x="211.14">
                <pitch>
                    <step>G</step>
                    <octave>4</octave>
                </pitch>
                <duration>2</duration>
                <voice>1</voice>
                <type>quarter</type>
                <stem>up</stem>
                <lyric number="3">
                    <syllabic>single</syllabic>
                    <text>men's</text>
                </lyric>
                <lyric number="4">
                    <syllabic>single</syllabic>
                    <text>I</text>
                </lyric>
            </note>
        </measure>
        <measure width="309.42" number="3">
            <harmony print-frame="no">
                <root>
                    <root-step>A</root-step>
                </root>
                <kind text="m">minor</kind>
            </harmony>
            <note default-y="-25.00" default-x="27.96">
                <pitch>
                    <step>A</step>
                    <octave>4</octave>
                </pitch>
                <duration>3</duration>
                <voice>1</voice>
                <type>quarter</type>
                <dot/>
                <stem>up</stem>
                <lyric number="1">
                    <syllabic>begin</syllabic>
                    <text>John</text>
                </lyric>
                <lyric number="2">
                    <syllabic>begin</syllabic>
                    <text>Mon</text>
                </lyric>
                <lyric number="3">
                    <syllabic>begin</syllabic>
                    <text>clo</text>
                </lyric>
                <lyric number="4">
                    <syllabic>single</syllabic>
                    <text>feel</text>
                </lyric>
            </note>
            <note default-y="-20.00" default-x="115.38">
                <pitch>
                    <step>B</step>
                    <octave>4</octave>
                </pitch>
                <duration>1</duration>
                <voice>1</voice>
                <type>eighth</type>
                <stem>down</stem>
                <lyric number="1">
                    <syllabic>end</syllabic>
                    <text>ny</text>
                </lyric>
                <lyric number="2">
                    <syllabic>end</syllabic>
                    <text>day</text>
                </lyric>
                <lyric number="3">
                    <syllabic>end</syllabic>
                    <text>thing</text>
                </lyric>
                <lyric number="4">
                    <syllabic>single</syllabic>
                    <text>you</text>
                </lyric>
            </note>
            <note default-y="-25.00" default-x="164.44">
                <pitch>
                    <step>A</step>
                    <octave>4</octave>
                </pitch>
                <duration>2</duration>
                <voice>1</voice>
                <type>quarter</type>
                <stem>up</stem>
                <lyric number="1">
                    <syllabic>single</syllabic>
                    <text>has</text>
                </lyric>
                <lyric number="2">
                    <syllabic>single</syllabic>
                    <text>is</text>
                </lyric>
                <lyric number="3">
                    <syllabic>single</syllabic>
                    <text>I'll</text>
                </lyric>
                <lyric number="4">
                    <syllabic>single</syllabic>
                    <text>are</text>
                </lyric>
            </note>
            <note default-y="-25.00" default-x="236.13">
                <pitch>
                    <step>A</step>
                    <octave>4</octave>
                </pitch>
                <duration>2</duration>
                <voice>1</voice>
                <type>quarter</type>
                <stem>up</stem>
                <lyric number="1">
                    <syllabic>single</syllabic>
                    <text>to</text>
                </lyric>
                <lyric number="2">
                    <syllabic>single</syllabic>
                    <text>the</text>
                </lyric>
                <lyric number="3">
                    <syllabic>single</syllabic>
                    <text>put</text>
                </lyric>
                <lyric number="4">
                    <syllabic>begin</syllabic>
                    <text>un</text>
                </lyric>
            </note>
        </measure>
        <measure width="274.93" number="4">
            <harmony print-frame="no">
                <root>
                    <root-step>B</root-step>
                </root>
                <kind text="">major</kind>
            </harmony>
            <note default-y="-20.00" default-x="30.94">
                <pitch>
                    <step>B</step>
                    <octave>4</octave>
                </pitch>
                <duration>4</duration>
                <voice>1</voice>
                <type>half</type>
                <stem>down</stem>
                <lyric number="1">
                    <syllabic>single</syllabic>
                    <text>fight.</text>
                </lyric>
                <lyric number="2">
                    <syllabic>single</syllabic>
                    <text>day</text>
                </lyric>
                <lyric number="3">
                    <syllabic>single</syllabic>
                    <text>on,</text>
                </lyric>
                <lyric number="4">
                    <syllabic>end</syllabic>
                    <text>kind,</text>
                </lyric>
            </note>
            <note default-y="-20.00" default-x="138.67">
                <pitch>
                    <step>B</step>
                    <octave>4</octave>
                </pitch>
                <duration>2</duration>
                <voice>1</voice>
                <type>quarter</type>
                <stem>down</stem>
                <lyric number="2">
                    <syllabic>single</syllabic>
                    <text>that</text>
                </lyric>
            </note>
            <note default-y="-25.00" default-x="206.00">
                <pitch>
                    <step>A</step>
                    <octave>4</octave>
                </pitch>
                <duration>2</duration>
                <voice>1</voice>
                <type>quarter</type>
                <stem>up</stem>
                <lyric number="1">
                    <syllabic>single</syllabic>
                    <text>I</text>
                </lyric>
                <lyric number="2">
                    <syllabic>single</syllabic>
                    <text>your</text>
                </lyric>
                <lyric number="3">
                    <syllabic>single</syllabic>
                    <text>I'll</text>
                </lyric>
                <lyric number="4">
                    <syllabic>single</syllabic>
                    <text>I</text>
                </lyric>
            </note>
        </measure>
        <measure width="216.64" number="5">
            <print new-system="yes">
                <system-layout>
                    <system-margins>
                        <left-margin>3.00</left-margin>
                        <right-margin>-0.00</right-margin>
                    </system-margins>
                    <system-distance>191.12</system-distance>
                </system-layout>
            </print>
            <harmony print-frame="no">
                <root>
                    <root-step>C</root-step>
                </root>
                <kind text="">major</kind>
            </harmony>
            <note default-y="-30.00" default-x="28.60">
                <pitch>
                    <step>G</step>
                    <octave>4</octave>
                </pitch>
                <duration>4</duration>
                <voice>1</voice>
                <type>half</type>
                <stem>up</stem>
                <lyric number="1">
                    <syllabic>single</syllabic>
                    <text>want</text>
                </lyric>
                <lyric number="2">
                    <syllabic>begin</syllabic>
                    <text>cap</text>
                </lyric>
                <lyric number="3">
                    <syllabic>single</syllabic>
                    <text>pass</text>
                </lyric>
                <lyric number="4">
                    <syllabic>single</syllabic>
                    <text>love</text>
                </lyric>
            </note>
            <note default-y="-30.00" default-x="111.46">
                <pitch>
                    <step>G</step>
                    <octave>4</octave>
                </pitch>
                <duration>2</duration>
                <voice>1</voice>
                <type>quarter</type>
                <stem>up</stem>
                <lyric number="1">
                    <syllabic>single</syllabic>
                    <text>to</text>
                </lyric>
                <lyric number="2">
                    <syllabic>end</syllabic>
                    <text>tain</text>
                </lyric>
                <lyric number="3">
                    <syllabic>single</syllabic>
                    <text>as</text>
                </lyric>
                <lyric number="4">
                    <syllabic>single</syllabic>
                    <text>you</text>
                </lyric>
            </note>
            <note default-y="-35.00" default-x="163.25">
                <pitch>
                    <step>F</step>
                    <alter>1</alter>
                    <octave>4</octave>
                </pitch>
                <duration>2</duration>
                <voice>1</voice>
                <type>quarter</type>
                <stem>up</stem>
                <lyric number="1">
                    <syllabic>single</syllabic>
                    <text>be</text>
                </lyric>
                <lyric number="2">
                    <syllabic>single</syllabic>
                    <text>will</text>
                </lyric>
                <lyric number="3">
                    <syllabic>single</syllabic>
                    <text>your</text>
                </lyric>
                <lyric number="4">
                    <syllabic>single</syllabic>
                    <text>far</text>
                </lyric>
            </note>
        </measure>
        <measure width="226.54" number="6">
            <harmony print-frame="no">
                <root>
                    <root-step>A</root-step>
                </root>
                <kind text="m">minor</kind>
            </harmony>
            <note default-y="-40.00" default-x="26.61">
                <pitch>
                    <step>E</step>
                    <octave>4</octave>
                </pitch>
                <duration>2</duration>
                <voice>1</voice>
                <type>quarter</type>
                <stem>up</stem>
                <lyric number="1">
                    <syllabic>single</syllabic>
                    <text>with</text>
                </lyric>
                <lyric number="2">
                    <syllabic>single</syllabic>
                    <text>call</text>
                </lyric>
                <lyric number="3">
                    <syllabic>begin</syllabic>
                    <text>com</text>
                </lyric>
                <lyric number="4">
                    <syllabic>begin</syllabic>
                    <text>bet</text>
                </lyric>
            </note>
            <note default-y="-40.00" default-x="81.70">
                <pitch>
                    <step>E</step>
                    <octave>4</octave>
                </pitch>
                <duration>4</duration>
                <voice>1</voice>
                <type>half</type>
                <stem>up</stem>
                <lyric number="1">
                    <syllabic>single</syllabic>
                    <text>him</text>
                </lyric>
                <lyric number="2">
                    <syllabic>single</syllabic>
                    <text>you</text>
                </lyric>
                <lyric number="3">
                    <syllabic>end</syllabic>
                    <text>rade,</text>
                </lyric>
                <lyric number="4">
                    <syllabic>end</syllabic>
                    <text>ter</text>
                </lyric>
            </note>
            <note default-y="-40.00" default-x="169.85">
                <pitch>
                    <step>E</step>
                    <octave>4</octave>
                </pitch>
                <duration>2</duration>
                <voice>1</voice>
                <type>quarter</type>
                <stem>up</stem>
                <lyric number="1">
                    <syllabic>single</syllabic>
                    <text>from</text>
                </lyric>
                <lyric number="2">
                    <syllabic>single</syllabic>
                    <text>and</text>
                </lyric>
                <lyric number="3">
                    <syllabic>single</syllabic>
                    <text>as</text>
                </lyric>
                <lyric number="4">
                    <syllabic>single</syllabic>
                    <text>than</text>
                </lyric>
            </note>
        </measure>
        <measure width="241.78" number="7">
            <harmony print-frame="no">
                <root>
                    <root-step>G</root-step>
                </root>
                <kind text="">major</kind>
            </harmony>
            <note default-y="-45.00" default-x="30.60">
                <pitch>
                    <step>D</step>
                    <octave>4</octave>
                </pitch>
                <duration>4</duration>
                <voice>1</voice>
                <type>half</type>
                <stem>up</stem>
                <lyric number="1">
                    <syllabic>begin</syllabic>
                    <text>morn</text>
                </lyric>
                <lyric number="2">
                    <syllabic>single</syllabic>
                    <text>you</text>
                </lyric>
                <lyric number="3">
                    <syllabic>single</syllabic>
                    <text>we</text>
                </lyric>
                <lyric number="4">
                    <syllabic>single</syllabic>
                    <text>all</text>
                </lyric>
            </note>
            <harmony print-frame="no">
                <root>
                    <root-step>C</root-step>
                </root>
                <kind text="">major</kind>
            </harmony>
            <note default-y="-40.00" default-x="123.29">
                <pitch>
                    <step>E</step>
                    <octave>4</octave>
                </pitch>
                <duration>2</duration>
                <voice>1</voice>
                <type>quarter</type>
                <stem>up</stem>
                <lyric number="1">
                    <syllabic>end</syllabic>
                    <text>ing</text>
                </lyric>
                <lyric number="2">
                    <syllabic>single</syllabic>
                    <text>must</text>
                </lyric>
                <lyric number="3">
                    <syllabic>single</syllabic>
                    <text>march</text>
                </lyric>
                <lyric number="4">
                    <syllabic>single</syllabic>
                    <text>of</text>
                </lyric>
            </note>
            <note default-y="-30.00" default-x="182.25">
                <pitch>
                    <step>G</step>
                    <octave>4</octave>
                </pitch>
                <duration>2</duration>
                <voice>1</voice>
                <type>quarter</type>
                <stem>up</stem>
                <lyric number="1">
                    <syllabic>single</syllabic>
                    <text>til</text>
                </lyric>
                <lyric number="2">
                    <syllabic>begin</syllabic>
                    <text>o</text>
                </lyric>
                <lyric number="3">
                    <syllabic>begin</syllabic>
                    <text>a</text>
                </lyric>
                <lyric number="4">
                    <syllabic>begin</syllabic>
                    <text>man</text>
                </lyric>
            </note>
        </measure>
        <measure width="184.11" number="8">
            <harmony print-frame="no">
                <root>
                    <root-step>G</root-step>
                </root>
                <kind text="">major</kind>
            </harmony>
            <note default-y="-30.00" default-x="32.94">
                <pitch>
                    <step>G</step>
                    <octave>4</octave>
                </pitch>
                <duration>6</duration>
                <voice>1</voice>
                <type>half</type>
                <dot/>
                <stem>up</stem>
                <lyric number="1">
                    <syllabic>single</syllabic>
                    <text>night.</text>
                </lyric>
                <lyric number="2">
                    <syllabic>end</syllabic>
                    <text>bey.</text>
                </lyric>
                <lyric number="3">
                    <syllabic>end</syllabic>
                    <text>long.</text>
                </lyric>
                <lyric number="4">
                    <syllabic>end</syllabic>
                    <text>kind.</text>
                </lyric>
            </note>
            <note default-y="-45.00" default-x="131.83">
                <pitch>
                    <step>D</step>
                    <octave>4</octave>
                </pitch>
                <duration>2</duration>
                <voice>1</voice>
                <type>quarter</type>
                <stem>up</stem>
                <lyric number="1">
                    <syllabic>single</syllabic>
                    <text>I</text>
                </lyric>
                <lyric number="2">
                    <syllabic>single</syllabic>
                    <text>Your</text>
                </lyric>
                <lyric number="3">
                    <syllabic>single</syllabic>
                    <text>I'll</text>
                </lyric>
                <lyric number="4">
                    <syllabic>single</syllabic>
                    <text>I</text>
                </lyric>
            </note>
        </measure>
        <measure width="216.64" number="9">
            <note default-y="-45.00" default-x="28.60">
                <pitch>
                    <step>D</step>
                    <octave>4</octave>
                </pitch>
                <duration>4</duration>
                <voice>1</voice>
                <type>half</type>
                <stem>up</stem>
                <lyric number="1">
                    <syllabic>single</syllabic>
                    <text>want</text>
                </lyric>
                <lyric number="2">
                    <syllabic>begin</syllabic>
                    <text>cap</text>
                </lyric>
                <lyric number="3">
                    <syllabic>single</syllabic>
                    <text>pass</text>
                </lyric>
                <lyric number="4">
                    <syllabic>single</syllabic>
                    <text>love</text>
                </lyric>
            </note>
            <note default-y="-45.00" default-x="111.46">
                <pitch>
                    <step>D</step>
                    <octave>4</octave>
                </pitch>
                <duration>2</duration>
                <voice>1</voice>
                <type>quarter</type>
                <stem>up</stem>
                <lyric number="1">
                    <syllabic>single</syllabic>
                    <text>to</text>
                </lyric>
                <lyric number="2">
                    <syllabic>end</syllabic>
                    <text>tain</text>
                </lyric>
                <lyric number="3">
                    <syllabic>single</syllabic>
                    <text>as</text>
                </lyric>
                <lyric number="4">
                    <syllabic>single</syllabic>
                    <text>you</text>
                </lyric>
            </note>
            <note default-y="-40.00" default-x="163.25">
                <pitch>
                    <step>E</step>
                    <octave>4</octave>
                </pitch>
                <duration>2</duration>
                <voice>1</voice>
                <type>quarter</type>
                <stem>up</stem>
                <lyric number="1">
                    <syllabic>single</syllabic>
                    <text>be</text>
                </lyric>
                <lyric number="2">
                    <syllabic>single</syllabic>
                    <text>will</text>
                </lyric>
                <lyric number="3">
                    <syllabic>single</syllabic>
                    <text>your</text>
                </lyric>
                <lyric number="4">
                    <syllabic>single</syllabic>
                    <text>far</text>
                </lyric>
            </note>
        </measure>
        <measure width="217.28" number="10">
            <harmony print-frame="no">
                <root>
                    <root-step>E</root-step>
                </root>
                <kind text="m">minor</kind>
            </harmony>
            <note default-y="-30.00" default-x="26.61">
                <pitch>
                    <step>G</step>
                    <octave>4</octave>
                </pitch>
                <duration>2</duration>
                <voice>1</voice>
                <type>quarter</type>
                <stem>up</stem>
                <lyric number="1">
                    <syllabic>single</syllabic>
                    <text>with</text>
                </lyric>
                <lyric number="2">
                    <syllabic>single</syllabic>
                    <text>call</text>
                </lyric>
                <lyric number="3">
                    <syllabic>begin</syllabic>
                    <text>com</text>
                </lyric>
                <lyric number="4">
                    <syllabic>begin</syllabic>
                    <text>bet</text>
                </lyric>
            </note>
            <note default-y="-30.00" default-x="79.13">
                <pitch>
                    <step>G</step>
                    <octave>4</octave>
                </pitch>
                <duration>4</duration>
                <voice>1</voice>
                <type>half</type>
                <stem>up</stem>
                <lyric number="1">
                    <syllabic>single</syllabic>
                    <text>him,</text>
                </lyric>
                <lyric number="2">
                    <syllabic>single</syllabic>
                    <text>you,</text>
                </lyric>
                <lyric number="3">
                    <syllabic>end</syllabic>
                    <text>rade</text>
                </lyric>
                <lyric number="4">
                    <syllabic>end</syllabic>
                    <text>ter</text>
                </lyric>
            </note>
            <note default-y="-30.00" default-x="163.16">
                <pitch>
                    <step>G</step>
                    <octave>4</octave>
                </pitch>
                <duration>2</duration>
                <voice>1</voice>
                <type>quarter</type>
                <stem>up</stem>
                <lyric number="1">
                    <syllabic>single</syllabic>
                    <text>it</text>
                </lyric>
                <lyric number="2">
                    <syllabic>single</syllabic>
                    <text>it</text>
                </lyric>
                <lyric number="3">
                    <syllabic>begin</syllabic>
                    <text>no</text>
                </lyric>
                <lyric number="4">
                    <syllabic>single</syllabic>
                    <text>than</text>
                </lyric>
            </note>
        </measure>
        <measure width="308.00" number="11">
            <print new-system="yes">
                <system-layout>
                    <system-margins>
                        <left-margin>3.00</left-margin>
                        <right-margin>-0.00</right-margin>
                    </system-margins>
                    <system-distance>191.12</system-distance>
                </system-layout>
            </print>
            <harmony print-frame="no">
                <root>
                    <root-step>A</root-step>
                </root>
                <kind text="m">minor</kind>
            </harmony>
            <note default-y="-25.00" default-x="39.90">
                <pitch>
                    <step>A</step>
                    <octave>4</octave>
                </pitch>
                <duration>3</duration>
                <voice>1</voice>
                <type>quarter</type>
                <dot/>
                <stem>up</stem>
                <lyric number="1">
                    <syllabic>single</syllabic>
                    <text>grieves</text>
                </lyric>
                <lyric number="2">
                    <syllabic>single</syllabic>
                    <text>grieves</text>
                </lyric>
                <lyric number="3">
                    <syllabic>end</syllabic>
                    <text>one</text>
                </lyric>
                <lyric number="4">
                    <syllabic>single</syllabic>
                    <text>words</text>
                </lyric>
            </note>
            <note default-y="-20.00" default-x="124.22">
                <pitch>
                    <step>B</step>
                    <octave>4</octave>
                </pitch>
                <duration>1</duration>
                <voice>1</voice>
                <type>eighth</type>
                <stem>down</stem>
                <lyric number="3">
                    <syllabic>single</syllabic>
                    <text>will</text>
                </lyric>
                <lyric number="4">
                    <syllabic>single</syllabic>
                    <text>can</text>
                </lyric>
            </note>
            <note default-y="-25.00" default-x="168.08">
                <pitch>
                    <step>A</step>
                    <octave>4</octave>
                </pitch>
                <duration>2</duration>
                <voice>1</voice>
                <type>quarter</type>
                <stem>up</stem>
                <lyric number="1">
                    <syllabic>single</syllabic>
                    <text>my</text>
                </lyric>
                <lyric number="2">
                    <syllabic>single</syllabic>
                    <text>my</text>
                </lyric>
                <lyric number="3">
                    <syllabic>begin</syllabic>
                    <text>ev</text>
                </lyric>
                <lyric number="4">
                    <syllabic>single</syllabic>
                    <text>e'er</text>
                </lyric>
            </note>
            <note default-y="-25.00" default-x="237.24">
                <pitch>
                    <step>A</step>
                    <octave>4</octave>
                </pitch>
                <duration>2</duration>
                <voice>1</voice>
                <type>quarter</type>
                <stem>up</stem>
                <lyric number="1">
                    <syllabic>single</syllabic>
                    <text>heart</text>
                </lyric>
                <lyric number="2">
                    <syllabic>single</syllabic>
                    <text>heart</text>
                </lyric>
                <lyric number="3">
                    <syllabic>end</syllabic>
                    <text>er</text>
                </lyric>
                <lyric number="4">
                    <syllabic>begin</syllabic>
                    <text>ex</text>
                </lyric>
            </note>
        </measure>
        <measure width="261.33" number="12">
            <harmony print-frame="no">
                <root>
                    <root-step>B</root-step>
                </root>
                <kind text="">major</kind>
            </harmony>
            <note default-y="-20.00" default-x="34.25">
                <pitch>
                    <step>B</step>
                    <octave>4</octave>
                </pitch>
                <duration>4</duration>
                <voice>1</voice>
                <type>half</type>
                <stem>down</stem>
                <lyric number="1">
                    <syllabic>single</syllabic>
                    <text>so.</text>
                </lyric>
                <lyric number="2">
                    <syllabic>single</syllabic>
                    <text>so.</text>
                </lyric>
                <lyric number="3">
                    <syllabic>single</syllabic>
                    <text>know.</text>
                </lyric>
                <lyric number="4">
                    <syllabic>end</syllabic>
                    <text>press.</text>
                </lyric>
            </note>
            <note default-y="-20.00" default-x="134.46">
                <pitch>
                    <step>B</step>
                    <octave>4</octave>
                </pitch>
                <duration>2</duration>
                <voice>1</voice>
                <type>quarter</type>
                <stem>down</stem>
                <lyric number="1">
                    <syllabic>single</syllabic>
                    <text>Won't</text>
                </lyric>
                <lyric number="2">
                    <syllabic>single</syllabic>
                    <text>Won't</text>
                </lyric>
                <lyric number="3">
                    <syllabic>single</syllabic>
                    <text>Won't</text>
                </lyric>
                <lyric number="4">
                    <syllabic>single</syllabic>
                    <text>Won't</text>
                </lyric>
            </note>
            <note default-y="-25.00" default-x="197.09">
                <pitch>
                    <step>A</step>
                    <octave>4</octave>
                </pitch>
                <duration>2</duration>
                <voice>1</voice>
                <type>quarter</type>
                <stem>up</stem>
                <lyric number="1">
                    <syllabic>single</syllabic>
                    <text>you</text>
                </lyric>
                <lyric number="2">
                    <syllabic>single</syllabic>
                    <text>you</text>
                </lyric>
                <lyric number="3">
                    <syllabic>single</syllabic>
                    <text>you</text>
                </lyric>
                <lyric number="4">
                    <syllabic>single</syllabic>
                    <text>you</text>
                </lyric>
            </note>
        </measure>
        <measure width="189.14" number="13">
            <harmony print-frame="no">
                <root>
                    <root-step>C</root-step>
                </root>
                <kind text="">major</kind>
            </harmony>
            <note default-y="-30.00" default-x="17.31">
                <pitch>
                    <step>G</step>
                    <octave>4</octave>
                </pitch>
                <duration>4</duration>
                <voice>1</voice>
                <type>half</type>
                <stem>up</stem>
                <lyric number="1">
                    <syllabic>single</syllabic>
                    <text>let</text>
                </lyric>
                <lyric number="2">
                    <syllabic>single</syllabic>
                    <text>let</text>
                </lyric>
                <lyric number="3">
                    <syllabic>single</syllabic>
                    <text>let</text>
                </lyric>
                <lyric number="4">
                    <syllabic>single</syllabic>
                    <text>let</text>
                </lyric>
            </note>
            <note default-y="-30.00" default-x="92.97">
                <pitch>
                    <step>G</step>
                    <octave>4</octave>
                </pitch>
                <duration>2</duration>
                <voice>1</voice>
                <type>quarter</type>
                <stem>up</stem>
                <lyric number="1">
                    <syllabic>single</syllabic>
                    <text>me</text>
                </lyric>
                <lyric number="2">
                    <syllabic>single</syllabic>
                    <text>me</text>
                </lyric>
                <lyric number="3">
                    <syllabic>single</syllabic>
                    <text>me</text>
                </lyric>
                <lyric number="4">
                    <syllabic>single</syllabic>
                    <text>me</text>
                </lyric>
            </note>
            <note default-y="-35.00" default-x="140.25">
                <pitch>
                    <step>F</step>
                    <alter>1</alter>
                    <octave>4</octave>
                </pitch>
                <duration>2</duration>
                <voice>1</voice>
                <type>quarter</type>
                <stem>up</stem>
                <lyric number="1">
                    <syllabic>single</syllabic>
                    <text>go</text>
                </lyric>
                <lyric number="2">
                    <syllabic>single</syllabic>
                    <text>go</text>
                </lyric>
                <lyric number="3">
                    <syllabic>single</syllabic>
                    <text>go</text>
                </lyric>
                <lyric number="4">
                    <syllabic>single</syllabic>
                    <text>go</text>
                </lyric>
            </note>
        </measure>
        <measure width="192.41" number="14">
            <harmony print-frame="no">
                <root>
                    <root-step>A</root-step>
                </root>
                <kind text="m">minor</kind>
            </harmony>
            <note default-y="-40.00" default-x="26.61">
                <pitch>
                    <step>E</step>
                    <octave>4</octave>
                </pitch>
                <duration>2</duration>
                <voice>1</voice>
                <type>quarter</type>
                <stem>up</stem>
                <lyric number="1">
                    <syllabic>single</syllabic>
                    <text>with</text>
                </lyric>
                <lyric number="2">
                    <syllabic>single</syllabic>
                    <text>with</text>
                </lyric>
                <lyric number="3">
                    <syllabic>single</syllabic>
                    <text>with</text>
                </lyric>
                <lyric number="4">
                    <syllabic>single</syllabic>
                    <text>with</text>
                </lyric>
            </note>
            <note default-y="-40.00" default-x="82.26">
                <pitch>
                    <step>E</step>
                    <octave>4</octave>
                </pitch>
                <duration>6</duration>
                <voice>1</voice>
                <type>half</type>
                <dot/>
                <stem>up</stem>
                <lyric number="1">
                    <syllabic>single</syllabic>
                    <text>you?</text>
                </lyric>
                <lyric number="2">
                    <syllabic>single</syllabic>
                    <text>you?</text>
                </lyric>
                <lyric number="3">
                    <syllabic>single</syllabic>
                    <text>you?</text>
                </lyric>
                <lyric number="4">
                    <syllabic>single</syllabic>
                    <text>you?</text>
                </lyric>
            </note>
        </measure>
        <measure width="230.71" number="15">
            <harmony print-frame="no">
                <root>
                    <root-step>G</root-step>
                </root>
                <kind text="">major</kind>
            </harmony>
            <note default-y="-45.00" default-x="25.90">
                <pitch>
                    <step>D</step>
                    <octave>4</octave>
                </pitch>
                <duration>4</duration>
                <voice>1</voice>
                <type>half</type>
                <stem>up</stem>
                <lyric number="1">
                    <syllabic>single</syllabic>
                    <text>No,</text>
                </lyric>
                <lyric number="2">
                    <syllabic>single</syllabic>
                    <text>No,</text>
                </lyric>
                <lyric number="3">
                    <syllabic>single</syllabic>
                    <text>No,</text>
                </lyric>
                <lyric number="4">
                    <syllabic>single</syllabic>
                    <text>Yes,</text>
                </lyric>
            </note>
            <harmony print-frame="no">
                <root>
                    <root-step>C</root-step>
                </root>
                <kind text="">major</kind>
            </harmony>
            <note default-y="-40.00" default-x="116.21">
                <pitch>
                    <step>E</step>
                    <octave>4</octave>
                </pitch>
                <duration>2</duration>
                <voice>1</voice>
                <type>quarter</type>
                <stem>up</stem>
                <lyric number="1">
                    <syllabic>single</syllabic>
                    <text>my</text>
                </lyric>
                <lyric number="2">
                    <syllabic>single</syllabic>
                    <text>my</text>
                </lyric>
                <lyric number="3">
                    <syllabic>single</syllabic>
                    <text>my</text>
                </lyric>
                <lyric number="4">
                    <syllabic>single</syllabic>
                    <text>my</text>
                </lyric>
            </note>
            <note default-y="-30.00" default-x="172.66">
                <pitch>
                    <step>G</step>
                    <octave>4</octave>
                </pitch>
                <duration>2</duration>
                <voice>1</voice>
                <type>quarter</type>
                <stem>up</stem>
                <lyric number="1">
                    <syllabic>single</syllabic>
                    <text>love,</text>
                </lyric>
                <lyric number="2">
                    <syllabic>single</syllabic>
                    <text>love,</text>
                </lyric>
                <lyric number="3">
                    <syllabic>single</syllabic>
                    <text>love,</text>
                </lyric>
                <lyric number="4">
                    <syllabic>single</syllabic>
                    <text>love,</text>
                </lyric>
            </note>
        </measure>
        <measure width="121.42" number="16">
            <harmony print-frame="no">
                <root>
                    <root-step>G</root-step>
                </root>
                <kind text="">major</kind>
            </harmony>
            <note default-y="-30.00" default-x="24.30">
                <pitch>
                    <step>G</step>
                    <octave>4</octave>
                </pitch>
                <duration>6</duration>
                <voice>1</voice>
                <type>half</type>
                <dot/>
                <stem>up</stem>
                <lyric number="1">
                    <syllabic>single</syllabic>
                    <text>no.</text>
                </lyric>
                <lyric number="2">
                    <syllabic>single</syllabic>
                    <text>no.</text>
                </lyric>
                <lyric number="3">
                    <syllabic>single</syllabic>
                    <text>no.</text>
                </lyric>
                <lyric number="4">
                    <syllabic>single</syllabic>
                    <text>yes.</text>
                </lyric>
            </note>
            <barline location="right">
                <bar-style>light-heavy</bar-style>
            </barline>
        </measure>
    </part>
</score-partwise>
