<?xml version="1.0" encoding="UTF-8"?>
<!DOCTYPE score-partwise PUBLIC "-//Recordare//DTD MusicXML 2.0 Partwise//EN" "http://www.musicxml.org/dtds/partwise.dtd">
<score-partwise version="2.0">
    <work>
        <work-number></work-number>
        <work-title></work-title>
    </work>
    <movement-number></movement-number>
    <movement-title>Flow Gently Sweet Afton</movement-title>
    <identification>
        <creator type="composer">Trad. Yellow haired Laddie</creator>
        <creator type="poet">Robert Burns</creator>
        <rights>All Rights Reserved</rights>
        <encoding>
            <software>PrintMusic 2010 for Windows</software>
            <software>Dolet Light for PrintMusic 2010</software>
            <encoding-date>2012-06-12</encoding-date>
            <supports value="yes" type="yes" element="print" attribute="new-system"/>
            <supports value="yes" type="yes" element="print" attribute="new-page"/>
            <software>ProxyMusic 2.0 c</software>
        </encoding>
        <source>http://wikifonia.org/node/16395/revisions/21808/view</source>
    </identification>
    <defaults>
        <scaling>
            <millimeters>7.1967</millimeters>
            <tenths>40</tenths>
        </scaling>
        <page-layout>
            <page-height>1650</page-height>
            <page-width>1167</page-width>
            <page-margins type="both">
                <left-margin>70</left-margin>
                <right-margin>70</right-margin>
                <top-margin>88</top-margin>
                <bottom-margin>88</bottom-margin>
            </page-margins>
        </page-layout>
        <system-layout>
            <system-margins>
                <left-margin>0</left-margin>
                <right-margin>0</right-margin>
            </system-margins>
            <system-distance>103</system-distance>
            <top-system-distance>60</top-system-distance>
        </system-layout>
        <appearance>
            <line-width type="stem">0.7487</line-width>
            <line-width type="beam">5</line-width>
            <line-width type="staff">0.7487</line-width>
            <line-width type="light barline">0.7487</line-width>
            <line-width type="heavy barline">5</line-width>
            <line-width type="leger">0.7487</line-width>
            <line-width type="ending">1.4583</line-width>
            <line-width type="wedge">1.4583</line-width>
            <line-width type="enclosure">0.7487</line-width>
            <line-width type="tuplet bracket">0.7487</line-width>
            <note-size type="grace">60</note-size>
            <note-size type="cue">60</note-size>
        </appearance>
        <music-font font-size="20.4" font-family="Maestro"/>
        <word-font font-size="10.2" font-family="Times New Roman"/>
        <lyric-font font-size="10.2" font-family="Times New Roman" name="verse"/>
    </defaults>
    <credit page="1">
        <credit-words font-size="24" default-y="1562" default-x="584" justify="center" valign="top">Flow Gently Sweet Afton</credit-words>
    </credit>
    <part-list>
        <score-part id="P1">
            <part-name print-object="no">MusicXML Part</part-name>
            <score-instrument id="P1-I2">
                <instrument-name>MusicXML Part</instrument-name>
            </score-instrument>
            <midi-instrument id="P1-I2">
                <midi-channel>1</midi-channel>
                <midi-program>24</midi-program>
                <volume>80</volume>
                <pan>0</pan>
            </midi-instrument>
        </score-part>
    </part-list>
    <part id="P1">
        <measure width="261" number="1">
            <print>
                <system-layout>
                    <system-margins>
                        <left-margin>177</left-margin>
                        <right-margin>0</right-margin>
                    </system-margins>
                    <top-system-distance>238</top-system-distance>
                </system-layout>
            </print>
            <attributes>
                <divisions>2</divisions>
                <key>
                    <fifths>-1</fifths>
                    <mode>major</mode>
                </key>
                <time>
                    <beats>3</beats>
                    <beat-type>4</beat-type>
                </time>
                <clef>
                    <sign>G</sign>
                    <line>2</line>
                </clef>
            </attributes>
            <sound tempo="120"/>
            <forward>
                <duration>4</duration>
                <voice>1</voice>
            </forward>
            <note default-x="203">
                <pitch>
                    <step>C</step>
                    <octave>4</octave>
                </pitch>
                <duration>2</duration>
                <voice>1</voice>
                <type>quarter</type>
                <stem default-y="-14">up</stem>
                <lyric default-y="-80" number="1">
                    <syllabic>single</syllabic>
                    <text>1.Flow</text>
                </lyric>
                <lyric default-y="-97" number="2">
                    <syllabic>single</syllabic>
                    <text>2.Thou</text>
                </lyric>
                <lyric default-y="-113" number="3">
                    <syllabic>single</syllabic>
                    <text>3.How</text>
                </lyric>
                <lyric default-y="-130" number="4">
                    <syllabic>single</syllabic>
                    <text>4.How</text>
                </lyric>
                <lyric default-y="-147" number="5">
                    <syllabic>single</syllabic>
                    <text>5.The</text>
                </lyric>
                <lyric default-y="-163" number="6">
                    <syllabic>single</syllabic>
                    <text>6.Flow</text>
                </lyric>
            </note>
        </measure>
        <measure width="292" number="2">
            <harmony default-y="34">
                <root>
                    <root-step>F</root-step>
                </root>
                <kind halign="center" text="">major</kind>
            </harmony>
            <note default-x="28">
                <pitch>
                    <step>F</step>
                    <octave>4</octave>
                </pitch>
                <duration>2</duration>
                <voice>1</voice>
                <type>quarter</type>
                <stem default-y="0.5">up</stem>
                <lyric default-y="-80" number="1">
                    <syllabic>begin</syllabic>
                    <text>gent</text>
                </lyric>
                <lyric default-y="-97" number="2">
                    <syllabic>single</syllabic>
                    <text>stock</text>
                </lyric>
                <lyric default-y="-113" number="3">
                    <syllabic>begin</syllabic>
                    <text>lof</text>
                </lyric>
                <lyric default-y="-130" number="4">
                    <syllabic>begin</syllabic>
                    <text>pleas</text>
                </lyric>
                <lyric default-y="-147" number="5">
                    <syllabic>begin</syllabic>
                    <text>crys</text>
                </lyric>
                <lyric default-y="-163" number="6">
                    <syllabic>begin</syllabic>
                    <text>gent</text>
                </lyric>
            </note>
            <note default-x="109">
                <pitch>
                    <step>A</step>
                    <octave>4</octave>
                </pitch>
                <duration>2</duration>
                <voice>1</voice>
                <type>quarter</type>
                <stem default-y="11">up</stem>
                <lyric default-y="-80" number="1">
                    <syllabic>end</syllabic>
                    <text>ly,</text>
                </lyric>
                <lyric default-y="-97" number="2">
                    <syllabic>single</syllabic>
                    <text>dove</text>
                </lyric>
                <lyric default-y="-113" number="3">
                    <syllabic>end</syllabic>
                    <text>ty,</text>
                </lyric>
                <lyric default-y="-130" number="4">
                    <syllabic>end</syllabic>
                    <text>ant</text>
                </lyric>
                <lyric default-y="-147" number="5">
                    <syllabic>end</syllabic>
                    <text>tal</text>
                </lyric>
                <lyric default-y="-163" number="6">
                    <syllabic>end</syllabic>
                    <text>ly,</text>
                </lyric>
            </note>
            <note default-x="190">
                <pitch>
                    <step>G</step>
                    <octave>4</octave>
                </pitch>
                <duration>1</duration>
                <voice>1</voice>
                <type>eighth</type>
                <stem default-y="5">up</stem>
                <beam number="1">begin</beam>
                <notations>
                    <slur placement="below" type="start" number="1"/>
                </notations>
                <lyric default-y="-80" number="1">
                    <syllabic>single</syllabic>
                    <text>sweet</text>
                </lyric>
                <lyric default-y="-97" number="2">
                    <syllabic>single</syllabic>
                    <text>whose</text>
                </lyric>
                <lyric default-y="-113" number="3">
                    <syllabic>single</syllabic>
                    <text>sweet</text>
                </lyric>
                <lyric default-y="-130" number="4">
                    <syllabic>single</syllabic>
                    <text>thy</text>
                </lyric>
                <lyric default-y="-147" number="5">
                    <syllabic>single</syllabic>
                    <text>stream,</text>
                </lyric>
                <lyric default-y="-163" number="6">
                    <syllabic>single</syllabic>
                    <text>sweet</text>
                </lyric>
            </note>
            <note default-x="240">
                <pitch>
                    <step>F</step>
                    <octave>4</octave>
                </pitch>
                <duration>1</duration>
                <voice>1</voice>
                <type>eighth</type>
                <stem default-y="3">up</stem>
                <beam number="1">end</beam>
                <notations>
                    <slur type="stop" number="1"/>
                </notations>
            </note>
        </measure>
        <measure width="296" number="3">
            <harmony default-y="34">
                <root>
                    <root-step>C</root-step>
                </root>
                <kind halign="center" text="7">dominant</kind>
            </harmony>
            <note default-x="31">
                <pitch>
                    <step>G</step>
                    <octave>4</octave>
                </pitch>
                <duration>1</duration>
                <voice>1</voice>
                <type>eighth</type>
                <stem default-y="5">up</stem>
                <beam number="1">begin</beam>
                <notations>
                    <slur placement="below" type="start" number="1"/>
                </notations>
                <lyric default-y="-80" number="1">
                    <syllabic>begin</syllabic>
                    <text>Af</text>
                </lyric>
                <lyric default-y="-97" number="2">
                    <syllabic>begin</syllabic>
                    <text>ech</text>
                </lyric>
                <lyric default-y="-113" number="3">
                    <syllabic>begin</syllabic>
                    <text>Af</text>
                </lyric>
                <lyric default-y="-130" number="4">
                    <syllabic>single</syllabic>
                    <text>banks</text>
                </lyric>
                <lyric default-y="-147" number="5">
                    <syllabic>begin</syllabic>
                    <text>Af</text>
                </lyric>
                <lyric default-y="-163" number="6">
                    <syllabic>begin</syllabic>
                    <text>Af</text>
                </lyric>
            </note>
            <note default-x="78">
                <pitch>
                    <step>A</step>
                    <octave>4</octave>
                </pitch>
                <duration>1</duration>
                <voice>1</voice>
                <type>eighth</type>
                <stem default-y="10">up</stem>
                <beam number="1">end</beam>
                <notations>
                    <slur type="stop" number="1"/>
                </notations>
            </note>
            <note default-x="125">
                <pitch>
                    <step>B</step>
                    <alter>-1</alter>
                    <octave>4</octave>
                </pitch>
                <duration>2</duration>
                <voice>1</voice>
                <type>quarter</type>
                <stem default-y="-55.5">down</stem>
                <lyric default-y="-80" number="1">
                    <syllabic>end</syllabic>
                    <text>ton!</text>
                </lyric>
                <lyric default-y="-97" number="2">
                    <syllabic>end</syllabic>
                    <text>o</text>
                </lyric>
                <lyric default-y="-113" number="3">
                    <syllabic>end</syllabic>
                    <text>ton,</text>
                </lyric>
                <lyric default-y="-130" number="4">
                    <syllabic>single</syllabic>
                    <text>and</text>
                </lyric>
                <lyric default-y="-147" number="5">
                    <syllabic>end</syllabic>
                    <text>ton,</text>
                </lyric>
                <lyric default-y="-163" number="6">
                    <syllabic>end</syllabic>
                    <text>ton,</text>
                </lyric>
            </note>
            <note default-x="201">
                <pitch>
                    <step>A</step>
                    <octave>4</octave>
                </pitch>
                <duration>1</duration>
                <voice>1</voice>
                <type>eighth</type>
                <stem default-y="10">up</stem>
                <beam number="1">begin</beam>
                <notations>
                    <slur placement="below" type="start" number="1"/>
                </notations>
                <lyric default-y="-80" number="1">
                    <syllabic>begin</syllabic>
                    <text>a</text>
                </lyric>
                <lyric default-y="-97" number="2">
                    <syllabic>begin</syllabic>
                    <text>re</text>
                </lyric>
                <lyric default-y="-113" number="3">
                    <syllabic>single</syllabic>
                    <text>thy</text>
                </lyric>
                <lyric default-y="-130" number="4">
                    <syllabic>single</syllabic>
                    <text>green</text>
                </lyric>
                <lyric default-y="-147" number="5">
                    <syllabic>single</syllabic>
                    <text>how</text>
                </lyric>
                <lyric default-y="-163" number="6">
                    <syllabic>begin</syllabic>
                    <text>a</text>
                </lyric>
            </note>
            <note default-x="248">
                <pitch>
                    <step>G</step>
                    <octave>4</octave>
                </pitch>
                <duration>1</duration>
                <voice>1</voice>
                <type>eighth</type>
                <stem default-y="5">up</stem>
                <beam number="1">end</beam>
                <notations>
                    <slur type="stop" number="1"/>
                </notations>
            </note>
        </measure>
        <measure width="380" number="4">
            <print new-system="yes">
                <system-layout>
                    <system-distance>295</system-distance>
                </system-layout>
            </print>
            <harmony default-y="34">
                <root>
                    <root-step>F</root-step>
                </root>
                <kind halign="center" text="">major</kind>
            </harmony>
            <note default-x="60">
                <pitch>
                    <step>F</step>
                    <octave>4</octave>
                </pitch>
                <duration>2</duration>
                <voice>1</voice>
                <type>quarter</type>
                <stem default-y="1">up</stem>
                <lyric default-y="-80" number="1">
                    <syllabic>end</syllabic>
                    <text>mang</text>
                </lyric>
                <lyric default-y="-97" number="2">
                    <syllabic>end</syllabic>
                    <text>sounds</text>
                </lyric>
                <lyric default-y="-113" number="3">
                    <syllabic>begin</syllabic>
                    <text>neigh</text>
                </lyric>
                <lyric default-y="-130" number="4">
                    <syllabic>begin</syllabic>
                    <text>val</text>
                </lyric>
                <lyric default-y="-147" number="5">
                    <syllabic>begin</syllabic>
                    <text>love</text>
                </lyric>
                <lyric default-y="-163" number="6">
                    <syllabic>end</syllabic>
                    <text>mang</text>
                </lyric>
            </note>
            <note default-x="159">
                <pitch>
                    <step>A</step>
                    <octave>4</octave>
                </pitch>
                <duration>2</duration>
                <voice>1</voice>
                <type>quarter</type>
                <stem default-y="10.5">up</stem>
                <lyric default-y="-80" number="1">
                    <syllabic>single</syllabic>
                    <text>thy</text>
                </lyric>
                <lyric default-y="-97" number="2">
                    <syllabic>single</syllabic>
                    <text>thro'</text>
                </lyric>
                <lyric default-y="-113" number="3">
                    <syllabic>middle</syllabic>
                    <text>bour</text>
                </lyric>
                <lyric default-y="-130" number="4">
                    <syllabic>end</syllabic>
                    <text>leys</text>
                </lyric>
                <lyric default-y="-147" number="5">
                    <syllabic>end</syllabic>
                    <text>ly</text>
                </lyric>
                <lyric default-y="-163" number="6">
                    <syllabic>single</syllabic>
                    <text>thy</text>
                </lyric>
            </note>
            <note default-x="257">
                <pitch>
                    <step>G</step>
                    <octave>4</octave>
                </pitch>
                <duration>1</duration>
                <voice>1</voice>
                <type>eighth</type>
                <stem default-y="5">up</stem>
                <beam number="1">begin</beam>
                <notations>
                    <slur placement="below" type="start" number="1"/>
                </notations>
                <lyric default-y="-80" number="1">
                    <syllabic>single</syllabic>
                    <text>green</text>
                </lyric>
                <lyric default-y="-97" number="2">
                    <syllabic>single</syllabic>
                    <text>the</text>
                </lyric>
                <lyric default-y="-113" number="3">
                    <syllabic>end</syllabic>
                    <text>ing</text>
                </lyric>
                <lyric default-y="-130" number="4">
                    <syllabic>begin</syllabic>
                    <text>be</text>
                </lyric>
                <lyric default-y="-147" number="5">
                    <syllabic>single</syllabic>
                    <text>it</text>
                </lyric>
                <lyric default-y="-163" number="6">
                    <syllabic>single</syllabic>
                    <text>green</text>
                </lyric>
            </note>
            <note default-x="319">
                <pitch>
                    <step>F</step>
                    <octave>4</octave>
                </pitch>
                <duration>1</duration>
                <voice>1</voice>
                <type>eighth</type>
                <stem default-y="3">up</stem>
                <beam number="1">end</beam>
                <notations>
                    <slur type="stop" number="1"/>
                </notations>
            </note>
        </measure>
        <measure width="287" number="5">
            <harmony default-y="34">
                <root>
                    <root-step>C</root-step>
                </root>
                <kind halign="center" text="7">dominant</kind>
            </harmony>
            <note default-x="33">
                <pitch>
                    <step>F</step>
                    <octave>4</octave>
                </pitch>
                <duration>2</duration>
                <voice>1</voice>
                <type>quarter</type>
                <stem default-y="1">up</stem>
                <notations>
                    <slur placement="below" type="start" number="1"/>
                </notations>
                <lyric default-y="-80" number="1">
                    <syllabic>single</syllabic>
                    <text>braes,</text>
                </lyric>
                <lyric default-y="-97" number="2">
                    <syllabic>single</syllabic>
                    <text>glen,</text>
                </lyric>
                <lyric default-y="-113" number="3">
                    <syllabic>single</syllabic>
                    <text>hills,</text>
                </lyric>
                <lyric default-y="-130" number="4">
                    <syllabic>end</syllabic>
                    <text>low,</text>
                </lyric>
                <lyric default-y="-147" number="5">
                    <syllabic>single</syllabic>
                    <text>glides,</text>
                </lyric>
                <lyric default-y="-163" number="6">
                    <syllabic>single</syllabic>
                    <text>braes,</text>
                </lyric>
            </note>
            <note default-x="118">
                <pitch>
                    <step>E</step>
                    <octave>4</octave>
                </pitch>
                <duration>2</duration>
                <voice>1</voice>
                <type>quarter</type>
                <stem default-y="-5">up</stem>
                <notations>
                    <slur type="stop" number="1"/>
                </notations>
            </note>
            <note default-x="202">
                <pitch>
                    <step>C</step>
                    <octave>4</octave>
                </pitch>
                <duration>2</duration>
                <voice>1</voice>
                <type>quarter</type>
                <stem default-y="-14.5">up</stem>
                <lyric default-y="-80" number="1">
                    <syllabic>single</syllabic>
                    <text>Flow</text>
                </lyric>
                <lyric default-y="-97" number="2">
                    <syllabic>single</syllabic>
                    <text>Ye</text>
                </lyric>
                <lyric default-y="-113" number="3">
                    <syllabic>single</syllabic>
                    <text>Far</text>
                </lyric>
                <lyric default-y="-130" number="4">
                    <syllabic>single</syllabic>
                    <text>Where,</text>
                </lyric>
                <lyric default-y="-147" number="5">
                    <syllabic>single</syllabic>
                    <text>And</text>
                </lyric>
                <lyric default-y="-163" number="6">
                    <syllabic>single</syllabic>
                    <text>Flow</text>
                </lyric>
            </note>
        </measure>
        <measure width="359" number="6">
            <harmony default-y="34">
                <root>
                    <root-step>F</root-step>
                </root>
                <kind halign="center" text="">major</kind>
            </harmony>
            <note default-x="34">
                <pitch>
                    <step>F</step>
                    <octave>4</octave>
                </pitch>
                <duration>2</duration>
                <voice>1</voice>
                <type>quarter</type>
                <stem default-y="1">up</stem>
                <lyric default-y="-80" number="1">
                    <syllabic>begin</syllabic>
                    <text>gent</text>
                </lyric>
                <lyric default-y="-97" number="2">
                    <syllabic>single</syllabic>
                    <text>wild</text>
                </lyric>
                <lyric default-y="-113" number="3">
                    <syllabic>single</syllabic>
                    <text>mark'd</text>
                </lyric>
                <lyric default-y="-130" number="4">
                    <syllabic>single</syllabic>
                    <text>wild</text>
                </lyric>
                <lyric default-y="-147" number="5">
                    <syllabic>single</syllabic>
                    <text>winds</text>
                </lyric>
                <lyric default-y="-163" number="6">
                    <syllabic>begin</syllabic>
                    <text>gent</text>
                </lyric>
            </note>
            <note default-x="134">
                <pitch>
                    <step>A</step>
                    <octave>4</octave>
                </pitch>
                <duration>2</duration>
                <voice>1</voice>
                <type>quarter</type>
                <stem default-y="10.5">up</stem>
                <lyric default-y="-80" number="1">
                    <syllabic>end</syllabic>
                    <text>ly,</text>
                </lyric>
                <lyric default-y="-97" number="2">
                    <syllabic>begin</syllabic>
                    <text>whist</text>
                </lyric>
                <lyric default-y="-113" number="3">
                    <syllabic>single</syllabic>
                    <text>with</text>
                </lyric>
                <lyric default-y="-130" number="4">
                    <syllabic>single</syllabic>
                    <text>in</text>
                </lyric>
                <lyric default-y="-147" number="5">
                    <syllabic>single</syllabic>
                    <text>by</text>
                </lyric>
                <lyric default-y="-163" number="6">
                    <syllabic>end</syllabic>
                    <text>ly,</text>
                </lyric>
            </note>
            <note default-x="235">
                <pitch>
                    <step>G</step>
                    <octave>4</octave>
                </pitch>
                <duration>1</duration>
                <voice>1</voice>
                <type>eighth</type>
                <stem default-y="5">up</stem>
                <beam number="1">begin</beam>
                <notations>
                    <slur placement="below" type="start" number="1"/>
                </notations>
                <lyric default-y="-80" number="1">
                    <syllabic>single</syllabic>
                    <text>I'll</text>
                </lyric>
                <lyric default-y="-97" number="2">
                    <syllabic>end</syllabic>
                    <text>ling</text>
                </lyric>
                <lyric default-y="-113" number="3">
                    <syllabic>single</syllabic>
                    <text>the</text>
                </lyric>
                <lyric default-y="-130" number="4">
                    <syllabic>single</syllabic>
                    <text>the</text>
                </lyric>
                <lyric default-y="-147" number="5">
                    <syllabic>single</syllabic>
                    <text>the</text>
                </lyric>
                <lyric default-y="-163" number="6">
                    <syllabic>single</syllabic>
                    <text>sweet</text>
                </lyric>
            </note>
            <note default-x="296">
                <pitch>
                    <step>F</step>
                    <octave>4</octave>
                </pitch>
                <duration>1</duration>
                <voice>1</voice>
                <type>eighth</type>
                <stem default-y="3">up</stem>
                <beam number="1">end</beam>
                <notations>
                    <slur type="stop" number="1"/>
                </notations>
            </note>
        </measure>
        <measure width="388" number="7">
            <print new-system="yes">
                <system-layout>
                    <system-distance>295</system-distance>
                </system-layout>
            </print>
            <harmony default-y="34">
                <root>
                    <root-step>C</root-step>
                </root>
                <kind halign="center" text="7">dominant</kind>
            </harmony>
            <note default-x="55">
                <pitch>
                    <step>G</step>
                    <octave>4</octave>
                </pitch>
                <duration>1</duration>
                <voice>1</voice>
                <type>eighth</type>
                <stem default-y="5">up</stem>
                <beam number="1">begin</beam>
                <notations>
                    <slur placement="below" type="start" number="1"/>
                </notations>
                <lyric default-y="-80" number="1">
                    <syllabic>single</syllabic>
                    <text>sing</text>
                </lyric>
                <lyric default-y="-97" number="2">
                    <syllabic>begin</syllabic>
                    <text>black</text>
                </lyric>
                <lyric default-y="-113" number="3">
                    <syllabic>begin</syllabic>
                    <text>cours</text>
                </lyric>
                <lyric default-y="-130" number="4">
                    <syllabic>begin</syllabic>
                    <text>wood</text>
                </lyric>
                <lyric default-y="-147" number="5">
                    <syllabic>single</syllabic>
                    <text>cot</text>
                </lyric>
                <lyric default-y="-163" number="6">
                    <syllabic>begin</syllabic>
                    <text>riv</text>
                </lyric>
            </note>
            <note default-x="114">
                <pitch>
                    <step>A</step>
                    <octave>4</octave>
                </pitch>
                <duration>1</duration>
                <voice>1</voice>
                <type>eighth</type>
                <stem default-y="10">up</stem>
                <beam number="1">end</beam>
                <notations>
                    <slur type="stop" number="1"/>
                </notations>
            </note>
            <note default-x="173">
                <pitch>
                    <step>C</step>
                    <octave>5</octave>
                </pitch>
                <duration>2</duration>
                <voice>1</voice>
                <type>quarter</type>
                <stem default-y="-50">down</stem>
                <lyric default-y="-80" number="1">
                    <syllabic>single</syllabic>
                    <text>thee</text>
                </lyric>
                <lyric default-y="-97" number="2">
                    <syllabic>end</syllabic>
                    <text>birds</text>
                </lyric>
                <lyric default-y="-113" number="3">
                    <syllabic>end</syllabic>
                    <text>es</text>
                </lyric>
                <lyric default-y="-130" number="4">
                    <syllabic>end</syllabic>
                    <text>lands,</text>
                </lyric>
                <lyric default-y="-147" number="5">
                    <syllabic>single</syllabic>
                    <text>where</text>
                </lyric>
                <lyric default-y="-163" number="6">
                    <syllabic>end</syllabic>
                    <text>er,</text>
                </lyric>
            </note>
            <note default-x="269">
                <pitch>
                    <step>F</step>
                    <octave>5</octave>
                </pitch>
                <duration>1</duration>
                <voice>1</voice>
                <type>eighth</type>
                <stem default-y="-40">down</stem>
                <beam number="1">begin</beam>
                <notations>
                    <slur placement="above" type="start" number="1"/>
                </notations>
                <lyric default-y="-80" number="1">
                    <syllabic>single</syllabic>
                    <text>a</text>
                </lyric>
                <lyric default-y="-97" number="2">
                    <syllabic>single</syllabic>
                    <text>in</text>
                </lyric>
                <lyric default-y="-113" number="3">
                    <syllabic>single</syllabic>
                    <text>of</text>
                </lyric>
                <lyric default-y="-130" number="4">
                    <syllabic>single</syllabic>
                    <text>the</text>
                </lyric>
                <lyric default-y="-147" number="5">
                    <syllabic>single</syllabic>
                    <text>my</text>
                </lyric>
                <lyric default-y="-163" number="6">
                    <syllabic>single</syllabic>
                    <text>the</text>
                </lyric>
            </note>
            <note default-x="328">
                <pitch>
                    <step>D</step>
                    <octave>5</octave>
                </pitch>
                <duration>1</duration>
                <voice>1</voice>
                <type>eighth</type>
                <stem default-y="-42">down</stem>
                <beam number="1">end</beam>
                <notations>
                    <slur type="stop" number="1"/>
                </notations>
            </note>
        </measure>
        <measure width="354" number="8">
            <harmony default-y="34">
                <root>
                    <root-step>C</root-step>
                </root>
                <kind halign="center" text="7">dominant</kind>
            </harmony>
            <note default-x="31">
                <pitch>
                    <step>C</step>
                    <octave>5</octave>
                </pitch>
                <duration>2</duration>
                <voice>1</voice>
                <type>quarter</type>
                <stem default-y="-50">down</stem>
                <lyric default-y="-80" number="1">
                    <syllabic>single</syllabic>
                    <text>song</text>
                </lyric>
                <lyric default-y="-97" number="2">
                    <syllabic>single</syllabic>
                    <text>yon</text>
                </lyric>
                <lyric default-y="-113" number="3">
                    <syllabic>single</syllabic>
                    <text>clear,</text>
                </lyric>
                <lyric default-y="-130" number="4">
                    <syllabic>begin</syllabic>
                    <text>prim</text>
                </lyric>
                <lyric default-y="-147" number="5">
                    <syllabic>begin</syllabic>
                    <text>Ma</text>
                </lyric>
                <lyric default-y="-163" number="6">
                    <syllabic>single</syllabic>
                    <text>theme</text>
                </lyric>
            </note>
            <note default-x="124">
                <pitch>
                    <step>B</step>
                    <alter>-1</alter>
                    <octave>4</octave>
                </pitch>
                <duration>1</duration>
                <voice>1</voice>
                <type>eighth</type>
                <stem default-y="15">up</stem>
                <beam number="1">begin</beam>
                <notations>
                    <slur placement="below" type="start" number="1"/>
                </notations>
                <lyric default-y="-80" number="1">
                    <syllabic>single</syllabic>
                    <text>in</text>
                </lyric>
                <lyric default-y="-97" number="2">
                    <syllabic>begin</syllabic>
                    <text>thor</text>
                </lyric>
                <lyric default-y="-113" number="3">
                    <syllabic>begin</syllabic>
                    <text>wind</text>
                </lyric>
                <lyric default-y="-130" number="4">
                    <syllabic>middle</syllabic>
                    <text>ros</text>
                </lyric>
                <lyric default-y="-147" number="5">
                    <syllabic>end</syllabic>
                    <text>ry</text>
                </lyric>
                <lyric default-y="-163" number="6">
                    <syllabic>single</syllabic>
                    <text>of</text>
                </lyric>
            </note>
            <note default-x="181">
                <pitch>
                    <step>A</step>
                    <octave>4</octave>
                </pitch>
                <duration>1</duration>
                <voice>1</voice>
                <type>eighth</type>
                <stem default-y="10">up</stem>
                <beam number="1">end</beam>
                <notations>
                    <slur type="stop" number="1"/>
                </notations>
            </note>
            <note default-x="238">
                <pitch>
                    <step>G</step>
                    <octave>4</octave>
                </pitch>
                <duration>1</duration>
                <voice>1</voice>
                <type>eighth</type>
                <stem default-y="5">up</stem>
                <beam number="1">begin</beam>
                <notations>
                    <slur placement="below" type="start" number="1"/>
                </notations>
                <lyric default-y="-80" number="1">
                    <syllabic>single</syllabic>
                    <text>thy</text>
                </lyric>
                <lyric default-y="-97" number="2">
                    <syllabic>end</syllabic>
                    <text>ny</text>
                </lyric>
                <lyric default-y="-113" number="3">
                    <syllabic>end</syllabic>
                    <text>ing</text>
                </lyric>
                <lyric default-y="-130" number="4">
                    <syllabic>end</syllabic>
                    <text>es</text>
                </lyric>
                <lyric default-y="-147" number="5">
                    <syllabic>begin</syllabic>
                    <text>re</text>
                </lyric>
                <lyric default-y="-163" number="6">
                    <syllabic>single</syllabic>
                    <text>my</text>
                </lyric>
            </note>
            <note default-x="296">
                <pitch>
                    <step>A</step>
                    <octave>4</octave>
                </pitch>
                <duration>1</duration>
                <voice>1</voice>
                <type>eighth</type>
                <stem default-y="10">up</stem>
                <beam number="1">end</beam>
                <notations>
                    <slur type="stop" number="1"/>
                </notations>
            </note>
        </measure>
        <measure width="285" number="9">
            <harmony default-y="34">
                <root>
                    <root-step>F</root-step>
                </root>
                <kind halign="center" text="">major</kind>
            </harmony>
            <note default-x="34">
                <pitch>
                    <step>F</step>
                    <octave>4</octave>
                </pitch>
                <duration>4</duration>
                <voice>1</voice>
                <type>half</type>
                <stem default-y="0.5">up</stem>
                <lyric default-y="-80" number="1">
                    <syllabic>single</syllabic>
                    <text>praise;</text>
                </lyric>
                <lyric default-y="-97" number="2">
                    <syllabic>single</syllabic>
                    <text>den,</text>
                </lyric>
                <lyric default-y="-113" number="3">
                    <syllabic>single</syllabic>
                    <text>rills;</text>
                </lyric>
                <lyric default-y="-130" number="4">
                    <syllabic>single</syllabic>
                    <text>blow;</text>
                </lyric>
                <lyric default-y="-147" number="5">
                    <syllabic>end</syllabic>
                    <text>sides;</text>
                </lyric>
                <lyric default-y="-163" number="6">
                    <syllabic>single</syllabic>
                    <text>lays;</text>
                </lyric>
            </note>
            <note default-x="176">
                <pitch>
                    <step>C</step>
                    <octave>5</octave>
                </pitch>
                <duration>1</duration>
                <voice>1</voice>
                <type>eighth</type>
                <stem default-y="-50">down</stem>
                <beam number="1">begin</beam>
                <notations>
                    <slur placement="above" type="start" number="1"/>
                </notations>
                <lyric default-y="-80" number="1">
                    <syllabic>single</syllabic>
                    <text>My</text>
                </lyric>
                <lyric default-y="-97" number="2">
                    <syllabic>single</syllabic>
                    <text>Thou</text>
                </lyric>
                <lyric default-y="-113" number="3">
                    <syllabic>single</syllabic>
                    <text>There</text>
                </lyric>
                <lyric default-y="-130" number="4">
                    <syllabic>single</syllabic>
                    <text>There</text>
                </lyric>
                <lyric default-y="-147" number="5">
                    <syllabic>single</syllabic>
                    <text>How</text>
                </lyric>
                <lyric default-y="-163" number="6">
                    <syllabic>single</syllabic>
                    <text>My</text>
                </lyric>
            </note>
            <note default-x="230">
                <pitch>
                    <step>D</step>
                    <octave>5</octave>
                </pitch>
                <duration>1</duration>
                <voice>1</voice>
                <type>eighth</type>
                <stem default-y="-45">down</stem>
                <beam number="1">end</beam>
                <notations>
                    <slur type="stop" number="1"/>
                </notations>
            </note>
        </measure>
        <measure width="381" number="10">
            <print new-system="yes">
                <system-layout>
                    <system-distance>295</system-distance>
                </system-layout>
            </print>
            <harmony default-y="34">
                <root>
                    <root-step>C</root-step>
                </root>
                <kind halign="center" text="m">minor</kind>
            </harmony>
            <note default-x="54">
                <pitch>
                    <step>E</step>
                    <alter>-1</alter>
                    <octave>5</octave>
                </pitch>
                <duration>2</duration>
                <voice>1</voice>
                <type>quarter</type>
                <accidental>flat</accidental>
                <stem default-y="-40.5">down</stem>
                <lyric default-y="-80" number="1">
                    <syllabic>begin</syllabic>
                    <text>Ma</text>
                </lyric>
                <lyric default-y="-97" number="2">
                    <syllabic>single</syllabic>
                    <text>green</text>
                </lyric>
                <lyric default-y="-113" number="3">
                    <syllabic>begin</syllabic>
                    <text>Dai</text>
                </lyric>
                <lyric default-y="-130" number="4">
                    <syllabic>single</syllabic>
                    <text>oft,</text>
                </lyric>
                <lyric default-y="-147" number="5">
                    <syllabic>begin</syllabic>
                    <text>wan</text>
                </lyric>
                <lyric default-y="-163" number="6">
                    <syllabic>begin</syllabic>
                    <text>Ma</text>
                </lyric>
            </note>
            <note default-x="148">
                <pitch>
                    <step>F</step>
                    <octave>5</octave>
                </pitch>
                <duration>1</duration>
                <voice>1</voice>
                <type>eighth</type>
                <stem default-y="-30">down</stem>
                <beam number="1">begin</beam>
                <notations>
                    <slur placement="above" type="start" number="1"/>
                </notations>
                <lyric default-y="-80" number="1">
                    <syllabic>end</syllabic>
                    <text>ry's</text>
                </lyric>
                <lyric default-y="-97" number="2">
                    <syllabic>begin</syllabic>
                    <text>crest</text>
                </lyric>
                <lyric default-y="-113" number="3">
                    <syllabic>end</syllabic>
                    <text>ly</text>
                </lyric>
                <lyric default-y="-130" number="4">
                    <syllabic>single</syllabic>
                    <text>as</text>
                </lyric>
                <lyric default-y="-147" number="5">
                    <syllabic>end</syllabic>
                    <text>ton</text>
                </lyric>
                <lyric default-y="-163" number="6">
                    <syllabic>end</syllabic>
                    <text>ry's</text>
                </lyric>
            </note>
            <note default-x="206">
                <pitch>
                    <step>E</step>
                    <alter>-1</alter>
                    <octave>5</octave>
                </pitch>
                <duration>1</duration>
                <voice>1</voice>
                <type>eighth</type>
                <stem default-y="-32">down</stem>
                <beam number="1">end</beam>
                <notations>
                    <slur type="stop" number="1"/>
                </notations>
            </note>
            <note default-x="265">
                <pitch>
                    <step>D</step>
                    <octave>5</octave>
                </pitch>
                <duration>1</duration>
                <voice>1</voice>
                <type>eighth</type>
                <stem default-y="-45">down</stem>
                <beam number="1">begin</beam>
                <notations>
                    <slur placement="above" type="start" number="1"/>
                </notations>
                <lyric default-y="-80" number="1">
                    <syllabic>begin</syllabic>
                    <text>a</text>
                </lyric>
                <lyric default-y="-97" number="2">
                    <syllabic>end</syllabic>
                    <text>ed</text>
                </lyric>
                <lyric default-y="-113" number="3">
                    <syllabic>single</syllabic>
                    <text>I</text>
                </lyric>
                <lyric default-y="-130" number="4">
                    <syllabic>single</syllabic>
                    <text>mild</text>
                </lyric>
                <lyric default-y="-147" number="5">
                    <syllabic>single</syllabic>
                    <text>thy</text>
                </lyric>
                <lyric default-y="-163" number="6">
                    <syllabic>begin</syllabic>
                    <text>a</text>
                </lyric>
            </note>
            <note default-x="323">
                <pitch>
                    <step>C</step>
                    <octave>5</octave>
                </pitch>
                <duration>1</duration>
                <voice>1</voice>
                <type>eighth</type>
                <stem default-y="-50">down</stem>
                <beam number="1">end</beam>
                <notations>
                    <slur type="stop" number="1"/>
                </notations>
            </note>
        </measure>
        <measure width="328" number="11">
            <harmony default-y="34">
                <root>
                    <root-step>A</root-step>
                </root>
                <kind halign="center" text="m">minor</kind>
            </harmony>
            <note default-x="28">
                <pitch>
                    <step>C</step>
                    <octave>5</octave>
                </pitch>
                <duration>2</duration>
                <voice>1</voice>
                <type>quarter</type>
                <stem default-y="-50">down</stem>
                <lyric default-y="-80" number="1">
                    <syllabic>end</syllabic>
                    <text>sleep</text>
                </lyric>
                <lyric default-y="-97" number="2">
                    <syllabic>begin</syllabic>
                    <text>lap</text>
                </lyric>
                <lyric default-y="-113" number="3">
                    <syllabic>begin</syllabic>
                    <text>wand</text>
                </lyric>
                <lyric default-y="-130" number="4">
                    <syllabic>begin</syllabic>
                    <text>Ev'</text>
                </lyric>
                <lyric default-y="-147" number="5">
                    <syllabic>begin</syllabic>
                    <text>wat</text>
                </lyric>
                <lyric default-y="-163" number="6">
                    <syllabic>end</syllabic>
                    <text>sleep</text>
                </lyric>
            </note>
            <note default-x="128">
                <pitch>
                    <step>D</step>
                    <octave>5</octave>
                </pitch>
                <duration>2</duration>
                <voice>1</voice>
                <type>quarter</type>
                <stem default-y="-45">down</stem>
                <lyric default-y="-80" number="1">
                    <syllabic>single</syllabic>
                    <text>by</text>
                </lyric>
                <lyric default-y="-97" number="2">
                    <syllabic>end</syllabic>
                    <text>wing,</text>
                </lyric>
                <lyric default-y="-113" number="3">
                    <syllabic>end</syllabic>
                    <text>er</text>
                </lyric>
                <lyric default-y="-130" number="4">
                    <syllabic>end</syllabic>
                    <text>ning</text>
                </lyric>
                <lyric default-y="-147" number="5">
                    <syllabic>end</syllabic>
                    <text>ers</text>
                </lyric>
                <lyric default-y="-163" number="6">
                    <syllabic>single</syllabic>
                    <text>by</text>
                </lyric>
            </note>
            <note default-x="228">
                <pitch>
                    <step>F</step>
                    <octave>5</octave>
                </pitch>
                <duration>2</duration>
                <voice>1</voice>
                <type>quarter</type>
                <stem default-y="-35">down</stem>
                <lyric default-y="-80" number="1">
                    <syllabic>single</syllabic>
                    <text>thy</text>
                </lyric>
                <lyric default-y="-97" number="2">
                    <syllabic>single</syllabic>
                    <text>thy</text>
                </lyric>
                <lyric default-y="-113" number="3">
                    <syllabic>single</syllabic>
                    <text>as</text>
                </lyric>
                <lyric default-y="-130" number="4">
                    <syllabic>single</syllabic>
                    <text>weeps</text>
                </lyric>
                <lyric default-y="-147" number="5">
                    <syllabic>single</syllabic>
                    <text>her</text>
                </lyric>
                <lyric default-y="-163" number="6">
                    <syllabic>single</syllabic>
                    <text>thy</text>
                </lyric>
            </note>
        </measure>
        <measure width="317" number="12">
            <harmony default-y="34">
                <root>
                    <root-step>D</root-step>
                </root>
                <kind halign="center" text="m">minor</kind>
            </harmony>
            <note default-x="35">
                <pitch>
                    <step>F</step>
                    <octave>5</octave>
                </pitch>
                <duration>2</duration>
                <voice>1</voice>
                <type>quarter</type>
                <stem default-y="-35">down</stem>
                <lyric default-y="-80" number="1">
                    <syllabic>begin</syllabic>
                    <text>mur</text>
                </lyric>
                <lyric default-y="-97" number="2">
                    <syllabic>begin</syllabic>
                    <text>scream</text>
                </lyric>
                <lyric default-y="-113" number="3">
                    <syllabic>single</syllabic>
                    <text>noon</text>
                </lyric>
                <lyric default-y="-130" number="4">
                    <syllabic>begin</syllabic>
                    <text>ov</text>
                </lyric>
                <lyric default-y="-147" number="5">
                    <syllabic>begin</syllabic>
                    <text>sno</text>
                </lyric>
                <lyric default-y="-163" number="6">
                    <syllabic>begin</syllabic>
                    <text>mur</text>
                </lyric>
            </note>
            <note default-x="122">
                <pitch>
                    <step>A</step>
                    <octave>4</octave>
                </pitch>
                <duration>2</duration>
                <voice>1</voice>
                <type>quarter</type>
                <stem default-y="10.5">up</stem>
                <lyric default-y="-80" number="1">
                    <syllabic>middle</syllabic>
                    <text>mur</text>
                </lyric>
                <lyric default-y="-97" number="2">
                    <syllabic>end</syllabic>
                    <text>ing</text>
                </lyric>
                <lyric default-y="-113" number="3">
                    <syllabic>begin</syllabic>
                    <text>ris</text>
                </lyric>
                <lyric default-y="-130" number="4">
                    <syllabic>end</syllabic>
                    <text>er</text>
                </lyric>
                <lyric default-y="-147" number="5">
                    <syllabic>end</syllabic>
                    <text>wy</text>
                </lyric>
                <lyric default-y="-163" number="6">
                    <syllabic>middle</syllabic>
                    <text>mur</text>
                </lyric>
            </note>
            <note default-x="209">
                <pitch>
                    <step>G</step>
                    <octave>4</octave>
                </pitch>
                <duration>1</duration>
                <voice>1</voice>
                <type>eighth</type>
                <stem default-y="5">up</stem>
                <beam number="1">begin</beam>
                <notations>
                    <slur placement="below" type="start" number="1"/>
                </notations>
                <lyric default-y="-80" number="1">
                    <syllabic>end</syllabic>
                    <text>ing</text>
                </lyric>
                <lyric default-y="-97" number="2">
                    <syllabic>begin</syllabic>
                    <text>for</text>
                </lyric>
                <lyric default-y="-113" number="3">
                    <syllabic>end</syllabic>
                    <text>es</text>
                </lyric>
                <lyric default-y="-130" number="4">
                    <syllabic>single</syllabic>
                    <text>the</text>
                </lyric>
                <lyric default-y="-147" number="5">
                    <syllabic>single</syllabic>
                    <text>feet</text>
                </lyric>
                <lyric default-y="-163" number="6">
                    <syllabic>end</syllabic>
                    <text>ing</text>
                </lyric>
            </note>
            <note default-x="263">
                <pitch>
                    <step>F</step>
                    <octave>4</octave>
                </pitch>
                <duration>1</duration>
                <voice>1</voice>
                <type>eighth</type>
                <stem default-y="3">up</stem>
                <beam number="1">end</beam>
                <notations>
                    <slur type="stop" number="1"/>
                </notations>
            </note>
        </measure>
        <measure width="319" number="13">
            <print new-page="yes">
                <system-layout>
                    <top-system-distance>70</top-system-distance>
                </system-layout>
            </print>
            <harmony default-y="34">
                <root>
                    <root-step>C</root-step>
                </root>
                <kind halign="center" text="7">dominant</kind>
            </harmony>
            <note default-x="99">
                <pitch>
                    <step>F</step>
                    <octave>4</octave>
                </pitch>
                <duration>2</duration>
                <voice>1</voice>
                <type>quarter</type>
                <stem default-y="0.5">up</stem>
                <notations>
                    <slur placement="below" type="start" number="1"/>
                </notations>
                <lyric default-y="-80" number="1">
                    <syllabic>single</syllabic>
                    <text>stream,</text>
                </lyric>
                <lyric default-y="-97" number="2">
                    <syllabic>end</syllabic>
                    <text>bear,</text>
                </lyric>
                <lyric default-y="-113" number="3">
                    <syllabic>single</syllabic>
                    <text>high,</text>
                </lyric>
                <lyric default-y="-130" number="4">
                    <syllabic>single</syllabic>
                    <text>lea,</text>
                </lyric>
                <lyric default-y="-147" number="5">
                    <syllabic>single</syllabic>
                    <text>lave,</text>
                </lyric>
                <lyric default-y="-163" number="6">
                    <syllabic>single</syllabic>
                    <text>stream,</text>
                </lyric>
            </note>
            <note default-x="173">
                <pitch>
                    <step>E</step>
                    <octave>4</octave>
                </pitch>
                <duration>2</duration>
                <voice>1</voice>
                <type>quarter</type>
                <stem default-y="-4">up</stem>
                <notations>
                    <slur type="stop" number="1"/>
                </notations>
            </note>
            <note default-x="245">
                <pitch>
                    <step>C</step>
                    <octave>4</octave>
                </pitch>
                <duration>2</duration>
                <voice>1</voice>
                <type>quarter</type>
                <stem default-y="-14.5">up</stem>
                <lyric default-y="-80" number="1">
                    <syllabic>single</syllabic>
                    <text>Flow</text>
                </lyric>
                <lyric default-y="-97" number="2">
                    <syllabic>single</syllabic>
                    <text>I</text>
                </lyric>
                <lyric default-y="-113" number="3">
                    <syllabic>single</syllabic>
                    <text>My</text>
                </lyric>
                <lyric default-y="-130" number="4">
                    <syllabic>single</syllabic>
                    <text>The</text>
                </lyric>
                <lyric default-y="-147" number="5">
                    <syllabic>single</syllabic>
                    <text>As</text>
                </lyric>
                <lyric default-y="-163" number="6">
                    <syllabic>single</syllabic>
                    <text>Flow</text>
                </lyric>
            </note>
        </measure>
        <measure width="333" number="14">
            <harmony default-y="34">
                <root>
                    <root-step>F</root-step>
                </root>
                <kind halign="center" text="">major</kind>
            </harmony>
            <note default-x="33">
                <pitch>
                    <step>F</step>
                    <octave>4</octave>
                </pitch>
                <duration>2</duration>
                <voice>1</voice>
                <type>quarter</type>
                <stem default-y="0.5">up</stem>
                <lyric default-y="-80" number="1">
                    <syllabic>begin</syllabic>
                    <text>gent</text>
                </lyric>
                <lyric default-y="-97" number="2">
                    <syllabic>single</syllabic>
                    <text>charge</text>
                </lyric>
                <lyric default-y="-113" number="3">
                    <syllabic>single</syllabic>
                    <text>flocks</text>
                </lyric>
                <lyric default-y="-130" number="4">
                    <syllabic>begin</syllabic>
                    <text>sweet</text>
                </lyric>
                <lyric default-y="-147" number="5">
                    <syllabic>begin</syllabic>
                    <text>gath</text>
                </lyric>
                <lyric default-y="-163" number="6">
                    <syllabic>begin</syllabic>
                    <text>gent</text>
                </lyric>
            </note>
            <note default-x="126">
                <pitch>
                    <step>A</step>
                    <octave>4</octave>
                </pitch>
                <duration>2</duration>
                <voice>1</voice>
                <type>quarter</type>
                <stem default-y="10.5">up</stem>
                <lyric default-y="-80" number="1">
                    <syllabic>end</syllabic>
                    <text>ly,</text>
                </lyric>
                <lyric default-y="-97" number="2">
                    <syllabic>single</syllabic>
                    <text>you,</text>
                </lyric>
                <lyric default-y="-113" number="3">
                    <syllabic>single</syllabic>
                    <text>and</text>
                </lyric>
                <lyric default-y="-130" number="4">
                    <syllabic>middle</syllabic>
                    <text>scent</text>
                </lyric>
                <lyric default-y="-147" number="5">
                    <syllabic>middle</syllabic>
                    <text>er</text>
                </lyric>
                <lyric default-y="-163" number="6">
                    <syllabic>end</syllabic>
                    <text>ly,</text>
                </lyric>
            </note>
            <note default-x="218">
                <pitch>
                    <step>G</step>
                    <octave>4</octave>
                </pitch>
                <duration>1</duration>
                <voice>1</voice>
                <type>eighth</type>
                <stem default-y="5">up</stem>
                <beam number="1">begin</beam>
                <notations>
                    <slur placement="below" type="start" number="1"/>
                </notations>
                <lyric default-y="-80" number="1">
                    <syllabic>single</syllabic>
                    <text>sweet</text>
                </lyric>
                <lyric default-y="-97" number="2">
                    <syllabic>begin</syllabic>
                    <text>dis</text>
                </lyric>
                <lyric default-y="-113" number="3">
                    <syllabic>single</syllabic>
                    <text>my</text>
                </lyric>
                <lyric default-y="-130" number="4">
                    <syllabic>end</syllabic>
                    <text>ed</text>
                </lyric>
                <lyric default-y="-147" number="5">
                    <syllabic>end</syllabic>
                    <text>ing</text>
                </lyric>
                <lyric default-y="-163" number="6">
                    <syllabic>single</syllabic>
                    <text>sweet</text>
                </lyric>
            </note>
            <note default-x="276">
                <pitch>
                    <step>F</step>
                    <octave>4</octave>
                </pitch>
                <duration>1</duration>
                <voice>1</voice>
                <type>eighth</type>
                <stem default-y="2.5">up</stem>
                <beam number="1">end</beam>
                <notations>
                    <slur type="stop" number="1"/>
                </notations>
            </note>
        </measure>
        <measure width="374" number="15">
            <harmony default-y="34">
                <root>
                    <root-step>B</root-step>
                    <root-alter>-1</root-alter>
                </root>
                <kind halign="center" text="">major</kind>
            </harmony>
            <note default-x="29">
                <pitch>
                    <step>G</step>
                    <octave>4</octave>
                </pitch>
                <duration>1</duration>
                <voice>1</voice>
                <type>eighth</type>
                <stem default-y="5">up</stem>
                <beam number="1">begin</beam>
                <notations>
                    <slur placement="below" type="start" number="1"/>
                </notations>
                <lyric default-y="-80" number="1">
                    <syllabic>begin</syllabic>
                    <text>Af</text>
                </lyric>
                <lyric default-y="-97" number="2">
                    <syllabic>end</syllabic>
                    <text>turb</text>
                </lyric>
                <lyric default-y="-113" number="3">
                    <syllabic>begin</syllabic>
                    <text>Ma</text>
                </lyric>
                <lyric default-y="-130" number="4">
                    <syllabic>single</syllabic>
                    <text>birk</text>
                </lyric>
                <lyric default-y="-147" number="5">
                    <syllabic>single</syllabic>
                    <text>sweet</text>
                </lyric>
                <lyric default-y="-163" number="6">
                    <syllabic>begin</syllabic>
                    <text>Af</text>
                </lyric>
            </note>
            <note default-x="90">
                <pitch>
                    <step>A</step>
                    <octave>4</octave>
                </pitch>
                <duration>1</duration>
                <voice>1</voice>
                <type>eighth</type>
                <stem default-y="10">up</stem>
                <beam number="1">end</beam>
                <notations>
                    <slur type="stop" number="1"/>
                </notations>
            </note>
            <note default-x="151">
                <pitch>
                    <step>C</step>
                    <octave>5</octave>
                </pitch>
                <duration>2</duration>
                <voice>1</voice>
                <type>quarter</type>
                <stem default-y="-50">down</stem>
                <lyric default-y="-80" number="1">
                    <syllabic>end</syllabic>
                    <text>ton,</text>
                </lyric>
                <lyric default-y="-97" number="2">
                    <syllabic>single</syllabic>
                    <text>not</text>
                </lyric>
                <lyric default-y="-113" number="3">
                    <syllabic>end</syllabic>
                    <text>ry's</text>
                </lyric>
                <lyric default-y="-130" number="4">
                    <syllabic>single</syllabic>
                    <text>shades</text>
                </lyric>
                <lyric default-y="-147" number="5">
                    <syllabic>begin</syllabic>
                    <text>flow'</text>
                </lyric>
                <lyric default-y="-163" number="6">
                    <syllabic>end</syllabic>
                    <text>ton,</text>
                </lyric>
            </note>
            <note default-x="251">
                <pitch>
                    <step>F</step>
                    <octave>5</octave>
                </pitch>
                <duration>1</duration>
                <voice>1</voice>
                <type>eighth</type>
                <stem default-y="-40">down</stem>
                <beam number="1">begin</beam>
                <notations>
                    <slur placement="above" type="start" number="1"/>
                </notations>
                <lyric default-y="-80" number="1">
                    <syllabic>begin</syllabic>
                    <text>dis</text>
                </lyric>
                <lyric default-y="-97" number="2">
                    <syllabic>single</syllabic>
                    <text>my</text>
                </lyric>
                <lyric default-y="-113" number="3">
                    <syllabic>single</syllabic>
                    <text>sweet</text>
                </lyric>
                <lyric default-y="-130" number="4">
                    <syllabic>single</syllabic>
                    <text>my</text>
                </lyric>
                <lyric default-y="-147" number="5">
                    <syllabic>end</syllabic>
                    <text>rets,</text>
                </lyric>
                <lyric default-y="-163" number="6">
                    <syllabic>begin</syllabic>
                    <text>dis</text>
                </lyric>
            </note>
            <note default-x="312">
                <pitch>
                    <step>D</step>
                    <octave>5</octave>
                </pitch>
                <duration>1</duration>
                <voice>1</voice>
                <type>eighth</type>
                <stem default-y="-42.5">down</stem>
                <beam number="1">end</beam>
                <notations>
                    <slur type="stop" number="1"/>
                </notations>
            </note>
        </measure>
        <measure width="724" number="16">
            <print new-system="yes">
                <system-layout>
                    <system-distance>237</system-distance>
                </system-layout>
            </print>
            <harmony default-y="34">
                <root>
                    <root-step>C</root-step>
                </root>
                <kind halign="center" text="7">dominant</kind>
            </harmony>
            <note default-x="52">
                <pitch>
                    <step>C</step>
                    <octave>5</octave>
                </pitch>
                <duration>2</duration>
                <voice>1</voice>
                <type>quarter</type>
                <stem default-y="-50">down</stem>
                <lyric default-y="-80" number="1">
                    <syllabic>end</syllabic>
                    <text>turb</text>
                </lyric>
                <lyric default-y="-97" number="2">
                    <syllabic>begin</syllabic>
                    <text>slum</text>
                </lyric>
                <lyric default-y="-113" number="3">
                    <syllabic>single</syllabic>
                    <text>cot</text>
                </lyric>
                <lyric default-y="-130" number="4">
                    <syllabic>begin</syllabic>
                    <text>Ma</text>
                </lyric>
                <lyric default-y="-147" number="5">
                    <syllabic>single</syllabic>
                    <text>she</text>
                </lyric>
                <lyric default-y="-163" number="6">
                    <syllabic>end</syllabic>
                    <text>turb</text>
                </lyric>
            </note>
            <note default-x="245">
                <pitch>
                    <step>B</step>
                    <alter>-1</alter>
                    <octave>4</octave>
                </pitch>
                <duration>1</duration>
                <voice>1</voice>
                <type>eighth</type>
                <stem default-y="15">up</stem>
                <beam number="1">begin</beam>
                <notations>
                    <slur placement="below" type="start" number="1"/>
                </notations>
                <lyric default-y="-80" number="1">
                    <syllabic>single</syllabic>
                    <text>not</text>
                </lyric>
                <lyric default-y="-97" number="2">
                    <syllabic>middle</syllabic>
                    <text>ber</text>
                </lyric>
                <lyric default-y="-113" number="3">
                    <syllabic>single</syllabic>
                    <text>in</text>
                </lyric>
                <lyric default-y="-130" number="4">
                    <syllabic>end</syllabic>
                    <text>ry</text>
                </lyric>
                <lyric default-y="-147" number="5">
                    <syllabic>single</syllabic>
                    <text>stems</text>
                </lyric>
                <lyric default-y="-163" number="6">
                    <syllabic>single</syllabic>
                    <text>not</text>
                </lyric>
            </note>
            <note default-x="365">
                <pitch>
                    <step>A</step>
                    <octave>4</octave>
                </pitch>
                <duration>1</duration>
                <voice>1</voice>
                <type>eighth</type>
                <stem default-y="10">up</stem>
                <beam number="1">end</beam>
                <notations>
                    <slur type="stop" number="1"/>
                </notations>
            </note>
            <note default-x="484">
                <pitch>
                    <step>G</step>
                    <octave>4</octave>
                </pitch>
                <duration>1</duration>
                <voice>1</voice>
                <type>eighth</type>
                <stem default-y="5">up</stem>
                <beam number="1">begin</beam>
                <notations>
                    <slur placement="below" type="start" number="1"/>
                </notations>
                <lyric default-y="-80" number="1">
                    <syllabic>single</syllabic>
                    <text>her</text>
                </lyric>
                <lyric default-y="-97" number="2">
                    <syllabic>end</syllabic>
                    <text>ing</text>
                </lyric>
                <lyric default-y="-113" number="3">
                    <syllabic>single</syllabic>
                    <text>my</text>
                </lyric>
                <lyric default-y="-130" number="4">
                    <syllabic>single</syllabic>
                    <text>and</text>
                </lyric>
                <lyric default-y="-147" number="5">
                    <syllabic>single</syllabic>
                    <text>thy</text>
                </lyric>
                <lyric default-y="-163" number="6">
                    <syllabic>single</syllabic>
                    <text>her</text>
                </lyric>
            </note>
            <note default-x="604">
                <pitch>
                    <step>A</step>
                    <octave>4</octave>
                </pitch>
                <duration>1</duration>
                <voice>1</voice>
                <type>eighth</type>
                <stem default-y="10">up</stem>
                <beam number="1">end</beam>
                <notations>
                    <slur type="stop" number="1"/>
                </notations>
                <lyric default-y="-147" number="5">
                    <syllabic>single</syllabic>
                    <text>clear</text>
                </lyric>
            </note>
        </measure>
        <measure width="302" number="17">
            <harmony default-y="34">
                <root>
                    <root-step>F</root-step>
                </root>
                <kind halign="center" text="">major</kind>
            </harmony>
            <note default-x="34">
                <pitch>
                    <step>F</step>
                    <octave>4</octave>
                </pitch>
                <duration>4</duration>
                <voice>1</voice>
                <type>half</type>
                <stem default-y="0">up</stem>
                <lyric default-y="-80" number="1">
                    <syllabic>single</syllabic>
                    <text>dream.</text>
                </lyric>
                <lyric default-y="-97" number="2">
                    <syllabic>single</syllabic>
                    <text>Fair.</text>
                </lyric>
                <lyric default-y="-113" number="3">
                    <syllabic>single</syllabic>
                    <text>eye.</text>
                </lyric>
                <lyric default-y="-130" number="4">
                    <syllabic>single</syllabic>
                    <text>me.</text>
                </lyric>
                <lyric default-y="-147" number="5">
                    <syllabic>single</syllabic>
                    <text>wave.</text>
                </lyric>
                <lyric default-y="-163" number="6">
                    <syllabic>single</syllabic>
                    <text>dream.</text>
                </lyric>
            </note>
            <barline location="right">
                <bar-style>light-heavy</bar-style>
            </barline>
        </measure>
    </part>
</score-partwise>
