<?xml version="1.0" encoding="UTF-8"?>
<!DOCTYPE score-partwise PUBLIC "-//Recordare//DTD MusicXML 2.0 Partwise//EN" "http://www.musicxml.org/dtds/partwise.dtd">
<score-partwise version="2.0">
    <work>
        <work-number></work-number>
        <work-title></work-title>
    </work>
    <movement-number></movement-number>
    <movement-title>Old MacDonald Had a Farm</movement-title>
    <identification>
        <creator type="composer">traditional nursery song</creator>
        <creator type="poet"></creator>
        <rights>All Rights Reserved</rights>
        <encoding>
            <software>MuseScore 1.3</software>
            <encoding-date>2013-04-07</encoding-date>
            <software>ProxyMusic 2.0 c</software>
        </encoding>
        <source>http://wikifonia.org/node/21739/revisions/28740/view</source>
    </identification>
    <defaults>
        <scaling>
            <millimeters>7.05556</millimeters>
            <tenths>40</tenths>
        </scaling>
        <page-layout>
            <page-height>1683.78</page-height>
            <page-width>1190.55</page-width>
            <page-margins type="even">
                <left-margin>56.6929</left-margin>
                <right-margin>56.6929</right-margin>
                <top-margin>56.6929</top-margin>
                <bottom-margin>113.386</bottom-margin>
            </page-margins>
            <page-margins type="odd">
                <left-margin>56.6929</left-margin>
                <right-margin>56.6929</right-margin>
                <top-margin>56.6929</top-margin>
                <bottom-margin>113.386</bottom-margin>
            </page-margins>
        </page-layout>
    </defaults>
    <credit page="1">
        <credit-words font-size="24" default-y="1627.09" default-x="595.276" justify="center" valign="top">Old MacDonald Had a Farm</credit-words>
    </credit>
    <credit page="1">
        <credit-words font-size="12" default-y="1557.09" default-x="1133.86" justify="right" valign="top">traditional nursery rhyme</credit-words>
    </credit>
    <part-list>
        <score-part id="P1">
            <part-name>Voice</part-name>
            <part-abbreviation>Vo.</part-abbreviation>
            <score-instrument id="P1-I3">
                <instrument-name>Voice</instrument-name>
            </score-instrument>
            <midi-instrument id="P1-I3">
                <midi-channel>1</midi-channel>
                <midi-program>53</midi-program>
                <volume>78.7402</volume>
                <pan>0</pan>
            </midi-instrument>
        </score-part>
    </part-list>
    <part id="P1">
        <measure width="378.37" number="1">
            <print>
                <system-layout>
                    <system-margins>
                        <left-margin>68.75</left-margin>
                        <right-margin>0.00</right-margin>
                    </system-margins>
                    <top-system-distance>231.64</top-system-distance>
                </system-layout>
            </print>
            <attributes>
                <divisions>4</divisions>
                <key>
                    <fifths>1</fifths>
                    <mode>major</mode>
                </key>
                <time>
                    <beats>2</beats>
                    <beat-type>4</beat-type>
                </time>
                <clef>
                    <sign>G</sign>
                    <line>2</line>
                </clef>
            </attributes>
            <harmony print-frame="no">
                <root>
                    <root-step>G</root-step>
                </root>
                <kind text="">major</kind>
            </harmony>
            <note default-y="-30.00" default-x="102.20">
                <pitch>
                    <step>G</step>
                    <octave>4</octave>
                </pitch>
                <duration>2</duration>
                <voice>1</voice>
                <type>eighth</type>
                <stem>up</stem>
                <beam number="1">begin</beam>
                <lyric number="1">
                    <syllabic>single</syllabic>
                    <text>Old</text>
                </lyric>
            </note>
            <note default-y="-30.00" default-x="102.20">
                <chord/>
                <pitch>
                    <step>G</step>
                    <octave>4</octave>
                </pitch>
                <duration>2</duration>
                <voice>1</voice>
                <type>eighth</type>
                <stem>up</stem>
            </note>
            <note default-y="-30.00" default-x="170.84">
                <pitch>
                    <step>G</step>
                    <octave>4</octave>
                </pitch>
                <duration>2</duration>
                <voice>1</voice>
                <type>eighth</type>
                <stem>up</stem>
                <beam number="1">end</beam>
                <lyric number="1">
                    <syllabic>begin</syllabic>
                    <text>Mac</text>
                </lyric>
            </note>
            <note default-y="-30.00" default-x="239.48">
                <pitch>
                    <step>G</step>
                    <octave>4</octave>
                </pitch>
                <duration>2</duration>
                <voice>1</voice>
                <type>eighth</type>
                <stem>up</stem>
                <beam number="1">begin</beam>
                <lyric number="1">
                    <syllabic>middle</syllabic>
                    <text>Don</text>
                </lyric>
            </note>
            <note default-y="-45.00" default-x="308.13">
                <pitch>
                    <step>D</step>
                    <octave>4</octave>
                </pitch>
                <duration>2</duration>
                <voice>1</voice>
                <type>eighth</type>
                <stem>up</stem>
                <beam number="1">end</beam>
                <lyric number="1">
                    <syllabic>end</syllabic>
                    <text>ald</text>
                </lyric>
            </note>
        </measure>
        <measure width="250.42" number="2">
            <harmony print-frame="no">
                <root>
                    <root-step>C</root-step>
                </root>
                <kind text="">major</kind>
            </harmony>
            <note default-y="-40.00" default-x="20.45">
                <pitch>
                    <step>E</step>
                    <octave>4</octave>
                </pitch>
                <duration>2</duration>
                <voice>1</voice>
                <type>eighth</type>
                <stem>up</stem>
                <beam number="1">begin</beam>
                <lyric number="1">
                    <syllabic>single</syllabic>
                    <text>had</text>
                </lyric>
            </note>
            <note default-y="-40.00" default-x="83.88">
                <pitch>
                    <step>E</step>
                    <octave>4</octave>
                </pitch>
                <duration>2</duration>
                <voice>1</voice>
                <type>eighth</type>
                <stem>up</stem>
                <beam number="1">end</beam>
                <lyric number="1">
                    <syllabic>single</syllabic>
                    <text>a</text>
                </lyric>
            </note>
            <harmony print-frame="no">
                <root>
                    <root-step>G</root-step>
                </root>
                <kind text="">major</kind>
            </harmony>
            <note default-y="-45.00" default-x="147.32">
                <pitch>
                    <step>D</step>
                    <octave>4</octave>
                </pitch>
                <duration>4</duration>
                <voice>1</voice>
                <type>quarter</type>
                <stem>up</stem>
                <lyric number="1">
                    <syllabic>single</syllabic>
                    <text>farm,</text>
                </lyric>
            </note>
        </measure>
        <measure width="231.31" number="3">
            <harmony print-frame="no">
                <root>
                    <root-step>A</root-step>
                </root>
                <kind text="7">dominant</kind>
            </harmony>
            <note default-y="-20.00" default-x="12.00">
                <pitch>
                    <step>B</step>
                    <octave>4</octave>
                </pitch>
                <duration>2</duration>
                <voice>1</voice>
                <type>eighth</type>
                <stem>down</stem>
                <beam number="1">begin</beam>
                <lyric number="1">
                    <syllabic>begin</syllabic>
                    <text>E</text>
                </lyric>
            </note>
            <note default-y="-20.00" default-x="66.43">
                <pitch>
                    <step>B</step>
                    <octave>4</octave>
                </pitch>
                <duration>2</duration>
                <voice>1</voice>
                <type>eighth</type>
                <stem>down</stem>
                <beam number="1">end</beam>
                <lyric number="1">
                    <syllabic>middle</syllabic>
                    <text>I</text>
                </lyric>
            </note>
            <harmony print-frame="no">
                <root>
                    <root-step>D</root-step>
                </root>
                <kind text="7">dominant</kind>
            </harmony>
            <note default-y="-25.00" default-x="120.86">
                <pitch>
                    <step>A</step>
                    <octave>4</octave>
                </pitch>
                <duration>2</duration>
                <voice>1</voice>
                <type>eighth</type>
                <stem>up</stem>
                <beam number="1">begin</beam>
                <lyric number="1">
                    <syllabic>middle</syllabic>
                    <text>E</text>
                </lyric>
            </note>
            <note default-y="-25.00" default-x="175.28">
                <pitch>
                    <step>A</step>
                    <octave>4</octave>
                </pitch>
                <duration>2</duration>
                <voice>1</voice>
                <type>eighth</type>
                <stem>up</stem>
                <beam number="1">end</beam>
                <lyric number="1">
                    <syllabic>middle</syllabic>
                    <text>I</text>
                </lyric>
            </note>
        </measure>
        <measure width="148.31" number="4">
            <harmony print-frame="no">
                <root>
                    <root-step>G</root-step>
                </root>
                <kind text="">major</kind>
            </harmony>
            <note default-y="-30.00" default-x="16.23">
                <pitch>
                    <step>G</step>
                    <octave>4</octave>
                </pitch>
                <duration>6</duration>
                <voice>1</voice>
                <type>quarter</type>
                <dot/>
                <stem>up</stem>
                <lyric number="1">
                    <syllabic>end</syllabic>
                    <text>O!</text>
                </lyric>
            </note>
            <barline location="right">
                <bar-style>light-light</bar-style>
            </barline>
        </measure>
        <measure width="177.83" number="5">
            <print new-system="yes">
                <system-layout>
                    <system-margins>
                        <left-margin>46.91</left-margin>
                        <right-margin>0.00</right-margin>
                    </system-margins>
                    <system-distance>155.64</system-distance>
                </system-layout>
            </print>
            <barline location="left">
                <bar-style>heavy-light</bar-style>
                <repeat direction="forward"/>
            </barline>
            <note default-y="-45.00" default-x="105.87">
                <pitch>
                    <step>D</step>
                    <octave>4</octave>
                </pitch>
                <duration>2</duration>
                <voice>1</voice>
                <type>eighth</type>
                <stem>up</stem>
                <lyric number="1">
                    <syllabic>single</syllabic>
                    <text>1.  And</text>
                </lyric>
                <lyric number="2">
                    <syllabic>single</syllabic>
                    <text>2.   And</text>
                </lyric>
                <lyric number="3">
                    <syllabic>single</syllabic>
                    <text>3.   And</text>
                </lyric>
                <lyric number="4">
                    <syllabic>single</syllabic>
                    <text>4.   And</text>
                </lyric>
                <lyric number="5">
                    <syllabic>single</syllabic>
                    <text>5.   And</text>
                </lyric>
                <lyric number="6">
                    <syllabic>single</syllabic>
                    <text>6.   And</text>
                </lyric>
            </note>
        </measure>
        <measure width="247.35" number="6">
            <harmony print-frame="no">
                <root>
                    <root-step>G</root-step>
                </root>
                <kind text="">major</kind>
            </harmony>
            <note default-y="-30.00" default-x="15.64">
                <pitch>
                    <step>G</step>
                    <octave>4</octave>
                </pitch>
                <duration>2</duration>
                <voice>1</voice>
                <type>eighth</type>
                <stem>up</stem>
                <beam number="1">begin</beam>
                <lyric number="1">
                    <syllabic>single</syllabic>
                    <text>on</text>
                </lyric>
                <lyric number="2">
                    <syllabic>single</syllabic>
                    <text>on</text>
                </lyric>
                <lyric number="3">
                    <syllabic>single</syllabic>
                    <text>on</text>
                </lyric>
                <lyric number="4">
                    <syllabic>single</syllabic>
                    <text>on</text>
                </lyric>
                <lyric number="5">
                    <syllabic>single</syllabic>
                    <text>on</text>
                </lyric>
                <lyric number="6">
                    <syllabic>single</syllabic>
                    <text>on</text>
                </lyric>
            </note>
            <note default-y="-30.00" default-x="73.17">
                <pitch>
                    <step>G</step>
                    <octave>4</octave>
                </pitch>
                <duration>2</duration>
                <voice>1</voice>
                <type>eighth</type>
                <stem>up</stem>
                <beam number="1">end</beam>
                <lyric number="1">
                    <syllabic>single</syllabic>
                    <text>his</text>
                </lyric>
                <lyric number="2">
                    <syllabic>single</syllabic>
                    <text>his</text>
                </lyric>
                <lyric number="3">
                    <syllabic>single</syllabic>
                    <text>his</text>
                </lyric>
                <lyric number="4">
                    <syllabic>single</syllabic>
                    <text>his</text>
                </lyric>
                <lyric number="5">
                    <syllabic>single</syllabic>
                    <text>his</text>
                </lyric>
                <lyric number="6">
                    <syllabic>single</syllabic>
                    <text>his</text>
                </lyric>
            </note>
            <note default-y="-30.00" default-x="130.69">
                <pitch>
                    <step>G</step>
                    <octave>4</octave>
                </pitch>
                <duration>2</duration>
                <voice>1</voice>
                <type>eighth</type>
                <stem>up</stem>
                <beam number="1">begin</beam>
                <lyric number="1">
                    <syllabic>single</syllabic>
                    <text>farm</text>
                </lyric>
                <lyric number="2">
                    <syllabic>single</syllabic>
                    <text>farm</text>
                </lyric>
                <lyric number="3">
                    <syllabic>single</syllabic>
                    <text>farm</text>
                </lyric>
                <lyric number="4">
                    <syllabic>single</syllabic>
                    <text>farm</text>
                </lyric>
                <lyric number="5">
                    <syllabic>single</syllabic>
                    <text>farm</text>
                </lyric>
                <lyric number="6">
                    <syllabic>single</syllabic>
                    <text>farm</text>
                </lyric>
            </note>
            <note default-y="-45.00" default-x="188.22">
                <pitch>
                    <step>D</step>
                    <octave>4</octave>
                </pitch>
                <duration>2</duration>
                <voice>1</voice>
                <type>eighth</type>
                <stem>up</stem>
                <beam number="1">end</beam>
                <lyric number="1">
                    <syllabic>single</syllabic>
                    <text>he</text>
                </lyric>
                <lyric number="2">
                    <syllabic>single</syllabic>
                    <text>he</text>
                </lyric>
                <lyric number="3">
                    <syllabic>single</syllabic>
                    <text>he</text>
                </lyric>
                <lyric number="4">
                    <syllabic>single</syllabic>
                    <text>he</text>
                </lyric>
                <lyric number="5">
                    <syllabic>single</syllabic>
                    <text>he</text>
                </lyric>
                <lyric number="6">
                    <syllabic>single</syllabic>
                    <text>he</text>
                </lyric>
            </note>
        </measure>
        <measure width="276.03" number="7">
            <harmony print-frame="no">
                <root>
                    <root-step>C</root-step>
                </root>
                <kind text="">major</kind>
            </harmony>
            <note default-y="-40.00" default-x="20.45">
                <pitch>
                    <step>E</step>
                    <octave>4</octave>
                </pitch>
                <duration>2</duration>
                <voice>1</voice>
                <type>eighth</type>
                <stem>up</stem>
                <beam number="1">begin</beam>
                <lyric number="1">
                    <syllabic>single</syllabic>
                    <text>had</text>
                </lyric>
                <lyric number="2">
                    <syllabic>single</syllabic>
                    <text>had</text>
                </lyric>
                <lyric number="3">
                    <syllabic>single</syllabic>
                    <text>had</text>
                </lyric>
                <lyric number="4">
                    <syllabic>single</syllabic>
                    <text>had</text>
                </lyric>
                <lyric number="5">
                    <syllabic>single</syllabic>
                    <text>had</text>
                </lyric>
                <lyric number="6">
                    <syllabic>single</syllabic>
                    <text>had</text>
                </lyric>
            </note>
            <note default-y="-40.00" default-x="91.00">
                <pitch>
                    <step>E</step>
                    <octave>4</octave>
                </pitch>
                <duration>2</duration>
                <voice>1</voice>
                <type>eighth</type>
                <stem>up</stem>
                <beam number="1">end</beam>
                <lyric number="1">
                    <syllabic>single</syllabic>
                    <text>some</text>
                </lyric>
                <lyric number="2">
                    <syllabic>single</syllabic>
                    <text>some</text>
                </lyric>
                <lyric number="3">
                    <syllabic>single</syllabic>
                    <text>some</text>
                </lyric>
                <lyric number="4">
                    <syllabic>single</syllabic>
                    <text>some</text>
                </lyric>
                <lyric number="5">
                    <syllabic>single</syllabic>
                    <text>some</text>
                </lyric>
                <lyric number="6">
                    <syllabic>single</syllabic>
                    <text>a</text>
                </lyric>
            </note>
            <harmony print-frame="no">
                <root>
                    <root-step>G</root-step>
                </root>
                <kind text="">major</kind>
            </harmony>
            <note default-y="-45.00" default-x="161.55">
                <pitch>
                    <step>D</step>
                    <octave>4</octave>
                </pitch>
                <duration>4</duration>
                <voice>1</voice>
                <type>quarter</type>
                <stem>up</stem>
                <lyric number="1">
                    <syllabic>single</syllabic>
                    <text>chicks,</text>
                </lyric>
                <lyric number="2">
                    <syllabic>single</syllabic>
                    <text>ducks,</text>
                </lyric>
                <lyric number="3">
                    <syllabic>single</syllabic>
                    <text>cows,</text>
                </lyric>
                <lyric number="4">
                    <syllabic>single</syllabic>
                    <text>turkeys,</text>
                </lyric>
                <lyric number="5">
                    <syllabic>single</syllabic>
                    <text>pigs,</text>
                </lyric>
                <lyric number="6">
                    <syllabic>single</syllabic>
                    <text>horse,</text>
                </lyric>
            </note>
        </measure>
        <measure width="205.04" number="8">
            <harmony print-frame="no">
                <root>
                    <root-step>A</root-step>
                </root>
                <kind text="7">dominant</kind>
            </harmony>
            <note default-y="-20.00" default-x="12.00">
                <pitch>
                    <step>B</step>
                    <octave>4</octave>
                </pitch>
                <duration>2</duration>
                <voice>1</voice>
                <type>eighth</type>
                <stem>down</stem>
                <beam number="1">begin</beam>
                <lyric number="1">
                    <syllabic>begin</syllabic>
                    <text>E</text>
                </lyric>
                <lyric number="2">
                    <syllabic>begin</syllabic>
                    <text>E</text>
                </lyric>
                <lyric number="3">
                    <syllabic>begin</syllabic>
                    <text>E</text>
                </lyric>
                <lyric number="4">
                    <syllabic>begin</syllabic>
                    <text>E</text>
                </lyric>
                <lyric number="5">
                    <syllabic>begin</syllabic>
                    <text>E</text>
                </lyric>
                <lyric number="6">
                    <syllabic>begin</syllabic>
                    <text>E</text>
                </lyric>
            </note>
            <note default-y="-20.00" default-x="59.86">
                <pitch>
                    <step>B</step>
                    <octave>4</octave>
                </pitch>
                <duration>2</duration>
                <voice>1</voice>
                <type>eighth</type>
                <stem>down</stem>
                <beam number="1">end</beam>
                <lyric number="1">
                    <syllabic>middle</syllabic>
                    <text>I</text>
                </lyric>
                <lyric number="2">
                    <syllabic>middle</syllabic>
                    <text>I</text>
                </lyric>
                <lyric number="3">
                    <syllabic>middle</syllabic>
                    <text>I</text>
                </lyric>
                <lyric number="4">
                    <syllabic>middle</syllabic>
                    <text>I</text>
                </lyric>
                <lyric number="5">
                    <syllabic>middle</syllabic>
                    <text>I</text>
                </lyric>
                <lyric number="6">
                    <syllabic>middle</syllabic>
                    <text>I</text>
                </lyric>
            </note>
            <harmony print-frame="no">
                <root>
                    <root-step>D</root-step>
                </root>
                <kind text="7">dominant</kind>
            </harmony>
            <note default-y="-25.00" default-x="107.72">
                <pitch>
                    <step>A</step>
                    <octave>4</octave>
                </pitch>
                <duration>2</duration>
                <voice>1</voice>
                <type>eighth</type>
                <stem>up</stem>
                <beam number="1">begin</beam>
                <lyric number="1">
                    <syllabic>middle</syllabic>
                    <text>E</text>
                </lyric>
                <lyric number="2">
                    <syllabic>middle</syllabic>
                    <text>E</text>
                </lyric>
                <lyric number="3">
                    <syllabic>middle</syllabic>
                    <text>E</text>
                </lyric>
                <lyric number="4">
                    <syllabic>middle</syllabic>
                    <text>E</text>
                </lyric>
                <lyric number="5">
                    <syllabic>middle</syllabic>
                    <text>E</text>
                </lyric>
                <lyric number="6">
                    <syllabic>middle</syllabic>
                    <text>E</text>
                </lyric>
            </note>
            <note default-y="-25.00" default-x="155.58">
                <pitch>
                    <step>A</step>
                    <octave>4</octave>
                </pitch>
                <duration>2</duration>
                <voice>1</voice>
                <type>eighth</type>
                <stem>up</stem>
                <beam number="1">end</beam>
                <lyric number="1">
                    <syllabic>middle</syllabic>
                    <text>I</text>
                </lyric>
                <lyric number="2">
                    <syllabic>middle</syllabic>
                    <text>I</text>
                </lyric>
                <lyric number="3">
                    <syllabic>middle</syllabic>
                    <text>I</text>
                </lyric>
                <lyric number="4">
                    <syllabic>middle</syllabic>
                    <text>I</text>
                </lyric>
                <lyric number="5">
                    <syllabic>middle</syllabic>
                    <text>I</text>
                </lyric>
                <lyric number="6">
                    <syllabic>middle</syllabic>
                    <text>I</text>
                </lyric>
            </note>
        </measure>
        <measure width="124.01" number="9">
            <harmony print-frame="no">
                <root>
                    <root-step>G</root-step>
                </root>
                <kind text="">major</kind>
            </harmony>
            <note default-y="-30.00" default-x="16.23">
                <pitch>
                    <step>G</step>
                    <octave>4</octave>
                </pitch>
                <duration>6</duration>
                <voice>1</voice>
                <type>quarter</type>
                <dot/>
                <stem>up</stem>
                <lyric number="1">
                    <syllabic>end</syllabic>
                    <text>O!</text>
                </lyric>
                <lyric number="2">
                    <syllabic>end</syllabic>
                    <text>O!</text>
                </lyric>
                <lyric number="3">
                    <syllabic>end</syllabic>
                    <text>O!</text>
                </lyric>
                <lyric number="4">
                    <syllabic>end</syllabic>
                    <text>O!</text>
                </lyric>
                <lyric number="5">
                    <syllabic>end</syllabic>
                    <text>O!</text>
                </lyric>
                <lyric number="6">
                    <syllabic>end</syllabic>
                    <text>O!</text>
                </lyric>
            </note>
        </measure>
        <measure width="195.40" number="10">
            <print new-system="yes">
                <system-layout>
                    <system-margins>
                        <left-margin>46.91</left-margin>
                        <right-margin>0.00</right-margin>
                    </system-margins>
                    <system-distance>281.64</system-distance>
                </system-layout>
            </print>
            <note default-y="-45.00" default-x="86.58">
                <pitch>
                    <step>D</step>
                    <octave>4</octave>
                </pitch>
                <duration>1</duration>
                <voice>1</voice>
                <type>16th</type>
                <stem>up</stem>
                <beam number="1">begin</beam>
                <beam number="2">begin</beam>
                <lyric number="1">
                    <syllabic>single</syllabic>
                    <text>With</text>
                </lyric>
                <lyric number="2">
                    <syllabic>single</syllabic>
                    <text>With</text>
                </lyric>
                <lyric number="3">
                    <syllabic>single</syllabic>
                    <text>With</text>
                </lyric>
                <lyric number="4">
                    <syllabic>single</syllabic>
                    <text>With</text>
                </lyric>
                <lyric number="5">
                    <syllabic>single</syllabic>
                    <text>With</text>
                </lyric>
                <lyric number="6">
                    <syllabic>single</syllabic>
                    <text>With</text>
                </lyric>
            </note>
            <note default-y="-45.00" default-x="140.19">
                <pitch>
                    <step>D</step>
                    <octave>4</octave>
                </pitch>
                <duration>1</duration>
                <voice>1</voice>
                <type>16th</type>
                <stem>up</stem>
                <beam number="1">end</beam>
                <beam number="2">end</beam>
                <lyric number="1">
                    <syllabic>single</syllabic>
                    <text>a</text>
                </lyric>
                <lyric number="2">
                    <syllabic>single</syllabic>
                    <text>a</text>
                </lyric>
                <lyric number="3">
                    <syllabic>single</syllabic>
                    <text>a</text>
                </lyric>
                <lyric number="4">
                    <syllabic>single</syllabic>
                    <text>a</text>
                </lyric>
                <lyric number="5">
                    <syllabic>single</syllabic>
                    <text>an</text>
                </lyric>
                <lyric number="6">
                    <syllabic>single</syllabic>
                    <text>a</text>
                </lyric>
            </note>
        </measure>
        <measure width="447.56" number="11">
            <harmony print-frame="no">
                <root>
                    <root-step>G</root-step>
                </root>
                <kind text="">major</kind>
            </harmony>
            <note default-y="-30.00" default-x="37.00">
                <pitch>
                    <step>G</step>
                    <octave>4</octave>
                </pitch>
                <duration>2</duration>
                <voice>1</voice>
                <type>eighth</type>
                <stem>up</stem>
                <beam number="1">begin</beam>
                <lyric number="1">
                    <syllabic>single</syllabic>
                    <text>chick,</text>
                </lyric>
                <lyric number="2">
                    <syllabic>single</syllabic>
                    <text>quack,</text>
                </lyric>
                <lyric number="3">
                    <syllabic>single</syllabic>
                    <text>moo,</text>
                </lyric>
                <lyric number="4">
                    <syllabic>single</syllabic>
                    <text>gobble,</text>
                </lyric>
                <lyric number="5">
                    <syllabic>single</syllabic>
                    <text>oink,</text>
                </lyric>
                <lyric number="6">
                    <syllabic>single</syllabic>
                    <text>neigh,</text>
                </lyric>
            </note>
            <harmony print-frame="no">
                <root>
                    <root-step>C</root-step>
                </root>
                <kind text="">major</kind>
            </harmony>
            <note default-y="-30.00" default-x="133.23">
                <pitch>
                    <step>G</step>
                    <octave>4</octave>
                </pitch>
                <duration>2</duration>
                <voice>1</voice>
                <type>eighth</type>
                <stem>up</stem>
                <beam number="1">end</beam>
                <lyric number="1">
                    <syllabic>single</syllabic>
                    <text>chick</text>
                </lyric>
                <lyric number="2">
                    <syllabic>single</syllabic>
                    <text>quack</text>
                </lyric>
                <lyric number="3">
                    <syllabic>single</syllabic>
                    <text>moo</text>
                </lyric>
                <lyric number="4">
                    <syllabic>single</syllabic>
                    <text>gobble</text>
                </lyric>
                <lyric number="5">
                    <syllabic>single</syllabic>
                    <text>oink</text>
                </lyric>
                <lyric number="6">
                    <syllabic>single</syllabic>
                    <text>neigh</text>
                </lyric>
            </note>
            <harmony print-frame="no">
                <root>
                    <root-step>G</root-step>
                </root>
                <kind text="">major</kind>
            </harmony>
            <note default-y="-30.00" default-x="229.45">
                <pitch>
                    <step>G</step>
                    <octave>4</octave>
                </pitch>
                <duration>2</duration>
                <voice>1</voice>
                <type>eighth</type>
                <stem>up</stem>
                <beam number="1">begin</beam>
                <lyric number="1">
                    <syllabic>single</syllabic>
                    <text>here,</text>
                </lyric>
                <lyric number="2">
                    <syllabic>single</syllabic>
                    <text>here,</text>
                </lyric>
                <lyric number="3">
                    <syllabic>single</syllabic>
                    <text>here,</text>
                </lyric>
                <lyric number="4">
                    <syllabic>single</syllabic>
                    <text>here,</text>
                </lyric>
                <lyric number="5">
                    <syllabic>single</syllabic>
                    <text>here,</text>
                </lyric>
                <lyric number="6">
                    <syllabic>single</syllabic>
                    <text>here,</text>
                </lyric>
            </note>
            <note default-y="-45.00" default-x="325.68">
                <pitch>
                    <step>D</step>
                    <octave>4</octave>
                </pitch>
                <duration>1</duration>
                <voice>1</voice>
                <type>16th</type>
                <stem>up</stem>
                <beam number="1">continue</beam>
                <beam number="2">begin</beam>
                <lyric number="1">
                    <syllabic>single</syllabic>
                    <text>and</text>
                </lyric>
                <lyric number="2">
                    <syllabic>single</syllabic>
                    <text>and</text>
                </lyric>
                <lyric number="3">
                    <syllabic>single</syllabic>
                    <text>and</text>
                </lyric>
                <lyric number="4">
                    <syllabic>single</syllabic>
                    <text>and</text>
                </lyric>
                <lyric number="5">
                    <syllabic>single</syllabic>
                    <text>and</text>
                </lyric>
                <lyric number="6">
                    <syllabic>single</syllabic>
                    <text>and</text>
                </lyric>
            </note>
            <note default-y="-45.00" default-x="385.82">
                <pitch>
                    <step>D</step>
                    <octave>4</octave>
                </pitch>
                <duration>1</duration>
                <voice>1</voice>
                <type>16th</type>
                <stem>up</stem>
                <beam number="1">end</beam>
                <beam number="2">end</beam>
                <lyric number="1">
                    <syllabic>single</syllabic>
                    <text>a</text>
                </lyric>
                <lyric number="2">
                    <syllabic>single</syllabic>
                    <text>a</text>
                </lyric>
                <lyric number="3">
                    <syllabic>single</syllabic>
                    <text>a</text>
                </lyric>
                <lyric number="4">
                    <syllabic>single</syllabic>
                    <text>a</text>
                </lyric>
                <lyric number="5">
                    <syllabic>single</syllabic>
                    <text>an</text>
                </lyric>
                <lyric number="6">
                    <syllabic>single</syllabic>
                    <text>a</text>
                </lyric>
            </note>
        </measure>
        <measure width="387.30" number="12">
            <harmony print-frame="no">
                <root>
                    <root-step>G</root-step>
                </root>
                <kind text="">major</kind>
            </harmony>
            <note default-y="-30.00" default-x="37.00">
                <pitch>
                    <step>G</step>
                    <octave>4</octave>
                </pitch>
                <duration>2</duration>
                <voice>1</voice>
                <type>eighth</type>
                <stem>up</stem>
                <beam number="1">begin</beam>
                <lyric number="1">
                    <syllabic>single</syllabic>
                    <text>chick,</text>
                </lyric>
                <lyric number="2">
                    <syllabic>single</syllabic>
                    <text>quack,</text>
                </lyric>
                <lyric number="3">
                    <syllabic>single</syllabic>
                    <text>moo,</text>
                </lyric>
                <lyric number="4">
                    <syllabic>single</syllabic>
                    <text>gobble,</text>
                </lyric>
                <lyric number="5">
                    <syllabic>single</syllabic>
                    <text>oink,</text>
                </lyric>
                <lyric number="6">
                    <syllabic>single</syllabic>
                    <text>neigh,</text>
                </lyric>
            </note>
            <harmony print-frame="no">
                <root>
                    <root-step>C</root-step>
                </root>
                <kind text="">major</kind>
            </harmony>
            <note default-y="-30.00" default-x="133.86">
                <pitch>
                    <step>G</step>
                    <octave>4</octave>
                </pitch>
                <duration>2</duration>
                <voice>1</voice>
                <type>eighth</type>
                <stem>up</stem>
                <beam number="1">end</beam>
                <lyric number="1">
                    <syllabic>single</syllabic>
                    <text>chick</text>
                </lyric>
                <lyric number="2">
                    <syllabic>single</syllabic>
                    <text>quack</text>
                </lyric>
                <lyric number="3">
                    <syllabic>single</syllabic>
                    <text>moo</text>
                </lyric>
                <lyric number="4">
                    <syllabic>single</syllabic>
                    <text>gobble</text>
                </lyric>
                <lyric number="5">
                    <syllabic>single</syllabic>
                    <text>oink</text>
                </lyric>
                <lyric number="6">
                    <syllabic>single</syllabic>
                    <text>neigh</text>
                </lyric>
            </note>
            <harmony print-frame="no">
                <root>
                    <root-step>G</root-step>
                </root>
                <kind text="">major</kind>
            </harmony>
            <note default-y="-30.00" default-x="230.72">
                <pitch>
                    <step>G</step>
                    <octave>4</octave>
                </pitch>
                <duration>4</duration>
                <voice>1</voice>
                <type>quarter</type>
                <stem>up</stem>
                <lyric number="1">
                    <syllabic>single</syllabic>
                    <text>there,</text>
                </lyric>
                <lyric number="2">
                    <syllabic>single</syllabic>
                    <text>there,</text>
                </lyric>
                <lyric number="3">
                    <syllabic>single</syllabic>
                    <text>there,</text>
                </lyric>
                <lyric number="4">
                    <syllabic>single</syllabic>
                    <text>there,</text>
                </lyric>
                <lyric number="5">
                    <syllabic>single</syllabic>
                    <text>there,</text>
                </lyric>
                <lyric number="6">
                    <syllabic>single</syllabic>
                    <text>there,</text>
                </lyric>
            </note>
        </measure>
        <measure width="543.22" number="13">
            <print new-system="yes">
                <system-layout>
                    <system-margins>
                        <left-margin>46.91</left-margin>
                        <right-margin>0.00</right-margin>
                    </system-margins>
                    <system-distance>281.64</system-distance>
                </system-layout>
            </print>
            <harmony print-frame="no">
                <root>
                    <root-step>G</root-step>
                </root>
                <kind text="">major</kind>
            </harmony>
            <note default-y="-30.00" default-x="86.40">
                <pitch>
                    <step>G</step>
                    <octave>4</octave>
                </pitch>
                <duration>1</duration>
                <voice>1</voice>
                <type>16th</type>
                <stem>up</stem>
                <beam number="1">begin</beam>
                <beam number="2">begin</beam>
                <lyric number="1">
                    <syllabic>single</syllabic>
                    <text>Here</text>
                </lyric>
                <lyric number="2">
                    <syllabic>single</syllabic>
                    <text>Here</text>
                </lyric>
                <lyric number="3">
                    <syllabic>single</syllabic>
                    <text>Here</text>
                </lyric>
                <lyric number="4">
                    <syllabic>single</syllabic>
                    <text>Here</text>
                </lyric>
                <lyric number="5">
                    <syllabic>single</syllabic>
                    <text>Here</text>
                </lyric>
                <lyric number="6">
                    <syllabic>single</syllabic>
                    <text>Here</text>
                </lyric>
            </note>
            <note default-y="-30.00" default-x="149.62">
                <pitch>
                    <step>G</step>
                    <octave>4</octave>
                </pitch>
                <duration>1</duration>
                <voice>1</voice>
                <type>16th</type>
                <stem>up</stem>
                <beam number="1">continue</beam>
                <beam number="2">end</beam>
                <lyric number="1">
                    <syllabic>single</syllabic>
                    <text>a</text>
                </lyric>
                <lyric number="2">
                    <syllabic>single</syllabic>
                    <text>a</text>
                </lyric>
                <lyric number="3">
                    <syllabic>single</syllabic>
                    <text>a</text>
                </lyric>
                <lyric number="4">
                    <syllabic>single</syllabic>
                    <text>a</text>
                </lyric>
                <lyric number="5">
                    <syllabic>single</syllabic>
                    <text>an</text>
                </lyric>
                <lyric number="6">
                    <syllabic>single</syllabic>
                    <text>a</text>
                </lyric>
            </note>
            <harmony print-frame="no">
                <root>
                    <root-step>C</root-step>
                </root>
                <kind text="">major</kind>
            </harmony>
            <note default-y="-30.00" default-x="212.85">
                <pitch>
                    <step>G</step>
                    <octave>4</octave>
                </pitch>
                <duration>2</duration>
                <voice>1</voice>
                <type>eighth</type>
                <stem>up</stem>
                <beam number="1">end</beam>
                <lyric number="1">
                    <syllabic>single</syllabic>
                    <text>chick,</text>
                </lyric>
                <lyric number="2">
                    <syllabic>single</syllabic>
                    <text>quack,</text>
                </lyric>
                <lyric number="3">
                    <syllabic>single</syllabic>
                    <text>moo,</text>
                </lyric>
                <lyric number="4">
                    <syllabic>single</syllabic>
                    <text>gobble,</text>
                </lyric>
                <lyric number="5">
                    <syllabic>single</syllabic>
                    <text>oink,</text>
                </lyric>
                <lyric number="6">
                    <syllabic>single</syllabic>
                    <text>neigh,</text>
                </lyric>
            </note>
            <harmony print-frame="no">
                <root>
                    <root-step>G</root-step>
                </root>
                <kind text="">major</kind>
            </harmony>
            <note default-y="-30.00" default-x="314.01">
                <pitch>
                    <step>G</step>
                    <octave>4</octave>
                </pitch>
                <duration>1</duration>
                <voice>1</voice>
                <type>16th</type>
                <stem>up</stem>
                <beam number="1">begin</beam>
                <beam number="2">begin</beam>
                <lyric number="1">
                    <syllabic>single</syllabic>
                    <text>there</text>
                </lyric>
                <lyric number="2">
                    <syllabic>single</syllabic>
                    <text>there</text>
                </lyric>
                <lyric number="3">
                    <syllabic>single</syllabic>
                    <text>there</text>
                </lyric>
                <lyric number="4">
                    <syllabic>single</syllabic>
                    <text>there</text>
                </lyric>
                <lyric number="5">
                    <syllabic>single</syllabic>
                    <text>there</text>
                </lyric>
                <lyric number="6">
                    <syllabic>single</syllabic>
                    <text>there</text>
                </lyric>
            </note>
            <note default-y="-30.00" default-x="377.24">
                <pitch>
                    <step>G</step>
                    <octave>4</octave>
                </pitch>
                <duration>1</duration>
                <voice>1</voice>
                <type>16th</type>
                <stem>up</stem>
                <beam number="1">continue</beam>
                <beam number="2">end</beam>
                <lyric number="1">
                    <syllabic>single</syllabic>
                    <text>a</text>
                </lyric>
                <lyric number="2">
                    <syllabic>single</syllabic>
                    <text>a</text>
                </lyric>
                <lyric number="3">
                    <syllabic>single</syllabic>
                    <text>a</text>
                </lyric>
                <lyric number="4">
                    <syllabic>single</syllabic>
                    <text>a</text>
                </lyric>
                <lyric number="5">
                    <syllabic>single</syllabic>
                    <text>an</text>
                </lyric>
                <lyric number="6">
                    <syllabic>single</syllabic>
                    <text>a</text>
                </lyric>
            </note>
            <note default-y="-30.00" default-x="440.46">
                <pitch>
                    <step>G</step>
                    <octave>4</octave>
                </pitch>
                <duration>2</duration>
                <voice>1</voice>
                <type>eighth</type>
                <stem>up</stem>
                <beam number="1">end</beam>
                <lyric number="1">
                    <syllabic>single</syllabic>
                    <text>chick,</text>
                </lyric>
                <lyric number="2">
                    <syllabic>single</syllabic>
                    <text>quack,</text>
                </lyric>
                <lyric number="3">
                    <syllabic>single</syllabic>
                    <text>moo,</text>
                </lyric>
                <lyric number="4">
                    <syllabic>single</syllabic>
                    <text>gobble,</text>
                </lyric>
                <lyric number="5">
                    <syllabic>single</syllabic>
                    <text>oink,</text>
                </lyric>
                <lyric number="6">
                    <syllabic>single</syllabic>
                    <text>neigh,</text>
                </lyric>
            </note>
        </measure>
        <measure width="487.04" number="14">
            <harmony print-frame="no">
                <root>
                    <root-step>G</root-step>
                </root>
                <kind text="">major</kind>
            </harmony>
            <note default-y="-30.00" default-x="28.93">
                <pitch>
                    <step>G</step>
                    <octave>4</octave>
                </pitch>
                <duration>1</duration>
                <voice>1</voice>
                <type>16th</type>
                <stem>up</stem>
                <beam number="1">begin</beam>
                <beam number="2">begin</beam>
                <lyric number="1">
                    <syllabic>begin</syllabic>
                    <text>ev</text>
                </lyric>
                <lyric number="2">
                    <syllabic>begin</syllabic>
                    <text>ev</text>
                </lyric>
                <lyric number="3">
                    <syllabic>begin</syllabic>
                    <text>ev</text>
                </lyric>
                <lyric number="4">
                    <syllabic>begin</syllabic>
                    <text>ev</text>
                </lyric>
                <lyric number="5">
                    <syllabic>begin</syllabic>
                    <text>ev</text>
                </lyric>
                <lyric number="6">
                    <syllabic>begin</syllabic>
                    <text>ev</text>
                </lyric>
            </note>
            <note default-y="-30.00" default-x="92.33">
                <pitch>
                    <step>G</step>
                    <octave>4</octave>
                </pitch>
                <duration>1</duration>
                <voice>1</voice>
                <type>16th</type>
                <stem>up</stem>
                <beam number="1">continue</beam>
                <beam number="2">continue</beam>
                <lyric number="1">
                    <syllabic>middle</syllabic>
                    <text>'ry</text>
                </lyric>
                <lyric number="2">
                    <syllabic>middle</syllabic>
                    <text>'ry</text>
                </lyric>
                <lyric number="3">
                    <syllabic>middle</syllabic>
                    <text>'ry</text>
                </lyric>
                <lyric number="4">
                    <syllabic>middle</syllabic>
                    <text>'ry</text>
                </lyric>
                <lyric number="5">
                    <syllabic>middle</syllabic>
                    <text>'ry</text>
                </lyric>
                <lyric number="6">
                    <syllabic>middle</syllabic>
                    <text>'ry</text>
                </lyric>
            </note>
            <harmony print-frame="no">
                <root>
                    <root-step>C</root-step>
                </root>
                <kind text="">major</kind>
            </harmony>
            <note default-y="-30.00" default-x="155.74">
                <pitch>
                    <step>G</step>
                    <octave>4</octave>
                </pitch>
                <duration>1</duration>
                <voice>1</voice>
                <type>16th</type>
                <stem>up</stem>
                <beam number="1">continue</beam>
                <beam number="2">continue</beam>
                <lyric number="1">
                    <syllabic>end</syllabic>
                    <text>where</text>
                </lyric>
                <lyric number="2">
                    <syllabic>end</syllabic>
                    <text>where</text>
                </lyric>
                <lyric number="3">
                    <syllabic>end</syllabic>
                    <text>where</text>
                </lyric>
                <lyric number="4">
                    <syllabic>end</syllabic>
                    <text>where</text>
                </lyric>
                <lyric number="5">
                    <syllabic>end</syllabic>
                    <text>where</text>
                </lyric>
                <lyric number="6">
                    <syllabic>end</syllabic>
                    <text>where</text>
                </lyric>
            </note>
            <note default-y="-30.00" default-x="219.14">
                <pitch>
                    <step>G</step>
                    <octave>4</octave>
                </pitch>
                <duration>1</duration>
                <voice>1</voice>
                <type>16th</type>
                <stem>up</stem>
                <beam number="1">end</beam>
                <beam number="2">end</beam>
                <lyric number="1">
                    <syllabic>single</syllabic>
                    <text>a</text>
                </lyric>
                <lyric number="2">
                    <syllabic>single</syllabic>
                    <text>a</text>
                </lyric>
                <lyric number="3">
                    <syllabic>single</syllabic>
                    <text>a</text>
                </lyric>
                <lyric number="4">
                    <syllabic>single</syllabic>
                    <text>a</text>
                </lyric>
                <lyric number="5">
                    <syllabic>single</syllabic>
                    <text>an</text>
                </lyric>
                <lyric number="6">
                    <syllabic>single</syllabic>
                    <text>a</text>
                </lyric>
            </note>
            <harmony print-frame="no">
                <root>
                    <root-step>G</root-step>
                </root>
                <kind text="">major</kind>
            </harmony>
            <note default-y="-30.00" default-x="282.54">
                <pitch>
                    <step>G</step>
                    <octave>4</octave>
                </pitch>
                <duration>2</duration>
                <voice>1</voice>
                <type>eighth</type>
                <stem>up</stem>
                <beam number="1">begin</beam>
                <lyric number="1">
                    <syllabic>single</syllabic>
                    <text>chick,</text>
                </lyric>
                <lyric number="2">
                    <syllabic>single</syllabic>
                    <text>quack,</text>
                </lyric>
                <lyric number="3">
                    <syllabic>single</syllabic>
                    <text>moo,</text>
                </lyric>
                <lyric number="4">
                    <syllabic>single</syllabic>
                    <text>gobble,</text>
                </lyric>
                <lyric number="5">
                    <syllabic>single</syllabic>
                    <text>oink,</text>
                </lyric>
                <lyric number="6">
                    <syllabic>single</syllabic>
                    <text>neigh,</text>
                </lyric>
            </note>
            <note default-y="-30.00" default-x="383.99">
                <pitch>
                    <step>G</step>
                    <octave>4</octave>
                </pitch>
                <duration>2</duration>
                <voice>1</voice>
                <type>eighth</type>
                <stem>up</stem>
                <beam number="1">end</beam>
                <lyric number="1">
                    <syllabic>single</syllabic>
                    <text>chick,</text>
                </lyric>
                <lyric number="2">
                    <syllabic>single</syllabic>
                    <text>quack,</text>
                </lyric>
                <lyric number="3">
                    <syllabic>single</syllabic>
                    <text>moo,</text>
                </lyric>
                <lyric number="4">
                    <syllabic>single</syllabic>
                    <text>gobble,</text>
                </lyric>
                <lyric number="5">
                    <syllabic>single</syllabic>
                    <text>oink,</text>
                </lyric>
                <lyric number="6">
                    <syllabic>single</syllabic>
                    <text>neigh,</text>
                </lyric>
            </note>
        </measure>
        <measure width="349.97" number="15">
            <print new-system="yes">
                <system-layout>
                    <system-margins>
                        <left-margin>46.91</left-margin>
                        <right-margin>0.00</right-margin>
                    </system-margins>
                    <system-distance>281.64</system-distance>
                </system-layout>
            </print>
            <harmony print-frame="no">
                <root>
                    <root-step>G</root-step>
                </root>
                <kind text="">major</kind>
            </harmony>
            <note default-y="-30.00" default-x="81.60">
                <pitch>
                    <step>G</step>
                    <octave>4</octave>
                </pitch>
                <duration>2</duration>
                <voice>1</voice>
                <type>eighth</type>
                <stem>up</stem>
                <beam number="1">begin</beam>
                <lyric number="1">
                    <syllabic>single</syllabic>
                    <text>Old</text>
                </lyric>
            </note>
            <note default-y="-30.00" default-x="148.29">
                <pitch>
                    <step>G</step>
                    <octave>4</octave>
                </pitch>
                <duration>2</duration>
                <voice>1</voice>
                <type>eighth</type>
                <stem>up</stem>
                <beam number="1">end</beam>
                <lyric number="1">
                    <syllabic>begin</syllabic>
                    <text>Mac</text>
                </lyric>
            </note>
            <note default-y="-30.00" default-x="214.98">
                <pitch>
                    <step>G</step>
                    <octave>4</octave>
                </pitch>
                <duration>2</duration>
                <voice>1</voice>
                <type>eighth</type>
                <stem>up</stem>
                <beam number="1">begin</beam>
                <lyric number="1">
                    <syllabic>middle</syllabic>
                    <text>Don</text>
                </lyric>
            </note>
            <note default-y="-45.00" default-x="281.67">
                <pitch>
                    <step>D</step>
                    <octave>4</octave>
                </pitch>
                <duration>2</duration>
                <voice>1</voice>
                <type>eighth</type>
                <stem>up</stem>
                <beam number="1">end</beam>
                <lyric number="1">
                    <syllabic>end</syllabic>
                    <text>ald</text>
                </lyric>
            </note>
        </measure>
        <measure width="256.52" number="16">
            <harmony print-frame="no">
                <root>
                    <root-step>C</root-step>
                </root>
                <kind text="">major</kind>
            </harmony>
            <note default-y="-40.00" default-x="34.35">
                <pitch>
                    <step>E</step>
                    <octave>4</octave>
                </pitch>
                <duration>2</duration>
                <voice>1</voice>
                <type>eighth</type>
                <stem>up</stem>
                <beam number="1">begin</beam>
                <lyric number="1">
                    <syllabic>single</syllabic>
                    <text>had</text>
                </lyric>
            </note>
            <note default-y="-40.00" default-x="95.62">
                <pitch>
                    <step>E</step>
                    <octave>4</octave>
                </pitch>
                <duration>2</duration>
                <voice>1</voice>
                <type>eighth</type>
                <stem>up</stem>
                <beam number="1">end</beam>
                <lyric number="1">
                    <syllabic>single</syllabic>
                    <text>a</text>
                </lyric>
            </note>
            <harmony print-frame="no">
                <root>
                    <root-step>G</root-step>
                </root>
                <kind text="">major</kind>
            </harmony>
            <note default-y="-45.00" default-x="156.89">
                <pitch>
                    <step>D</step>
                    <octave>4</octave>
                </pitch>
                <duration>4</duration>
                <voice>1</voice>
                <type>quarter</type>
                <stem>up</stem>
                <lyric number="1">
                    <syllabic>single</syllabic>
                    <text>farm,</text>
                </lyric>
            </note>
        </measure>
        <measure width="236.83" number="17">
            <harmony print-frame="no">
                <root>
                    <root-step>A</root-step>
                </root>
                <kind text="7">dominant</kind>
            </harmony>
            <note default-y="-20.00" default-x="25.32">
                <pitch>
                    <step>B</step>
                    <octave>4</octave>
                </pitch>
                <duration>2</duration>
                <voice>1</voice>
                <type>eighth</type>
                <stem>down</stem>
                <beam number="1">begin</beam>
                <lyric number="1">
                    <syllabic>begin</syllabic>
                    <text>E</text>
                </lyric>
            </note>
            <note default-y="-20.00" default-x="77.80">
                <pitch>
                    <step>B</step>
                    <octave>4</octave>
                </pitch>
                <duration>2</duration>
                <voice>1</voice>
                <type>eighth</type>
                <stem>down</stem>
                <beam number="1">end</beam>
                <lyric number="1">
                    <syllabic>middle</syllabic>
                    <text>I</text>
                </lyric>
            </note>
            <harmony print-frame="no">
                <root>
                    <root-step>D</root-step>
                </root>
                <kind text="7">dominant</kind>
            </harmony>
            <note default-y="-25.00" default-x="130.27">
                <pitch>
                    <step>A</step>
                    <octave>4</octave>
                </pitch>
                <duration>2</duration>
                <voice>1</voice>
                <type>eighth</type>
                <stem>up</stem>
                <beam number="1">begin</beam>
                <lyric number="1">
                    <syllabic>middle</syllabic>
                    <text>E</text>
                </lyric>
            </note>
            <note default-y="-25.00" default-x="182.75">
                <pitch>
                    <step>A</step>
                    <octave>4</octave>
                </pitch>
                <duration>2</duration>
                <voice>1</voice>
                <type>eighth</type>
                <stem>up</stem>
                <beam number="1">end</beam>
                <lyric number="1">
                    <syllabic>middle</syllabic>
                    <text>I</text>
                </lyric>
            </note>
        </measure>
        <measure width="186.95" number="18">
            <harmony print-frame="no">
                <root>
                    <root-step>G</root-step>
                </root>
                <kind text="">major</kind>
            </harmony>
            <note default-y="-30.00" default-x="30.13">
                <pitch>
                    <step>G</step>
                    <octave>4</octave>
                </pitch>
                <duration>8</duration>
                <voice>1</voice>
                <type>half</type>
                <stem>up</stem>
                <lyric number="1">
                    <syllabic>end</syllabic>
                    <text>O!</text>
                </lyric>
            </note>
            <barline location="right">
                <bar-style>light-heavy</bar-style>
                <repeat direction="backward"/>
            </barline>
        </measure>
    </part>
</score-partwise>
