<?xml version="1.0" encoding="UTF-8"?>
<!DOCTYPE score-partwise PUBLIC "-//Recordare//DTD MusicXML 2.0 Partwise//EN" "http://www.musicxml.org/dtds/partwise.dtd">
<score-partwise version="2.0">
    <work>
        <work-number></work-number>
        <work-title></work-title>
    </work>
    <movement-number></movement-number>
    <movement-title>Where (Tsiolkovsky's 6th symphony)</movement-title>
    <identification>
        <creator type="composer">Tsiolkovsky</creator>
        <creator type="poet">Lynn Paul</creator>
        <rights>All Rights Reserved</rights>
        <encoding>
            <software>Notation Composer 2, 6, 3, 0</software>
            <software>ProxyMusic 2.0 c</software>
        </encoding>
        <source>http://wikifonia.org/node/18156/revisions/24056/view</source>
    </identification>
    <defaults>
        <scaling>
            <millimeters>7.24</millimeters>
            <tenths>40</tenths>
        </scaling>
        <page-layout>
            <page-height>1543</page-height>
            <page-width>1192</page-width>
            <page-margins type="both">
                <left-margin>70</left-margin>
                <right-margin>70</right-margin>
                <top-margin>70</top-margin>
                <bottom-margin>70</bottom-margin>
            </page-margins>
        </page-layout>
        <music-font font-size="10" font-family="Harmony"/>
        <word-font font-size="10" font-family="Times New Roman"/>
        <lyric-font font-size="10" font-family="Arial"/>
    </defaults>
    <credit>
        <credit-words font-weight="bold" font-size="18" font-family="Times New Roman" default-y="1419" default-x="537" valign="top">Where</credit-words>
    </credit>
    <part-list>
        <part-group type="start" number="1">
            <group-symbol></group-symbol>
            <group-barline></group-barline>
        </part-group>
        <score-part id="T69005776">
            <part-name>Melody</part-name>
            <part-abbreviation>Choir</part-abbreviation>
            <score-instrument id="IT69005776">
                <instrument-name>Melody</instrument-name>
            </score-instrument>
            <midi-instrument id="IT69005776">
                <midi-channel>1</midi-channel>
                <midi-bank>0</midi-bank>
                <midi-program>54</midi-program>
            </midi-instrument>
        </score-part>
        <part-group type="stop" number="1"/>
    </part-list>
    <part id="T69005776">
        <measure width="243" number="1">
            <print>
                <system-layout>
                    <system-margins>
                        <left-margin>55</left-margin>
                        <right-margin>0</right-margin>
                    </system-margins>
                    <top-system-distance>175</top-system-distance>
                </system-layout>
            </print>
            <attributes>
                <divisions>480</divisions>
                <key>
                    <fifths>2</fifths>
                </key>
                <time>
                    <beats>4</beats>
                    <beat-type>4</beat-type>
                </time>
                <clef>
                    <sign>G</sign>
                    <line>2</line>
                </clef>
                <staff-details print-object="yes"/>
            </attributes>
            <harmony default-y="14">
                <root>
                    <root-step>D</root-step>
                </root>
                <kind use-symbols="no" text=" "> </kind>
            </harmony>
            <note default-x="109">
                <rest/>
                <duration>480</duration>
                <type>quarter</type>
            </note>
            <note default-x="147" release="-7" dynamics="75">
                <pitch>
                    <step>A</step>
                    <octave>4</octave>
                </pitch>
                <duration>480</duration>
                <type>quarter</type>
                <stem default-y="10">up</stem>
            </note>
            <note default-x="185" release="-7" dynamics="75">
                <pitch>
                    <step>A</step>
                    <octave>4</octave>
                </pitch>
                <duration>960</duration>
                <type>half</type>
                <stem default-y="10">up</stem>
            </note>
        </measure>
        <measure width="147" number="2">
            <attributes>
                <staff-details print-object="yes"/>
            </attributes>
            <note default-x="13">
                <rest/>
                <duration>480</duration>
                <type>quarter</type>
            </note>
            <note default-x="51" release="-7" dynamics="75">
                <pitch>
                    <step>A</step>
                    <octave>4</octave>
                </pitch>
                <duration>480</duration>
                <type>quarter</type>
                <stem default-y="10">up</stem>
            </note>
            <note default-x="89" release="-7" dynamics="75">
                <pitch>
                    <step>A</step>
                    <octave>4</octave>
                </pitch>
                <duration>960</duration>
                <type>half</type>
                <stem default-y="10">up</stem>
            </note>
        </measure>
        <measure width="195" number="3">
            <attributes>
                <staff-details print-object="yes"/>
            </attributes>
            <harmony default-y="14">
                <root>
                    <root-step>D</root-step>
                </root>
                <kind use-symbols="no" text=" "> </kind>
            </harmony>
            <note default-x="30">
                <rest/>
                <duration>480</duration>
                <type>quarter</type>
            </note>
            <note default-x="68" release="-7" dynamics="75">
                <pitch>
                    <step>F</step>
                    <alter>1</alter>
                    <octave>5</octave>
                </pitch>
                <duration>480</duration>
                <type>quarter</type>
                <stem default-y="-35">down</stem>
                <lyric number="1">
                    <syllabic>single</syllabic>
                    <text>Where</text>
                </lyric>
            </note>
            <note default-x="113" release="-7" dynamics="75">
                <pitch>
                    <step>E</step>
                    <octave>5</octave>
                </pitch>
                <duration>480</duration>
                <type>quarter</type>
                <stem default-y="-40">down</stem>
                <lyric number="1">
                    <syllabic>single</syllabic>
                    <text>is</text>
                </lyric>
            </note>
            <note default-x="151" release="-7" dynamics="75">
                <pitch>
                    <step>D</step>
                    <octave>5</octave>
                </pitch>
                <duration>480</duration>
                <type>quarter</type>
                <stem default-y="-45">down</stem>
                <lyric number="1">
                    <syllabic>single</syllabic>
                    <text>the</text>
                </lyric>
            </note>
        </measure>
        <measure width="202" number="4">
            <attributes>
                <staff-details print-object="yes"/>
            </attributes>
            <note default-x="34" release="-7" dynamics="75">
                <pitch>
                    <step>B</step>
                    <octave>4</octave>
                </pitch>
                <duration>480</duration>
                <type>quarter</type>
                <stem default-y="-50">down</stem>
                <lyric number="1">
                    <syllabic>begin</syllabic>
                    <text>hea</text>
                </lyric>
            </note>
            <note default-x="79" release="-7" dynamics="75">
                <pitch>
                    <step>A</step>
                    <octave>4</octave>
                </pitch>
                <duration>480</duration>
                <type>quarter</type>
                <stem default-y="10">up</stem>
                <lyric number="1">
                    <syllabic>single</syllabic>
                    <text>ven</text>
                </lyric>
            </note>
            <note default-x="120" release="-7" dynamics="75">
                <pitch>
                    <step>F</step>
                    <alter>1</alter>
                    <octave>4</octave>
                </pitch>
                <duration>480</duration>
                <type>quarter</type>
                <stem default-y="0">up</stem>
                <lyric number="1">
                    <syllabic>single</syllabic>
                    <text>that</text>
                </lyric>
            </note>
            <note default-x="158" release="-7" dynamics="75">
                <pitch>
                    <step>A</step>
                    <octave>4</octave>
                </pitch>
                <duration>480</duration>
                <type>quarter</type>
                <stem default-y="10">up</stem>
                <lyric number="1">
                    <syllabic>single</syllabic>
                    <text>we</text>
                </lyric>
            </note>
        </measure>
        <measure width="185" number="5">
            <attributes>
                <staff-details print-object="yes"/>
            </attributes>
            <harmony default-y="14">
                <root>
                    <root-step>D</root-step>
                </root>
                <kind use-symbols="no" text="dim">dim</kind>
            </harmony>
            <note default-x="47" release="-7" dynamics="75">
                <pitch>
                    <step>D</step>
                    <octave>5</octave>
                </pitch>
                <duration>1440</duration>
                <type>half</type>
                <dot/>
                <stem default-y="-45">down</stem>
                <lyric number="1">
                    <syllabic>single</syllabic>
                    <text>hoped</text>
                </lyric>
            </note>
            <note default-x="115">
                <rest/>
                <duration>240</duration>
                <type>eighth</type>
            </note>
            <note default-x="142" release="-7" dynamics="75">
                <pitch>
                    <step>B</step>
                    <octave>4</octave>
                </pitch>
                <duration>240</duration>
                <type>eighth</type>
                <stem default-y="-55">down</stem>
                <lyric number="1">
                    <syllabic>single</syllabic>
                    <text>would</text>
                </lyric>
            </note>
        </measure>
        <measure width="254" number="6">
            <print new-system="yes">
                <system-layout>
                    <system-margins>
                        <left-margin>43</left-margin>
                        <right-margin>0</right-margin>
                    </system-margins>
                    <system-distance>98</system-distance>
                </system-layout>
            </print>
            <attributes>
                <staff-details print-object="yes"/>
            </attributes>
            <harmony default-y="15">
                <root>
                    <root-step>D</root-step>
                </root>
                <kind use-symbols="no" text=" "> </kind>
            </harmony>
            <note default-x="97" release="-7" dynamics="75">
                <pitch>
                    <step>B</step>
                    <octave>4</octave>
                </pitch>
                <duration>360</duration>
                <type>eighth</type>
                <dot/>
                <stem default-y="-65">down</stem>
                <beam number="1">begin</beam>
                <lyric number="1">
                    <syllabic>single</syllabic>
                    <text>be?</text>
                </lyric>
            </note>
            <note default-x="129" release="-7" dynamics="75">
                <pitch>
                    <step>C</step>
                    <alter>1</alter>
                    <octave>5</octave>
                </pitch>
                <duration>60</duration>
                <type>32nd</type>
                <stem default-y="-60">down</stem>
                <beam number="1">continue</beam>
                <beam number="2">begin</beam>
                <beam number="3">begin</beam>
            </note>
            <note default-x="145" release="-7" dynamics="75">
                <pitch>
                    <step>B</step>
                    <octave>4</octave>
                </pitch>
                <duration>60</duration>
                <type>32nd</type>
                <stem default-y="-65">down</stem>
                <beam number="1">end</beam>
                <beam number="2">end</beam>
                <beam number="3">continue</beam>
            </note>
            <note default-x="160" release="-7" dynamics="75">
                <pitch>
                    <step>A</step>
                    <octave>4</octave>
                </pitch>
                <duration>960</duration>
                <type>half</type>
                <stem default-y="10">up</stem>
            </note>
            <note default-x="210">
                <rest/>
                <duration>480</duration>
                <type>quarter</type>
            </note>
        </measure>
        <measure width="191" number="7">
            <attributes>
                <staff-details print-object="yes"/>
            </attributes>
            <note default-x="13">
                <rest/>
                <duration>480</duration>
                <type>quarter</type>
            </note>
            <note default-x="50" release="-7" dynamics="75">
                <pitch>
                    <step>F</step>
                    <alter>1</alter>
                    <octave>5</octave>
                </pitch>
                <duration>480</duration>
                <type>quarter</type>
                <stem default-y="-35">down</stem>
                <lyric number="1">
                    <syllabic>single</syllabic>
                    <text>Where</text>
                </lyric>
            </note>
            <note default-x="95" release="-7" dynamics="75">
                <pitch>
                    <step>E</step>
                    <octave>5</octave>
                </pitch>
                <duration>480</duration>
                <type>quarter</type>
                <stem default-y="-40">down</stem>
                <lyric number="1">
                    <syllabic>single</syllabic>
                    <text>is</text>
                </lyric>
            </note>
            <note default-x="132">
                <rest/>
                <duration>240</duration>
                <type>eighth</type>
            </note>
            <note default-x="158" release="-7" dynamics="75">
                <pitch>
                    <step>D</step>
                    <octave>5</octave>
                </pitch>
                <duration>240</duration>
                <type>eighth</type>
                <stem default-y="-45">down</stem>
                <lyric number="1">
                    <syllabic>single</syllabic>
                    <text>the</text>
                </lyric>
            </note>
        </measure>
        <measure width="221" number="8">
            <attributes>
                <staff-details print-object="yes"/>
            </attributes>
            <note default-x="37" release="-7" dynamics="75">
                <pitch>
                    <step>A</step>
                    <octave>4</octave>
                </pitch>
                <duration>480</duration>
                <type>quarter</type>
                <stem default-y="10">up</stem>
                <lyric number="1">
                    <syllabic>begin</syllabic>
                    <text>glad</text>
                </lyric>
            </note>
            <note default-x="90" release="-7" dynamics="75">
                <pitch>
                    <step>F</step>
                    <alter>1</alter>
                    <octave>4</octave>
                </pitch>
                <duration>480</duration>
                <type>quarter</type>
                <stem default-y="0">up</stem>
                <lyric number="1">
                    <syllabic>single</syllabic>
                    <text>ness</text>
                </lyric>
            </note>
            <note default-x="133" release="-7" dynamics="75">
                <pitch>
                    <step>D</step>
                    <octave>4</octave>
                </pitch>
                <duration>480</duration>
                <type>quarter</type>
                <stem default-y="-10">up</stem>
                <lyric number="1">
                    <syllabic>single</syllabic>
                    <text>my</text>
                </lyric>
            </note>
            <note default-x="178" release="-7" dynamics="75">
                <pitch>
                    <step>F</step>
                    <alter>1</alter>
                    <octave>4</octave>
                </pitch>
                <duration>480</duration>
                <type>quarter</type>
                <stem default-y="0">up</stem>
                <lyric number="1">
                    <syllabic>single</syllabic>
                    <text>heart</text>
                </lyric>
            </note>
        </measure>
        <measure width="164" number="9">
            <attributes>
                <staff-details print-object="yes"/>
            </attributes>
            <harmony default-y="15">
                <root>
                    <root-step>A</root-step>
                </root>
                <kind use-symbols="no" text="7">7</kind>
            </harmony>
            <note default-x="39" release="-7" dynamics="75">
                <pitch>
                    <step>B</step>
                    <octave>4</octave>
                </pitch>
                <duration>1440</duration>
                <tie type="start"/>
                <type>half</type>
                <dot/>
                <stem default-y="-50">down</stem>
                <notations>
                    <tied orientation="over" type="start"/>
                </notations>
                <lyric number="1">
                    <syllabic>single</syllabic>
                    <text>came</text>
                </lyric>
            </note>
            <note default-x="105">
                <pitch>
                    <step>B</step>
                    <octave>4</octave>
                </pitch>
                <duration>240</duration>
                <tie type="stop"/>
                <type>eighth</type>
                <stem default-y="15">up</stem>
                <beam number="1">begin</beam>
                <notations>
                    <tied type="stop"/>
                </notations>
            </note>
            <note default-x="131" release="-7" dynamics="75">
                <pitch>
                    <step>A</step>
                    <octave>4</octave>
                </pitch>
                <duration>240</duration>
                <type>eighth</type>
                <stem default-y="10">up</stem>
                <beam number="1">continue</beam>
                <lyric number="1">
                    <syllabic>single</syllabic>
                    <text>to</text>
                </lyric>
            </note>
        </measure>
        <measure width="155" number="10">
            <attributes>
                <staff-details print-object="yes"/>
            </attributes>
            <harmony default-y="15">
                <root>
                    <root-step>D</root-step>
                </root>
                <kind use-symbols="no" text=" "> </kind>
            </harmony>
            <note default-x="47" release="-7" dynamics="75">
                <pitch>
                    <step>A</step>
                    <octave>4</octave>
                </pitch>
                <duration>1440</duration>
                <type>half</type>
                <dot/>
                <stem default-y="10">up</stem>
                <lyric number="1">
                    <syllabic>single</syllabic>
                    <text>see?</text>
                </lyric>
            </note>
            <note default-x="110">
                <rest/>
                <duration>480</duration>
                <type>quarter</type>
            </note>
        </measure>
        <measure width="253" number="11">
            <print new-system="yes">
                <system-layout>
                    <system-margins>
                        <left-margin>43</left-margin>
                        <right-margin>0</right-margin>
                    </system-margins>
                    <system-distance>119</system-distance>
                </system-layout>
            </print>
            <attributes>
                <staff-details print-object="yes"/>
            </attributes>
            <harmony default-y="17">
                <root>
                    <root-step>F</root-step>
                    <root-alter>1</root-alter>
                </root>
                <kind use-symbols="no" text="dim">dim</kind>
            </harmony>
            <note default-x="117" release="-7" dynamics="75">
                <pitch>
                    <step>A</step>
                    <octave>5</octave>
                </pitch>
                <duration>960</duration>
                <type>half</type>
                <stem default-y="-25">down</stem>
                <lyric number="1">
                    <syllabic>single</syllabic>
                    <text>Where</text>
                </lyric>
            </note>
            <note default-x="171" release="-7" dynamics="75">
                <pitch>
                    <step>G</step>
                    <octave>5</octave>
                </pitch>
                <duration>720</duration>
                <type>quarter</type>
                <dot/>
                <stem default-y="-30">down</stem>
                <lyric number="1">
                    <syllabic>single</syllabic>
                    <text>is</text>
                </lyric>
            </note>
            <note default-x="219" release="-7" dynamics="75">
                <pitch>
                    <step>F</step>
                    <alter>1</alter>
                    <octave>5</octave>
                </pitch>
                <duration>240</duration>
                <type>eighth</type>
                <stem default-y="-35">down</stem>
                <lyric number="1">
                    <syllabic>single</syllabic>
                    <text>the</text>
                </lyric>
            </note>
        </measure>
        <measure width="160" number="12">
            <attributes>
                <staff-details print-object="yes"/>
            </attributes>
            <harmony default-y="19">
                <root>
                    <root-step>E</root-step>
                </root>
                <kind use-symbols="no" text="min">min</kind>
            </harmony>
            <note default-x="47" release="-7" dynamics="75">
                <pitch>
                    <step>F</step>
                    <alter>1</alter>
                    <octave>5</octave>
                </pitch>
                <duration>960</duration>
                <type>half</type>
                <stem default-y="-35">down</stem>
                <lyric number="1">
                    <syllabic>begin</syllabic>
                    <text>rap</text>
                </lyric>
            </note>
            <note default-x="100" release="-7" dynamics="75">
                <pitch>
                    <step>E</step>
                    <octave>5</octave>
                </pitch>
                <duration>960</duration>
                <type>half</type>
                <stem default-y="-40">down</stem>
                <lyric number="1">
                    <syllabic>single</syllabic>
                    <text>ture</text>
                </lyric>
            </note>
        </measure>
        <measure width="188" number="13">
            <attributes>
                <staff-details print-object="yes"/>
            </attributes>
            <harmony default-y="17">
                <root>
                    <root-step>C</root-step>
                    <root-alter>1</root-alter>
                </root>
                <kind use-symbols="no" text="dim">dim</kind>
            </harmony>
            <note default-x="52" release="-7" dynamics="75">
                <pitch>
                    <step>G</step>
                    <octave>5</octave>
                </pitch>
                <duration>960</duration>
                <type>half</type>
                <stem default-y="-30">down</stem>
                <lyric number="1">
                    <syllabic>single</syllabic>
                    <text>we</text>
                </lyric>
            </note>
            <note default-x="105" release="-7" dynamics="75">
                <pitch>
                    <step>F</step>
                    <alter>1</alter>
                    <octave>5</octave>
                </pitch>
                <duration>720</duration>
                <type>quarter</type>
                <dot/>
                <stem default-y="-35">down</stem>
                <lyric number="1">
                    <syllabic>single</syllabic>
                    <text>can't</text>
                </lyric>
            </note>
            <note default-x="153" release="-7" dynamics="75">
                <pitch>
                    <step>E</step>
                    <octave>5</octave>
                </pitch>
                <duration>240</duration>
                <type>eighth</type>
                <stem default-y="-40">down</stem>
                <lyric number="1">
                    <syllabic>begin</syllabic>
                    <text>re</text>
                </lyric>
            </note>
        </measure>
        <measure width="148" number="14">
            <attributes>
                <staff-details print-object="yes"/>
            </attributes>
            <harmony default-y="19">
                <root>
                    <root-step>D</root-step>
                </root>
                <kind use-symbols="no" text=" "> </kind>
            </harmony>
            <note default-x="34" release="-7" dynamics="75">
                <pitch>
                    <step>E</step>
                    <octave>5</octave>
                </pitch>
                <duration>960</duration>
                <type>half</type>
                <stem default-y="-40">down</stem>
                <lyric number="1">
                    <syllabic>begin</syllabic>
                    <text>cap</text>
                </lyric>
            </note>
            <note default-x="88" release="-7" dynamics="75">
                <pitch>
                    <step>D</step>
                    <octave>5</octave>
                </pitch>
                <duration>960</duration>
                <type>half</type>
                <stem default-y="-45">down</stem>
                <lyric number="1">
                    <syllabic>single</syllabic>
                    <text>ture?</text>
                </lyric>
            </note>
        </measure>
        <measure width="236" number="15">
            <attributes>
                <staff-details print-object="yes"/>
            </attributes>
            <harmony default-y="15">
                <root>
                    <root-step>G</root-step>
                    <root-alter>1</root-alter>
                </root>
                <kind use-symbols="no" text="m7b5">m7b5</kind>
            </harmony>
            <note default-x="58">
                <rest/>
                <duration>480</duration>
                <type>quarter</type>
            </note>
            <note default-x="103" release="-7" dynamics="75">
                <pitch>
                    <step>F</step>
                    <alter>1</alter>
                    <octave>5</octave>
                </pitch>
                <duration>480</duration>
                <type>quarter</type>
                <stem default-y="-35">down</stem>
                <lyric number="1">
                    <syllabic>single</syllabic>
                    <text>Where</text>
                </lyric>
            </note>
            <note default-x="149" release="-7" dynamics="75">
                <pitch>
                    <step>E</step>
                    <octave>5</octave>
                </pitch>
                <duration>480</duration>
                <type>quarter</type>
                <stem default-y="-40">down</stem>
                <lyric number="1">
                    <syllabic>single</syllabic>
                    <text>is</text>
                </lyric>
            </note>
            <note default-x="188" release="-7" dynamics="75">
                <pitch>
                    <step>D</step>
                    <octave>5</octave>
                </pitch>
                <duration>480</duration>
                <type>quarter</type>
                <stem default-y="-45">down</stem>
                <lyric number="1">
                    <syllabic>single</syllabic>
                    <text>the</text>
                </lyric>
            </note>
        </measure>
        <measure width="278" number="16">
            <print new-system="yes">
                <system-layout>
                    <system-margins>
                        <left-margin>43</left-margin>
                        <right-margin>0</right-margin>
                    </system-margins>
                    <system-distance>84</system-distance>
                </system-layout>
            </print>
            <attributes>
                <staff-details print-object="yes"/>
            </attributes>
            <harmony default-y="15">
                <root>
                    <root-step>D</root-step>
                </root>
                <kind use-symbols="no" text=" "> </kind>
            </harmony>
            <note default-x="98" release="-7" dynamics="75">
                <pitch>
                    <step>A</step>
                    <octave>4</octave>
                </pitch>
                <duration>480</duration>
                <type>quarter</type>
                <stem default-y="10">up</stem>
                <lyric number="1">
                    <syllabic>begin</syllabic>
                    <text>fu</text>
                </lyric>
            </note>
            <note default-x="137" release="-7" dynamics="75">
                <pitch>
                    <step>F</step>
                    <alter>1</alter>
                    <octave>4</octave>
                </pitch>
                <duration>480</duration>
                <type>quarter</type>
                <stem default-y="0">up</stem>
                <lyric number="1">
                    <syllabic>single</syllabic>
                    <text>ture</text>
                </lyric>
            </note>
            <note default-x="184" release="-7" dynamics="75">
                <pitch>
                    <step>D</step>
                    <octave>4</octave>
                </pitch>
                <duration>480</duration>
                <type>quarter</type>
                <stem default-y="-10">up</stem>
                <lyric number="1">
                    <syllabic>single</syllabic>
                    <text>your</text>
                </lyric>
            </note>
            <note default-x="232" release="-7" dynamics="75">
                <pitch>
                    <step>F</step>
                    <alter>1</alter>
                    <octave>4</octave>
                </pitch>
                <duration>480</duration>
                <type>quarter</type>
                <stem default-y="0">up</stem>
                <lyric number="1">
                    <syllabic>single</syllabic>
                    <text>love</text>
                </lyric>
            </note>
        </measure>
        <measure width="175" number="17">
            <attributes>
                <staff-details print-object="yes"/>
            </attributes>
            <harmony default-y="15">
                <root>
                    <root-step>A</root-step>
                </root>
                <kind use-symbols="no" text="7">7</kind>
            </harmony>
            <note default-x="36" release="-7" dynamics="75">
                <pitch>
                    <step>B</step>
                    <octave>4</octave>
                </pitch>
                <duration>1440</duration>
                <tie type="start"/>
                <type>half</type>
                <dot/>
                <stem default-y="-50">down</stem>
                <notations>
                    <tied orientation="over" type="start"/>
                </notations>
                <lyric number="1">
                    <syllabic>begin</syllabic>
                    <text>pro</text>
                </lyric>
            </note>
            <note default-x="105">
                <pitch>
                    <step>B</step>
                    <octave>4</octave>
                </pitch>
                <duration>240</duration>
                <tie type="stop"/>
                <type>eighth</type>
                <stem default-y="15">up</stem>
                <beam number="1">begin</beam>
                <notations>
                    <tied type="stop"/>
                </notations>
            </note>
            <note default-x="133" release="-7" dynamics="75">
                <pitch>
                    <step>A</step>
                    <octave>4</octave>
                </pitch>
                <duration>240</duration>
                <type>eighth</type>
                <stem default-y="10">up</stem>
                <beam number="1">continue</beam>
                <lyric number="1">
                    <syllabic>single</syllabic>
                    <text>mised</text>
                </lyric>
            </note>
        </measure>
        <measure width="219" number="18">
            <attributes>
                <staff-details print-object="yes"/>
            </attributes>
            <harmony default-y="15">
                <root>
                    <root-step>D</root-step>
                </root>
                <kind use-symbols="no" text=" "> </kind>
            </harmony>
            <note default-x="35" release="-7" dynamics="75">
                <pitch>
                    <step>A</step>
                    <octave>4</octave>
                </pitch>
                <duration>120</duration>
                <type>16th</type>
                <stem default-y="10">up</stem>
                <beam number="1">begin</beam>
                <beam number="2">begin</beam>
                <lyric number="1">
                    <syllabic>single</syllabic>
                    <text>me?</text>
                </lyric>
            </note>
            <note default-x="62" release="-7" dynamics="75">
                <pitch>
                    <step>B</step>
                    <octave>4</octave>
                </pitch>
                <duration>120</duration>
                <type>16th</type>
                <stem default-y="15">up</stem>
                <beam number="1">end</beam>
                <beam number="2">continue</beam>
            </note>
            <note default-x="84" release="-7" dynamics="75">
                <pitch>
                    <step>A</step>
                    <octave>4</octave>
                </pitch>
                <duration>240</duration>
                <tie type="start"/>
                <type>eighth</type>
                <stem default-y="10">up</stem>
                <beam number="1">continue</beam>
                <notations>
                    <tied orientation="under" type="start"/>
                </notations>
            </note>
            <note default-x="121">
                <pitch>
                    <step>A</step>
                    <octave>4</octave>
                </pitch>
                <duration>960</duration>
                <tie type="stop"/>
                <type>half</type>
                <stem default-y="10">up</stem>
                <notations>
                    <tied type="stop"/>
                </notations>
            </note>
            <note default-x="174">
                <rest/>
                <duration>480</duration>
                <type>quarter</type>
            </note>
        </measure>
        <measure width="111" number="19">
            <attributes>
                <staff-details print-object="yes"/>
            </attributes>
            <note default-x="24">
                <rest/>
                <duration>1920</duration>
                <type>whole</type>
            </note>
        </measure>
        <measure width="202" number="20">
            <attributes>
                <staff-details print-object="yes"/>
            </attributes>
            <harmony default-y="15">
                <root>
                    <root-step>D</root-step>
                </root>
                <kind use-symbols="no" text=" "> </kind>
            </harmony>
            <note default-x="31">
                <rest/>
                <duration>480</duration>
                <type>quarter</type>
            </note>
            <note default-x="70" release="-7" dynamics="75">
                <pitch>
                    <step>F</step>
                    <alter>1</alter>
                    <octave>5</octave>
                </pitch>
                <duration>480</duration>
                <type>quarter</type>
                <stem default-y="-35">down</stem>
                <lyric number="1">
                    <syllabic>single</syllabic>
                    <text>Where</text>
                </lyric>
            </note>
            <note default-x="115" release="-7" dynamics="75">
                <pitch>
                    <step>E</step>
                    <octave>5</octave>
                </pitch>
                <duration>480</duration>
                <type>quarter</type>
                <stem default-y="-40">down</stem>
                <lyric number="1">
                    <syllabic>single</syllabic>
                    <text>is</text>
                </lyric>
            </note>
            <note default-x="154" release="-7" dynamics="75">
                <pitch>
                    <step>D</step>
                    <octave>5</octave>
                </pitch>
                <duration>480</duration>
                <type>quarter</type>
                <stem default-y="-45">down</stem>
                <lyric number="1">
                    <syllabic>single</syllabic>
                    <text>the</text>
                </lyric>
            </note>
        </measure>
        <measure width="251" number="21">
            <print new-system="yes">
                <system-layout>
                    <system-margins>
                        <left-margin>43</left-margin>
                        <right-margin>0</right-margin>
                    </system-margins>
                    <system-distance>88</system-distance>
                </system-layout>
            </print>
            <attributes>
                <staff-details print-object="yes"/>
            </attributes>
            <note default-x="96" release="-7" dynamics="75">
                <pitch>
                    <step>B</step>
                    <octave>4</octave>
                </pitch>
                <duration>480</duration>
                <type>quarter</type>
                <stem default-y="-50">down</stem>
                <lyric number="1">
                    <syllabic>begin</syllabic>
                    <text>pro</text>
                </lyric>
            </note>
            <note default-x="144" release="-7" dynamics="75">
                <pitch>
                    <step>A</step>
                    <octave>4</octave>
                </pitch>
                <duration>480</duration>
                <type>quarter</type>
                <stem default-y="10">up</stem>
                <lyric number="1">
                    <syllabic>single</syllabic>
                    <text>mise</text>
                </lyric>
            </note>
            <note default-x="181" release="-7" dynamics="75">
                <pitch>
                    <step>F</step>
                    <alter>1</alter>
                    <octave>4</octave>
                </pitch>
                <duration>480</duration>
                <type>quarter</type>
                <stem default-y="0">up</stem>
                <lyric number="1">
                    <syllabic>single</syllabic>
                    <text>of</text>
                </lyric>
            </note>
            <note default-x="213" release="-7" dynamics="75">
                <pitch>
                    <step>A</step>
                    <octave>4</octave>
                </pitch>
                <duration>480</duration>
                <type>quarter</type>
                <stem default-y="10">up</stem>
                <lyric number="1">
                    <syllabic>single</syllabic>
                    <text>the</text>
                </lyric>
            </note>
        </measure>
        <measure width="155" number="22">
            <attributes>
                <staff-details print-object="yes"/>
            </attributes>
            <harmony default-y="14">
                <root>
                    <root-step>D</root-step>
                </root>
                <kind use-symbols="no" text="dim">dim</kind>
            </harmony>
            <note default-x="46" release="-7" dynamics="75">
                <pitch>
                    <step>D</step>
                    <octave>5</octave>
                </pitch>
                <duration>1440</duration>
                <type>half</type>
                <dot/>
                <stem default-y="-45">down</stem>
                <lyric number="1">
                    <syllabic>single</syllabic>
                    <text>joy</text>
                </lyric>
            </note>
            <note default-x="103">
                <rest/>
                <duration>240</duration>
                <type>eighth</type>
            </note>
            <note default-x="126" release="-7" dynamics="75">
                <pitch>
                    <step>B</step>
                    <octave>4</octave>
                </pitch>
                <duration>240</duration>
                <type>eighth</type>
                <stem default-y="-55">down</stem>
                <lyric number="1">
                    <syllabic>single</syllabic>
                    <text>we</text>
                </lyric>
            </note>
        </measure>
        <measure width="190" number="23">
            <attributes>
                <staff-details print-object="yes"/>
            </attributes>
            <harmony default-y="14">
                <root>
                    <root-step>D</root-step>
                </root>
                <kind use-symbols="no" text=" "> </kind>
            </harmony>
            <note default-x="44" release="-7" dynamics="75">
                <pitch>
                    <step>B</step>
                    <octave>4</octave>
                </pitch>
                <duration>360</duration>
                <type>eighth</type>
                <dot/>
                <stem default-y="-65">down</stem>
                <beam number="1">begin</beam>
                <lyric number="1">
                    <syllabic>single</syllabic>
                    <text>knew?</text>
                </lyric>
            </note>
            <note default-x="80" release="-7" dynamics="75">
                <pitch>
                    <step>C</step>
                    <alter>1</alter>
                    <octave>5</octave>
                </pitch>
                <duration>60</duration>
                <type>32nd</type>
                <stem default-y="-60">down</stem>
                <beam number="1">continue</beam>
                <beam number="2">begin</beam>
                <beam number="3">begin</beam>
            </note>
            <note default-x="94" release="-7" dynamics="75">
                <pitch>
                    <step>B</step>
                    <octave>4</octave>
                </pitch>
                <duration>60</duration>
                <type>32nd</type>
                <stem default-y="-65">down</stem>
                <beam number="1">end</beam>
                <beam number="2">end</beam>
                <beam number="3">continue</beam>
            </note>
            <note default-x="108" release="-7" dynamics="75">
                <pitch>
                    <step>A</step>
                    <octave>4</octave>
                </pitch>
                <duration>960</duration>
                <type>half</type>
                <stem default-y="10">up</stem>
            </note>
            <note default-x="151">
                <rest/>
                <duration>480</duration>
                <type>quarter</type>
            </note>
        </measure>
        <measure width="171" number="24">
            <attributes>
                <staff-details print-object="yes"/>
            </attributes>
            <note default-x="13">
                <rest/>
                <duration>480</duration>
                <type>quarter</type>
            </note>
            <note default-x="45" release="-7" dynamics="75">
                <pitch>
                    <step>F</step>
                    <alter>1</alter>
                    <octave>5</octave>
                </pitch>
                <duration>480</duration>
                <type>quarter</type>
                <stem default-y="-35">down</stem>
                <lyric number="1">
                    <syllabic>single</syllabic>
                    <text>Where</text>
                </lyric>
            </note>
            <note default-x="95" release="-7" dynamics="75">
                <pitch>
                    <step>E</step>
                    <octave>5</octave>
                </pitch>
                <duration>480</duration>
                <type>quarter</type>
                <stem default-y="-40">down</stem>
                <lyric number="1">
                    <syllabic>single</syllabic>
                    <text>are</text>
                </lyric>
            </note>
            <note default-x="133" release="-7" dynamics="75">
                <pitch>
                    <step>D</step>
                    <octave>5</octave>
                </pitch>
                <duration>480</duration>
                <type>quarter</type>
                <stem default-y="-45">down</stem>
                <lyric number="1">
                    <syllabic>single</syllabic>
                    <text>you</text>
                </lyric>
            </note>
        </measure>
        <measure width="217" number="25">
            <attributes>
                <staff-details print-object="yes"/>
            </attributes>
            <note default-x="35" release="-7" dynamics="75">
                <pitch>
                    <step>A</step>
                    <octave>4</octave>
                </pitch>
                <duration>480</duration>
                <type>quarter</type>
                <stem default-y="10">up</stem>
                <lyric number="1">
                    <syllabic>begin</syllabic>
                    <text>prin</text>
                </lyric>
            </note>
            <note default-x="90" release="-7" dynamics="75">
                <pitch>
                    <step>F</step>
                    <alter>1</alter>
                    <octave>4</octave>
                </pitch>
                <duration>480</duration>
                <type>quarter</type>
                <stem default-y="0">up</stem>
                <lyric number="1">
                    <syllabic>single</syllabic>
                    <text>cess?</text>
                </lyric>
            </note>
            <note default-x="140" release="-7" dynamics="75">
                <pitch>
                    <step>D</step>
                    <octave>4</octave>
                </pitch>
                <duration>480</duration>
                <type>quarter</type>
                <stem default-y="-10">up</stem>
                <lyric number="1">
                    <syllabic>single</syllabic>
                    <text>Are</text>
                </lyric>
            </note>
            <note default-x="179" release="-7" dynamics="75">
                <pitch>
                    <step>F</step>
                    <alter>1</alter>
                    <octave>4</octave>
                </pitch>
                <duration>480</duration>
                <type>quarter</type>
                <stem default-y="0">up</stem>
                <lyric number="1">
                    <syllabic>single</syllabic>
                    <text>you</text>
                </lyric>
            </note>
        </measure>
        <measure width="232" number="26">
            <print new-system="yes">
                <system-layout>
                    <system-margins>
                        <left-margin>43</left-margin>
                        <right-margin>0</right-margin>
                    </system-margins>
                    <system-distance>116</system-distance>
                </system-layout>
            </print>
            <attributes>
                <staff-details print-object="yes"/>
            </attributes>
            <harmony default-y="17">
                <root>
                    <root-step>A</root-step>
                </root>
                <kind use-symbols="no" text="7">7</kind>
            </harmony>
            <note default-x="102" release="-7" dynamics="75">
                <pitch>
                    <step>B</step>
                    <octave>4</octave>
                </pitch>
                <duration>1440</duration>
                <tie type="start"/>
                <type>half</type>
                <dot/>
                <stem default-y="-50">down</stem>
                <notations>
                    <tied orientation="over" type="start"/>
                </notations>
                <lyric number="1">
                    <syllabic>begin</syllabic>
                    <text>cry</text>
                </lyric>
            </note>
            <note default-x="170">
                <pitch>
                    <step>B</step>
                    <octave>4</octave>
                </pitch>
                <duration>240</duration>
                <tie type="stop"/>
                <type>eighth</type>
                <stem default-y="15">up</stem>
                <beam number="1">begin</beam>
                <notations>
                    <tied type="stop"/>
                </notations>
            </note>
            <note default-x="198" release="-7" dynamics="75">
                <pitch>
                    <step>A</step>
                    <octave>4</octave>
                </pitch>
                <duration>240</duration>
                <type>eighth</type>
                <stem default-y="10">up</stem>
                <beam number="1">continue</beam>
                <lyric number="1">
                    <syllabic>single</syllabic>
                    <text>ing</text>
                </lyric>
            </note>
        </measure>
        <measure width="147" number="27">
            <attributes>
                <staff-details print-object="yes"/>
            </attributes>
            <harmony default-y="17">
                <root>
                    <root-step>D</root-step>
                </root>
                <kind use-symbols="no" text=" "> </kind>
            </harmony>
            <note default-x="36" release="-7" dynamics="75">
                <pitch>
                    <step>A</step>
                    <octave>4</octave>
                </pitch>
                <duration>1440</duration>
                <type>half</type>
                <dot/>
                <stem default-y="10">up</stem>
                <lyric number="1">
                    <syllabic>single</syllabic>
                    <text>too?</text>
                </lyric>
            </note>
            <note default-x="102">
                <rest/>
                <duration>480</duration>
                <type>quarter</type>
            </note>
        </measure>
        <measure width="231" number="28">
            <attributes>
                <staff-details print-object="yes"/>
            </attributes>
            <harmony default-y="15">
                <root>
                    <root-step>F</root-step>
                    <root-alter>1</root-alter>
                </root>
                <kind use-symbols="no" text="dim">dim</kind>
            </harmony>
            <note default-x="61" release="-7" dynamics="75">
                <pitch>
                    <step>A</step>
                    <octave>5</octave>
                </pitch>
                <duration>960</duration>
                <type>half</type>
                <stem default-y="-25">down</stem>
                <lyric number="1">
                    <syllabic>single</syllabic>
                    <text>Why</text>
                </lyric>
            </note>
            <note default-x="113" release="-7" dynamics="75">
                <pitch>
                    <step>G</step>
                    <octave>5</octave>
                </pitch>
                <duration>120</duration>
                <type>16th</type>
                <stem default-y="-30">down</stem>
                <beam number="1">begin</beam>
                <beam number="2">begin</beam>
                <lyric number="1">
                    <syllabic>single</syllabic>
                    <text>has</text>
                </lyric>
            </note>
            <note default-x="136" release="-7" dynamics="75">
                <pitch>
                    <step>A</step>
                    <octave>5</octave>
                </pitch>
                <duration>120</duration>
                <type>16th</type>
                <stem default-y="-25">down</stem>
                <beam number="1">end</beam>
                <beam number="2">continue</beam>
            </note>
            <note default-x="158" release="-7" dynamics="75">
                <pitch>
                    <step>G</step>
                    <octave>5</octave>
                </pitch>
                <duration>480</duration>
                <type>quarter</type>
                <stem default-y="-30">down</stem>
            </note>
            <note default-x="197" release="-7" dynamics="75">
                <pitch>
                    <step>F</step>
                    <alter>1</alter>
                    <octave>5</octave>
                </pitch>
                <duration>240</duration>
                <type>eighth</type>
                <stem default-y="-35">down</stem>
                <lyric number="1">
                    <syllabic>single</syllabic>
                    <text>it</text>
                </lyric>
            </note>
        </measure>
        <measure width="157" number="29">
            <attributes>
                <staff-details print-object="yes"/>
            </attributes>
            <harmony default-y="17">
                <root>
                    <root-step>E</root-step>
                </root>
                <kind use-symbols="no" text="min">min</kind>
            </harmony>
            <note default-x="47" release="-7" dynamics="75">
                <pitch>
                    <step>F</step>
                    <alter>1</alter>
                    <octave>5</octave>
                </pitch>
                <duration>960</duration>
                <type>half</type>
                <stem default-y="-35">down</stem>
                <lyric number="1">
                    <syllabic>begin</syllabic>
                    <text>en</text>
                </lyric>
            </note>
            <note default-x="99" release="-7" dynamics="75">
                <pitch>
                    <step>E</step>
                    <octave>5</octave>
                </pitch>
                <duration>960</duration>
                <type>half</type>
                <stem default-y="-40">down</stem>
                <lyric number="1">
                    <syllabic>single</syllabic>
                    <text>ded?</text>
                </lyric>
            </note>
        </measure>
        <measure width="218" number="30">
            <attributes>
                <staff-details print-object="yes"/>
            </attributes>
            <harmony default-y="15">
                <root>
                    <root-step>C</root-step>
                    <root-alter>1</root-alter>
                </root>
                <kind use-symbols="no" text="dim">dim</kind>
            </harmony>
            <note default-x="52">
                <rest/>
                <duration>480</duration>
                <type>quarter</type>
            </note>
            <note default-x="90" release="-7" dynamics="75">
                <pitch>
                    <step>G</step>
                    <octave>5</octave>
                </pitch>
                <duration>480</duration>
                <type>quarter</type>
                <stem default-y="-30">down</stem>
                <lyric number="1">
                    <syllabic>single</syllabic>
                    <text>Was</text>
                </lyric>
            </note>
            <note default-x="135" release="-7" dynamics="75">
                <pitch>
                    <step>F</step>
                    <alter>1</alter>
                    <octave>5</octave>
                </pitch>
                <duration>720</duration>
                <type>quarter</type>
                <dot/>
                <stem default-y="-35">down</stem>
                <lyric number="1">
                    <syllabic>single</syllabic>
                    <text>love</text>
                </lyric>
            </note>
            <note default-x="182" release="-7" dynamics="75">
                <pitch>
                    <step>E</step>
                    <octave>5</octave>
                </pitch>
                <duration>240</duration>
                <type>eighth</type>
                <stem default-y="-40">down</stem>
                <lyric number="1">
                    <syllabic>begin</syllabic>
                    <text>pre</text>
                </lyric>
            </note>
        </measure>
        <measure width="194" number="31">
            <print new-system="yes">
                <system-layout>
                    <system-margins>
                        <left-margin>43</left-margin>
                        <right-margin>0</right-margin>
                    </system-margins>
                    <system-distance>104</system-distance>
                </system-layout>
            </print>
            <attributes>
                <staff-details print-object="yes"/>
            </attributes>
            <harmony default-y="20">
                <root>
                    <root-step>D</root-step>
                </root>
                <kind use-symbols="no" text=" "> </kind>
            </harmony>
            <note default-x="96" release="-7" dynamics="75">
                <pitch>
                    <step>E</step>
                    <octave>5</octave>
                </pitch>
                <duration>960</duration>
                <type>half</type>
                <stem default-y="-40">down</stem>
                <lyric number="1">
                    <syllabic>begin</syllabic>
                    <text>ten</text>
                </lyric>
            </note>
            <note default-x="143" release="-7" dynamics="75">
                <pitch>
                    <step>D</step>
                    <octave>5</octave>
                </pitch>
                <duration>960</duration>
                <type>half</type>
                <stem default-y="-45">down</stem>
                <lyric number="1">
                    <syllabic>single</syllabic>
                    <text>ded?</text>
                </lyric>
            </note>
        </measure>
        <measure width="215" number="32">
            <attributes>
                <staff-details print-object="yes"/>
            </attributes>
            <harmony default-y="15">
                <root>
                    <root-step>G</root-step>
                    <root-alter>1</root-alter>
                </root>
                <kind use-symbols="no" text="m7b5">m7b5</kind>
            </harmony>
            <note default-x="57">
                <rest/>
                <duration>480</duration>
                <type>quarter</type>
            </note>
            <note default-x="101" release="-7" dynamics="75">
                <pitch>
                    <step>F</step>
                    <alter>1</alter>
                    <octave>5</octave>
                </pitch>
                <duration>480</duration>
                <type>quarter</type>
                <stem default-y="-35">down</stem>
                <lyric number="1">
                    <syllabic>single</syllabic>
                    <text>Where</text>
                </lyric>
            </note>
            <note default-x="143" release="-7" dynamics="75">
                <pitch>
                    <step>E</step>
                    <octave>5</octave>
                </pitch>
                <duration>480</duration>
                <type>quarter</type>
                <stem default-y="-40">down</stem>
                <lyric number="1">
                    <syllabic>single</syllabic>
                    <text>is</text>
                </lyric>
            </note>
            <note default-x="176" release="-7" dynamics="75">
                <pitch>
                    <step>D</step>
                    <octave>5</octave>
                </pitch>
                <duration>480</duration>
                <type>quarter</type>
                <stem default-y="-45">down</stem>
                <lyric number="1">
                    <syllabic>single</syllabic>
                    <text>the</text>
                </lyric>
            </note>
        </measure>
        <measure width="212" number="33">
            <attributes>
                <staff-details print-object="yes"/>
            </attributes>
            <harmony default-y="20">
                <root>
                    <root-step>D</root-step>
                </root>
                <kind use-symbols="no" text=" "> </kind>
            </harmony>
            <note default-x="42" release="-7" dynamics="75">
                <pitch>
                    <step>A</step>
                    <octave>4</octave>
                </pitch>
                <duration>480</duration>
                <type>quarter</type>
                <stem default-y="10">up</stem>
                <lyric number="1">
                    <syllabic>begin</syllabic>
                    <text>splen</text>
                </lyric>
            </note>
            <note default-x="92" release="-7" dynamics="75">
                <pitch>
                    <step>F</step>
                    <alter>1</alter>
                    <octave>4</octave>
                </pitch>
                <duration>480</duration>
                <type>quarter</type>
                <stem default-y="0">up</stem>
                <lyric number="1">
                    <syllabic>single</syllabic>
                    <text>did</text>
                </lyric>
            </note>
            <note default-x="139" release="-7" dynamics="75">
                <pitch>
                    <step>D</step>
                    <octave>4</octave>
                </pitch>
                <duration>480</duration>
                <type>quarter</type>
                <stem default-y="-10">up</stem>
                <lyric number="1">
                    <syllabic>single</syllabic>
                    <text>world</text>
                </lyric>
            </note>
            <note default-x="174" release="-7" dynamics="75">
                <pitch>
                    <step>F</step>
                    <alter>1</alter>
                    <octave>4</octave>
                </pitch>
                <duration>480</duration>
                <type>quarter</type>
                <stem default-y="0">up</stem>
                <lyric number="1">
                    <syllabic>single</syllabic>
                    <text>I</text>
                </lyric>
            </note>
        </measure>
        <measure width="159" number="34">
            <attributes>
                <staff-details print-object="yes"/>
            </attributes>
            <harmony default-y="20">
                <root>
                    <root-step>A</root-step>
                </root>
                <kind use-symbols="no" text="7">7</kind>
            </harmony>
            <note default-x="46" release="-7" dynamics="75">
                <pitch>
                    <step>B</step>
                    <octave>4</octave>
                </pitch>
                <duration>1440</duration>
                <tie type="start"/>
                <type>half</type>
                <dot/>
                <stem default-y="-50">down</stem>
                <notations>
                    <tied orientation="over" type="start"/>
                </notations>
                <lyric number="1">
                    <syllabic>single</syllabic>
                    <text>shared</text>
                </lyric>
            </note>
            <note default-x="104">
                <pitch>
                    <step>B</step>
                    <octave>4</octave>
                </pitch>
                <duration>240</duration>
                <tie type="stop"/>
                <type>eighth</type>
                <stem default-y="15">up</stem>
                <beam number="1">begin</beam>
                <notations>
                    <tied type="stop"/>
                </notations>
            </note>
            <note default-x="127" release="-7" dynamics="75">
                <pitch>
                    <step>A</step>
                    <octave>4</octave>
                </pitch>
                <duration>240</duration>
                <type>eighth</type>
                <stem default-y="10">up</stem>
                <beam number="1">continue</beam>
                <lyric number="1">
                    <syllabic>single</syllabic>
                    <text>with</text>
                </lyric>
            </note>
        </measure>
        <measure width="204" number="35">
            <attributes>
                <staff-details print-object="yes"/>
            </attributes>
            <harmony default-y="20">
                <root>
                    <root-step>D</root-step>
                </root>
                <kind use-symbols="no" text=" "> </kind>
            </harmony>
            <note default-x="37" release="-7" dynamics="75">
                <pitch>
                    <step>A</step>
                    <octave>4</octave>
                </pitch>
                <duration>120</duration>
                <type>16th</type>
                <stem default-y="10">up</stem>
                <beam number="1">begin</beam>
                <beam number="2">begin</beam>
                <lyric number="1">
                    <syllabic>single</syllabic>
                    <text>you?</text>
                </lyric>
            </note>
            <note default-x="66" release="-7" dynamics="75">
                <pitch>
                    <step>B</step>
                    <octave>4</octave>
                </pitch>
                <duration>120</duration>
                <type>16th</type>
                <stem default-y="15">up</stem>
                <beam number="1">end</beam>
                <beam number="2">continue</beam>
            </note>
            <note default-x="84" release="-7" dynamics="75">
                <pitch>
                    <step>A</step>
                    <octave>4</octave>
                </pitch>
                <duration>240</duration>
                <tie type="start"/>
                <type>eighth</type>
                <stem default-y="10">up</stem>
                <beam number="1">continue</beam>
                <notations>
                    <tied orientation="under" type="start"/>
                </notations>
            </note>
            <note default-x="120">
                <pitch>
                    <step>A</step>
                    <octave>4</octave>
                </pitch>
                <duration>960</duration>
                <tie type="stop"/>
                <type>half</type>
                <stem default-y="10">up</stem>
                <notations>
                    <tied type="stop"/>
                </notations>
            </note>
            <note default-x="165">
                <rest/>
                <duration>480</duration>
                <type>quarter</type>
            </note>
        </measure>
        <measure width="236" number="36">
            <print new-system="yes">
                <system-layout>
                    <system-margins>
                        <left-margin>43</left-margin>
                        <right-margin>0</right-margin>
                    </system-margins>
                    <system-distance>101</system-distance>
                </system-layout>
            </print>
            <attributes>
                <staff-details print-object="yes"/>
            </attributes>
            <harmony default-y="14">
                <root>
                    <root-step>F</root-step>
                    <root-alter>1</root-alter>
                </root>
                <kind use-symbols="no" text="dim">dim</kind>
            </harmony>
            <note default-x="129" release="-7" dynamics="75">
                <pitch>
                    <step>C</step>
                    <octave>5</octave>
                </pitch>
                <duration>1440</duration>
                <type>half</type>
                <dot/>
                <accidental>natural</accidental>
                <stem default-y="-50">down</stem>
                <lyric number="1">
                    <syllabic>single</syllabic>
                    <text>Where</text>
                </lyric>
            </note>
            <note default-x="193" release="-7" dynamics="75">
                <pitch>
                    <step>F</step>
                    <alter>1</alter>
                    <octave>5</octave>
                </pitch>
                <duration>480</duration>
                <type>quarter</type>
                <stem default-y="-35">down</stem>
                <lyric number="1">
                    <syllabic>single</syllabic>
                    <text>are</text>
                </lyric>
            </note>
        </measure>
        <measure width="145" number="37">
            <attributes>
                <staff-details print-object="yes"/>
            </attributes>
            <harmony default-y="17">
                <root>
                    <root-step>G</root-step>
                </root>
                <kind use-symbols="no" text="6">6</kind>
            </harmony>
            <note default-x="37" release="-7" dynamics="75">
                <pitch>
                    <step>B</step>
                    <octave>4</octave>
                </pitch>
                <duration>1440</duration>
                <type>half</type>
                <dot/>
                <stem default-y="-50">down</stem>
                <lyric number="1">
                    <syllabic>single</syllabic>
                    <text>you?</text>
                </lyric>
            </note>
            <note default-x="101">
                <rest/>
                <duration>480</duration>
                <type>quarter</type>
            </note>
        </measure>
        <measure width="158" number="38">
            <attributes>
                <staff-details print-object="yes"/>
            </attributes>
            <harmony default-y="14">
                <root>
                    <root-step>C</root-step>
                    <root-alter>1</root-alter>
                </root>
                <kind use-symbols="no" text="dim">dim</kind>
            </harmony>
            <note default-x="50" release="-7" dynamics="75">
                <pitch>
                    <step>B</step>
                    <alter>-1</alter>
                    <octave>4</octave>
                </pitch>
                <duration>1440</duration>
                <type>half</type>
                <dot/>
                <accidental>flat</accidental>
                <stem default-y="-50">down</stem>
                <lyric number="1">
                    <syllabic>single</syllabic>
                    <text>Where</text>
                </lyric>
            </note>
            <note default-x="115" release="-7" dynamics="75">
                <pitch>
                    <step>E</step>
                    <octave>5</octave>
                </pitch>
                <duration>480</duration>
                <type>quarter</type>
                <stem default-y="-40">down</stem>
                <lyric number="1">
                    <syllabic>single</syllabic>
                    <text>are</text>
                </lyric>
            </note>
        </measure>
        <measure width="145" number="39">
            <attributes>
                <staff-details print-object="yes"/>
            </attributes>
            <harmony default-y="17">
                <root>
                    <root-step>D</root-step>
                </root>
                <kind use-symbols="no" text=" "> </kind>
            </harmony>
            <note default-x="37" release="-7" dynamics="75">
                <pitch>
                    <step>A</step>
                    <octave>4</octave>
                </pitch>
                <duration>1440</duration>
                <type>half</type>
                <dot/>
                <stem default-y="10">up</stem>
                <lyric number="1">
                    <syllabic>single</syllabic>
                    <text>you?</text>
                </lyric>
            </note>
            <note default-x="101">
                <rest/>
                <duration>480</duration>
                <type>quarter</type>
            </note>
        </measure>
        <measure width="158" number="40">
            <attributes>
                <staff-details print-object="yes"/>
            </attributes>
            <harmony default-y="14">
                <root>
                    <root-step>D</root-step>
                    <root-alter>1</root-alter>
                </root>
                <kind use-symbols="no" text="dim">dim</kind>
            </harmony>
            <note default-x="50" release="-7" dynamics="75">
                <pitch>
                    <step>A</step>
                    <octave>4</octave>
                </pitch>
                <duration>1440</duration>
                <type>half</type>
                <dot/>
                <stem default-y="10">up</stem>
                <lyric number="1">
                    <syllabic>single</syllabic>
                    <text>Why</text>
                </lyric>
            </note>
            <note default-x="115" release="-7" dynamics="75">
                <pitch>
                    <step>C</step>
                    <octave>5</octave>
                </pitch>
                <duration>480</duration>
                <type>quarter</type>
                <accidental>natural</accidental>
                <stem default-y="-50">down</stem>
                <lyric number="1">
                    <syllabic>single</syllabic>
                    <text>oh</text>
                </lyric>
            </note>
        </measure>
        <measure width="142" number="41">
            <attributes>
                <staff-details print-object="yes"/>
            </attributes>
            <harmony default-y="17">
                <root>
                    <root-step>E</root-step>
                </root>
                <kind use-symbols="no" text="7">7</kind>
            </harmony>
            <note default-x="34" release="-7" dynamics="75">
                <pitch>
                    <step>G</step>
                    <alter>1</alter>
                    <octave>4</octave>
                </pitch>
                <duration>1440</duration>
                <type>half</type>
                <dot/>
                <accidental>sharp</accidental>
                <stem default-y="5">up</stem>
                <lyric number="1">
                    <syllabic>single</syllabic>
                    <text>why</text>
                </lyric>
            </note>
            <note default-x="98" release="-7" dynamics="75">
                <pitch>
                    <step>B</step>
                    <octave>4</octave>
                </pitch>
                <duration>480</duration>
                <type>quarter</type>
                <stem default-y="-50">down</stem>
                <lyric number="1">
                    <syllabic>single</syllabic>
                    <text>did</text>
                </lyric>
            </note>
        </measure>
        <measure width="217" number="42">
            <print new-system="yes">
                <system-layout>
                    <system-margins>
                        <left-margin>43</left-margin>
                        <right-margin>0</right-margin>
                    </system-margins>
                    <system-distance>104</system-distance>
                </system-layout>
            </print>
            <attributes>
                <staff-details print-object="yes"/>
            </attributes>
            <harmony default-y="20">
                <root>
                    <root-step>A</root-step>
                </root>
                <kind use-symbols="no" text="7">7</kind>
            </harmony>
            <note default-x="101" release="-7" dynamics="75">
                <pitch>
                    <step>G</step>
                    <octave>4</octave>
                </pitch>
                <duration>1440</duration>
                <type>half</type>
                <dot/>
                <stem default-y="5">up</stem>
                <lyric number="1">
                    <syllabic>single</syllabic>
                    <text>our</text>
                </lyric>
            </note>
            <note default-x="160" release="-7" dynamics="75">
                <pitch>
                    <step>B</step>
                    <octave>4</octave>
                </pitch>
                <duration>240</duration>
                <type>eighth</type>
                <stem default-y="15">up</stem>
                <beam number="1">begin</beam>
                <lyric number="1">
                    <syllabic>single</syllabic>
                    <text>love</text>
                </lyric>
            </note>
            <note default-x="186" release="-7" dynamics="75">
                <pitch>
                    <step>A</step>
                    <octave>4</octave>
                </pitch>
                <duration>240</duration>
                <type>eighth</type>
                <stem default-y="10">up</stem>
                <beam number="1">continue</beam>
            </note>
        </measure>
        <measure width="184" number="43">
            <attributes>
                <staff-details print-object="yes"/>
            </attributes>
            <harmony default-y="20">
                <root>
                    <root-step>D</root-step>
                </root>
                <kind use-symbols="no" text=" "> </kind>
            </harmony>
            <note default-x="34" release="-7" dynamics="75">
                <pitch>
                    <step>B</step>
                    <octave>4</octave>
                </pitch>
                <duration>240</duration>
                <type>eighth</type>
                <stem default-y="15">up</stem>
                <beam number="1">begin</beam>
                <lyric number="1">
                    <syllabic>single</syllabic>
                    <text>die?</text>
                </lyric>
            </note>
            <note default-x="60" release="-7" dynamics="75">
                <pitch>
                    <step>A</step>
                    <octave>4</octave>
                </pitch>
                <duration>240</duration>
                <tie type="start"/>
                <type>eighth</type>
                <stem default-y="10">up</stem>
                <beam number="1">continue</beam>
                <notations>
                    <tied orientation="under" type="start"/>
                </notations>
            </note>
            <note default-x="96">
                <pitch>
                    <step>A</step>
                    <octave>4</octave>
                </pitch>
                <duration>960</duration>
                <tie type="stop"/>
                <type>half</type>
                <stem default-y="10">up</stem>
                <notations>
                    <tied type="stop"/>
                </notations>
            </note>
            <note default-x="143">
                <rest/>
                <duration>480</duration>
                <type>quarter</type>
            </note>
        </measure>
        <measure width="232" number="44">
            <attributes>
                <staff-details print-object="yes"/>
            </attributes>
            <harmony default-y="15">
                <root>
                    <root-step>G</root-step>
                    <root-alter>1</root-alter>
                </root>
                <kind use-symbols="no" text="m7b5">m7b5</kind>
            </harmony>
            <note default-x="57">
                <rest/>
                <duration>480</duration>
                <type>quarter</type>
            </note>
            <note default-x="102" release="-7" dynamics="75">
                <pitch>
                    <step>F</step>
                    <alter>1</alter>
                    <octave>5</octave>
                </pitch>
                <duration>480</duration>
                <type>quarter</type>
                <stem default-y="-35">down</stem>
                <lyric number="1">
                    <syllabic>single</syllabic>
                    <text>Where</text>
                </lyric>
            </note>
            <note default-x="153" release="-7" dynamics="75">
                <pitch>
                    <step>E</step>
                    <octave>5</octave>
                </pitch>
                <duration>480</duration>
                <type>quarter</type>
                <stem default-y="-40">down</stem>
                <lyric number="1">
                    <syllabic>single</syllabic>
                    <text>are</text>
                </lyric>
            </note>
            <note default-x="192" release="-7" dynamics="75">
                <pitch>
                    <step>D</step>
                    <octave>5</octave>
                </pitch>
                <duration>480</duration>
                <type>quarter</type>
                <stem default-y="-45">down</stem>
                <lyric number="1">
                    <syllabic>single</syllabic>
                    <text>you</text>
                </lyric>
            </note>
        </measure>
        <measure width="218" number="45">
            <attributes>
                <staff-details print-object="yes"/>
            </attributes>
            <harmony default-y="20">
                <root>
                    <root-step>D</root-step>
                </root>
                <kind use-symbols="no" text=" "> </kind>
            </harmony>
            <note default-x="42" release="-7" dynamics="75">
                <pitch>
                    <step>A</step>
                    <octave>4</octave>
                </pitch>
                <duration>480</duration>
                <type>quarter</type>
                <stem default-y="10">up</stem>
                <lyric number="1">
                    <syllabic>begin</syllabic>
                    <text>dar</text>
                </lyric>
            </note>
            <note default-x="91" release="-7" dynamics="75">
                <pitch>
                    <step>F</step>
                    <alter>1</alter>
                    <octave>4</octave>
                </pitch>
                <duration>480</duration>
                <type>quarter</type>
                <stem default-y="0">up</stem>
                <lyric number="1">
                    <syllabic>single</syllabic>
                    <text>ling?</text>
                </lyric>
            </note>
            <note default-x="137" release="-7" dynamics="75">
                <pitch>
                    <step>D</step>
                    <octave>4</octave>
                </pitch>
                <duration>480</duration>
                <type>quarter</type>
                <stem default-y="-10">up</stem>
                <lyric number="1">
                    <syllabic>single</syllabic>
                    <text>Are</text>
                </lyric>
            </note>
            <note default-x="177" release="-7" dynamics="75">
                <pitch>
                    <step>F</step>
                    <alter>1</alter>
                    <octave>4</octave>
                </pitch>
                <duration>480</duration>
                <type>quarter</type>
                <stem default-y="0">up</stem>
                <lyric number="1">
                    <syllabic>single</syllabic>
                    <text>you</text>
                </lyric>
            </note>
        </measure>
        <measure width="133" number="46">
            <attributes>
                <staff-details print-object="yes"/>
            </attributes>
            <harmony default-y="20">
                <root>
                    <root-step>G</root-step>
                </root>
                <kind use-symbols="no" text=" "> </kind>
            </harmony>
            <note default-x="32" release="-7" dynamics="75">
                <pitch>
                    <step>B</step>
                    <octave>4</octave>
                </pitch>
                <duration>960</duration>
                <type>half</type>
                <stem default-y="-50">down</stem>
                <lyric number="1">
                    <syllabic>begin</syllabic>
                    <text>cry</text>
                </lyric>
            </note>
            <note default-x="79" release="-7" dynamics="75">
                <pitch>
                    <step>D</step>
                    <octave>5</octave>
                </pitch>
                <duration>960</duration>
                <type>half</type>
                <stem default-y="-45">down</stem>
                <lyric number="1">
                    <syllabic>single</syllabic>
                    <text>ing</text>
                </lyric>
            </note>
        </measure>
        <measure width="212" number="47">
            <print new-page="yes">
                <system-layout>
                    <system-margins>
                        <left-margin>43</left-margin>
                        <right-margin>0</right-margin>
                    </system-margins>
                    <top-system-distance>32</top-system-distance>
                </system-layout>
            </print>
            <attributes>
                <staff-details print-object="yes"/>
            </attributes>
            <harmony default-y="14">
                <root>
                    <root-step>D</root-step>
                </root>
                <kind use-symbols="no" text=" "> </kind>
            </harmony>
            <note default-x="102" release="-7" dynamics="75">
                <pitch>
                    <step>A</step>
                    <octave>5</octave>
                </pitch>
                <duration>1920</duration>
                <type>whole</type>
                <lyric number="1">
                    <syllabic>single</syllabic>
                    <text>too?</text>
                </lyric>
            </note>
        </measure>
        <measure width="219" number="48">
            <attributes>
                <staff-details print-object="yes"/>
            </attributes>
            <note default-x="13">
                <rest/>
                <duration>480</duration>
                <type>quarter</type>
            </note>
            <note default-x="63" release="-7" dynamics="75">
                <pitch>
                    <step>F</step>
                    <alter>1</alter>
                    <octave>5</octave>
                </pitch>
                <duration>480</duration>
                <type>quarter</type>
                <stem default-y="-35">down</stem>
            </note>
            <note default-x="113" release="-7" dynamics="75">
                <pitch>
                    <step>E</step>
                    <octave>5</octave>
                </pitch>
                <duration>480</duration>
                <type>quarter</type>
                <stem default-y="-40">down</stem>
            </note>
            <note default-x="163" release="-7" dynamics="75">
                <pitch>
                    <step>D</step>
                    <octave>5</octave>
                </pitch>
                <duration>480</duration>
                <type>quarter</type>
                <stem default-y="-45">down</stem>
            </note>
        </measure>
        <measure width="225" number="49">
            <attributes>
                <staff-details print-object="yes"/>
            </attributes>
            <note default-x="19" release="-7" dynamics="75">
                <pitch>
                    <step>B</step>
                    <octave>4</octave>
                </pitch>
                <duration>480</duration>
                <type>quarter</type>
                <stem default-y="-50">down</stem>
            </note>
            <note default-x="69" release="-7" dynamics="75">
                <pitch>
                    <step>A</step>
                    <octave>4</octave>
                </pitch>
                <duration>480</duration>
                <type>quarter</type>
                <stem default-y="10">up</stem>
            </note>
            <note default-x="119" release="-7" dynamics="75">
                <pitch>
                    <step>F</step>
                    <alter>1</alter>
                    <octave>4</octave>
                </pitch>
                <duration>480</duration>
                <type>quarter</type>
                <stem default-y="0">up</stem>
            </note>
            <note default-x="169" release="-7" dynamics="75">
                <pitch>
                    <step>A</step>
                    <octave>4</octave>
                </pitch>
                <duration>480</duration>
                <type>quarter</type>
                <stem default-y="10">up</stem>
            </note>
        </measure>
        <measure width="193" number="50">
            <attributes>
                <staff-details print-object="yes"/>
            </attributes>
            <note default-x="19" release="-7" dynamics="75">
                <pitch>
                    <step>F</step>
                    <alter>1</alter>
                    <octave>5</octave>
                </pitch>
                <duration>480</duration>
                <type>quarter</type>
                <stem default-y="-35">down</stem>
            </note>
            <note default-x="69" release="-7" dynamics="75">
                <pitch>
                    <step>F</step>
                    <alter>1</alter>
                    <octave>4</octave>
                </pitch>
                <duration>480</duration>
                <type>quarter</type>
                <stem default-y="0">up</stem>
            </note>
            <note default-x="119" release="-7" dynamics="75">
                <pitch>
                    <step>A</step>
                    <octave>4</octave>
                </pitch>
                <duration>960</duration>
                <tie type="start"/>
                <type>half</type>
                <stem default-y="10">up</stem>
                <notations>
                    <tied orientation="under" type="start"/>
                </notations>
            </note>
        </measure>
        <measure width="136" number="51">
            <attributes>
                <staff-details print-object="yes"/>
            </attributes>
            <barline location="right">
                <bar-style>light-heavy</bar-style>
            </barline>
            <note default-x="18">
                <pitch>
                    <step>A</step>
                    <octave>4</octave>
                </pitch>
                <duration>1920</duration>
                <tie type="stop"/>
                <type>whole</type>
                <notations>
                    <tied type="stop"/>
                </notations>
            </note>
        </measure>
    </part>
</score-partwise>
