<?xml version="1.0" encoding="UTF-8"?>
<!DOCTYPE score-partwise PUBLIC "-//Recordare//DTD MusicXML 2.0 Partwise//EN" "http://www.musicxml.org/dtds/partwise.dtd">
<score-partwise version="2.0">
    <work>
        <work-number></work-number>
        <work-title></work-title>
    </work>
    <movement-number></movement-number>
    <movement-title>Hark the Herald Angels Sing</movement-title>
    <identification>
        <creator type="composer">Vince Guaraldi</creator>
        <creator type="poet"></creator>
        <rights>All Rights Reserved</rights>
        <encoding>
            <software>Finale NotePad 2012 for Windows</software>
            <software>Dolet Light for Finale NotePad 2012</software>
            <encoding-date>2012-11-25</encoding-date>
            <supports value="yes" type="yes" element="print" attribute="new-system"/>
            <supports value="yes" type="yes" element="print" attribute="new-page"/>
            <software>ProxyMusic 2.0 c</software>
        </encoding>
        <source>http://wikifonia.org/node/19169/revisions/25655/view</source>
    </identification>
    <defaults>
        <scaling>
            <millimeters>7.2319</millimeters>
            <tenths>40</tenths>
        </scaling>
        <page-layout>
            <page-height>1545</page-height>
            <page-width>1194</page-width>
            <page-margins type="both">
                <left-margin>140</left-margin>
                <right-margin>70</right-margin>
                <top-margin>88</top-margin>
                <bottom-margin>88</bottom-margin>
            </page-margins>
        </page-layout>
        <system-layout>
            <system-margins>
                <left-margin>0</left-margin>
                <right-margin>0</right-margin>
            </system-margins>
            <system-distance>121</system-distance>
            <top-system-distance>70</top-system-distance>
        </system-layout>
        <appearance>
            <line-width type="stem">0.7487</line-width>
            <line-width type="beam">5</line-width>
            <line-width type="staff">0.7487</line-width>
            <line-width type="light barline">0.7487</line-width>
            <line-width type="heavy barline">5</line-width>
            <line-width type="leger">0.7487</line-width>
            <line-width type="ending">0.7487</line-width>
            <line-width type="wedge">0.7487</line-width>
            <line-width type="enclosure">0.7487</line-width>
            <line-width type="tuplet bracket">0.7487</line-width>
            <note-size type="grace">60</note-size>
            <note-size type="cue">60</note-size>
        </appearance>
        <music-font font-size="20.5" font-family="Maestro,engraved"/>
        <word-font font-size="10.25" font-family="Times New Roman"/>
        <lyric-font font-size="10.25" font-family="Times New Roman"/>
    </defaults>
    <credit page="1">
        <credit-words font-size="24" default-y="1440" default-x="632" halign="center" valign="top">Hark the Harold Angels Sing</credit-words>
    </credit>
    <credit page="1">
        <credit-words font-size="12" default-y="1362" default-x="1124" halign="right" valign="top">Vince Guaraldi</credit-words>
    </credit>
    <part-list>
        <score-part id="P1">
            <part-name>Guitar</part-name>
            <part-abbreviation>Gtr.</part-abbreviation>
            <score-instrument id="P1-I1">
                <instrument-name>None</instrument-name>
            </score-instrument>
            <midi-instrument id="P1-I1">
                <midi-channel>1</midi-channel>
                <midi-program>26</midi-program>
                <volume>80</volume>
                <pan>0</pan>
            </midi-instrument>
        </score-part>
    </part-list>
    <part id="P1">
        <measure width="320" number="1">
            <print>
                <system-layout>
                    <system-margins>
                        <left-margin>70</left-margin>
                        <right-margin>0</right-margin>
                    </system-margins>
                    <top-system-distance>167</top-system-distance>
                </system-layout>
                <measure-numbering>none</measure-numbering>
            </print>
            <attributes>
                <divisions>2</divisions>
                <key>
                    <fifths>-1</fifths>
                    <mode>major</mode>
                </key>
                <time>
                    <beats>4</beats>
                    <beat-type>4</beat-type>
                </time>
                <clef>
                    <sign>G</sign>
                    <line>2</line>
                </clef>
                <transpose>
                    <diatonic>0</diatonic>
                    <chromatic>0</chromatic>
                    <octave-change>-1</octave-change>
                </transpose>
            </attributes>
            <sound tempo="120"/>
            <note default-x="109">
                <pitch>
                    <step>C</step>
                    <octave>5</octave>
                </pitch>
                <duration>2</duration>
                <voice>1</voice>
                <type>quarter</type>
                <stem default-y="-50">down</stem>
                <lyric relative-x="4" default-y="-80" number="1">
                    <syllabic>single</syllabic>
                    <text>Hark</text>
                </lyric>
                <lyric relative-x="4" default-y="-97" number="2">
                    <syllabic>single</syllabic>
                    <text>Christ</text>
                </lyric>
                <lyric relative-x="4" default-y="-113" number="3">
                    <syllabic>single</syllabic>
                    <text>Hail</text>
                </lyric>
            </note>
            <note default-x="162">
                <pitch>
                    <step>F</step>
                    <octave>5</octave>
                </pitch>
                <duration>2</duration>
                <voice>1</voice>
                <type>quarter</type>
                <stem default-y="-35">down</stem>
                <lyric default-y="-80" number="1">
                    <syllabic>single</syllabic>
                    <text>the</text>
                </lyric>
                <lyric default-y="-97" number="2">
                    <syllabic>single</syllabic>
                    <text>by</text>
                </lyric>
                <lyric default-y="-113" number="3">
                    <syllabic>single</syllabic>
                    <text>the</text>
                </lyric>
            </note>
            <note default-x="216">
                <pitch>
                    <step>F</step>
                    <octave>5</octave>
                </pitch>
                <duration>3</duration>
                <voice>1</voice>
                <type>quarter</type>
                <dot/>
                <stem default-y="-35">down</stem>
                <lyric default-y="-80" number="1">
                    <syllabic>begin</syllabic>
                    <text>her</text>
                </lyric>
                <lyric default-y="-97" number="2">
                    <syllabic>begin</syllabic>
                    <text>high</text>
                </lyric>
                <lyric default-y="-113" number="3">
                    <syllabic>begin</syllabic>
                    <text>heav'n</text>
                </lyric>
            </note>
            <note default-x="287">
                <pitch>
                    <step>E</step>
                    <octave>5</octave>
                </pitch>
                <duration>1</duration>
                <voice>1</voice>
                <type>eighth</type>
                <stem default-y="-40.5">down</stem>
                <lyric default-y="-80" number="1">
                    <syllabic>end</syllabic>
                    <text>ald</text>
                </lyric>
                <lyric default-y="-97" number="2">
                    <syllabic>end</syllabic>
                    <text>est</text>
                </lyric>
                <lyric default-y="-113" number="3">
                    <syllabic>end</syllabic>
                    <text>born</text>
                </lyric>
            </note>
        </measure>
        <measure width="202" number="2">
            <note default-x="14">
                <pitch>
                    <step>F</step>
                    <octave>5</octave>
                </pitch>
                <duration>2</duration>
                <voice>1</voice>
                <type>quarter</type>
                <stem default-y="-35">down</stem>
                <lyric default-y="-80" number="1">
                    <syllabic>begin</syllabic>
                    <text>an</text>
                </lyric>
                <lyric relative-x="5" default-y="-97" number="2">
                    <syllabic>single</syllabic>
                    <text>heav'n</text>
                </lyric>
                <lyric relative-x="5" default-y="-113" number="3">
                    <syllabic>single</syllabic>
                    <text>Prince</text>
                </lyric>
            </note>
            <note default-x="70">
                <pitch>
                    <step>A</step>
                    <octave>5</octave>
                </pitch>
                <duration>2</duration>
                <voice>1</voice>
                <type>quarter</type>
                <stem default-y="-25.5">down</stem>
                <lyric default-y="-80" number="1">
                    <syllabic>end</syllabic>
                    <text>gels</text>
                </lyric>
                <lyric default-y="-97" number="2">
                    <syllabic>begin</syllabic>
                    <text>a</text>
                </lyric>
                <lyric default-y="-113" number="3">
                    <syllabic>single</syllabic>
                    <text>of</text>
                </lyric>
            </note>
            <note default-x="113">
                <pitch>
                    <step>A</step>
                    <octave>5</octave>
                </pitch>
                <duration>2</duration>
                <voice>1</voice>
                <type>quarter</type>
                <stem default-y="-25.5">down</stem>
                <lyric default-y="-80" number="1">
                    <syllabic>single</syllabic>
                    <text>sing</text>
                </lyric>
                <lyric default-y="-97" number="2">
                    <syllabic>end</syllabic>
                    <text>dored</text>
                </lyric>
                <lyric default-y="-113" number="3">
                    <syllabic>single</syllabic>
                    <text>Peace</text>
                </lyric>
            </note>
            <note default-x="158">
                <pitch>
                    <step>G</step>
                    <octave>5</octave>
                </pitch>
                <duration>2</duration>
                <voice>1</voice>
                <type>quarter</type>
                <stem default-y="-30">down</stem>
            </note>
        </measure>
        <measure width="196" number="3">
            <note default-x="16">
                <pitch>
                    <step>C</step>
                    <octave>6</octave>
                </pitch>
                <duration>2</duration>
                <voice>1</voice>
                <type>quarter</type>
                <stem default-y="-20.5">down</stem>
                <lyric default-y="-80" number="1">
                    <syllabic>begin</syllabic>
                    <text>&quot;Glo</text>
                </lyric>
                <lyric default-y="-97" number="2">
                    <syllabic>single</syllabic>
                    <text>Christ</text>
                </lyric>
                <lyric default-y="-113" number="3">
                    <syllabic>single</syllabic>
                    <text>Hail</text>
                </lyric>
            </note>
            <note default-x="64">
                <pitch>
                    <step>C</step>
                    <octave>6</octave>
                </pitch>
                <duration>2</duration>
                <voice>1</voice>
                <type>quarter</type>
                <stem default-y="-20.5">down</stem>
                <lyric default-y="-80" number="1">
                    <syllabic>end</syllabic>
                    <text>ry</text>
                </lyric>
                <lyric default-y="-97" number="2">
                    <syllabic>single</syllabic>
                    <text>the</text>
                </lyric>
                <lyric default-y="-113" number="3">
                    <syllabic>single</syllabic>
                    <text>the</text>
                </lyric>
            </note>
            <note default-x="109">
                <pitch>
                    <step>C</step>
                    <octave>6</octave>
                </pitch>
                <duration>3</duration>
                <voice>1</voice>
                <type>quarter</type>
                <dot/>
                <stem default-y="-20.5">down</stem>
                <lyric default-y="-80" number="1">
                    <syllabic>single</syllabic>
                    <text>to</text>
                </lyric>
                <lyric default-y="-97" number="2">
                    <syllabic>begin</syllabic>
                    <text>ev</text>
                </lyric>
                <lyric default-y="-113" number="3">
                    <syllabic>single</syllabic>
                    <text>Son</text>
                </lyric>
            </note>
            <note default-x="166">
                <pitch>
                    <step>B</step>
                    <alter>-1</alter>
                    <octave>5</octave>
                </pitch>
                <duration>1</duration>
                <voice>1</voice>
                <type>eighth</type>
                <stem default-y="-20.5">down</stem>
                <lyric default-y="-80" number="1">
                    <syllabic>single</syllabic>
                    <text>the</text>
                </lyric>
                <lyric default-y="-97" number="2">
                    <syllabic>middle</syllabic>
                    <text>er</text>
                </lyric>
                <lyric default-y="-113" number="3">
                    <syllabic>single</syllabic>
                    <text>of</text>
                </lyric>
            </note>
        </measure>
        <measure width="195" number="4">
            <note default-x="16">
                <pitch>
                    <step>A</step>
                    <octave>5</octave>
                </pitch>
                <duration>2</duration>
                <voice>1</voice>
                <type>quarter</type>
                <stem default-y="-25.5">down</stem>
                <lyric default-y="-80" number="1">
                    <syllabic>begin</syllabic>
                    <text>new</text>
                </lyric>
                <lyric default-y="-97" number="2">
                    <syllabic>middle</syllabic>
                    <text>last</text>
                </lyric>
                <lyric default-y="-113" number="3">
                    <syllabic>begin</syllabic>
                    <text>Righ</text>
                </lyric>
            </note>
            <note default-x="66">
                <pitch>
                    <step>G</step>
                    <octave>5</octave>
                </pitch>
                <duration>2</duration>
                <voice>1</voice>
                <type>quarter</type>
                <stem default-y="-30">down</stem>
                <lyric default-y="-80" number="1">
                    <syllabic>end</syllabic>
                    <text>born</text>
                </lyric>
                <lyric default-y="-97" number="2">
                    <syllabic>end</syllabic>
                    <text>ing</text>
                </lyric>
                <lyric default-y="-113" number="3">
                    <syllabic>middle</syllabic>
                    <text>teous</text>
                </lyric>
            </note>
            <note default-x="116">
                <pitch>
                    <step>A</step>
                    <octave>5</octave>
                </pitch>
                <duration>4</duration>
                <voice>1</voice>
                <type>half</type>
                <stem default-y="-25.5">down</stem>
                <lyric default-y="-80" number="1">
                    <syllabic>single</syllabic>
                    <text>king!</text>
                </lyric>
                <lyric default-y="-97" number="2">
                    <syllabic>single</syllabic>
                    <text>Lord</text>
                </lyric>
                <lyric default-y="-113" number="3">
                    <syllabic>end</syllabic>
                    <text>ness</text>
                </lyric>
            </note>
        </measure>
        <measure width="299" number="5">
            <print new-system="yes">
                <system-layout>
                    <system-distance>114</system-distance>
                </system-layout>
            </print>
            <note default-x="77">
                <pitch>
                    <step>C</step>
                    <octave>5</octave>
                </pitch>
                <duration>2</duration>
                <voice>1</voice>
                <type>quarter</type>
                <stem default-y="-50">down</stem>
                <lyric relative-x="3" default-y="-80" number="1">
                    <syllabic>single</syllabic>
                    <text>peace</text>
                </lyric>
                <lyric default-y="-97" number="2">
                    <syllabic>single</syllabic>
                    <text>Late</text>
                </lyric>
                <lyric default-y="-113" number="3">
                    <syllabic>single</syllabic>
                    <text>Light</text>
                </lyric>
            </note>
            <note default-x="133">
                <pitch>
                    <step>F</step>
                    <octave>5</octave>
                </pitch>
                <duration>2</duration>
                <voice>1</voice>
                <type>quarter</type>
                <stem default-y="-35">down</stem>
                <lyric default-y="-80" number="1">
                    <syllabic>single</syllabic>
                    <text>on</text>
                </lyric>
                <lyric default-y="-97" number="2">
                    <syllabic>single</syllabic>
                    <text>in</text>
                </lyric>
                <lyric default-y="-113" number="3">
                    <syllabic>single</syllabic>
                    <text>and</text>
                </lyric>
            </note>
            <note default-x="189">
                <pitch>
                    <step>F</step>
                    <octave>5</octave>
                </pitch>
                <duration>3</duration>
                <voice>1</voice>
                <type>quarter</type>
                <dot/>
                <stem default-y="-35">down</stem>
                <lyric default-y="-80" number="1">
                    <syllabic>single</syllabic>
                    <text>earth</text>
                </lyric>
                <lyric default-y="-97" number="2">
                    <syllabic>single</syllabic>
                    <text>time</text>
                </lyric>
                <lyric default-y="-113" number="3">
                    <syllabic>single</syllabic>
                    <text>life</text>
                </lyric>
            </note>
            <note default-x="263">
                <pitch>
                    <step>E</step>
                    <octave>5</octave>
                </pitch>
                <duration>1</duration>
                <voice>1</voice>
                <type>eighth</type>
                <stem default-y="-40.5">down</stem>
                <lyric default-y="-80" number="1">
                    <syllabic>single</syllabic>
                    <text>and</text>
                </lyric>
                <lyric default-y="-97" number="2">
                    <syllabic>begin</syllabic>
                    <text>be</text>
                </lyric>
                <lyric default-y="-113" number="3">
                    <syllabic>single</syllabic>
                    <text>to</text>
                </lyric>
            </note>
        </measure>
        <measure width="216" number="6">
            <note default-x="14">
                <pitch>
                    <step>F</step>
                    <octave>5</octave>
                </pitch>
                <duration>2</duration>
                <voice>1</voice>
                <type>quarter</type>
                <stem default-y="-35">down</stem>
                <lyric default-y="-80" number="1">
                    <syllabic>begin</syllabic>
                    <text>mer</text>
                </lyric>
                <lyric default-y="-97" number="2">
                    <syllabic>end</syllabic>
                    <text>hold</text>
                </lyric>
                <lyric default-y="-113" number="3">
                    <syllabic>single</syllabic>
                    <text>all</text>
                </lyric>
            </note>
            <note default-x="64">
                <pitch>
                    <step>A</step>
                    <octave>5</octave>
                </pitch>
                <duration>2</duration>
                <voice>1</voice>
                <type>quarter</type>
                <stem default-y="-25">down</stem>
                <lyric default-y="-80" number="1">
                    <syllabic>end</syllabic>
                    <text>cy</text>
                </lyric>
                <lyric default-y="-97" number="2">
                    <syllabic>single</syllabic>
                    <text>him</text>
                </lyric>
                <lyric default-y="-113" number="3">
                    <syllabic>single</syllabic>
                    <text>he</text>
                </lyric>
            </note>
            <note default-x="115">
                <pitch>
                    <step>A</step>
                    <octave>5</octave>
                </pitch>
                <duration>2</duration>
                <voice>1</voice>
                <type>quarter</type>
                <stem default-y="-25">down</stem>
                <lyric default-y="-80" number="1">
                    <syllabic>single</syllabic>
                    <text>mild</text>
                </lyric>
                <lyric default-y="-97" number="2">
                    <syllabic>single</syllabic>
                    <text>come</text>
                </lyric>
                <lyric default-y="-113" number="3">
                    <syllabic>single</syllabic>
                    <text>brings</text>
                </lyric>
            </note>
            <note default-x="165">
                <pitch>
                    <step>G</step>
                    <octave>5</octave>
                </pitch>
                <duration>2</duration>
                <voice>1</voice>
                <type>quarter</type>
                <stem default-y="-30">down</stem>
            </note>
        </measure>
        <measure width="258" number="7">
            <note default-x="16">
                <pitch>
                    <step>C</step>
                    <octave>6</octave>
                </pitch>
                <duration>2</duration>
                <voice>1</voice>
                <type>quarter</type>
                <stem default-y="-20.5">down</stem>
                <lyric default-y="-80" number="1">
                    <syllabic>single</syllabic>
                    <text>God</text>
                </lyric>
                <lyric default-y="-97" number="2">
                    <syllabic>begin</syllabic>
                    <text>Off</text>
                </lyric>
                <lyric default-y="-113" number="3">
                    <syllabic>single</syllabic>
                    <text>Ris'n</text>
                </lyric>
            </note>
            <note default-x="77">
                <pitch>
                    <step>G</step>
                    <octave>5</octave>
                </pitch>
                <duration>2</duration>
                <voice>1</voice>
                <type>quarter</type>
                <stem default-y="-30">down</stem>
                <lyric default-y="-80" number="1">
                    <syllabic>single</syllabic>
                    <text>and</text>
                </lyric>
                <lyric default-y="-97" number="2">
                    <syllabic>end</syllabic>
                    <text>spring</text>
                </lyric>
                <lyric default-y="-113" number="3">
                    <syllabic>single</syllabic>
                    <text>with</text>
                </lyric>
            </note>
            <note default-x="138">
                <pitch>
                    <step>G</step>
                    <octave>5</octave>
                </pitch>
                <duration>3</duration>
                <voice>1</voice>
                <type>quarter</type>
                <dot/>
                <stem default-y="-30">down</stem>
                <lyric default-y="-80" number="1">
                    <syllabic>begin</syllabic>
                    <text>sin</text>
                </lyric>
                <lyric default-y="-97" number="2">
                    <syllabic>single</syllabic>
                    <text>of</text>
                </lyric>
                <lyric default-y="-113" number="3">
                    <syllabic>begin</syllabic>
                    <text>heal</text>
                </lyric>
            </note>
            <note default-x="219">
                <pitch>
                    <step>E</step>
                    <octave>5</octave>
                </pitch>
                <duration>1</duration>
                <voice>1</voice>
                <type>eighth</type>
                <stem default-y="-40.5">down</stem>
                <lyric default-y="-80" number="1">
                    <syllabic>end</syllabic>
                    <text>ners</text>
                </lyric>
                <lyric default-y="-97" number="2">
                    <syllabic>single</syllabic>
                    <text>a</text>
                </lyric>
                <lyric default-y="-113" number="3">
                    <syllabic>end</syllabic>
                    <text>ing</text>
                </lyric>
            </note>
        </measure>
        <measure width="211" number="8">
            <note default-x="14">
                <pitch>
                    <step>E</step>
                    <octave>5</octave>
                </pitch>
                <duration>2</duration>
                <voice>1</voice>
                <type>quarter</type>
                <stem default-y="-40.5">down</stem>
                <lyric default-y="-80" number="1">
                    <syllabic>begin</syllabic>
                    <text>re</text>
                </lyric>
                <lyric default-y="-97" number="2">
                    <syllabic>begin</syllabic>
                    <text>Vir</text>
                </lyric>
                <lyric default-y="-113" number="3">
                    <syllabic>single</syllabic>
                    <text>in</text>
                </lyric>
            </note>
            <note default-x="68">
                <pitch>
                    <step>D</step>
                    <octave>5</octave>
                </pitch>
                <duration>2</duration>
                <voice>1</voice>
                <type>quarter</type>
                <stem default-y="-45">down</stem>
                <lyric default-y="-80" number="1">
                    <syllabic>middle</syllabic>
                    <text>con</text>
                </lyric>
                <lyric default-y="-97" number="2">
                    <syllabic>end</syllabic>
                    <text>gin's</text>
                </lyric>
                <lyric default-y="-113" number="3">
                    <syllabic>single</syllabic>
                    <text>Hes</text>
                </lyric>
            </note>
            <note default-x="122">
                <pitch>
                    <step>C</step>
                    <octave>5</octave>
                </pitch>
                <duration>4</duration>
                <voice>1</voice>
                <type>half</type>
                <stem default-y="-50">down</stem>
                <lyric default-y="-80" number="1">
                    <syllabic>end</syllabic>
                    <text>ciled</text>
                </lyric>
                <lyric default-y="-97" number="2">
                    <syllabic>single</syllabic>
                    <text>womb</text>
                </lyric>
                <lyric default-y="-113" number="3">
                    <syllabic>single</syllabic>
                    <text>wings</text>
                </lyric>
            </note>
        </measure>
        <measure width="293" number="9">
            <print new-system="yes">
                <system-layout>
                    <system-distance>114</system-distance>
                </system-layout>
            </print>
            <note default-x="80">
                <pitch>
                    <step>C</step>
                    <octave>6</octave>
                </pitch>
                <duration>2</duration>
                <voice>1</voice>
                <type>quarter</type>
                <stem default-y="-20">down</stem>
                <lyric default-y="-80" number="1">
                    <syllabic>begin</syllabic>
                    <text>Joy</text>
                </lyric>
                <lyric relative-x="3" default-y="-97" number="2">
                    <syllabic>single</syllabic>
                    <text>Veiled</text>
                </lyric>
                <lyric default-y="-113" number="3">
                    <syllabic>single</syllabic>
                    <text>Mild</text>
                </lyric>
            </note>
            <note default-x="133">
                <pitch>
                    <step>C</step>
                    <octave>6</octave>
                </pitch>
                <duration>2</duration>
                <voice>1</voice>
                <type>quarter</type>
                <stem default-y="-20">down</stem>
                <lyric default-y="-80" number="1">
                    <syllabic>end</syllabic>
                    <text>ful</text>
                </lyric>
                <lyric default-y="-97" number="2">
                    <syllabic>single</syllabic>
                    <text>in</text>
                </lyric>
                <lyric default-y="-113" number="3">
                    <syllabic>single</syllabic>
                    <text>he</text>
                </lyric>
            </note>
            <note default-x="186">
                <pitch>
                    <step>C</step>
                    <octave>6</octave>
                </pitch>
                <duration>2</duration>
                <voice>1</voice>
                <type>quarter</type>
                <stem default-y="-20">down</stem>
                <lyric default-y="-80" number="1">
                    <syllabic>single</syllabic>
                    <text>all</text>
                </lyric>
                <lyric default-y="-97" number="2">
                    <syllabic>single</syllabic>
                    <text>flesh</text>
                </lyric>
                <lyric default-y="-113" number="3">
                    <syllabic>single</syllabic>
                    <text>lays</text>
                </lyric>
            </note>
            <note default-x="239">
                <pitch>
                    <step>F</step>
                    <octave>5</octave>
                </pitch>
                <duration>2</duration>
                <voice>1</voice>
                <type>quarter</type>
                <stem default-y="-35.5">down</stem>
                <lyric default-y="-80" number="1">
                    <syllabic>single</syllabic>
                    <text>ye</text>
                </lyric>
                <lyric default-y="-97" number="2">
                    <syllabic>single</syllabic>
                    <text>the</text>
                </lyric>
                <lyric default-y="-113" number="3">
                    <syllabic>single</syllabic>
                    <text>his</text>
                </lyric>
            </note>
        </measure>
        <measure width="217" number="10">
            <note default-x="17">
                <pitch>
                    <step>B</step>
                    <alter>-1</alter>
                    <octave>5</octave>
                </pitch>
                <duration>2</duration>
                <voice>1</voice>
                <type>quarter</type>
                <stem default-y="-20">down</stem>
                <lyric default-y="-80" number="1">
                    <syllabic>begin</syllabic>
                    <text>na</text>
                </lyric>
                <lyric default-y="-97" number="2">
                    <syllabic>begin</syllabic>
                    <text>God</text>
                </lyric>
                <lyric default-y="-113" number="3">
                    <syllabic>begin</syllabic>
                    <text>glo</text>
                </lyric>
            </note>
            <note default-x="66">
                <pitch>
                    <step>A</step>
                    <octave>5</octave>
                </pitch>
                <duration>2</duration>
                <voice>1</voice>
                <type>quarter</type>
                <stem default-y="-25">down</stem>
                <lyric default-y="-80" number="1">
                    <syllabic>end</syllabic>
                    <text>tions</text>
                </lyric>
                <lyric default-y="-97" number="2">
                    <syllabic>end</syllabic>
                    <text>head</text>
                </lyric>
                <lyric default-y="-113" number="3">
                    <syllabic>end</syllabic>
                    <text>ry</text>
                </lyric>
            </note>
            <note default-x="117">
                <pitch>
                    <step>A</step>
                    <octave>5</octave>
                </pitch>
                <duration>2</duration>
                <voice>1</voice>
                <type>quarter</type>
                <stem default-y="-25">down</stem>
                <lyric default-y="-80" number="1">
                    <syllabic>single</syllabic>
                    <text>rise</text>
                </lyric>
                <lyric default-y="-97" number="2">
                    <syllabic>single</syllabic>
                    <text>see</text>
                </lyric>
                <lyric default-y="-113" number="3">
                    <syllabic>single</syllabic>
                    <text>by</text>
                </lyric>
            </note>
            <note default-x="166">
                <pitch>
                    <step>G</step>
                    <octave>5</octave>
                </pitch>
                <duration>2</duration>
                <voice>1</voice>
                <type>quarter</type>
                <stem default-y="-30">down</stem>
            </note>
        </measure>
        <measure width="255" number="11">
            <note default-x="17">
                <pitch>
                    <step>C</step>
                    <octave>6</octave>
                </pitch>
                <duration>2</duration>
                <voice>1</voice>
                <type>quarter</type>
                <stem default-y="-20">down</stem>
                <lyric default-y="-80" number="1">
                    <syllabic>single</syllabic>
                    <text>Join</text>
                </lyric>
                <lyric default-y="-97" number="2">
                    <syllabic>single</syllabic>
                    <text>Hail</text>
                </lyric>
                <lyric default-y="-113" number="3">
                    <syllabic>single</syllabic>
                    <text>Born</text>
                </lyric>
            </note>
            <note default-x="76">
                <pitch>
                    <step>C</step>
                    <octave>6</octave>
                </pitch>
                <duration>2</duration>
                <voice>1</voice>
                <type>quarter</type>
                <stem default-y="-20">down</stem>
                <lyric default-y="-80" number="1">
                    <syllabic>single</syllabic>
                    <text>the</text>
                </lyric>
                <lyric default-y="-97" number="2">
                    <syllabic>single</syllabic>
                    <text>the</text>
                </lyric>
                <lyric default-y="-113" number="3">
                    <syllabic>single</syllabic>
                    <text>that</text>
                </lyric>
            </note>
            <note default-x="135">
                <pitch>
                    <step>C</step>
                    <octave>6</octave>
                </pitch>
                <duration>2</duration>
                <voice>1</voice>
                <type>quarter</type>
                <stem default-y="-20">down</stem>
                <lyric default-y="-80" number="1">
                    <syllabic>begin</syllabic>
                    <text>tri</text>
                </lyric>
                <lyric default-y="-97" number="2">
                    <syllabic>begin</syllabic>
                    <text>incar</text>
                </lyric>
                <lyric default-y="-113" number="3">
                    <syllabic>single</syllabic>
                    <text>man</text>
                </lyric>
            </note>
            <note default-x="195">
                <pitch>
                    <step>F</step>
                    <octave>5</octave>
                </pitch>
                <duration>2</duration>
                <voice>1</voice>
                <type>quarter</type>
                <stem default-y="-35.5">down</stem>
                <lyric default-y="-80" number="1">
                    <syllabic>end</syllabic>
                    <text>umph</text>
                </lyric>
                <lyric default-y="-97" number="2">
                    <syllabic>end</syllabic>
                    <text>nate</text>
                </lyric>
                <lyric default-y="-113" number="3">
                    <syllabic>single</syllabic>
                    <text>no</text>
                </lyric>
            </note>
        </measure>
        <measure width="219" number="12">
            <note default-x="16">
                <pitch>
                    <step>B</step>
                    <alter>-1</alter>
                    <octave>5</octave>
                </pitch>
                <duration>2</duration>
                <voice>1</voice>
                <type>quarter</type>
                <stem default-y="-20">down</stem>
                <lyric default-y="-80" number="1">
                    <syllabic>single</syllabic>
                    <text>of</text>
                </lyric>
                <lyric default-y="-97" number="2">
                    <syllabic>begin</syllabic>
                    <text>De</text>
                </lyric>
                <lyric default-y="-113" number="3">
                    <syllabic>single</syllabic>
                    <text>more</text>
                </lyric>
            </note>
            <note default-x="67">
                <pitch>
                    <step>A</step>
                    <octave>5</octave>
                </pitch>
                <duration>2</duration>
                <voice>1</voice>
                <type>quarter</type>
                <stem default-y="-25">down</stem>
                <lyric default-y="-80" number="1">
                    <syllabic>single</syllabic>
                    <text>the</text>
                </lyric>
                <lyric default-y="-97" number="2">
                    <syllabic>middle</syllabic>
                    <text>i</text>
                </lyric>
                <lyric default-y="-113" number="3">
                    <syllabic>single</syllabic>
                    <text>may</text>
                </lyric>
            </note>
            <note default-x="117">
                <pitch>
                    <step>A</step>
                    <octave>5</octave>
                </pitch>
                <duration>2</duration>
                <voice>1</voice>
                <type>quarter</type>
                <stem default-y="-25">down</stem>
                <lyric default-y="-80" number="1">
                    <syllabic>single</syllabic>
                    <text>skies</text>
                </lyric>
                <lyric default-y="-97" number="2">
                    <syllabic>end</syllabic>
                    <text>ty</text>
                </lyric>
                <lyric default-y="-113" number="3">
                    <syllabic>single</syllabic>
                    <text>die</text>
                </lyric>
            </note>
            <note default-x="167">
                <pitch>
                    <step>G</step>
                    <octave>5</octave>
                </pitch>
                <duration>2</duration>
                <voice>1</voice>
                <type>quarter</type>
                <stem default-y="-30">down</stem>
            </note>
        </measure>
        <measure width="313" number="13">
            <print new-system="yes">
                <system-layout>
                    <system-distance>114</system-distance>
                </system-layout>
            </print>
            <note default-x="80">
                <pitch>
                    <step>D</step>
                    <octave>6</octave>
                </pitch>
                <duration>2</duration>
                <voice>1</voice>
                <type>quarter</type>
                <stem default-y="-20">down</stem>
                <lyric relative-x="8" default-y="-80" number="1">
                    <syllabic>single</syllabic>
                    <text>With</text>
                </lyric>
                <lyric relative-x="8" default-y="-97" number="2">
                    <syllabic>single</syllabic>
                    <text>Pleased</text>
                </lyric>
                <lyric relative-x="8" default-y="-113" number="3">
                    <syllabic>single</syllabic>
                    <text>Born</text>
                </lyric>
            </note>
            <note default-x="138">
                <pitch>
                    <step>D</step>
                    <octave>6</octave>
                </pitch>
                <duration>2</duration>
                <voice>1</voice>
                <type>quarter</type>
                <stem default-y="-20">down</stem>
                <lyric default-y="-80" number="1">
                    <syllabic>begin</syllabic>
                    <text>an</text>
                </lyric>
                <lyric default-y="-97" number="2">
                    <syllabic>single</syllabic>
                    <text>as</text>
                </lyric>
                <lyric default-y="-113" number="3">
                    <syllabic>single</syllabic>
                    <text>to</text>
                </lyric>
            </note>
            <note default-x="196">
                <pitch>
                    <step>D</step>
                    <octave>6</octave>
                </pitch>
                <duration>2</duration>
                <voice>1</voice>
                <type>quarter</type>
                <stem default-y="-20">down</stem>
                <lyric default-y="-80" number="1">
                    <syllabic>middle</syllabic>
                    <text>gel</text>
                </lyric>
                <lyric default-y="-97" number="2">
                    <syllabic>single</syllabic>
                    <text>man</text>
                </lyric>
                <lyric default-y="-113" number="3">
                    <syllabic>single</syllabic>
                    <text>raise</text>
                </lyric>
            </note>
            <note default-x="254">
                <pitch>
                    <step>C</step>
                    <octave>6</octave>
                </pitch>
                <duration>2</duration>
                <voice>1</voice>
                <type>quarter</type>
                <stem default-y="-20">down</stem>
                <lyric default-y="-80" number="1">
                    <syllabic>end</syllabic>
                    <text>ic</text>
                </lyric>
                <lyric default-y="-97" number="2">
                    <syllabic>single</syllabic>
                    <text>with</text>
                </lyric>
                <lyric default-y="-113" number="3">
                    <syllabic>single</syllabic>
                    <text>the</text>
                </lyric>
            </note>
        </measure>
        <measure width="205" number="14">
            <note default-x="17">
                <pitch>
                    <step>B</step>
                    <alter>-1</alter>
                    <octave>5</octave>
                </pitch>
                <duration>2</duration>
                <voice>1</voice>
                <type>quarter</type>
                <stem default-y="-20">down</stem>
                <lyric default-y="-80" number="1">
                    <syllabic>single</syllabic>
                    <text>host</text>
                </lyric>
                <lyric default-y="-97" number="2">
                    <syllabic>single</syllabic>
                    <text>man</text>
                </lyric>
                <lyric default-y="-113" number="3">
                    <syllabic>single</syllabic>
                    <text>sons</text>
                </lyric>
            </note>
            <note default-x="68">
                <pitch>
                    <step>A</step>
                    <octave>5</octave>
                </pitch>
                <duration>2</duration>
                <voice>1</voice>
                <type>quarter</type>
                <stem default-y="-25">down</stem>
                <lyric default-y="-80" number="1">
                    <syllabic>begin</syllabic>
                    <text>pro</text>
                </lyric>
                <lyric default-y="-97" number="2">
                    <syllabic>single</syllabic>
                    <text>to</text>
                </lyric>
                <lyric default-y="-113" number="3">
                    <syllabic>single</syllabic>
                    <text>of</text>
                </lyric>
            </note>
            <note default-x="120">
                <pitch>
                    <step>B</step>
                    <alter>-1</alter>
                    <octave>5</octave>
                </pitch>
                <duration>4</duration>
                <voice>1</voice>
                <type>half</type>
                <stem default-y="-20">down</stem>
                <lyric default-y="-80" number="1">
                    <syllabic>end</syllabic>
                    <text>claim</text>
                </lyric>
                <lyric default-y="-97" number="2">
                    <syllabic>single</syllabic>
                    <text>dwell</text>
                </lyric>
                <lyric default-y="-113" number="3">
                    <syllabic>single</syllabic>
                    <text>earth</text>
                </lyric>
            </note>
        </measure>
        <measure width="260" number="15">
            <note default-x="14">
                <pitch>
                    <step>G</step>
                    <octave>5</octave>
                </pitch>
                <duration>2</duration>
                <voice>1</voice>
                <type>quarter</type>
                <stem default-y="-30.5">down</stem>
                <lyric relative-x="4" default-y="-80" number="1">
                    <syllabic>single</syllabic>
                    <text>Christ</text>
                </lyric>
                <lyric default-y="-97" number="2">
                    <syllabic>begin</syllabic>
                    <text>Je</text>
                </lyric>
                <lyric default-y="-113" number="3">
                    <syllabic>single</syllabic>
                    <text>Born</text>
                </lyric>
            </note>
            <note default-x="73">
                <pitch>
                    <step>A</step>
                    <octave>5</octave>
                </pitch>
                <duration>1</duration>
                <voice>1</voice>
                <type>eighth</type>
                <stem default-y="-25">down</stem>
                <beam number="1">begin</beam>
                <lyric default-y="-80" number="1">
                    <syllabic>single</syllabic>
                    <text>is</text>
                </lyric>
                <lyric default-y="-97" number="2">
                    <syllabic>end</syllabic>
                    <text>sus</text>
                </lyric>
                <lyric default-y="-113" number="3">
                    <syllabic>single</syllabic>
                    <text>to</text>
                </lyric>
            </note>
            <note default-x="109">
                <pitch>
                    <step>B</step>
                    <alter>-1</alter>
                    <octave>5</octave>
                </pitch>
                <duration>1</duration>
                <voice>1</voice>
                <type>eighth</type>
                <stem default-y="-22">down</stem>
                <beam number="1">end</beam>
            </note>
            <note default-x="145">
                <pitch>
                    <step>C</step>
                    <octave>6</octave>
                </pitch>
                <duration>3</duration>
                <voice>1</voice>
                <type>quarter</type>
                <dot/>
                <stem default-y="-20">down</stem>
                <lyric default-y="-80" number="1">
                    <syllabic>single</syllabic>
                    <text>born</text>
                </lyric>
                <lyric default-y="-97" number="2">
                    <syllabic>single</syllabic>
                    <text>our</text>
                </lyric>
                <lyric default-y="-113" number="3">
                    <syllabic>single</syllabic>
                    <text>give</text>
                </lyric>
            </note>
            <note default-x="222">
                <pitch>
                    <step>F</step>
                    <octave>5</octave>
                </pitch>
                <duration>1</duration>
                <voice>1</voice>
                <type>eighth</type>
                <stem default-y="-35">down</stem>
                <lyric default-y="-80" number="1">
                    <syllabic>single</syllabic>
                    <text>in</text>
                </lyric>
                <lyric default-y="-97" number="2">
                    <syllabic>begin</syllabic>
                    <text>Em</text>
                </lyric>
                <lyric default-y="-113" number="3">
                    <syllabic>single</syllabic>
                    <text>them</text>
                </lyric>
            </note>
        </measure>
        <measure width="205" number="16">
            <note default-x="14">
                <pitch>
                    <step>F</step>
                    <octave>5</octave>
                </pitch>
                <duration>2</duration>
                <voice>1</voice>
                <type>quarter</type>
                <stem default-y="-35">down</stem>
                <lyric default-y="-80" number="1">
                    <syllabic>begin</syllabic>
                    <text>Beth</text>
                </lyric>
                <lyric default-y="-97" number="2">
                    <syllabic>middle</syllabic>
                    <text>man</text>
                </lyric>
                <lyric default-y="-113" number="3">
                    <syllabic>begin</syllabic>
                    <text>sec</text>
                </lyric>
            </note>
            <note default-x="66">
                <pitch>
                    <step>G</step>
                    <octave>5</octave>
                </pitch>
                <duration>2</duration>
                <voice>1</voice>
                <type>quarter</type>
                <stem default-y="-30.5">down</stem>
                <lyric default-y="-80" number="1">
                    <syllabic>middle</syllabic>
                    <text>le</text>
                </lyric>
                <lyric default-y="-97" number="2">
                    <syllabic>middle</syllabic>
                    <text>u</text>
                </lyric>
                <lyric default-y="-113" number="3">
                    <syllabic>end</syllabic>
                    <text>ond</text>
                </lyric>
            </note>
            <note default-x="119">
                <pitch>
                    <step>A</step>
                    <octave>5</octave>
                </pitch>
                <duration>4</duration>
                <voice>1</voice>
                <type>half</type>
                <stem default-y="-25">down</stem>
                <lyric default-y="-80" number="1">
                    <syllabic>end</syllabic>
                    <text>hem</text>
                </lyric>
                <lyric default-y="-97" number="2">
                    <syllabic>middle</syllabic>
                    <text>el!</text>
                </lyric>
                <lyric default-y="-113" number="3">
                    <syllabic>single</syllabic>
                    <text>birth</text>
                </lyric>
            </note>
        </measure>
        <measure width="303" number="17">
            <print new-system="yes">
                <system-layout>
                    <system-distance>114</system-distance>
                </system-layout>
            </print>
            <note default-x="80">
                <pitch>
                    <step>D</step>
                    <octave>6</octave>
                </pitch>
                <duration>3</duration>
                <voice>1</voice>
                <type>quarter</type>
                <dot/>
                <stem default-y="-20">down</stem>
                <lyric default-y="-80" number="1">
                    <syllabic>single</syllabic>
                    <text>Hark</text>
                </lyric>
            </note>
            <note default-x="154">
                <pitch>
                    <step>D</step>
                    <octave>6</octave>
                </pitch>
                <duration>1</duration>
                <voice>1</voice>
                <type>eighth</type>
                <stem default-y="-20">down</stem>
                <lyric default-y="-80" number="1">
                    <syllabic>single</syllabic>
                    <text>the</text>
                </lyric>
            </note>
            <note default-x="190">
                <pitch>
                    <step>D</step>
                    <octave>6</octave>
                </pitch>
                <duration>2</duration>
                <voice>1</voice>
                <type>quarter</type>
                <stem default-y="-20">down</stem>
                <lyric default-y="-80" number="1">
                    <syllabic>begin</syllabic>
                    <text>Her</text>
                </lyric>
            </note>
            <note default-x="246">
                <pitch>
                    <step>C</step>
                    <octave>6</octave>
                </pitch>
                <duration>2</duration>
                <voice>1</voice>
                <type>quarter</type>
                <stem default-y="-20">down</stem>
                <lyric default-y="-80" number="1">
                    <syllabic>end</syllabic>
                    <text>ald</text>
                </lyric>
            </note>
        </measure>
        <measure width="210" number="18">
            <note default-x="16">
                <pitch>
                    <step>B</step>
                    <alter>-1</alter>
                    <octave>5</octave>
                </pitch>
                <duration>2</duration>
                <voice>1</voice>
                <type>quarter</type>
                <stem default-y="-20">down</stem>
                <lyric default-y="-80" number="1">
                    <syllabic>begin</syllabic>
                    <text>an</text>
                </lyric>
            </note>
            <note default-x="69">
                <pitch>
                    <step>A</step>
                    <octave>5</octave>
                </pitch>
                <duration>2</duration>
                <voice>1</voice>
                <type>quarter</type>
                <stem default-y="-25.5">down</stem>
                <lyric default-y="-80" number="1">
                    <syllabic>end</syllabic>
                    <text>gels</text>
                </lyric>
            </note>
            <note default-x="123">
                <pitch>
                    <step>B</step>
                    <alter>-1</alter>
                    <octave>5</octave>
                </pitch>
                <duration>4</duration>
                <voice>1</voice>
                <type>half</type>
                <stem default-y="-20">down</stem>
                <lyric default-y="-80" number="1">
                    <syllabic>single</syllabic>
                    <text>sing</text>
                </lyric>
            </note>
        </measure>
        <measure width="240" number="19">
            <note default-x="14">
                <pitch>
                    <step>G</step>
                    <octave>5</octave>
                </pitch>
                <duration>2</duration>
                <voice>1</voice>
                <type>quarter</type>
                <stem default-y="-30">down</stem>
                <lyric default-y="-80" number="1">
                    <syllabic>begin</syllabic>
                    <text>Glo</text>
                </lyric>
            </note>
            <note default-x="68">
                <pitch>
                    <step>A</step>
                    <octave>5</octave>
                </pitch>
                <duration>1</duration>
                <voice>1</voice>
                <type>eighth</type>
                <stem default-y="-25">down</stem>
                <beam number="1">begin</beam>
                <lyric default-y="-80" number="1">
                    <syllabic>end</syllabic>
                    <text>ry</text>
                </lyric>
            </note>
            <note default-x="101">
                <pitch>
                    <step>B</step>
                    <alter>-1</alter>
                    <octave>5</octave>
                </pitch>
                <duration>1</duration>
                <voice>1</voice>
                <type>eighth</type>
                <stem default-y="-22.5">down</stem>
                <beam number="1">end</beam>
            </note>
            <note default-x="135">
                <pitch>
                    <step>C</step>
                    <octave>6</octave>
                </pitch>
                <duration>3</duration>
                <voice>1</voice>
                <type>quarter</type>
                <dot/>
                <stem default-y="-20">down</stem>
                <lyric default-y="-80" number="1">
                    <syllabic>single</syllabic>
                    <text>to</text>
                </lyric>
            </note>
            <note default-x="206">
                <pitch>
                    <step>F</step>
                    <octave>5</octave>
                </pitch>
                <duration>1</duration>
                <voice>1</voice>
                <type>eighth</type>
                <stem default-y="-35">down</stem>
                <lyric default-y="-80" number="1">
                    <syllabic>single</syllabic>
                    <text>the</text>
                </lyric>
            </note>
        </measure>
        <measure width="231" number="20">
            <note default-x="14">
                <pitch>
                    <step>F</step>
                    <octave>5</octave>
                </pitch>
                <duration>2</duration>
                <voice>1</voice>
                <type>quarter</type>
                <stem default-y="-35">down</stem>
                <lyric default-y="-80" number="1">
                    <syllabic>single</syllabic>
                    <text>new</text>
                </lyric>
            </note>
            <note default-x="71">
                <pitch>
                    <step>E</step>
                    <octave>5</octave>
                </pitch>
                <duration>2</duration>
                <voice>1</voice>
                <type>quarter</type>
                <stem default-y="-40">down</stem>
                <lyric default-y="-80" number="1">
                    <syllabic>single</syllabic>
                    <text>born</text>
                </lyric>
            </note>
            <note default-x="128">
                <pitch>
                    <step>F</step>
                    <octave>5</octave>
                </pitch>
                <duration>4</duration>
                <voice>1</voice>
                <type>half</type>
                <stem default-y="-35">down</stem>
                <lyric default-y="-80" number="1">
                    <syllabic>single</syllabic>
                    <text>King!</text>
                </lyric>
            </note>
            <barline location="right">
                <bar-style>light-heavy</bar-style>
            </barline>
        </measure>
    </part>
</score-partwise>
