<?xml version="1.0" encoding="UTF-8"?>
<!DOCTYPE score-partwise PUBLIC "-//Recordare//DTD MusicXML 2.0 Partwise//EN" "http://www.musicxml.org/dtds/partwise.dtd">
<score-partwise version="2.0">
    <work>
        <work-number></work-number>
        <work-title></work-title>
    </work>
    <movement-number></movement-number>
    <movement-title>Alle Jahre Wieder</movement-title>
    <identification>
        <creator type="composer">Volksweise</creator>
        <creator type="poet">Volksweise</creator>
        <rights>All Rights Reserved</rights>
        <encoding>
            <software>MuseScore 1.2</software>
            <encoding-date>2012-12-17</encoding-date>
            <software>ProxyMusic 2.0 c</software>
        </encoding>
        <source>http://wikifonia.org/node/19569/revisions/25833/view</source>
    </identification>
    <defaults>
        <scaling>
            <millimeters>7.056</millimeters>
            <tenths>40</tenths>
        </scaling>
        <page-layout>
            <page-height>1683.67</page-height>
            <page-width>1190.48</page-width>
            <page-margins type="even">
                <left-margin>56.6893</left-margin>
                <right-margin>56.6893</right-margin>
                <top-margin>56.6893</top-margin>
                <bottom-margin>113.379</bottom-margin>
            </page-margins>
            <page-margins type="odd">
                <left-margin>56.6893</left-margin>
                <right-margin>56.6893</right-margin>
                <top-margin>56.6893</top-margin>
                <bottom-margin>113.379</bottom-margin>
            </page-margins>
        </page-layout>
    </defaults>
    <credit page="1">
        <credit-words font-size="24" default-y="1626.98" default-x="595.238" justify="center" valign="top">Alle Jahre wieder</credit-words>
    </credit>
    <credit page="1">
        <credit-words font-size="12" default-y="1559.98" default-x="1133.79" justify="right" valign="top">Volksweise</credit-words>
    </credit>
    <credit page="1">
        <credit-words font-size="12" default-y="1559.98" default-x="56.6893" justify="left" valign="top">Wilhelm Hey</credit-words>
    </credit>
    <part-list>
        <score-part id="P1">
            <part-name></part-name>
            <score-instrument id="P1-I3">
                <instrument-name></instrument-name>
            </score-instrument>
            <midi-instrument id="P1-I3">
                <midi-channel>1</midi-channel>
                <midi-program>1</midi-program>
                <volume>78.7402</volume>
                <pan>0</pan>
            </midi-instrument>
        </score-part>
    </part-list>
    <part id="P1">
        <measure width="430.87" number="1">
            <print>
                <system-layout>
                    <system-margins>
                        <left-margin>0.00</left-margin>
                        <right-margin>0.00</right-margin>
                    </system-margins>
                    <top-system-distance>300.37</top-system-distance>
                </system-layout>
                <staff-layout number="2">
                    <staff-distance>159.49</staff-distance>
                </staff-layout>
            </print>
            <attributes>
                <divisions>2</divisions>
                <key>
                    <fifths>0</fifths>
                    <mode>major</mode>
                </key>
                <time>
                    <beats>4</beats>
                    <beat-type>4</beat-type>
                </time>
                <staves>2</staves>
                <clef number="1">
                    <sign>G</sign>
                    <line>2</line>
                </clef>
            </attributes>
            <harmony print-frame="no">
                <root>
                    <root-step>C</root-step>
                </root>
                <kind text="">major</kind>
                <staff>1</staff>
            </harmony>
            <note default-y="-30.00" default-x="102.35">
                <pitch>
                    <step>G</step>
                    <octave>4</octave>
                </pitch>
                <duration>3</duration>
                <voice>1</voice>
                <type>quarter</type>
                <dot/>
                <stem>up</stem>
                <staff>1</staff>
                <lyric number="1">
                    <syllabic>begin</syllabic>
                    <text>Al</text>
                </lyric>
                <lyric number="2">
                    <syllabic>single</syllabic>
                    <text>Kehrt</text>
                </lyric>
                <lyric number="3">
                    <syllabic>single</syllabic>
                    <text>Ist</text>
                </lyric>
            </note>
            <note default-y="-25.00" default-x="206.04" dynamics="88.89">
                <pitch>
                    <step>A</step>
                    <octave>4</octave>
                </pitch>
                <duration>1</duration>
                <voice>1</voice>
                <type>eighth</type>
                <stem>up</stem>
                <staff>1</staff>
                <lyric number="1">
                    <syllabic>end</syllabic>
                    <text>le</text>
                </lyric>
                <lyric number="2">
                    <syllabic>single</syllabic>
                    <text>mit</text>
                </lyric>
                <lyric number="3">
                    <syllabic>single</syllabic>
                    <text>auch</text>
                </lyric>
            </note>
            <note default-y="-30.00" default-x="259.19" dynamics="88.89">
                <pitch>
                    <step>G</step>
                    <octave>4</octave>
                </pitch>
                <duration>2</duration>
                <voice>1</voice>
                <type>quarter</type>
                <stem>up</stem>
                <staff>1</staff>
                <lyric number="1">
                    <syllabic>begin</syllabic>
                    <text>Jah</text>
                </lyric>
                <lyric number="2">
                    <syllabic>begin</syllabic>
                    <text>sei</text>
                </lyric>
                <lyric number="3">
                    <syllabic>single</syllabic>
                    <text>mir</text>
                </lyric>
            </note>
            <harmony print-frame="no">
                <root>
                    <root-step>G</root-step>
                </root>
                <kind text="7">dominant</kind>
                <staff>1</staff>
            </harmony>
            <note default-y="-35.00" default-x="344.23" dynamics="88.89">
                <pitch>
                    <step>F</step>
                    <octave>4</octave>
                </pitch>
                <duration>2</duration>
                <voice>1</voice>
                <type>quarter</type>
                <stem>up</stem>
                <staff>1</staff>
                <lyric number="1">
                    <syllabic>end</syllabic>
                    <text>re</text>
                </lyric>
                <lyric number="2">
                    <syllabic>end</syllabic>
                    <text>nem </text>
                </lyric>
                <lyric number="3">
                    <syllabic>single</syllabic>
                    <text>zur</text>
                </lyric>
            </note>
            <backup>
                <duration>8</duration>
            </backup>
            <note default-y="-239.49" default-x="102.35">
                <pitch>
                    <step>E</step>
                    <octave>4</octave>
                </pitch>
                <duration>3</duration>
                <voice>5</voice>
                <type>quarter</type>
                <dot/>
                <stem>up</stem>
                <staff>2</staff>
            </note>
            <note default-y="-234.49" default-x="206.04" dynamics="88.89">
                <pitch>
                    <step>F</step>
                    <octave>4</octave>
                </pitch>
                <duration>1</duration>
                <voice>5</voice>
                <type>eighth</type>
                <stem>up</stem>
                <staff>2</staff>
            </note>
            <note default-y="-239.49" default-x="259.19" dynamics="88.89">
                <pitch>
                    <step>E</step>
                    <octave>4</octave>
                </pitch>
                <duration>2</duration>
                <voice>5</voice>
                <type>quarter</type>
                <stem>up</stem>
                <staff>2</staff>
            </note>
            <note default-y="-244.49" default-x="344.23" dynamics="88.89">
                <pitch>
                    <step>D</step>
                    <octave>4</octave>
                </pitch>
                <duration>2</duration>
                <voice>5</voice>
                <type>quarter</type>
                <stem>up</stem>
                <staff>2</staff>
            </note>
        </measure>
        <measure width="239.09" number="2">
            <harmony print-frame="no">
                <root>
                    <root-step>C</root-step>
                </root>
                <kind text="">major</kind>
                <staff>1</staff>
            </harmony>
            <note default-y="-40.00" default-x="21.72" dynamics="88.89">
                <pitch>
                    <step>E</step>
                    <octave>4</octave>
                </pitch>
                <duration>4</duration>
                <voice>1</voice>
                <type>half</type>
                <stem>up</stem>
                <staff>1</staff>
                <lyric number="1">
                    <syllabic>begin</syllabic>
                    <text>wie</text>
                </lyric>
                <lyric number="2">
                    <syllabic>begin</syllabic>
                    <text>Se</text>
                </lyric>
                <lyric number="3">
                    <syllabic>begin</syllabic>
                    <text>Sei</text>
                </lyric>
            </note>
            <harmony print-frame="no">
                <root>
                    <root-step>G</root-step>
                </root>
                <kind text="">major</kind>
                <staff>1</staff>
            </harmony>
            <note default-y="-45.00" default-x="129.60" dynamics="88.89">
                <pitch>
                    <step>D</step>
                    <octave>4</octave>
                </pitch>
                <duration>4</duration>
                <voice>1</voice>
                <type>half</type>
                <stem>up</stem>
                <staff>1</staff>
                <lyric number="1">
                    <syllabic>end</syllabic>
                    <text>der</text>
                </lyric>
                <lyric number="2">
                    <syllabic>end</syllabic>
                    <text>gen</text>
                </lyric>
                <lyric number="3">
                    <syllabic>end</syllabic>
                    <text>te</text>
                </lyric>
            </note>
            <backup>
                <duration>8</duration>
            </backup>
            <note default-y="-249.49" default-x="21.72" dynamics="88.89">
                <pitch>
                    <step>C</step>
                    <octave>4</octave>
                </pitch>
                <duration>4</duration>
                <voice>5</voice>
                <type>half</type>
                <stem>up</stem>
                <staff>2</staff>
            </note>
            <note default-y="-254.49" default-x="129.60" dynamics="88.89">
                <pitch>
                    <step>B</step>
                    <octave>3</octave>
                </pitch>
                <duration>4</duration>
                <voice>5</voice>
                <type>half</type>
                <stem>up</stem>
                <staff>2</staff>
            </note>
        </measure>
        <measure width="407.14" number="3">
            <harmony print-frame="no">
                <root>
                    <root-step>C</root-step>
                </root>
                <kind text="">major</kind>
                <staff>1</staff>
            </harmony>
            <note default-y="-50.00" default-x="37.71" dynamics="88.89">
                <pitch>
                    <step>C</step>
                    <octave>4</octave>
                </pitch>
                <duration>2</duration>
                <voice>1</voice>
                <type>quarter</type>
                <stem>up</stem>
                <staff>1</staff>
                <lyric number="1">
                    <syllabic>single</syllabic>
                    <text>kommt</text>
                </lyric>
                <lyric number="2">
                    <syllabic>single</syllabic>
                    <text>ein</text>
                </lyric>
                <lyric number="3">
                    <syllabic>single</syllabic>
                    <text>still</text>
                </lyric>
            </note>
            <note default-y="-45.00" default-x="124.26" dynamics="88.89">
                <pitch>
                    <step>D</step>
                    <octave>4</octave>
                </pitch>
                <duration>1</duration>
                <voice>1</voice>
                <type>eighth</type>
                <stem>up</stem>
                <staff>1</staff>
                <beam number="1">begin</beam>
                <lyric number="1">
                    <syllabic>end</syllabic>
                    <text>das__</text>
                </lyric>
                <lyric number="2">
                    <syllabic>single</syllabic>
                    <text>in__</text>
                </lyric>
                <lyric number="3">
                    <syllabic>single</syllabic>
                    <text>und__</text>
                </lyric>
            </note>
            <note default-y="-40.00" default-x="178.35" dynamics="88.89">
                <pitch>
                    <step>E</step>
                    <octave>4</octave>
                </pitch>
                <duration>1</duration>
                <voice>1</voice>
                <type>eighth</type>
                <stem>up</stem>
                <staff>1</staff>
                <beam number="1">end</beam>
            </note>
            <harmony print-frame="no">
                <root>
                    <root-step>G</root-step>
                </root>
                <kind text="7">dominant</kind>
                <staff>1</staff>
            </harmony>
            <note default-y="-35.00" default-x="232.44" dynamics="88.89">
                <pitch>
                    <step>F</step>
                    <octave>4</octave>
                </pitch>
                <duration>2</duration>
                <voice>1</voice>
                <type>quarter</type>
                <stem>up</stem>
                <staff>1</staff>
                <lyric number="1">
                    <syllabic>middle</syllabic>
                    <text>Chris</text>
                </lyric>
                <lyric number="2">
                    <syllabic>single</syllabic>
                    <text>je</text>
                </lyric>
                <lyric number="3">
                    <syllabic>begin</syllabic>
                    <text>un</text>
                </lyric>
            </note>
            <harmony print-frame="no">
                <root>
                    <root-step>C</root-step>
                </root>
                <kind text="">major</kind>
                <staff>1</staff>
            </harmony>
            <note default-y="-40.00" default-x="318.99" dynamics="88.89">
                <pitch>
                    <step>E</step>
                    <octave>4</octave>
                </pitch>
                <duration>2</duration>
                <voice>1</voice>
                <type>quarter</type>
                <stem>up</stem>
                <staff>1</staff>
                <lyric number="1">
                    <syllabic>end</syllabic>
                    <text>tus</text>
                </lyric>
                <lyric number="2">
                    <syllabic>single</syllabic>
                    <text>des</text>
                </lyric>
                <lyric number="3">
                    <syllabic>middle</syllabic>
                    <text>er</text>
                </lyric>
            </note>
            <backup>
                <duration>8</duration>
            </backup>
            <note default-y="-264.49" default-x="37.71" dynamics="88.89">
                <pitch>
                    <step>G</step>
                    <octave>3</octave>
                </pitch>
                <duration>2</duration>
                <voice>5</voice>
                <type>quarter</type>
                <stem>up</stem>
                <staff>2</staff>
            </note>
            <note default-y="-264.49" default-x="124.26" dynamics="88.89">
                <pitch>
                    <step>G</step>
                    <octave>3</octave>
                </pitch>
                <duration>1</duration>
                <voice>5</voice>
                <type>eighth</type>
                <stem>up</stem>
                <staff>2</staff>
                <beam number="1">begin</beam>
            </note>
            <note default-y="-249.49" default-x="178.35" dynamics="88.89">
                <pitch>
                    <step>C</step>
                    <octave>4</octave>
                </pitch>
                <duration>1</duration>
                <voice>5</voice>
                <type>eighth</type>
                <stem>up</stem>
                <staff>2</staff>
                <beam number="1">end</beam>
            </note>
            <note default-y="-244.49" default-x="232.44" dynamics="88.89">
                <pitch>
                    <step>D</step>
                    <octave>4</octave>
                </pitch>
                <duration>2</duration>
                <voice>5</voice>
                <type>quarter</type>
                <stem>up</stem>
                <staff>2</staff>
            </note>
            <note default-y="-249.49" default-x="318.99" dynamics="88.89">
                <pitch>
                    <step>C</step>
                    <octave>4</octave>
                </pitch>
                <duration>2</duration>
                <voice>5</voice>
                <type>quarter</type>
                <stem>up</stem>
                <staff>2</staff>
            </note>
        </measure>
        <measure width="340.48" number="4">
            <print new-system="yes">
                <system-layout>
                    <system-margins>
                        <left-margin>0.00</left-margin>
                        <right-margin>0.00</right-margin>
                    </system-margins>
                    <system-distance>212.37</system-distance>
                </system-layout>
                <staff-layout number="2">
                    <staff-distance>159.49</staff-distance>
                </staff-layout>
            </print>
            <harmony print-frame="no">
                <root>
                    <root-step>G</root-step>
                </root>
                <kind text="">major</kind>
                <staff>1</staff>
            </harmony>
            <note default-y="-45.00" default-x="83.09">
                <pitch>
                    <step>D</step>
                    <octave>4</octave>
                </pitch>
                <duration>6</duration>
                <voice>1</voice>
                <type>half</type>
                <dot/>
                <stem>up</stem>
                <staff>1</staff>
                <lyric number="1">
                    <syllabic>single</syllabic>
                    <text>Kind</text>
                </lyric>
                <lyric number="2">
                    <syllabic>single</syllabic>
                    <text>Haus,</text>
                </lyric>
                <lyric number="3">
                    <syllabic>end</syllabic>
                    <text>kannt,</text>
                </lyric>
            </note>
            <note>
                <rest/>
                <duration>2</duration>
                <voice>1</voice>
                <type>quarter</type>
                <staff>1</staff>
            </note>
            <backup>
                <duration>8</duration>
            </backup>
            <note default-y="-254.49" default-x="83.09">
                <pitch>
                    <step>B</step>
                    <octave>3</octave>
                </pitch>
                <duration>6</duration>
                <voice>5</voice>
                <type>half</type>
                <dot/>
                <stem>up</stem>
                <staff>2</staff>
            </note>
            <note>
                <rest/>
                <duration>2</duration>
                <voice>5</voice>
                <type>quarter</type>
                <staff>2</staff>
            </note>
        </measure>
        <measure width="393.88" number="5">
            <harmony print-frame="no">
                <root>
                    <root-step>C</root-step>
                </root>
                <kind text="">major</kind>
                <staff>1</staff>
            </harmony>
            <note default-y="-40.00" default-x="24.92" dynamics="88.89">
                <pitch>
                    <step>E</step>
                    <octave>4</octave>
                </pitch>
                <duration>2</duration>
                <voice>1</voice>
                <type>quarter</type>
                <stem>up</stem>
                <staff>1</staff>
                <lyric number="1">
                    <syllabic>single</syllabic>
                    <text>Auf</text>
                </lyric>
                <lyric number="2">
                    <syllabic>single</syllabic>
                    <text>geht</text>
                </lyric>
                <lyric number="3">
                    <syllabic>single</syllabic>
                    <text>daß</text>
                </lyric>
            </note>
            <note default-y="-30.00" default-x="116.76" dynamics="88.89">
                <pitch>
                    <step>G</step>
                    <octave>4</octave>
                </pitch>
                <duration>2</duration>
                <voice>1</voice>
                <type>quarter</type>
                <stem>up</stem>
                <staff>1</staff>
                <lyric number="1">
                    <syllabic>single</syllabic>
                    <text>die</text>
                </lyric>
                <lyric number="2">
                    <syllabic>single</syllabic>
                    <text>auf</text>
                </lyric>
                <lyric number="3">
                    <syllabic>single</syllabic>
                    <text>es</text>
                </lyric>
            </note>
            <harmony print-frame="no">
                <root>
                    <root-step>F</root-step>
                </root>
                <kind text="">major</kind>
                <staff>1</staff>
            </harmony>
            <note default-y="-25.00" default-x="208.60" dynamics="88.89">
                <pitch>
                    <step>A</step>
                    <octave>4</octave>
                </pitch>
                <duration>2</duration>
                <voice>1</voice>
                <type>quarter</type>
                <stem>up</stem>
                <staff>1</staff>
                <lyric number="1">
                    <syllabic>begin</syllabic>
                    <text>Er</text>
                </lyric>
                <lyric number="2">
                    <syllabic>begin</syllabic>
                    <text>al</text>
                </lyric>
                <lyric number="3">
                    <syllabic>single</syllabic>
                    <text>treu</text>
                </lyric>
            </note>
            <harmony print-frame="no">
                <root>
                    <root-step>C</root-step>
                </root>
                <kind text="">major</kind>
                <staff>1</staff>
            </harmony>
            <note default-y="-30.00" default-x="300.44" dynamics="88.89">
                <pitch>
                    <step>G</step>
                    <octave>4</octave>
                </pitch>
                <duration>2</duration>
                <voice>1</voice>
                <type>quarter</type>
                <stem>up</stem>
                <staff>1</staff>
                <lyric number="1">
                    <syllabic>end</syllabic>
                    <text>de</text>
                </lyric>
                <lyric number="2">
                    <syllabic>end</syllabic>
                    <text>len</text>
                </lyric>
                <lyric number="3">
                    <syllabic>single</syllabic>
                    <text>mich</text>
                </lyric>
            </note>
            <backup>
                <duration>8</duration>
            </backup>
            <note default-y="-249.49" default-x="24.92" dynamics="88.89">
                <pitch>
                    <step>C</step>
                    <octave>4</octave>
                </pitch>
                <duration>2</duration>
                <voice>5</voice>
                <type>quarter</type>
                <stem>up</stem>
                <staff>2</staff>
            </note>
            <note default-y="-239.49" default-x="116.76" dynamics="88.89">
                <pitch>
                    <step>E</step>
                    <octave>4</octave>
                </pitch>
                <duration>2</duration>
                <voice>5</voice>
                <type>quarter</type>
                <stem>up</stem>
                <staff>2</staff>
            </note>
            <note default-y="-249.49" default-x="208.60" dynamics="88.89">
                <pitch>
                    <step>C</step>
                    <octave>4</octave>
                </pitch>
                <duration>2</duration>
                <voice>5</voice>
                <type>quarter</type>
                <stem>up</stem>
                <staff>2</staff>
            </note>
            <note default-y="-239.49" default-x="300.44" dynamics="88.89">
                <pitch>
                    <step>E</step>
                    <octave>4</octave>
                </pitch>
                <duration>2</duration>
                <voice>5</voice>
                <type>quarter</type>
                <stem>up</stem>
                <staff>2</staff>
            </note>
        </measure>
        <measure width="342.74" number="6">
            <harmony print-frame="no">
                <root>
                    <root-step>F</root-step>
                </root>
                <kind text="">major</kind>
                <staff>1</staff>
            </harmony>
            <note default-y="-15.00" default-x="20.24" dynamics="88.89">
                <pitch>
                    <step>C</step>
                    <octave>5</octave>
                </pitch>
                <duration>4</duration>
                <voice>1</voice>
                <type>half</type>
                <stem>down</stem>
                <staff>1</staff>
                <lyric number="1">
                    <syllabic>begin</syllabic>
                    <text>nie</text>
                </lyric>
                <lyric number="2">
                    <syllabic>begin</syllabic>
                    <text>We</text>
                </lyric>
                <lyric number="3">
                    <syllabic>begin</syllabic>
                    <text>lei</text>
                </lyric>
            </note>
            <harmony print-frame="no">
                <root>
                    <root-step>G</root-step>
                </root>
                <kind text="7">dominant</kind>
                <staff>1</staff>
            </harmony>
            <note default-y="-20.00" default-x="162.86" dynamics="88.89">
                <pitch>
                    <step>B</step>
                    <octave>4</octave>
                </pitch>
                <duration>2</duration>
                <voice>1</voice>
                <type>quarter</type>
                <stem>down</stem>
                <staff>1</staff>
                <lyric number="1">
                    <syllabic>end</syllabic>
                    <text>der___</text>
                </lyric>
                <lyric number="2">
                    <syllabic>end</syllabic>
                    <text>gen___</text>
                </lyric>
                <lyric number="3">
                    <syllabic>end</syllabic>
                    <text>te___</text>
                </lyric>
            </note>
            <note default-y="-25.00" default-x="252.00" dynamics="88.89">
                <pitch>
                    <step>A</step>
                    <octave>4</octave>
                </pitch>
                <duration>2</duration>
                <voice>1</voice>
                <type>quarter</type>
                <stem>up</stem>
                <staff>1</staff>
            </note>
            <backup>
                <duration>8</duration>
            </backup>
            <note default-y="-224.49" default-x="20.24" dynamics="88.89">
                <pitch>
                    <step>A</step>
                    <octave>4</octave>
                </pitch>
                <duration>4</duration>
                <voice>5</voice>
                <type>half</type>
                <stem>up</stem>
                <staff>2</staff>
            </note>
            <note default-y="-229.49" default-x="162.86" dynamics="88.89">
                <pitch>
                    <step>G</step>
                    <octave>4</octave>
                </pitch>
                <duration>2</duration>
                <voice>5</voice>
                <type>quarter</type>
                <stem>up</stem>
                <staff>2</staff>
            </note>
            <note default-y="-234.49" default-x="252.00" dynamics="88.89">
                <pitch>
                    <step>F</step>
                    <octave>4</octave>
                </pitch>
                <duration>2</duration>
                <voice>5</voice>
                <type>quarter</type>
                <stem>up</stem>
                <staff>2</staff>
            </note>
        </measure>
        <measure width="643.77" number="7">
            <print new-system="yes">
                <system-layout>
                    <system-margins>
                        <left-margin>0.00</left-margin>
                        <right-margin>0.00</right-margin>
                    </system-margins>
                    <system-distance>212.37</system-distance>
                </system-layout>
                <staff-layout number="2">
                    <staff-distance>159.49</staff-distance>
                </staff-layout>
            </print>
            <harmony print-frame="no">
                <root>
                    <root-step>C</root-step>
                </root>
                <kind text="">major</kind>
                <staff>1</staff>
            </harmony>
            <note default-y="-30.00" default-x="70.00" dynamics="88.89">
                <pitch>
                    <step>G</step>
                    <octave>4</octave>
                </pitch>
                <duration>2</duration>
                <voice>1</voice>
                <type>quarter</type>
                <stem>up</stem>
                <staff>1</staff>
                <lyric number="1">
                    <syllabic>single</syllabic>
                    <text>wo</text>
                </lyric>
                <lyric number="2">
                    <syllabic>single</syllabic>
                    <text>mit</text>
                </lyric>
                <lyric number="3">
                    <syllabic>single</syllabic>
                    <text>an</text>
                </lyric>
            </note>
            <note default-y="-35.00" default-x="204.63" dynamics="88.89">
                <pitch>
                    <step>F</step>
                    <octave>4</octave>
                </pitch>
                <duration>1</duration>
                <voice>1</voice>
                <type>eighth</type>
                <stem>up</stem>
                <staff>1</staff>
                <beam number="1">begin</beam>
                <lyric number="1">
                    <syllabic>single</syllabic>
                    <text>wir___</text>
                </lyric>
                <lyric number="2">
                    <syllabic>single</syllabic>
                    <text>uns___</text>
                </lyric>
                <lyric number="3">
                    <syllabic>single</syllabic>
                    <text>der___</text>
                </lyric>
            </note>
            <note default-y="-40.00" default-x="288.77" dynamics="88.89">
                <pitch>
                    <step>E</step>
                    <octave>4</octave>
                </pitch>
                <duration>1</duration>
                <voice>1</voice>
                <type>eighth</type>
                <stem>up</stem>
                <staff>1</staff>
                <beam number="1">end</beam>
            </note>
            <harmony print-frame="no">
                <root>
                    <root-step>G</root-step>
                </root>
                <kind text="7">dominant</kind>
                <staff>1</staff>
            </harmony>
            <note default-y="-35.00" default-x="372.91" dynamics="88.89">
                <pitch>
                    <step>F</step>
                    <octave>4</octave>
                </pitch>
                <duration>2</duration>
                <voice>1</voice>
                <type>quarter</type>
                <stem>up</stem>
                <staff>1</staff>
                <lyric number="1">
                    <syllabic>begin</syllabic>
                    <text>Men</text>
                </lyric>
                <lyric number="2">
                    <syllabic>single</syllabic>
                    <text>ein</text>
                </lyric>
                <lyric number="3">
                    <syllabic>begin</syllabic>
                    <text>lie</text>
                </lyric>
            </note>
            <note default-y="-30.00" default-x="507.54" dynamics="88.89">
                <pitch>
                    <step>G</step>
                    <octave>4</octave>
                </pitch>
                <duration>2</duration>
                <voice>1</voice>
                <type>quarter</type>
                <stem>up</stem>
                <staff>1</staff>
                <lyric number="1">
                    <syllabic>end</syllabic>
                    <text>schen</text>
                </lyric>
                <lyric number="2">
                    <syllabic>single</syllabic>
                    <text>und</text>
                </lyric>
                <lyric number="3">
                    <syllabic>end</syllabic>
                    <text>ben</text>
                </lyric>
            </note>
            <backup>
                <duration>8</duration>
            </backup>
            <note default-y="-239.49" default-x="70.00" dynamics="88.89">
                <pitch>
                    <step>E</step>
                    <octave>4</octave>
                </pitch>
                <duration>2</duration>
                <voice>5</voice>
                <type>quarter</type>
                <stem>up</stem>
                <staff>2</staff>
            </note>
            <note default-y="-244.49" default-x="204.63" dynamics="88.89">
                <pitch>
                    <step>D</step>
                    <octave>4</octave>
                </pitch>
                <duration>1</duration>
                <voice>5</voice>
                <type>eighth</type>
                <stem>up</stem>
                <staff>2</staff>
                <beam number="1">begin</beam>
            </note>
            <note default-y="-249.49" default-x="288.77" dynamics="88.89">
                <pitch>
                    <step>C</step>
                    <octave>4</octave>
                </pitch>
                <duration>1</duration>
                <voice>5</voice>
                <type>eighth</type>
                <stem>up</stem>
                <staff>2</staff>
                <beam number="1">end</beam>
            </note>
            <note default-y="-254.49" default-x="372.91" dynamics="88.89">
                <pitch>
                    <step>B</step>
                    <octave>3</octave>
                </pitch>
                <duration>2</duration>
                <voice>5</voice>
                <type>quarter</type>
                <stem>up</stem>
                <staff>2</staff>
            </note>
            <note default-y="-244.49" default-x="507.54" dynamics="88.89">
                <pitch>
                    <step>D</step>
                    <octave>4</octave>
                </pitch>
                <duration>2</duration>
                <voice>5</voice>
                <type>quarter</type>
                <stem>up</stem>
                <staff>2</staff>
            </note>
        </measure>
        <measure width="433.33" number="8">
            <harmony print-frame="no">
                <root>
                    <root-step>C</root-step>
                </root>
                <kind text="">major</kind>
                <staff>1</staff>
            </harmony>
            <note default-y="-40.00" default-x="32.90">
                <pitch>
                    <step>E</step>
                    <octave>4</octave>
                </pitch>
                <duration>6</duration>
                <voice>1</voice>
                <type>half</type>
                <dot/>
                <stem>up</stem>
                <staff>1</staff>
                <lyric number="1">
                    <syllabic>single</syllabic>
                    <text>sind.</text>
                </lyric>
                <lyric number="2">
                    <syllabic>single</syllabic>
                    <text>aus.</text>
                </lyric>
                <lyric number="3">
                    <syllabic>single</syllabic>
                    <text>Hand.</text>
                </lyric>
            </note>
            <note>
                <rest/>
                <duration>2</duration>
                <voice>1</voice>
                <type>quarter</type>
                <staff>1</staff>
            </note>
            <backup>
                <duration>8</duration>
            </backup>
            <note default-y="-249.49" default-x="32.90">
                <pitch>
                    <step>C</step>
                    <octave>4</octave>
                </pitch>
                <duration>6</duration>
                <voice>5</voice>
                <type>half</type>
                <dot/>
                <stem>up</stem>
                <staff>2</staff>
            </note>
            <note>
                <rest/>
                <duration>2</duration>
                <voice>5</voice>
                <type>quarter</type>
                <staff>2</staff>
            </note>
        </measure>
    </part>
</score-partwise>
