<?xml version="1.0" encoding="UTF-8"?>
<!DOCTYPE score-partwise PUBLIC "-//Recordare//DTD MusicXML 2.0 Partwise//EN" "http://www.musicxml.org/dtds/partwise.dtd">
<score-partwise version="2.0">
    <work>
        <work-number></work-number>
        <work-title></work-title>
    </work>
    <movement-number></movement-number>
    <movement-title>Es wird scho glei dumpa</movement-title>
    <identification>
        <creator type="composer">Volksweise aus Tirol</creator>
        <creator type="poet">Volksweise aus Tirol</creator>
        <rights>All Rights Reserved</rights>
        <encoding>
            <software>MuseScore 1.2</software>
            <encoding-date>2012-12-18</encoding-date>
            <software>ProxyMusic 2.0 c</software>
        </encoding>
        <source>http://wikifonia.org/node/19582/revisions/25854/view</source>
    </identification>
    <defaults>
        <scaling>
            <millimeters>7.056</millimeters>
            <tenths>40</tenths>
        </scaling>
        <page-layout>
            <page-height>1683.67</page-height>
            <page-width>1190.48</page-width>
            <page-margins type="even">
                <left-margin>56.6893</left-margin>
                <right-margin>56.6893</right-margin>
                <top-margin>56.6893</top-margin>
                <bottom-margin>113.379</bottom-margin>
            </page-margins>
            <page-margins type="odd">
                <left-margin>56.6893</left-margin>
                <right-margin>56.6893</right-margin>
                <top-margin>56.6893</top-margin>
                <bottom-margin>113.379</bottom-margin>
            </page-margins>
        </page-layout>
    </defaults>
    <credit page="1">
        <credit-words font-size="24" default-y="1626.98" default-x="595.238" justify="center" valign="top">Es wird scho glei dumpa</credit-words>
    </credit>
    <credit page="1">
        <credit-words font-size="12" default-y="1559.98" default-x="1133.79" justify="right" valign="top">Volksweise aus Tirol</credit-words>
    </credit>
    <part-list>
        <score-part id="P1">
            <part-name></part-name>
            <score-instrument id="P1-I3">
                <instrument-name></instrument-name>
            </score-instrument>
            <midi-instrument id="P1-I3">
                <midi-channel>1</midi-channel>
                <midi-program>1</midi-program>
                <volume>78.7402</volume>
                <pan>0</pan>
            </midi-instrument>
        </score-part>
    </part-list>
    <part id="P1">
        <measure width="183.10" number="0" implicit="yes">
            <print>
                <system-layout>
                    <system-margins>
                        <left-margin>18.00</left-margin>
                        <right-margin>0.00</right-margin>
                    </system-margins>
                    <top-system-distance>167.41</top-system-distance>
                </system-layout>
                <staff-layout number="2">
                    <staff-distance>159.49</staff-distance>
                </staff-layout>
            </print>
            <attributes>
                <divisions>2</divisions>
                <key>
                    <fifths>2</fifths>
                    <mode>major</mode>
                </key>
                <time>
                    <beats>3</beats>
                    <beat-type>4</beat-type>
                </time>
                <staves>2</staves>
                <clef number="1">
                    <sign>G</sign>
                    <line>2</line>
                </clef>
            </attributes>
            <note default-y="-60.00" default-x="131.67" dynamics="71.11">
                <pitch>
                    <step>A</step>
                    <octave>3</octave>
                </pitch>
                <duration>2</duration>
                <voice>1</voice>
                <type>quarter</type>
                <stem>up</stem>
                <staff>1</staff>
                <lyric number="1">
                    <syllabic>single</syllabic>
                    <text>Es</text>
                </lyric>
                <lyric number="2">
                    <syllabic>begin</syllabic>
                    <text>Ver</text>
                </lyric>
                <lyric number="3">
                    <syllabic>single</syllabic>
                    <text>Schließ</text>
                </lyric>
            </note>
            <backup>
                <duration>2</duration>
            </backup>
            <note default-y="-259.49" default-x="131.67" dynamics="71.11">
                <pitch>
                    <step>A</step>
                    <octave>3</octave>
                </pitch>
                <duration>2</duration>
                <voice>5</voice>
                <type>quarter</type>
                <stem>up</stem>
                <staff>2</staff>
            </note>
        </measure>
        <measure width="163.94" number="1">
            <harmony relative-x="10.00" print-frame="no">
                <root>
                    <root-step>D</root-step>
                </root>
                <kind text="">major</kind>
                <staff>1</staff>
            </harmony>
            <note default-y="-45.00" default-x="25.59" dynamics="71.11">
                <pitch>
                    <step>D</step>
                    <octave>4</octave>
                </pitch>
                <duration>2</duration>
                <voice>1</voice>
                <type>quarter</type>
                <stem>up</stem>
                <staff>1</staff>
                <lyric number="1">
                    <syllabic>single</syllabic>
                    <text>wird</text>
                </lyric>
                <lyric number="2">
                    <syllabic>end</syllabic>
                    <text>giß</text>
                </lyric>
                <lyric number="3">
                    <syllabic>single</syllabic>
                    <text>zu</text>
                </lyric>
            </note>
            <note default-y="-45.00" default-x="74.79" dynamics="71.11">
                <pitch>
                    <step>D</step>
                    <octave>4</octave>
                </pitch>
                <duration>2</duration>
                <voice>1</voice>
                <type>quarter</type>
                <stem>up</stem>
                <staff>1</staff>
                <lyric number="1">
                    <syllabic>single</syllabic>
                    <text>scho</text>
                </lyric>
                <lyric number="2">
                    <syllabic>single</syllabic>
                    <text>jetzt</text>
                </lyric>
                <lyric number="3">
                    <syllabic>begin</syllabic>
                    <text>dei</text>
                </lyric>
            </note>
            <harmony relative-x="10.00" print-frame="no">
                <root>
                    <root-step>A</root-step>
                </root>
                <kind text="">major</kind>
                <staff>1</staff>
            </harmony>
            <note default-y="-40.00" default-x="120.15" dynamics="71.11">
                <pitch>
                    <step>E</step>
                    <octave>4</octave>
                </pitch>
                <duration>2</duration>
                <voice>1</voice>
                <type>quarter</type>
                <stem>up</stem>
                <staff>1</staff>
                <lyric number="1">
                    <syllabic>single</syllabic>
                    <text>glei</text>
                </lyric>
                <lyric number="2">
                    <syllabic>single</syllabic>
                    <text>o</text>
                </lyric>
                <lyric number="3">
                    <syllabic>end</syllabic>
                    <text>ne</text>
                </lyric>
            </note>
            <backup>
                <duration>6</duration>
            </backup>
            <note default-y="-244.49" default-x="25.59" dynamics="71.11">
                <pitch>
                    <step>D</step>
                    <octave>4</octave>
                </pitch>
                <duration>2</duration>
                <voice>5</voice>
                <type>quarter</type>
                <stem>up</stem>
                <staff>2</staff>
            </note>
            <note default-y="-244.49" default-x="74.79" dynamics="71.11">
                <pitch>
                    <step>D</step>
                    <octave>4</octave>
                </pitch>
                <duration>2</duration>
                <voice>5</voice>
                <type>quarter</type>
                <stem>up</stem>
                <staff>2</staff>
            </note>
            <note default-y="-259.49" default-x="120.15" dynamics="71.11">
                <pitch>
                    <step>A</step>
                    <octave>3</octave>
                </pitch>
                <duration>2</duration>
                <voice>5</voice>
                <type>quarter</type>
                <stem>up</stem>
                <staff>2</staff>
            </note>
        </measure>
        <measure width="225.40" number="2">
            <harmony relative-x="10.00" print-frame="no">
                <root>
                    <root-step>D</root-step>
                </root>
                <kind text="">major</kind>
                <staff>1</staff>
            </harmony>
            <note default-y="-35.00" default-x="42.22" dynamics="71.11">
                <pitch>
                    <step>F</step>
                    <alter>1</alter>
                    <octave>4</octave>
                </pitch>
                <duration>1</duration>
                <voice>1</voice>
                <type>eighth</type>
                <stem>up</stem>
                <staff>1</staff>
                <beam number="1">begin</beam>
                <lyric number="1">
                    <syllabic>single</syllabic>
                    <text>dum___</text>
                </lyric>
                <lyric number="2">
                    <syllabic>single</syllabic>
                    <text>Kin___</text>
                </lyric>
                <lyric number="3">
                    <syllabic>single</syllabic>
                    <text>Äu__</text>
                </lyric>
            </note>
            <note default-y="-25.00" default-x="85.44" dynamics="71.11">
                <pitch>
                    <step>A</step>
                    <octave>4</octave>
                </pitch>
                <duration>1</duration>
                <voice>1</voice>
                <type>eighth</type>
                <stem>up</stem>
                <staff>1</staff>
                <beam number="1">end</beam>
            </note>
            <note default-y="-25.00" default-x="127.75">
                <pitch>
                    <step>A</step>
                    <octave>4</octave>
                </pitch>
                <duration>3</duration>
                <voice>1</voice>
                <type>quarter</type>
                <dot/>
                <stem>up</stem>
                <staff>1</staff>
                <lyric number="1">
                    <syllabic>single</syllabic>
                    <text>pa</text>
                </lyric>
                <lyric number="2">
                    <syllabic>single</syllabic>
                    <text>derl</text>
                </lyric>
                <lyric number="3">
                    <syllabic>single</syllabic>
                    <text>gerln</text>
                </lyric>
            </note>
            <note default-y="-30.00" default-x="191.25" dynamics="71.11">
                <pitch>
                    <step>G</step>
                    <octave>4</octave>
                </pitch>
                <duration>1</duration>
                <voice>1</voice>
                <type>eighth</type>
                <stem>up</stem>
                <staff>1</staff>
                <lyric number="1">
                    <syllabic>single</syllabic>
                    <text>es</text>
                </lyric>
                <lyric number="2">
                    <syllabic>single</syllabic>
                    <text>dein</text>
                </lyric>
                <lyric number="3">
                    <syllabic>single</syllabic>
                    <text>in</text>
                </lyric>
            </note>
            <backup>
                <duration>6</duration>
            </backup>
            <note default-y="-244.49" default-x="42.22" dynamics="71.11">
                <pitch>
                    <step>D</step>
                    <octave>4</octave>
                </pitch>
                <duration>1</duration>
                <voice>5</voice>
                <type>eighth</type>
                <stem>up</stem>
                <staff>2</staff>
                <beam number="1">begin</beam>
            </note>
            <note default-y="-234.49" default-x="85.44" dynamics="71.11">
                <pitch>
                    <step>F</step>
                    <alter>1</alter>
                    <octave>4</octave>
                </pitch>
                <duration>1</duration>
                <voice>5</voice>
                <type>eighth</type>
                <stem>up</stem>
                <staff>2</staff>
                <beam number="1">end</beam>
            </note>
            <note default-y="-234.49" default-x="127.75">
                <pitch>
                    <step>F</step>
                    <alter>1</alter>
                    <octave>4</octave>
                </pitch>
                <duration>3</duration>
                <voice>5</voice>
                <type>quarter</type>
                <dot/>
                <stem>up</stem>
                <staff>2</staff>
            </note>
            <note default-y="-239.49" default-x="191.25" dynamics="71.11">
                <pitch>
                    <step>E</step>
                    <octave>4</octave>
                </pitch>
                <duration>1</duration>
                <voice>5</voice>
                <type>eighth</type>
                <stem>up</stem>
                <staff>2</staff>
            </note>
        </measure>
        <measure width="170.33" number="3">
            <note default-y="-35.00" default-x="28.79">
                <pitch>
                    <step>F</step>
                    <alter>1</alter>
                    <octave>4</octave>
                </pitch>
                <duration>2</duration>
                <voice>1</voice>
                <type>quarter</type>
                <stem>up</stem>
                <staff>1</staff>
                <lyric number="1">
                    <syllabic>single</syllabic>
                    <text>wird</text>
                </lyric>
                <lyric number="2">
                    <syllabic>begin</syllabic>
                    <text>Kum</text>
                </lyric>
                <lyric number="3">
                    <syllabic>single</syllabic>
                    <text>Ruah</text>
                </lyric>
            </note>
            <note default-y="-35.00" default-x="81.19" dynamics="71.11">
                <pitch>
                    <step>F</step>
                    <alter>1</alter>
                    <octave>4</octave>
                </pitch>
                <duration>2</duration>
                <voice>1</voice>
                <type>quarter</type>
                <stem>up</stem>
                <staff>1</staff>
                <lyric number="1">
                    <syllabic>single</syllabic>
                    <text>scho</text>
                </lyric>
                <lyric number="2">
                    <syllabic>end</syllabic>
                    <text>mer</text>
                </lyric>
                <lyric number="3">
                    <syllabic>single</syllabic>
                    <text>und</text>
                </lyric>
            </note>
            <harmony relative-x="10.00" print-frame="no">
                <root>
                    <root-step>A</root-step>
                </root>
                <kind text="">major</kind>
                <staff>1</staff>
            </harmony>
            <note default-y="-40.00" default-x="126.55">
                <pitch>
                    <step>E</step>
                    <octave>4</octave>
                </pitch>
                <duration>2</duration>
                <voice>1</voice>
                <type>quarter</type>
                <stem>up</stem>
                <staff>1</staff>
                <lyric number="1">
                    <syllabic>single</syllabic>
                    <text>glei</text>
                </lyric>
                <lyric number="2">
                    <syllabic>single</syllabic>
                    <text>dei</text>
                </lyric>
                <lyric number="3">
                    <syllabic>single</syllabic>
                    <text>in</text>
                </lyric>
            </note>
            <backup>
                <duration>6</duration>
            </backup>
            <note default-y="-244.49" default-x="28.79" dynamics="71.11">
                <pitch>
                    <step>D</step>
                    <octave>4</octave>
                </pitch>
                <duration>2</duration>
                <voice>5</voice>
                <type>quarter</type>
                <stem>up</stem>
                <staff>2</staff>
            </note>
            <note default-y="-244.49" default-x="81.19" dynamics="71.11">
                <pitch>
                    <step>D</step>
                    <octave>4</octave>
                </pitch>
                <duration>2</duration>
                <voice>5</voice>
                <type>quarter</type>
                <stem>up</stem>
                <staff>2</staff>
            </note>
            <note default-y="-259.49" default-x="126.55" dynamics="71.11">
                <pitch>
                    <step>A</step>
                    <octave>3</octave>
                </pitch>
                <duration>2</duration>
                <voice>5</voice>
                <type>quarter</type>
                <stem>up</stem>
                <staff>2</staff>
            </note>
        </measure>
        <measure width="156.23" number="4">
            <harmony relative-x="10.00" print-frame="no">
                <root>
                    <root-step>D</root-step>
                </root>
                <kind text="">major</kind>
                <staff>1</staff>
            </harmony>
            <note default-y="-45.00" default-x="34.85" dynamics="88.89">
                <pitch>
                    <step>D</step>
                    <octave>4</octave>
                </pitch>
                <duration>4</duration>
                <voice>1</voice>
                <type>half</type>
                <stem>up</stem>
                <staff>1</staff>
                <lyric number="1">
                    <syllabic>single</syllabic>
                    <text>Nacht,</text>
                </lyric>
                <lyric number="2">
                    <syllabic>single</syllabic>
                    <text>Load.</text>
                </lyric>
                <lyric number="3">
                    <syllabic>single</syllabic>
                    <text>Fried</text>
                </lyric>
            </note>
            <note default-y="-60.00" default-x="108.56">
                <pitch>
                    <step>A</step>
                    <octave>3</octave>
                </pitch>
                <duration>2</duration>
                <voice>1</voice>
                <type>quarter</type>
                <stem>up</stem>
                <staff>1</staff>
                <lyric number="1">
                    <syllabic>single</syllabic>
                    <text>drum</text>
                </lyric>
                <lyric number="2">
                    <syllabic>single</syllabic>
                    <text>Daß´d</text>
                </lyric>
                <lyric number="3">
                    <syllabic>single</syllabic>
                    <text>und</text>
                </lyric>
            </note>
            <backup>
                <duration>6</duration>
            </backup>
            <note default-y="-259.49" default-x="34.85" dynamics="71.11">
                <pitch>
                    <step>A</step>
                    <octave>3</octave>
                </pitch>
                <duration>4</duration>
                <voice>5</voice>
                <type>half</type>
                <stem>up</stem>
                <staff>2</staff>
            </note>
            <note default-y="-259.49" default-x="108.56">
                <pitch>
                    <step>A</step>
                    <octave>3</octave>
                </pitch>
                <duration>2</duration>
                <voice>5</voice>
                <type>quarter</type>
                <stem>up</stem>
                <staff>2</staff>
            </note>
        </measure>
        <measure width="160.09" number="5">
            <harmony relative-x="10.00" print-frame="no">
                <root>
                    <root-step>D</root-step>
                </root>
                <kind text="">major</kind>
                <staff>1</staff>
            </harmony>
            <note default-y="-45.00" default-x="31.36" dynamics="71.11">
                <pitch>
                    <step>D</step>
                    <octave>4</octave>
                </pitch>
                <duration>2</duration>
                <voice>1</voice>
                <type>quarter</type>
                <stem>up</stem>
                <staff>1</staff>
                <lyric number="1">
                    <syllabic>single</syllabic>
                    <text>kimm</text>
                </lyric>
                <lyric number="2">
                    <syllabic>single</syllabic>
                    <text>do</text>
                </lyric>
                <lyric number="3">
                    <syllabic>single</syllabic>
                    <text>gib</text>
                </lyric>
            </note>
            <note default-y="-45.00" default-x="79.92" dynamics="71.11">
                <pitch>
                    <step>D</step>
                    <octave>4</octave>
                </pitch>
                <duration>2</duration>
                <voice>1</voice>
                <type>quarter</type>
                <stem>up</stem>
                <staff>1</staff>
                <lyric number="1">
                    <syllabic>single</syllabic>
                    <text>i</text>
                </lyric>
                <lyric number="2">
                    <syllabic>begin</syllabic>
                    <text>mu</text>
                </lyric>
                <lyric number="3">
                    <syllabic>single</syllabic>
                    <text>ma</text>
                </lyric>
            </note>
            <harmony relative-x="10.00" print-frame="no">
                <root>
                    <root-step>A</root-step>
                </root>
                <kind text="">major</kind>
                <staff>1</staff>
            </harmony>
            <note default-y="-40.00" default-x="119.21" dynamics="71.11">
                <pitch>
                    <step>E</step>
                    <octave>4</octave>
                </pitch>
                <duration>2</duration>
                <voice>1</voice>
                <type>quarter</type>
                <stem>up</stem>
                <staff>1</staff>
                <lyric number="1">
                    <syllabic>single</syllabic>
                    <text>zu</text>
                </lyric>
                <lyric number="2">
                    <syllabic>end</syllabic>
                    <text>ßt</text>
                </lyric>
                <lyric number="3">
                    <syllabic>single</syllabic>
                    <text>zan</text>
                </lyric>
            </note>
            <backup>
                <duration>6</duration>
            </backup>
            <note default-y="-244.49" default-x="31.36" dynamics="71.11">
                <pitch>
                    <step>D</step>
                    <octave>4</octave>
                </pitch>
                <duration>2</duration>
                <voice>5</voice>
                <type>quarter</type>
                <stem>up</stem>
                <staff>2</staff>
            </note>
            <note default-y="-244.49" default-x="79.92" dynamics="71.11">
                <pitch>
                    <step>D</step>
                    <octave>4</octave>
                </pitch>
                <duration>2</duration>
                <voice>5</voice>
                <type>quarter</type>
                <stem>up</stem>
                <staff>2</staff>
            </note>
            <note default-y="-259.49" default-x="119.21" dynamics="71.11">
                <pitch>
                    <step>A</step>
                    <octave>3</octave>
                </pitch>
                <duration>2</duration>
                <voice>5</voice>
                <type>quarter</type>
                <stem>up</stem>
                <staff>2</staff>
            </note>
        </measure>
        <measure width="307.43" number="6">
            <print new-system="yes">
                <system-layout>
                    <system-margins>
                        <left-margin>18.00</left-margin>
                        <right-margin>0.00</right-margin>
                    </system-margins>
                    <system-distance>129.41</system-distance>
                </system-layout>
                <staff-layout number="2">
                    <staff-distance>159.49</staff-distance>
                </staff-layout>
            </print>
            <harmony relative-x="10.00" print-frame="no">
                <root>
                    <root-step>D</root-step>
                </root>
                <kind text="">major</kind>
                <staff>1</staff>
            </harmony>
            <note default-y="-35.00" default-x="106.97" dynamics="71.11">
                <pitch>
                    <step>F</step>
                    <alter>1</alter>
                    <octave>4</octave>
                </pitch>
                <duration>1</duration>
                <voice>1</voice>
                <type>eighth</type>
                <stem>up</stem>
                <staff>1</staff>
                <beam number="1">begin</beam>
                <lyric number="1">
                    <syllabic>single</syllabic>
                    <text>dir___</text>
                </lyric>
                <lyric number="2">
                    <syllabic>single</syllabic>
                    <text>lie___</text>
                </lyric>
                <lyric number="3">
                    <syllabic>single</syllabic>
                    <text>Ab___</text>
                </lyric>
            </note>
            <note default-y="-25.00" default-x="145.14" dynamics="71.11">
                <pitch>
                    <step>A</step>
                    <octave>4</octave>
                </pitch>
                <duration>1</duration>
                <voice>1</voice>
                <type>eighth</type>
                <stem>up</stem>
                <staff>1</staff>
                <beam number="1">end</beam>
            </note>
            <note default-y="-25.00" default-x="193.21">
                <pitch>
                    <step>A</step>
                    <octave>4</octave>
                </pitch>
                <duration>3</duration>
                <voice>1</voice>
                <type>quarter</type>
                <dot/>
                <stem>up</stem>
                <staff>1</staff>
                <lyric number="1">
                    <syllabic>single</syllabic>
                    <text>her</text>
                </lyric>
                <lyric number="2">
                    <syllabic>single</syllabic>
                    <text>gn</text>
                </lyric>
                <lyric number="3">
                    <syllabic>single</syllabic>
                    <text>schied</text>
                </lyric>
            </note>
            <note default-y="-30.00" default-x="267.67" dynamics="71.11">
                <pitch>
                    <step>G</step>
                    <octave>4</octave>
                </pitch>
                <duration>1</duration>
                <voice>1</voice>
                <type>eighth</type>
                <stem>up</stem>
                <staff>1</staff>
                <lyric number="1">
                    <syllabic>single</syllabic>
                    <text>mein</text>
                </lyric>
                <lyric number="2">
                    <syllabic>single</syllabic>
                    <text>im</text>
                </lyric>
                <lyric number="3">
                    <syllabic>single</syllabic>
                    <text>dein</text>
                </lyric>
            </note>
            <backup>
                <duration>6</duration>
            </backup>
            <note default-y="-244.49" default-x="106.97" dynamics="71.11">
                <pitch>
                    <step>D</step>
                    <octave>4</octave>
                </pitch>
                <duration>1</duration>
                <voice>5</voice>
                <type>eighth</type>
                <stem>up</stem>
                <staff>2</staff>
                <beam number="1">begin</beam>
            </note>
            <note default-y="-234.49" default-x="145.14" dynamics="71.11">
                <pitch>
                    <step>F</step>
                    <alter>1</alter>
                    <octave>4</octave>
                </pitch>
                <duration>1</duration>
                <voice>5</voice>
                <type>eighth</type>
                <stem>up</stem>
                <staff>2</staff>
                <beam number="1">end</beam>
            </note>
            <note default-y="-234.49" default-x="193.21">
                <pitch>
                    <step>F</step>
                    <alter>1</alter>
                    <octave>4</octave>
                </pitch>
                <duration>3</duration>
                <voice>5</voice>
                <type>quarter</type>
                <dot/>
                <stem>up</stem>
                <staff>2</staff>
            </note>
            <note default-y="-239.49" default-x="267.67" dynamics="71.11">
                <pitch>
                    <step>E</step>
                    <octave>4</octave>
                </pitch>
                <duration>1</duration>
                <voice>5</voice>
                <type>eighth</type>
                <stem>up</stem>
                <staff>2</staff>
            </note>
        </measure>
        <measure width="189.68" number="7">
            <note default-y="-35.00" default-x="29.44">
                <pitch>
                    <step>F</step>
                    <alter>1</alter>
                    <octave>4</octave>
                </pitch>
                <duration>2</duration>
                <voice>1</voice>
                <type>quarter</type>
                <stem>up</stem>
                <staff>1</staff>
                <lyric number="1">
                    <syllabic>begin</syllabic>
                    <text>Hei</text>
                </lyric>
                <lyric number="2">
                    <syllabic>single</syllabic>
                    <text>Stroh</text>
                </lyric>
                <lyric number="3">
                    <syllabic>begin</syllabic>
                    <text>Se</text>
                </lyric>
            </note>
            <note default-y="-35.00" default-x="82.32" dynamics="71.11">
                <pitch>
                    <step>F</step>
                    <alter>1</alter>
                    <octave>4</octave>
                </pitch>
                <duration>2</duration>
                <voice>1</voice>
                <type>quarter</type>
                <stem>up</stem>
                <staff>1</staff>
                <lyric number="1">
                    <syllabic>end</syllabic>
                    <text>land</text>
                </lyric>
                <lyric number="2">
                    <syllabic>single</syllabic>
                    <text>auf</text>
                </lyric>
                <lyric number="3">
                    <syllabic>end</syllabic>
                    <text>gn</text>
                </lyric>
            </note>
            <harmony relative-x="10.00" print-frame="no">
                <root>
                    <root-step>A</root-step>
                </root>
                <kind text="">major</kind>
                <staff>1</staff>
            </harmony>
            <note default-y="-40.00" default-x="135.20">
                <pitch>
                    <step>E</step>
                    <octave>4</octave>
                </pitch>
                <duration>2</duration>
                <voice>1</voice>
                <type>quarter</type>
                <stem>up</stem>
                <staff>1</staff>
                <lyric number="1">
                    <syllabic>single</syllabic>
                    <text>auf´d</text>
                </lyric>
                <lyric number="2">
                    <syllabic>single</syllabic>
                    <text>da</text>
                </lyric>
                <lyric number="3">
                    <syllabic>single</syllabic>
                    <text>no</text>
                </lyric>
            </note>
            <backup>
                <duration>6</duration>
            </backup>
            <note default-y="-244.49" default-x="29.44" dynamics="71.11">
                <pitch>
                    <step>D</step>
                    <octave>4</octave>
                </pitch>
                <duration>2</duration>
                <voice>5</voice>
                <type>quarter</type>
                <stem>up</stem>
                <staff>2</staff>
            </note>
            <note default-y="-244.49" default-x="82.32" dynamics="71.11">
                <pitch>
                    <step>D</step>
                    <octave>4</octave>
                </pitch>
                <duration>2</duration>
                <voice>5</voice>
                <type>quarter</type>
                <stem>up</stem>
                <staff>2</staff>
            </note>
            <note default-y="-259.49" default-x="135.20" dynamics="71.11">
                <pitch>
                    <step>A</step>
                    <octave>3</octave>
                </pitch>
                <duration>2</duration>
                <voice>5</voice>
                <type>quarter</type>
                <stem>up</stem>
                <staff>2</staff>
            </note>
        </measure>
        <measure width="148.86" number="8">
            <harmony relative-x="10.00" print-frame="no">
                <root>
                    <root-step>D</root-step>
                </root>
                <kind text="">major</kind>
                <staff>1</staff>
            </harmony>
            <note default-y="-45.00" default-x="36.57" dynamics="88.89">
                <pitch>
                    <step>D</step>
                    <octave>4</octave>
                </pitch>
                <duration>4</duration>
                <voice>1</voice>
                <type>half</type>
                <stem>up</stem>
                <staff>1</staff>
                <lyric number="1">
                    <syllabic>single</syllabic>
                    <text>Wacht.</text>
                </lyric>
                <lyric number="2">
                    <syllabic>single</syllabic>
                    <text>Hoad.</text>
                </lyric>
                <lyric number="3">
                    <syllabic>single</syllabic>
                    <text>mit.</text>
                </lyric>
            </note>
            <note default-y="-25.00" default-x="104.69">
                <pitch>
                    <step>A</step>
                    <octave>4</octave>
                </pitch>
                <duration>2</duration>
                <voice>1</voice>
                <type>quarter</type>
                <stem>up</stem>
                <staff>1</staff>
                <lyric number="1">
                    <syllabic>single</syllabic>
                    <text>Will</text>
                </lyric>
                <lyric number="2">
                    <syllabic>single</syllabic>
                    <text>Es</text>
                </lyric>
                <lyric number="3">
                    <syllabic>single</syllabic>
                    <text>Aft</text>
                </lyric>
            </note>
            <backup>
                <duration>6</duration>
            </backup>
            <note default-y="-259.49" default-x="36.57" dynamics="71.11">
                <pitch>
                    <step>A</step>
                    <octave>3</octave>
                </pitch>
                <duration>4</duration>
                <voice>5</voice>
                <type>half</type>
                <stem>up</stem>
                <staff>2</staff>
            </note>
            <note default-y="-234.49" default-x="104.69">
                <pitch>
                    <step>F</step>
                    <alter>1</alter>
                    <octave>4</octave>
                </pitch>
                <duration>2</duration>
                <voice>5</voice>
                <type>quarter</type>
                <stem>up</stem>
                <staff>2</staff>
            </note>
        </measure>
        <measure width="165.38" number="9">
            <harmony relative-x="10.00" print-frame="no">
                <root>
                    <root-step>D</root-step>
                </root>
                <kind text="">major</kind>
                <staff>1</staff>
            </harmony>
            <note default-y="-25.00" default-x="27.50" dynamics="71.11">
                <pitch>
                    <step>A</step>
                    <octave>4</octave>
                </pitch>
                <duration>2</duration>
                <voice>1</voice>
                <type>quarter</type>
                <stem>up</stem>
                <staff>1</staff>
                <lyric number="1">
                    <syllabic>begin</syllabic>
                    <text>sin</text>
                </lyric>
                <lyric number="2">
                    <syllabic>single</syllabic>
                    <text>ziern</text>
                </lyric>
                <lyric number="3">
                    <syllabic>single</syllabic>
                    <text>wird</text>
                </lyric>
            </note>
            <note default-y="-35.00" default-x="74.12" dynamics="71.11">
                <pitch>
                    <step>F</step>
                    <alter>1</alter>
                    <octave>4</octave>
                </pitch>
                <duration>2</duration>
                <voice>1</voice>
                <type>quarter</type>
                <stem>up</stem>
                <staff>1</staff>
                <lyric number="1">
                    <syllabic>end</syllabic>
                    <text>gan</text>
                </lyric>
                <lyric number="2">
                    <syllabic>single</syllabic>
                    <text>ja</text>
                </lyric>
                <lyric number="3">
                    <syllabic>single</syllabic>
                    <text>a</text>
                </lyric>
            </note>
            <note default-y="-25.00" default-x="118.95">
                <pitch>
                    <step>A</step>
                    <octave>4</octave>
                </pitch>
                <duration>2</duration>
                <voice>1</voice>
                <type>quarter</type>
                <stem>up</stem>
                <staff>1</staff>
                <lyric number="1">
                    <syllabic>single</syllabic>
                    <text>a</text>
                </lyric>
                <lyric number="2">
                    <syllabic>single</syllabic>
                    <text>die</text>
                </lyric>
                <lyric number="3">
                    <syllabic>single</syllabic>
                    <text>mei</text>
                </lyric>
            </note>
            <backup>
                <duration>6</duration>
            </backup>
            <note default-y="-234.49" default-x="27.50" dynamics="71.11">
                <pitch>
                    <step>F</step>
                    <alter>1</alter>
                    <octave>4</octave>
                </pitch>
                <duration>2</duration>
                <voice>5</voice>
                <type>quarter</type>
                <stem>up</stem>
                <staff>2</staff>
            </note>
            <note default-y="-244.49" default-x="74.12" dynamics="71.11">
                <pitch>
                    <step>D</step>
                    <octave>4</octave>
                </pitch>
                <duration>2</duration>
                <voice>5</voice>
                <type>quarter</type>
                <stem>up</stem>
                <staff>2</staff>
            </note>
            <note default-y="-234.49" default-x="118.95">
                <pitch>
                    <step>F</step>
                    <alter>1</alter>
                    <octave>4</octave>
                </pitch>
                <duration>2</duration>
                <voice>5</voice>
                <type>quarter</type>
                <stem>up</stem>
                <staff>2</staff>
            </note>
        </measure>
        <measure width="247.74" number="10">
            <harmony relative-x="10.00" print-frame="no">
                <root>
                    <root-step>A</root-step>
                </root>
                <kind text="">major</kind>
                <staff>1</staff>
            </harmony>
            <note default-y="-25.00" default-x="47.33" dynamics="71.11">
                <pitch>
                    <step>A</step>
                    <octave>4</octave>
                </pitch>
                <duration>1</duration>
                <voice>1</voice>
                <type>eighth</type>
                <stem>up</stem>
                <staff>1</staff>
                <beam number="1">begin</beam>
                <lyric number="1">
                    <syllabic>single</syllabic>
                    <text>Lia__</text>
                </lyric>
                <lyric number="2">
                    <syllabic>single</syllabic>
                    <text>E__</text>
                </lyric>
                <lyric number="3">
                    <syllabic>single</syllabic>
                    <text>Schla___</text>
                </lyric>
            </note>
            <note default-y="-30.00" default-x="95.66" dynamics="71.11">
                <pitch>
                    <step>G</step>
                    <octave>4</octave>
                </pitch>
                <duration>1</duration>
                <voice>1</voice>
                <type>eighth</type>
                <stem>up</stem>
                <staff>1</staff>
                <beam number="1">end</beam>
            </note>
            <note default-y="-40.00" default-x="137.97">
                <pitch>
                    <step>E</step>
                    <octave>4</octave>
                </pitch>
                <duration>3</duration>
                <voice>1</voice>
                <type>quarter</type>
                <dot/>
                <stem>up</stem>
                <staff>1</staff>
                <lyric number="1">
                    <syllabic>single</syllabic>
                    <text>dl</text>
                </lyric>
                <lyric number="2">
                    <syllabic>single</syllabic>
                    <text>gernl</text>
                </lyric>
                <lyric number="3">
                    <syllabic>single</syllabic>
                    <text>ferl</text>
                </lyric>
            </note>
            <note default-y="-30.00" default-x="209.48" dynamics="71.11">
                <pitch>
                    <step>G</step>
                    <octave>4</octave>
                </pitch>
                <duration>1</duration>
                <voice>1</voice>
                <type>eighth</type>
                <stem>up</stem>
                <staff>1</staff>
                <lyric number="1">
                    <syllabic>single</syllabic>
                    <text>dem</text>
                </lyric>
                <lyric number="2">
                    <syllabic>single</syllabic>
                    <text>dei</text>
                </lyric>
                <lyric number="3">
                    <syllabic>single</syllabic>
                    <text>recht</text>
                </lyric>
            </note>
            <backup>
                <duration>6</duration>
            </backup>
            <note default-y="-234.49" default-x="47.33" dynamics="71.11">
                <pitch>
                    <step>F</step>
                    <alter>1</alter>
                    <octave>4</octave>
                </pitch>
                <duration>1</duration>
                <voice>5</voice>
                <type>eighth</type>
                <stem>up</stem>
                <staff>2</staff>
                <beam number="1">begin</beam>
            </note>
            <note default-y="-239.49" default-x="95.66" dynamics="71.11">
                <pitch>
                    <step>E</step>
                    <octave>4</octave>
                </pitch>
                <duration>1</duration>
                <voice>5</voice>
                <type>eighth</type>
                <stem>up</stem>
                <staff>2</staff>
                <beam number="1">end</beam>
            </note>
            <note default-y="-249.49" default-x="137.97">
                <pitch>
                    <step>C</step>
                    <alter>1</alter>
                    <octave>4</octave>
                </pitch>
                <duration>3</duration>
                <voice>5</voice>
                <type>quarter</type>
                <dot/>
                <stem>up</stem>
                <staff>2</staff>
            </note>
            <note default-y="-239.49" default-x="209.48">
                <pitch>
                    <step>E</step>
                    <octave>4</octave>
                </pitch>
                <duration>1</duration>
                <voice>5</voice>
                <type>eighth</type>
                <stem>up</stem>
                <staff>2</staff>
            </note>
        </measure>
        <measure width="268.13" number="11">
            <print new-system="yes">
                <system-layout>
                    <system-margins>
                        <left-margin>18.00</left-margin>
                        <right-margin>0.00</right-margin>
                    </system-margins>
                    <system-distance>129.41</system-distance>
                </system-layout>
                <staff-layout number="2">
                    <staff-distance>159.49</staff-distance>
                </staff-layout>
            </print>
            <harmony relative-x="10.00" print-frame="no">
                <root>
                    <root-step>D</root-step>
                </root>
                <kind text="">major</kind>
                <staff>1</staff>
            </harmony>
            <note default-y="-35.00" default-x="96.74" dynamics="71.11">
                <pitch>
                    <step>F</step>
                    <alter>1</alter>
                    <octave>4</octave>
                </pitch>
                <duration>2</duration>
                <voice>1</voice>
                <type>quarter</type>
                <stem>up</stem>
                <staff>1</staff>
                <lyric number="1">
                    <syllabic>begin</syllabic>
                    <text>Lieb</text>
                </lyric>
                <lyric number="2">
                    <syllabic>begin</syllabic>
                    <text>Lie</text>
                </lyric>
                <lyric number="3">
                    <syllabic>begin</syllabic>
                    <text>sor</text>
                </lyric>
            </note>
            <note default-y="-45.00" default-x="153.34" dynamics="71.11">
                <pitch>
                    <step>D</step>
                    <octave>4</octave>
                </pitch>
                <duration>2</duration>
                <voice>1</voice>
                <type>quarter</type>
                <stem>up</stem>
                <staff>1</staff>
                <lyric number="1">
                    <syllabic>end</syllabic>
                    <text>ling</text>
                </lyric>
                <lyric number="2">
                    <syllabic>middle</syllabic>
                    <text>ge</text>
                </lyric>
                <lyric number="3">
                    <syllabic>middle</syllabic>
                    <text>gen</text>
                </lyric>
            </note>
            <note default-y="-35.00" default-x="209.93">
                <pitch>
                    <step>F</step>
                    <alter>1</alter>
                    <octave>4</octave>
                </pitch>
                <duration>2</duration>
                <voice>1</voice>
                <type>quarter</type>
                <stem>up</stem>
                <staff>1</staff>
                <lyric number="1">
                    <syllabic>single</syllabic>
                    <text>dem</text>
                </lyric>
                <lyric number="2">
                    <syllabic>end</syllabic>
                    <text>statt</text>
                </lyric>
                <lyric number="3">
                    <syllabic>end</syllabic>
                    <text>los</text>
                </lyric>
            </note>
            <backup>
                <duration>6</duration>
            </backup>
            <note default-y="-244.49" default-x="96.74">
                <pitch>
                    <step>D</step>
                    <octave>4</octave>
                </pitch>
                <duration>2</duration>
                <voice>5</voice>
                <type>quarter</type>
                <stem>up</stem>
                <staff>2</staff>
            </note>
            <note default-y="-259.49" default-x="153.34">
                <pitch>
                    <step>A</step>
                    <octave>3</octave>
                </pitch>
                <duration>2</duration>
                <voice>5</voice>
                <type>quarter</type>
                <stem>up</stem>
                <staff>2</staff>
            </note>
            <note default-y="-244.49" default-x="209.93">
                <pitch>
                    <step>D</step>
                    <octave>4</octave>
                </pitch>
                <duration>2</duration>
                <voice>5</voice>
                <type>quarter</type>
                <stem>up</stem>
                <staff>2</staff>
            </note>
        </measure>
        <measure width="181.03" number="12">
            <harmony relative-x="10.00" print-frame="no">
                <root>
                    <root-step>A</root-step>
                </root>
                <kind text="">major</kind>
                <staff>1</staff>
            </harmony>
            <note default-y="-40.00" default-x="30.07" dynamics="71.11">
                <pitch>
                    <step>E</step>
                    <octave>4</octave>
                </pitch>
                <duration>4</duration>
                <voice>1</voice>
                <type>half</type>
                <stem>up</stem>
                <staff>1</staff>
                <lyric number="1">
                    <syllabic>single</syllabic>
                    <text>kloan</text>
                </lyric>
                <lyric number="2">
                    <syllabic>single</syllabic>
                    <text>aus</text>
                </lyric>
                <lyric number="3">
                    <syllabic>single</syllabic>
                    <text>sein</text>
                </lyric>
            </note>
            <note default-y="-60.00" default-x="121.98">
                <pitch>
                    <step>A</step>
                    <octave>3</octave>
                </pitch>
                <duration>2</duration>
                <voice>1</voice>
                <type>quarter</type>
                <stem>up</stem>
                <staff>1</staff>
                <lyric number="1">
                    <syllabic>single</syllabic>
                    <text>du</text>
                </lyric>
                <lyric number="2">
                    <syllabic>single</syllabic>
                    <text>möcht</text>
                </lyric>
                <lyric number="3">
                    <syllabic>single</syllabic>
                    <text>oft</text>
                </lyric>
            </note>
            <backup>
                <duration>6</duration>
            </backup>
            <note default-y="-249.49" default-x="30.07">
                <pitch>
                    <step>C</step>
                    <alter>1</alter>
                    <octave>4</octave>
                </pitch>
                <duration>4</duration>
                <voice>5</voice>
                <type>half</type>
                <stem>up</stem>
                <staff>2</staff>
            </note>
            <note default-y="-259.49" default-x="121.98" dynamics="71.11">
                <pitch>
                    <step>A</step>
                    <octave>3</octave>
                </pitch>
                <duration>2</duration>
                <voice>5</voice>
                <type>quarter</type>
                <stem>up</stem>
                <staff>2</staff>
            </note>
        </measure>
        <measure width="191.87" number="13">
            <harmony relative-x="10.00" print-frame="no">
                <root>
                    <root-step>D</root-step>
                </root>
                <kind text="">major</kind>
                <staff>1</staff>
            </harmony>
            <note default-y="-45.00" default-x="32.00" dynamics="71.11">
                <pitch>
                    <step>D</step>
                    <octave>4</octave>
                </pitch>
                <duration>2</duration>
                <voice>1</voice>
                <type>quarter</type>
                <stem>up</stem>
                <staff>1</staff>
                <lyric number="1">
                    <syllabic>single</syllabic>
                    <text>magst</text>
                </lyric>
                <lyric number="2">
                    <syllabic>begin</syllabic>
                    <text>schö</text>
                </lyric>
                <lyric number="3">
                    <syllabic>single</syllabic>
                    <text>kann</text>
                </lyric>
            </note>
            <note default-y="-45.00" default-x="84.76" dynamics="71.11">
                <pitch>
                    <step>D</step>
                    <octave>4</octave>
                </pitch>
                <duration>2</duration>
                <voice>1</voice>
                <type>quarter</type>
                <stem>up</stem>
                <staff>1</staff>
                <lyric number="1">
                    <syllabic>single</syllabic>
                    <text>ja</text>
                </lyric>
                <lyric number="2">
                    <syllabic>end</syllabic>
                    <text>ner</text>
                </lyric>
                <lyric number="3">
                    <syllabic>single</syllabic>
                    <text>i</text>
                </lyric>
            </note>
            <harmony relative-x="10.00" print-frame="no">
                <root>
                    <root-step>A</root-step>
                </root>
                <kind text="">major</kind>
                <staff>1</staff>
            </harmony>
            <note default-y="-40.00" default-x="137.51" dynamics="71.11">
                <pitch>
                    <step>E</step>
                    <octave>4</octave>
                </pitch>
                <duration>2</duration>
                <voice>1</voice>
                <type>quarter</type>
                <stem>up</stem>
                <staff>1</staff>
                <lyric number="1">
                    <syllabic>single</syllabic>
                    <text>net</text>
                </lyric>
                <lyric number="2">
                    <syllabic>single</syllabic>
                    <text>net</text>
                </lyric>
                <lyric number="3">
                    <syllabic>single</syllabic>
                    <text>mi</text>
                </lyric>
            </note>
            <backup>
                <duration>6</duration>
            </backup>
            <note default-y="-244.49" default-x="32.00" dynamics="71.11">
                <pitch>
                    <step>D</step>
                    <octave>4</octave>
                </pitch>
                <duration>2</duration>
                <voice>5</voice>
                <type>quarter</type>
                <stem>up</stem>
                <staff>2</staff>
            </note>
            <note default-y="-244.49" default-x="84.76" dynamics="71.11">
                <pitch>
                    <step>D</step>
                    <octave>4</octave>
                </pitch>
                <duration>2</duration>
                <voice>5</voice>
                <type>quarter</type>
                <stem>up</stem>
                <staff>2</staff>
            </note>
            <note default-y="-259.49" default-x="137.51" dynamics="71.11">
                <pitch>
                    <step>A</step>
                    <octave>3</octave>
                </pitch>
                <duration>2</duration>
                <voice>5</voice>
                <type>quarter</type>
                <stem>up</stem>
                <staff>2</staff>
            </note>
        </measure>
        <measure width="236.45" number="14">
            <harmony relative-x="10.00" print-frame="no">
                <root>
                    <root-step>D</root-step>
                </root>
                <kind text="">major</kind>
                <staff>1</staff>
            </harmony>
            <note default-y="-35.00" default-x="39.67" dynamics="71.11">
                <pitch>
                    <step>F</step>
                    <alter>1</alter>
                    <octave>4</octave>
                </pitch>
                <duration>1</duration>
                <voice>1</voice>
                <type>eighth</type>
                <stem>up</stem>
                <staff>1</staff>
                <beam number="1">begin</beam>
                <lyric number="1">
                    <syllabic>single</syllabic>
                    <text>schla__</text>
                </lyric>
                <lyric number="2">
                    <syllabic>single</syllabic>
                    <text>sein__</text>
                </lyric>
                <lyric number="3">
                    <syllabic>single</syllabic>
                    <text>ruah__</text>
                </lyric>
            </note>
            <note default-y="-25.00" default-x="80.33" dynamics="71.11">
                <pitch>
                    <step>A</step>
                    <octave>4</octave>
                </pitch>
                <duration>1</duration>
                <voice>1</voice>
                <type>eighth</type>
                <stem>up</stem>
                <staff>1</staff>
                <beam number="1">end</beam>
            </note>
            <note default-y="-25.00" default-x="119.44">
                <pitch>
                    <step>A</step>
                    <octave>4</octave>
                </pitch>
                <duration>3</duration>
                <voice>1</voice>
                <type>quarter</type>
                <dot/>
                <stem>up</stem>
                <staff>1</staff>
                <lyric number="1">
                    <syllabic>single</syllabic>
                    <text>fn</text>
                </lyric>
                <lyric number="2">
                    <syllabic>single</syllabic>
                    <text>in</text>
                </lyric>
                <lyric number="3">
                    <syllabic>single</syllabic>
                    <text>li</text>
                </lyric>
            </note>
            <note default-y="-30.00" default-x="195.74" dynamics="71.11">
                <pitch>
                    <step>G</step>
                    <octave>4</octave>
                </pitch>
                <duration>1</duration>
                <voice>1</voice>
                <type>eighth</type>
                <stem>up</stem>
                <staff>1</staff>
                <lyric number="1">
                    <syllabic>single</syllabic>
                    <text>i</text>
                </lyric>
                <lyric number="2">
                    <syllabic>single</syllabic>
                    <text>an</text>
                </lyric>
                <lyric number="3">
                    <syllabic>single</syllabic>
                    <text>aufs</text>
                </lyric>
            </note>
            <backup>
                <duration>6</duration>
            </backup>
            <note default-y="-244.49" default-x="39.67" dynamics="71.11">
                <pitch>
                    <step>D</step>
                    <octave>4</octave>
                </pitch>
                <duration>1</duration>
                <voice>5</voice>
                <type>eighth</type>
                <stem>up</stem>
                <staff>2</staff>
                <beam number="1">begin</beam>
            </note>
            <note default-y="-234.49" default-x="80.33" dynamics="71.11">
                <pitch>
                    <step>F</step>
                    <alter>1</alter>
                    <octave>4</octave>
                </pitch>
                <duration>1</duration>
                <voice>5</voice>
                <type>eighth</type>
                <stem>up</stem>
                <staff>2</staff>
                <beam number="1">end</beam>
            </note>
            <note default-y="-234.49" default-x="119.44">
                <pitch>
                    <step>F</step>
                    <alter>1</alter>
                    <octave>4</octave>
                </pitch>
                <duration>3</duration>
                <voice>5</voice>
                <type>quarter</type>
                <dot/>
                <stem>up</stem>
                <staff>2</staff>
            </note>
            <note default-y="-239.49" default-x="195.74" dynamics="71.11">
                <pitch>
                    <step>E</step>
                    <octave>4</octave>
                </pitch>
                <duration>1</duration>
                <voice>5</voice>
                <type>eighth</type>
                <stem>up</stem>
                <staff>2</staff>
            </note>
        </measure>
        <measure width="181.63" number="15">
            <note default-y="-35.00" default-x="21.12">
                <pitch>
                    <step>F</step>
                    <alter>1</alter>
                    <octave>4</octave>
                </pitch>
                <duration>2</duration>
                <voice>1</voice>
                <type>quarter</type>
                <stem>up</stem>
                <staff>1</staff>
                <lyric number="1">
                    <syllabic>single</syllabic>
                    <text>hör</text>
                </lyric>
                <lyric number="2">
                    <syllabic>begin</syllabic>
                    <text>Kö</text>
                </lyric>
                <lyric number="3">
                    <syllabic>begin</syllabic>
                    <text>Nie</text>
                </lyric>
            </note>
            <note default-y="-35.00" default-x="74.09" dynamics="71.11">
                <pitch>
                    <step>F</step>
                    <alter>1</alter>
                    <octave>4</octave>
                </pitch>
                <duration>2</duration>
                <voice>1</voice>
                <type>quarter</type>
                <stem>up</stem>
                <staff>1</staff>
                <lyric number="1">
                    <syllabic>single</syllabic>
                    <text>die</text>
                </lyric>
                <lyric number="2">
                    <syllabic>end</syllabic>
                    <text>nig</text>
                </lyric>
                <lyric number="3">
                    <syllabic>middle</syllabic>
                    <text>der</text>
                </lyric>
            </note>
            <harmony relative-x="10.00" print-frame="no">
                <root>
                    <root-step>A</root-step>
                </root>
                <kind text="">major</kind>
                <staff>1</staff>
            </harmony>
            <note default-y="-40.00" default-x="127.06" dynamics="71.11">
                <pitch>
                    <step>E</step>
                    <octave>4</octave>
                </pitch>
                <duration>2</duration>
                <voice>1</voice>
                <type>quarter</type>
                <stem>up</stem>
                <staff>1</staff>
                <lyric number="1">
                    <syllabic>single</syllabic>
                    <text>nur</text>
                </lyric>
                <lyric number="2">
                    <syllabic>single</syllabic>
                    <text>sein</text>
                </lyric>
                <lyric number="3">
                    <syllabic>end</syllabic>
                    <text>legn</text>
                </lyric>
            </note>
            <backup>
                <duration>6</duration>
            </backup>
            <note default-y="-244.49" default-x="21.12" dynamics="71.11">
                <pitch>
                    <step>D</step>
                    <octave>4</octave>
                </pitch>
                <duration>2</duration>
                <voice>5</voice>
                <type>quarter</type>
                <stem>up</stem>
                <staff>2</staff>
            </note>
            <note default-y="-244.49" default-x="74.09" dynamics="71.11">
                <pitch>
                    <step>D</step>
                    <octave>4</octave>
                </pitch>
                <duration>2</duration>
                <voice>5</voice>
                <type>quarter</type>
                <stem>up</stem>
                <staff>2</staff>
            </note>
            <note default-y="-259.49" default-x="127.06" dynamics="71.11">
                <pitch>
                    <step>A</step>
                    <octave>3</octave>
                </pitch>
                <duration>2</duration>
                <voice>5</voice>
                <type>quarter</type>
                <stem>up</stem>
                <staff>2</staff>
            </note>
        </measure>
        <measure width="278.72" number="16">
            <print new-system="yes">
                <system-layout>
                    <system-margins>
                        <left-margin>18.00</left-margin>
                        <right-margin>0.00</right-margin>
                    </system-margins>
                    <system-distance>129.41</system-distance>
                </system-layout>
                <staff-layout number="2">
                    <staff-distance>159.49</staff-distance>
                </staff-layout>
            </print>
            <harmony relative-x="10.00" print-frame="no">
                <root>
                    <root-step>D</root-step>
                </root>
                <kind text="">major</kind>
                <staff>1</staff>
            </harmony>
            <note default-y="-45.00" default-x="103.45" dynamics="71.11">
                <pitch>
                    <step>D</step>
                    <octave>4</octave>
                </pitch>
                <duration>4</duration>
                <voice>1</voice>
                <type>half</type>
                <stem>up</stem>
                <staff>1</staff>
                <lyric number="1">
                    <syllabic>single</syllabic>
                    <text>woan.</text>
                </lyric>
                <lyric number="2">
                    <syllabic>single</syllabic>
                    <text>Haus</text>
                </lyric>
                <lyric number="3">
                    <syllabic>single</syllabic>
                    <text>freun.</text>
                </lyric>
            </note>
            <harmony relative-x="10.00" print-frame="no">
                <root>
                    <root-step>A</root-step>
                </root>
                <kind text="">major</kind>
                <staff>1</staff>
            </harmony>
            <note default-y="-30.00" default-x="194.42" dynamics="71.11">
                <pitch>
                    <step>G</step>
                    <octave>4</octave>
                </pitch>
                <duration>1</duration>
                <voice>1</voice>
                <type>eighth</type>
                <stem>up</stem>
                <staff>1</staff>
                <beam number="1">begin</beam>
                <lyric number="1">
                    <syllabic>single</syllabic>
                    <text>Hei___</text>
                </lyric>
            </note>
            <note default-y="-50.00" default-x="235.77" dynamics="71.11">
                <pitch>
                    <step>C</step>
                    <alter>1</alter>
                    <octave>4</octave>
                </pitch>
                <duration>1</duration>
                <voice>1</voice>
                <type>eighth</type>
                <stem>up</stem>
                <staff>1</staff>
                <beam number="1">end</beam>
            </note>
            <backup>
                <duration>6</duration>
            </backup>
            <note default-y="-259.49" default-x="103.45" dynamics="71.11">
                <pitch>
                    <step>A</step>
                    <octave>3</octave>
                </pitch>
                <duration>4</duration>
                <voice>5</voice>
                <type>half</type>
                <stem>up</stem>
                <staff>2</staff>
            </note>
            <note default-y="-259.49" default-x="194.42">
                <pitch>
                    <step>A</step>
                    <octave>3</octave>
                </pitch>
                <duration>2</duration>
                <voice>5</voice>
                <type>quarter</type>
                <stem>up</stem>
                <staff>2</staff>
            </note>
        </measure>
        <measure width="180.11" number="17">
            <harmony relative-x="10.00" print-frame="no">
                <root>
                    <root-step>D</root-step>
                </root>
                <kind text="">major</kind>
                <staff>1</staff>
            </harmony>
            <note default-y="-45.00" default-x="21.12">
                <pitch>
                    <step>D</step>
                    <octave>4</octave>
                </pitch>
                <duration>4</duration>
                <voice>1</voice>
                <type>half</type>
                <stem>up</stem>
                <staff>1</staff>
                <lyric number="1">
                    <syllabic>single</syllabic>
                    <text>Hei</text>
                </lyric>
            </note>
            <harmony relative-x="10.00" print-frame="no">
                <root>
                    <root-step>A</root-step>
                </root>
                <kind text="">major</kind>
                <staff>1</staff>
            </harmony>
            <note default-y="-40.00" default-x="103.56" dynamics="71.11">
                <pitch>
                    <step>E</step>
                    <octave>4</octave>
                </pitch>
                <duration>1</duration>
                <voice>1</voice>
                <type>eighth</type>
                <stem>up</stem>
                <staff>1</staff>
                <beam number="1">begin</beam>
                <lyric number="1">
                    <syllabic>single</syllabic>
                    <text>hei___</text>
                </lyric>
            </note>
            <note default-y="-60.00" default-x="141.03" dynamics="71.11">
                <pitch>
                    <step>A</step>
                    <octave>3</octave>
                </pitch>
                <duration>1</duration>
                <voice>1</voice>
                <type>eighth</type>
                <stem>up</stem>
                <staff>1</staff>
                <beam number="1">end</beam>
            </note>
            <backup>
                <duration>6</duration>
            </backup>
            <note default-y="-244.49" default-x="21.12" dynamics="71.11">
                <pitch>
                    <step>D</step>
                    <octave>4</octave>
                </pitch>
                <duration>4</duration>
                <voice>5</voice>
                <type>half</type>
                <stem>up</stem>
                <staff>2</staff>
            </note>
            <note default-y="-259.49" default-x="103.56" dynamics="71.11">
                <pitch>
                    <step>A</step>
                    <octave>3</octave>
                </pitch>
                <duration>2</duration>
                <voice>5</voice>
                <type>quarter</type>
                <stem>up</stem>
                <staff>2</staff>
            </note>
        </measure>
        <measure width="211.42" number="18">
            <harmony relative-x="10.00" print-frame="no">
                <root>
                    <root-step>D</root-step>
                </root>
                <kind text="">major</kind>
                <staff>1</staff>
            </harmony>
            <note default-y="-45.00" default-x="21.43">
                <pitch>
                    <step>D</step>
                    <octave>4</octave>
                </pitch>
                <duration>4</duration>
                <voice>1</voice>
                <type>half</type>
                <stem>up</stem>
                <staff>1</staff>
                <lyric number="1">
                    <syllabic>single</syllabic>
                    <text>hei.</text>
                </lyric>
            </note>
            <note default-y="-45.00" default-x="115.09" dynamics="88.89">
                <pitch>
                    <step>D</step>
                    <octave>4</octave>
                </pitch>
                <duration>1</duration>
                <voice>1</voice>
                <type>eighth</type>
                <stem>up</stem>
                <staff>1</staff>
                <beam number="1">begin</beam>
                <lyric number="1">
                    <syllabic>single</syllabic>
                    <text>Schlaf___</text>
                </lyric>
            </note>
            <note default-y="-35.00" default-x="167.25" dynamics="71.11">
                <pitch>
                    <step>F</step>
                    <alter>1</alter>
                    <octave>4</octave>
                </pitch>
                <duration>1</duration>
                <voice>1</voice>
                <type>eighth</type>
                <stem>up</stem>
                <staff>1</staff>
                <beam number="1">end</beam>
            </note>
            <backup>
                <duration>6</duration>
            </backup>
            <note default-y="-244.49" default-x="21.43" dynamics="71.11">
                <pitch>
                    <step>D</step>
                    <octave>4</octave>
                </pitch>
                <duration>4</duration>
                <voice>5</voice>
                <type>half</type>
                <stem>up</stem>
                <staff>2</staff>
            </note>
            <note default-y="-244.49" default-x="115.09" dynamics="71.11">
                <pitch>
                    <step>D</step>
                    <octave>4</octave>
                </pitch>
                <duration>1</duration>
                <voice>5</voice>
                <type>eighth</type>
                <stem>up</stem>
                <staff>2</staff>
                <beam number="1">begin</beam>
            </note>
            <note default-y="-234.49" default-x="167.25" dynamics="71.11">
                <pitch>
                    <step>F</step>
                    <alter>1</alter>
                    <octave>4</octave>
                </pitch>
                <duration>1</duration>
                <voice>5</voice>
                <type>eighth</type>
                <stem>up</stem>
                <staff>2</staff>
                <beam number="1">end</beam>
            </note>
        </measure>
        <measure width="291.24" number="19">
            <note default-y="-25.00" default-x="25.60" dynamics="71.11">
                <pitch>
                    <step>A</step>
                    <octave>4</octave>
                </pitch>
                <duration>2</duration>
                <voice>1</voice>
                <type>quarter</type>
                <stem>up</stem>
                <staff>1</staff>
                <lyric number="1">
                    <syllabic>single</syllabic>
                    <text>süaß</text>
                </lyric>
            </note>
            <note default-y="-35.00" default-x="97.38" dynamics="71.11">
                <pitch>
                    <step>F</step>
                    <alter>1</alter>
                    <octave>4</octave>
                </pitch>
                <duration>1</duration>
                <voice>1</voice>
                <type>eighth</type>
                <stem>up</stem>
                <staff>1</staff>
                <beam number="1">begin</beam>
                <lyric number="1">
                    <syllabic>single</syllabic>
                    <text>herz__</text>
                </lyric>
            </note>
            <note default-y="-45.00" default-x="142.25" dynamics="71.11">
                <pitch>
                    <step>D</step>
                    <octave>4</octave>
                </pitch>
                <duration>1</duration>
                <voice>1</voice>
                <type>eighth</type>
                <stem>up</stem>
                <staff>1</staff>
                <beam number="1">end</beam>
            </note>
            <harmony relative-x="10.00" print-frame="no">
                <root>
                    <root-step>A</root-step>
                </root>
                <kind text="">major</kind>
                <staff>1</staff>
            </harmony>
            <note default-y="-40.00" default-x="199.92" dynamics="71.11">
                <pitch>
                    <step>E</step>
                    <octave>4</octave>
                </pitch>
                <duration>1</duration>
                <voice>1</voice>
                <type>eighth</type>
                <stem>up</stem>
                <staff>1</staff>
                <beam number="1">begin</beam>
                <lyric number="1">
                    <syllabic>single</syllabic>
                    <text>liabs___</text>
                </lyric>
            </note>
            <note default-y="-60.00" default-x="244.78" dynamics="71.11">
                <pitch>
                    <step>A</step>
                    <octave>3</octave>
                </pitch>
                <duration>1</duration>
                <voice>1</voice>
                <type>eighth</type>
                <stem>up</stem>
                <staff>1</staff>
                <beam number="1">end</beam>
            </note>
            <backup>
                <duration>6</duration>
            </backup>
            <note default-y="-234.49" default-x="25.60">
                <pitch>
                    <step>F</step>
                    <alter>1</alter>
                    <octave>4</octave>
                </pitch>
                <duration>2</duration>
                <voice>5</voice>
                <type>quarter</type>
                <stem>up</stem>
                <staff>2</staff>
            </note>
            <note default-y="-234.49" default-x="25.60">
                <chord/>
                <pitch>
                    <step>F</step>
                    <alter>1</alter>
                    <octave>4</octave>
                </pitch>
                <duration>2</duration>
                <voice>5</voice>
                <type>quarter</type>
                <stem>up</stem>
                <staff>2</staff>
            </note>
            <note default-y="-244.49" default-x="97.38" dynamics="71.11">
                <pitch>
                    <step>D</step>
                    <octave>4</octave>
                </pitch>
                <duration>1</duration>
                <voice>5</voice>
                <type>eighth</type>
                <stem>up</stem>
                <staff>2</staff>
                <beam number="1">begin</beam>
            </note>
            <note default-y="-259.49" default-x="142.25" dynamics="71.11">
                <pitch>
                    <step>A</step>
                    <octave>3</octave>
                </pitch>
                <duration>1</duration>
                <voice>5</voice>
                <type>eighth</type>
                <stem>up</stem>
                <staff>2</staff>
                <beam number="1">end</beam>
            </note>
            <note default-y="-259.49" default-x="199.92" dynamics="71.11">
                <pitch>
                    <step>A</step>
                    <octave>3</octave>
                </pitch>
                <duration>2</duration>
                <voice>5</voice>
                <type>quarter</type>
                <stem>up</stem>
                <staff>2</staff>
            </note>
        </measure>
        <measure width="97.61" number="20">
            <harmony relative-x="10.00" print-frame="no">
                <root>
                    <root-step>D</root-step>
                </root>
                <kind text="">major</kind>
                <staff>1</staff>
            </harmony>
            <note default-y="-45.00" default-x="27.51" dynamics="71.11">
                <pitch>
                    <step>D</step>
                    <octave>4</octave>
                </pitch>
                <duration>4</duration>
                <voice>1</voice>
                <type>half</type>
                <stem>up</stem>
                <staff>1</staff>
                <lyric number="1">
                    <syllabic>single</syllabic>
                    <text>Kind</text>
                </lyric>
            </note>
            <backup>
                <duration>4</duration>
            </backup>
            <note default-y="-244.49" default-x="27.51" dynamics="88.89">
                <pitch>
                    <step>D</step>
                    <octave>4</octave>
                </pitch>
                <duration>4</duration>
                <voice>5</voice>
                <type>half</type>
                <stem>up</stem>
                <staff>2</staff>
            </note>
            <barline location="right">
                <bar-style>light-heavy</bar-style>
            </barline>
        </measure>
    </part>
</score-partwise>
